<svg width="17" height="16" viewBox="0 0 17 16" fill="none" xmlns="http://www.w3.org/2000/svg">
<g id="icon/user-plus">
<path id="Vector" d="M11.1997 13.85V12.55C11.1997 11.8605 10.9258 11.1991 10.4382 10.7115C9.95056 10.2239 9.28924 9.95001 8.59967 9.95001H4.69963C4.01006 9.95001 3.34874 10.2239 2.86114 10.7115C2.37354 11.1991 2.09961 11.8605 2.09961 12.55V13.85" stroke="#4659FF" stroke-width="1.30001" stroke-linecap="round" stroke-linejoin="round"/>
<path id="Vector_2" d="M6.64983 7.34998C8.08578 7.34998 9.24985 6.18591 9.24985 4.74996C9.24985 3.314 8.08578 2.14993 6.64983 2.14993C5.21387 2.14993 4.0498 3.314 4.0498 4.74996C4.0498 6.18591 5.21387 7.34998 6.64983 7.34998Z" stroke="#4659FF" stroke-width="1.30001" stroke-linecap="round" stroke-linejoin="round"/>
<path id="Vector_3" d="M13.1499 5.39996V9.3" stroke="#4659FF" stroke-width="1.30001" stroke-linecap="round" stroke-linejoin="round"/>
<path id="Vector_4" d="M15.0997 7.34998H11.1997" stroke="#4659FF" stroke-width="1.30001" stroke-linecap="round" stroke-linejoin="round"/>
</g>
</svg>
