<?xml version="1.0" standalone="no"?>
<!DOCTYPE svg PUBLIC "-//W3C//DTD SVG 20010904//EN"
 "http://www.w3.org/TR/2001/REC-SVG-20010904/DTD/svg10.dtd">
<svg version="1.0" xmlns="http://www.w3.org/2000/svg"
 width="1024.000000pt" height="1024.000000pt" viewBox="0 0 1024.000000 1024.000000"
 preserveAspectRatio="xMidYMid meet">

<g transform="translate(0.000000,1024.000000) scale(0.100000,-0.100000)"
fill="#000000" stroke="none">
<path d="M9104 9225 c-16 -24 -16 -27 2 -46 11 -12 50 -37 89 -56 38 -20 100
-55 136 -80 65 -42 213 -166 253 -212 24 -26 48 -27 71 -1 16 18 16 20 -3 52
-59 94 -286 270 -447 344 -64 30 -81 30 -101 -1z"/>
<path d="M8522 9048 c-18 -18 -15 -56 6 -67 10 -5 62 -14 116 -20 120 -14 216
-33 326 -66 111 -33 138 -33 146 2 10 37 -17 56 -133 93 -173 56 -431 88 -461
58z"/>
<path d="M7710 8901 c-199 -64 -310 -209 -311 -405 0 -191 100 -346 278 -428
35 -15 69 -28 77 -28 8 0 32 -30 53 -67 61 -109 211 -435 283 -613 l66 -165
41 -3 c37 -3 45 -8 72 -50 17 -26 44 -61 61 -77 29 -28 31 -28 44 -10 7 10 21
40 30 66 l18 48 46 -36 c43 -32 82 -53 101 -53 9 0 81 236 81 264 0 14 15 16
109 16 79 0 112 4 120 13 6 8 20 92 31 188 11 96 22 183 25 194 3 13 40 38
112 75 l108 56 -2 39 c-1 22 -18 95 -37 162 -20 67 -36 124 -36 127 0 2 34 23
75 45 41 23 75 46 75 51 0 11 -54 110 -82 152 -22 32 -23 54 -2 103 8 20 14
41 12 46 -2 6 -39 22 -83 37 -80 27 -80 28 -89 70 l-9 42 -396 -6 -396 -7 -50
42 c-92 78 -226 132 -325 130 -25 0 -70 -8 -100 -18z m227 -136 c40 -16 42
-19 48 -69 9 -70 -7 -151 -46 -231 -37 -76 -140 -192 -160 -180 -7 5 -10 4 -5
-3 7 -12 -59 -62 -82 -62 -23 0 -117 97 -142 147 -32 64 -34 176 -4 243 38 82
106 145 185 169 47 14 155 7 206 -14z m213 -126 c14 -25 -3 -144 -35 -246 -3
-9 -16 -8 -52 4 -26 9 -51 19 -56 22 -4 4 2 42 13 86 11 43 20 109 20 147 l0
68 50 -31 c28 -17 55 -39 60 -50z m398 -35 c2 -14 0 -30 -5 -34 -7 -7 -93 0
-203 14 -19 3 -47 5 -62 6 -22 0 -28 5 -28 23 0 22 1 22 147 20 l148 -2 3 -27z
m362 28 c0 -5 27 -21 60 -37 48 -23 60 -33 58 -50 -4 -24 -4 -24 -208 -6 -204
17 -197 15 -192 56 l4 34 67 4 c140 7 211 7 211 -1z m-505 -107 c66 -8 123
-15 128 -15 8 0 9 -36 1 -68 -4 -15 -12 -21 -23 -18 -270 71 -261 68 -261 93
0 27 -3 27 155 8z m495 -46 l116 -12 46 -57 46 -57 -59 -28 -59 -29 -172 43
c-235 59 -221 52 -213 104 4 23 10 46 13 51 5 9 92 5 282 -15z m-523 -123 c56
-17 105 -35 109 -39 6 -6 -14 -67 -22 -67 -18 0 -234 118 -234 127 0 20 36 15
147 -21z m522 -103 l65 -18 43 -130 c23 -72 43 -137 43 -146 0 -10 -11 -20
-25 -23 -15 -4 -54 -20 -87 -36 l-61 -30 -96 59 c-218 132 -276 173 -275 189
1 9 16 58 33 107 18 50 34 95 36 102 4 11 49 1 324 -74z m-662 -6 c130 -60
216 -125 160 -121 -20 2 -217 126 -217 136 0 11 3 10 57 -15z m1 -150 c56 -38
105 -73 108 -78 3 -5 -4 -24 -15 -42 l-21 -32 -105 108 c-58 59 -103 112 -100
117 8 12 4 14 133 -73z m2 -237 c0 -3 -12 -21 -28 -39 l-27 -33 -88 141 c-51
83 -85 146 -81 153 5 8 46 -28 116 -102 59 -63 108 -117 108 -120z m415 69
c90 -60 168 -116 173 -122 6 -8 2 -69 -9 -162 -10 -82 -18 -155 -18 -161 -1
-7 -26 -10 -78 -7 -73 4 -80 7 -108 38 -59 65 -268 346 -261 352 3 3 7 4 9 2
1 -2 21 -26 42 -53 22 -28 45 -56 50 -64 9 -11 11 -8 10 11 0 14 -4 29 -8 33
-4 5 -5 0 -1 -11 7 -18 6 -18 -9 -6 -9 7 -14 17 -11 22 3 5 0 9 -6 9 -6 0 -8
5 -5 10 4 6 1 9 -6 8 -6 -2 -20 11 -31 29 l-19 32 48 80 c30 51 53 79 61 76 7
-3 87 -55 177 -116z m-667 19 c49 -69 105 -154 135 -204 3 -6 -6 -23 -22 -38
l-28 -27 -84 168 c-46 92 -85 171 -87 176 -2 4 3 7 12 7 8 0 41 -37 74 -82z
m441 -296 c62 -79 121 -158 132 -176 l19 -33 -24 -74 c-14 -41 -28 -91 -32
-111 -3 -21 -10 -38 -14 -38 -11 0 -57 69 -75 113 -8 21 -58 112 -110 202 -52
91 -95 167 -95 170 0 14 74 105 80 98 4 -4 58 -72 119 -151z m-196 -74 c30
-51 74 -130 98 -174 l44 -82 -19 -56 c-11 -31 -23 -56 -28 -56 -4 0 -8 4 -8 8
0 5 -22 32 -48 59 -39 41 -60 78 -106 187 l-58 137 33 34 c19 19 35 35 36 35
0 0 26 -42 56 -92z"/>
<path d="M8062 8545 c0 -16 2 -22 5 -12 2 9 2 23 0 30 -3 6 -5 -1 -5 -18z"/>
<path d="M8480 7761 c0 -6 4 -13 10 -16 6 -3 7 1 4 9 -7 18 -14 21 -14 7z"/>
<path d="M8480 7726 c0 -2 8 -10 18 -17 15 -13 16 -12 3 4 -13 16 -21 21 -21
13z"/>
<path d="M8635 7561 c50 -58 56 -64 60 -59 3 2 -17 24 -43 49 -34 32 -39 35
-17 10z"/>
<path d="M8650 7576 c0 -2 8 -10 18 -17 15 -13 16 -12 3 4 -13 16 -21 21 -21
13z"/>
<path d="M3620 8843 c-49 -23 -168 -147 -229 -239 -171 -255 -270 -621 -271
-996 0 -176 11 -269 46 -405 l24 -92 -49 -100 c-27 -55 -64 -141 -81 -191 -31
-85 -34 -90 -61 -90 -23 0 -30 5 -34 28 -15 74 -95 296 -140 391 -275 569
-819 971 -1314 971 -548 -1 -931 -431 -931 -1046 0 -259 69 -540 192 -787 59
-118 175 -302 245 -390 l63 -78 0 -539 0 -540 -129 0 c-117 0 -131 -2 -162
-23 -79 -53 -72 -189 12 -233 23 -12 107 -14 494 -14 l465 0 0 -295 c0 -196
-3 -295 -10 -295 -26 0 -277 -113 -292 -131 -26 -30 -23 -81 5 -107 41 -38 82
-29 277 59 l179 81 34 -21 c51 -31 110 -28 137 6 16 20 20 36 16 58 -11 50
-35 66 -125 77 l-81 11 0 308 0 309 444 0 444 0 62 -116 62 -116 -16 -42 c-19
-50 -20 -110 -2 -151 12 -29 10 -33 -36 -99 -167 -240 -88 -541 176 -672 77
-38 84 -39 198 -43 l118 -3 20 -72 c38 -129 63 -187 106 -247 42 -57 126 -128
152 -129 18 0 16 -6 -26 -63 -123 -169 -232 -368 -285 -520 -29 -85 -31 -102
-32 -222 0 -124 1 -133 29 -190 149 -303 533 -281 1030 58 49 34 114 84 143
111 l55 49 106 2 c92 1 120 5 200 33 51 17 120 50 155 71 l62 40 12 -62 c25
-133 72 -217 179 -321 l63 -61 -6 -125 -6 -125 -181 8 c-203 9 -773 2 -1019
-13 -418 -26 -755 -82 -823 -138 -63 -50 -18 -113 107 -150 178 -52 438 -90
819 -119 301 -22 1328 -26 1535 -5 485 49 725 109 725 182 0 22 -37 56 -83 75
-36 15 -163 47 -240 60 l-37 6 59 69 c167 194 283 418 313 604 7 47 18 79 33
96 116 131 193 347 202 567 l6 122 26 -4 c137 -21 310 -9 449 31 166 48 332
147 454 268 95 95 137 153 203 284 75 149 105 267 105 418 0 63 -3 114 -8 114
-4 0 -18 -7 -30 -16 -12 -8 -22 -14 -22 -12 0 2 -3 31 -5 65 -2 34 -11 90 -20
125 -24 96 -106 255 -164 320 -28 31 -51 58 -51 60 0 1 155 2 345 0 l345 -3 0
-313 0 -313 -72 -7 c-84 -8 -114 -24 -126 -69 -12 -44 8 -83 48 -92 35 -8 86
2 116 22 20 13 31 11 111 -20 48 -19 125 -53 170 -76 115 -57 161 -54 183 14
18 55 -2 83 -90 127 -41 20 -103 47 -137 60 l-63 23 0 292 0 293 446 0 c489 0
481 -1 518 60 24 41 21 110 -7 151 -35 52 -58 59 -194 59 l-123 0 -2 1071 -3
1071 -33 29 c-27 24 -41 29 -83 29 -43 0 -55 -5 -80 -29 -27 -27 -29 -35 -29
-105 l0 -76 -889 0 -889 0 -18 53 c-9 28 -29 81 -44 116 l-28 64 25 55 c67
152 97 331 96 567 -2 240 -45 478 -123 672 -58 144 -169 314 -233 354 -41 26
-96 20 -234 -26 -285 -95 -553 -243 -774 -427 l-61 -51 -107 27 c-253 62 -466
82 -708 66 -87 -6 -192 -17 -233 -24 l-75 -14 -49 56 c-192 222 -493 457 -741
577 -132 65 -150 69 -195 48z m155 -256 c204 -102 497 -344 629 -520 33 -43
57 -79 55 -80 -7 -5 -254 -87 -262 -87 -4 0 -22 30 -40 67 -17 37 -52 99 -78
138 -52 79 -164 221 -182 231 -7 4 -2 -4 11 -18 12 -13 22 -30 22 -36 0 -7 7
-15 15 -18 8 -4 15 -12 15 -20 0 -8 5 -14 10 -14 6 0 8 -11 4 -25 -4 -15 -2
-25 5 -25 16 0 13 -17 -4 -24 -9 -3 -15 -1 -14 7 3 25 -1 38 -11 32 -6 -4 -8
-12 -4 -18 6 -13 -15 12 -43 52 -89 124 -177 211 -212 211 -63 0 -128 -75
-198 -228 -41 -91 -100 -310 -108 -402 -11 -126 -16 -154 -26 -139 -7 11 -9 9
-9 -8 0 -13 -4 -23 -10 -23 -5 0 -11 -28 -13 -62 -3 -35 -3 16 -2 112 4 199
21 299 85 491 82 247 220 461 285 442 11 -3 47 -19 80 -36z m2991 -243 c84
-125 151 -338 174 -552 14 -129 9 -398 -8 -428 -11 -18 -11 -18 -12 3 0 12 -5
34 -12 48 l-12 26 -13 -23 c-12 -21 -13 -17 -8 32 3 30 7 81 10 112 8 87 -12
273 -40 384 -43 165 -113 294 -159 294 -40 0 -157 -60 -238 -121 -74 -57 -96
-70 -83 -49 35 57 -170 -141 -245 -237 -23 -29 -43 -53 -45 -53 -11 0 -255
123 -255 129 0 21 189 172 332 265 167 109 470 239 543 233 25 -2 37 -13 71
-63z m-3033 -158 c40 -60 127 -230 157 -307 l20 -49 -28 -12 c-54 -24 -189
-117 -254 -178 l-68 -62 0 127 c0 134 14 224 57 360 23 72 68 175 77 175 2 0
19 -24 39 -54z m252 -56 c3 -5 1 -10 -4 -10 -6 0 -11 5 -11 10 0 6 2 10 4 10
3 0 8 -4 11 -10z m25 -20 c0 -5 -5 -10 -11 -10 -5 0 -7 5 -4 10 3 6 8 10 11
10 2 0 4 -4 4 -10z m2326 -86 c-30 -21 -42 -17 -15 5 13 11 26 17 29 14 3 -2
-4 -11 -14 -19z m312 -1 c17 -33 41 -157 53 -276 9 -93 9 -142 -1 -235 l-13
-118 -106 105 c-59 59 -138 126 -177 151 l-70 45 51 74 c49 73 229 271 246
271 5 0 12 -8 17 -17z m-1400 -34 c238 -25 416 -78 631 -185 262 -130 425
-238 414 -272 -3 -13 -2 -14 4 -4 8 10 12 10 23 -3 11 -14 7 -19 -13 -16 -5 1
-6 -3 -2 -9 4 -6 13 -5 25 3 17 10 23 8 42 -12 13 -13 17 -20 9 -16 -9 5 -12
3 -9 -6 3 -8 12 -13 20 -11 27 4 38 -20 23 -48 -9 -16 -14 -19 -15 -9 0 8 5
20 11 26 7 7 7 13 0 17 -5 4 -17 -6 -26 -21 -13 -24 -15 -25 -9 -5 5 19 2 23
-13 20 -10 -2 -22 5 -29 17 -6 11 -16 19 -23 17 -6 -1 -14 5 -17 13 -10 24
-26 17 -18 -7 6 -20 5 -21 -9 -9 -9 7 -14 18 -10 24 3 6 1 7 -6 3 -6 -4 -9
-12 -6 -17 4 -5 -3 -9 -14 -9 -12 0 -21 7 -21 16 0 8 -5 12 -10 9 -6 -4 -7
-12 -3 -18 5 -9 3 -9 -8 0 -9 7 -20 8 -29 3 -16 -10 -30 -4 -30 11 0 6 4 7 10
4 5 -3 7 0 4 9 -7 19 -35 29 -47 17 -12 -12 62 -94 80 -87 8 3 13 0 11 -7 -4
-17 62 -88 74 -81 5 4 8 0 6 -8 -4 -17 41 -80 53 -73 5 4 6 0 3 -8 -3 -8 -1
-18 5 -22 6 -3 11 -1 11 5 0 6 5 8 11 4 8 -5 7 -9 -1 -14 -10 -6 -8 -14 7 -34
11 -14 24 -22 28 -18 5 4 5 1 1 -6 -4 -7 7 -37 27 -70 100 -166 199 -512 243
-850 21 -157 51 -306 64 -310 6 -2 8 -7 5 -11 -2 -5 25 -16 61 -26 77 -21 220
-89 280 -133 39 -28 44 -39 78 -147 20 -64 55 -157 76 -207 22 -50 39 -92 37
-93 -1 -2 -65 -37 -142 -80 -77 -43 -178 -101 -225 -130 -47 -29 -98 -59 -113
-67 -28 -14 -27 -15 50 -26 153 -24 151 -16 37 -110 -366 -307 -820 -496
-1359 -567 -143 -19 -476 -31 -560 -20 l-60 7 44 14 c64 19 140 76 184 136 21
29 103 190 183 358 220 461 227 476 228 539 1 73 -20 79 -53 15 -34 -63 -103
-129 -170 -161 -79 -38 -221 -44 -302 -14 -94 36 -169 113 -169 176 0 20 5 25
23 25 34 0 128 34 173 63 40 25 104 90 123 125 6 11 15 39 20 63 21 94 -32
184 -139 238 -81 40 -156 54 -264 49 -141 -6 -245 -61 -287 -153 -10 -22 -19
-54 -19 -72 0 -53 38 -139 85 -191 45 -50 147 -112 184 -112 33 0 28 -51 -9
-94 -80 -91 -248 -109 -348 -36 -49 35 -77 81 -95 151 -11 41 -19 54 -33 54
-16 0 -20 -9 -22 -50 -2 -41 8 -82 52 -208 75 -212 120 -366 155 -529 16 -75
37 -152 47 -170 33 -64 88 -131 133 -159 25 -16 42 -29 38 -29 -4 0 -79 18
-165 39 -433 108 -847 310 -1112 543 -106 94 -294 289 -338 351 -33 46 -33 48
-10 42 36 -8 219 -45 226 -45 3 0 -38 33 -91 73 -53 39 -159 123 -235 185
l-140 113 65 97 c99 148 146 258 265 617 162 489 220 621 379 859 115 174 275
333 458 456 208 139 581 271 851 299 113 12 338 12 448 0z m1002 -43 c0 -2 -8
-10 -17 -17 -16 -13 -17 -12 -4 4 13 16 21 21 21 13z m-4516 -40 c303 -90 603
-330 808 -646 122 -188 201 -378 244 -589 23 -110 25 -142 21 -251 -7 -150
-32 -261 -87 -377 -76 -162 -189 -289 -316 -355 -35 -18 -64 -36 -64 -41 0 -4
74 -134 163 -290 155 -267 215 -374 405 -717 77 -140 142 -265 142 -274 0 -2
-11 -6 -25 -9 -30 -5 -37 6 -255 398 -68 121 -169 299 -225 395 -57 96 -120
207 -141 245 -21 39 -57 101 -80 138 -26 42 -40 75 -37 87 7 25 6 25 -80 -2
-60 -19 -95 -23 -207 -23 -238 0 -307 13 -439 79 -265 135 -561 520 -704 916
-72 200 -92 307 -92 490 0 173 14 257 64 387 98 251 273 406 521 459 101 21
275 12 384 -20z m4431 -115 c-3 -6 -11 -11 -17 -11 -6 0 -6 6 2 15 14 17 26
13 15 -4z m-4 -34 c-6 -8 -7 -17 -3 -22 4 -4 -3 -2 -15 4 -25 13 -31 24 -9 15
8 -3 17 -1 21 5 3 6 9 11 12 11 3 0 0 -6 -6 -13z m-2814 -149 c-3 -8 -6 -5 -6
6 -1 11 2 17 5 13 3 -3 4 -12 1 -19z m2773 -103 c0 -8 -2 -15 -4 -15 -2 0 -6
7 -10 15 -3 8 -1 15 4 15 6 0 10 -7 10 -15z m51 -48 c-10 -9 -11 -8 -5 6 3 10
9 15 12 12 3 -3 0 -11 -7 -18z m157 -11 c0 -6 2 -19 7 -29 4 -10 5 -21 1 -24
-3 -4 -6 1 -6 10 0 17 -11 22 -24 10 -3 -4 -15 -7 -26 -8 -15 -1 -17 1 -9 11
6 7 8 17 5 23 -4 5 2 11 11 13 31 7 43 5 41 -6z m-81 -78 c-3 -7 -5 -2 -5 12
0 14 2 19 5 13 2 -7 2 -19 0 -25z m2364 -858 l289 0 0 -883 0 -883 -777 4
-777 3 -56 24 c-30 13 -83 29 -117 35 -35 7 -63 16 -63 19 0 4 21 27 46 51 50
49 221 248 296 346 l47 61 -38 89 c-114 266 -181 511 -225 824 -9 58 -24 151
-34 207 -11 56 -18 104 -16 105 1 2 258 2 569 1 311 -2 697 -3 856 -3z m-3690
-649 c47 -15 96 -58 81 -73 -8 -8 -38 -6 -107 7 -68 13 -123 16 -190 13 -66
-4 -95 -2 -95 6 1 45 69 68 185 62 50 -3 106 -9 126 -15z m-3546 -301 c167
-112 335 -168 531 -177 137 -6 267 7 329 33 l35 14 30 -47 c31 -51 95 -161
165 -283 23 -41 77 -135 119 -208 43 -74 76 -135 74 -137 -2 -1 -306 -5 -675
-8 l-673 -4 0 429 c0 341 3 428 13 422 6 -4 30 -19 52 -34z m1286 -67 c29 -54
59 -111 67 -128 9 -16 34 -55 56 -86 23 -31 67 -92 98 -135 62 -87 141 -171
293 -313 l100 -93 -55 6 c-30 3 -110 6 -176 6 l-122 0 -43 83 c-23 45 -95 171
-160 279 -65 108 -133 225 -152 260 -18 35 -44 80 -56 101 -14 23 -18 37 -11
37 7 0 32 18 57 40 25 22 47 40 49 40 1 0 26 -44 55 -97z m1909 -671 c0 -110
1 -118 20 -119 11 -1 22 2 25 8 4 5 33 9 66 9 58 0 59 1 48 21 -8 15 -8 28 -1
43 6 11 13 28 15 36 3 8 6 -1 7 -20 1 -19 5 -53 9 -75 7 -33 9 -37 16 -20 52
133 75 155 170 155 74 0 105 -28 105 -93 0 -55 -48 -155 -93 -193 -45 -38
-127 -74 -185 -81 -69 -8 -153 18 -187 58 -60 72 -70 105 -69 224 0 114 12
165 39 165 13 0 15 -19 15 -118z m153 39 c16 -18 10 -16 -23 9 -61 46 -71 56
-32 34 18 -10 43 -30 55 -43z m2391 -251 c290 -74 514 -302 556 -567 19 -120
-20 -306 -86 -405 -13 -21 -22 -38 -19 -38 2 0 38 20 80 45 41 24 75 42 75 39
0 -15 -79 -158 -116 -210 -137 -192 -312 -307 -539 -354 -94 -20 -265 -33
-265 -20 0 4 33 17 73 30 76 24 162 70 225 123 21 18 49 40 63 50 13 10 18 15
10 11 -7 -4 -3 7 10 25 12 17 26 31 29 31 14 0 91 169 114 250 13 47 19 77 13
66 -75 -120 -89 -138 -97 -126 -6 10 -9 6 -12 -11 -2 -20 -8 -24 -33 -22 -17
0 -24 -1 -17 -4 10 -4 9 -9 -4 -24 -12 -14 -20 -16 -30 -8 -10 8 -11 5 -7 -11
4 -16 0 -23 -16 -27 -11 -3 -21 -13 -21 -22 0 -12 -2 -13 -8 -3 -9 13 -42 6
-42 -9 0 -14 18 -11 23 4 3 6 4 2 4 -10 -1 -13 -7 -23 -13 -23 -7 0 -15 -5
-17 -10 -3 -6 -4 -5 -3 2 3 13 -17 38 -30 38 -4 0 -5 -3 -1 -6 3 -4 -1 -13 -9
-21 -20 -20 -31 -8 -13 13 12 15 12 16 -7 10 -24 -7 -38 13 -28 39 4 8 1 15
-6 15 -9 0 -10 3 -1 14 11 14 5 46 -11 57 -5 3 -1 12 8 20 16 12 17 12 11 -3
-3 -10 -2 -18 3 -18 5 0 6 -8 3 -17 -6 -16 -5 -16 11 -4 12 10 14 16 5 21 -7
5 -8 13 -3 21 5 8 9 25 9 39 0 14 3 30 6 35 3 6 4 16 3 23 -1 6 -2 26 -3 42
-1 22 -8 33 -23 40 -13 5 -17 9 -10 9 6 1 12 8 12 17 0 14 -3 14 -15 4 -9 -8
-15 -9 -15 -2 0 6 5 14 10 17 8 5 7 11 -1 21 -6 7 -15 12 -19 9 -5 -3 -11 -1
-15 5 -3 5 0 10 7 10 15 1 -57 70 -72 70 -6 0 -8 -4 -5 -10 3 -6 -1 -7 -10 -3
-12 4 -13 8 -5 13 17 10 -6 24 -26 16 -8 -3 -13 -2 -10 3 8 12 -64 31 -132 35
-66 5 -171 -14 -226 -40 -20 -10 -37 -16 -39 -13 -6 7 -119 310 -133 355 l-13
45 32 11 c72 25 388 191 482 252 l100 66 86 0 c53 0 115 -7 163 -20z m-3498
-102 c32 -19 35 -25 30 -52 -3 -17 -12 -60 -19 -96 l-13 -65 -50 3 c-70 4
-137 -15 -187 -53 l-43 -33 -32 59 c-38 69 -80 103 -145 120 -45 11 -50 16
-78 70 -16 32 -29 62 -29 66 0 4 119 7 265 5 249 -3 268 -4 301 -24z m288
-142 c184 -101 594 -221 829 -242 42 -4 77 -10 77 -13 0 -3 -28 -16 -63 -28
-398 -139 -756 -273 -862 -323 -53 -25 -82 -35 -87 -27 -22 36 -21 455 2 572
22 113 16 110 104 61z m-700 -80 c13 -17 33 -49 44 -72 l20 -40 -58 4 c-38 3
-76 -2 -110 -13 -28 -9 -53 -15 -54 -14 -2 2 -13 23 -25 46 l-21 42 35 28 c72
57 135 65 169 19z m2874 -108 c12 -29 44 -115 72 -191 28 -76 78 -200 111
-275 263 -598 313 -855 223 -1144 -30 -97 -73 -179 -160 -303 -54 -78 -195
-232 -151 -165 87 132 201 361 194 390 -2 9 1 21 8 27 7 6 15 30 19 54 6 35 3
46 -14 63 -11 11 -20 15 -20 9 0 -6 7 -18 15 -26 13 -13 13 -16 0 -21 -9 -3
-15 1 -15 11 0 13 -3 13 -15 3 -10 -9 -15 -9 -15 -1 0 6 5 11 10 11 19 0 10
21 -12 30 -22 8 -22 9 5 9 17 1 27 6 27 16 0 18 -36 39 -45 25 -3 -5 -12 -10
-18 -9 -9 0 -9 2 1 6 6 2 12 9 12 14 0 6 -5 7 -12 3 -7 -4 -8 -3 -4 4 4 6 23
19 42 28 19 9 33 21 32 26 -2 5 -7 9 -12 8 -5 -1 -12 4 -17 11 -4 8 -12 10
-16 5 -4 -5 -2 -11 5 -13 6 -3 12 -9 12 -15 0 -6 -7 -8 -15 -4 -8 3 -15 1 -15
-4 0 -6 -4 -10 -10 -10 -6 0 -6 9 0 25 6 14 6 25 0 25 -4 0 -15 14 -24 30 -8
17 -11 30 -6 30 5 0 10 -6 12 -12 3 -9 10 -8 23 5 12 13 21 15 28 8 6 -6 15
-11 19 -11 4 0 0 8 -9 18 -10 10 -21 14 -24 9 -8 -11 -69 -16 -75 -5 -3 4 2 8
10 8 14 0 14 3 -1 20 -9 11 -20 16 -23 12 -3 -4 -18 -8 -35 -9 -19 -1 -23 0
-10 4 11 3 28 15 37 26 18 20 19 19 22 -5 0 -7 11 -14 23 -14 12 -1 20 3 17 8
-3 4 -10 6 -15 3 -5 -4 -9 1 -9 9 0 19 11 21 28 4 9 -9 12 -9 12 0 0 11 -5 14
-32 16 -7 1 -16 5 -19 9 -3 5 -14 0 -24 -10 -17 -16 -18 -16 -13 -1 4 9 2 18
-4 20 -7 3 -8 10 -3 18 11 18 13 62 2 51 -4 -4 -9 -27 -10 -49 -1 -29 -4 -37
-10 -27 -4 8 -5 20 -2 25 3 6 -4 10 -17 11 -23 1 -22 1 2 8 l25 7 -25 8 c-14
5 -29 8 -33 7 -5 -1 -6 3 -2 9 3 5 1 10 -4 10 -7 0 -11 -23 -11 -54 0 -67 -34
-249 -62 -331 -52 -151 -167 -334 -274 -436 -83 -79 -232 -169 -280 -169 -9 0
-12 -4 -9 -10 3 -5 17 -10 30 -10 43 0 36 -17 -13 -30 -76 -19 -183 -23 -212
-8 -84 45 -131 279 -96 478 8 41 12 76 11 78 -5 6 -72 -95 -90 -135 -17 -42
-19 -43 -64 -43 -81 0 -224 20 -294 41 -62 18 -106 37 -247 102 -57 27 -101
67 -164 152 -35 46 -37 54 -32 99 3 30 0 62 -8 81 -13 29 -12 31 9 33 53 4
273 55 382 89 207 63 372 132 497 207 32 20 62 36 67 36 4 0 20 -16 35 -35 14
-19 30 -35 34 -35 13 0 145 161 192 235 47 74 168 298 168 311 0 5 -26 -17
-57 -48 -89 -85 -398 -280 -416 -261 -12 12 -7 23 7 17 11 -4 14 1 12 20 -2
15 1 29 7 33 6 4 8 -4 5 -21 -3 -14 -2 -26 2 -26 12 0 21 30 13 43 -4 7 1 6
10 -2 9 -7 14 -18 11 -23 -3 -5 3 -4 15 4 12 7 19 18 17 25 -3 6 2 17 10 23
11 10 14 9 14 -6 0 -16 2 -16 10 -4 11 17 9 19 -19 25 -12 2 -19 0 -16 -6 4
-5 1 -9 -5 -9 -6 0 -13 7 -16 15 -5 13 -9 13 -22 3 -13 -11 -14 -9 -8 12 6 22
5 22 -4 7 -13 -21 -7 -32 18 -32 9 0 17 -8 18 -18 2 -13 1 -13 -3 -2 -3 10
-11 14 -24 10 -12 -4 -21 -1 -24 7 -7 19 -52 21 -59 3 -3 -8 -1 -15 4 -15 6 0
10 5 10 10 0 6 5 10 10 10 6 0 4 -13 -5 -30 -16 -31 -29 -41 -19 -16 3 8 1 17
-5 20 -11 7 -4 37 11 47 5 3 1 12 -8 20 -10 8 -15 9 -11 2 10 -16 -10 -64 -25
-61 -7 2 -12 -3 -13 -11 0 -8 -6 -16 -14 -19 -10 -3 -12 0 -8 12 3 8 3 15 -1
15 -4 -1 -18 -1 -32 0 -22 1 -23 3 -7 12 9 5 22 7 27 4 6 -3 10 -1 10 4 0 13
-33 15 -44 4 -4 -5 -13 -8 -19 -8 -7 0 -18 -16 -25 -35 l-13 -35 5 31 5 32
-67 -25 c-37 -14 -100 -38 -141 -54 -40 -16 -81 -29 -90 -29 -9 0 -47 -12 -86
-26 -38 -14 -88 -30 -110 -35 -22 -5 -46 -17 -52 -26 -8 -11 -13 -12 -13 -4 0
7 -5 9 -12 4 -7 -4 -17 -8 -23 -9 -5 0 -16 -2 -22 -2 -9 -2 -13 -26 -13 -86
l0 -84 -114 -21 c-63 -12 -120 -19 -128 -16 -8 3 -26 -7 -41 -24 -41 -46 -96
-78 -162 -96 -165 -42 -323 18 -403 153 -24 42 -27 56 -27 142 0 85 3 101 28
149 63 120 172 191 427 279 304 105 691 217 810 234 36 5 247 13 470 18 412 9
467 14 653 59 104 25 147 45 147 69 0 10 -11 51 -24 92 -19 56 -22 77 -13 82
24 16 35 7 55 -44z m-2478 -153 c3 -93 5 -171 4 -173 -1 -1 -18 26 -39 62 -41
70 -70 105 -130 154 l-40 32 20 37 c26 49 57 64 125 61 l55 -3 5 -170z m-597
113 c8 -5 6 -8 -5 -8 -10 0 -18 3 -18 8 0 4 -3 18 -5 32 l-6 25 11 -25 c6 -13
16 -28 23 -32z m278 -69 c34 -15 51 -29 55 -45 9 -33 -35 -104 -96 -155 -28
-23 -49 -44 -47 -46 6 -5 110 28 150 48 l37 19 0 -47 c0 -57 -24 -162 -46
-204 -42 -83 -132 -148 -203 -149 -46 0 -114 34 -147 73 -106 125 -99 315 14
438 77 83 186 109 283 68z m256 -272 c30 -54 53 -99 51 -100 -6 -4 -103 -51
-113 -56 -5 -2 -5 2 2 10 24 30 24 92 -1 189 -27 108 -23 105 61 -43z m-70
-59 c-3 -8 -6 -5 -6 6 -1 11 2 17 5 13 3 -3 4 -12 1 -19z m3503 -12 c0 -3 -4
-8 -10 -11 -5 -3 -10 -1 -10 4 0 6 5 11 10 11 6 0 10 -2 10 -4z m8 -61 c-3 -3
-9 2 -12 12 -6 14 -5 15 5 6 7 -7 10 -15 7 -18z m-3537 -48 c-10 -9 -11 -8 -5
6 3 10 9 15 12 12 3 -3 0 -11 -7 -18z m179 11 c0 -7 -15 -25 -34 -40 -18 -15
-54 -54 -79 -88 l-46 -61 -21 33 c-24 40 -25 50 -2 65 9 7 46 32 82 57 65 45
100 57 100 34z m-217 -130 c-8 -12 -9 -19 -5 -55 1 -7 7 -13 13 -13 6 0 9 7 5
15 -3 8 -1 15 4 15 14 0 13 -37 -1 -46 -8 -4 -8 -9 0 -17 6 -6 11 -18 11 -26
0 -19 -38 41 -53 82 -8 23 -6 31 9 42 24 18 29 19 17 3z m3777 -23 c-13 -14
-26 -23 -28 -20 -3 2 6 15 19 29 13 14 26 23 28 20 2 -2 -6 -15 -19 -29z
m-2120 -40 c-15 -17 -4 -36 15 -29 10 4 13 14 9 30 -4 14 -2 24 5 24 6 0 8 -7
4 -17 -4 -9 -2 -14 3 -10 14 8 40 -10 30 -20 -5 -4 -11 -3 -13 4 -3 8 -11 5
-24 -8 -17 -17 -23 -18 -35 -8 -9 7 -12 19 -8 28 4 9 6 25 6 36 -1 19 0 19 9
2 8 -13 7 -22 -1 -32z m178 25 c-7 -10 -14 -18 -15 -16 -6 6 9 36 18 36 5 0 4
-9 -3 -20z m-55 -32 c6 -23 6 -23 -9 -3 -13 17 -16 18 -24 5 -5 -8 -10 -10
-10 -4 0 31 36 32 43 2z m1957 8 c0 -3 -4 -8 -10 -11 -5 -3 -10 -1 -10 4 0 6
5 11 10 11 6 0 10 -2 10 -4z m-2125 -26 c3 -5 1 -10 -4 -10 -6 0 -11 5 -11 10
0 6 2 10 4 10 3 0 8 -4 11 -10z m-30 -28 c5 -14 4 -14 -6 -5 -10 10 -16 10
-28 0 -14 -10 -14 -10 -4 4 7 9 10 19 6 23 -4 4 0 4 9 1 9 -4 19 -14 23 -23z
m2045 8 c0 -5 -5 -10 -11 -10 -5 0 -7 5 -4 10 3 6 8 10 11 10 2 0 4 -4 4 -10z
m-2017 -15 c-3 -9 -8 -14 -10 -11 -3 3 -2 9 2 15 9 16 15 13 8 -4z m-206 -10
c0 -8 -4 -12 -9 -9 -5 3 -6 10 -3 15 9 13 12 11 12 -6z m1980 -261 c-3 -3 -12
-4 -19 -1 -8 3 -5 6 6 6 11 1 17 -2 13 -5z m-2610 -208 c60 -68 57 -91 -11
-92 -41 -1 -76 -11 -137 -40 -46 -22 -88 -38 -95 -36 -7 1 -25 -16 -41 -37
-27 -37 -31 -39 -45 -24 -15 14 -11 20 45 69 34 29 78 64 97 78 57 42 155 106
161 106 3 0 15 -11 26 -24z m2033 -31 c14 -19 14 -19 -2 -6 -10 7 -18 18 -18
24 0 6 1 8 3 6 1 -2 9 -13 17 -24z m40 -25 c0 -5 -2 -10 -4 -10 -3 0 -8 5 -11
10 -3 6 -1 10 4 10 6 0 11 -4 11 -10z m14 -25 c-4 -8 -14 -15 -23 -15 -14 1
-13 3 3 15 25 19 27 19 20 0z m-2390 -57 l-49 -53 -16 25 c-8 14 -18 34 -22
45 -6 18 -6 18 5 3 7 -9 19 -25 25 -35 7 -10 12 -13 12 -8 -1 6 -1 22 0 37 1
27 1 27 80 36 8 1 -8 -22 -35 -50z m-33 -235 c61 -40 153 -44 239 -10 l62 26
-6 -37 c-15 -79 -59 -175 -119 -258 l-35 -48 56 -40 c35 -25 85 -49 130 -62
l74 -21 -84 -55 c-220 -147 -419 -219 -556 -203 -68 8 -126 57 -143 117 -12
46 1 143 33 243 29 92 119 270 189 372 l62 92 28 -44 c15 -24 47 -56 70 -72z
m2509 42 c0 -12 -19 -12 -23 0 -4 9 -1 12 9 8 7 -3 14 -7 14 -8z m30 -6 c0 -5
-4 -9 -10 -9 -5 0 -10 7 -10 16 0 8 5 12 10 9 6 -3 10 -10 10 -16z m-191 -680
c-99 -196 -283 -399 -433 -478 -101 -54 -195 -38 -231 38 -21 45 -45 167 -45
232 l0 49 38 0 c91 1 273 20 332 35 131 33 273 101 331 159 19 18 35 32 37 31
2 -2 -11 -32 -29 -66z"/>
<path d="M3790 8436 c0 -2 8 -10 18 -17 15 -13 16 -12 3 4 -13 16 -21 21 -21
13z"/>
<path d="M3920 8230 c0 -5 5 -10 11 -10 5 0 7 -5 3 -12 -4 -7 -3 -8 4 -4 6 4
9 13 5 21 -6 17 -23 20 -23 5z"/>
<path d="M6408 8120 c-18 -16 -28 -30 -22 -30 5 0 23 14 39 30 37 39 25 39
-17 0z"/>
<path d="M6160 7510 c0 -5 4 -10 9 -10 6 0 13 5 16 10 3 6 -1 10 -9 10 -9 0
-16 -4 -16 -10z"/>
<path d="M3955 6653 c-94 -34 -184 -118 -229 -213 -29 -60 -31 -73 -31 -170 0
-99 2 -110 32 -171 39 -79 102 -140 181 -177 49 -23 70 -27 147 -27 80 0 98 4
155 31 130 61 208 173 217 311 9 132 -32 239 -128 328 -97 91 -236 126 -344
88z m76 -82 c32 -32 39 -46 39 -77 0 -112 -130 -173 -202 -96 -52 55 -43 131
21 185 49 41 93 37 142 -12z"/>
<path d="M5750 6536 c-72 -16 -112 -38 -171 -93 -171 -160 -173 -427 -4 -582
76 -68 147 -96 250 -95 104 0 176 28 250 95 112 103 152 256 106 407 -58 191
-248 310 -431 268z m11 -93 c40 -24 63 -85 49 -129 -18 -52 -72 -94 -123 -94
-68 1 -107 44 -107 121 0 35 6 47 39 80 31 31 46 39 76 39 20 0 50 -8 66 -17z"/>
<path d="M1342 7860 c-110 -23 -225 -92 -316 -190 -181 -197 -245 -544 -157
-865 106 -387 381 -826 624 -993 164 -113 276 -152 462 -159 111 -5 143 -3
215 15 226 57 402 204 504 423 48 102 68 208 69 359 1 362 -152 693 -473 1024
-175 180 -355 299 -550 361 -70 23 -107 28 -210 31 -69 2 -144 -1 -168 -6z
m303 -88 l29 -8 -46 -32 -46 -32 -36 40 c-20 22 -36 44 -36 48 0 9 84 -1 135
-16z m-165 -47 c40 -40 61 -68 55 -74 -6 -5 -64 -51 -129 -102 l-120 -93 -53
60 c-29 32 -53 64 -53 70 0 6 17 23 38 37 20 15 68 58 107 97 38 38 74 70 80
70 6 0 40 -29 75 -65z m-180 42 c0 -2 -34 -34 -76 -72 -67 -60 -77 -66 -91
-53 -13 14 -10 19 24 47 42 35 143 90 143 78z m520 -53 l54 -25 -69 -64 c-39
-35 -74 -64 -80 -65 -11 0 -105 91 -105 102 0 4 5 8 11 8 6 0 29 16 52 35 48
42 65 43 137 9z m179 -104 l62 -40 -78 -66 c-43 -36 -89 -75 -102 -86 l-25
-21 -48 54 c-26 30 -48 57 -48 60 0 7 160 139 169 139 4 0 36 -18 70 -40z
m-329 -100 c0 -4 -56 -53 -124 -108 l-124 -101 -51 57 -51 56 22 22 c13 12 70
59 128 104 l105 81 48 -52 c26 -29 47 -56 47 -59z m-595 80 c6 -10 -76 -92
-84 -85 -5 5 61 95 70 95 4 0 11 -5 14 -10z m110 -111 c28 -32 51 -62 52 -67
2 -9 -235 -217 -248 -217 -5 0 -24 21 -43 48 -32 45 -33 49 -22 88 9 30 34 60
102 124 49 46 94 84 99 84 6 0 33 -27 60 -60z m999 -18 l58 -58 -48 -39 c-27
-21 -78 -63 -113 -93 l-64 -55 -63 69 c-61 68 -63 71 -45 88 37 38 187 146
201 146 8 0 41 -26 74 -58z m-419 -48 l50 -55 -55 -50 c-30 -27 -88 -75 -128
-106 l-73 -56 -57 57 -57 57 24 16 c13 9 50 40 84 68 90 77 151 125 157 124 3
0 28 -25 55 -55z m-435 -98 c25 -30 44 -57 43 -60 -3 -6 -232 -197 -249 -208
-6 -3 -32 18 -58 49 l-48 55 28 22 c16 12 74 61 129 109 55 48 102 87 105 87
3 1 25 -24 50 -54z m1003 -15 c26 -33 47 -63 47 -68 0 -5 -16 -22 -35 -36 -19
-15 -63 -54 -98 -87 -34 -33 -68 -58 -76 -57 -7 2 -38 31 -68 64 l-54 62 58
46 c32 26 83 67 113 91 30 24 57 44 60 44 3 0 26 -27 53 -59z m-383 -102 l21
-27 -128 -106 -127 -107 -33 39 c-18 21 -47 54 -63 74 l-29 36 82 66 c45 36
102 84 127 106 l45 40 43 -47 c23 -26 51 -59 62 -74z m-485 -43 l48 -55 -29
-22 c-16 -13 -76 -61 -134 -107 l-104 -84 -48 54 c-26 30 -48 56 -47 59 0 8
251 210 260 210 4 0 29 -25 54 -55z m-542 2 c14 -21 13 -24 -4 -35 -17 -11
-19 -9 -19 23 0 41 3 43 23 12z m1527 -19 c12 -24 30 -51 38 -61 14 -16 11
-22 -39 -73 -30 -31 -71 -69 -92 -86 l-38 -31 -55 54 c-30 29 -54 57 -54 61 0
4 26 26 57 50 31 24 77 62 102 85 25 24 49 43 52 43 3 0 16 -19 29 -42z m-375
-74 c31 -36 54 -69 49 -73 -5 -4 -64 -53 -130 -109 l-122 -101 -56 67 c-31 36
-56 69 -56 73 0 8 239 209 249 209 4 0 34 -30 66 -66z m-1053 -10 c24 -25 44
-49 45 -53 3 -6 -119 -101 -130 -101 -3 0 -11 19 -17 43 -6 23 -13 50 -16 59
-3 10 9 33 32 57 20 23 38 41 40 41 2 0 23 -21 46 -46z m592 -63 c31 -36 56
-68 56 -72 0 -4 -59 -58 -131 -119 -129 -110 -132 -112 -148 -93 -9 12 -37 45
-63 75 -27 31 -48 58 -48 61 0 3 28 28 63 56 34 27 91 75 127 105 36 30 70 54
77 53 7 -1 37 -31 67 -66z m944 -54 c12 -29 22 -55 22 -59 0 -3 -32 -31 -71
-63 l-70 -57 -44 39 c-24 21 -44 41 -44 45 -1 4 15 20 35 35 20 15 59 47 88
70 28 24 54 43 57 43 3 0 15 -24 27 -53z m-1404 -33 c27 -30 47 -56 45 -58 -2
-1 -30 -24 -62 -50 -32 -27 -59 -47 -61 -45 -3 2 -16 34 -29 70 l-25 66 36 37
c20 20 39 36 42 36 4 0 28 -25 54 -56z m1065 2 l53 -53 -109 -93 c-59 -50
-120 -100 -134 -111 l-26 -19 -51 59 -51 59 37 25 c20 14 78 61 127 106 50 44
92 81 95 81 3 0 30 -24 59 -54z m-447 -98 l56 -70 -101 -80 c-56 -45 -117 -94
-135 -111 -36 -35 -29 -39 -105 51 l-45 54 131 114 c73 62 134 113 137 113 3
0 30 -32 62 -71z m861 -57 c16 -54 16 -55 -11 -92 -46 -64 -53 -64 -105 1
l-46 58 67 51 c37 27 70 47 73 43 4 -4 14 -31 22 -61z m-1333 -20 c34 -43 61
-82 59 -87 -2 -5 -38 -37 -79 -73 -41 -35 -99 -87 -127 -114 -29 -28 -54 -49
-57 -46 -2 2 -23 47 -46 99 l-42 95 42 37 c23 21 46 35 51 32 5 -3 6 1 3 9 -3
9 21 35 63 70 37 31 68 57 69 57 0 0 29 -35 64 -79z m1045 34 c20 -25 35 -49
33 -54 -2 -5 -61 -58 -131 -117 l-129 -107 -38 44 c-22 24 -38 50 -37 56 2 12
245 221 258 222 4 1 23 -19 44 -44z m-1353 -17 c21 -39 25 -55 17 -65 -18 -21
-26 -16 -43 27 -17 42 -21 90 -8 90 4 0 19 -23 34 -52z m923 -106 l49 -53 -34
-27 c-19 -15 -75 -60 -123 -100 -72 -60 -86 -76 -76 -88 7 -9 8 -14 1 -14 -6
0 -12 6 -15 13 -3 9 -7 9 -19 0 -12 -11 -22 -4 -61 45 -26 31 -47 59 -46 62 1
8 263 220 269 218 3 -2 28 -27 55 -56z m560 -28 c26 -30 44 -59 39 -63 -5 -4
-64 -55 -131 -114 -111 -98 -143 -120 -143 -99 0 4 -20 30 -44 57 l-43 50 131
112 c72 62 134 113 137 113 4 0 28 -25 54 -56z m204 -114 c1 -24 0 -24 -36 12
l-37 38 29 30 30 31 7 -43 c3 -24 7 -54 7 -68z m-1216 40 l47 -59 -123 -108
c-68 -59 -136 -118 -151 -131 l-26 -22 -30 47 c-49 77 -49 77 26 156 101 107
177 176 194 176 8 0 36 -27 63 -59z m572 -46 l38 -46 -39 -31 c-21 -18 -79
-67 -128 -109 -49 -43 -92 -78 -96 -78 -3 0 -26 20 -50 45 l-45 46 35 27 c64
50 210 173 215 183 12 19 34 8 70 -37z m580 -50 c55 -73 57 -77 51 -122 -8
-59 -42 -108 -127 -184 l-67 -59 -49 53 c-135 145 -136 147 -122 165 8 9 64
58 126 110 61 51 115 97 118 103 3 5 8 10 10 10 2 0 29 -34 60 -76z m-1021
-63 c26 -29 44 -57 39 -60 -73 -61 -218 -190 -252 -225 l-45 -46 -28 33 c-15
17 -27 36 -28 41 0 5 -8 14 -17 21 -15 11 -12 18 30 66 54 61 239 230 248 226
3 -1 27 -26 53 -56z m559 -30 c25 -32 47 -62 49 -68 2 -5 -54 -57 -124 -116
l-128 -107 -47 51 c-70 74 -70 72 -10 121 28 23 87 73 131 111 43 37 79 67 81
67 1 0 23 -26 48 -59z m-406 -167 c-3 -14 -254 -223 -285 -237 -20 -9 -28 -6
-59 27 l-37 37 74 72 c40 40 107 102 149 139 l76 68 42 -48 c24 -26 42 -52 40
-58z m526 24 c8 -13 47 -59 86 -103 39 -43 71 -82 71 -85 0 -3 -50 -45 -110
-95 -61 -49 -110 -94 -110 -99 0 -5 9 -1 21 10 17 16 22 16 31 4 8 -13 9 -12
4 2 -3 12 7 24 37 42 23 13 65 45 92 69 l50 45 23 -21 c12 -11 22 -28 22 -37
0 -29 -118 -121 -210 -164 l-53 -25 -28 21 c-24 18 -26 24 -16 37 10 12 9 14
-5 8 -12 -4 -29 7 -57 36 -56 59 -141 161 -140 167 1 9 254 209 265 209 7 1
18 -9 27 -21z m336 -100 c-12 -24 -33 -59 -46 -80 l-25 -37 -19 22 c-18 22
-17 22 39 78 31 30 60 56 65 57 4 1 -2 -17 -14 -40z m-760 -28 c45 -51 51 -63
40 -76 -7 -9 -64 -58 -126 -110 -112 -95 -114 -95 -147 -84 -19 6 -37 18 -40
27 -4 9 -9 13 -13 10 -6 -7 -63 30 -63 41 0 14 274 250 291 251 3 1 30 -26 58
-59z m144 -169 c31 -38 70 -84 87 -102 44 -47 64 -78 56 -87 -4 -4 -71 -7
-149 -7 -121 0 -153 4 -216 23 l-74 24 34 34 c26 25 198 179 205 183 1 1 27
-30 57 -68z"/>
<path d="M6290 7429 c0 -5 5 -7 10 -4 6 3 10 8 10 11 0 2 -4 4 -10 4 -5 0 -10
-5 -10 -11z"/>
<path d="M2578 5393 c7 -3 16 -2 19 1 4 3 -2 6 -13 5 -11 0 -14 -3 -6 -6z"/>
<path d="M4581 4675 c0 -24 25 -54 38 -46 9 6 10 11 2 15 -6 4 -11 4 -11 -1
-1 -4 -7 3 -15 17 -8 14 -14 21 -14 15z"/>
<path d="M4625 4581 c21 -42 35 -47 16 -6 -9 19 -19 34 -24 35 -4 0 -1 -13 8
-29z"/>
<path d="M7064 3508 c-4 -6 -3 -8 4 -4 5 3 12 1 14 -6 3 -8 6 -9 11 -1 4 6 0
13 -8 17 -8 3 -17 0 -21 -6z"/>
<path d="M6966 3494 c-9 -24 -7 -28 9 -14 17 14 20 30 6 30 -5 0 -12 -7 -15
-16z"/>
<path d="M7037 3503 c-3 -4 7 -17 22 -27 l26 -20 -20 25 c-11 13 -21 25 -21
27 -1 2 -4 0 -7 -5z"/>
<path d="M7000 3492 c0 -13 50 -45 58 -38 3 3 1 6 -4 6 -6 0 -20 9 -32 20 -12
12 -22 17 -22 12z"/>
<path d="M6985 3460 c-3 -5 -1 -10 4 -10 6 0 11 5 11 10 0 6 -2 10 -4 10 -3 0
-8 -4 -11 -10z"/>
<path d="M6960 3440 c0 -5 5 -10 11 -10 5 0 7 5 4 10 -3 6 -8 10 -11 10 -2 0
-4 -4 -4 -10z"/>
<path d="M7000 3440 c-12 -8 -10 -10 8 -10 13 0 20 4 17 10 -7 12 -6 12 -25 0z"/>
<path d="M5305 3539 c-4 -6 -5 -12 -2 -15 2 -3 7 2 10 11 7 17 1 20 -8 4z"/>
<path d="M5225 3530 c-3 -6 1 -7 9 -4 18 7 21 14 7 14 -6 0 -13 -4 -16 -10z"/>
<path d="M5160 3521 c0 -8 -8 -10 -22 -6 -23 7 -23 7 -3 -8 18 -14 21 -14 28
0 5 8 6 17 3 20 -3 4 -6 1 -6 -6z"/>
<path d="M6111 3174 c0 -11 3 -14 6 -6 3 7 2 16 -1 19 -3 4 -6 -2 -5 -13z"/>
<path d="M6138 3183 c7 -3 16 -2 19 1 4 3 -2 6 -13 5 -11 0 -14 -3 -6 -6z"/>
<path d="M6121 3146 c-10 -12 -8 -13 8 -9 12 3 21 9 21 14 0 14 -16 11 -29 -5z"/>
<path d="M6140 3110 c6 -12 7 -20 1 -20 -5 0 -12 6 -14 13 -3 6 -6 3 -6 -9 -1
-19 44 -72 53 -63 7 7 -7 24 -29 37 -17 10 -18 11 -2 12 9 0 17 4 17 9 0 18
-12 41 -21 41 -6 0 -5 -9 1 -20z"/>
<path d="M6194 3122 c3 -6 -2 -13 -11 -15 -16 -4 -16 -5 -1 -6 21 -1 32 15 17
25 -7 4 -9 3 -5 -4z"/>
<path d="M6220 3026 c0 -2 7 -7 16 -10 8 -3 12 -2 9 4 -6 10 -25 14 -25 6z"/>
<path d="M6227 2993 c-4 -3 -7 -11 -7 -17 0 -6 5 -5 12 2 6 6 9 14 7 17 -3 3
-9 2 -12 -2z"/>
<path d="M6250 2991 c0 -10 19 -25 25 -20 1 2 -3 10 -11 17 -8 7 -14 8 -14 3z"/>
<path d="M6287 2889 c7 -7 15 -10 18 -7 3 3 -2 9 -12 12 -14 6 -15 5 -6 -5z"/>
<path d="M6290 2820 c0 -5 7 -7 15 -4 8 4 15 8 15 10 0 2 -7 4 -15 4 -8 0 -15
-4 -15 -10z"/>
<path d="M6330 2819 c0 -14 26 -16 37 -4 9 10 7 13 -13 11 -13 0 -24 -4 -24
-7z"/>
<path d="M6385 2770 c-3 -5 -2 -10 4 -10 5 0 13 5 16 10 3 6 2 10 -4 10 -5 0
-13 -4 -16 -10z"/>
<path d="M6405 2750 c-3 -5 -1 -10 4 -10 6 0 11 5 11 10 0 6 -2 10 -4 10 -3 0
-8 -4 -11 -10z"/>
<path d="M6360 2740 c0 -5 -12 -10 -27 -10 -21 0 -24 -3 -13 -9 8 -6 18 -7 23
-4 5 3 13 -1 18 -8 7 -12 10 -12 21 0 8 9 9 11 1 7 -6 -3 -14 -2 -18 4 -3 5 1
10 10 10 9 0 13 5 10 10 -3 6 -10 10 -16 10 -5 0 -9 -4 -9 -10z"/>
<path d="M6400 2710 c0 -5 5 -10 10 -10 6 0 10 5 10 10 0 6 -4 10 -10 10 -5 0
-10 -4 -10 -10z"/>
<path d="M6390 2683 c5 -2 10 -12 10 -21 0 -14 -2 -15 -10 -2 -5 8 -11 12 -15
9 -3 -3 4 -14 16 -25 21 -19 21 -19 17 10 -1 16 -9 31 -16 32 -7 1 -8 0 -2 -3z"/>
<path d="M9422 8458 c-32 -32 -3 -68 77 -99 56 -21 91 -14 91 19 0 27 -11 38
-67 66 -58 29 -83 32 -101 14z"/>
<path d="M9377 8093 c-12 -11 -8 -60 6 -71 6 -5 69 -28 138 -50 208 -68 261
-74 274 -33 11 35 -6 50 -79 71 -39 12 -118 37 -176 56 -102 33 -150 41 -163
27z"/>
<path d="M9196 7574 c-35 -34 -13 -63 74 -103 138 -62 322 -101 475 -101 76 0
95 3 108 18 37 40 7 72 -66 72 -139 0 -322 38 -466 96 -97 39 -104 40 -125 18z"/>
<path d="M8876 7264 c-23 -23 -20 -51 8 -69 46 -31 97 25 60 66 -21 23 -47 24
-68 3z"/>
<path d="M1190 3301 c-74 -14 -120 -37 -120 -61 0 -37 59 -53 195 -54 130 0
214 15 240 44 21 23 13 38 -32 57 -42 17 -218 26 -283 14z"/>
<path d="M8797 3300 c-47 -8 -97 -33 -97 -48 1 -18 19 -33 60 -48 66 -25 302
-25 348 -1 40 22 42 51 4 71 -56 29 -216 42 -315 26z"/>
<path d="M677 2842 c-165 -45 -130 -121 58 -130 222 -10 403 63 309 125 -42
27 -272 30 -367 5z"/>
<path d="M9226 2845 c-70 -25 -73 -59 -8 -91 90 -46 345 -57 425 -19 71 33 34
83 -83 109 -87 20 -279 21 -334 1z m81 -1 c-3 -3 -12 -4 -19 -1 -8 3 -5 6 6 6
11 1 17 -2 13 -5z m40 0 c-3 -3 -12 -4 -19 -1 -8 3 -5 6 6 6 11 1 17 -2 13 -5z
m307 -53 c15 -17 15 -19 1 -25 -9 -3 -14 -2 -10 3 3 5 -2 17 -11 25 -8 9 -11
16 -6 16 5 0 17 -8 26 -19z m-170 -40 c3 -5 27 -9 53 -9 31 -1 43 2 34 7 -9 6
-2 9 23 9 20 0 36 -5 36 -10 0 -6 -6 -8 -14 -5 -8 3 -16 1 -18 -4 -2 -5 -46
-11 -98 -12 -83 -2 -95 0 -98 16 -3 14 4 17 37 17 22 0 42 -4 45 -9z m-131
-18 c-7 -2 -19 -2 -25 0 -7 3 -2 5 12 5 14 0 19 -2 13 -5z"/>
<path d="M718 1593 c7 -3 16 -2 19 1 4 3 -2 6 -13 5 -11 0 -14 -3 -6 -6z"/>
<path d="M808 1593 c28 -2 76 -2 105 0 28 2 5 3 -53 3 -58 0 -81 -1 -52 -3z"/>
<path d="M9333 1593 c32 -2 81 -2 110 0 29 2 3 3 -58 3 -60 0 -84 -1 -52 -3z"/>
<path d="M516 1574 c-9 -23 -1 -31 56 -60 27 -14 47 -21 44 -16 -3 5 -19 15
-36 22 -16 7 -27 17 -23 23 3 5 1 7 -4 4 -6 -4 -13 2 -16 13 -4 17 1 19 57 23
l61 3 -66 2 c-53 2 -68 -1 -73 -14z"/>
<path d="M9748 1583 c24 -5 27 -13 12 -31 -5 -7 -3 -6 6 2 20 18 10 36 -19 35
-22 -2 -22 -2 1 -6z"/>
<path d="M9654 1494 c-18 -14 -18 -14 6 -3 31 14 36 19 24 19 -6 0 -19 -7 -30
-16z"/>
<path d="M660 1470 c8 -5 20 -10 25 -10 6 0 3 5 -5 10 -8 5 -19 10 -25 10 -5
0 -3 -5 5 -10z"/>
<path d="M9590 1465 c-14 -8 -20 -14 -15 -14 6 0 21 6 35 14 14 8 21 14 15 14
-5 0 -21 -6 -35 -14z"/>
<path d="M707 1449 c7 -7 15 -10 18 -7 3 3 -2 9 -12 12 -14 6 -15 5 -6 -5z"/>
<path d="M9530 1440 c-8 -5 -10 -10 -5 -10 6 0 17 5 25 10 8 5 11 10 5 10 -5
0 -17 -5 -25 -10z"/>
<path d="M750 1430 c8 -5 20 -10 25 -10 6 0 3 5 -5 10 -8 5 -19 10 -25 10 -5
0 -3 -5 5 -10z"/>
<path d="M9480 1420 c-8 -5 -10 -10 -5 -10 6 0 17 5 25 10 8 5 11 10 5 10 -5
0 -17 -5 -25 -10z"/>
<path d="M833 1400 c18 -12 212 -80 225 -80 11 1 -26 21 -46 25 -9 2 -48 15
-87 28 -118 42 -113 40 -92 27z"/>
<path d="M9430 1400 c-8 -5 -10 -10 -5 -10 6 0 17 5 25 10 8 5 11 10 5 10 -5
0 -17 -5 -25 -10z"/>
<path d="M1115 1300 c28 -10 57 -18 65 -18 8 0 -7 8 -35 18 -27 10 -57 18 -65
18 -8 0 8 -8 35 -18z"/>
<path d="M9158 1303 c7 -3 16 -2 19 1 4 3 -2 6 -13 5 -11 0 -14 -3 -6 -6z"/>
<path d="M8878 1223 c6 -2 18 -2 25 0 6 3 1 5 -13 5 -14 0 -19 -2 -12 -5z"/>
</g>
</svg>
