<?xml version="1.0" standalone="no"?>
<!DOCTYPE svg PUBLIC "-//W3C//DTD SVG 20010904//EN"
 "http://www.w3.org/TR/2001/REC-SVG-20010904/DTD/svg10.dtd">
<svg version="1.0" xmlns="http://www.w3.org/2000/svg"
 width="1024.000000pt" height="1024.000000pt" viewBox="0 0 1024.000000 1024.000000"
 preserveAspectRatio="xMidYMid meet">

<g transform="translate(0.000000,1024.000000) scale(0.100000,-0.100000)"
fill="#000000" stroke="none">
<path d="M7960 9593 c-111 -15 -214 -80 -265 -168 -57 -97 -56 -77 -56 -995 0
-863 1 -903 39 -973 42 -79 106 -150 144 -163 10 -3 18 -9 18 -14 0 -4 24 -16
53 -26 45 -15 94 -18 366 -20 173 -2 318 -7 322 -11 9 -10 49 -119 55 -153 2
-14 9 -36 14 -50 5 -14 16 -54 25 -90 30 -117 113 -231 195 -267 8 -3 26 -14
40 -23 54 -38 272 -58 393 -37 126 22 240 105 291 212 27 58 69 193 86 280 7
33 19 77 28 98 13 32 20 37 46 37 102 0 124 -1 148 -6 15 -3 29 -13 32 -22 13
-48 5 -1111 -9 -1179 -5 -22 -8 -22 -154 -21 -82 0 -154 -3 -160 -6 -6 -4 -11
-2 -11 4 0 12 -111 5 -173 -11 -39 -10 -125 -12 -377 -8 -80 1 -456 3 -836 3
l-691 1 -6 180 c-18 537 -133 953 -379 1377 l-39 67 20 98 c57 280 26 727 -76
1068 -87 295 -212 526 -326 602 -181 121 -411 28 -737 -297 -80 -80 -183 -193
-230 -252 -46 -60 -90 -108 -98 -108 -7 0 -66 13 -130 29 -200 51 -332 66
-577 65 -244 0 -363 -13 -574 -65 -67 -17 -128 -32 -135 -35 -6 -2 -54 49
-106 113 -250 313 -529 540 -722 589 -158 41 -290 -30 -398 -215 -231 -397
-346 -1120 -240 -1522 l17 -67 -59 -98 c-199 -332 -304 -668 -353 -1129 -8
-77 -15 -197 -15 -267 0 -126 0 -128 -22 -128 -13 0 -185 -3 -383 -5 -512 -7
-712 -6 -741 6 -23 8 -350 12 -724 8 -69 0 -206 -2 -305 -2 l-180 -2 -3 -102
-3 -102 427 2 c320 2 430 0 442 -9 15 -11 17 -43 16 -304 -1 -160 -5 -294 -9
-298 -4 -4 -181 -7 -393 -8 -213 0 -408 -1 -434 -2 l-48 -2 0 -102 0 -103 430
0 c332 0 432 -3 442 -13 12 -12 13 -23 10 -179 -2 -79 -3 -83 -26 -89 -14 -3
-211 -7 -438 -7 l-413 -2 -3 -102 -3 -101 418 0 c230 1 428 -2 441 -6 21 -7
22 -12 22 -119 2 -457 1 -472 -16 -512 -14 -33 -17 -76 -18 -245 -1 -187 1
-209 20 -255 18 -43 21 -66 18 -159 -2 -73 -8 -114 -16 -123 -11 -10 -106 -13
-441 -14 l-427 -2 0 -108 0 -109 48 -1 c153 -2 325 3 377 12 90 16 353 17 390
1 23 -10 118 -13 409 -12 208 0 382 3 387 6 5 2 2 -17 -7 -43 -56 -181 -79
-345 -71 -518 15 -326 113 -621 290 -872 99 -140 270 -305 416 -401 72 -48
118 -84 110 -86 -152 -54 -210 -83 -235 -121 -22 -34 -4 -60 58 -83 141 -53
393 -86 928 -122 542 -36 1689 -55 1706 -28 4 6 8 62 9 125 1 63 7 119 12 124
5 5 42 18 82 29 128 36 225 97 287 182 117 159 122 395 18 853 -5 21 -25 11
368 183 l127 55 101 -91 c281 -253 510 -407 743 -503 38 -15 64 -33 72 -49 31
-57 193 -204 240 -216 20 -5 21 -8 11 -31 -11 -25 -12 -25 -106 -19 -133 8
-1157 12 -1165 4 -3 -3 -1 -84 4 -179 6 -96 14 -221 17 -279 3 -58 7 -125 9
-150 l3 -45 289 0 c158 0 380 3 493 7 515 18 850 28 1025 31 168 3 200 7 275
29 47 14 111 29 143 33 130 15 292 73 303 107 7 25 -25 61 -86 96 -25 14 -46
26 -48 27 -1 1 7 38 19 81 53 192 -8 446 -180 762 -100 183 -252 404 -400 582
-20 24 -31 51 -36 88 l-7 52 100 0 c267 0 528 131 692 348 l25 33 475 -1 c400
0 483 2 525 15 65 20 318 19 388 -2 36 -10 120 -15 328 -16 l279 -2 0 113 0
112 -35 0 c-47 0 -55 19 -55 138 0 101 13 162 33 162 9 0 12 43 12 148 0 139
-5 184 -25 242 -5 14 -11 179 -14 367 -6 375 -7 365 54 378 l30 7 0 98 0 97
-40 7 c-22 3 -40 12 -41 19 0 6 -1 63 -1 125 0 124 6 142 53 142 l29 0 0 100
c0 98 -1 100 -23 100 -55 0 -56 1 -59 311 -3 313 -2 319 53 319 l29 0 0 100
c0 98 -1 100 -23 100 -13 0 -31 6 -41 13 -17 13 -19 40 -23 363 -8 655 -5 809
16 843 5 8 20 15 33 17 12 1 26 3 31 3 4 1 7 39 7 86 l0 85 -228 0 c-164 0
-231 3 -240 12 -15 15 -15 46 0 105 10 40 18 50 69 82 63 39 89 79 89 137 0
50 -33 78 -121 103 -41 12 -86 27 -100 35 -25 13 -30 12 -70 -15 -24 -16 -40
-29 -35 -29 5 0 3 -7 -4 -15 -7 -9 -10 -18 -7 -22 4 -3 -4 -14 -17 -24 -27
-21 -61 -23 -406 -21 -135 1 -272 -1 -305 -4 -92 -8 -191 -4 -174 7 18 11 -15
109 -37 109 -8 0 -14 4 -14 10 0 6 -9 6 -24 0 -13 -5 -26 -7 -28 -4 -3 2 -22
-2 -44 -9 -21 -7 -45 -13 -51 -13 -35 -2 -44 -6 -72 -30 -37 -30 -48 -80 -32
-135 9 -29 26 -50 65 -79 43 -32 56 -49 64 -83 30 -120 35 -117 -181 -118
-362 -2 -341 -3 -390 21 -37 19 -88 68 -93 90 0 3 -7 19 -15 35 -12 25 -14
166 -15 850 0 451 3 838 8 860 9 46 46 92 102 130 l38 26 662 -1 c363 0 846 0
1071 1 377 1 431 1 475 -3 60 -5 60 -5 60 92 l0 89 -1127 -1 c-621 -1 -1139
-3 -1153 -5z m-4485 -474 c82 -49 244 -196 330 -299 91 -110 137 -177 205
-300 69 -126 66 -123 120 -99 105 47 350 110 530 135 127 18 409 20 540 4 195
-24 387 -72 515 -130 37 -17 70 -30 75 -30 4 0 35 48 68 108 94 168 176 276
317 418 226 228 335 276 432 191 47 -42 72 -83 121 -203 108 -263 181 -684
166 -950 l-7 -121 -105 105 c-125 124 -248 228 -372 313 -49 35 -90 69 -90 76
0 7 19 59 42 115 51 127 59 187 29 217 -35 35 -78 28 -123 -19 -45 -49 -130
-219 -153 -308 -23 -92 -8 -119 112 -191 110 -67 204 -145 343 -283 279 -280
451 -577 570 -986 76 -258 113 -516 113 -792 0 -218 -20 -354 -78 -519 -66
-190 -141 -309 -279 -446 -312 -309 -787 -527 -1396 -639 -453 -83 -910 -62
-1395 64 -516 134 -851 305 -1106 566 -131 135 -174 192 -237 319 -91 181
-129 342 -139 585 -17 424 76 881 257 1255 177 366 503 731 830 928 l63 38 -6
57 c-6 71 -27 134 -78 238 -53 108 -95 154 -143 154 -46 0 -76 -29 -76 -72 0
-18 19 -82 41 -143 23 -60 43 -119 46 -130 3 -16 -17 -36 -101 -98 -141 -103
-267 -210 -346 -292 -35 -37 -66 -62 -68 -56 -2 6 -8 9 -13 5 -5 -3 -9 0 -9 6
0 6 6 10 13 8 14 -3 81 42 73 50 -3 2 -12 -1 -20 -7 -8 -7 -20 -10 -26 -6 -14
8 -13 35 2 35 6 0 8 3 5 7 -4 3 -2 12 4 19 12 15 49 2 49 -18 0 -7 -5 -6 -15
2 -9 7 -19 10 -23 6 -9 -9 28 -37 39 -30 14 8 10 54 -3 55 -10 0 -10 2 0 6 6
2 12 12 12 20 0 13 -3 13 -16 2 -17 -14 -56 -20 -48 -7 3 4 14 8 26 8 13 0 18
5 15 14 -4 11 -1 13 10 9 13 -5 15 0 11 25 -2 18 -1 32 2 32 10 0 0 113 -11
125 -5 5 -9 16 -9 25 0 12 2 12 9 2 6 -10 10 -9 14 7 3 12 1 19 -4 15 -8 -4
-14 24 -10 48 0 4 -6 5 -14 2 -8 -4 -12 -10 -9 -15 3 -5 1 -17 -5 -26 -7 -13
-9 -6 -5 27 3 25 9 47 15 48 10 4 2 22 -10 22 -10 0 -28 -110 -40 -235 -7 -65
-6 -94 2 -104 10 -12 9 -13 -2 -6 -11 6 -13 4 -8 -8 3 -9 2 -19 -3 -22 -6 -4
-10 -14 -10 -23 0 -15 2 -15 10 -2 5 8 10 10 10 5 0 -6 -5 -16 -12 -23 -16
-16 -19 -42 -6 -42 6 0 4 -8 -5 -18 -21 -24 -21 -39 0 -50 15 -9 14 -12 -5
-37 -20 -25 -22 -26 -29 -9 -4 11 -7 102 -7 204 1 271 37 513 111 745 36 110
106 261 141 302 63 72 142 80 237 22z m-355 -965 c0 -8 -5 -12 -10 -9 -6 4 -8
11 -5 16 9 14 15 11 15 -7z m0 -46 c0 -7 -5 -6 -13 1 -8 6 -17 8 -21 4 -4 -4
-4 0 0 10 5 14 9 15 20 6 8 -6 14 -16 14 -21z m5792 -612 c41 -4 98 -49 98
-78 0 -19 -66 -91 -92 -101 -26 -10 -168 130 -168 165 0 25 1 26 63 22 34 -3
79 -6 99 -8z m622 -2 c8 -22 -9 -58 -44 -90 -18 -16 -45 -41 -60 -56 -15 -16
-34 -28 -43 -28 -25 0 -107 81 -107 105 0 24 46 71 75 77 10 1 54 4 96 5 60 2
78 -1 83 -13z m-314 -243 c63 -38 63 -57 -5 -120 -31 -28 -60 -51 -63 -51 -12
1 -88 74 -107 103 -18 28 -18 29 8 54 21 22 70 40 112 41 6 0 30 -12 55 -27z
m314 -42 c-3 -5 -10 -7 -15 -3 -5 3 -7 10 -3 15 3 5 10 7 15 3 5 -3 7 -10 3
-15z m-494 -220 c0 -18 -101 -109 -121 -109 -32 0 -89 81 -89 127 0 25 33 72
66 94 l29 19 58 -59 c31 -32 57 -65 57 -72z m401 89 c54 -60 46 -130 -21 -178
-27 -19 -31 -20 -58 -6 -37 19 -82 72 -82 95 0 19 101 121 120 121 6 0 24 -14
41 -32z m-236 -223 c39 -40 45 -70 15 -80 -10 -3 -47 -7 -81 -7 -57 -1 -78 8
-79 34 0 17 74 88 91 88 10 0 34 -16 54 -35z m-7300 -1050 c55 -4 179 -7 276
-7 96 0 181 -3 187 -7 6 -3 20 -53 32 -111 34 -165 108 -346 201 -489 l22 -33
-104 3 c-57 2 -140 0 -184 -5 -56 -5 -89 -4 -110 4 -22 9 -179 13 -560 15
-291 1 -538 6 -548 10 -16 7 -17 29 -16 297 l1 289 24 15 c19 13 50 15 191 10
108 -3 202 -1 263 7 100 13 162 14 325 2z m7337 -1 l226 -6 11 -26 c17 -41 9
-581 -9 -592 -7 -4 -156 -6 -330 -3 -267 4 -324 2 -362 -10 -44 -16 -116 -14
-147 3 -9 4 -313 8 -675 9 -502 0 -664 -3 -675 -12 -8 -7 2 17 23 53 85 147
138 291 175 470 12 57 23 106 25 107 1 2 187 3 412 3 635 0 844 2 904 9 30 4
87 5 125 3 39 -1 172 -5 297 -8z m655 -10 c12 -3 26 -16 29 -28 4 -11 6 -142
5 -291 -2 -225 -5 -273 -18 -287 -13 -14 -28 -16 -96 -12 -45 3 -87 10 -94 16
-9 8 -13 73 -13 259 0 136 0 252 -1 256 -5 27 3 64 17 77 16 16 124 22 171 10z
m-7027 -918 c52 -50 130 -118 173 -150 42 -32 77 -60 77 -63 0 -2 -5 -1 -11 3
-7 4 -451 9 -988 10 -537 2 -986 6 -998 9 -22 5 -23 9 -23 129 0 101 3 126 16
137 13 10 133 13 600 14 321 1 586 4 588 6 2 2 109 3 238 1 l233 -4 95 -92z
m6572 85 c40 -2 47 -26 45 -147 -2 -100 -5 -117 -20 -126 -10 -5 -62 -9 -115
-9 -256 2 -1633 0 -2079 -3 -276 -1 -500 1 -497 5 2 4 50 44 107 87 56 44 128
107 160 139 l58 60 1162 -3 c639 -1 1170 -3 1179 -3z m485 -17 c10 -14 12 -45
7 -128 -3 -61 -7 -117 -10 -123 -5 -20 -188 -18 -204 2 -13 15 -17 207 -5 244
7 24 37 30 129 26 53 -2 73 -7 83 -21z m-6612 -500 c-66 -24 -143 -53 -170
-64 -28 -11 -68 -20 -90 -20 -309 -2 -630 -207 -706 -449 -26 -84 -34 -175
-21 -224 l11 -37 -59 -30 c-83 -42 -246 -167 -320 -246 -71 -76 -158 -191
-210 -277 l-34 -57 -296 0 c-217 0 -299 3 -308 12 -8 8 -12 50 -12 123 0 88 4
119 20 154 19 41 20 65 20 337 -1 274 -2 294 -21 317 -17 23 -19 42 -19 245 0
171 3 222 13 231 10 8 333 12 1141 15 620 2 1130 7 1133 10 4 3 16 6 27 5 12
0 -33 -20 -99 -45z m6159 13 c9 -11 13 -91 15 -281 2 -245 0 -268 -19 -324
-19 -56 -21 -78 -17 -279 2 -147 8 -225 16 -241 7 -13 14 -75 17 -141 3 -104
2 -120 -14 -134 -16 -15 -76 -17 -571 -19 l-553 -3 6 30 c21 115 28 211 21
300 -3 55 -7 114 -8 132 -1 17 -5 29 -8 27 -4 -2 -17 29 -30 68 -78 239 -324
467 -574 533 -86 22 -269 31 -347 15 -72 -14 -172 -56 -222 -95 -86 -66 -103
-157 -45 -248 62 -98 90 -160 84 -187 -17 -68 -52 -84 -212 -96 l-92 -7 -74
114 c-41 63 -145 233 -232 379 -87 146 -185 307 -218 358 -32 52 -56 97 -52
100 11 12 655 17 1914 17 1112 -1 1204 -2 1215 -18z m445 -2 c10 -10 13 -85
12 -389 -1 -331 -3 -382 -18 -414 -25 -55 -24 -286 2 -325 14 -22 18 -50 19
-139 2 -144 -1 -148 -117 -148 -51 0 -88 5 -95 12 -19 19 -16 231 4 270 12 23
17 74 21 204 6 160 4 177 -16 231 -21 56 -21 71 -19 378 l3 319 24 12 c30 15
160 7 180 -11z m-3757 -140 c7 -14 2 -12 -16 7 -14 15 -26 33 -26 40 1 14 24
-13 42 -47z m-56 38 c-4 -5 -12 -9 -17 -9 -5 -1 -10 -2 -11 -4 -2 -1 -10 -3
-18 -5 -8 -2 -24 -6 -35 -11 -12 -4 -17 -3 -12 2 10 11 66 32 86 33 8 1 11 -2
7 -6z m-2347 -60 c-5 -21 -9 -105 -9 -188 -1 -143 -2 -148 -15 -110 -17 47
-18 56 -5 35 6 -10 9 33 9 128 -1 120 -3 142 -16 142 -13 0 -13 -3 -3 -15 11
-14 9 -14 -16 0 -26 13 -29 13 -32 -1 -3 -10 -10 -13 -20 -9 -10 3 5 -15 32
-40 39 -37 47 -50 41 -68 -4 -12 -7 -30 -7 -39 1 -10 -5 -15 -12 -12 -8 3 -16
-2 -19 -10 -4 -9 -2 -16 3 -16 6 0 10 -4 10 -10 0 -5 -6 -7 -13 -4 -8 3 -20
-2 -27 -11 -10 -12 -10 -15 5 -15 14 0 15 -3 6 -14 -9 -11 -9 -16 0 -22 8 -5
10 -3 5 7 -4 8 0 5 8 -5 9 -11 16 -28 16 -38 0 -10 4 -18 8 -18 4 0 8 -28 9
-62 0 -62 0 -62 -8 -19 -17 88 -64 167 -151 254 -46 46 -103 93 -127 105 -27
13 -39 23 -30 26 46 15 171 37 186 32 10 -3 45 3 78 14 33 10 70 19 81 19 20
1 21 -2 13 -36z m2231 27 c-8 -5 -22 -9 -30 -9 -10 0 -8 3 5 9 27 12 43 12 25
0z m-1899 -30 c116 -30 335 -69 514 -91 151 -19 621 -15 775 5 132 18 341 53
375 63 11 3 17 2 13 -2 -9 -9 -119 -34 -181 -40 -59 -6 -68 -11 -60 -33 5 -14
3 -14 -9 2 -22 28 -66 15 -63 -18 2 -18 -1 -23 -12 -19 -12 5 -12 7 -1 14 27
17 -7 27 -65 19 -33 -5 -61 -10 -63 -12 -2 -2 -1 -14 3 -26 5 -21 6 -21 18 -5
12 16 13 15 12 -9 -1 -14 -5 -24 -9 -21 -5 2 -8 -3 -8 -11 0 -9 -5 -16 -11
-16 -6 0 -9 7 -6 14 4 11 1 13 -11 9 -14 -5 -15 -3 -4 8 14 16 16 39 2 39 -5
0 -10 -7 -10 -15 0 -9 -6 -12 -15 -9 -8 4 -15 1 -15 -4 0 -11 43 -45 70 -55 9
-3 5 -6 -10 -6 -15 -1 -31 -6 -38 -13 -7 -7 -12 -8 -12 -2 0 6 5 15 12 22 9 9
8 12 -5 12 -20 0 -46 42 -28 48 6 2 11 10 11 17 0 7 8 16 18 18 9 3 3 5 -14 6
-16 0 -39 -5 -49 -13 -14 -10 -25 -11 -39 -4 -12 7 -16 7 -12 0 3 -6 0 -12 -6
-15 -7 -2 -9 -8 -5 -13 4 -5 12 -2 17 6 5 8 12 11 17 6 4 -4 0 -12 -10 -17
-18 -10 -24 -49 -8 -49 5 0 17 -3 25 -6 14 -5 15 -2 6 22 -8 20 -8 30 -1 32 6
2 11 10 11 18 0 8 7 14 16 14 8 0 13 -4 10 -9 -3 -5 -8 -38 -10 -75 -4 -62 -2
-67 19 -72 27 -7 42 -34 19 -34 -8 0 -12 5 -9 10 3 6 1 10 -4 10 -6 0 -11 -4
-11 -10 0 -19 -3 -25 -19 -37 -11 -8 -3 -8 24 2 31 10 41 19 46 42 7 36 30 73
46 73 7 0 10 -6 7 -13 -2 -7 7 -19 21 -27 14 -7 23 -16 20 -18 -3 -3 1 -12 8
-21 11 -14 10 -15 -8 -1 -11 8 -30 23 -42 34 -27 23 -32 20 -37 -24 -4 -32
-19 -50 -43 -50 -6 0 -14 -4 -18 -10 -3 -5 11 -3 32 4 21 8 37 19 36 25 -4 15
14 14 20 -1 2 -7 8 -10 12 -6 5 5 0 18 -11 30 l-19 22 29 -22 c29 -23 52 -27
81 -16 13 5 14 8 3 15 -10 7 -9 9 5 9 9 0 17 -5 17 -11 0 -5 5 -7 10 -4 6 3
48 7 94 7 77 0 85 2 90 21 6 24 -11 50 -28 40 -6 -3 -7 -2 -3 3 4 4 23 7 42 6
18 -2 36 1 40 7 4 7 10 7 19 -2 8 -6 12 -16 9 -21 -3 -4 -8 -4 -12 2 -3 6 -18
8 -33 5 -15 -3 -25 -9 -22 -15 3 -5 15 -6 27 -3 17 4 15 2 -5 -10 -35 -19 -35
-30 -3 -31 14 -1 23 1 21 5 -3 4 4 12 15 19 15 10 19 10 17 0 -2 -7 -7 -17
-13 -21 -6 -5 -3 -7 7 -4 9 3 19 1 21 -6 3 -9 9 -8 22 3 17 13 18 13 13 -2 -5
-11 0 -18 13 -21 17 -4 18 -3 8 9 -8 9 -8 14 -1 14 6 0 16 -9 22 -20 6 -11 18
-20 28 -19 10 0 12 3 5 6 -7 2 -13 9 -13 14 0 5 11 3 25 -3 14 -6 25 -17 25
-25 0 -7 3 -13 8 -14 4 0 15 -2 26 -4 23 -4 48 4 41 15 -2 4 -17 5 -31 2 -19
-3 -25 -1 -20 7 4 6 12 9 17 6 5 -4 9 -1 9 4 0 7 7 7 20 -1 11 -7 19 -19 17
-26 -1 -8 8 -21 20 -29 22 -15 23 -15 19 16 -2 22 1 31 11 31 10 0 11 -5 5
-17 -4 -10 -7 -28 -7 -40 1 -12 -2 -20 -6 -17 -5 3 -9 1 -9 -4 0 -19 49 -43
75 -36 15 4 25 2 25 -5 0 -6 -7 -11 -15 -11 -8 0 -15 -4 -15 -10 0 -16 30 -12
36 5 4 8 10 12 15 9 5 -3 7 -9 4 -14 -3 -5 -1 -11 5 -15 5 -3 10 0 10 8 0 8 6
20 13 26 10 8 14 7 14 -4 0 -8 -4 -12 -9 -9 -4 3 -8 1 -8 -4 0 -6 7 -12 15
-16 18 -7 20 -56 3 -56 -7 0 3 -8 22 -17 19 -10 38 -21 41 -26 3 -5 10 -7 15
-5 5 1 10 -6 11 -17 l3 -20 -9 20 c-9 19 -10 19 -10 -2 -1 -22 30 -40 49 -28
6 3 13 -1 16 -9 4 -11 11 -13 30 -6 15 6 24 6 24 0 0 -6 -7 -10 -15 -10 -8 0
-19 -8 -24 -19 -9 -16 -7 -18 27 -15 31 3 33 2 15 -6 -13 -5 -23 -11 -23 -14
0 -2 10 -2 23 1 12 3 18 1 12 -4 -15 -12 -13 -62 3 -68 7 -2 10 0 7 5 -3 5 0
7 8 4 15 -5 17 -20 6 -39 -13 -23 -18 -46 -9 -40 6 3 10 1 10 -4 0 -16 26 -13
40 4 7 8 17 12 23 8 5 -3 -5 -14 -24 -24 -38 -21 -27 -26 14 -6 15 6 30 20 33
29 3 10 11 15 20 11 12 -4 12 -8 -3 -19 -11 -8 -13 -13 -5 -14 6 0 12 -7 12
-16 0 -10 6 -14 14 -11 9 4 17 -2 21 -13 3 -10 12 -21 20 -24 8 -3 15 -15 15
-26 0 -12 4 -19 9 -16 13 8 23 -23 16 -48 -6 -21 -6 -21 9 -2 15 19 16 19 17
-10 1 -16 1 -33 -1 -39 -1 -5 8 -1 19 9 19 17 21 18 21 2 0 -9 5 -14 10 -11 6
4 7 12 4 18 -4 8 -2 7 7 -1 12 -11 12 -14 -1 -22 -8 -5 -24 -10 -35 -10 -17 0
-17 -2 -5 -10 8 -5 22 -7 32 -4 13 4 16 -1 13 -23 -2 -15 2 -34 7 -40 6 -7 8
-13 4 -13 -3 0 14 -18 38 -40 52 -48 65 -51 35 -9 -21 30 -21 30 -1 18 24 -15
34 -43 20 -57 -5 -5 -3 -14 7 -22 10 -8 15 -9 15 -1 0 6 -5 11 -12 11 -6 0 -8
3 -5 6 11 11 38 -18 32 -34 -4 -10 0 -12 10 -8 9 3 14 2 11 -3 -7 -12 80 -122
89 -113 5 4 5 2 2 -4 -4 -7 3 -24 15 -39 12 -15 50 -82 84 -148 50 -97 63
-116 67 -96 4 23 4 23 6 -3 0 -16 6 -28 11 -28 14 0 13 4 -15 94 -39 127 -22
99 24 -37 53 -158 69 -236 77 -367 8 -122 -7 -197 -55 -282 -43 -75 -166 -189
-185 -171 -3 4 8 13 25 20 18 7 29 16 26 20 -4 3 -13 0 -22 -7 -13 -11 -19
-10 -35 5 -25 22 -21 40 8 41 18 1 20 -2 11 -17 -11 -21 -3 -24 21 -9 9 6 17
5 22 -3 4 -7 18 1 40 25 43 47 58 66 58 73 0 3 9 15 20 27 11 12 20 31 20 42
0 18 -2 19 -11 6 -9 -12 -10 -11 -6 7 4 20 3 21 -14 12 -98 -52 -466 -43 -533
13 -17 14 -39 9 -32 -7 7 -18 -3 -45 -16 -45 -5 0 -6 9 -3 20 4 11 2 20 -4 20
-6 0 -8 6 -5 14 3 7 -2 16 -12 20 -13 5 -15 2 -9 -11 15 -35 17 -63 6 -63 -6
0 -11 10 -11 23 0 45 -12 64 -51 81 -21 10 -61 33 -89 52 -28 19 -56 32 -62
28 -6 -4 -8 -3 -5 3 9 15 -39 57 -54 48 -7 -5 -10 -4 -7 1 3 5 -23 41 -59 79
-46 49 -60 60 -47 36 30 -52 108 -138 123 -133 8 3 11 0 7 -7 -8 -12 33 -55
109 -116 27 -22 59 -48 69 -57 24 -22 32 -22 40 -2 4 11 2 15 -8 11 -9 -4 -21
4 -30 19 -9 13 -24 24 -33 24 -12 0 -14 3 -7 10 16 16 41 2 50 -28 5 -20 8
-23 11 -9 3 9 8 17 13 17 12 0 19 -36 9 -51 -6 -10 3 -24 29 -46 42 -35 39
-43 -26 -63 -34 -11 -40 -16 -27 -23 10 -5 14 -16 10 -27 -5 -15 6 -24 57 -49
92 -45 198 -81 238 -81 30 -1 32 -2 16 -11 -45 -27 -198 21 -361 113 -170 96
-340 224 -570 428 -71 64 -135 119 -141 123 -6 3 -75 18 -155 32 -356 63 -551
116 -714 195 -158 76 -160 67 17 134 361 138 624 291 668 389 21 47 12 86 -27
117 -38 30 -80 25 -148 -16 -98 -60 -238 -134 -243 -130 -3 4 27 21 150 84 15
8 26 19 25 25 -1 6 8 12 19 13 35 2 47 13 33 30 -10 12 -8 14 12 10 13 -2 29
1 36 6 7 5 37 11 67 11 30 1 53 7 53 12 -2 12 73 19 84 8 5 -5 6 -19 2 -32 -3
-12 -9 -18 -12 -13 -6 10 -33 16 -58 13 -9 -1 -7 -7 5 -19 34 -34 51 -34 68
-1 25 49 54 149 54 185 0 31 -3 34 -29 34 -27 0 -109 -32 -242 -93 -96 -44
-190 -87 -240 -109 -27 -11 -49 -25 -49 -30 0 -5 -4 -7 -9 -4 -11 7 -103 -32
-113 -48 -4 -6 -8 -8 -8 -4 0 8 -73 -18 -146 -52 -23 -11 -85 -36 -139 -56
-68 -26 -92 -40 -83 -46 9 -7 6 -8 -9 -5 -22 5 -23 3 -23 -69 l0 -74 26 10
c91 35 -20 -24 -126 -66 -36 -15 -118 -48 -182 -75 -65 -27 -124 -49 -132 -49
-20 0 -35 53 -46 154 -11 104 -21 126 -60 126 -51 0 -70 -38 -70 -139 0 -80 8
-132 25 -173 5 -13 -2 -19 -36 -28 -72 -20 -154 -18 -177 4 -53 47 -78 219
-47 322 19 63 19 83 -2 106 -23 26 -58 22 -82 -8 -51 -64 -76 -240 -51 -349 5
-22 7 -41 5 -44 -10 -10 -88 53 -119 97 -105 143 -72 354 78 507 95 97 238
176 441 243 275 92 901 352 945 392 14 14 29 32 33 40 5 13 7 13 17 0 9 -12
10 -11 5 8 -5 17 -2 22 11 22 10 0 14 3 10 8 -4 4 -13 7 -19 7 -7 0 -13 9 -15
20 -2 14 -1 16 6 7 5 -7 15 -12 23 -10 8 2 13 -3 12 -9 -2 -7 3 -13 10 -13 8
0 7 -3 -3 -10 -12 -7 -12 -12 -2 -22 9 -9 12 -9 12 0 0 7 8 12 18 12 12 0 14
-2 4 -8 -8 -6 -2 -9 18 -9 19 0 30 5 30 14 0 7 11 19 25 25 20 9 23 14 12 19
-9 6 -13 22 -11 49 1 22 -2 42 -7 46 -5 3 -9 15 -10 27 0 21 -1 21 -10 2 -7
-16 -8 -13 -5 13 4 33 4 33 -15 16 -11 -10 -16 -20 -11 -23 11 -7 12 -42 1
-35 -14 8 -49 -34 -43 -51 6 -15 10 -17 53 -19 23 -1 44 -26 23 -26 -5 0 -12
-9 -15 -21 -4 -13 -10 -18 -17 -14 -9 6 -9 10 1 16 10 6 6 9 -13 9 -16 0 -28
4 -28 8 0 5 14 7 30 4 19 -3 30 0 30 7 0 7 -5 9 -10 6 -15 -9 -71 5 -64 16 3
5 0 9 -5 9 -6 0 -11 -5 -11 -11 0 -5 -5 -7 -11 -4 -7 5 -2 16 12 31 12 13 19
24 15 24 -4 0 -17 -12 -29 -26 l-22 -26 -27 21 c-36 29 -78 26 -156 -10 -248
-117 -785 -340 -793 -331 -36 35 -92 632 -60 632 4 0 60 -13 122 -30z m1801 3
c-6 -2 -10 -8 -7 -12 2 -5 -8 -6 -23 -3 l-27 6 25 7 c29 8 51 10 32 2z m298
-23 c6 -11 8 -20 6 -20 -3 0 -10 9 -16 20 -6 11 -8 20 -6 20 3 0 10 -9 16 -20z
m-385 -10 c3 -6 -1 -7 -9 -4 -18 7 -21 14 -7 14 6 0 13 -4 16 -10z m172 4 c-3
-3 -12 -4 -19 -1 -8 3 -5 6 6 6 11 1 17 -2 13 -5z m61 -49 c-3 -3 -9 2 -12 12
-6 14 -5 15 5 6 7 -7 10 -15 7 -18z m182 0 c14 -19 14 -19 -2 -6 -10 7 -18 18
-18 24 0 6 1 8 3 6 1 -2 9 -13 17 -24z m-440 -5 c0 -5 -2 -10 -4 -10 -3 0 -8
5 -11 10 -3 6 -1 10 4 10 6 0 11 -4 11 -10z m103 -46 c-5 -14 -3 -16 11 -11 9
4 14 3 11 -2 -3 -5 3 -12 12 -14 10 -2 4 -4 -14 -3 -17 0 -31 6 -30 11 2 11
-7 11 -37 -1 -13 -5 -17 -3 -14 6 2 7 14 14 26 15 29 2 38 13 24 27 -7 7 -12
17 -12 22 0 6 7 1 15 -11 8 -12 12 -29 8 -39z m-43 36 c0 -5 -2 -10 -4 -10 -3
0 -8 5 -11 10 -3 6 -1 10 4 10 6 0 11 -4 11 -10z m231 -7 c13 -16 12 -17 -3
-4 -10 7 -18 15 -18 17 0 8 8 3 21 -13z m-111 -3 c0 -5 -2 -10 -4 -10 -3 0 -8
5 -11 10 -3 6 -1 10 4 10 6 0 11 -4 11 -10z m-460 -4 c0 -3 -4 -8 -10 -11 -5
-3 -10 -1 -10 4 0 6 5 11 10 11 6 0 10 -2 10 -4z m-2287 -41 c110 -37 218
-132 263 -228 47 -101 23 -215 -62 -301 -36 -36 -123 -86 -150 -86 -14 0 -22
37 -33 161 -7 78 -12 96 -31 111 -28 23 -52 23 -80 0 -20 -16 -22 -27 -22
-113 0 -52 5 -115 12 -138 9 -35 9 -46 -2 -52 -19 -13 -176 -11 -200 2 -55 29
-79 209 -43 327 9 29 13 62 10 72 -7 24 -52 37 -74 23 -54 -33 -97 -192 -87
-315 l7 -78 -38 15 c-104 43 -147 111 -141 219 4 90 32 148 109 231 77 82 210
151 324 169 56 8 190 -2 238 -19z m2307 10 c0 5 7 -1 16 -13 13 -19 18 -21 32
-10 12 10 14 10 8 1 -5 -9 -2 -11 8 -7 9 3 13 11 9 17 -3 5 -1 7 5 4 5 -4 8
-16 5 -28 -4 -12 0 -25 8 -30 11 -6 11 -9 1 -9 -7 0 -15 7 -18 15 -4 8 -13 15
-22 15 -8 0 -24 7 -34 17 -10 9 -21 13 -26 9 -4 -4 2 -14 12 -22 17 -12 18
-14 3 -14 -9 0 -17 -7 -17 -15 0 -8 -7 -15 -15 -15 -19 0 -19 5 1 25 24 23 8
32 -18 9 -22 -19 -23 -19 -8 1 8 11 22 26 30 33 13 12 13 13 -2 8 -10 -3 -18
-1 -18 3 0 14 24 19 32 7 4 -6 8 -7 8 -1z m-137 -12 c-3 -7 -6 -13 -8 -13 -2
0 -5 6 -8 13 -3 8 1 14 8 14 7 0 11 -6 8 -14z m34 -12 c1 -11 -6 -21 -18 -24
-34 -9 -22 -30 14 -23 17 3 39 2 47 -4 12 -8 12 -11 -3 -28 -9 -10 -17 -26
-17 -35 0 -9 -4 -17 -9 -17 -5 0 -7 10 -4 23 4 21 4 22 -11 3 -9 -11 -16 -14
-16 -8 0 7 -9 12 -21 12 -15 0 -19 5 -15 15 3 8 2 15 -3 15 -5 0 -11 9 -14 20
-3 11 -2 18 2 16 4 -3 20 4 37 15 16 10 25 19 21 19 -5 0 -5 5 -2 10 9 14 11
13 12 -9z m383 4 c0 -1 -12 -2 -26 -2 -17 0 -22 2 -13 7 10 7 39 3 39 -5z
m-330 -10 c0 -2 -7 -5 -15 -9 -9 -3 -15 0 -15 9 0 9 6 12 15 9 8 -4 15 -7 15
-9z m210 3 c0 -4 -9 -8 -19 -8 -11 0 -23 -5 -27 -12 -5 -8 -2 -9 10 -5 10 4
27 0 39 -8 12 -8 17 -15 11 -15 -5 0 -15 5 -22 12 -6 6 -15 8 -19 3 -5 -4 -2
-10 5 -12 17 -7 15 -23 -4 -23 -8 0 -13 4 -10 9 3 5 -1 14 -9 21 -10 9 -11 16
-3 29 10 17 48 24 48 9z m17 -20 c-3 -8 -6 -5 -6 6 -1 11 2 17 5 13 3 -3 4
-12 1 -19z m129 7 c-22 -17 -42 -19 -50 -6 -4 5 3 7 14 4 11 -3 20 0 20 6 0 6
8 11 18 11 15 -1 15 -2 -2 -15z m121 9 c-3 -4 -1 -16 5 -28 10 -20 9 -20 -7
-4 -15 14 -14 38 2 38 4 0 3 -3 0 -6z m78 -12 c-3 -3 -11 0 -18 7 -9 10 -8 11
6 5 10 -3 15 -9 12 -12z m-276 -15 c17 7 16 5 -13 -17 -13 -10 -17 -10 -12 -2
4 6 2 12 -3 12 -6 0 -11 5 -11 12 0 9 3 9 11 1 6 -6 19 -9 28 -6z m141 -2 c-7
-9 -15 -13 -17 -11 -7 7 7 26 19 26 6 0 6 -6 -2 -15z m120 -2 c0 9 30 -18 30
-27 0 -3 -8 -2 -17 1 -12 5 -15 2 -10 -10 3 -9 2 -19 -3 -22 -4 -3 -7 6 -5 20
1 14 -2 28 -6 31 -5 3 -9 11 -9 17 0 7 4 6 10 -3 5 -8 10 -11 10 -7z m-2280
-3 c0 -5 -4 -10 -10 -10 -5 0 -10 5 -10 10 0 6 5 10 10 10 6 0 10 -4 10 -10z
m1838 -10 c-16 -24 -22 -25 -39 -3 -12 15 -12 16 3 10 10 -3 20 -2 23 3 4 6
10 10 16 10 5 0 4 -9 -3 -20z m-313 -10 c-3 -4 -2 -16 1 -25 6 -15 8 -14 25 1
25 22 37 11 14 -13 -23 -23 -59 -29 -52 -8 4 8 2 17 -3 20 -7 4 -7 18 -1 43 1
2 6 0 11 -3 6 -4 8 -10 5 -15z m558 6 c5 -12 -30 -56 -44 -56 -3 0 -6 14 -6
31 0 27 2 29 12 15 16 -22 24 -20 18 4 -6 22 12 28 20 6z m118 0 c5 3 9 1 9
-5 0 -12 -21 -20 -38 -13 -10 3 -10 7 0 19 8 10 14 11 16 4 2 -6 8 -9 13 -5z
m383 -14 c12 -23 12 -29 1 -29 -8 0 -11 7 -7 16 5 14 4 14 -14 1 -17 -14 -18
-14 -6 2 8 9 11 22 7 28 -3 5 -4 10 -1 10 3 0 12 -13 20 -28z m-434 -8 c0 -3
-4 -3 -9 1 -6 3 -14 -2 -19 -11 -8 -15 -10 -15 -15 0 -4 9 -2 16 4 16 6 0 7 5
3 11 -4 8 0 8 15 0 11 -7 21 -14 21 -17z m-339 -8 c0 5 5 -2 11 -16 10 -25 10
-25 18 -4 9 24 30 41 30 25 0 -5 -5 -13 -11 -16 -6 -4 -8 -14 -5 -22 5 -12 0
-13 -23 -8 -17 3 -32 2 -36 -4 -9 -16 -44 -13 -61 4 -9 9 -11 15 -4 15 6 0 9
4 5 9 -3 5 -1 12 4 15 5 3 12 -5 15 -19 4 -14 11 -25 16 -25 5 0 7 6 4 14 -4
11 0 13 18 9 21 -6 22 -5 9 11 -8 9 -21 14 -29 11 -13 -5 -13 -3 -1 11 12 14
14 14 26 -2 7 -10 13 -14 14 -8z m446 8 c0 -7 -3 -13 -6 -12 -3 0 -17 0 -30
-1 -20 -1 -22 -5 -17 -26 4 -14 2 -25 -3 -25 -14 0 -20 37 -8 49 6 6 19 11 30
11 10 0 16 4 13 8 -3 5 1 9 8 9 7 0 13 -6 13 -13z m-874 -17 c3 -8 -3 -13 -17
-14 -11 0 -15 1 -8 4 6 3 10 9 6 14 -3 5 -1 9 4 9 6 0 12 -6 15 -13z m37 -7
c0 -5 -4 -10 -10 -10 -5 0 -10 5 -10 10 0 6 5 10 10 10 6 0 10 -4 10 -10z
m677 -5 c0 -8 -4 -15 -9 -15 -5 0 -6 -4 -3 -10 3 -5 2 -10 -4 -10 -5 0 -13 5
-16 10 -3 6 -1 10 5 10 6 0 9 4 6 9 -4 5 0 12 6 14 7 3 13 6 14 6 0 1 1 -6 1
-14z m-203 -4 c3 -5 0 -14 -7 -19 -10 -8 -13 -6 -14 9 -2 19 11 26 21 10z
m123 -13 c-3 -8 -6 -5 -6 6 -1 11 2 17 5 13 3 -3 4 -12 1 -19z m152 -4 c10 7
23 -19 14 -28 -4 -3 -13 -6 -22 -6 -14 0 -14 2 -1 10 13 8 13 10 -2 10 -9 0
-18 -3 -21 -7 -2 -5 -3 -3 -1 3 1 6 -3 17 -9 24 -10 10 -7 10 11 1 12 -7 26
-9 31 -7z m131 1 c7 -8 10 -15 7 -15 -3 0 -14 -3 -24 -7 -15 -6 -16 -5 -5 9
11 14 10 17 -5 21 -15 4 -15 5 -2 6 9 0 22 -6 29 -14z m64 -31 c3 -8 2 -12 -4
-9 -6 3 -10 10 -10 16 0 14 7 11 14 -7z m-137 0 c-3 -3 -12 -4 -19 -1 -8 3 -5
6 6 6 11 1 17 -2 13 -5z m44 -27 c-10 -9 -11 -8 -5 6 3 10 9 15 12 12 3 -3 0
-11 -7 -18z m49 19 c0 -3 -4 -8 -10 -11 -5 -3 -10 -1 -10 4 0 6 5 11 10 11 6
0 10 -2 10 -4z m355 -58 c47 -77 47 -78 42 -78 -3 0 -19 25 -38 54 -18 30 -35
53 -39 51 -3 -2 -7 5 -7 16 -1 10 0 19 1 19 2 0 20 -28 41 -62z m-315 36 c0
-2 -7 -4 -15 -4 -8 0 -15 4 -15 10 0 5 7 7 15 4 8 -4 15 -8 15 -10z m34 -45
c-4 -52 -13 -75 -21 -52 -4 10 -8 9 -20 -2 -23 -24 -35 -17 -17 10 9 14 19 23
23 21 12 -8 37 13 26 22 -14 10 -17 32 -4 32 5 0 7 5 4 10 -3 6 -2 10 3 10 6
0 8 -23 6 -51z m1551 26 c227 -57 401 -239 460 -483 25 -105 17 -260 -18 -360
-70 -199 -237 -353 -447 -411 -84 -24 -219 -37 -272 -27 -31 6 -35 11 -52 64
-10 31 -24 72 -32 91 -8 18 -13 36 -10 39 3 2 10 -7 15 -22 6 -14 15 -26 21
-26 6 0 8 -5 4 -12 -12 -20 192 -3 267 22 126 43 187 80 255 153 66 71 77 91
47 81 -15 -5 -15 -4 -3 4 8 6 17 9 20 7 10 -6 41 65 34 77 -4 6 -2 8 3 5 6 -4
16 13 23 41 23 91 24 90 -10 54 -17 -19 -28 -38 -24 -45 4 -7 4 -9 0 -5 -5 4
-38 -18 -74 -48 -36 -30 -70 -54 -75 -54 -5 0 -22 -9 -38 -21 -34 -24 -105
-53 -199 -80 -86 -26 -100 -28 -202 -36 l-87 -6 15 -35 c8 -19 12 -37 9 -40
-7 -8 -8 -6 -60 98 -55 109 -147 270 -183 318 -14 18 -23 34 -21 36 2 1 41 8
86 14 155 21 275 102 305 206 30 104 2 238 -68 331 -20 25 -34 48 -32 49 14
11 76 29 120 36 69 11 137 6 223 -15z m-3918 -82 c-2 -16 -4 -3 -4 27 0 30 2
43 4 28 2 -16 2 -40 0 -55z m2303 32 c-7 -9 -15 -13 -17 -11 -7 7 7 26 19 26
6 0 6 -6 -2 -15z m125 -4 c3 -5 2 -12 -3 -15 -5 -3 -9 1 -9 9 0 17 3 19 12 6z
m-34 -14 c-1 -4 -1 -15 -1 -24 0 -14 -2 -15 -12 -4 -11 11 -10 14 1 18 11 5
11 7 0 15 -11 8 -11 9 -1 6 8 -2 13 -7 13 -11z m67 -51 c14 5 14 4 2 -4 -19
-14 -30 -6 -29 21 l2 22 4 -22 c3 -15 9 -20 21 -17z m-2491 -38 c-2 -13 -4 -3
-4 22 0 25 2 35 4 23 2 -13 2 -33 0 -45z m2550 30 c-3 -8 -6 -5 -6 6 -1 11 2
17 5 13 3 -3 4 -12 1 -19z m191 -3 c-3 -3 -9 2 -12 12 -6 14 -5 15 5 6 7 -7
10 -15 7 -18z m-2701 -17 c-3 -8 -6 -5 -6 6 -1 11 2 17 5 13 3 -3 4 -12 1 -19z
m2743 -51 c0 -12 0 -11 -24 28 l-17 30 20 -24 c12 -13 21 -28 21 -34z m-285
23 c3 -5 2 -10 -4 -10 -5 0 -13 5 -16 10 -3 6 -2 10 4 10 5 0 13 -4 16 -10z
m103 -65 c-3 -3 -9 2 -12 12 -6 14 -5 15 5 6 7 -7 10 -15 7 -18z m-34 -6 c-3
-6 0 -15 7 -20 9 -6 10 -9 2 -9 -15 0 -26 17 -18 30 3 6 8 10 11 10 3 0 2 -5
-2 -11z m-2504 -53 c0 -39 -6 -30 -13 19 -4 27 -3 35 3 25 5 -8 10 -28 10 -44z
m2765 34 c3 -5 1 -10 -4 -10 -6 0 -11 5 -11 10 0 6 2 10 4 10 3 0 8 -4 11 -10z
m-2852 -40 c3 -11 1 -20 -4 -20 -5 0 -9 9 -9 20 0 11 2 20 4 20 2 0 6 -9 9
-20z m2758 -47 c-12 -20 -14 -14 -5 12 4 9 9 14 11 11 3 -2 0 -13 -6 -23z
m-34 -15 c-3 -8 -6 -5 -6 6 -1 11 2 17 5 13 3 -3 4 -12 1 -19z m3 -40 c0 -4
-9 -8 -20 -8 -11 0 -20 4 -20 9 0 6 9 9 20 8 11 -1 20 -5 20 -9z m40 -18 c0
-5 -4 -10 -10 -10 -5 0 -10 5 -10 10 0 6 5 10 10 10 6 0 10 -4 10 -10z m-25
-20 c3 -5 1 -10 -4 -10 -6 0 -11 5 -11 10 0 6 2 10 4 10 3 0 8 -4 11 -10z
m-3975 -66 c74 -75 186 -135 320 -170 119 -31 413 -36 506 -9 21 7 21 3 -11
-76 -18 -45 -36 -90 -38 -100 -5 -17 -16 -19 -104 -19 -201 0 -360 -49 -523
-160 -64 -44 -192 -174 -238 -242 -77 -112 -149 -298 -171 -437 -6 -35 -12
-65 -13 -67 -2 -1 -53 18 -113 43 -119 50 -217 109 -291 176 l-47 43 13 89
c14 105 83 324 135 427 56 110 131 213 237 324 90 93 255 224 282 224 7 0 32
-21 56 -46z m4014 30 c3 -8 2 -12 -4 -9 -6 3 -10 10 -10 16 0 14 7 11 14 -7z
m-30 -9 c-4 -8 -15 -15 -25 -15 -10 0 -19 7 -19 15 0 9 9 15 25 15 18 0 23 -4
19 -15z m203 -217 c-3 -8 -6 -5 -6 6 -1 11 2 17 5 13 3 -3 4 -12 1 -19z m188
-18 c3 -6 -1 -7 -9 -4 -18 7 -21 14 -7 14 6 0 13 -4 16 -10z m26 -42 c11 -21
11 -22 -4 -9 -10 7 -17 17 -17 22 0 15 9 10 21 -13z m-86 -8 c3 -6 -1 -7 -9
-4 -18 7 -21 14 -7 14 6 0 13 -4 16 -10z m57 -12 c-14 -14 -44 -20 -36 -7 3 5
9 7 14 4 5 -3 11 -1 15 5 3 5 9 10 13 10 3 0 1 -5 -6 -12z m-105 -13 c0 -8 -4
-15 -9 -15 -10 0 -11 14 -1 23 9 10 10 9 10 -8z m20 -27 c-3 -8 -6 -5 -6 6 -1
11 2 17 5 13 3 -3 4 -12 1 -19z m-1747 -12 c0 -3 -4 -8 -10 -11 -5 -3 -10 -1
-10 4 0 6 5 11 10 11 6 0 10 -2 10 -4z m76 -37 c-30 -16 -41 -18 -50 -8 -6 6
-6 9 -1 6 6 -3 21 1 35 9 14 7 32 13 40 13 8 0 -2 -9 -24 -20z m1854 -12 c0
-5 -4 -5 -10 -2 -5 3 -10 14 -10 23 0 15 2 15 10 2 5 -8 10 -19 10 -23z
m-1946 -9 c-4 -6 2 -8 17 -4 21 6 20 5 -4 -9 -51 -29 -101 -43 -122 -33 -18 8
-18 8 3 4 12 -2 22 0 22 6 0 5 4 7 9 3 18 -10 63 18 58 36 -3 12 0 16 9 12 8
-3 11 -10 8 -15z m2893 -30 c-3 -8 -6 -5 -6 6 -1 11 2 17 5 13 3 -3 4 -12 1
-19z m-897 -49 c0 -3 -6 -6 -13 -6 -8 0 -14 12 -14 30 l0 29 13 -24 c7 -12 13
-26 14 -29z m-2170 -14 c-14 -8 -31 -14 -38 -15 -25 0 10 26 37 28 l26 1 -25
-14z m2190 -25 c6 -11 8 -20 6 -20 -3 0 -10 9 -16 20 -6 11 -8 20 -6 20 3 0
10 -9 16 -20z m-2270 -4 c-14 -7 -36 -16 -50 -20 -14 -3 -7 3 15 14 45 22 74
27 35 6z m2299 -56 c11 -24 11 -24 -3 -6 -9 11 -16 24 -16 30 0 12 5 7 19 -24z
m-3826 -9 c16 -6 26 -20 31 -42 3 -18 22 -65 41 -105 34 -70 85 -131 191 -224
80 -72 212 -304 214 -376 0 -26 -8 -27 -241 -49 -176 -16 -498 -18 -689 -3
-130 10 -350 44 -363 57 -11 11 26 184 56 259 118 293 383 488 669 491 37 1
78 -3 91 -8z m3865 -73 c26 -60 24 -74 -2 -20 -10 20 -22 45 -27 55 -5 9 -6
17 -1 17 4 0 18 -23 30 -52z m370 15 c-15 -2 -42 -2 -60 0 -18 2 -6 4 27 4 33
0 48 -2 33 -4z m-2751 -381 c-15 -3 -17 -21 -19 -155 -2 -168 -6 -143 -10 59
l-3 131 24 -16 c21 -13 22 -16 8 -19z m96 -38 c9 -4 17 -10 17 -15 0 -5 -13
-3 -30 6 -28 15 -44 33 -17 21 6 -3 20 -9 30 -12z m142 -60 c24 -11 25 -13 5
-8 -14 4 -38 13 -55 20 -24 11 -25 13 -5 8 14 -4 39 -13 55 -20z m387 -95 l53
-12 -175 -86 -174 -86 -17 -50 c-20 -63 -53 -128 -72 -144 -38 -31 -187 -75
-292 -86 l-63 -7 26 87 c14 48 28 83 30 77 2 -6 -2 -30 -9 -54 -7 -24 -13 -47
-15 -53 -1 -5 -5 -18 -9 -27 -5 -13 -2 -18 9 -18 8 0 14 6 12 13 -1 6 -1 9 1
5 8 -15 88 -6 153 15 53 18 65 26 63 42 -1 19 -1 19 12 2 13 -18 14 -18 23 0
5 10 13 34 17 53 12 62 77 180 118 215 21 19 73 50 115 70 43 20 84 40 92 45
21 12 41 12 102 -1z m-3462 -133 c76 -50 209 -110 289 -131 l44 -11 19 -108
c15 -91 49 -209 83 -288 4 -10 3 -18 -3 -18 -15 0 -218 106 -276 145 -137 91
-168 137 -225 336 -34 117 -38 144 -18 132 6 -4 46 -30 87 -57z m4514 32 c25
-23 8 -23 -23 1 -13 10 -17 18 -10 18 8 0 23 -9 33 -19z m-1707 -70 c-3 -8 -6
-5 -6 6 -1 11 2 17 5 13 3 -3 4 -12 1 -19z m-10 -60 c-3 -7 -5 -2 -5 12 0 14
2 19 5 13 2 -7 2 -19 0 -25z m2012 -9 c-15 -9 -32 -2 -24 11 3 5 13 6 21 3 12
-4 13 -8 3 -14z m-2022 -31 c-3 -8 -6 -5 -6 6 -1 11 2 17 5 13 3 -3 4 -12 1
-19z m-2142 -63 c276 -45 828 -50 1135 -9 l51 7 -32 -54 c-112 -192 -299 -303
-594 -354 -96 -16 -390 -16 -455 0 -25 7 -51 10 -58 8 -17 -6 -95 161 -127
271 -25 88 -32 146 -17 146 4 0 48 -7 97 -15z m4893 -38 c-6 -20 -15 -37 -20
-37 -4 0 -8 -6 -8 -12 0 -7 16 5 35 27 29 33 36 37 45 25 28 -41 -24 -145
-124 -245 -107 -106 -216 -166 -308 -167 -54 -1 -59 -2 -43 -14 10 -8 14 -14
8 -14 -6 0 -16 7 -24 16 -7 8 -26 22 -42 31 -16 8 -25 18 -21 23 5 4 46 20 92
35 150 49 319 187 387 317 16 31 31 56 32 54 1 -1 -3 -19 -9 -39z m-458 -52
c-6 -8 -9 -19 -5 -25 3 -5 1 -10 -4 -10 -6 0 -11 4 -11 9 0 18 12 41 22 41 6
0 5 -6 -2 -15z m27 -12 c-4 -3 -2 -12 4 -19 8 -10 2 -17 -23 -30 -30 -16 -116
-28 -102 -15 3 3 13 6 22 7 10 1 27 2 40 3 13 0 20 5 17 11 -4 6 -3 10 2 9 22
-4 31 3 26 21 -3 12 0 20 8 20 7 0 9 -3 6 -7z m-1947 -154 c-76 -62 -244 -108
-419 -116 -110 -4 -133 -3 -129 8 3 11 37 16 134 20 143 7 231 26 344 74 88
39 104 42 70 14z m2667 -21 c10 -18 37 -76 60 -128 108 -251 125 -401 59 -514
-54 -92 -140 -138 -270 -144 -84 -4 -90 -3 -107 19 -32 42 -44 120 -31 205 15
92 6 114 -42 114 -54 0 -82 -45 -95 -148 -6 -48 -4 -82 5 -120 8 -29 14 -55
14 -57 0 -10 -39 -5 -81 10 -153 54 -187 251 -61 355 21 17 78 46 129 66 98
38 180 89 252 157 47 45 141 181 141 203 0 21 6 17 27 -18z m-3187 -344 c51
-13 93 -15 190 -11 130 5 218 23 309 63 29 13 57 24 62 24 10 0 4 -59 -12
-123 -27 -107 -150 -171 -389 -202 -342 -46 -702 -59 -699 -26 0 3 37 32 82
63 93 66 170 136 246 225 l52 61 47 -29 c26 -15 76 -36 112 -45z"/>
<path d="M6690 8698 c0 -7 7 -49 15 -92 15 -80 29 -222 40 -416 4 -64 11 -107
18 -112 9 -6 9 -8 0 -8 -8 0 -13 -14 -13 -38 0 -30 7 -43 31 -65 34 -30 65
-36 55 -12 -3 9 1 18 9 21 7 3 11 12 8 20 -3 8 0 14 6 14 8 0 9 5 3 16 -5 9
-7 26 -5 38 3 15 2 17 -5 8 -7 -11 -10 -11 -15 2 -4 9 -3 15 1 13 16 -5 15 23
-9 153 -25 134 -88 408 -100 435 -7 16 -8 13 -4 -10 5 -28 4 -29 -9 -12 -8 11
-12 25 -10 32 3 7 1 16 -5 20 -6 3 -11 0 -11 -7z m129 -699 c-11 -7 -9 -9 6
-9 14 0 16 -3 8 -11 -16 -16 -44 10 -29 27 6 7 15 10 20 7 4 -3 2 -9 -5 -14z"/>
<path d="M6248 8063 c7 -3 16 -2 19 1 4 3 -2 6 -13 5 -11 0 -14 -3 -6 -6z"/>
<path d="M6306 7995 c21 -27 46 -58 54 -67 8 -9 42 -55 75 -102 33 -47 64 -85
69 -86 5 0 3 7 -4 15 -10 12 -10 15 1 15 8 0 2 8 -13 17 -25 16 -56 68 -50 85
1 4 -6 4 -15 1 -10 -4 -14 -2 -10 4 4 6 0 13 -8 17 -17 6 -56 66 -50 77 6 9
-24 34 -31 26 -3 -3 -17 6 -31 21 -14 15 -8 5 13 -23z"/>
<path d="M3065 7979 c-10 -15 3 -25 16 -12 7 7 7 13 1 17 -6 3 -14 1 -17 -5z"/>
<path d="M6820 7926 c0 -2 7 -6 15 -10 8 -3 15 -1 15 4 0 6 -7 10 -15 10 -8 0
-15 -2 -15 -4z"/>
<path d="M6520 7845 c0 -8 6 -15 13 -15 8 -1 7 -4 -3 -13 -18 -15 -25 -71 -7
-61 7 4 4 -2 -6 -13 -16 -18 -16 -21 -2 -33 13 -11 15 -10 9 6 -4 15 -4 16 4
5 6 -8 8 -20 5 -27 -2 -7 10 -39 28 -71 18 -32 38 -68 43 -80 6 -13 16 -23 23
-23 6 0 15 -5 19 -12 5 -8 2 -9 -9 -5 -20 7 -21 3 -7 -23 6 -11 17 -17 25 -14
8 4 15 1 15 -5 0 -6 -5 -11 -11 -11 -6 0 -3 -7 5 -16 18 -17 21 -28 6 -19 -11
7 17 -72 32 -92 6 -7 7 -17 3 -23 -3 -5 -1 -10 6 -10 7 0 9 -3 6 -6 -3 -4 -2
-15 4 -26 6 -11 12 -27 14 -36 3 -9 20 -62 39 -117 19 -55 32 -103 30 -107 -3
-5 -1 -8 3 -8 5 0 9 -8 10 -17 3 -27 32 -164 43 -198 5 -16 12 -52 16 -80 10
-79 12 -90 14 -92 2 -2 3 -8 4 -13 0 -6 8 -15 16 -20 9 -6 10 -10 3 -10 -8 0
-10 -13 -6 -37 3 -21 6 -47 8 -58 1 -11 3 -37 4 -57 1 -32 5 -38 29 -44 29 -6
164 -48 196 -60 18 -7 19 -3 13 62 -5 65 -13 112 -54 324 -33 171 -115 420
-194 588 -21 46 -39 86 -39 90 0 4 -13 23 -30 42 -16 19 -29 40 -30 45 0 14
-88 160 -133 221 -21 29 -45 51 -54 50 -9 0 -18 6 -20 14 -4 13 -3 13 6 0 5
-8 13 -11 17 -7 11 11 -27 47 -50 47 -16 0 -18 2 -7 9 11 7 9 14 -11 34 -14
14 -23 28 -20 31 3 3 0 6 -6 6 -7 0 -12 -7 -12 -15z m60 -79 c0 -9 -30 -14
-35 -6 -4 6 3 10 14 10 12 0 21 -2 21 -4z m6 -66 c0 -12 -4 -16 -9 -11 -5 5
-6 14 -3 20 10 15 12 14 12 -9z m-21 -20 c3 -5 -1 -10 -10 -10 -9 0 -13 5 -10
10 3 6 8 10 10 10 2 0 7 -4 10 -10z m60 -60 c3 -5 1 -10 -4 -10 -6 0 -11 5
-11 10 0 6 2 10 4 10 3 0 8 -4 11 -10z m8 -47 c-7 -2 -19 -2 -25 0 -7 3 -2 5
12 5 14 0 19 -2 13 -5z m137 -73 c0 -5 -4 -10 -10 -10 -5 0 -10 5 -10 10 0 6
5 10 10 10 6 0 10 -4 10 -10z m-56 -156 c3 -8 2 -12 -4 -9 -6 3 -10 10 -10 16
0 14 7 11 14 -7z"/>
<path d="M3880 7097 c-120 -35 -202 -103 -257 -213 -101 -205 -18 -447 186
-543 49 -23 68 -26 151 -25 141 1 221 42 305 155 84 114 98 263 37 393 -40 86
-129 181 -199 212 -65 29 -163 38 -223 21z m146 -128 c55 -26 84 -72 84 -134
0 -101 -62 -165 -161 -165 -70 0 -115 27 -147 90 -28 54 -24 106 12 161 45 68
132 87 212 48z"/>
<path d="M5861 7098 c-74 -11 -143 -51 -207 -121 -90 -97 -121 -185 -111 -310
11 -134 106 -270 226 -326 49 -22 69 -26 156 -26 91 0 105 3 158 30 82 41 157
125 192 214 25 62 27 79 23 159 -3 75 -9 100 -36 155 -81 163 -236 251 -401
225z m122 -122 c46 -19 94 -77 102 -124 9 -55 -18 -117 -68 -153 -33 -24 -50
-29 -97 -29 -71 0 -116 27 -148 90 -69 134 69 276 211 216z"/>
<path d="M4751 6474 c-199 -53 -286 -205 -212 -367 40 -90 143 -173 246 -199
28 -7 51 -13 53 -14 10 -6 -33 -80 -69 -119 -126 -137 -351 -146 -503 -21 -49
39 -90 111 -106 181 -20 89 -60 124 -119 104 -113 -40 -60 -298 90 -434 50
-45 182 -110 252 -125 l52 -10 1 -118 c1 -174 40 -274 155 -397 206 -220 585
-182 760 77 67 98 92 182 97 320 l4 117 57 11 c97 20 179 66 256 144 85 86
125 163 133 252 9 118 -18 168 -90 166 -44 -1 -64 -25 -83 -103 -42 -170 -172
-271 -350 -272 -102 -1 -172 23 -237 82 -41 36 -108 138 -96 145 2 1 30 10 63
20 164 49 265 163 265 301 0 133 -93 228 -258 264 -75 16 -295 13 -361 -5z
m96 -139 c25 -28 21 -60 -11 -77 -29 -16 -147 -11 -165 7 -25 24 -2 78 39 92
49 18 110 8 137 -22z m241 -867 c26 -18 66 -42 90 -52 46 -21 47 -22 31 -98
-24 -112 -90 -197 -184 -239 -63 -28 -190 -30 -248 -5 -84 37 -147 143 -155
262 l-5 73 29 6 c95 18 150 37 215 72 4 2 9 -34 10 -80 4 -95 22 -127 69 -127
46 0 64 32 68 118 5 119 6 120 80 70z"/>
<path d="M5066 4081 c-4 -7 -5 -15 -2 -18 9 -9 19 4 14 18 -4 11 -6 11 -12 0z"/>
<path d="M5193 4048 c-6 -7 -13 -23 -16 -36 -4 -17 -1 -22 11 -20 11 2 16 -3
16 -14 -2 -25 13 -22 27 4 9 17 9 20 -2 16 -26 -10 -43 23 -26 50 5 6 6 12 4
12 -3 0 -9 -6 -14 -12z"/>
<path d="M5180 3951 c0 -5 -8 -12 -17 -14 -11 -3 -7 -5 10 -6 27 -1 36 12 17
24 -5 3 -10 2 -10 -4z"/>
<path d="M5969 3892 c13 -25 28 -35 34 -25 3 5 -6 16 -20 27 -25 18 -25 18
-14 -2z"/>
<path d="M6120 3775 c0 -5 5 -17 11 -25 8 -11 12 -12 16 -2 2 6 10 9 15 6 7
-4 8 -2 4 5 -4 6 -12 8 -18 5 -6 -4 -14 0 -19 7 -5 8 -9 10 -9 4z"/>
<path d="M6154 3719 c3 -15 46 -32 46 -19 0 6 -9 10 -19 10 -11 0 -22 5 -24
10 -3 6 -4 5 -3 -1z"/>
<path d="M6215 3679 c-4 -5 -14 -8 -22 -5 -8 3 -12 2 -9 -3 7 -11 56 -11 56 0
0 14 -18 20 -25 8z"/>
<path d="M6215 3640 c3 -5 10 -10 16 -10 5 0 9 5 9 10 0 6 -7 10 -16 10 -8 0
-12 -4 -9 -10z"/>
<path d="M6245 3620 c-18 -8 -17 -9 8 -9 16 -1 26 3 22 9 -3 6 -7 10 -8 9 -1
0 -11 -4 -22 -9z"/>
<path d="M6284 3607 c-18 -21 -13 -47 10 -47 19 1 20 1 3 11 -21 12 -13 31 10
22 10 -4 14 -2 11 7 -6 19 -21 22 -34 7z"/>
<path d="M6305 3530 c-3 -5 -1 -10 4 -10 6 0 11 5 11 10 0 6 -2 10 -4 10 -3 0
-8 -4 -11 -10z"/>
<path d="M6345 3530 c3 -5 8 -10 11 -10 2 0 4 5 4 10 0 6 -5 10 -11 10 -5 0
-7 -4 -4 -10z"/>
<path d="M6340 3466 c0 -2 7 -7 16 -10 8 -3 12 -2 9 4 -6 10 -25 14 -25 6z"/>
<path d="M6477 3383 c-12 -12 -7 -33 13 -53 21 -21 35 -27 25 -10 -11 17 5 32
21 19 11 -9 14 -8 14 5 0 11 -9 16 -26 16 -16 0 -23 -4 -18 -11 4 -7 1 -10 -7
-7 -8 3 -13 15 -13 26 2 24 1 25 -9 15z"/>
<path d="M6475 3320 c-3 -5 -1 -10 4 -10 6 0 11 5 11 10 0 6 -2 10 -4 10 -3 0
-8 -4 -11 -10z"/>
<path d="M6533 3305 c-3 -9 -3 -18 -1 -21 3 -3 8 4 11 16 6 23 -1 27 -10 5z"/>
<path d="M6561 3276 c-9 -10 -8 -15 3 -19 11 -4 13 -1 9 11 -6 15 -5 16 13 2
18 -14 18 -14 5 3 -16 21 -16 20 -30 3z"/>
<path d="M6675 3130 c-3 -5 -1 -10 4 -10 6 0 11 5 11 10 0 6 -2 10 -4 10 -3 0
-8 -4 -11 -10z"/>
<path d="M7137 2479 c7 -9 10 -19 6 -22 -3 -4 -1 -7 5 -7 17 0 15 16 -5 31
-16 12 -17 12 -6 -2z"/>
<path d="M7150 2408 c0 -9 5 -20 10 -23 13 -8 13 5 0 25 -8 13 -10 13 -10 -2z"/>
<path d="M7176 2305 c3 -39 7 -122 9 -185 1 -63 3 -117 4 -120 7 -17 23 57 28
125 6 91 -8 194 -31 227 -15 21 -15 17 -10 -47z"/>
<path d="M6970 1820 c0 -5 5 -10 10 -10 6 0 10 5 10 10 0 6 -4 10 -10 10 -5 0
-10 -4 -10 -10z"/>
<path d="M5363 4077 c2 -6 13 -13 25 -15 12 -2 20 -8 17 -13 -9 -14 33 -5 48
11 9 10 9 11 0 6 -7 -4 -13 -2 -13 5 0 8 -4 8 -13 1 -9 -8 -21 -7 -41 3 -20
11 -26 11 -23 2z"/>
<path d="M2394 3210 c-90 -45 -283 -268 -345 -399 -21 -45 -21 -46 -3 -81 22
-41 62 -58 101 -44 27 9 43 28 135 161 49 70 120 147 201 219 34 30 47 49 47
68 0 40 -17 66 -55 82 -42 17 -32 18 -81 -6z"/>
<path d="M1951 2561 c-43 -60 -9 -134 61 -134 38 0 78 41 78 82 0 76 -96 112
-139 52z"/>
<path d="M7327 1735 c-15 -18 -23 -36 -18 -39 5 -4 12 3 16 14 3 11 10 20 15
20 5 0 14 9 20 20 16 31 -2 22 -33 -15z"/>
<path d="M7274 1675 c-16 -12 -17 -14 -3 -15 9 0 19 7 23 15 7 19 5 19 -20 0z"/>
</g>
</svg>
