<?xml version="1.0" standalone="no"?>
<!DOCTYPE svg PUBLIC "-//W3C//DTD SVG 20010904//EN"
 "http://www.w3.org/TR/2001/REC-SVG-20010904/DTD/svg10.dtd">
<svg version="1.0" xmlns="http://www.w3.org/2000/svg"
 width="1024.000000pt" height="1024.000000pt" viewBox="0 0 1024.000000 1024.000000"
 preserveAspectRatio="xMidYMid meet">

<g transform="translate(0.000000,1024.000000) scale(0.100000,-0.100000)"
fill="#000000" stroke="none">
<path d="M4725 10093 c-73 -14 -275 -91 -355 -135 -30 -17 -69 -39 -87 -49
-38 -21 -236 -150 -243 -158 -3 -4 -39 -33 -80 -66 -250 -199 -527 -508 -620
-695 -13 -25 -81 -105 -154 -180 -229 -236 -387 -471 -511 -762 l-37 -86 -86
-58 c-48 -31 -106 -73 -129 -91 -42 -34 -42 -35 -37 -91 5 -61 20 -178 29
-227 3 -16 12 -68 20 -115 17 -96 22 -118 66 -280 16 -63 37 -129 45 -147 8
-17 14 -37 14 -45 0 -7 7 -24 16 -36 8 -12 14 -26 12 -31 -2 -5 -60 15 -130
43 -137 58 -267 100 -338 111 -25 4 -54 9 -65 12 -11 2 -74 7 -140 10 -197 9
-337 -35 -456 -145 -217 -200 -234 -499 -42 -736 84 -104 161 -148 460 -261
157 -59 298 -148 638 -400 152 -113 356 -254 454 -314 l53 -32 -6 -107 c-13
-205 -40 -544 -45 -570 -1 -2 -16 26 -35 62 -44 85 -87 136 -161 193 -132 100
-263 142 -439 141 -359 -3 -649 -226 -771 -593 -86 -256 -70 -536 44 -798 27
-62 125 -205 191 -279 142 -159 400 -294 617 -323 65 -8 222 -9 293 -1 154 18
338 85 458 168 23 16 47 26 52 23 15 -9 -44 -81 -213 -258 -83 -88 -156 -166
-162 -173 -5 -7 -41 -24 -79 -38 -106 -40 -163 -75 -217 -134 -87 -95 -106
-153 -160 -470 -42 -252 -46 -470 -9 -566 14 -39 13 -52 -7 -53 -10 0 -47 -4
-83 -8 -36 -4 -74 -9 -85 -10 -11 -1 -27 -5 -35 -8 -38 -13 -139 -29 -150 -22
-6 4 -20 -1 -30 -10 -11 -10 -28 -15 -40 -12 -13 3 -20 0 -20 -9 0 -8 -6 -11
-15 -8 -8 4 -15 1 -15 -5 0 -6 -9 -11 -19 -11 -11 0 -23 -4 -26 -10 -3 -5 -14
-10 -24 -10 -9 0 -22 -5 -28 -11 -14 -14 -5 -49 13 -49 8 0 14 -7 14 -16 0
-13 3 -14 13 -5 10 8 17 7 25 -1 10 -10 37 -17 80 -20 6 -1 12 -6 12 -11 0 -5
9 -7 20 -4 11 3 20 1 20 -4 0 -5 11 -7 25 -3 16 4 25 2 25 -6 0 -7 8 -9 20 -5
12 4 20 2 20 -5 0 -6 10 -8 25 -4 17 4 25 2 25 -7 0 -12 2 -12 9 0 5 7 14 10
20 7 6 -4 9 -10 7 -14 -2 -4 21 -7 51 -7 30 0 57 -3 59 -6 2 -4 12 -5 23 -2
10 2 26 -4 36 -14 18 -17 18 -17 12 0 -5 14 -2 16 16 12 12 -3 38 -7 57 -9 19
-3 35 -6 35 -7 0 -2 27 -5 115 -13 115 -10 165 -16 183 -22 9 -3 17 0 17 7 0
8 4 8 13 1 7 -6 60 -12 119 -14 89 -2 105 -5 100 -18 -5 -12 -2 -11 11 2 11
11 26 15 45 11 15 -3 36 -6 47 -7 11 -1 25 -5 32 -9 6 -4 15 -3 18 3 5 8 11 7
21 -1 11 -9 14 -9 14 1 0 9 4 9 17 -1 13 -11 17 -11 20 -1 3 6 10 9 16 5 6 -4
50 -8 97 -9 47 -1 85 -3 85 -4 0 -1 26 -3 57 -3 31 -1 60 -5 64 -9 4 -4 14 -3
21 4 11 9 17 9 24 -3 6 -9 12 -10 17 -4 8 12 62 14 62 2 0 -4 12 -4 26 -1 20
5 25 4 19 -6 -6 -9 -3 -10 13 -1 28 15 59 14 65 -1 4 -10 6 -10 6 0 1 16 28
16 34 0 4 -10 8 -10 15 1 7 10 11 10 17 1 6 -9 10 -9 16 1 8 12 11 11 19 -1 9
-13 11 -13 20 0 9 13 11 13 19 1 8 -12 12 -12 25 -2 9 8 16 9 16 4 0 -5 38 -9
86 -8 47 0 88 -3 91 -7 2 -5 11 -4 18 2 9 7 15 8 19 1 5 -7 15 -7 31 -1 14 5
25 6 25 1 0 -9 30 -8 47 2 6 4 15 3 18 -3 5 -8 11 -7 21 1 11 9 18 9 26 1 7
-7 17 -8 29 -2 11 6 20 6 24 1 6 -11 44 -9 62 2 7 4 28 1 47 -7 27 -11 34 -12
30 -2 -4 9 4 13 26 12 21 -1 29 -5 25 -15 -4 -10 -2 -11 7 -3 7 6 29 9 48 8
19 -1 41 2 47 7 9 6 13 5 13 -3 0 -9 3 -10 13 -1 10 8 17 7 25 -1 8 -8 15 -8
27 2 13 11 21 11 35 3 12 -8 20 -9 28 -1 7 7 16 8 24 2 14 -11 214 -11 224 -1
4 3 15 2 25 -4 13 -6 19 -6 19 0 0 12 32 2 42 -13 5 -7 8 -7 8 2 0 9 7 11 19
7 11 -3 22 -1 26 5 5 8 10 8 20 0 10 -8 15 -8 20 0 5 8 11 7 22 -1 12 -10 16
-10 23 1 7 11 11 10 26 -4 9 -10 20 -13 23 -8 9 14 81 14 81 0 0 -9 3 -9 12 0
15 15 42 16 32 0 -5 -7 -3 -8 7 -2 20 12 190 15 183 2 -4 -6 0 -7 12 -1 22 11
74 11 91 0 6 -4 14 -3 18 3 3 5 11 10 16 10 6 0 7 -4 4 -10 -4 -7 3 -7 20 0
18 7 33 7 47 -1 16 -9 19 -8 13 2 -6 9 -3 10 8 6 10 -4 24 -10 32 -13 8 -3 15
-2 15 3 0 5 12 10 28 11 21 1 23 0 12 -8 -8 -5 -10 -10 -5 -10 6 0 17 6 23 12
10 10 15 10 23 -2 8 -11 12 -12 16 -2 6 15 40 16 45 0 3 -8 11 -7 28 5 17 11
27 13 36 6 8 -7 14 -7 19 1 9 15 25 12 25 -6 0 -13 2 -13 21 -1 15 11 29 13
50 7 17 -5 29 -5 29 0 0 6 11 5 26 0 16 -6 23 -6 19 0 -3 5 9 7 31 4 24 -3 41
0 46 8 6 10 10 10 17 -1 7 -11 13 -12 23 -3 11 9 17 9 27 -1 9 -9 14 -9 21 3
8 13 11 13 19 1 5 -8 14 -10 21 -6 7 4 85 8 174 9 88 1 166 5 173 9 6 4 15 3
18 -3 5 -8 11 -8 20 0 7 6 19 8 28 4 8 -3 18 0 22 6 5 8 11 8 22 -1 11 -10 16
-10 23 0 5 9 9 10 14 2 4 -6 13 -8 19 -4 7 4 41 8 77 8 36 1 71 4 78 9 6 4 17
4 22 1 17 -11 80 -14 74 -4 -3 5 7 9 21 9 18 0 24 -4 19 -12 -4 -7 2 -5 13 5
15 13 23 15 28 7 6 -9 10 -9 16 1 7 11 12 12 28 2 15 -10 20 -10 24 0 3 9 8 9
20 -2 13 -10 17 -10 17 -1 0 7 8 10 20 7 11 -3 20 -1 20 5 0 5 9 6 20 3 12 -4
20 -2 20 6 0 9 3 9 14 0 8 -7 17 -8 20 -3 3 5 31 8 61 7 30 -2 58 1 61 7 4 7
9 6 14 -3 6 -9 12 -9 25 4 20 20 27 21 43 5 10 -10 15 -10 22 2 7 11 12 12 21
3 9 -9 15 -8 27 4 11 10 17 12 20 4 4 -13 32 -15 32 -2 0 5 31 8 70 6 39 -1
70 2 70 7 0 4 7 8 15 8 8 0 15 -5 15 -12 0 -6 7 -3 15 8 13 16 16 17 25 4 9
-13 12 -13 24 3 15 19 36 23 36 6 0 -8 5 -8 15 1 8 7 22 9 31 6 8 -3 23 1 31
10 10 10 19 12 26 5 6 -6 16 -6 29 2 15 10 21 9 29 -3 9 -13 10 -13 6 2 -5 14
1 17 31 18 65 2 90 5 97 12 4 4 14 4 23 1 11 -5 13 -3 7 6 -5 10 -2 11 13 7
11 -4 23 -2 27 4 3 6 10 8 15 5 5 -3 11 -1 15 4 3 6 11 8 18 5 7 -2 21 7 31
21 18 23 20 24 32 7 7 -9 14 -12 14 -6 0 14 -60 74 -74 74 -6 0 -4 -5 4 -10
13 -8 12 -10 -2 -10 -10 0 -18 4 -18 9 0 10 -65 26 -92 23 -10 -1 -18 3 -18 9
0 6 -7 8 -16 5 -9 -3 -21 -3 -27 1 -12 7 -15 8 -82 17 -22 2 -42 6 -45 7 -6 2
-10 2 -74 13 -28 5 -72 9 -98 9 -26 1 -48 4 -48 8 0 4 -21 7 -47 8 -93 2 -138
6 -148 12 -5 3 -38 5 -73 4 -34 -1 -65 1 -68 6 -2 4 -12 5 -20 2 -9 -3 -20 0
-25 8 -6 11 -9 11 -9 1 0 -9 -5 -10 -19 -2 -26 13 -40 13 -21 -1 12 -9 11 -9
-5 -4 -11 4 -64 8 -117 9 -59 1 -102 7 -111 15 -12 9 -16 9 -19 -1 -4 -10 -9
-10 -19 -2 -8 6 -38 10 -67 9 -29 -1 -55 2 -58 6 -3 5 -16 4 -29 -1 -13 -5
-26 -6 -29 -2 -2 4 -23 7 -45 5 -22 -1 -43 3 -47 8 -4 6 -11 5 -21 -2 -10 -9
-17 -9 -21 -2 -4 6 -27 9 -52 8 -25 -2 -48 2 -52 8 -4 7 -12 6 -23 -3 -10 -8
-19 -10 -23 -4 -4 5 -17 9 -30 10 -17 0 -21 -4 -17 -15 4 -11 0 -9 -16 5 -16
14 -23 16 -26 6 -4 -10 -8 -10 -21 0 -12 11 -16 11 -20 0 -3 -10 -7 -10 -20 0
-12 11 -16 11 -20 0 -3 -10 -7 -10 -19 -1 -12 10 -16 10 -24 -2 -5 -8 -9 -9
-9 -3 0 7 -10 12 -22 11 -13 0 -32 3 -43 7 -16 6 -17 6 -5 -3 17 -12 4 -13
-25 -2 -11 5 -30 5 -42 0 -12 -5 -25 -4 -27 0 -3 5 -33 7 -66 6 -33 -1 -63 2
-66 7 -4 6 -10 5 -14 -3 -7 -10 -12 -10 -23 0 -11 8 -17 9 -22 1 -5 -8 -11 -8
-21 1 -11 9 -17 9 -29 -1 -10 -8 -15 -9 -15 -2 0 7 -14 9 -36 6 -20 -2 -43 1
-51 7 -10 9 -12 9 -8 -3 5 -11 -2 -14 -31 -11 -21 1 -41 8 -46 15 -5 8 -8 9
-8 2 0 -8 -29 -11 -89 -10 -51 0 -87 5 -84 10 4 5 0 5 -8 0 -16 -10 -411 -16
-405 -5 3 4 -4 7 -14 7 -10 0 -16 -4 -14 -8 3 -4 -7 -8 -21 -8 -18 0 -24 4
-19 13 5 7 1 7 -10 -2 -14 -12 -19 -12 -26 -2 -6 11 -9 11 -14 0 -5 -11 -7
-11 -12 -1 -5 10 -9 10 -22 0 -12 -11 -16 -11 -20 0 -3 10 -7 10 -20 0 -12
-11 -16 -11 -20 0 -3 9 -7 10 -17 2 -10 -8 -15 -8 -20 0 -5 8 -10 8 -20 0 -10
-8 -15 -8 -20 0 -5 8 -11 8 -21 -1 -11 -9 -14 -9 -14 0 0 7 -5 9 -12 5 -20
-12 -58 -14 -58 -2 0 7 -5 6 -14 -1 -10 -9 -16 -9 -21 -1 -5 8 -11 7 -23 -2
-12 -11 -16 -11 -20 0 -3 10 -7 10 -18 1 -11 -9 -17 -9 -28 0 -11 9 -15 9 -18
-1 -4 -10 -8 -10 -20 -1 -11 10 -17 10 -27 0 -11 -9 -14 -9 -18 1 -4 10 -8 10
-19 1 -11 -9 -17 -9 -28 0 -11 9 -15 9 -18 -1 -4 -11 -8 -11 -20 0 -13 10 -17
10 -21 0 -3 -10 -9 -11 -25 -1 -18 11 -20 10 -15 -4 5 -12 3 -14 -8 -7 -18 11
-359 12 -366 1 -3 -4 -12 -2 -21 5 -12 11 -16 11 -20 0 -3 -10 -7 -10 -17 -2
-10 8 -20 8 -33 1 -14 -7 -25 -6 -40 5 -12 8 -22 11 -22 6 0 -6 -16 -12 -35
-14 -19 -2 -35 -1 -35 3 0 3 14 24 31 45 61 77 80 145 41 144 -47 -2 -123 -62
-183 -144 -18 -26 -35 -46 -39 -46 -3 0 3 44 15 97 12 54 22 111 21 128 -1 26
-5 30 -30 30 -42 0 -65 -38 -84 -138 -9 -48 -19 -87 -22 -87 -3 0 -16 16 -29
36 -28 41 -87 84 -114 84 -32 0 -30 -28 8 -89 20 -33 37 -64 38 -68 1 -4 -57
-8 -129 -8 -71 -1 -135 -5 -142 -9 -6 -4 -20 -2 -30 3 -14 7 -25 6 -40 -5 -20
-14 -21 -13 -15 3 7 17 6 17 -19 1 -18 -12 -28 -14 -30 -6 -3 8 -10 7 -27 -2
-18 -9 -22 -9 -16 0 6 9 2 9 -14 1 -12 -7 -25 -10 -29 -7 -5 3 -25 1 -45 -4
-34 -7 -37 -6 -37 15 0 13 4 26 9 30 5 3 12 19 16 35 4 17 24 49 46 73 21 23
39 50 39 59 0 9 13 24 29 34 32 19 61 63 70 107 5 22 15 33 41 43 182 69 228
89 287 121 152 82 311 202 460 346 l92 89 98 -10 c132 -14 335 -7 399 12 66
20 97 56 166 191 52 103 85 194 122 340 l33 130 39 1 c43 1 222 -20 227 -27 2
-2 11 -30 21 -61 48 -156 182 -297 337 -354 132 -48 297 -65 401 -40 112 26
266 113 340 192 14 16 44 58 66 94 47 80 101 119 215 155 107 35 175 68 238
115 l51 38 61 -38 c204 -123 460 -224 648 -255 19 -3 45 -7 59 -10 112 -20
403 -22 535 -4 328 44 666 193 929 408 191 157 370 390 481 624 75 159 135
358 161 527 24 160 28 456 9 580 -38 233 -80 388 -155 566 -162 385 -422 689
-766 896 -262 158 -554 238 -879 241 -221 3 -351 -12 -525 -59 -52 -13 -99
-26 -105 -27 -5 -2 -14 -5 -20 -8 -5 -4 -28 -12 -50 -19 -106 -33 -393 -191
-468 -258 -10 -9 -21 -12 -26 -6 -4 5 -21 59 -36 119 l-28 110 43 110 c44 115
93 291 105 385 4 30 9 64 11 75 3 11 7 75 11 143 l6 122 57 88 c65 101 160
269 185 327 70 163 131 335 141 395 3 14 9 39 14 55 34 117 59 317 55 440 -4
118 -27 190 -81 253 -77 91 -177 124 -349 116 -108 -4 -123 -6 -207 -19 -116
-18 -371 -92 -451 -131 l-37 -18 -53 50 c-28 28 -74 68 -102 90 -27 21 -52 42
-55 45 -12 14 -201 139 -277 183 -84 48 -271 135 -353 163 -82 28 -284 83
-305 83 -41 0 -54 22 -75 130 -12 58 -23 115 -26 128 -19 95 -79 213 -137 272
-23 24 -69 56 -102 72 -53 25 -69 28 -145 26 -47 -1 -94 -3 -105 -5z m231
-143 c125 -102 183 -338 200 -810 3 -102 8 -189 11 -193 7 -11 33 12 33 29 0
8 4 14 9 14 10 0 46 96 57 150 4 19 6 70 5 113 -1 90 -7 87 112 56 297 -75
605 -238 872 -460 126 -104 334 -341 429 -489 34 -52 144 -267 168 -325 86
-216 138 -494 138 -741 0 -225 -41 -429 -131 -655 l-53 -131 18 -47 c29 -75
64 -197 71 -244 7 -43 5 -46 -35 -83 -96 -89 -360 -436 -360 -474 0 -17 -234
-127 -342 -161 -127 -39 -277 -75 -353 -84 -33 -4 -91 -10 -130 -15 -107 -12
-383 -12 -365 0 8 5 22 10 30 10 36 0 145 63 194 113 78 78 117 161 171 364
37 138 36 137 110 111 177 -60 406 40 495 218 31 62 37 148 15 213 -23 70 -41
66 -50 -11 -15 -129 -85 -228 -201 -284 -63 -30 -84 -35 -144 -35 -130 0 -247
78 -305 204 -33 70 -32 113 4 155 l29 34 55 -12 c142 -32 341 60 417 193 l28
50 59 2 c100 4 175 61 212 160 39 104 14 222 -64 300 -117 116 -309 79 -377
-73 -11 -24 -20 -56 -20 -72 -1 -17 -2 -30 -3 -30 -1 0 -37 16 -80 35 -185 85
-353 97 -424 32 -112 -103 -60 -363 105 -523 l42 -40 -32 -26 c-83 -66 -180
-93 -305 -85 -214 14 -389 138 -493 349 -40 80 -90 243 -77 250 2 2 22 12 43
23 22 11 39 25 39 30 0 20 -49 35 -113 35 -51 0 -78 -6 -125 -29 -60 -28 -120
-84 -109 -102 3 -5 36 -9 73 -9 l68 0 13 -47 c22 -82 69 -192 151 -361 140
-283 159 -370 139 -618 -10 -122 -10 -164 0 -206 28 -120 107 -228 201 -276
l44 -23 -40 7 c-98 15 -326 83 -500 149 -194 73 -398 175 -605 303 -240 150
-407 323 -568 592 -77 128 -182 342 -252 510 -85 205 -87 213 -16 93 55 -94
116 -166 133 -155 7 5 -5 31 -39 82 -88 132 -268 528 -268 590 0 8 30 31 66
50 l66 35 -28 11 c-27 11 -27 12 32 29 32 10 68 19 79 21 11 2 45 9 75 14 30
6 69 13 85 16 17 3 111 8 210 11 99 3 181 7 183 8 2 2 -11 18 -28 36 -29 29
-57 79 -67 119 -9 36 -2 170 12 224 32 123 103 248 209 369 l64 74 -10 44
c-15 65 -3 202 26 304 14 50 31 98 36 107 6 10 10 22 10 28 0 6 29 71 64 144
63 129 217 375 274 433 15 16 38 42 52 57 l25 28 -54 -31 c-261 -154 -525
-400 -721 -676 -74 -104 -68 -95 -156 -240 -37 -60 -87 -149 -112 -197 -50
-96 -86 -147 -98 -136 -4 5 -1 27 7 50 7 24 14 48 15 53 4 32 121 274 167 345
260 404 682 778 1095 972 144 68 216 88 302 86 64 -3 81 -7 106 -28z m2382
-1062 c109 -33 151 -146 130 -353 -28 -292 -145 -626 -316 -907 -36 -60 -62
-80 -39 -30 7 15 25 54 41 87 78 167 102 228 141 355 13 43 13 44 -3 24 -24
-31 -56 -88 -54 -96 1 -5 -5 -8 -13 -8 -8 0 -15 -6 -15 -13 0 -8 -9 -22 -21
-32 l-20 -19 20 44 c10 25 30 70 44 100 64 144 127 392 127 501 0 130 -27 166
-114 157 -59 -7 -194 -72 -273 -132 l-63 -47 -25 25 c-14 14 -25 28 -25 31 0
4 -12 19 -27 35 -16 15 -45 48 -65 73 l-38 45 -59 -18 -60 -18 -22 24 c-12 13
-21 26 -18 28 31 28 296 112 409 130 221 36 280 38 358 14z m-53 -368 c-1 -84
-8 -123 -47 -250 -24 -78 -92 -238 -128 -300 -14 -25 -31 -57 -39 -72 -15 -29
-31 -28 -31 2 0 32 -59 196 -108 300 -52 111 -53 108 26 186 79 79 152 137
237 189 85 51 90 47 90 -55z m-4120 -20 c-27 -88 -25 -110 6 -71 10 13 19 19
19 13 0 -6 -6 -17 -13 -24 -6 -7 -31 -42 -54 -78 -24 -36 -46 -70 -50 -75 -28
-38 -156 -293 -156 -311 0 -8 -5 -15 -11 -16 -6 0 11 -4 39 -7 l50 -6 -110
-44 c-168 -67 -170 -71 -41 -71 75 0 107 -3 104 -11 -7 -21 -85 -57 -204 -94
-65 -20 -121 -39 -123 -41 -3 -2 4 -11 15 -20 16 -13 17 -15 2 -10 -36 11 -12
-53 85 -233 32 -57 55 -106 53 -108 -2 -2 -20 15 -40 38 -31 37 -36 40 -36 21
0 -13 14 -50 31 -83 34 -68 32 -84 -6 -49 -31 29 -32 18 -6 -68 39 -127 135
-345 205 -465 16 -26 23 -47 18 -47 -14 0 -134 79 -149 98 -20 25 -108 255
-147 384 -34 111 -62 246 -53 254 2 3 16 -14 31 -36 44 -67 47 -45 5 46 -47
101 -102 266 -97 290 2 11 28 27 75 44 87 31 98 40 50 40 -60 0 -45 26 52 88
131 83 131 84 104 77 -30 -8 -29 1 4 83 41 105 101 218 170 325 62 97 192 261
200 253 3 -2 -7 -41 -22 -86z m3154 -1369 c67 -62 15 -169 -67 -140 -64 22
-85 110 -36 148 36 29 66 26 103 -8z m-524 -90 c133 -47 256 -121 285 -173 26
-47 24 -93 -5 -93 -14 0 -22 10 -30 38 -6 20 -26 52 -45 70 -45 43 -180 105
-270 123 -63 13 -73 13 -92 -1 -30 -20 -35 -19 -54 10 -14 21 -14 28 -3 41 18
22 132 14 214 -15z m-3644 -186 c138 -40 262 -91 420 -171 135 -69 224 -126
233 -150 12 -31 7 -188 -9 -286 -15 -96 -56 -232 -79 -263 -12 -17 -14 -17
-42 2 -40 27 -115 75 -139 89 -40 22 -181 98 -230 123 -27 14 -53 30 -56 34
-3 4 -10 7 -15 5 -5 -1 -35 10 -66 25 -32 15 -71 30 -88 33 -16 4 -35 13 -41
20 -18 22 -27 8 -23 -38 4 -39 0 -45 -47 -91 -28 -27 -73 -59 -99 -71 -27 -13
-56 -28 -63 -35 -12 -9 -32 -5 -98 21 -209 82 -319 284 -264 487 20 77 39 112
89 168 49 54 134 104 217 128 89 25 250 13 400 -30z m5659 -334 c0 -6 -4 -13
-10 -16 -26 -16 -8 -27 33 -21 23 4 60 9 82 12 22 3 56 10 75 15 60 17 355 19
455 4 146 -23 159 -25 190 -36 17 -6 40 -13 53 -15 34 -7 246 -101 249 -111 2
-5 -19 -30 -46 -57 l-48 -48 -104 17 c-125 20 -392 22 -494 4 -96 -17 -115
-15 -181 21 -31 16 -64 30 -73 30 -23 0 -83 -39 -76 -49 3 -5 27 -17 53 -27
60 -23 122 -63 122 -80 0 -7 -24 -70 -54 -141 -57 -137 -150 -374 -161 -410
-6 -22 -30 -32 -111 -47 -30 -5 -37 1 -132 112 -129 151 -185 204 -203 197
-16 -7 -137 -151 -217 -259 -48 -63 -192 -296 -192 -309 0 -2 -21 -49 -46
-103 -42 -88 -114 -281 -114 -304 0 -5 35 -11 78 -14 42 -4 121 -11 174 -17
l97 -11 77 -122 c43 -66 131 -201 196 -300 l119 -179 -20 -91 c-41 -183 -70
-332 -76 -392 l-7 -60 157 -190 158 -189 -22 -40 c-13 -22 -45 -84 -73 -139
l-50 -98 -41 6 c-72 12 -289 108 -365 162 -2 1 32 37 75 81 97 97 143 182 148
275 3 42 -1 71 -12 92 -11 20 -16 64 -18 140 -3 129 -15 186 -59 276 -37 78
-44 88 -121 166 -130 133 -274 195 -455 198 l-95 1 -7 50 c-3 28 -7 92 -7 143
l-1 93 -48 -63 c-42 -54 -76 -77 -84 -57 -2 3 28 47 66 99 55 74 71 103 77
143 5 28 6 53 3 56 -6 6 -67 -57 -157 -161 l-58 -67 -36 25 c-20 13 -40 24
-45 24 -5 0 -8 65 -7 148 3 279 83 544 252 830 91 154 158 240 274 352 113
109 121 115 217 180 164 110 326 189 491 240 137 42 155 46 155 31z m-4854
-142 c6 -49 -41 -269 -57 -269 -6 0 -7 14 -4 33 12 62 14 93 14 217 l1 125 21
-32 c11 -17 22 -51 25 -74z m6150 -125 c57 -39 150 -113 200 -160 7 -6 25 -21
40 -35 54 -46 171 -184 225 -264 78 -116 152 -274 189 -402 34 -117 35 -145 1
-136 -19 5 -48 -14 -294 -194 l-72 -53 -158 158 c-87 86 -162 164 -167 173 -6
10 10 91 46 234 30 121 54 230 54 244 0 38 -61 128 -197 291 -35 41 -63 79
-63 83 0 16 93 107 110 107 9 0 47 -21 86 -46z m-5877 -68 c145 -118 277 -253
411 -421 155 -194 239 -292 321 -372 90 -87 133 -123 148 -123 6 0 11 -4 11
-9 0 -16 221 -118 311 -145 143 -41 201 -49 326 -44 164 7 274 48 354 132 30
32 46 33 54 4 3 -13 10 -32 15 -43 23 -51 57 -199 131 -570 11 -55 24 -117 30
-138 5 -20 7 -42 4 -47 -9 -14 -64 26 -77 56 -6 13 -34 36 -63 51 -28 15 -69
38 -91 49 -72 40 -274 102 -274 84 0 -9 134 -70 154 -70 7 0 30 -11 50 -25 20
-14 41 -25 46 -25 6 0 10 -4 10 -10 0 -13 -1 -13 -78 10 -112 33 -255 49 -412
46 -80 -2 -153 -7 -162 -11 -11 -4 -18 -3 -18 5 0 6 -5 8 -10 5 -6 -3 -50 -8
-98 -9 -48 -2 -112 -10 -142 -19 -30 -9 -66 -18 -80 -21 -145 -30 -196 -42
-201 -50 -4 -5 -11 -6 -17 -2 -15 9 -43 -4 -35 -17 3 -5 2 -7 -4 -4 -12 8 -73
-14 -73 -26 0 -4 -4 -6 -9 -3 -5 3 -36 -8 -70 -25 -35 -17 -71 -29 -82 -26
-10 3 -17 2 -15 -2 8 -12 -30 -30 -44 -21 -8 5 -22 4 -32 -1 -28 -15 -21 -1
12 28 33 28 40 46 13 36 -16 -6 -16 -4 1 15 18 20 167 112 182 112 3 0 56 24
118 54 61 30 143 64 182 74 40 11 80 24 90 30 11 5 44 15 74 22 30 6 70 16 89
22 32 10 33 12 16 24 -12 9 -48 14 -104 14 -193 0 -415 -46 -591 -123 l-105
-46 -3 57 c-2 31 1 80 7 107 6 28 13 68 16 90 11 77 14 90 32 151 10 33 30 76
45 95 15 19 28 37 28 41 0 4 22 28 48 52 49 46 119 136 106 136 -5 0 -40 -21
-78 -47 -76 -51 -116 -75 -210 -124 -48 -25 -68 -30 -105 -27 -80 8 -346 150
-554 295 l-77 55 22 18 c23 18 24 18 131 -56 59 -41 109 -74 111 -74 3 0 43
-22 89 -49 78 -45 191 -101 275 -138 30 -12 32 -16 20 -31 -11 -15 -11 -15 2
-5 8 6 66 37 128 70 133 68 145 74 166 92 22 19 20 41 -4 41 -38 0 -250 93
-259 113 -4 9 -52 31 -63 29 -5 -1 -8 5 -8 13 0 9 -9 15 -25 15 -16 0 -25 6
-25 15 0 8 -6 15 -13 15 -7 0 -22 8 -33 19 -11 10 -29 21 -40 25 -10 3 -35 21
-55 38 -20 18 -51 44 -69 58 -18 14 -40 33 -49 43 -9 11 -27 23 -40 28 -13 5
-21 15 -17 22 75 166 105 279 109 407 1 44 4 80 6 80 2 0 56 -42 120 -94z
m5511 -6 c104 -21 86 -8 201 -141 26 -30 70 -87 97 -127 44 -65 50 -78 45
-110 -4 -20 -13 -47 -21 -62 -13 -23 -13 -23 -9 -2 3 12 2 22 -2 22 -4 0 -7
10 -7 23 1 14 -4 21 -13 19 -9 -2 -11 3 -7 14 7 18 -11 47 -25 38 -5 -3 -9 6
-9 20 0 14 -4 28 -10 31 -5 3 -10 0 -10 -7 0 -14 -39 31 -40 45 0 5 -18 25
-40 44 -22 20 -37 39 -35 43 3 4 -3 7 -13 6 -12 -1 -16 5 -14 19 2 16 1 17 -7
6 -6 -10 -14 -12 -23 -5 -7 5 -31 16 -53 23 -22 7 -48 20 -57 28 -9 8 -21 12
-26 9 -5 -3 -18 1 -28 9 -22 17 -64 20 -64 5 0 -7 -7 -7 -21 0 -11 7 -23 9
-26 6 -3 -3 -14 -1 -24 5 -11 5 -19 6 -19 1 0 -11 -110 -10 -127 1 -9 5 -13 3
-13 -7 0 -19 -12 -20 -28 -4 -10 10 -15 10 -22 -2 -7 -11 -12 -12 -21 -3 -7 7
-24 9 -42 6 -27 -6 -28 -4 -18 15 15 28 63 42 178 50 135 10 241 4 353 -18z
m-3469 -46 c69 -43 100 -98 108 -192 7 -86 18 -82 41 16 26 111 143 131 199
32 11 -21 21 -53 21 -72 0 -93 -96 -284 -172 -341 -71 -55 -188 -88 -188 -54
0 7 -22 20 -49 30 -50 17 -122 80 -146 127 -25 48 -35 143 -34 312 2 191 -6
178 104 174 58 -2 78 -7 116 -32z m-3436 -64 c3 -5 2 -10 -4 -10 -5 0 -13 5
-16 10 -3 6 -2 10 4 10 5 0 13 -4 16 -10z m6482 -16 c12 -19 11 -24 -5 -44
-25 -31 -69 -21 -78 17 -13 49 53 71 83 27z m-6178 -45 c49 -30 230 -147 261
-169 14 -11 55 -38 92 -62 37 -24 67 -45 67 -48 0 -3 -9 -16 -20 -30 -24 -28
1 -40 -221 107 -84 56 -198 131 -253 167 l-99 65 68 -4 c46 -3 80 -12 105 -26z
m5456 -416 c36 -40 55 -69 51 -78 -6 -18 -36 -20 -36 -3 0 6 -23 45 -50 85
-58 86 -47 84 35 -4z m-4966 31 c-11 -14 -10 -19 11 -36 14 -12 34 -18 47 -15
29 5 38 -6 18 -23 -18 -15 -41 -7 -85 30 -33 29 -33 30 -15 45 27 19 41 19 24
-1z m5389 -187 c245 -167 474 -332 479 -343 6 -16 -48 -307 -86 -469 -16 -66
-32 -137 -35 -157 -4 -21 -12 -38 -19 -38 -18 0 -247 -28 -287 -35 -19 -3 -71
-12 -115 -20 -44 -8 -96 -17 -115 -20 -84 -14 -152 -26 -165 -31 -17 -7 -122
145 -323 469 l-55 88 25 27 c13 15 65 81 115 147 102 137 268 359 298 399 19
27 92 53 153 55 14 1 68 -30 130 -72z m-1626 -48 c-9 -38 -32 -47 -62 -26 -21
14 -20 15 22 39 24 14 44 24 46 22 2 -1 -1 -17 -6 -35z m-139 -122 c82 -53 82
-55 64 -145 -20 -97 -25 -133 -37 -255 -6 -71 -14 -105 -26 -118 -40 -44 -106
-72 -234 -100 -44 -10 -62 -13 -128 -25 -18 -3 -99 -7 -178 -9 l-145 -4 18 32
c22 37 5 35 333 39 127 2 175 6 175 15 0 6 -32 46 -72 88 -94 98 -150 125
-264 125 l-81 0 7 68 c4 37 7 110 6 163 l-1 96 67 6 c103 10 214 32 248 50 30
16 104 24 153 15 23 -4 66 -23 95 -41z m2923 -147 l166 -175 -7 -120 c-4 -66
-8 -122 -10 -125 -1 -3 -6 -32 -9 -65 -9 -75 -33 -225 -47 -286 -10 -47 -10
-47 -97 -84 -114 -50 -335 -143 -391 -165 l-44 -17 -82 86 c-189 200 -217 233
-210 255 3 12 19 84 35 161 16 77 41 196 56 265 15 69 27 160 28 202 l1 77
210 85 c116 47 216 84 223 83 6 -1 87 -81 178 -177z m-3743 83 c4 -2 7 -33 7
-67 0 -87 -13 -96 -76 -51 -27 19 -57 35 -66 35 -16 0 -23 11 -15 25 1 2 -5
10 -14 17 -10 7 -20 23 -24 36 l-7 24 94 -7 c51 -4 96 -9 101 -12z m131 -25
c19 -100 19 -107 -2 -101 -23 5 -40 42 -43 88 -2 43 -1 45 20 45 13 0 21 -10
25 -32z m4225 -19 c53 -58 91 -202 91 -350 0 -91 -10 -115 -16 -42 -5 48 -8
66 -15 78 -4 6 -12 34 -19 63 -6 28 -16 55 -21 58 -5 3 -7 9 -4 14 3 4 -2 10
-10 14 -9 3 -12 12 -8 22 5 13 3 16 -10 11 -13 -5 -17 -1 -17 16 -1 20 -2 21
-14 4 -9 -11 -20 -15 -31 -10 -14 5 -17 3 -12 -10 4 -11 2 -14 -9 -10 -7 3
-14 0 -14 -7 0 -7 -7 -10 -15 -6 -8 3 -15 1 -15 -4 0 -6 -7 -10 -15 -10 -8 0
-15 -3 -15 -8 0 -8 -56 -35 -84 -39 -11 -2 -25 -8 -32 -14 -8 -7 -14 -7 -19 1
-3 6 -11 8 -16 5 -5 -3 -6 1 -3 9 3 8 61 56 129 106 67 50 131 100 140 111 23
24 30 24 54 -2z m-6570 -301 c-15 -214 -21 -281 -33 -378 -3 -19 -9 -84 -15
-145 -6 -60 -13 -120 -15 -132 -3 -11 -7 -83 -10 -158 -5 -123 -8 -140 -32
-181 -43 -73 -47 -67 -40 45 4 56 9 119 11 139 8 68 16 156 21 217 2 33 11
110 19 170 20 153 54 466 59 550 2 39 4 78 5 88 1 11 9 17 24 17 l23 0 -17
-232z m-686 -171 c118 -43 224 -130 281 -233 35 -62 67 -166 71 -228 13 -220
-145 -419 -344 -434 -133 -9 -241 46 -295 151 -25 48 -30 72 -32 140 -1 45 -3
84 -3 86 -3 11 -46 -39 -64 -74 -83 -160 83 -396 312 -444 30 -6 70 -21 88
-32 63 -39 128 -69 150 -69 12 0 25 -5 28 -10 4 -6 11 -8 16 -5 5 4 15 3 21
-1 14 -9 36 -12 91 -15 20 -1 37 -4 37 -8 0 -10 -162 -99 -194 -106 -6 -1 -18
-5 -26 -8 -47 -18 -155 -33 -225 -31 -175 5 -292 56 -426 183 -40 39 -77 67
-82 64 -6 -4 -8 1 -4 12 8 20 -10 48 -25 39 -5 -3 -8 0 -7 7 3 21 -12 69 -22
69 -5 0 -9 9 -9 19 0 11 -4 22 -9 26 -5 3 -12 31 -16 63 -3 31 -10 65 -15 74
-6 10 -10 29 -10 42 0 14 -4 27 -9 31 -6 3 -11 -19 -13 -51 l-3 -57 -29 54
-28 54 5 -65 c7 -84 47 -194 103 -284 24 -38 42 -72 40 -74 -6 -5 -62 35 -103
72 -43 39 -42 22 4 -56 76 -131 200 -266 283 -308 35 -18 60 -40 45 -40 -3 0
-31 12 -61 26 -77 36 -79 23 -2 -19 124 -69 291 -132 378 -144 73 -9 271 -11
302 -3 18 5 51 11 73 14 42 5 68 13 139 46 25 11 47 20 50 20 2 0 28 14 56 32
49 30 51 31 65 12 20 -27 20 -29 -27 -67 -101 -80 -210 -122 -373 -144 -27 -4
-99 -6 -160 -6 -239 1 -447 87 -616 254 -122 121 -211 272 -255 434 -27 100
-27 370 0 470 94 350 361 564 687 550 67 -3 114 -11 162 -28z m2937 -36 c0 -5
-7 -14 -15 -21 -16 -14 -18 -10 -9 14 6 17 24 22 24 7z m989 -25 c10 -12 8
-26 -6 -66 -17 -49 -18 -50 -24 -23 -12 53 -10 103 5 103 7 0 19 -6 25 -14z
m-144 -231 c8 -38 17 -80 21 -92 4 -16 2 -23 -8 -23 -28 0 -87 -51 -105 -91
-13 -31 -28 -47 -58 -60 -22 -10 -49 -25 -60 -33 -18 -14 -27 -10 -110 45
-111 75 -259 147 -385 188 -52 17 -100 31 -107 31 -16 0 -29 25 -37 71 l-6 35
182 0 c101 -1 216 2 256 6 96 10 241 48 322 85 l65 30 8 -61 c5 -34 15 -92 22
-131z m-1455 66 l45 -6 -50 -29 c-27 -16 -59 -37 -70 -46 -11 -10 -36 -26 -55
-37 -76 -41 -120 -75 -191 -145 -51 -52 -64 -61 -44 -33 40 56 70 92 125 152
59 63 63 70 44 70 -8 0 -32 -16 -54 -34 -36 -31 -58 -35 -28 -5 9 9 9 12 0 12
-6 0 -9 7 -5 15 4 13 -2 15 -38 9 -70 -10 -222 -51 -290 -78 -34 -15 -67 -26
-73 -26 -16 1 95 70 122 76 12 4 22 11 22 16 0 13 -64 2 -170 -28 -164 -48
-180 -52 -180 -48 0 6 107 58 170 82 69 27 200 59 310 77 88 14 332 17 410 6z
m2111 -143 c96 -35 152 -72 222 -141 64 -64 119 -160 132 -229 12 -63 -16 -46
-50 30 -35 79 -133 183 -198 212 -23 10 -45 18 -48 17 -3 -1 -13 4 -22 12 -14
11 -17 11 -17 0 0 -12 -2 -12 -9 -1 -4 8 -27 15 -49 16 -23 1 -44 5 -48 9 -4
3 -15 2 -25 -3 -10 -6 -20 -6 -23 -1 -3 5 -29 7 -58 5 -29 -2 -89 -5 -133 -6
-62 -1 -95 -8 -147 -29 -36 -15 -69 -24 -73 -21 -3 4 -10 0 -15 -8 -8 -12 -10
-9 -10 11 0 44 115 114 240 144 88 21 251 13 331 -17z m-1801 7 c94 -15 150
-32 150 -46 0 -4 -20 -20 -45 -35 -145 -84 -268 -323 -277 -534 l-3 -75 -50 2
c-45 2 -139 9 -190 16 -12 1 -19 9 -19 20 1 9 -2 17 -7 17 -18 0 -1 197 21
255 4 11 18 49 30 85 12 36 35 86 51 113 16 26 29 51 29 55 0 14 84 105 114
123 37 23 82 23 196 4z m3241 -19 c19 -18 43 -44 53 -57 11 -13 46 -53 79 -89
72 -79 128 -150 103 -130 -11 8 -83 77 -160 152 -101 98 -148 138 -166 138
-23 1 -23 2 -5 10 37 16 62 10 96 -24z m-4251 -36 c0 -5 -5 -10 -11 -10 -5 0
-7 5 -4 10 3 6 8 10 11 10 2 0 4 -4 4 -10z m1418 -56 c183 -68 385 -185 367
-213 -3 -6 -20 -17 -38 -26 -65 -31 -158 -137 -224 -256 -151 -271 -223 -448
-223 -550 l0 -31 -47 6 c-108 15 -113 18 -149 61 -66 79 -131 223 -148 330 -4
22 -9 49 -10 60 -30 170 -2 315 89 455 48 74 139 164 187 185 51 22 91 18 196
-21z m3773 -71 c41 -43 92 -100 114 -128 22 -27 50 -61 63 -75 12 -14 22 -31
22 -38 0 -16 -87 -295 -103 -330 -17 -36 -253 -184 -470 -295 l-109 -55 -151
85 c-84 47 -153 86 -155 88 -2 2 11 36 28 76 48 107 109 288 144 422 l31 119
130 53 c72 29 182 76 245 104 63 28 120 51 126 51 6 0 45 -35 85 -77z m-3015
35 c-3 -18 -8 -62 -12 -97 -8 -80 -27 -113 -63 -109 -24 3 -26 7 -29 55 -2 36
4 68 19 105 24 58 43 78 72 78 16 0 18 -5 13 -32z m-161 -214 c-4 -107 -18
-154 -49 -154 -28 0 -39 29 -33 89 7 82 48 170 78 171 4 0 5 -48 4 -106z
m3526 -66 c-55 -104 -141 -247 -141 -234 0 4 14 48 30 98 17 49 30 97 30 106
0 15 120 136 127 128 2 -2 -18 -46 -46 -98z m-3641 76 c0 -8 -30 -103 -46
-146 -7 -20 -10 -40 -5 -42 14 -9 20 -46 8 -43 -6 1 -13 -9 -15 -22 -2 -15 0
-21 7 -17 6 4 11 2 11 -3 0 -6 -4 -11 -10 -11 -5 0 -10 -6 -10 -14 0 -15 -21
-26 -50 -26 -27 0 -33 57 -15 134 16 72 67 181 87 189 18 7 38 8 38 1z m1270
-90 c0 -8 -4 -12 -10 -9 -5 3 -10 10 -10 16 0 5 5 9 10 9 6 0 10 -7 10 -16z
m-1441 -77 c-5 -18 -20 -65 -34 -105 -14 -39 -25 -83 -25 -97 0 -34 -25 -81
-46 -89 -71 -27 -16 202 69 292 39 41 48 41 36 -1z m1415 -108 c46 -22 71 -64
70 -116 -1 -63 -25 -81 -66 -51 -89 63 -326 -68 -570 -314 -65 -66 -118 -116
-118 -111 0 4 -24 -15 -52 -43 -29 -28 -93 -78 -143 -110 -84 -55 -202 -138
-258 -180 -30 -23 -43 -32 -136 -94 -70 -47 -75 -48 -105 -36 -47 19 -46 48 4
82 197 136 372 285 575 490 167 168 286 273 415 368 154 113 300 157 384 115z
m-4094 -76 c0 -51 70 -218 130 -312 61 -95 171 -202 267 -259 155 -91 309
-132 611 -160 74 -7 82 -6 82 9 0 10 -4 21 -10 24 -5 3 -10 11 -10 17 0 6 10
-2 22 -18 12 -15 38 -43 58 -62 l35 -34 -180 6 c-99 4 -191 8 -205 10 -14 3
-42 7 -63 10 -86 12 -265 70 -334 108 -111 61 -125 72 -202 149 -100 99 -181
227 -226 357 -31 88 -34 139 -10 175 22 34 35 26 35 -20z m5385 -345 c50 -28
118 -66 152 -85 l63 -34 -16 -37 c-9 -20 -18 -43 -21 -49 -3 -7 -6 -13 -8 -13
-1 0 -56 -14 -121 -31 -196 -51 -259 -59 -479 -55 -110 2 -209 6 -220 8 -11 3
-42 9 -70 12 -27 4 -69 12 -93 18 l-42 10 31 57 c18 31 48 85 67 121 19 36 40
70 46 76 6 7 94 16 211 23 312 18 380 23 384 27 10 9 31 1 116 -48z m-3667
-41 c39 -1 72 -6 72 -11 0 -5 6 -4 13 1 23 17 103 7 131 -18 31 -27 32 -34 9
-35 -86 -4 -267 -16 -284 -19 -12 -3 -66 -7 -120 -11 l-98 -6 -21 42 c-33 66
-29 68 107 63 65 -2 151 -5 191 -6z m711 -316 c31 -66 115 -151 173 -176 55
-24 53 -22 38 -39 -10 -14 -16 -13 -48 3 -96 49 -192 179 -207 278 -5 35 -4
36 6 13 7 -14 23 -49 38 -79z m-2301 -36 c12 -19 22 -38 22 -42 -1 -5 -23 -32
-49 -61 l-48 -53 -21 42 -21 42 32 40 c18 21 36 45 42 53 14 20 17 18 43 -21z
m1668 -23 c-21 -77 -67 -191 -84 -205 -10 -8 -9 0 5 28 11 22 30 72 42 110 26
84 43 127 47 122 2 -1 -3 -26 -10 -55z m-408 2 c87 -6 166 -20 132 -24 -43 -5
-104 -9 -189 -10 -90 -2 -94 -1 -120 25 l-26 27 55 -6 c30 -3 97 -9 148 -12z
m-1403 -151 c59 -173 239 -402 400 -513 27 -18 86 -50 132 -70 46 -21 86 -40
89 -43 11 -10 -153 -98 -283 -151 l-61 -25 -74 32 c-128 56 -191 97 -274 181
-85 85 -147 189 -159 264 -3 20 -10 45 -16 54 -5 10 -9 35 -9 57 0 37 7 46
113 150 61 61 115 111 119 111 3 0 14 -21 23 -47z m-325 -233 c0 -19 -73 -76
-147 -114 -39 -20 -43 -20 -43 -1 0 24 60 85 109 110 57 30 81 31 81 5z m1190
-68 c0 -4 23 -9 52 -10 29 -1 57 -7 62 -12 21 -21 -237 -240 -281 -240 -10 0
-40 13 -67 29 l-49 29 33 7 c20 4 34 15 37 26 3 10 11 19 18 19 7 0 15 9 18
20 3 13 10 18 21 14 12 -5 15 -2 10 10 -5 12 0 19 15 23 11 3 21 12 21 19 0 8
9 14 20 14 11 0 20 5 20 11 0 5 4 7 10 4 6 -3 7 1 4 9 -3 9 -1 16 5 16 6 0 11
-5 11 -11 0 -5 4 -8 10 -4 5 3 7 12 3 20 -3 9 1 15 11 15 9 0 16 -4 16 -8z
m-1434 -65 c-48 -107 -81 -266 -127 -617 -29 -215 37 -396 177 -489 55 -36 53
-39 -8 -12 -85 39 -144 110 -185 222 -24 67 -27 87 -27 204 1 76 8 169 18 225
9 52 19 109 22 125 3 17 7 37 9 45 2 8 7 29 9 45 11 64 44 182 60 217 17 35
59 88 70 88 3 0 -6 -24 -18 -53z m409 -280 c33 -33 55 -88 55 -139 0 -55 125
-148 218 -163 17 -3 48 -7 67 -10 42 -7 48 -35 10 -55 -92 -49 -365 103 -391
219 -4 14 -17 42 -29 61 -36 54 -39 76 -16 99 29 29 48 26 86 -12z m-46 -249
c73 -78 147 -123 245 -150 60 -17 76 -25 76 -40 0 -71 -184 -27 -313 74 -44
35 -97 109 -97 135 0 16 17 43 27 43 2 0 30 -28 62 -62z m387 5 c-10 -10 -19
5 -10 18 6 11 8 11 12 0 2 -7 1 -15 -2 -18z m-431 -148 c53 -44 141 -87 223
-110 44 -13 62 -22 62 -34 0 -60 -90 -52 -234 21 -114 57 -150 97 -124 137 17
28 23 27 73 -14z m-925 -385 c0 -5 -2 -10 -4 -10 -3 0 -8 5 -11 10 -3 6 -1 10
4 10 6 0 11 -4 11 -10z"/>
<path d="M4777 9780 c-77 -23 -262 -188 -368 -330 -114 -151 -239 -379 -309
-560 -53 -138 -60 -153 -102 -208 -42 -54 -45 -81 -5 -45 53 47 251 153 369
197 60 23 240 70 303 80 125 19 301 25 344 11 38 -12 23 19 -23 46 l-43 27 13
63 c8 39 14 131 14 232 0 251 -44 441 -111 481 -30 18 -41 18 -82 6z m65 -122
c17 -27 35 -90 47 -173 10 -62 8 -284 -3 -369 -11 -82 -7 -80 -163 -82 -153
-1 -281 -24 -392 -69 -35 -14 -65 -24 -67 -22 -4 4 63 141 113 232 92 166 237
350 357 454 65 56 87 62 108 29z"/>
<path d="M4784 7861 c-136 -35 -216 -133 -215 -264 0 -78 10 -111 54 -179 39
-62 94 -109 164 -140 67 -31 182 -31 238 -1 113 60 164 162 145 291 -11 83
-40 140 -101 201 -74 75 -197 114 -285 92z m241 -165 c36 -15 65 -59 65 -99 0
-33 -43 -77 -75 -77 -41 0 -82 26 -94 60 -14 41 5 100 39 117 31 16 24 16 65
-1z"/>
<path d="M7306 8103 c-6 -14 -5 -15 5 -6 7 7 10 15 7 18 -3 3 -9 -2 -12 -12z"/>
<path d="M7415 6315 c-27 -14 -72 -49 -100 -79 -27 -30 -90 -84 -140 -122 -97
-73 -407 -379 -455 -450 -51 -73 -96 -189 -79 -200 21 -12 221 124 335 229 92
84 297 316 376 427 76 106 138 202 138 214 0 11 -25 5 -75 -19z"/>
<path d="M4235 4688 c-102 -9 -129 -15 -244 -55 -108 -36 -199 -82 -223 -110
-11 -14 -11 -16 4 -10 133 49 349 103 453 112 39 3 90 8 115 11 25 3 80 7 123
9 44 2 81 6 84 9 10 9 -40 24 -108 31 -96 10 -127 11 -204 3z"/>
<path d="M5230 4551 c0 -6 4 -13 10 -16 6 -3 7 1 4 9 -7 18 -14 21 -14 7z"/>
<path d="M6048 5273 c7 -3 16 -2 19 1 4 3 -2 6 -13 5 -11 0 -14 -3 -6 -6z"/>
<path d="M4590 4369 c0 -5 5 -7 10 -4 6 3 10 8 10 11 0 2 -4 4 -10 4 -5 0 -10
-5 -10 -11z"/>
<path d="M8503 7104 c-8 -21 0 -27 102 -70 225 -94 400 -202 582 -358 228
-195 396 -413 542 -703 33 -66 68 -123 77 -127 11 -4 25 1 37 13 20 19 20 20
-3 83 -134 367 -414 712 -770 949 -101 68 -272 150 -401 193 -117 39 -156 44
-166 20z"/>
<path d="M1462 5672 c-56 -49 -224 -346 -293 -517 -106 -268 -182 -639 -139
-690 36 -44 66 -1 80 115 34 287 178 699 346 991 24 42 44 83 44 92 0 25 -16
29 -38 9z"/>
<path d="M8804 2838 c-12 -13 -72 -93 -134 -178 -142 -196 -198 -260 -377
-438 -149 -147 -336 -296 -488 -387 -150 -89 -172 -117 -122 -150 25 -16 57
-11 116 19 60 31 235 148 321 214 105 81 349 325 451 452 133 165 293 423 287
463 -4 30 -30 32 -54 5z"/>
<path d="M6797 2836 c-8 -9 -39 -57 -68 -108 -202 -355 -441 -646 -700 -852
-148 -119 -168 -150 -113 -175 21 -9 33 -8 68 8 48 21 211 158 330 278 103
102 286 347 371 496 80 140 157 311 153 340 -4 26 -22 32 -41 13z"/>
<path d="M1159 2792 c-18 -15 -21 -25 -15 -54 16 -85 92 -141 117 -86 8 20 6
35 -14 80 -31 69 -55 86 -88 60z"/>
<path d="M7849 2648 c-276 -409 -579 -691 -944 -878 -60 -32 -119 -60 -130
-63 -11 -3 -74 -24 -140 -47 -66 -23 -130 -44 -143 -46 -61 -12 -130 -46 -143
-70 -13 -24 -12 -28 14 -50 34 -29 41 -29 136 -3 241 65 507 182 645 283 17
12 67 49 111 81 144 106 406 381 527 555 74 106 158 254 158 278 0 17 -6 22
-25 22 -19 0 -34 -14 -66 -62z"/>
<path d="M1242 2548 c-19 -19 -14 -53 13 -82 26 -29 37 -31 66 -16 25 14 24
51 -2 84 -22 27 -57 34 -77 14z"/>
<path d="M1635 2170 c-12 -20 5 -79 41 -141 41 -69 133 -183 142 -175 3 3 -4
16 -16 29 -12 13 -22 27 -22 33 0 5 5 2 10 -6 7 -11 10 -11 10 -2 0 7 5 10 10
7 6 -3 10 1 10 11 0 13 7 15 35 12 19 -2 35 -2 35 0 0 14 -23 41 -30 37 -6 -3
-7 1 -4 9 11 28 -55 122 -115 165 -34 25 -96 37 -106 21z"/>
<path d="M8854 2154 c-21 -14 -50 -36 -62 -48 -27 -24 -82 -103 -82 -117 0 -5
-4 -9 -9 -9 -9 0 -74 -140 -68 -146 2 -3 27 -7 54 -10 l50 -6 38 53 c22 30 55
73 75 96 51 58 104 166 95 192 -9 29 -43 27 -91 -5z"/>
<path d="M1532 1630 c-24 -26 -39 -77 -48 -162 -5 -48 -3 -72 6 -83 15 -18 30
-11 30 16 0 11 5 17 10 14 6 -3 10 3 10 14 0 11 5 23 11 27 8 4 7 9 -2 15 -10
6 -10 9 -2 9 16 0 45 100 41 137 -4 35 -30 41 -56 13z"/>
<path d="M8933 1643 c-29 -11 2 -185 45 -250 43 -68 58 34 23 167 -21 81 -35
97 -68 83z"/>
<path d="M9141 1624 c-27 -20 -49 -71 -66 -159 -13 -63 -13 -71 2 -82 14 -11
20 -10 34 6 31 33 99 170 99 199 0 38 -37 58 -69 36z"/>
<path d="M1310 1615 c-7 -9 -10 -29 -7 -48 6 -38 76 -186 89 -188 24 -5 33 -3
33 6 0 6 3 15 7 20 8 14 -9 114 -27 158 -26 63 -67 86 -95 52z"/>
<path d="M4762 1613 c-11 -20 8 -85 25 -90 17 -6 27 75 13 92 -16 20 -27 19
-38 -2z"/>
<path d="M7087 1599 c-21 -12 -47 -61 -47 -89 0 -35 26 -22 53 29 37 67 35 84
-6 60z"/>
<path d="M4855 1554 c-27 -29 -34 -57 -12 -48 8 3 24 18 35 34 29 38 10 49
-23 14z"/>
<path d="M4670 1542 c0 -15 36 -42 56 -42 16 1 15 4 -9 25 -29 25 -47 32 -47
17z"/>
<path d="M6980 1532 c0 -5 7 -17 15 -28 14 -18 14 -18 15 9 0 17 -5 27 -15 27
-8 0 -15 -4 -15 -8z"/>
<path d="M7128 1501 c-18 -16 -30 -33 -26 -37 9 -8 78 42 78 57 0 17 -19 9
-52 -20z"/>
<path d="M9250 1482 c-31 -15 -80 -72 -80 -93 0 -17 33 -9 91 23 57 31 77 56
64 78 -9 15 -36 12 -75 -8z"/>
<path d="M1167 1483 c-16 -15 -5 -34 33 -58 22 -14 49 -25 60 -25 11 0 20 -4
20 -10 0 -5 9 -10 20 -10 26 0 25 6 -6 47 -37 48 -105 79 -127 56z"/>
<path d="M8225 1411 c-6 -11 9 -23 19 -14 9 9 7 23 -3 23 -6 0 -12 -4 -16 -9z"/>
<path d="M1638 1388 c-44 -39 -80 -128 -52 -128 18 0 94 72 94 88 0 7 5 12 10
12 16 0 11 37 -6 44 -21 8 -17 9 -46 -16z"/>
<path d="M8794 1396 c-7 -19 20 -70 51 -95 28 -21 60 -18 51 6 -3 8 -6 21 -6
28 0 18 -58 75 -76 75 -8 0 -17 -6 -20 -14z"/>
<path d="M8377 1383 c-4 -3 -7 -13 -7 -21 0 -12 3 -12 15 -2 8 7 15 16 15 21
0 11 -14 12 -23 2z"/>
<path d="M8300 1370 c0 -5 5 -10 10 -10 6 0 10 5 10 10 0 6 -4 10 -10 10 -5 0
-10 -4 -10 -10z"/>
<path d="M651 1199 c14 -63 25 -78 106 -156 67 -64 121 -100 228 -150 17 -8
38 -18 47 -24 10 -5 22 -9 28 -9 5 0 33 -11 62 -24 69 -31 210 -76 378 -120
74 -20 158 -43 185 -51 57 -16 170 -42 218 -50 17 -3 66 -13 107 -21 81 -18
98 -21 149 -28 18 -3 40 -8 50 -10 9 -3 39 -8 66 -11 28 -3 57 -7 65 -10 32
-9 507 -77 630 -90 50 -5 179 -20 270 -30 19 -3 73 -7 120 -10 47 -3 99 -8
115 -10 17 -3 68 -7 115 -10 88 -6 321 -23 400 -30 49 -4 192 -15 280 -20 405
-27 1645 -27 2035 -1 28 2 91 6 140 10 50 4 119 9 155 12 189 14 326 25 358
29 47 5 123 12 292 25 74 6 146 12 160 15 14 2 52 7 85 10 33 3 110 12 170 20
61 8 130 17 155 20 25 3 59 8 77 11 17 3 44 7 60 9 15 2 57 8 93 14 36 6 83
14 105 17 73 9 280 51 448 89 59 14 118 27 130 29 41 8 188 47 270 72 45 14
120 36 167 50 190 56 395 145 497 216 65 44 143 118 143 134 0 8 3 14 8 14 4
0 12 17 19 37 6 21 15 47 19 58 5 14 -6 8 -37 -20 -72 -63 -92 -79 -129 -97
-19 -9 -57 -29 -85 -44 -27 -14 -63 -33 -78 -41 -15 -8 -35 -12 -43 -9 -8 3
-12 2 -9 -4 6 -10 -63 -32 -77 -24 -4 3 -8 1 -8 -4 0 -8 -72 -36 -97 -37 -6 0
-15 -4 -19 -8 -4 -4 -18 -7 -31 -7 -12 0 -23 -5 -23 -11 0 -6 -7 -9 -15 -6 -8
4 -17 2 -20 -4 -4 -5 -10 -7 -15 -4 -5 3 -11 1 -15 -4 -3 -6 -12 -8 -19 -5 -8
3 -17 0 -21 -5 -3 -6 -11 -9 -16 -5 -5 3 -17 0 -25 -7 -8 -6 -17 -9 -21 -6 -3
4 -11 3 -17 -2 -17 -13 -148 -42 -188 -42 -10 0 -20 -5 -23 -10 -4 -5 -11 -7
-16 -3 -5 3 -16 0 -24 -6 -8 -7 -15 -10 -15 -7 0 3 -15 1 -32 -4 -18 -6 -37
-11 -43 -12 -5 -2 -15 -6 -22 -10 -6 -4 -18 -4 -27 -1 -9 3 -16 1 -16 -6 0 -7
-8 -9 -19 -5 -11 3 -22 1 -26 -4 -3 -6 -16 -11 -28 -11 -12 1 -37 -2 -54 -6
-30 -6 -33 -4 -33 17 0 13 7 46 15 73 17 57 18 66 7 66 -8 0 -25 -29 -42 -75
-24 -61 -35 -85 -40 -86 -3 -1 -15 -3 -27 -4 -13 -1 -29 -8 -37 -14 -8 -6 -18
-11 -22 -9 -5 1 -34 -2 -64 -7 -66 -10 -91 -13 -148 -19 -23 -3 -56 -7 -72
-11 -55 -12 -110 -13 -110 -1 0 6 -4 5 -9 -3 -5 -8 -16 -11 -25 -8 -8 3 -18 2
-22 -4 -3 -6 -12 -8 -20 -5 -7 3 -16 1 -19 -4 -3 -5 -19 -8 -35 -6 -16 2 -32
1 -34 -2 -3 -3 -29 -6 -58 -8 -53 -3 -133 -12 -133 -14 0 -1 -36 -3 -80 -6
-44 -2 -107 -6 -141 -7 -33 -2 -66 -7 -72 -11 -7 -4 -12 -2 -12 5 0 8 -4 8
-12 1 -7 -6 -24 -10 -38 -10 -14 0 -63 -3 -110 -6 -47 -3 -127 -8 -178 -10
l-93 -5 7 37 c4 20 13 54 21 75 12 29 13 40 3 52 -10 12 -16 10 -42 -13 -49
-43 -69 -65 -84 -95 -17 -32 -34 -35 -34 -7 0 34 -47 117 -70 123 -40 10 -70
-47 -70 -135 0 -16 -1 -28 -3 -28 -2 0 -33 29 -70 65 -63 61 -107 82 -107 52
0 -8 14 -41 30 -75 26 -51 29 -64 19 -80 -13 -21 -58 -25 -72 -7 -6 7 -10 6
-14 -2 -2 -7 -11 -13 -19 -13 -8 0 -14 6 -14 13 0 8 -3 8 -9 -2 -8 -12 -12
-12 -25 -2 -10 9 -16 9 -16 3 0 -12 -78 -11 -97 1 -6 4 -13 2 -15 -3 -3 -11
-78 -21 -78 -10 0 10 -44 6 -52 -4 -4 -6 -12 -5 -21 3 -12 9 -16 9 -20 -1 -4
-8 -8 -9 -14 -3 -9 12 -142 13 -160 2 -7 -5 -13 -5 -13 0 0 4 -52 7 -116 6
-108 -3 -115 -2 -103 14 36 44 46 56 67 79 12 14 22 32 22 40 0 29 -37 13 -92
-41 -31 -30 -59 -55 -61 -55 -3 0 -1 15 4 33 11 37 15 105 7 113 -8 8 -58 -48
-58 -66 -1 -8 -9 -37 -19 -65 l-17 -50 -125 -1 c-130 -1 -159 5 -159 34 -1 36
-38 124 -59 138 -19 14 -22 14 -28 -2 -3 -9 -7 -36 -7 -60 -1 -24 -4 -44 -8
-44 -3 0 -17 13 -30 29 -35 41 -77 66 -89 54 -8 -8 5 -28 40 -67 51 -57 62
-80 39 -88 -7 -3 -103 -3 -213 -1 -358 6 -570 10 -588 12 -16 1 -16 3 1 39 24
46 48 139 39 148 -14 14 -81 -32 -121 -83 -22 -28 -44 -49 -48 -47 -4 3 -8 24
-9 47 -1 45 -8 71 -25 101 -27 45 -90 -11 -117 -105 l-12 -42 -30 44 c-53 79
-125 135 -125 97 0 -7 9 -37 20 -66 33 -86 31 -89 -52 -90 -40 0 -79 4 -86 11
-10 8 -16 7 -22 -2 -4 -8 -13 -11 -18 -7 -10 6 -51 9 -282 21 -126 6 -243 15
-278 21 -17 2 -60 7 -95 10 -72 6 -132 12 -132 14 0 3 -97 11 -127 11 -16 0
-28 3 -28 7 0 5 -21 8 -47 9 -27 0 -75 3 -108 7 -33 4 -77 8 -97 11 -21 2 -50
6 -65 9 -16 3 -50 8 -78 11 -27 2 -74 9 -103 15 -29 5 -56 9 -60 9 -4 -1 -9 0
-12 1 -3 1 -16 4 -30 5 -52 6 -105 14 -105 16 0 1 -9 3 -20 5 -68 11 -85 14
-130 25 -27 6 -57 13 -65 14 -51 10 -58 17 -65 63 -4 26 -17 60 -28 77 l-22
30 -5 -64 c-3 -43 -10 -66 -19 -69 -9 -3 -11 0 -5 9 7 12 5 12 -9 0 -12 -9
-21 -10 -29 -4 -7 6 -33 13 -57 17 -24 4 -49 10 -55 14 -12 7 -34 13 -56 14
-8 0 -19 4 -25 8 -5 4 -48 16 -95 26 -47 9 -87 21 -90 24 -3 4 -52 22 -110 40
-58 18 -106 37 -108 41 -2 5 -12 9 -23 9 -10 0 -19 4 -19 9 0 5 -12 12 -26 15
-14 4 -31 11 -37 16 -7 6 -37 27 -67 47 -30 20 -58 41 -61 46 -4 5 -12 6 -18
3 -6 -4 -11 -1 -11 6 -1 12 -44 68 -53 68 -3 0 -1 -19 4 -41z"/>
<path d="M809 1179 c13 -11 26 -17 29 -14 7 6 -29 34 -43 34 -5 0 1 -9 14 -20z"/>
<path d="M1372 1138 c-16 -20 -19 -71 -4 -75 7 -3 12 5 12 21 0 13 5 28 10 31
12 8 13 35 1 35 -5 0 -13 -6 -19 -12z"/>
<path d="M1292 1085 c6 -14 17 -25 25 -25 20 0 16 28 -6 40 -29 15 -32 13 -19
-15z"/>
<path d="M9406 1075 c-17 -25 -14 -45 5 -45 6 0 8 9 4 19 -4 13 0 23 11 29 10
5 12 12 6 16 -5 3 -17 -6 -26 -19z"/>
<path d="M9461 1072 c-7 -13 -11 -26 -8 -28 8 -8 29 25 25 38 -3 8 -9 4 -17
-10z"/>
<path d="M1507 963 c-9 -9 44 -74 55 -67 5 3 8 -2 6 -11 -2 -11 4 -19 15 -20
24 -4 21 12 -8 51 -27 36 -58 57 -68 47z"/>
<path d="M8566 857 c-20 -18 -36 -37 -36 -41 0 -4 -7 -14 -15 -22 -19 -20 -19
-31 0 -31 21 0 104 111 92 123 -2 2 -20 -11 -41 -29z"/>
</g>
</svg>
