<?xml version="1.0" standalone="no"?>
<!DOCTYPE svg PUBLIC "-//W3C//DTD SVG 20010904//EN"
 "http://www.w3.org/TR/2001/REC-SVG-20010904/DTD/svg10.dtd">
<svg version="1.0" xmlns="http://www.w3.org/2000/svg"
 width="1024.000000pt" height="1024.000000pt" viewBox="0 0 1024.000000 1024.000000"
 preserveAspectRatio="xMidYMid meet">

<g transform="translate(0.000000,1024.000000) scale(0.100000,-0.100000)"
fill="#000000" stroke="none">
<path d="M3100 8971 c-62 -13 -128 -49 -180 -97 -134 -125 -277 -422 -369
-765 -56 -209 -64 -275 -66 -521 l-1 -227 -68 -86 c-191 -241 -342 -555 -400
-830 -20 -94 -46 -298 -46 -357 0 -26 -4 -48 -9 -48 -23 0 -196 -179 -246
-254 -195 -294 -215 -709 -49 -1048 30 -61 53 -112 52 -113 -9 -7 -248 -67
-333 -84 -360 -72 -574 -90 -1038 -88 l-347 2 0 -86 0 -86 48 -7 c26 -3 182
-6 347 -5 300 1 332 2 487 14 84 6 115 9 223 20 102 11 412 73 567 113 l147
39 24 -26 c13 -14 50 -60 82 -101 148 -187 376 -381 630 -535 60 -36 111 -68
113 -69 2 -2 -39 -35 -90 -74 -202 -151 -398 -351 -530 -537 -63 -88 -143
-252 -163 -330 -40 -155 -28 -287 33 -398 127 -229 368 -324 711 -280 210 26
297 49 616 159 63 22 300 143 427 217 53 32 104 57 113 57 29 0 55 -20 55 -43
0 -33 -24 -62 -93 -111 -69 -49 -374 -220 -424 -238 -18 -7 -33 -16 -33 -21 0
-4 -4 -6 -9 -3 -5 3 -21 -4 -37 -17 -16 -12 -30 -21 -31 -19 -11 9 -24 -1 -19
-14 5 -14 4 -15 -8 -5 -15 13 -66 5 -66 -11 0 -5 -4 -7 -9 -3 -5 3 -16 -2 -25
-11 -9 -8 -20 -13 -25 -10 -5 3 -22 -1 -37 -9 -16 -8 -39 -15 -51 -15 -13 0
-23 -4 -23 -9 0 -4 -14 -7 -32 -5 -17 2 -37 -1 -44 -7 -7 -6 -18 -8 -24 -4 -5
3 -10 1 -10 -4 0 -6 9 -11 21 -11 11 0 17 -4 14 -10 -3 -6 1 -7 10 -3 12 4 13
8 5 13 -9 6 -9 9 0 15 11 7 29 -10 30 -26 0 -3 -19 -11 -42 -16 l-43 -11 36
-1 c20 0 38 1 41 4 3 3 43 8 89 10 46 3 85 9 87 14 2 5 11 7 21 4 28 -7 174
35 189 54 7 10 12 12 12 5 0 -7 6 -12 14 -12 8 0 13 9 12 24 -1 17 -4 21 -13
15 -7 -7 -14 -6 -19 3 -4 7 -4 10 1 6 4 -4 14 -3 21 3 16 13 44 5 44 -11 0 -6
-4 -8 -10 -5 -5 3 -10 -1 -10 -10 0 -12 5 -15 18 -10 9 4 58 22 107 40 50 18
113 45 140 59 66 34 108 34 143 -1 15 -15 32 -26 37 -25 6 2 4 -2 -2 -9 -7 -7
-13 -22 -12 -33 0 -20 1 -20 8 -2 4 11 20 21 35 23 18 3 25 0 21 -7 -3 -6 -10
-8 -15 -5 -4 3 -10 -2 -14 -10 -3 -8 0 -15 7 -15 7 0 1 -9 -13 -20 -21 -16
-26 -17 -30 -4 -5 13 -9 12 -24 -5 -11 -12 -14 -21 -8 -21 7 0 12 5 12 11 0 5
5 7 11 4 6 -4 8 -13 6 -19 -3 -7 1 -13 9 -13 8 0 14 9 14 19 0 12 4 16 11 12
6 -3 15 0 20 7 7 12 9 11 9 -1 0 -10 6 -7 19 9 19 25 51 37 51 19 0 -6 -6 -8
-14 -5 -8 3 -17 -1 -20 -9 -8 -21 -8 -24 5 -24 5 0 7 5 4 10 -3 6 4 10 16 10
17 0 19 -3 10 -14 -10 -11 -9 -21 2 -42 9 -17 17 -23 21 -15 4 6 2 11 -5 11
-9 0 -9 3 0 14 6 7 9 20 6 28 -4 9 1 18 10 22 10 4 14 2 9 -5 -4 -6 0 -15 7
-20 12 -8 12 -11 -1 -19 -12 -7 -10 -9 7 -7 12 0 20 4 18 8 -3 3 4 14 15 24
11 10 20 13 20 7 0 -6 -5 -14 -10 -17 -8 -5 -7 -11 1 -21 9 -11 9 -14 0 -14
-9 0 -9 -5 -1 -20 6 -11 16 -20 23 -20 7 0 6 4 -3 10 -18 12 -6 36 31 59 21
14 23 14 12 0 -10 -12 -9 -18 7 -32 11 -9 17 -23 14 -31 -4 -11 0 -14 16 -11
33 6 46 -3 48 -36 1 -17 -2 -28 -7 -25 -10 7 -9 -13 1 -30 4 -6 24 -42 44 -80
85 -161 174 -238 349 -300 65 -23 244 -30 343 -14 136 22 388 117 567 215 116
63 273 168 379 253 49 40 99 72 111 72 30 0 55 -30 55 -65 0 -37 -98 -136
-212 -214 -56 -38 -75 -57 -71 -69 4 -13 3 -14 -5 -4 -7 11 -18 8 -56 -15 -25
-16 -43 -33 -39 -37 4 -4 1 -4 -8 -1 -8 3 -30 -6 -49 -20 -19 -14 -40 -25 -47
-25 -7 0 -13 -4 -13 -8 0 -4 -20 -16 -45 -27 -29 -11 -44 -23 -41 -31 3 -8 1
-16 -4 -19 -14 -9 0 -36 18 -33 8 2 23 -11 33 -29 13 -24 14 -31 4 -27 -8 3
-15 14 -17 25 -2 14 -7 16 -18 9 -9 -6 -11 -13 -5 -17 14 -11 18 -44 5 -41
-21 5 -35 -28 -21 -46 16 -19 32 -21 29 -3 -2 6 3 11 10 9 8 -1 11 2 6 9 -5 9
-1 10 14 7 12 -4 25 -2 28 3 3 5 2 9 -3 8 -4 -1 -17 2 -28 7 -17 7 -14 9 20
15 22 4 47 3 56 -2 14 -7 16 -3 13 21 -4 32 10 49 20 24 4 -10 2 -13 -7 -8 -6
4 -8 3 -4 -1 11 -12 37 -15 37 -4 0 5 15 15 33 23 17 7 42 23 55 35 12 12 31
23 42 24 15 1 18 6 13 25 -6 24 -5 24 16 6 11 -10 21 -23 21 -29 0 -20 64 -11
88 14 18 18 30 22 57 18 28 -5 36 -1 49 18 9 13 12 25 8 28 -8 4 9 0 36 -9 13
-4 14 -3 4 4 -11 7 -10 11 4 16 10 4 21 1 26 -6 6 -10 8 -10 8 2 0 13 1 13 10
0 5 -8 12 -11 17 -7 4 5 2 11 -4 15 -15 10 -25 62 -11 62 5 0 8 -6 5 -14 -3
-8 5 -24 19 -37 21 -20 29 -19 25 4 0 4 3 7 8 7 5 0 11 8 15 18 3 9 9 24 12
32 3 8 -6 2 -20 -15 -17 -19 -26 -25 -26 -15 0 9 8 22 18 31 19 16 68 21 52 5
-6 -6 -10 -14 -10 -20 0 -5 9 1 20 14 13 15 20 18 20 9 0 -12 2 -12 9 0 7 11
9 11 14 0 3 -9 8 -4 15 13 9 21 16 26 36 22 14 -2 27 0 31 6 3 5 0 7 -8 4 -8
-3 -18 -1 -22 5 -3 6 0 11 7 11 9 0 9 3 -2 10 -9 6 -10 10 -3 10 6 0 14 -4 17
-9 3 -5 20 -7 38 -6 51 4 54 6 33 15 -16 7 -12 9 18 9 22 1 36 5 32 11 -4 6 1
7 12 3 16 -6 17 -5 3 13 -13 17 -13 18 0 8 20 -15 51 -9 67 12 11 15 13 16 13
2 0 -9 9 -18 19 -21 11 -2 21 -15 24 -28 4 -22 4 -22 6 3 1 20 7 29 26 34 13
3 30 4 37 1 7 -3 1 -6 -14 -6 -17 -1 -28 -7 -28 -15 0 -9 8 -12 25 -8 15 2 25
0 25 -7 0 -13 66 -15 74 -2 3 5 15 7 26 4 11 -3 20 -1 20 4 0 5 23 9 50 8 41
-1 50 2 50 16 0 9 -7 19 -15 23 -8 3 -15 11 -14 18 0 10 2 10 6 1 9 -23 40
-14 47 12 5 21 9 23 20 13 10 -10 11 -15 2 -21 -8 -5 -7 -10 4 -17 25 -16 50
-12 50 9 0 21 22 33 45 25 11 -5 13 -2 9 10 -5 13 0 15 29 12 29 -4 36 -1 41
16 3 15 -3 29 -19 44 -29 27 -33 69 -10 101 19 26 57 37 185 53 168 21 376 69
547 126 39 13 83 24 98 24 30 0 75 -43 75 -71 0 -25 27 -24 35 1 9 28 32 25
49 -7 11 -20 15 -23 16 -10 0 11 8 17 22 17 17 0 19 -3 10 -12 -7 -7 -12 -16
-12 -22 0 -17 20 8 24 31 4 16 0 20 -20 17 -15 -1 -28 4 -31 12 -8 21 6 32 17
14 8 -12 10 -12 10 -1 0 11 3 11 15 1 9 -7 22 -9 32 -5 10 5 22 7 27 6 5 -1 4
4 -2 12 -9 11 -8 13 6 12 9 0 24 -5 32 -9 12 -7 13 -6 3 5 -21 22 -16 41 10
34 22 -6 22 -6 2 10 -19 15 -18 16 17 11 25 -3 35 -1 32 7 -2 7 0 18 5 25 7
12 12 12 29 1 12 -7 25 -10 29 -6 4 5 1 12 -7 17 -9 6 -10 10 -3 10 6 0 15 -5
18 -10 3 -5 12 -10 18 -9 9 0 9 2 0 5 -14 6 -6 34 11 34 6 0 17 14 24 30 8 17
18 28 22 25 5 -3 11 -1 15 5 3 5 -2 10 -11 10 -10 0 -25 7 -35 15 -16 15 -74
12 -65 -4 2 -3 -6 -7 -17 -8 -12 -1 -85 -17 -162 -36 -303 -74 -345 -72 -345
21 0 58 22 70 200 112 195 46 366 96 398 116 12 8 22 12 22 9 0 -2 23 4 50 15
62 25 97 25 130 2 31 -21 36 -52 15 -96 -12 -24 -27 -39 -52 -47 -34 -11 -34
-11 -14 -26 23 -15 43 -10 35 10 -2 7 4 17 15 24 16 10 27 8 66 -13 33 -17 46
-20 42 -10 -3 8 0 19 6 24 12 10 18 12 37 12 15 0 61 50 55 61 -4 5 -1 9 5 9
7 0 5 7 -4 16 -21 20 -20 23 4 17 11 -3 20 -11 20 -18 0 -7 7 -16 16 -19 9 -3
12 -2 9 5 -4 5 -8 21 -9 33 -3 21 0 23 28 19 17 -2 36 -6 43 -8 6 -2 14 2 16
9 6 15 57 28 57 15 0 -5 8 -9 17 -9 15 0 14 2 -2 14 -11 8 -23 12 -27 10 -5
-3 -8 2 -8 11 0 9 5 13 10 10 23 -14 8 34 -16 50 -14 9 -23 19 -20 22 3 3 13
0 22 -8 14 -11 18 -11 29 4 9 13 15 15 20 7 4 -7 2 -17 -4 -23 -8 -8 -6 -16 7
-30 19 -22 19 -26 0 -39 -10 -8 -9 -9 4 -5 9 3 18 1 21 -6 2 -6 6 -4 10 6 3 9
2 17 -3 17 -5 0 -2 9 7 19 9 11 20 18 25 15 4 -3 8 -1 8 5 0 20 -17 20 -33 0
-10 -11 -22 -17 -27 -14 -13 8 -13 35 1 35 5 0 7 -4 4 -10 -3 -5 -1 -10 4 -10
16 0 13 40 -2 46 -23 9 -16 32 9 29 13 -1 21 1 18 6 -6 10 27 28 48 26 9 -1
17 3 17 8 0 6 -8 9 -17 7 -48 -9 -74 0 -54 20 9 9 12 9 12 -1 0 -7 5 -9 11 -5
21 12 -19 26 -41 14 -11 -6 -20 -13 -20 -16 0 -3 5 -2 10 1 6 3 10 -3 10 -15
0 -14 4 -19 13 -14 9 5 9 4 0 -6 -10 -11 -16 -9 -32 11 l-20 24 27 22 c15 11
24 25 20 29 -4 4 -2 14 5 23 10 14 10 14 -4 4 -9 -7 -19 -10 -22 -6 -4 3 -7 1
-7 -5 0 -7 -9 -12 -20 -12 -10 0 -23 -8 -29 -17 -5 -10 -13 -15 -16 -11 -4 4
-14 1 -22 -7 -8 -8 -22 -15 -31 -15 -22 -1 -46 -20 -56 -45 -6 -16 -9 -17 -16
-5 -9 13 -10 13 -10 0 0 -12 -2 -13 -9 -1 -11 17 -31 6 -31 -16 0 -9 -3 -13
-7 -10 -3 4 -12 -1 -20 -11 -11 -15 -12 -15 -7 -1 7 22 -11 33 -28 16 -7 -7
-24 -13 -37 -14 -13 -1 -27 -7 -31 -12 -3 -6 -25 -13 -49 -16 -24 -3 -52 -10
-63 -16 -11 -6 -22 -8 -25 -5 -3 3 -15 0 -27 -6 -11 -7 -25 -11 -29 -10 -5 1
-37 -6 -71 -17 -154 -48 -536 -90 -614 -69 -18 5 -42 18 -53 29 -21 21 -25 71
-6 87 6 5 73 12 147 16 222 9 414 36 565 77 186 51 430 148 568 225 271 151
419 304 472 489 33 114 6 269 -67 394 -95 160 -347 346 -606 446 l-84 32 -37
90 c-20 49 -54 119 -75 157 l-38 67 24 6 c58 16 200 98 272 159 48 40 84 64
95 61 9 -2 72 -21 141 -41 108 -33 254 -66 355 -82 17 -3 55 -10 85 -16 64
-13 86 -16 160 -24 30 -3 82 -10 115 -15 33 -5 149 -12 258 -15 l197 -7 0 91
0 92 -107 0 c-185 0 -404 24 -651 71 -123 23 -422 95 -431 104 -3 4 11 37 32
75 108 198 150 411 127 643 -14 144 -34 233 -75 332 -67 164 -153 291 -271
406 -189 182 -388 284 -637 324 -217 35 -467 -2 -673 -99 -114 -54 -167 -90
-255 -174 -38 -35 -69 -62 -69 -59 0 3 5 18 11 34 22 58 58 252 67 358 40 481
-35 971 -191 1246 -69 122 -154 193 -272 224 -60 17 -78 17 -161 7 -238 -30
-600 -198 -836 -388 l-67 -54 -104 55 c-171 90 -403 172 -613 215 -264 55
-650 61 -908 15 -164 -30 -151 -30 -164 -1 -28 62 -170 261 -251 353 -49 55
-123 127 -165 161 -89 71 -225 154 -288 175 -56 19 -144 27 -188 18z m118
-196 c112 -33 313 -201 451 -374 85 -108 141 -189 141 -206 0 -8 -25 -20 -57
-29 -118 -32 -197 -64 -390 -157 -44 -21 -84 -39 -87 -39 -3 0 -6 15 -6 33 0
91 -80 275 -133 308 -42 25 -69 24 -96 -5 -27 -28 -26 -12 -17 -276 l8 -215
-63 -40 c-35 -22 -87 -60 -115 -85 -28 -25 -80 -67 -114 -94 l-63 -50 6 145
c6 174 37 331 104 522 111 319 227 518 328 563 38 17 41 17 103 -1z m3612
-559 c49 -22 151 -252 180 -406 6 -30 20 -120 31 -200 24 -170 28 -481 9 -625
-7 -49 -14 -101 -15 -115 -1 -14 -8 -38 -14 -53 -6 -16 -11 -32 -11 -37 0 -4
-14 -50 -30 -102 -28 -85 -85 -194 -176 -338 l-34 -55 6 -165 c11 -306 -48
-529 -185 -695 -22 -27 -37 -53 -34 -58 3 -6 1 -7 -5 -3 -15 9 -102 -71 -96
-88 5 -12 13 -12 191 10 61 8 83 -4 83 -45 0 -20 -11 -33 -48 -58 -26 -17 -61
-38 -78 -46 -36 -19 -59 -43 -46 -51 11 -6 68 -16 134 -23 96 -10 105 -62 43
-252 -15 -46 -49 -130 -76 -186 -27 -56 -49 -107 -49 -113 0 -7 -8 -21 -17
-31 -10 -10 -29 -35 -43 -56 -47 -67 -110 -148 -150 -192 -37 -39 -39 -43 -18
-40 15 1 25 11 29 27 6 22 7 20 8 -10 l1 -35 21 33 c22 34 53 45 42 15 -5 -15
-3 -16 7 -6 9 8 10 16 3 25 -15 20 -23 59 -10 51 7 -4 8 0 4 11 -4 10 -3 15 4
11 5 -4 7 -16 3 -27 -4 -15 -2 -19 7 -16 8 3 13 14 12 24 -1 18 -1 18 13 0 13
-19 14 -19 14 7 0 19 4 25 15 21 11 -5 15 1 15 19 0 27 20 49 41 45 9 -2 14 6
14 19 0 12 4 25 8 29 4 4 7 0 7 -9 0 -9 4 -18 8 -21 9 -6 7 47 -2 63 -9 14 26
2 35 -12 4 -5 10 1 14 14 4 13 14 29 21 37 8 7 12 18 9 23 -4 5 -2 9 4 9 5 0
8 8 6 18 -1 10 -10 16 -21 15 -11 -1 -13 0 -6 3 6 3 9 11 6 16 -5 7 -2 8 6 3
9 -5 11 -1 6 16 -3 13 -3 18 0 12 14 -31 63 9 56 45 -2 6 3 12 10 12 9 0 9 3
-2 10 -13 8 -12 10 3 10 14 0 17 5 12 21 -5 15 -4 19 4 15 7 -4 11 1 11 13 0
10 4 21 10 23 5 2 11 17 12 33 1 17 8 35 14 40 16 13 35 85 27 98 -3 6 -1 7 5
4 8 -6 26 52 23 78 0 2 6 22 13 43 10 27 11 44 4 57 -7 12 -7 16 0 11 10 -6
24 56 48 223 4 25 9 55 12 66 3 11 6 162 8 337 2 277 4 319 19 342 10 14 21
23 26 20 5 -3 13 5 17 17 7 19 11 13 25 -37 45 -165 61 -302 62 -534 0 -238
-9 -328 -51 -520 -98 -442 -318 -822 -629 -1086 -182 -154 -385 -272 -625
-362 -414 -156 -783 -218 -1245 -207 -115 3 -228 7 -250 10 -22 3 -65 7 -95
11 -30 3 -62 7 -71 9 -9 2 -40 6 -70 10 -239 30 -611 137 -961 276 -131 52
-389 183 -515 261 -453 281 -783 696 -863 1086 -46 226 -16 427 91 610 45 75
170 200 240 239 l56 31 6 139 c17 389 132 717 358 1023 75 102 196 238 250
281 44 34 44 31 1 -56 -25 -49 -45 -158 -36 -188 10 -33 43 -65 74 -72 36 -8
81 11 183 78 45 30 96 62 113 72 l32 18 60 -64 c111 -118 231 -170 402 -172
110 -1 179 16 285 71 67 35 180 134 218 191 16 25 16 25 99 12 88 -13 212 -42
291 -67 40 -13 47 -19 47 -42 1 -89 65 -225 147 -313 104 -110 229 -166 393
-176 142 -8 280 33 386 113 17 13 36 24 41 24 6 0 61 -53 123 -117 82 -86 133
-151 192 -245 45 -71 91 -136 102 -144 32 -22 108 -18 141 8 62 48 82 168 50
292 -49 188 -216 427 -403 577 -72 58 -80 68 -118 153 -22 50 -56 116 -76 146
-83 129 -229 227 -376 251 -128 21 -285 -15 -380 -88 -32 -24 -38 -25 -66 -14
-123 51 -301 86 -486 96 l-116 7 -21 36 c-37 64 -92 120 -169 174 -60 41 -72
53 -60 60 31 17 226 62 341 79 44 6 91 13 105 15 57 9 382 11 475 3 168 -15
418 -69 585 -126 80 -28 265 -116 274 -132 3 -5 -1 -14 -9 -21 -20 -17 -30
-77 -17 -105 6 -13 26 -28 47 -35 43 -14 53 -8 196 118 247 217 613 402 859
435 37 4 101 -4 130 -17z m-3160 -337 c75 -20 113 -51 148 -119 40 -77 39
-122 -5 -202 -61 -111 -168 -170 -313 -171 -129 -1 -219 46 -261 138 -24 52
-24 92 2 162 60 159 245 242 429 192z m660 -304 c100 -15 241 -49 272 -66 18
-10 18 -11 -1 -37 -10 -15 -26 -44 -35 -66 -12 -30 -20 -37 -33 -31 -31 12
-247 55 -280 55 -55 0 -58 5 -57 78 1 37 2 70 3 75 1 10 23 9 131 -8z m817
-20 c210 -62 272 -278 119 -412 -64 -56 -132 -78 -241 -78 -79 1 -98 5 -155
31 -69 32 -126 81 -141 121 -16 43 -10 121 12 166 72 144 249 219 406 172z
m-2084 -182 c-9 -3 -144 -92 -182 -120 l-24 -18 7 35 c17 86 92 208 159 257
l32 24 8 -88 c4 -48 4 -89 0 -90z m838 -87 c-102 -105 -321 -151 -462 -97 -53
20 -156 97 -145 108 2 3 29 -4 59 -16 31 -11 97 -27 148 -36 77 -14 104 -14
156 -5 47 9 70 9 98 0 30 -10 40 -9 60 4 14 9 25 21 25 26 0 6 3 9 8 8 16 -4
52 14 46 24 -4 7 -2 8 4 4 7 -4 12 -2 12 3 0 6 5 11 12 11 7 0 -3 -15 -21 -34z
m1846 -291 c159 -164 274 -377 273 -511 -1 -33 -2 -37 -13 -22 -7 9 -41 58
-77 109 -36 51 -122 152 -192 224 l-127 132 25 48 c13 27 24 57 24 67 0 31 20
20 87 -47z m-941 0 c111 -67 178 -80 432 -84 57 0 101 -5 98 -10 -3 -4 -38
-19 -78 -32 -162 -52 -380 -13 -461 85 -31 37 -59 76 -54 76 3 0 31 -16 63
-35z m614 -29 c0 -2 -8 -10 -17 -17 -16 -13 -17 -12 -4 4 13 16 21 21 21 13z
m1667 -138 c-3 -8 -6 -5 -6 6 -1 11 2 17 5 13 3 -3 4 -12 1 -19z m-10 -60 c-3
-7 -5 -2 -5 12 0 14 2 19 5 13 2 -7 2 -19 0 -25z m-10 -40 c-3 -8 -6 -5 -6 6
-1 11 2 17 5 13 3 -3 4 -12 1 -19z m1215 -47 c102 -26 203 -70 291 -127 87
-56 229 -197 282 -279 158 -246 205 -596 116 -861 -63 -188 -210 -368 -372
-454 -50 -26 -177 -67 -183 -58 -1 2 -26 31 -54 66 -29 35 -52 65 -52 66 0 2
7 6 14 9 10 4 13 1 9 -9 -3 -7 0 -14 6 -14 10 0 15 14 12 33 -1 5 3 6 9 2 6
-3 8 -10 6 -14 -8 -13 34 -5 47 9 10 10 9 11 -3 5 -9 -5 -12 -4 -7 1 8 9 12
10 38 13 6 0 8 8 5 18 -6 15 -4 15 14 -2 20 -18 20 -18 20 3 0 11 5 24 12 28
7 4 8 3 4 -4 -5 -8 0 -12 13 -12 30 0 51 11 51 27 0 8 5 11 10 8 6 -3 10 -1
10 4 0 6 3 10 8 10 21 -4 31 3 25 17 -4 11 -1 15 13 12 13 -2 19 3 18 14 -1
10 1 17 5 16 25 -3 39 6 50 29 10 21 9 28 -1 34 -10 7 -9 9 5 9 9 0 17 -8 17
-17 1 -17 1 -17 11 0 6 9 16 15 22 11 7 -3 -1 5 -18 20 -33 27 -30 31 9 16 32
-12 35 -3 4 10 l-23 9 22 7 c13 3 21 9 18 13 -2 4 11 25 30 47 18 21 32 41 29
43 -5 5 -115 -115 -115 -126 0 -8 -23 -21 -127 -72 -67 -33 -164 -49 -227 -37
l-36 7 43 48 c24 26 57 74 73 107 27 53 30 69 30 149 0 80 -3 95 -27 136 -38
65 -98 115 -159 133 -63 19 -80 20 -132 4 -55 -16 -97 -61 -97 -102 0 -44 24
-63 88 -68 62 -6 72 -13 46 -33 -78 -62 -245 -134 -311 -136 -24 0 -25 -1 -8
-9 27 -11 -91 -1 -177 15 -47 8 -68 9 -68 1 0 -6 -7 0 -16 12 -8 12 -19 20
-24 17 -5 -3 -11 -1 -15 5 -3 5 -15 15 -26 21 -18 9 -19 9 -7 -10 7 -12 18
-21 23 -21 6 0 26 -11 44 -24 28 -21 36 -23 52 -13 15 9 21 9 27 0 4 -6 24
-14 45 -18 20 -4 37 -11 37 -16 0 -13 237 -11 245 1 3 6 17 10 30 10 13 0 27
5 30 10 3 6 17 10 31 10 13 0 24 4 24 9 0 4 30 18 67 30 37 12 71 28 75 34 14
22 8 -44 -6 -71 -21 -39 -94 -107 -142 -130 -97 -49 -265 -66 -386 -41 -109
23 -272 124 -335 205 -23 31 -29 51 -34 113 -19 232 -43 402 -85 597 l-18 81
48 71 c129 194 353 322 641 366 64 10 262 -4 337 -23z m-1257 -101 c-9 -28
-19 -50 -21 -48 -2 2 4 27 13 56 9 28 19 50 21 47 2 -2 -4 -27 -13 -55z m-25
-69 c0 -5 -9 -19 -20 -32 l-20 -24 16 33 c15 32 24 40 24 23z m-40 -74 c0 -2
-16 -19 -37 -38 l-36 -34 29 37 c24 32 44 47 44 35z m472 -1244 c47 -49 109
-124 138 -168 60 -92 154 -281 146 -294 -3 -4 -24 -11 -46 -15 -48 -7 -295
-97 -433 -156 -54 -24 -100 -41 -102 -38 -2 2 13 49 35 104 68 174 130 414
145 564 8 76 11 90 23 90 5 0 47 -39 94 -87z m1148 -33 c0 -5 -4 -10 -10 -10
-5 0 -10 5 -10 10 0 6 5 10 10 10 6 0 10 -4 10 -10z m-150 -66 c0 -8 -5 -12
-10 -9 -6 4 -8 11 -5 16 9 14 15 11 15 -7z m-104 -31 c-11 -11 -35 -12 -42 -2
-3 5 7 9 22 9 15 0 24 -3 20 -7z m-453 -20 c-7 -2 -19 -2 -25 0 -7 3 -2 5 12
5 14 0 19 -2 13 -5z m-21 -14 c69 -15 215 -62 253 -82 36 -19 135 -128 207
-228 67 -94 116 -186 173 -330 26 -63 51 -119 58 -125 7 -7 37 -20 67 -29 88
-28 252 -109 347 -170 110 -72 231 -194 269 -272 25 -49 29 -70 29 -143 0
-107 -21 -154 -114 -249 -192 -198 -633 -383 -1039 -435 -125 -16 -399 -21
-479 -8 l-42 7 46 53 c44 51 48 53 83 47 21 -3 84 -1 141 6 57 6 112 11 122
11 9 0 17 3 17 6 0 4 16 7 35 7 28 -1 35 2 30 13 -4 12 -3 13 10 2 12 -10 18
-10 30 0 8 7 21 10 29 7 7 -3 25 1 40 8 15 8 25 11 22 7 -2 -4 8 -7 22 -6 15
1 27 3 27 4 0 1 7 3 15 5 114 29 150 42 143 49 -5 5 0 6 11 2 12 -4 26 0 39
11 15 13 18 14 12 3 -7 -12 -6 -13 6 -2 12 11 12 14 -1 22 -8 5 -10 10 -5 10
6 0 15 -4 21 -10 12 -12 108 22 97 35 -5 4 -3 5 4 2 6 -4 32 2 57 13 26 11 48
19 51 19 15 1 65 33 65 42 0 6 3 8 8 5 4 -2 30 9 57 25 28 16 60 33 72 38 11
5 25 16 29 23 6 10 4 10 -9 -1 -11 -9 -17 -10 -17 -2 0 10 14 15 34 12 13 -3
46 30 40 40 -3 5 1 6 9 3 8 -3 21 6 31 20 12 19 13 26 4 26 -9 0 -8 3 2 10 20
13 33 13 25 0 -11 -18 11 -10 30 10 10 11 14 20 9 20 -5 0 3 11 18 23 19 17
26 31 23 46 -3 17 0 21 10 17 20 -7 20 63 0 90 -8 11 -14 14 -15 6 0 -11 -27
-45 -85 -106 -44 -47 -124 -106 -203 -149 -45 -25 -86 -46 -90 -47 -14 -1
-137 -43 -147 -50 -13 -9 -16 -9 -152 -13 -62 -2 -113 0 -113 5 0 4 -7 8 -16
8 -21 0 -109 44 -132 67 -29 28 -82 110 -82 126 0 22 -11 48 -19 43 -3 -2 -6
12 -6 32 -1 21 -4 60 -8 87 -10 72 -15 140 -23 318 -4 86 -10 157 -15 157 -4
0 -7 8 -7 18 2 36 -24 212 -49 321 -31 144 -72 261 -132 376 -25 50 -47 93
-49 98 -5 10 8 9 70 -4z m-1014 -144 c-3 -3 -9 2 -12 12 -6 14 -5 15 5 6 7 -7
10 -15 7 -18z m-13 -95 c3 -5 1 -10 -4 -10 -6 0 -11 5 -11 10 0 6 2 10 4 10 3
0 8 -4 11 -10z m-58 -120 c-1 -17 -3 -18 -15 -6 -8 8 -11 19 -7 25 9 16 24 4
22 -19z m998 -102 c4 -27 3 -53 -1 -58 -5 -4 -133 -54 -284 -110 -151 -56
-341 -135 -423 -174 l-147 -73 22 37 c13 20 45 73 72 117 l49 80 100 47 c116
56 350 145 486 186 111 33 115 31 126 -52z m-1056 -34 c-6 -8 -8 -14 -3 -14 4
0 -2 -9 -14 -20 -25 -24 -32 -25 -32 -5 0 8 3 14 8 13 4 -2 9 2 10 7 10 28 24
45 33 39 6 -4 6 -11 -2 -20z m-124 -134 c-27 -12 -43 -12 -25 0 8 5 22 9 30 9
10 0 8 -3 -5 -9z m1220 -122 c3 -57 2 -150 -2 -208 l-8 -105 -210 -105 c-115
-58 -239 -119 -275 -135 -36 -16 -105 -48 -155 -71 -91 -43 -105 -45 -105 -17
0 30 -52 246 -77 320 -13 41 -23 76 -21 78 7 7 228 115 293 143 39 16 158 62
265 102 107 40 211 78 230 85 58 23 58 23 65 -87z m-1265 68 c0 -2 -7 -7 -16
-10 -8 -3 -12 -2 -9 4 6 10 25 14 25 6z m-70 -87 c0 -6 -4 -7 -10 -4 -5 3 -10
11 -10 16 0 6 5 7 10 4 6 -3 10 -11 10 -16z m428 -351 c37 -111 54 -182 63
-260 l12 -107 -24 -20 c-27 -23 -72 -27 -86 -8 -12 14 -73 271 -73 307 -1 14
-11 47 -24 73 l-24 48 45 60 c25 32 48 59 53 59 4 0 31 -69 58 -152z m-158
-244 c12 -52 23 -115 23 -140 l2 -45 -153 -60 c-180 -70 -235 -83 -273 -64
-14 8 -56 22 -93 31 l-67 17 63 34 c106 59 309 198 388 266 41 36 78 63 82 61
3 -2 16 -47 28 -100z m-3816 -55 c20 -12 36 -29 36 -39 0 -24 61 -182 100
-260 17 -34 65 -112 105 -174 89 -134 103 -184 74 -268 -22 -67 -103 -144
-216 -208 -55 -31 -78 -50 -75 -60 3 -11 1 -12 -7 -4 -17 15 -181 -64 -173
-84 4 -11 1 -12 -15 -4 -12 7 -25 7 -34 1 -7 -5 -12 -9 -9 -9 44 -7 79 -8 79
-2 -3 19 2 23 16 12 11 -9 15 -9 15 -1 0 7 12 11 28 10 51 -4 62 0 55 19 -6
14 -4 15 9 4 12 -10 18 -9 28 3 10 12 15 13 21 4 6 -10 14 -10 36 1 15 7 31
14 35 14 3 1 9 4 13 8 4 4 14 4 23 1 10 -4 13 -2 8 5 -5 8 -2 10 9 6 9 -4 28
-1 43 6 27 13 37 17 100 40 17 7 32 17 32 22 0 5 4 6 10 3 10 -6 172 75 201
101 14 13 21 11 56 -18 21 -18 50 -40 63 -49 l25 -16 -55 -35 c-189 -121 -590
-278 -815 -319 -166 -30 -315 -35 -407 -15 -269 60 -351 291 -208 581 103 208
386 506 657 693 42 28 82 52 89 52 7 0 29 -9 48 -21z m536 -210 c255 -86 395
-124 574 -154 189 -32 287 -43 436 -50 206 -10 240 -20 240 -77 l0 -31 184 7
c100 4 194 9 206 11 33 6 21 -2 -110 -80 -109 -65 -253 -166 -266 -186 -15
-24 -429 3 -613 41 -177 36 -498 149 -616 217 -96 56 -122 78 -185 163 -51 69
-130 207 -130 228 0 9 9 8 38 -4 20 -9 129 -47 242 -85z m4069 -206 c-105
-154 -247 -266 -490 -388 -85 -43 -90 -44 -84 -23 23 73 40 91 123 135 172 89
343 201 432 281 25 23 46 41 48 42 2 0 -12 -21 -29 -47z m651 -13 c0 -5 -2
-10 -4 -10 -3 0 -8 5 -11 10 -3 6 -1 10 4 10 6 0 11 -4 11 -10z m-30 -44 c0
-3 -4 -8 -10 -11 -5 -3 -10 -1 -10 4 0 6 5 11 10 11 6 0 10 -2 10 -4z m-4620
-104 c0 -12 -3 -12 -15 -2 -8 7 -15 13 -15 15 0 1 7 2 15 2 8 0 15 -7 15 -15z
m2395 -21 c137 -44 195 -97 195 -177 0 -70 -62 -148 -325 -409 -171 -169 -250
-239 -397 -349 -43 -32 -78 -62 -78 -66 0 -3 -6 -7 -13 -7 -7 0 -40 -18 -73
-40 -41 -28 -60 -47 -60 -62 0 -18 2 -19 17 -5 9 8 20 14 25 13 21 -4 26 2 14
16 -10 12 -7 17 14 26 20 10 29 10 38 1 17 -17 24 -15 49 11 12 12 19 16 15
10 -11 -20 8 -15 32 7 12 11 26 20 32 20 17 0 70 42 64 52 -3 4 2 8 11 8 9 0
14 4 11 8 -7 12 39 36 52 28 5 -3 16 2 23 12 13 15 12 16 -3 3 -10 -7 -18 -9
-18 -3 0 5 14 15 30 21 17 5 30 15 30 20 0 6 7 8 15 4 10 -3 15 0 13 8 -2 7 3
13 11 14 8 0 16 6 19 14 3 9 0 11 -8 6 -9 -6 -11 -4 -6 4 5 7 14 10 22 7 8 -3
11 0 7 9 -3 8 -10 12 -17 9 -6 -3 -2 2 8 10 11 9 25 16 30 16 6 0 4 -5 -4 -10
-8 -5 -10 -10 -4 -10 5 0 15 5 22 12 7 7 12 9 12 5 0 -4 9 -3 20 3 16 9 18 15
10 30 -13 24 -12 40 1 18 10 -18 30 -25 28 -10 -4 22 3 31 18 25 10 -4 14 -2
9 5 -3 6 3 13 14 17 11 3 20 11 20 16 0 6 5 7 10 4 6 -3 10 -2 10 4 0 5 -10
12 -22 14 -20 4 -19 4 5 6 15 0 36 10 47 21 12 12 25 18 31 15 5 -4 8 -3 7 2
-5 17 24 54 38 49 9 -3 12 -1 9 4 -3 6 2 10 12 10 15 0 16 2 3 10 -8 5 -12 10
-7 10 4 0 9 -1 10 -2 2 -2 12 3 21 11 13 11 14 16 4 22 -10 6 -8 12 9 24 12 8
29 22 38 31 9 9 15 11 15 4 0 -6 5 -8 12 -4 8 5 6 11 -5 19 -9 7 -14 15 -10
18 3 4 13 1 21 -6 13 -9 14 -9 8 1 -11 18 4 38 15 21 7 -11 10 -9 15 8 4 13
11 20 16 17 5 -3 12 3 15 15 3 11 10 18 16 14 7 -4 8 0 4 11 -5 14 -3 17 8 12
9 -3 15 0 15 9 0 8 5 15 10 15 6 0 10 6 10 13 0 7 22 37 49 66 28 30 48 58 45
63 -3 4 0 8 5 8 6 0 17 15 25 33 l14 32 1 -30 c0 -68 -95 -254 -211 -411 -209
-281 -550 -566 -888 -740 -151 -78 -209 -101 -365 -140 -138 -36 -262 -31
-357 13 -84 39 -131 82 -163 148 -87 177 2 450 230 705 159 178 318 293 609
440 l195 98 213 -2 c190 -2 221 -5 283 -25z m-2370 -2 c-5 -14 -4 -19 4 -15 6
4 19 3 28 -3 15 -8 13 -10 -12 -8 -17 1 -30 8 -29 15 2 25 4 32 10 32 3 0 2
-10 -1 -21z m75 -80 c0 -5 4 -8 9 -4 5 3 12 1 16 -5 10 -16 -21 -12 -35 5 -9
10 -9 15 -1 15 6 0 11 -5 11 -11z m70 -54 c30 -23 368 -174 465 -208 85 -29
170 -52 274 -73 24 -5 24 -5 -14 -44 l-37 -38 -72 20 c-235 66 -461 184 -620
325 -49 44 -46 58 4 18z m5263 -21 c-17 -12 -17 -13 0 -14 9 0 17 -7 17 -16 0
-8 5 -12 10 -9 6 3 10 1 10 -4 0 -6 -5 -11 -11 -11 -6 0 -9 -6 -6 -13 3 -8 0
-14 -6 -15 -7 0 -27 -3 -44 -6 -28 -4 -33 -2 -33 15 0 12 -4 17 -11 13 -8 -4
-9 0 -4 15 5 16 3 20 -10 15 -9 -4 -14 -13 -10 -22 4 -12 3 -13 -10 -2 -14 11
-13 14 5 27 11 8 24 12 29 9 11 -7 71 25 71 37 0 5 5 5 11 2 6 -5 4 -12 -8
-21z m-121 -81 c-6 -2 -10 -9 -7 -14 4 -5 -1 -6 -9 -3 -20 8 -11 24 12 23 11
0 12 -2 4 -6z m48 3 c0 -3 -4 -8 -10 -11 -5 -3 -10 -1 -10 4 0 6 5 11 10 11 6
0 10 -2 10 -4z m-96 -28 c-3 -4 -9 -8 -15 -8 -5 0 -9 4 -9 8 0 5 7 9 15 9 8 0
12 -4 9 -9z m176 2 c0 -5 -5 -10 -11 -10 -5 0 -7 5 -4 10 3 6 8 10 11 10 2 0
4 -4 4 -10z m-255 -10 c3 -5 1 -10 -4 -10 -6 0 -11 5 -11 10 0 6 2 10 4 10 3
0 8 -4 11 -10z m40 0 c3 -5 1 -10 -4 -10 -6 0 -11 5 -11 10 0 6 2 10 4 10 3 0
8 -4 11 -10z m155 0 c0 -5 -4 -10 -10 -10 -5 0 -10 5 -10 10 0 6 5 10 10 10 6
0 10 -4 10 -10z m-66 -34 c-4 -11 -13 -15 -25 -11 -11 4 -19 2 -19 -5 0 -6 -5
-8 -10 -5 -16 10 16 36 34 29 10 -4 16 -1 16 7 0 7 2 10 5 7 3 -3 3 -13 -1
-22z m102 -18 c-6 -4 -16 -1 -22 7 -13 18 -28 20 -18 3 5 -7 3 -8 -6 -3 -7 4
-16 2 -21 -6 -6 -10 -9 -10 -9 -2 0 7 12 19 28 27 24 13 29 12 43 -2 11 -12
13 -19 5 -24z m-373 19 c3 -7 -3 -18 -13 -25 -16 -10 -16 -8 -6 14 13 28 12
28 19 11z m52 3 c-3 -5 -11 -10 -16 -10 -6 0 -7 5 -4 10 3 6 11 10 16 10 6 0
7 -4 4 -10z m95 0 c0 -5 -2 -10 -4 -10 -3 0 -8 5 -11 10 -3 6 -1 10 4 10 6 0
11 -4 11 -10z m45 -8 c-3 -3 -11 0 -18 7 -9 10 -8 11 6 5 10 -3 15 -9 12 -12z
m-2153 -44 c-27 -47 -39 -58 -113 -95 -45 -24 -84 -41 -86 -39 -2 2 10 26 27
52 24 40 45 57 108 90 42 23 81 42 85 43 5 0 -5 -23 -21 -51z m2069 5 c-8 -15
-9 -12 -6 12 5 40 7 43 12 23 2 -10 0 -25 -6 -35z m-31 27 c0 -5 -5 -10 -11
-10 -5 0 -7 5 -4 10 3 6 8 10 11 10 2 0 4 -4 4 -10z m-215 -18 c-3 -3 -11 0
-18 7 -9 10 -8 11 6 5 10 -3 15 -9 12 -12z m85 4 c0 -3 -4 -8 -10 -11 -5 -3
-10 -1 -10 4 0 6 5 11 10 11 6 0 10 -2 10 -4z m380 -15 c-7 -14 -6 -21 3 -25
6 -3 -1 -3 -17 -1 -16 2 -34 9 -39 14 -7 7 -1 9 16 5 15 -2 27 -1 26 3 -3 16
1 23 11 23 7 0 7 -6 0 -19z m-507 -16 c-7 -21 -12 -19 -10 4 0 11 5 18 9 15 4
-3 5 -11 1 -19z m211 -14 c-3 -3 -15 6 -27 18 l-22 24 27 -19 c14 -10 24 -21
22 -23z m176 -5 c0 -6 -7 -1 -15 10 -8 10 -15 23 -15 28 0 6 7 1 15 -10 8 -10
15 -23 15 -28z m-35 5 c3 -5 1 -12 -5 -16 -5 -3 -10 1 -10 9 0 18 6 21 15 7z
m-75 -5 c0 -3 -4 -8 -10 -11 -5 -3 -10 -1 -10 4 0 6 5 11 10 11 6 0 10 -2 10
-4z m43 -17 c4 -16 3 -18 -9 -8 -7 6 -11 15 -8 20 8 13 11 11 17 -12z m-43
-24 c0 -10 9 -13 30 -10 17 2 30 0 30 -5 0 -15 -62 -5 -71 13 -7 11 -7 17 1
17 5 0 10 -7 10 -15z m2 -59 c-3 -5 7 -6 21 -2 l27 6 -23 -23 c-26 -27 -37
-25 -37 8 0 13 -4 27 -10 30 -5 3 -10 10 -10 16 0 5 8 1 18 -8 11 -10 17 -22
14 -27z m75 14 c1 -11 -3 -23 -9 -26 -7 -5 -9 -1 -5 9 4 10 1 17 -6 17 -9 0 3
14 18 20 1 0 1 -9 2 -20z m-5867 0 c0 -5 -2 -10 -4 -10 -3 0 -8 5 -11 10 -3 6
-1 10 4 10 6 0 11 -4 11 -10z m4710 -160 c44 -44 32 -103 -28 -134 -33 -17
-224 -62 -312 -75 -36 -4 -74 -5 -86 -1 -45 17 -52 94 -12 128 8 6 68 23 134
37 66 14 145 34 175 44 70 25 104 26 129 1z m723 -55 c4 -8 3 -16 -1 -19 -4
-3 -9 4 -9 15 -2 23 3 25 10 4z m-2553 -59 c0 -2 -7 -6 -15 -10 -8 -3 -15 -1
-15 4 0 6 7 10 15 10 8 0 15 -2 15 -4z m2470 -6 c0 -5 -4 -10 -10 -10 -5 0
-10 5 -10 10 0 6 5 10 10 10 6 0 10 -4 10 -10z m-100 -90 c0 -5 -2 -10 -4 -10
-3 0 -8 5 -11 10 -3 6 -1 10 4 10 6 0 11 -4 11 -10z m-4596 -70 c-10 -4 -21
-6 -24 -3 -8 7 24 22 34 16 5 -4 1 -10 -10 -13z m-534 -110 c0 -5 6 -7 14 -4
8 3 16 1 20 -4 6 -9 -93 -36 -102 -27 -8 8 4 16 27 18 11 1 21 7 21 14 0 7 5
13 10 13 6 0 10 -4 10 -10z m1150 -60 c0 -5 -7 -7 -15 -4 -8 4 -15 8 -15 10 0
2 7 4 15 4 8 0 15 -4 15 -10z m2853 -65 c-3 -9 -8 -14 -10 -11 -3 3 -2 9 2 15
9 16 15 13 8 -4z m-56 -21 c-3 -3 -12 -4 -19 -1 -8 3 -5 6 6 6 11 1 17 -2 13
-5z m-127 -44 c-15 -11 -19 -19 -11 -24 15 -10 -4 -46 -24 -46 -8 0 -15 2 -15
4 0 2 -3 13 -6 23 -4 13 -3 15 4 4 7 -10 14 -11 28 -2 17 9 17 10 2 11 -26 0
-22 14 7 30 14 7 25 20 26 29 0 13 2 13 6 2 3 -8 -5 -22 -17 -31z m50 21 c0
-6 -4 -13 -10 -16 -5 -3 -10 1 -10 9 0 9 5 16 10 16 6 0 10 -4 10 -9z m-137
-26 c-10 -7 -22 -10 -28 -7 -5 4 -2 8 8 10 9 2 17 8 17 13 0 6 5 7 11 4 6 -5
4 -12 -8 -20z m-93 -5 c0 -5 -4 -10 -10 -10 -5 0 -10 5 -10 10 0 6 5 10 10 10
6 0 10 -4 10 -10z m40 -11 c0 -5 6 -7 13 -3 8 5 7 2 -2 -10 -11 -13 -16 -14
-22 -4 -12 18 -11 28 1 28 6 0 10 -5 10 -11z m65 -9 c-3 -5 -12 -10 -18 -10
-7 0 -6 4 3 10 19 12 23 12 15 0z m-361 -26 c3 -8 2 -12 -4 -9 -6 3 -10 10
-10 16 0 14 7 11 14 -7z m-147 -89 c5 -4 2 -5 -4 -1 -7 4 -13 2 -13 -3 0 -6
-5 -11 -11 -11 -5 0 -8 4 -5 9 4 5 0 12 -6 15 -7 2 -3 4 9 2 12 -1 26 -6 30
-11z m-384 -55 c-3 -12 -8 -19 -11 -16 -5 6 5 36 12 36 2 0 2 -9 -1 -20z m168
-37 c10 -11 10 -14 2 -9 -8 4 -13 2 -13 -4 0 -6 -5 -8 -12 -4 -9 6 -9 9 0 12
7 2 10 8 6 13 -9 15 3 10 17 -8z m-131 -52 c0 -5 -7 -11 -14 -14 -10 -4 -13
-1 -9 9 6 15 23 19 23 5z m56 -7 c15 6 16 4 7 -5 -14 -14 -43 -5 -43 13 0 10
3 9 9 -1 6 -9 16 -11 27 -7z m-146 -15 c0 7 5 9 10 6 7 -4 6 -13 -1 -26 -10
-20 -11 -20 -24 -2 -19 24 -19 39 0 23 11 -9 15 -9 15 -1z m-301 -32 c0 -21
-1 -21 -9 -2 -12 28 -12 37 0 30 6 -3 10 -16 9 -28z m36 23 c3 -6 -1 -7 -9 -4
-18 7 -21 14 -7 14 6 0 13 -4 16 -10z m315 -15 c-7 -8 -17 -15 -22 -15 -11 0
14 29 26 30 5 0 3 -7 -4 -15z m-389 -26 c-13 -11 -26 -17 -29 -14 -7 6 29 34
43 34 6 0 -1 -9 -14 -20z m159 2 c0 -5 -9 -11 -20 -14 -11 -3 -20 -1 -20 3 0
5 8 11 18 13 9 3 18 5 20 6 1 0 2 -3 2 -8z m-59 -28 c12 -14 12 -15 0 -9 -8 5
-16 3 -22 -5 -4 -7 -11 -10 -14 -7 -4 4 -1 14 6 22 17 19 14 19 30 -1z m101
-5 c-7 -7 -12 -8 -12 -2 0 14 12 26 19 19 2 -3 -1 -11 -7 -17z m-64 -33 c-3
-3 -9 2 -12 12 -6 14 -5 15 5 6 7 -7 10 -15 7 -18z m-98 11 c0 -3 -4 -8 -10
-11 -5 -3 -10 -1 -10 4 0 6 5 11 10 11 6 0 10 -2 10 -4z m34 -24 c2 -4 -7 -9
-20 -10 -15 -1 -22 2 -19 8 7 12 32 13 39 2z m-100 -67 c-4 -8 -11 -15 -16
-15 -6 0 -5 6 2 15 7 8 14 15 16 15 2 0 1 -7 -2 -15z"/>
<path d="M6581 7705 c-115 -54 -288 -209 -358 -321 -31 -50 -23 -48 -135 -24
-45 10 -64 10 -86 1 -32 -13 -58 -52 -49 -73 2 -8 42 -32 89 -55 137 -68 228
-171 269 -303 22 -71 42 -100 71 -100 75 0 109 106 75 237 -16 60 -7 174 19
243 43 114 155 246 241 286 44 20 50 34 33 78 -10 28 -57 56 -92 56 -13 0 -47
-12 -77 -25z"/>
<path d="M2936 6408 c-20 -28 -20 -62 -1 -78 21 -18 48 -8 64 24 27 57 -28
105 -63 54z"/>
<path d="M2844 6191 c-103 -26 -204 -116 -256 -227 -37 -80 -35 -135 7 -171
54 -47 104 -42 168 16 56 51 77 61 131 61 40 0 51 -5 84 -38 20 -21 46 -62 57
-91 42 -113 139 -137 193 -49 28 46 35 111 22 193 -28 172 -158 302 -312 311
-35 2 -77 0 -94 -5z"/>
<path d="M4928 5682 c-138 -50 -268 -217 -268 -343 0 -58 42 -99 102 -99 38 0
52 6 99 47 64 54 104 73 158 73 80 0 110 -24 172 -136 44 -80 62 -98 101 -108
47 -11 92 16 118 69 19 40 22 58 18 130 -4 71 -10 95 -41 158 -46 94 -131 176
-212 206 -70 26 -180 27 -247 3z"/>
<path d="M3610 5629 c-66 -13 -146 -56 -179 -96 -36 -44 -56 -110 -46 -160 16
-88 96 -188 172 -215 41 -15 41 -28 1 -73 -40 -47 -93 -73 -160 -81 -45 -5
-61 -1 -108 23 -65 33 -95 74 -104 142 -18 136 -176 112 -176 -28 0 -70 29
-132 92 -194 57 -56 58 -58 44 -85 -52 -100 -75 -242 -57 -348 61 -349 437
-541 760 -388 168 79 299 285 345 538 11 57 13 61 61 89 138 80 191 183 130
255 -47 55 -107 46 -155 -23 -17 -24 -52 -57 -78 -72 -41 -25 -57 -28 -132
-28 -70 0 -93 4 -130 23 -61 32 -97 68 -127 125 -36 71 -30 91 32 98 89 11
195 82 229 153 55 117 -40 273 -199 329 -54 19 -160 27 -215 16z m165 -79 c39
-20 42 -57 5 -51 -14 2 -76 4 -139 5 -72 1 -116 5 -118 12 -4 13 25 40 52 47
38 10 170 1 200 -13z m-414 -720 c18 -10 18 -13 4 -40 -8 -16 -15 -31 -15 -33
0 -2 33 -7 73 -10 103 -8 107 -10 107 -68 0 -51 16 -99 34 -99 12 0 55 51 75
89 11 20 18 22 53 17 53 -9 176 -69 216 -106 18 -16 32 -37 32 -48 0 -30 -118
-140 -191 -177 -81 -41 -199 -61 -263 -44 -173 47 -256 175 -227 352 10 62 37
132 63 165 13 15 14 15 39 2z"/>
<path d="M6580 4340 c0 -5 5 -10 10 -10 6 0 10 5 10 10 0 6 -4 10 -10 10 -5 0
-10 -4 -10 -10z"/>
<path d="M6378 4163 c7 -3 16 -2 19 1 4 3 -2 6 -13 5 -11 0 -14 -3 -6 -6z"/>
<path d="M6322 4139 c2 -6 8 -10 13 -10 5 0 11 4 13 10 2 6 -4 11 -13 11 -9 0
-15 -5 -13 -11z"/>
<path d="M6365 4140 c3 -5 10 -10 16 -10 5 0 9 5 9 10 0 6 -7 10 -16 10 -8 0
-12 -4 -9 -10z"/>
<path d="M8490 5059 c0 -5 5 -7 10 -4 6 3 10 8 10 11 0 2 -4 4 -10 4 -5 0 -10
-5 -10 -11z"/>
<path d="M2680 2490 c-12 -7 -10 -9 7 -7 12 0 19 5 17 9 -6 10 -6 10 -24 -2z"/>
<path d="M6055 2560 c-3 -5 1 -10 10 -10 9 0 13 5 10 10 -3 6 -8 10 -10 10 -2
0 -7 -4 -10 -10z"/>
<path d="M5241 1941 c-11 -7 -11 -10 0 -17 7 -4 14 -3 17 4 2 7 8 10 13 6 5
-3 9 0 9 5 0 13 -20 14 -39 2z"/>
<path d="M5128 1891 c-27 -16 -38 -41 -18 -41 6 0 9 5 8 11 -2 6 3 14 11 17 9
3 11 0 6 -8 -5 -9 -4 -11 4 -6 6 4 9 11 6 16 -3 4 1 10 7 13 7 2 11 6 8 9 -3
3 -17 -2 -32 -11z"/>
<path d="M5054 1845 c-20 -15 -11 -18 20 -6 11 4 15 10 9 14 -5 3 -19 0 -29
-8z"/>
<path d="M8912 2820 c-8 -13 -8 -20 -1 -20 5 0 8 -4 4 -9 -3 -6 3 -9 14 -8 11
0 17 6 14 14 -3 7 2 13 12 13 15 0 15 2 1 15 -20 20 -29 19 -44 -5z"/>
<path d="M48 4143 c7 -3 16 -2 19 1 4 3 -2 6 -13 5 -11 0 -14 -3 -6 -6z"/>
<path d="M11 3494 c0 -11 3 -14 6 -6 3 7 2 16 -1 19 -3 4 -6 -2 -5 -13z"/>
<path d="M9167 2974 c3 -8 0 -21 -7 -29 -6 -8 -9 -18 -6 -23 3 -5 -6 -7 -19
-4 -15 2 -25 0 -25 -8 0 -7 8 -9 20 -5 23 7 28 -10 5 -19 -8 -3 -17 -4 -19 -3
-5 3 -36 -25 -36 -32 0 -4 13 -6 30 -3 17 2 27 9 23 15 -4 6 1 8 14 5 15 -4
19 0 19 15 -1 14 7 23 24 28 24 7 24 7 3 8 -13 1 -23 7 -23 15 0 21 21 31 31
15 5 -8 9 -9 9 -4 0 15 -13 31 -32 38 -12 4 -15 2 -11 -9z"/>
<path d="M9210 2986 c0 -2 8 -10 18 -17 15 -13 16 -12 3 4 -13 16 -21 21 -21
13z"/>
<path d="M9111 2977 c2 -1 12 -9 22 -16 15 -12 17 -12 11 3 -3 9 -13 16 -22
16 -8 0 -13 -1 -11 -3z"/>
<path d="M9041 2894 c0 -11 3 -14 6 -6 3 7 2 16 -1 19 -3 4 -6 -2 -5 -13z"/>
<path d="M9265 2890 c-3 -5 -1 -10 4 -10 6 0 11 5 11 10 0 6 -2 10 -4 10 -3 0
-8 -4 -11 -10z"/>
<path d="M0 2710 l0 -169 23 22 c18 18 20 23 7 30 -8 4 1 5 20 1 19 -3 41 -6
48 -7 6 0 12 -3 12 -7 0 -3 14 -17 31 -29 18 -13 29 -19 25 -12 -4 6 -1 11 8
11 8 0 18 -5 22 -12 4 -7 3 -8 -4 -4 -17 10 -15 -9 3 -24 8 -6 19 -9 24 -6 5
4 13 1 17 -5 5 -8 3 -9 -7 -4 -12 8 -12 6 0 -8 7 -10 21 -16 30 -15 8 2 16 -3
16 -10 0 -16 104 -84 117 -76 4 3 8 1 8 -4 0 -6 8 -9 18 -7 9 1 11 0 5 -2 -24
-8 -13 -23 17 -23 18 0 33 -6 36 -15 7 -18 184 -105 214 -105 30 0 70 -29 70
-51 0 -17 9 -19 88 -19 48 -1 100 -7 117 -14 35 -15 71 -4 80 26 5 13 16 18
41 18 34 0 34 0 34 45 0 25 -4 45 -10 45 -5 0 -10 6 -10 14 0 15 -34 31 -100
46 -25 5 -74 19 -109 29 -36 11 -67 18 -70 16 -2 -3 -12 2 -22 11 -10 9 -25
14 -34 11 -8 -4 -15 -2 -15 4 0 6 -4 8 -9 5 -5 -3 -11 0 -14 8 -3 8 -21 17
-39 21 -18 4 -37 11 -43 15 -5 4 -40 24 -76 43 -52 28 -69 33 -79 24 -10 -9
-11 -9 -8 3 5 15 -47 55 -124 95 -20 10 -35 23 -32 27 3 4 -5 8 -16 8 -14 0
-24 8 -27 21 -4 12 -11 18 -20 15 -8 -3 -11 -1 -8 4 3 5 -9 24 -26 42 -18 18
-29 27 -25 21 11 -20 -9 -15 -28 6 -13 15 -14 20 -4 24 11 4 11 6 0 6 -7 1
-11 5 -8 10 3 4 -6 6 -21 3 -22 -4 -25 -2 -21 15 4 17 2 19 -15 15 -17 -4 -19
-1 -15 16 6 20 2 22 -43 22 l-49 0 0 -170z m125 -116 c9 -9 13 -19 10 -23 -4
-3 -11 2 -16 12 -6 9 -14 15 -20 12 -5 -4 -9 -1 -9 4 0 16 16 13 35 -5z"/>
<path d="M9139 2827 c6 -8 7 -18 3 -22 -4 -5 -1 -5 6 -1 10 6 10 11 1 22 -6 8
-14 14 -16 14 -3 0 0 -6 6 -13z"/>
<path d="M9085 2788 c4 -10 11 -18 15 -18 4 0 14 8 21 18 12 15 12 16 -2 5
-12 -10 -18 -10 -28 0 -10 9 -11 8 -6 -5z"/>
<path d="M9040 2752 c0 -12 3 -12 15 -2 8 7 15 13 15 15 0 1 -7 2 -15 2 -8 0
-15 -7 -15 -15z"/>
<path d="M9099 2758 c-8 -16 -4 -57 8 -73 13 -19 14 -18 7 10 -4 17 -7 38 -6
48 1 14 -5 23 -9 15z"/>
<path d="M9130 2650 c0 -5 5 -10 11 -10 5 0 7 5 4 10 -3 6 -8 10 -11 10 -2 0
-4 -4 -4 -10z"/>
<path d="M9076 2637 c3 -10 9 -15 12 -12 3 3 0 11 -7 18 -10 9 -11 8 -5 -6z"/>
<path d="M9028 2618 c5 -5 16 -8 23 -6 8 3 3 7 -10 11 -17 4 -21 3 -13 -5z"/>
<path d="M8834 2599 c-4 -8 1 -9 16 -4 15 5 20 4 16 -4 -5 -7 -1 -9 8 -5 9 3
13 10 10 15 -7 13 -41 11 -50 -2z"/>
<path d="M8954 2596 c-5 -14 -9 -15 -15 -5 -4 8 -11 10 -16 6 -4 -5 -1 -12 7
-17 16 -10 49 14 37 26 -4 4 -10 -1 -13 -10z"/>
<path d="M10170 2514 c-124 -125 -321 -264 -510 -359 -91 -46 -313 -128 -395
-145 -33 -8 -66 -18 -73 -23 -6 -5 -27 -13 -45 -17 -23 -6 -26 -8 -9 -9 28 -1
30 -37 2 -44 -15 -4 -20 -14 -20 -41 0 -25 -4 -36 -15 -36 -9 0 -15 -9 -14
-22 1 -17 2 -19 6 -5 8 29 24 19 19 -13 -4 -25 0 -31 20 -36 13 -3 22 -10 19
-14 -3 -5 0 -19 5 -32 10 -22 10 -22 5 3 -3 19 0 29 11 33 23 9 23 9 21 -31
-2 -32 -6 -38 -24 -38 -13 0 -31 -9 -40 -20 -17 -18 -17 -18 0 -6 9 8 20 11
24 7 13 -12 -6 -19 -75 -25 -7 0 -10 -6 -6 -13 4 -7 3 -8 -5 -4 -7 4 -41 -5
-77 -20 l-65 -28 33 -10 c40 -13 49 -47 19 -73 -17 -14 -21 -29 -21 -75 l0
-57 -117 -3 -118 -3 -3 -37 c-3 -37 -4 -38 -42 -38 -21 0 -40 5 -42 11 -5 15
-76 -15 -84 -36 -4 -9 -18 -15 -36 -15 -17 0 -47 -9 -67 -19 -97 -51 -372
-136 -551 -169 -30 -6 -91 -13 -135 -15 -44 -2 -64 -2 -45 0 19 3 39 8 45 13
5 4 43 13 84 19 41 7 78 14 83 17 5 3 45 14 90 25 95 23 298 88 315 101 7 6
17 7 23 3 5 -3 10 -2 10 3 0 6 16 13 35 16 l35 7 0 58 0 59 -35 6 c-19 4 -62
4 -94 0 -39 -4 -61 -3 -65 5 -4 7 -1 9 8 5 18 -7 79 24 71 36 -7 11 33 25 59
21 13 -2 17 2 13 13 -4 9 1 17 11 21 27 10 63 61 69 100 6 39 -11 66 -59 91
-45 23 -77 16 -172 -39 -341 -198 -749 -296 -1211 -291 -108 1 -210 9 -224 19
-6 3 -11 -1 -11 -9 0 -12 -10 -16 -35 -16 -24 0 -35 5 -35 15 0 16 -37 29 -66
23 -10 -2 -22 -17 -27 -35 -9 -30 -12 -32 -81 -40 -75 -9 -85 -17 -72 -68 4
-17 15 -24 43 -28 21 -2 43 0 49 5 13 10 24 -11 24 -47 0 -14 7 -26 19 -30 10
-3 22 -17 25 -31 8 -30 -13 -84 -32 -84 -22 0 -101 -42 -99 -52 1 -6 -4 -13
-12 -16 -9 -3 -11 0 -6 8 6 9 2 9 -16 0 -30 -16 -39 -25 -16 -17 30 11 19 -8
-15 -26 -18 -10 -46 -26 -63 -36 -16 -11 -38 -20 -47 -20 -10 -1 -18 -4 -18
-8 0 -9 -48 -33 -63 -33 -6 0 -15 -6 -21 -14 -11 -14 -152 -66 -180 -66 -9 0
-16 -4 -16 -9 0 -4 -27 -14 -60 -21 -34 -7 -60 -18 -60 -25 0 -8 -25 -15 -67
-19 -105 -10 -133 -17 -133 -32 0 -10 -15 -14 -59 -14 -49 0 -59 -3 -63 -18
-5 -16 -19 -19 -109 -24 -57 -3 -200 -5 -316 -4 -117 1 -213 -2 -213 -6 0 -12
-148 -9 -155 2 -8 13 -45 13 -45 -1 0 -6 -5 -7 -12 -2 -7 4 -38 11 -68 14 -73
9 -237 47 -278 65 -18 8 -39 14 -47 14 -15 0 -91 34 -270 120 -55 26 -115 53
-132 60 -18 7 -33 16 -33 21 0 5 -11 9 -23 9 -33 0 -57 30 -58 71 -1 19 -3 26
-6 17 -5 -20 -33 -25 -33 -7 0 7 8 18 18 25 14 11 7 12 -45 8 -35 -3 -63 -2
-63 1 0 4 10 15 22 25 17 13 28 15 40 9 10 -5 18 -7 18 -4 0 5 -115 65 -127
65 -4 0 2 -7 13 -15 15 -11 16 -14 4 -15 -21 0 -62 29 -55 40 3 5 -3 14 -14
19 -27 15 -44 14 -35 -1 4 -7 3 -10 -1 -5 -12 10 -14 48 -4 75 8 20 7 22 -11
12 -17 -9 -22 -7 -30 15 -6 15 -10 42 -10 61 0 27 -4 34 -20 34 -13 0 -20 7
-20 20 0 11 -7 20 -15 20 -10 0 -17 14 -21 40 -5 30 -11 40 -25 40 -11 0 -19
7 -19 15 0 21 -13 19 -120 -16 -52 -17 -105 -33 -117 -34 -11 -2 -30 -6 -41
-9 -26 -9 -80 -18 -114 -20 -14 0 -29 -3 -31 -6 -8 -8 -365 7 -457 20 -347 47
-687 204 -928 428 -143 132 -176 145 -232 95 -47 -43 -54 -123 -13 -168 10
-11 30 -35 46 -53 15 -19 27 -30 27 -26 0 5 7 -2 16 -14 8 -12 21 -22 28 -22
8 0 13 -8 12 -17 0 -10 4 -17 11 -16 6 1 17 -4 23 -12 7 -8 18 -15 24 -15 6 0
4 5 -4 11 -13 9 -13 10 0 6 8 -2 14 -12 12 -21 -3 -14 1 -16 16 -12 13 4 22 1
26 -9 3 -8 11 -14 18 -13 7 2 12 -3 10 -9 -1 -7 2 -14 8 -14 5 -1 15 -2 21 -3
6 0 17 -10 25 -20 8 -11 14 -14 14 -7 0 7 5 9 10 6 6 -4 8 -11 5 -16 -4 -5 0
-9 7 -9 7 0 19 -9 26 -20 11 -18 10 -20 -18 -20 -16 0 -30 -4 -30 -10 0 -17
67 -12 74 6 6 15 9 15 32 -1 18 -12 24 -13 19 -4 -3 8 0 6 9 -5 8 -10 19 -15
24 -12 6 3 13 -1 16 -10 3 -8 2 -12 -4 -9 -6 3 -10 1 -10 -4 0 -13 6 -14 28
-2 12 6 28 3 52 -10 22 -11 28 -18 18 -19 -25 0 -23 -20 2 -20 11 0 20 5 20
11 0 5 5 7 10 4 6 -4 20 -8 33 -10 35 -7 97 -42 89 -50 -4 -5 1 -5 10 -2 13 5
18 1 18 -13 0 -16 -9 -19 -62 -22 l-63 -3 -3 -38 c-2 -21 1 -37 7 -37 6 0 11
16 11 35 l0 35 60 0 c56 0 60 2 60 23 0 20 1 20 15 -7 22 -41 19 -46 -25 -46
-33 0 -40 -3 -40 -20 0 -26 -60 -38 -107 -21 -18 7 -46 11 -62 10 -15 -2 -39
4 -52 12 -13 9 -42 21 -64 26 -63 17 -171 60 -236 93 -33 16 -71 30 -84 30
-17 0 -25 6 -25 18 0 15 -55 55 -77 54 -12 0 -64 37 -91 65 -13 12 -34 23 -47
23 -27 0 -30 13 -25 94 2 44 -9 56 -57 56 -31 0 -33 2 -33 35 0 35 -29 63 -38
37 -2 -7 -12 -12 -23 -12 -14 0 -19 -7 -19 -30 0 -28 -2 -30 -40 -30 -29 0
-40 4 -40 15 0 11 -11 15 -39 15 -33 0 -40 4 -43 23 -3 21 -8 22 -103 25 -117
3 -145 -2 -145 -26 0 -12 -14 -22 -45 -31 -44 -13 -77 -12 -152 4 -28 6 -33 5
-33 -11 -1 -18 -1 -18 -11 -1 -7 12 -22 17 -51 17 -22 0 -66 7 -98 15 -31 8
-98 18 -148 23 l-92 8 0 -58 0 -58 40 0 40 0 0 -40 0 -40 40 0 c33 0 40 -3 40
-20 0 -13 -7 -20 -20 -20 -17 0 -20 -7 -20 -39 0 -29 -5 -41 -17 -44 -10 -3
-1 -5 20 -6 34 -1 37 -3 37 -31 l0 -30 -80 0 -80 0 0 -645 0 -645 5120 0 5120
0 0 719 0 720 -37 3 -38 3 -3 65 c-5 95 1 110 43 110 35 0 47 13 22 23 -7 3
-42 1 -77 -4 -98 -13 -102 -13 -150 -10 l-45 3 65 18 c43 12 57 19 40 20 -14
2 11 6 55 11 44 5 81 13 83 19 2 5 12 10 23 10 18 0 19 9 19 160 0 177 2 173
-65 146 -33 -14 -48 -36 -25 -36 6 0 10 -4 10 -10 0 -5 -9 -10 -20 -10 -11 0
-20 5 -20 10 0 6 -5 10 -11 10 -5 0 -7 -5 -3 -12 5 -8 2 -9 -9 -5 -11 4 -20
-1 -27 -13 -6 -11 -15 -20 -21 -20 -21 0 -147 -66 -160 -83 -3 -5 -9 -8 -13
-8 -26 4 -36 -2 -36 -20 0 -14 -5 -19 -14 -16 -8 3 -33 -3 -55 -14 -22 -10
-49 -19 -59 -19 -21 0 -32 -18 -32 -55 0 -19 -6 -23 -47 -28 -51 -5 -66 -1
-44 12 27 17 -71 33 -106 18 -12 -6 -20 -14 -17 -19 9 -14 -19 -19 -68 -9 -27
4 -45 5 -42 0 3 -5 -5 -9 -17 -9 -17 0 -20 3 -12 11 6 6 9 28 6 48 -4 32 -1
41 21 58 14 11 24 22 21 24 -2 2 6 5 18 5 37 3 116 35 252 102 245 122 349
186 503 311 l92 75 0 133 c0 73 -1 133 -3 133 -1 0 -32 -30 -67 -66z m-13
-600 c-3 -3 -12 -4 -19 -1 -8 3 -5 6 6 6 11 1 17 -2 13 -5z m-997 -39 c0 -24
-5 -35 -15 -35 -10 0 -15 11 -15 35 0 24 5 35 15 35 10 0 15 -11 15 -35z m150
-147 c-1 -37 -40 -56 -82 -38 -21 8 -21 9 9 9 23 1 33 7 38 21 7 22 35 28 35
8z m225 -38 c3 -5 1 -10 -4 -10 -6 0 -11 5 -11 10 0 6 2 10 4 10 3 0 8 -4 11
-10z m-9400 -40 c3 -5 1 -10 -4 -10 -6 0 -11 5 -11 10 0 6 2 10 4 10 3 0 8 -4
11 -10z m8962 -46 c-3 -3 -12 -4 -19 -1 -8 3 -5 6 6 6 11 1 17 -2 13 -5z m-20
-141 c-3 -10 -5 -2 -5 17 0 19 2 27 5 18 2 -10 2 -26 0 -35z m-8367 -63 c0
-27 -3 -30 -30 -30 -27 0 -30 3 -30 30 0 27 3 30 30 30 27 0 30 -3 30 -30z
m210 -65 c0 -8 9 -15 20 -15 11 0 20 7 20 15 0 10 11 15 35 15 32 0 35 -2 35
-30 l0 -30 -115 0 -115 0 0 30 0 30 60 0 c47 0 60 -3 60 -15z m8270 -15 c0
-27 -3 -30 -30 -30 -27 0 -30 3 -30 30 0 27 3 30 30 30 27 0 30 -3 30 -30z
m160 0 c0 -27 -3 -30 -30 -30 -27 0 -30 3 -30 30 0 27 3 30 30 30 27 0 30 -3
30 -30z m-1215 1 c3 -5 2 -12 -3 -15 -5 -3 -9 1 -9 9 0 17 3 19 12 6z m-50
-21 c-3 -5 -12 -10 -18 -10 -7 0 -6 4 3 10 19 12 23 12 15 0z m-6708 -61 c47
-50 62 -82 63 -137 0 -68 -59 -112 -150 -112 -47 0 -127 50 -150 95 -31 60
-27 105 13 142 47 45 66 52 129 53 54 0 59 -2 95 -41z m5257 -87 c3 -5 -1 -9
-9 -9 -8 0 -12 4 -9 9 3 4 7 8 9 8 2 0 6 -4 9 -8z m648 -42 c14 -10 28 -17 32
-15 3 3 4 2 1 -1 -2 -4 1 -16 7 -28 16 -29 28 -87 17 -80 -5 3 -9 -4 -9 -15 0
-11 -5 -23 -10 -26 -6 -4 -8 -10 -5 -15 3 -4 -7 -11 -20 -14 -14 -4 -24 -10
-21 -14 6 -10 -35 -16 -102 -16 -43 1 -57 5 -81 28 -54 52 -47 139 15 183 53
38 137 44 176 13z m-3667 -38 c-3 -3 -11 0 -18 7 -9 10 -8 11 6 5 10 -3 15 -9
12 -12z m-641 -23 l231 -1 -80 -14 c-119 -22 -445 -8 -445 18 0 6 13 8 31 4
17 -3 136 -6 263 -7z m766 -39 c0 -5 -5 -10 -11 -10 -5 0 -7 5 -4 10 3 6 8 10
11 10 2 0 4 -4 4 -10z m2860 -29 c0 -5 -7 -12 -16 -15 -14 -5 -15 -4 -4 9 14
17 20 19 20 6z"/>
<path d="M8900 2566 c0 -2 8 -10 18 -17 15 -13 16 -12 3 4 -13 16 -21 21 -21
13z"/>
<path d="M8843 2543 c-15 -5 -17 -23 -4 -23 5 0 11 7 15 15 3 8 4 15 3 14 -1
0 -8 -3 -14 -6z"/>
<path d="M8605 2448 c5 -19 4 -20 -5 -8 -9 11 -13 12 -17 3 -2 -7 -12 -13 -21
-14 -11 0 -12 -2 -4 -6 6 -2 12 -10 12 -16 -1 -7 -9 -3 -18 8 -38 43 -93 53
-99 19 -3 -15 52 -38 71 -31 10 4 13 1 9 -9 -6 -17 -3 -17 31 -4 17 6 24 15
20 24 -4 11 0 13 15 9 16 -4 21 -1 21 15 0 11 6 23 13 25 6 3 2 6 -11 6 -20 1
-22 -3 -17 -21z"/>
<path d="M47 2439 c7 -7 15 -10 18 -7 3 3 -2 9 -12 12 -14 6 -15 5 -6 -5z"/>
<path d="M8647 2438 c-16 -12 -16 -14 2 -25 16 -10 20 -9 25 3 4 10 2 13 -6 8
-8 -5 -9 -2 -5 9 8 20 6 21 -16 5z"/>
<path d="M8410 2430 c-10 -6 -11 -10 -2 -10 6 0 12 -5 12 -10 0 -7 -6 -7 -19
0 -24 13 -31 13 -31 0 0 -5 15 -13 33 -18 17 -5 31 -14 30 -20 -3 -13 36 -37
45 -28 3 3 -1 6 -9 6 -8 1 -1 7 16 14 l29 12 -42 25 c-23 14 -39 29 -35 32 10
10 -10 8 -27 -3z m50 -55 c0 -8 -4 -15 -10 -15 -5 0 -7 7 -4 15 4 8 8 15 10
15 2 0 4 -7 4 -15z m25 5 c3 -5 1 -10 -4 -10 -6 0 -11 5 -11 10 0 6 2 10 4 10
3 0 8 -4 11 -10z"/>
<path d="M8395 2342 c-5 -4 -11 -12 -12 -18 -3 -17 34 -5 41 12 6 15 -12 19
-29 6z"/>
<path d="M230 2296 c0 -2 7 -7 16 -10 8 -3 12 -2 9 4 -6 10 -25 14 -25 6z"/>
<path d="M359 2283 c-13 -16 -12 -17 4 -4 9 7 17 15 17 17 0 8 -8 3 -21 -13z"/>
<path d="M308 2263 c6 -2 18 -2 25 0 6 3 1 5 -13 5 -14 0 -19 -2 -12 -5z"/>
<path d="M0 2112 c0 -124 1 -129 23 -139 51 -25 187 -53 255 -53 l42 0 0 -40
c0 -33 3 -40 20 -40 17 0 20 -7 20 -41 0 -36 2 -40 23 -37 17 2 23 11 25 36 3
28 7 32 33 32 25 0 29 -4 29 -28 0 -35 16 -52 50 -52 34 0 50 17 50 52 0 24 4
28 30 28 28 0 30 -3 30 -35 0 -32 3 -35 28 -34 18 1 21 3 9 6 -15 4 -18 12
-15 39 3 25 0 34 -10 34 -10 0 -13 8 -9 27 7 39 -2 53 -34 53 -22 0 -30 6 -35
25 -3 13 -9 24 -13 23 -12 -4 -51 14 -51 23 0 5 -7 9 -15 9 -21 0 -72 27 -96
51 -10 10 -29 19 -40 19 -29 0 -109 41 -109 55 0 19 -47 35 -105 35 l-55 0 0
40 0 40 -40 0 -40 0 0 -128z"/>
<path d="M8225 2200 c-3 -5 -1 -10 4 -10 6 0 11 5 11 10 0 6 -2 10 -4 10 -3 0
-8 -4 -11 -10z"/>
<path d="M1060 2160 c0 -5 9 -10 20 -10 11 0 20 5 20 10 0 6 -9 10 -20 10 -11
0 -20 -4 -20 -10z"/>
<path d="M1128 2153 c7 -3 16 -2 19 1 4 3 -2 6 -13 5 -11 0 -14 -3 -6 -6z"/>
<path d="M8010 2120 c0 -5 5 -10 10 -10 6 0 10 5 10 10 0 6 -4 10 -10 10 -5 0
-10 -4 -10 -10z"/>
<path d="M7946 2073 c-6 -14 -5 -15 5 -6 7 7 10 15 7 18 -3 3 -9 -2 -12 -12z"/>
<path d="M3710 1980 c-9 -6 -10 -10 -3 -10 6 0 15 5 18 10 8 12 4 12 -15 0z"/>
<path d="M2810 1960 c0 -11 -7 -20 -15 -20 -8 0 -15 -4 -15 -10 0 -5 9 -10 20
-10 11 0 20 6 20 14 0 8 3 21 6 30 3 9 1 16 -5 16 -6 0 -11 -9 -11 -20z"/>
<path d="M728 1963 c6 -2 18 -2 25 0 6 3 1 5 -13 5 -14 0 -19 -2 -12 -5z"/>
<path d="M3835 1960 c-3 -5 -1 -10 4 -10 6 0 11 5 11 10 0 6 -2 10 -4 10 -3 0
-8 -4 -11 -10z"/>
<path d="M4047 1950 c3 -11 12 -20 19 -20 12 0 12 4 2 20 -7 11 -16 20 -19 20
-4 0 -5 -9 -2 -20z"/>
<path d="M2338 1943 c6 -2 18 -2 25 0 6 3 1 5 -13 5 -14 0 -19 -2 -12 -5z"/>
<path d="M2510 1939 c19 -19 50 -31 50 -20 0 5 -8 11 -17 15 -10 3 -25 9 -33
13 -13 5 -13 5 0 -8z"/>
<path d="M2255 1929 c-4 -6 -5 -12 -2 -15 2 -3 7 2 10 11 7 17 1 20 -8 4z"/>
<path d="M2735 1930 c-18 -8 -17 -9 8 -9 16 -1 26 3 22 9 -3 6 -7 10 -8 9 -1
0 -11 -4 -22 -9z"/>
<path d="M2455 1920 c3 -5 11 -10 16 -10 6 0 7 5 4 10 -3 6 -11 10 -16 10 -6
0 -7 -4 -4 -10z"/>
<path d="M2678 1923 c6 -2 18 -2 25 0 6 3 1 5 -13 5 -14 0 -19 -2 -12 -5z"/>
<path d="M662 1900 c0 -14 2 -19 5 -12 2 6 2 18 0 25 -3 6 -5 1 -5 -13z"/>
<path d="M2312 1885 c15 -16 20 -17 30 -6 11 11 10 13 0 7 -7 -4 -21 -2 -30 5
-15 12 -15 11 0 -6z"/>
<path d="M2436 1892 c-7 -12 6 -27 29 -35 18 -6 18 -5 -3 12 -15 13 -18 21
-10 24 9 4 10 6 1 6 -6 1 -14 -3 -17 -7z"/>
<path d="M2510 1891 c0 -5 -3 -17 -7 -27 -4 -11 -3 -15 4 -11 14 9 24 47 12
47 -5 0 -9 -4 -9 -9z"/>
<path d="M2553 1885 c0 -8 4 -12 9 -9 5 3 6 10 3 15 -9 13 -12 11 -12 -6z"/>
<path d="M7315 1883 c-11 -3 -29 -12 -40 -19 -17 -13 -18 -14 -2 -14 10 0 28
7 40 15 13 8 36 12 57 10 25 -3 31 -2 20 5 -16 10 -42 11 -75 3z"/>
<path d="M2380 1870 c-9 -6 -10 -10 -3 -10 6 0 15 5 18 10 8 12 4 12 -15 0z"/>
<path d="M690 1850 c0 -5 5 -10 11 -10 5 0 7 5 4 10 -3 6 -8 10 -11 10 -2 0
-4 -4 -4 -10z"/>
<path d="M7142 1850 c3 -8 19 -17 37 -21 26 -5 31 -4 27 8 -3 8 -6 17 -6 19 0
10 -29 3 -33 -8 -4 -10 -8 -9 -17 2 -10 13 -11 13 -8 0z"/>
<path d="M7231 1851 c-8 -6 -9 -11 -3 -15 6 -3 14 -1 17 5 9 14 2 20 -14 10z"/>
<path d="M726 1827 c3 -10 9 -15 12 -12 3 3 0 11 -7 18 -10 9 -11 8 -5 -6z"/>
<path d="M2332 1824 c-14 -16 -5 -18 17 -5 7 5 9 11 5 14 -5 3 -15 -1 -22 -9z"/>
<path d="M2430 1828 c0 -4 7 -8 15 -8 8 0 15 4 15 8 0 5 -7 9 -15 9 -8 0 -15
-4 -15 -9z"/>
<path d="M7000 1779 c0 -5 5 -7 10 -4 6 3 10 8 10 11 0 2 -4 4 -10 4 -5 0 -10
-5 -10 -11z"/>
<path d="M9050 1780 c-11 -8 -7 -9 15 -4 37 8 45 14 19 14 -10 0 -26 -5 -34
-10z"/>
<path d="M6945 1741 c-3 -5 -2 -12 3 -15 5 -3 9 1 9 9 0 17 -3 19 -12 6z"/>
<path d="M8950 1735 c-33 -19 -21 -19 21 0 19 8 27 14 19 14 -8 0 -26 -6 -40
-14z"/>
<path d="M6452 1718 c-19 -19 -14 -28 13 -26 14 1 25 6 25 9 0 4 14 6 30 4 18
-3 28 0 25 6 -4 5 -19 8 -33 6 -15 -3 -32 -1 -38 4 -6 5 -16 3 -22 -3z"/>
<path d="M6735 1679 c-4 -6 -4 -13 0 -17 4 -4 10 -1 12 6 4 10 8 10 19 1 8 -7
14 -7 14 -1 0 5 -7 13 -16 16 -21 8 -22 8 -29 -5z"/>
<path d="M338 1673 c7 -3 16 -2 19 1 4 3 -2 6 -13 5 -11 0 -14 -3 -6 -6z"/>
<path d="M1357 1650 c-6 -25 7 -35 22 -16 8 10 8 16 -3 25 -11 9 -15 7 -19 -9z"/>
<path d="M6330 1656 c0 -9 5 -16 10 -16 6 0 10 4 10 9 0 6 -4 13 -10 16 -5 3
-10 -1 -10 -9z"/>
<path d="M968 1643 c6 -2 18 -2 25 0 6 3 1 5 -13 5 -14 0 -19 -2 -12 -5z"/>
<path d="M6270 1629 c0 -5 5 -7 10 -4 6 3 10 8 10 11 0 2 -4 4 -10 4 -5 0 -10
-5 -10 -11z"/>
<path d="M10170 1520 l0 -70 35 0 35 0 0 70 0 70 -35 0 -35 0 0 -70z"/>
<path d="M1400 1500 c0 -13 -7 -20 -20 -20 -13 0 -20 -7 -20 -20 0 -11 -1 -23
-1 -27 -1 -5 16 -16 37 -27 21 -10 44 -26 52 -35 11 -14 12 -13 3 6 -6 12 -11
49 -11 82 0 54 -2 61 -20 61 -13 0 -20 -7 -20 -20z"/>
<path d="M5380 1445 c0 -8 5 -15 10 -15 6 0 10 7 10 15 0 8 -4 15 -10 15 -5 0
-10 -7 -10 -15z"/>
<path d="M5938 1453 c7 -3 16 -2 19 1 4 3 -2 6 -13 5 -11 0 -14 -3 -6 -6z"/>
<path d="M5711 1421 c-8 -5 -10 -14 -6 -21 6 -10 10 -10 19 2 6 8 18 17 26 21
11 4 10 6 -5 6 -11 0 -26 -3 -34 -8z"/>
<path d="M5346 1413 c-4 -4 -13 -8 -19 -8 -13 0 -21 -14 -9 -17 4 -1 13 -8 21
-16 8 -7 25 -12 38 -9 l24 4 -21 -19 c-11 -11 -18 -23 -15 -28 3 -4 -1 -10 -7
-13 -7 -2 -10 -7 -7 -11 3 -3 14 -4 23 0 14 5 14 9 4 22 -11 13 -10 15 9 10
31 -8 36 4 22 52 -12 41 -23 50 -32 28 -4 -10 -6 -10 -6 0 -1 13 -14 16 -25 5z"/>
<path d="M5816 1391 c-3 -5 2 -11 12 -13 11 -3 19 0 19 8 0 16 -23 19 -31 5z"/>
<path d="M5910 1388 c0 -4 6 -8 14 -8 8 0 17 4 20 8 2 4 -4 8 -15 8 -10 0 -19
-4 -19 -8z"/>
<path d="M5226 1369 c-11 -10 -14 -19 -8 -19 6 0 13 4 16 9 11 17 45 19 58 4
11 -14 10 -15 -12 -9 -22 6 -23 5 -9 -6 16 -13 15 -43 -2 -32 -12 7 -49 -5
-49 -16 0 -4 7 -11 16 -14 8 -3 12 -2 9 4 -3 6 3 10 15 10 12 0 18 -4 15 -10
-3 -5 -2 -10 4 -10 5 0 11 10 13 22 4 25 28 37 28 14 0 -9 5 -16 10 -16 7 0 7
6 0 20 -7 14 -7 20 0 20 5 0 10 5 10 11 0 5 -4 8 -9 4 -6 -3 -15 4 -21 15 -14
26 -58 26 -84 -1z"/>
<path d="M5154 1353 c10 -11 37 -12 30 -2 -3 5 -12 9 -21 9 -9 0 -13 -3 -9 -7z"/>
<path d="M5635 1350 c-4 -6 -11 -7 -17 -4 -7 4 -8 2 -4 -5 6 -9 11 -9 21 -1
10 8 14 7 18 -7 4 -16 5 -16 6 -1 1 20 -15 33 -24 18z"/>
<path d="M5075 1322 c-3 -8 -3 -17 0 -20 3 -3 5 0 5 7 0 7 7 10 18 7 9 -3 23
-2 31 3 9 6 4 10 -18 13 -20 3 -32 0 -36 -10z"/>
<path d="M5520 1309 c0 -5 5 -7 10 -4 6 3 10 8 10 11 0 2 -4 4 -10 4 -5 0 -10
-5 -10 -11z"/>
<path d="M5140 1299 c0 -5 5 -7 10 -4 6 3 10 8 10 11 0 2 -4 4 -10 4 -5 0 -10
-5 -10 -11z"/>
<path d="M4890 1296 c0 -2 7 -7 16 -10 8 -3 12 -2 9 4 -6 10 -25 14 -25 6z"/>
<path d="M5170 1291 c0 -10 19 -25 25 -20 1 2 -3 10 -11 17 -8 7 -14 8 -14 3z"/>
<path d="M5534 1285 c-17 -13 -17 -14 -2 -15 9 0 20 5 23 11 11 17 0 20 -21 4z"/>
<path d="M5580 1290 c-8 -5 -10 -10 -5 -10 6 0 17 5 25 10 8 5 11 10 5 10 -5
0 -17 -5 -25 -10z"/>
<path d="M4972 1269 c-12 -18 -11 -20 4 -17 9 1 18 11 20 21 3 23 -8 22 -24
-4z"/>
<path d="M5305 1280 c-3 -6 1 -7 9 -4 18 7 21 14 7 14 -6 0 -13 -4 -16 -10z"/>
<path d="M1610 1275 c0 -7 30 -13 34 -7 3 4 -4 9 -15 9 -10 1 -19 0 -19 -2z"/>
<path d="M1690 1270 c0 -5 14 -10 30 -10 17 0 30 5 30 10 0 6 -13 10 -30 10
-16 0 -30 -4 -30 -10z"/>
<path d="M5218 1252 c4 -23 8 -24 50 -18 25 3 51 6 58 6 8 0 14 7 14 16 0 13
-3 14 -14 5 -7 -6 -21 -9 -30 -5 -10 4 -16 1 -16 -7 -1 -11 -4 -10 -13 2 -7 8
-21 18 -33 21 -18 4 -20 2 -16 -20z m37 -2 c3 -5 -1 -10 -9 -10 -9 0 -16 5
-16 10 0 6 4 10 9 10 6 0 13 -4 16 -10z"/>
<path d="M5359 1278 c-7 -24 -5 -38 6 -38 8 0 13 9 12 20 -1 16 -14 29 -18 18z"/>
<path d="M5465 1270 c-18 -8 -17 -9 8 -9 16 -1 26 3 22 9 -3 6 -7 10 -8 9 -1
0 -11 -4 -22 -9z"/>
<path d="M4860 1266 c0 -2 7 -9 15 -16 13 -11 14 -10 9 4 -5 14 -24 23 -24 12z"/>
<path d="M5390 1260 c0 -5 5 -10 11 -10 5 0 7 5 4 10 -3 6 -8 10 -11 10 -2 0
-4 -4 -4 -10z"/>
<path d="M1760 1251 c0 -5 7 -12 16 -15 22 -9 24 -8 24 9 0 8 -9 15 -20 15
-11 0 -20 -4 -20 -9z"/>
<path d="M4565 1250 c-3 -5 1 -10 10 -10 9 0 13 5 10 10 -3 6 -8 10 -10 10 -2
0 -7 -4 -10 -10z"/>
<path d="M4736 1245 c-3 -8 -1 -15 3 -15 5 0 11 7 15 15 3 8 1 15 -3 15 -5 0
-11 -7 -15 -15z"/>
<path d="M4772 1240 c-10 -17 -10 -20 5 -20 9 0 13 3 10 7 -4 3 -2 12 4 20 6
7 7 13 3 13 -5 0 -15 -9 -22 -20z"/>
<path d="M4910 1250 c19 -13 30 -13 30 0 0 6 -10 10 -22 10 -19 0 -20 -2 -8
-10z"/>
<path d="M5020 1240 c0 -5 5 -10 11 -10 5 0 7 5 4 10 -3 6 -8 10 -11 10 -2 0
-4 -4 -4 -10z"/>
<path d="M5096 1235 c-3 -9 0 -15 9 -15 9 0 12 6 9 15 -4 8 -7 15 -9 15 -2 0
-5 -7 -9 -15z"/>
<path d="M5190 1235 c0 -8 4 -15 10 -15 5 0 7 7 4 15 -4 8 -8 15 -10 15 -2 0
-4 -7 -4 -15z"/>
<path d="M4685 1230 c-3 -5 -2 -10 4 -10 5 0 13 5 16 10 3 6 2 10 -4 10 -5 0
-13 -4 -16 -10z"/>
<path d="M5057 1226 c-4 -10 -1 -13 8 -9 8 3 12 9 9 14 -7 12 -11 11 -17 -5z"/>
<path d="M4840 1220 c0 -5 5 -10 10 -10 6 0 10 5 10 10 0 6 -4 10 -10 10 -5 0
-10 -4 -10 -10z"/>
<path d="M4895 1220 c3 -5 10 -10 16 -10 5 0 9 5 9 10 0 6 -7 10 -16 10 -8 0
-12 -4 -9 -10z"/>
<path d="M4970 1220 c0 -5 5 -10 10 -10 6 0 10 5 10 10 0 6 -4 10 -10 10 -5 0
-10 -4 -10 -10z"/>
<path d="M5143 1223 c9 -2 23 -2 30 0 6 3 -1 5 -18 5 -16 0 -22 -2 -12 -5z"/>
<path d="M5960 1099 c-79 -28 -253 -80 -360 -108 -268 -68 -671 -80 -955 -26
-77 14 -199 46 -272 70 -73 25 -142 45 -153 45 -12 0 -35 -13 -51 -29 -22 -23
-29 -39 -29 -70 0 -34 5 -44 34 -66 62 -48 334 -123 541 -150 276 -36 526 -30
810 20 136 25 189 37 365 88 131 38 216 75 242 104 33 36 24 112 -15 131 -46
22 -73 20 -157 -9z"/>
<path d="M6526 1121 c-4 -5 3 -7 14 -4 23 6 26 13 6 13 -8 0 -17 -4 -20 -9z"/>
<path d="M6485 1111 c3 -6 -3 -14 -12 -20 -10 -6 -13 -11 -7 -11 5 0 18 6 28
13 17 13 18 14 2 20 -10 4 -14 3 -11 -2z"/>
<path d="M6400 1058 c0 -4 4 -8 9 -8 6 0 12 4 15 8 3 5 -1 9 -9 9 -8 0 -15 -4
-15 -9z"/>
<path d="M3808 983 c7 -3 16 -2 19 1 4 3 -2 6 -13 5 -11 0 -14 -3 -6 -6z"/>
</g>
</svg>
