<?xml version="1.0" encoding="UTF-8" standalone="no"?>
<!-- Created with Inkscape (http://www.inkscape.org/) -->

<svg
   version="1.1"
   id="svg2"
   width="5333.3335"
   height="5333.3335"
   viewBox="0 0 5333.3335 5333.3335"
   sodipodi:docname="dog_stateBoard.eps"
   xmlns:inkscape="http://www.inkscape.org/namespaces/inkscape"
   xmlns:sodipodi="http://sodipodi.sourceforge.net/DTD/sodipodi-0.dtd"
   xmlns="http://www.w3.org/2000/svg"
   xmlns:svg="http://www.w3.org/2000/svg">
  <defs
     id="defs6">
    <clipPath
       clipPathUnits="userSpaceOnUse"
       id="clipPath300">
      <path
         d="m 23970.5,27902.8 c -91.8,0 -203,58 -349.3,224.9 -1,1.5 -2.4,2.9 -3.9,4.4 v 0 0 c 1.5,-1.5 2.9,-2.9 3.9,-4.4 69.6,-73 157.1,-137.2 269.5,-187.8 32.6,-14.5 64.7,-26.7 96.3,-36.4 v 0 0 c -5.4,-0.5 -10.9,-0.7 -16.5,-0.7"
         id="path298" />
    </clipPath>
  </defs>
  <sodipodi:namedview
     id="namedview4"
     pagecolor="#ffffff"
     bordercolor="#000000"
     borderopacity="0.25"
     inkscape:showpageshadow="2"
     inkscape:pageopacity="0.0"
     inkscape:pagecheckerboard="0"
     inkscape:deskcolor="#d1d1d1" />
  <g
     id="g8"
     inkscape:groupmode="layer"
     inkscape:label="ink_ext_XXXXXX"
     transform="matrix(1.3333333,0,0,-1.3333333,0,5333.3333)">
    <g
       id="g10"
       transform="scale(0.1)">
      <path
         d="M 0,0 H 40000 V 40000 H 0 Z"
         style="fill:#cceeff;fill-opacity:1;fill-rule:evenodd;stroke:none"
         id="path12" />
      <path
         d="m 20098.8,6600 c -7173.1,0 -12988.14,335.8 -12988.14,750 0,244.3 2022.77,461.3 5154.44,598.3 337,-355 813.4,-576.4 1341.6,-576.4 572.4,0 1084.1,260.2 1423.3,668.8 1557.5,38.2 3270.3,59.3 5068.8,59.3 2212.3,0 4295.3,-31.9 6118.5,-88.3 339.1,-391.9 840.1,-639.8 1399.1,-639.8 504.1,0 961.1,201.8 1294.7,529.1 2568.1,-137 4175.9,-333.2 4175.9,-551 0,-414.2 -5815,-750 -12988.2,-750"
         style="fill:#aec4da;fill-opacity:1;fill-rule:nonzero;stroke:none"
         id="path14" />
      <path
         d="m 26887.7,10574.9 h 1456.9 V 12003 h -1456.9 z"
         style="fill:#968190;fill-opacity:1;fill-rule:nonzero;stroke:none"
         id="path16" />
      <path
         d="M 27082.3,10769.5 H 28150 v 1039 h -1067.7 v -1039 m 1262.3,-389.2 h -1456.9 c -107.5,0 -194.6,87.2 -194.6,194.6 V 12003 c 0,107.5 87.1,194.6 194.6,194.6 h 1456.9 c 107.5,0 194.6,-87.1 194.6,-194.6 v -1428.1 c 0,-107.4 -87.1,-194.6 -194.6,-194.6"
         style="fill:#371a45;fill-opacity:1;fill-rule:nonzero;stroke:none"
         id="path18" />
      <path
         d="m 25767,9221.2 c 0,1021.3 827.9,1849.2 1849.2,1849.2 1021.3,0 1849.2,-827.9 1849.2,-1849.2 0,-1021.2 -827.9,-1849.1 -1849.2,-1849.1 -1021.3,0 -1849.2,827.9 -1849.2,1849.1"
         style="fill:#33aef1;fill-opacity:1;fill-rule:nonzero;stroke:none"
         id="path20" />
      <path
         d="m 28911.1,7901 h -0.2 c 342.2,335.6 554.5,803.1 554.5,1320.2 0,7.8 -0.1,15.4 -0.2,23.1 0,0.7 0,1.4 0,2.1 0.1,-8.3 0.2,-16.7 0.2,-25 0,-517.2 -212.3,-984.8 -554.3,-1320.4 m -2693.7,110.7 h -0.1 c -280.6,324.3 -450.4,747.2 -450.4,1209.7 0,8.3 0.1,16.7 0.2,25 0,-1.2 0,-2.4 0.1,-3.6 -0.1,-7.2 -0.2,-14.3 -0.2,-21.6 0,-462.4 169.8,-885.2 450.4,-1209.5"
         style="fill:#aec4da;fill-opacity:1;fill-rule:nonzero;stroke:none"
         id="path22" />
      <path
         d="m 27616.4,7371.9 c -559,0 -1060,247.9 -1399.1,639.8 h 0.1 c 339.1,-391.8 840,-639.6 1398.8,-639.6 504.1,0 961.1,201.7 1294.7,528.9 h 0.2 c -333.6,-327.3 -790.6,-529.1 -1294.7,-529.1"
         style="fill:#96a2bc;fill-opacity:1;fill-rule:nonzero;stroke:none"
         id="path24" />
      <path
         d="m 27616.2,7372.1 c -558.8,0 -1059.7,247.8 -1398.8,639.6 -280.6,324.3 -450.4,747.1 -450.4,1209.5 0,7.3 0.1,14.4 0.2,21.6 1,-72.8 6.3,-144.5 15.8,-214.6 14.2,108.2 37.7,213.6 69.8,315.1 237.1,-748.3 936.9,-1290.3 1763.6,-1290.3 826.3,0 1526,542 1763.1,1290.3 32.1,-101.5 55.7,-206.9 69.8,-315.1 9.6,70.6 14.9,142.8 15.9,216.1 0.1,-7.7 0.2,-15.3 0.2,-23.1 0,-517.1 -212.3,-984.6 -554.5,-1320.2 -333.6,-327.2 -790.6,-528.9 -1294.7,-528.9"
         style="fill:#3490cf;fill-opacity:1;fill-rule:nonzero;stroke:none"
         id="path26" />
      <path
         d="m 25767.1,9246.4 c -0.1,8.3 -0.2,16.6 -0.2,25 0,684.9 372.6,1282.9 926.2,1602.5 v -50 c -459.7,-265.4 -794.6,-722.8 -894.9,-1262.7 0,0.2 -0.1,0.5 -0.1,0.7 -19,-102.5 -29.6,-207.9 -31,-315.5 m 3698.1,0 c -1.4,107.6 -12,213 -30.9,315.5 -0.1,-0.2 -0.1,-0.4 -0.1,-0.6 -100.4,539.8 -435.3,997.3 -895,1262.6 v 50.1 c 553.5,-319.5 926.2,-917.6 926.2,-1602.6 0,-8.4 -0.1,-16.7 -0.2,-25"
         style="fill:#ebf8ff;fill-opacity:1;fill-rule:nonzero;stroke:none"
         id="path28" />
      <path
         d="m 27082.3,10992.1 v 50 c 169.1,50.9 348.4,78.3 534.1,78.3 185.5,0 364.7,-27.3 533.6,-78.2 v -50.1 c -169,50.9 -348.2,78.3 -533.8,78.3 -185.7,0 -364.9,-27.4 -533.9,-78.3"
         style="fill:#d5cdd3;fill-opacity:1;fill-rule:nonzero;stroke:none"
         id="path30" />
      <path
         d="m 26693.1,10823.9 v 50 c 121.7,70.2 252.1,126.9 389.2,168.2 v -50 c -137.1,-41.2 -267.6,-98 -389.2,-168.2 m 1846.1,0 c -121.6,70.2 -252.1,127 -389.2,168.2 v 50.1 c 137.2,-41.3 267.5,-98 389.2,-168.2 v -50.1"
         style="fill:#afa3b5;fill-opacity:1;fill-rule:nonzero;stroke:none"
         id="path32" />
      <path
         d="m 29379.5,9343.3 c -236.5,748.3 -936.8,1290.7 -1763.1,1290.7 -826.7,0 -1527,-542.4 -1763.6,-1290.7 -22.4,70.9 -40.7,143.6 -54.6,217.9 100.3,539.9 435.2,997.3 894.9,1262.7 121.6,70.2 252.1,127 389.2,168.2 169,50.9 348.2,78.3 533.9,78.3 185.6,0 364.8,-27.4 533.8,-78.3 137.1,-41.2 267.6,-98 389.2,-168.2 459.7,-265.3 794.6,-722.8 895,-1262.6 -13.9,-74.4 -32.2,-147.1 -54.7,-218"
         style="fill:#addff9;fill-opacity:1;fill-rule:nonzero;stroke:none"
         id="path34" />
      <path
         d="m 25767.2,9242.8 c -0.1,1.2 -0.1,2.4 -0.1,3.6 1.4,107.6 12,213 31,315.5 0,-0.2 0.1,-0.5 0.1,-0.7 -19.2,-103.4 -29.8,-209.8 -31,-318.4 m 3698,1.5 c -1.3,108.2 -11.9,214.1 -31,317 0,0.2 0,0.4 0.1,0.6 18.9,-102.5 29.5,-207.9 30.9,-315.5 0,-0.7 0,-1.4 0,-2.1"
         style="fill:#dfe7f0;fill-opacity:1;fill-rule:nonzero;stroke:none"
         id="path36" />
      <path
         d="m 29449.3,9028.2 c -14.1,108.2 -37.7,213.6 -69.8,315.1 22.5,70.9 40.8,143.6 54.7,218 19.1,-102.9 29.7,-208.8 31,-317 -1,-73.3 -6.3,-145.5 -15.9,-216.1 m -3666.3,0 c -9.5,70.1 -14.8,141.8 -15.8,214.6 1.2,108.6 11.8,215 31,318.4 13.9,-74.3 32.2,-147 54.6,-217.9 -32.1,-101.5 -55.6,-206.9 -69.8,-315.1"
         style="fill:#aed3ec;fill-opacity:1;fill-rule:nonzero;stroke:none"
         id="path38" />
      <path
         d="m 26837.2,9221.2 c 0,430.3 348.8,779 779,779 430.2,0 779,-348.7 779,-779 0,-430.2 -348.8,-779 -779,-779 -430.2,0 -779,348.8 -779,779"
         style="fill:#e62036;fill-opacity:1;fill-rule:nonzero;stroke:none"
         id="path40" />
      <path
         d="m 27616.5,8091.4 c -523.3,0 -947.2,423.9 -947.2,947.2 0,92.2 13,181.5 37.8,265.5 34.9,-119 92.5,-228.3 167.7,-322.8 101.2,-312.8 394.9,-539.1 741.4,-539.1 346.5,0 640.1,226.3 741.3,539.1 75.2,94.5 132.8,203.8 167.7,322.8 24.8,-84 37.8,-173.3 37.8,-265.5 0,-523.3 -423.9,-947.2 -946.5,-947.2"
         style="fill:#addff9;fill-opacity:1;fill-rule:nonzero;stroke:none"
         id="path42" />
      <path
         d="m 27616.2,8442.2 c -346.5,0 -640.2,226.3 -741.4,539.1 173.5,-218 441.1,-357.8 741.7,-357.8 300.2,0 567.6,139.8 741,357.8 -101.2,-312.8 -394.8,-539.1 -741.3,-539.1"
         style="fill:#f5a6af;fill-opacity:1;fill-rule:nonzero;stroke:none"
         id="path44" />
      <path
         d="m 27616.2,10875.8 c -912.3,0 -1654.6,-742.2 -1654.6,-1654.6 0,-912.3 742.3,-1654.5 1654.6,-1654.5 912.3,0 1654.6,742.2 1654.6,1654.5 0,912.4 -742.3,1654.6 -1654.6,1654.6 z m 0,-3698.3 c -1126.9,0 -2043.7,916.8 -2043.7,2043.7 0,1126.9 916.8,2043.8 2043.7,2043.8 1126.9,0 2043.8,-916.9 2043.8,-2043.8 0,-1126.9 -916.9,-2043.7 -2043.8,-2043.7"
         style="fill:#371a45;fill-opacity:1;fill-rule:nonzero;stroke:none"
         id="path46" />
      <path
         d="m 27399.2,9221.2 c 0,119.9 97.1,217.1 217,217.1 119.9,0 217,-97.2 217,-217.1 0,-119.8 -97.1,-217 -217,-217 -119.9,0 -217,97.2 -217,217"
         style="fill:#371a45;fill-opacity:1;fill-rule:nonzero;stroke:none"
         id="path48" />
      <path
         d="m 27616.2,9825.2 c -333.1,0 -604,-270.9 -604,-604 0,-333 270.9,-604 604,-604 333,0 604,271 604,604 0,333.1 -271,604 -604,604 z m 0,-1558 c -526.1,0 -954,428 -954,954 0,526.1 427.9,954 954,954 526,0 954,-427.9 954,-954 0,-526 -428,-954 -954,-954"
         style="fill:#371a45;fill-opacity:1;fill-rule:nonzero;stroke:none"
         id="path50" />
      <path
         d="m 12878,10574.9 h 1456.9 V 12003 H 12878 Z"
         style="fill:#968190;fill-opacity:1;fill-rule:nonzero;stroke:none"
         id="path52" />
      <path
         d="m 13072.6,10769.5 h 1067.7 v 1039 h -1067.7 v -1039 m 1262.3,-389.2 H 12878 c -107.5,0 -194.6,87.2 -194.6,194.6 V 12003 c 0,107.5 87.1,194.6 194.6,194.6 h 1456.9 c 107.5,0 194.6,-87.1 194.6,-194.6 v -1428.1 c 0,-107.4 -87.1,-194.6 -194.6,-194.6"
         style="fill:#371a45;fill-opacity:1;fill-rule:nonzero;stroke:none"
         id="path54" />
      <path
         d="m 11757.3,9221.2 c 0,1021.3 827.9,1849.2 1849.2,1849.2 1021.2,0 1849.1,-827.9 1849.1,-1849.2 0,-1021.2 -827.9,-1849.1 -1849.1,-1849.1 -1021.3,0 -1849.2,827.9 -1849.2,1849.1"
         style="fill:#33aef1;fill-opacity:1;fill-rule:nonzero;stroke:none"
         id="path56" />
      <path
         d="m 12265.1,7948.3 c -314.8,331.6 -507.9,779.7 -507.9,1273.1 0,8.3 0.1,16.7 0.2,25 0,-1.3 0,-2.6 0,-3.9 0,-7.1 -0.1,-14.2 -0.1,-21.3 0,-493.2 193.2,-941.4 507.9,-1272.9 h -0.1 m 2764.7,92.4 c 266,320.3 425.8,731.7 425.8,1180.5 0,7.8 0,15.4 -0.1,23.1 0,0.7 0,1.4 0,2.1 0.1,-8.3 0.2,-16.7 0.2,-25 0,-448.9 -159.9,-860.4 -425.7,-1180.7 h -0.2"
         style="fill:#aec4da;fill-opacity:1;fill-rule:nonzero;stroke:none"
         id="path58" />
      <path
         d="m 13606.7,7371.9 c -528.2,0 -1004.6,221.4 -1341.6,576.4 h 0.1 c 337,-354.9 813.2,-576.2 1341.3,-576.2 572.4,0 1084.1,260.1 1423.3,668.6 h 0.2 c -339.2,-408.6 -850.9,-668.8 -1423.3,-668.8"
         style="fill:#96a2bc;fill-opacity:1;fill-rule:nonzero;stroke:none"
         id="path60" />
      <path
         d="m 13606.5,7372.1 c -528.1,0 -1004.3,221.3 -1341.3,576.2 -314.7,331.5 -507.9,779.7 -507.9,1272.9 0,7.1 0.1,14.2 0.1,21.3 1.1,-72.7 6.4,-144.3 15.9,-214.3 14.2,108.2 37.7,213.6 69.8,315.1 C 12080.2,8595 12780,8053 13606.7,8053 c 826.3,0 1526,542 1763.1,1290.3 32.1,-101.5 55.6,-206.8 69.8,-315.1 9.6,70.6 14.9,142.8 15.9,216.1 0.1,-7.7 0.1,-15.3 0.1,-23.1 0,-448.8 -159.8,-860.2 -425.8,-1180.5 -339.2,-408.5 -850.9,-668.6 -1423.3,-668.6"
         style="fill:#3490cf;fill-opacity:1;fill-rule:nonzero;stroke:none"
         id="path62" />
      <path
         d="m 11757.4,9246.4 c -0.1,8.3 -0.2,16.6 -0.2,25 0,684.9 372.6,1282.9 926.2,1602.5 v -50 c -459.8,-265.4 -794.6,-722.8 -894.9,-1262.7 -0.1,0.2 -0.1,0.5 -0.2,0.7 -18.9,-102.5 -29.5,-207.9 -30.9,-315.5 m 3698.1,0 c -1.4,107.6 -12,213 -31,315.5 0,-0.2 0,-0.4 -0.1,-0.6 -100.3,539.8 -435.2,997.3 -894.9,1262.6 v 50.1 c 553.6,-319.5 926.2,-917.6 926.2,-1602.6 0,-8.4 -0.1,-16.7 -0.2,-25"
         style="fill:#ebf8ff;fill-opacity:1;fill-rule:nonzero;stroke:none"
         id="path64" />
      <path
         d="m 13072.6,10992.1 v 50 c 169.1,50.9 348.4,78.3 534.1,78.3 185.5,0 364.7,-27.3 533.6,-78.2 v -50.1 c -169,50.9 -348.2,78.3 -533.8,78.3 -185.7,0 -364.9,-27.4 -533.9,-78.3"
         style="fill:#d5cdd3;fill-opacity:1;fill-rule:nonzero;stroke:none"
         id="path66" />
      <path
         d="m 12683.4,10823.9 v 50 c 121.6,70.2 252.1,126.9 389.2,168.2 v -50 c -137.1,-41.2 -267.6,-98 -389.2,-168.2 m 1846.1,0 c -121.7,70.2 -252.1,127 -389.2,168.2 v 50.1 c 137.1,-41.3 267.6,-98 389.2,-168.2 v -50.1"
         style="fill:#afa3b5;fill-opacity:1;fill-rule:nonzero;stroke:none"
         id="path68" />
      <path
         d="m 11843.1,9343.3 c -22.4,70.9 -40.7,143.6 -54.6,217.9 100.3,539.9 435.1,997.3 894.9,1262.7 121.6,70.2 252.1,127 389.2,168.2 169,50.9 348.2,78.3 533.9,78.3 185.6,0 364.8,-27.4 533.8,-78.3 137.1,-41.2 267.5,-98 389.2,-168.2 459.7,-265.3 794.6,-722.8 894.9,-1262.6 -13.8,-74.3 -32.1,-147.1 -54.6,-218 -236.6,748.3 -936.9,1290.7 -1763.1,1290.7 -826.7,0 -1527,-542.4 -1763.6,-1290.7"
         style="fill:#addff9;fill-opacity:1;fill-rule:nonzero;stroke:none"
         id="path70" />
      <path
         d="m 11757.4,9242.5 c 0,1.3 0,2.6 0,3.9 1.4,107.6 12,213 30.9,315.5 0.1,-0.2 0.1,-0.5 0.2,-0.7 -19.2,-103.5 -29.8,-210 -31.1,-318.7 m 3698.1,1.8 c -1.3,108.2 -11.9,214.1 -31.1,317 0.1,0.2 0.1,0.4 0.1,0.6 19,-102.5 29.6,-207.9 31,-315.5 0,-0.7 0,-1.4 0,-2.1"
         style="fill:#dfe7f0;fill-opacity:1;fill-rule:nonzero;stroke:none"
         id="path72" />
      <path
         d="m 15439.6,9028.2 c -14.2,108.3 -37.7,213.6 -69.8,315.1 22.5,70.9 40.8,143.7 54.6,218 19.2,-102.9 29.8,-208.8 31.1,-317 -1,-73.3 -6.3,-145.5 -15.9,-216.1 m -3666.3,0 c -9.5,70 -14.8,141.6 -15.9,214.3 1.3,108.7 11.9,215.2 31.1,318.7 13.9,-74.3 32.2,-147 54.6,-217.9 -32.1,-101.5 -55.6,-206.9 -69.8,-315.1"
         style="fill:#aed3ec;fill-opacity:1;fill-rule:nonzero;stroke:none"
         id="path74" />
      <path
         d="m 12827.5,9221.2 c 0,430.3 348.7,779 779,779 430.2,0 779,-348.7 779,-779 0,-430.2 -348.8,-779 -779,-779 -430.3,0 -779,348.8 -779,779"
         style="fill:#e62036;fill-opacity:1;fill-rule:nonzero;stroke:none"
         id="path76" />
      <path
         d="m 13606.7,8091.4 c -523.2,0 -947.1,423.9 -947.1,947.2 0,92.2 13,181.5 37.8,265.5 34.9,-119 92.5,-228.3 167.7,-322.8 101.2,-312.8 394.9,-539.1 741.4,-539.1 346.5,0 640.1,226.3 741.3,539.1 75.2,94.5 132.8,203.8 167.7,322.8 24.8,-84 37.8,-173.3 37.8,-265.5 0,-523.3 -423.9,-947.2 -946.6,-947.2"
         style="fill:#addff9;fill-opacity:1;fill-rule:nonzero;stroke:none"
         id="path78" />
      <path
         d="m 13606.5,8442.2 c -346.5,0 -640.2,226.3 -741.4,539.1 173.5,-218 441,-357.8 741.6,-357.8 300.2,0 567.7,139.8 741.1,357.8 -101.2,-312.8 -394.8,-539.1 -741.3,-539.1"
         style="fill:#f5a6af;fill-opacity:1;fill-rule:nonzero;stroke:none"
         id="path80" />
      <path
         d="m 13606.4,10875.8 c -912.3,0 -1654.5,-742.2 -1654.5,-1654.6 0,-912.3 742.2,-1654.5 1654.5,-1654.5 912.4,0 1654.7,742.2 1654.7,1654.5 0,912.4 -742.3,1654.6 -1654.7,1654.6 z m 0,-3698.3 c -1126.9,0 -2043.7,916.8 -2043.7,2043.7 0,1126.9 916.8,2043.8 2043.7,2043.8 1127,0 2043.8,-916.9 2043.8,-2043.8 0,-1126.9 -916.8,-2043.7 -2043.8,-2043.7"
         style="fill:#371a45;fill-opacity:1;fill-rule:nonzero;stroke:none"
         id="path82" />
      <path
         d="m 13389.5,9221.2 c 0,119.9 97.1,217.1 217,217.1 119.8,0 217,-97.2 217,-217.1 0,-119.8 -97.2,-217 -217,-217 -119.9,0 -217,97.2 -217,217"
         style="fill:#371a45;fill-opacity:1;fill-rule:nonzero;stroke:none"
         id="path84" />
      <path
         d="m 13606.4,9825.2 c -333,0 -604,-270.9 -604,-604 0,-333 271,-604 604,-604 333.1,0 604,271 604,604 0,333.1 -270.9,604 -604,604 z m 0,-1558 c -526,0 -954,428 -954,954 0,526.1 428,954 954,954 526.1,0 954,-427.9 954,-954 0,-526 -427.9,-954 -954,-954"
         style="fill:#371a45;fill-opacity:1;fill-rule:nonzero;stroke:none"
         id="path86" />
      <path
         d="m 32581.6,12222.8 c -844,-626.1 -1672.9,-599.3 -1672.9,-599.3 H 10886.5 c 0,0 -828.9,-26.8 -1672.91,599.3 -523.91,389.2 -1083.33,1166 -970.48,1621.8 19.95,81.2 61.3,152.3 127.93,209.2 26.76,22.9 54.01,43.3 81.74,60.8 85.61,52.5 173.65,79.8 265.11,85.6 363.38,23.8 778.32,-295.3 1243.85,-700.5 522.96,-456.3 924.76,-465 924.76,-465 h 20022.2 c 0,0 404.2,8.7 927.2,465 476.7,415 897.5,740.9 1267.2,699.5 111.4,-12.6 218.4,-58.3 321,-145.4 56,-47.7 94.4,-105.6 116.8,-170.8 156.1,-449.4 -420.3,-1260.4 -959.3,-1660.2"
         style="fill:#ffce00;fill-opacity:1;fill-rule:nonzero;stroke:none"
         id="path88" />
      <path
         d="m 31287.1,12622.2 c -1410.6,0 -20479.4,0 -20479.4,0 0,0 -888.29,38.4 -2354.92,1492.4 85.61,52.5 173.65,79.8 265.11,85.6 12.78,0.8 25.68,1.3 38.58,1.3 354.1,0 756.11,-310.8 1205.27,-701.8 522.96,-456.3 924.76,-465 924.76,-465 h 6425.3 c 65.9,-35.6 135.1,-69.1 208.9,-101 194.6,-84 431.4,-92.9 523.2,-92.9 14.8,0 25.8,0.2 32.3,0.4 l 2497.3,0.6 c 18,-0.7 34.9,-1 50.9,-1 185.2,0 244.4,40.5 268,56.6 52.5,35.6 89.8,81.5 111.7,137.3 h 6890.2 c 15.9,-12.5 31.5,-24.4 46.8,-35.7 85.4,-63.2 166.2,-110.6 283,-136.2 57.2,-12.4 177.5,-15.5 268.1,-15.8 l 1218.8,-5.8 h 1 c 2.9,0 5.9,0.1 8.8,0.2 89.6,4.1 211.9,18.4 290.5,66 45.6,27.2 95.1,64.7 130.4,127.3 h 767 c 0,0 404.2,8.7 927.2,465 449.2,391.1 848.8,703.1 1202.8,703.1 21.7,0 43.1,-1.2 64.4,-3.6 -384.3,-485.4 -1062.1,-1577 -1816,-1577"
         style="fill:#ffeb99;fill-opacity:1;fill-rule:nonzero;stroke:none"
         id="path90" />
      <path
         d="m 30923.7,11623.3 c -9.9,0 -15,0.2 -15,0.2 h -2369.5 v 0 h 2369.5 c 0,0 5.1,-0.2 15,-0.2 115.6,0 880.4,22.7 1657.9,599.5 455.8,338.2 938.5,970.4 982.1,1429.3 49.3,-434.6 -482.5,-1115.8 -982.1,-1464.6 -777.5,-542.8 -1542.3,-564.2 -1657.9,-564.2 m -20052.2,0 c -115.6,0 -880.33,21.4 -1657.91,564.2 -499.52,349.2 -1031.31,1030 -981.95,1464.5 43.6,-458.8 526.21,-1090.7 981.95,-1429.2 777.58,-576.8 1542.31,-599.5 1657.91,-599.5 9.8,0 15,0.2 15,0.2 h 1796.9 v 0 h -1796.9 c 0,0 -5.2,-0.2 -15,-0.2 m 15821.6,0.2 H 14529.5 v 0 h 12163.6 v 0"
         style="fill:#aec4da;fill-opacity:1;fill-rule:nonzero;stroke:none"
         id="path92" />
      <path
         d="m 28150,11623.5 h -1067.7 v 0 H 28150 v 0"
         style="fill:#836c81;fill-opacity:1;fill-rule:nonzero;stroke:none"
         id="path94" />
      <path
         d="M 28539.2,11623.5 H 28150 v 0 h 389.2 v 0 m -1456.9,0 h -389.2 v 0 h 389.2 v 0"
         style="fill:#371a45;fill-opacity:1;fill-rule:nonzero;stroke:none"
         id="path96" />
      <path
         d="m 14140.3,11623.5 h -1067.7 v 0 h 1067.7 v 0"
         style="fill:#836c81;fill-opacity:1;fill-rule:nonzero;stroke:none"
         id="path98" />
      <path
         d="m 14529.5,11623.5 h -389.2 v 0 h 389.2 v 0 m -1456.9,0 h -389.2 v 0 h 389.2 v 0"
         style="fill:#371a45;fill-opacity:1;fill-rule:nonzero;stroke:none"
         id="path100" />
      <path
         d="m 30923.7,11623.3 c -9.9,0 -15,0.2 -15,0.2 h -2369.5 -389.2 -1067.7 -389.2 -12163.6 -389.2 -1067.7 -389.2 -1796.9 c 0,0 -5.2,-0.2 -15,-0.2 -115.6,0 -880.33,22.7 -1657.91,599.5 -455.74,338.5 -938.35,970.4 -981.95,1429.2 2.41,21.2 6.21,41.9 11.47,61.8 1267.69,-1370.7 2540.19,-1402.2 2540.19,-1402.2 0,0 18679.7,0 20284.9,0 1038.6,0 1955.1,843.3 2472.7,1438.4 11.4,-30.9 18.9,-63.6 22.8,-97.9 -43.6,-458.9 -526.3,-1091.1 -982.1,-1429.3 -777.5,-576.8 -1542.3,-599.5 -1657.9,-599.5"
         style="fill:#d7aa0e;fill-opacity:1;fill-rule:nonzero;stroke:none"
         id="path102" />
      <path
         d="m 15438,22423.8 c 0,0 -331.2,20.1 -747.8,527 -416.6,506.9 -491.9,998.8 -948.6,843.2 -456.7,-155.6 -577.2,-1259.8 271,-2052.8 l 1425.4,682.6"
         style="fill:#cebbaa;fill-opacity:1;fill-rule:nonzero;stroke:none"
         id="path104" />
      <path
         d="m 14434.6,22720.9 c -319.2,416.3 -428.5,802.3 -734.6,802.3 -0.8,0 -1.5,0 -2.2,0 31.7,43.3 68,73.5 106.5,86.6 35.9,12.2 66,19.6 93.7,19.6 93.1,0 159.8,-83.7 328.2,-351.8 85.5,-136.2 182.3,-290.5 313.7,-450.3 12.2,-14.9 24.3,-29.3 36.4,-43.4 -48.4,-20.2 -95.6,-41.1 -141.7,-63"
         style="fill:#ebe4dd;fill-opacity:1;fill-rule:nonzero;stroke:none"
         id="path106" />
      <path
         d="m 13898,23629.4 c -27.7,0 -57.8,-7.4 -93.7,-19.6 -89,-30.3 -166.3,-151.4 -201.6,-316 -69.9,-325 11.3,-852.7 449.7,-1317.8 l 922.4,441.7 c -129.2,88.5 -277.9,218.5 -434.9,409.6 -131.4,159.8 -228.2,314.1 -313.7,450.3 -168.4,268.1 -235.1,351.8 -328.2,351.8 m 114.7,-2082.8 c -48.4,0 -96.1,18 -132.9,52.5 -638.9,597.2 -753.5,1330.2 -657.6,1776.5 65.9,306.5 232.3,526.2 456.7,602.5 467.1,159.1 675.4,-172.7 876.9,-493.6 79.3,-126.3 169.2,-269.5 284.8,-410.1 327.7,-398.9 583.9,-451.7 612,-456.4 89.3,-1.8 161,-64.2 180.7,-151.8 19.8,-88.5 -29.4,-178.7 -111.2,-217.9 l -1425.4,-682.6 c -26.8,-12.8 -55.5,-19.1 -84,-19.1"
         style="fill:#371a45;fill-opacity:1;fill-rule:nonzero;stroke:none"
         id="path108" />
      <path
         d="m 29995.1,13242.4 c -0.9,-123.6 -50.1,-147.9 -88.5,-170.8 -48.2,-29.1 -194.6,-36 -194.6,-36 l -1219,5.9 c 0,0 -178.5,1 -227.7,11.7 -83.6,18 -140.1,51.5 -208.2,102.1 -864.9,640.7 -2819.9,3261.6 -2819.9,3261.6 922.8,2105.4 2905.1,2119 2905.1,2119 525.8,-624.1 825.5,-1318.7 991.8,-1964.7 325.5,-1266.3 138.7,-2346.7 138.7,-2346.7 391.6,-24.8 575.4,-262.2 658.6,-518 53,-164 64.7,-335.2 63.7,-464.1"
         style="fill:#cebbaa;fill-opacity:1;fill-rule:nonzero;stroke:none"
         id="path110" />
      <path
         d="m 29707.5,13230.4 -1213.6,5.7 c -69.9,0.3 -164.9,3.4 -186.8,6.9 -45.8,10.1 -76,25.5 -134.4,68.7 -555.2,411.5 -1599.2,1697.9 -2237.8,2515.3 276,245.6 529.1,492 756.5,727.7 189.1,196 366.5,390.3 531.6,579.1 -4.3,-311.4 49.3,-668.1 190,-1073.4 72.4,-208.6 166,-435.9 359.8,-493.4 31.2,-9.3 61.5,-13.9 90.8,-14.2 -142,-46.1 -297.6,-83.4 -468,-109.2 0,0 175.9,-1792.5 1961.2,-1792.5 119.9,0 247,8.1 381.9,25.3 42.7,-116 63.4,-260.3 61.9,-432.4 0,-1.1 0,-2.2 0,-3.2 -24.4,-4.4 -61.8,-8.7 -93.1,-10.4 M 28107,15645.6 c 85.3,65.4 163.4,157.9 238.2,252.7 181.4,229.9 389.9,560.8 498.5,964.9 57.9,-176.7 104.8,-351.5 142.5,-522.1 -180,-243.3 -457.9,-509.2 -879.2,-695.5"
         style="fill:#b09b96;fill-opacity:1;fill-rule:nonzero;stroke:none"
         id="path112" />
      <path
         d="m 25462.1,16441.8 c 353.2,-467.2 1968.5,-2580.1 2710.6,-3130.1 58.4,-43.2 88.6,-58.6 134.4,-68.7 21.9,-3.5 116.9,-6.6 186.8,-6.9 l 1213.6,-5.7 c 31.3,1.7 68.7,6 93.1,10.4 0,1 0,2.1 0,3.2 4.2,498.7 -177.6,763.3 -540.1,786.1 -55.2,3.5 -106.2,30.2 -140.5,73.6 -34.3,43.4 -48.5,99.3 -39,153.8 4,23.3 379.5,2334.3 -1026.5,4079.3 -376.2,-30.3 -1819,-253.8 -2592.4,-1895 M 29712,12841.2 h -1 l -1218.8,5.8 c -90.6,0.3 -210.9,3.4 -268.1,15.8 -116.8,25.6 -197.6,73 -283,136.2 -877.5,650.3 -2779.4,3193.9 -2859.9,3301.8 -41.8,56.1 -50.3,130.4 -22.3,194.5 962.5,2195.7 2996,2234.8 3082.2,2235.4 59.4,0.5 112.8,-24.9 150.1,-69.1 1358.7,-1612 1267.6,-3642.2 1199.2,-4275.8 446.9,-118.7 704.5,-532.2 699.4,-1145.2 -1.8,-201.9 -96.3,-284.1 -178.5,-333.2 -78.6,-47.6 -200.9,-61.9 -290.5,-66 -2.9,-0.1 -5.9,-0.2 -8.8,-0.2"
         style="fill:#371a45;fill-opacity:1;fill-rule:nonzero;stroke:none"
         id="path114" />
      <path
         d="m 29342.5,14030.9 c -60,5.1 -125.3,7.7 -188.4,9.8 -63.7,2 -127.6,3 -191.5,2.3 -63.8,-0.7 -127.9,-2.3 -191.6,-7.1 -63.8,-4.8 -127.8,-11.4 -191.7,-25 100.3,84.7 216.3,154.4 332.3,219.9 58.3,32.8 117.4,64 177.1,94.4 60.3,30.4 118.8,59.7 183.2,88.4 l 5.6,2.5 c 101.8,45.4 221,-0.3 266.4,-102.1 45.4,-101.7 -0.3,-221 -102.1,-266.4 -32,-14.3 -66.6,-19.4 -99.3,-16.7"
         style="fill:#371a45;fill-opacity:1;fill-rule:nonzero;stroke:none"
         id="path116" />
      <path
         d="m 28958.2,13576.9 c 48.2,-26.5 81.9,-65.9 112,-107.6 29.3,-42.2 52.5,-88 70.3,-135 18.5,-47.1 32.4,-95.3 39.5,-144.3 5.7,-48.9 7.6,-98 -2.6,-146.3 -11.6,-55.2 -65.8,-90.5 -121,-78.9 -38.4,8.2 -67.2,37 -77.2,72.4 l -1.8,6.5 c -5.9,21.4 -8.7,42.7 -10.2,64.1 -2.6,21.1 -3.3,42.2 -3.7,63.4 -2.2,41.8 1.1,84.5 0.4,126.8 0,42.6 -0.9,85.3 -4.8,128.3 -3.2,42.9 -9.4,87.6 -21.1,130.4 l -1,3.6 c -2.1,7.8 2.5,15.8 10.3,17.9 3.8,1.1 7.7,0.5 10.9,-1.3"
         style="fill:#371a45;fill-opacity:1;fill-rule:nonzero;stroke:none"
         id="path118" />
      <path
         d="m 29384.8,13615.3 c 47.9,-30.7 84.4,-71.7 117.1,-116.4 31.7,-45 57.6,-94.4 77.8,-146.2 19.1,-51.8 35.5,-105.7 40.5,-160.7 5.5,-54.8 4.3,-110.1 -9.4,-163.5 -13.9,-54.2 -69.2,-86.9 -123.5,-73 -39.9,10.2 -68.1,42.7 -74.8,80.7 l -1.2,6.9 c -8.1,46.3 -6.6,90.8 -8,135.5 -0.2,44.7 1.2,89.6 0.3,135.5 -3.6,90.9 -13.9,185.3 -40.6,282.7 l -0.5,2 c -2.2,7.9 2.5,16.1 10.4,18.3 4.2,1.1 8.5,0.3 11.9,-1.8"
         style="fill:#371a45;fill-opacity:1;fill-rule:nonzero;stroke:none"
         id="path120" />
      <path
         d="m 20783.3,13058.5 c -41.9,-28.2 -206.3,-22.4 -206.3,-22.4 l -2503.7,-0.5 c 0,0 -275.9,-9.2 -475.3,76.9 -199.9,86.1 -353.6,179.5 -494.2,292.4 -623.2,497.1 -964.7,1060.9 -1151.4,1532.3 l -0.5,0.5 c -230.6,580.8 -226.2,1020 -226.2,1020 31.6,578.9 1417,653.3 2510.5,52.1 1094,-600.8 1527.5,-1911.3 1527.5,-1911.3 609,-174.1 876.5,-435.8 990.9,-657.1 39.9,-75.9 61.3,-147 72,-208.3 22.3,-124.5 -17.5,-157.1 -43.3,-174.6"
         style="fill:#cebbaa;fill-opacity:1;fill-rule:nonzero;stroke:none"
         id="path122" />
      <path
         d="m 20379.6,13431.7 c -2006.5,0 -3474.6,830.4 -4097.3,1257.8 -108.9,208.2 -185.1,406.4 -238.3,581.4 1285.3,-848.2 2800.2,-1430.1 4212.8,-1590.9 130.1,-82 216.8,-167.1 274.4,-246.7 -50.9,-1.1 -101.4,-1.6 -151.6,-1.6"
         style="fill:#b09b96;fill-opacity:1;fill-rule:nonzero;stroke:none"
         id="path124" />
      <path
         d="m 15920.4,15952.6 c 1.3,-82 44.3,-1389.7 1304.6,-2395.8 134.7,-107.5 273.4,-189.5 450,-265.8 129.3,-55.8 326.4,-62.6 391.7,-60.7 2,0 4.4,0 6.4,0 l 2503.9,0.6 h 0.1 c 2.5,0 4.9,0 7.4,-0.1 13.6,-0.5 28.6,-0.6 43.6,-0.4 -45,181.6 -228.3,483.8 -917.8,680.8 -61.9,17.7 -111,64.9 -131.2,126 -4.2,12.2 -425.1,1246.5 -1436.4,1802.2 -777,427.1 -1706.8,487.5 -2087.7,276 -121.2,-67.3 -132.6,-134.8 -134.6,-162.8 m 2123.5,-3111.8 c -91.8,0 -328.6,8.9 -523.2,92.9 -206.8,89.4 -377.9,190.8 -538.5,319 -1448.9,1156.6 -1451.6,2644.3 -1451,2707.1 0,2.9 0.1,5.8 0.3,8.7 10.9,200.4 129.7,373.4 334.6,487.1 547.6,304.1 1629.9,183.2 2464,-275.2 983.3,-540.2 1455.9,-1596.8 1582.9,-1923.9 853.2,-271.7 1059,-732.6 1104.9,-988.8 30.1,-168.8 -12.1,-293.4 -125.5,-370.3 -25.6,-17.5 -93.3,-63.8 -318.9,-55.6 l -2497.3,-0.6 c -6.5,-0.2 -17.5,-0.4 -32.3,-0.4"
         style="fill:#371a45;fill-opacity:1;fill-rule:nonzero;stroke:none"
         id="path126" />
      <path
         d="m 28532.4,19199.9 c 0,0 -2978,-4914.1 -6913.9,-5339.2 -3716,-401.8 -9309.2,3168.7 -8435,6928 51.6,221.8 125.5,444.1 223.7,666.4 458.3,1036.1 1640.8,1460.3 3162.9,1493.9 3953.9,88 10196,-2458.5 11962.3,-3749.1"
         style="fill:#cebbaa;fill-opacity:1;fill-rule:nonzero;stroke:none"
         id="path128" />
      <path
         d="m 21015.8,14023.4 c -1890.9,0.1 -4115.7,911 -5695.5,2275.7 364.7,159.6 689,379.4 971.2,621.1 1208.7,-1063.8 2501.2,-1697.1 3904.6,-1768.5 81.3,-4.1 162.9,-6.1 244.1,-6.1 439.8,0 878.1,58.8 1304.3,157.8 190.1,-371 427,-738.6 722.2,-1078.5 -283.9,-80.7 -573.8,-139.1 -869,-171 -189.6,-20.5 -383.8,-30.5 -581.9,-30.5 m 4664.3,2102.6 c -55,269.5 -125.4,513 -215.3,672.8 l -0.5,0.3 c -32.3,96.3 -66.5,181.3 -102.6,251.1 372.7,269.1 588.6,456.4 588.6,456.4 -644.1,-189.6 -1263.3,-273.7 -1853.1,-273.7 -2217.9,0 -4025.1,1187.3 -5229.2,2409.2 l 544.1,-13.8 c 542.2,-497.2 1285.2,-984.2 2351,-1423.9 1033,-426.2 2028.4,-577.2 2920.8,-577.2 887,0 1672.1,149.3 2290.4,325.9 169.5,48.5 331.1,100 484.1,153.1 -28.3,-54.9 -55,-113 -79.7,-174.1 C 26936,17381.4 26359.5,16733.8 25680.1,16126 M 18767,19746.1 c -687.4,718.7 -1164.4,1437.9 -1392.3,1924 -221.7,473.3 -443.8,825.3 -645.1,1085.8 14.2,0 28.5,0.1 42.9,0.1 197.1,0 402.2,-6.3 614.4,-18.7 213.1,-271.7 372.4,-602.3 548.1,-966.9 298,-618.4 636.9,-1321.7 1339.4,-2011.4 l -507.4,-12.9"
         style="fill:#b09b96;fill-opacity:1;fill-rule:nonzero;stroke:none"
         id="path130" />
      <path
         d="m 16772.5,22756 c -611.3,0 -1148.6,-59.8 -1600.3,-180.9 -795.5,-213.1 -1329.5,-616.5 -1587,-1198.8 -691.9,-1564.8 -53.8,-2965.4 603.4,-3864.7 1590.4,-2176.3 4913.8,-3727.4 7409.1,-3457.7 3405.9,368.2 6128.9,4266.9 6670.4,5093.7 -1014.1,684.2 -3281.9,1748.2 -5881.1,2563.8 -2198.1,689.7 -4125.7,1044.6 -5614.5,1044.6 M 21027,13634.9 c -2526.1,0 -5615.8,1544.1 -7152.6,3647.1 -1029.2,1408.4 -1252.3,2878.6 -645.2,4251.6 307.6,695.4 927.3,1172.3 1842.2,1417.4 2189.2,586.7 5596.1,-292.2 7432.1,-868.3 2776.1,-871.1 5192,-2030.5 6143.6,-2725.6 81.6,-59.5 104,-171.6 51.7,-258 -30.9,-50.9 -770.1,-1261.8 -2007.4,-2544.4 -1150.6,-1192.6 -2961,-2661.7 -5051.9,-2887.7 -199.4,-21.6 -404.1,-32.1 -612.5,-32.1"
         style="fill:#371a45;fill-opacity:1;fill-rule:nonzero;stroke:none"
         id="path132" />
      <path
         d="m 17645.7,18646.3 c 0,0 -43.3,-89.5 -128.9,-235.4 -427.1,-730.6 -1903.5,-2875.4 -4228.7,-2262.5 0,0 -305.5,-569.1 -166.4,-860.5 138.6,-291.4 263.7,-1401.5 -527.3,-1471 -669.8,-58.4 -1777.5,748.1 -1705.5,2588.9 v 0.4 c 13.1,333.3 65.2,700.5 164.9,1102.3 19,75.9 39.4,151.3 61.8,225.8 473.3,1602.3 1663.2,2892.9 2811.7,3628.4 536,342.9 1062.9,565.2 1503.6,641.6 90,15.6 176.1,25.3 258.3,28.2 l 1956.5,-3386.2"
         style="fill:#cebbaa;fill-opacity:1;fill-rule:nonzero;stroke:none"
         id="path134" />
      <path
         d="m 11115.6,17734.3 c 473.3,1602.3 1663.2,2892.9 2811.7,3628.4 536,342.9 1062.9,565.2 1503.6,641.6 10.2,-36.5 109.8,-386.5 -537.1,-626.1 -1313.4,-486.4 -3088.4,-2166.1 -3778.2,-3643.9"
         style="fill:#ebe4dd;fill-opacity:1;fill-rule:nonzero;stroke:none"
         id="path136" />
      <path
         d="m 12525.4,13813.9 c -652.3,0 -1640,761.4 -1639.8,2422.9 0,55.3 1.1,111.7 3.3,169 130.4,-837.7 648.4,-1789.2 1378.1,-1837.8 12.4,-0.9 24.4,-1.3 35.9,-1.3 672.6,0 59,1364.8 59,1364.8 57.8,-25.6 111,-36.7 159.8,-36.7 318.8,0 449.7,473 449.7,473 -560.4,487 -315.2,1070.2 -315.2,1070.2 538.7,-336.7 1087.9,-466.2 1613.6,-466.3 1752.7,-0.2 3247,1439.2 3247,1439.2 -285,-487.5 -1037,-1604.4 -2196.5,-2111.8 -133.3,-58.3 -271.9,-108.6 -415.8,-148.9 -250.9,-70.4 -518,-110.5 -800.6,-110.5 -259,0 -531,33.6 -815.8,108.7 0,0 -202.7,-377.5 -202.7,-675 0,-67.8 10.5,-131.4 36.3,-185.5 52.3,-109.8 102.6,-336 102.6,-578.9 0.1,-401.5 -137.1,-848.8 -629.9,-892.1 -22.5,-2 -45.6,-3 -69,-3"
         style="fill:#b09b96;fill-opacity:1;fill-rule:nonzero;stroke:none"
         id="path138" />
      <path
         d="m 17704.1,18618.2 c -114.6,-464.8 -366.6,-865.7 -660.8,-1230.1 -295.1,-365.2 -654.2,-680.8 -1051,-942.6 -398.1,-258.1 -843.5,-463.7 -1321.2,-546.9 -475.7,-92.3 -969.8,-55.7 -1432.6,61.7 l 221.1,96.1 c -27.8,-53.3 -57.5,-119.3 -82,-180.5 -25.1,-62.4 -46.2,-125.5 -63.2,-187.4 -17.9,-62.2 -28.1,-123.1 -32.4,-178.5 -5.1,-55.9 1.5,-104.6 13.2,-130.4 l 1.5,-5.6 c 0.5,-1.3 -0.1,-0.9 1.2,-3.8 l 3.9,-8.6 14.7,-34.5 c 8.3,-21.8 16.5,-43.7 22.7,-64.4 13.7,-42.1 23.7,-82.6 33.2,-123.3 17.8,-81 29.8,-161.2 37.5,-241.9 14.9,-161.2 12.4,-324.9 -17,-491.5 -30.3,-165.1 -87.5,-339.1 -209.4,-490.1 -60.5,-74.7 -137.2,-140.6 -223.1,-188.3 -85.7,-48.1 -178.6,-77.8 -269.6,-94 -90.4,-15.7 -182.9,-15.9 -271.2,-9 -87.2,10.8 -173.5,26.1 -254,53.1 -162.9,50.4 -311.9,127.5 -446.3,221.6 -269.5,187.9 -482.6,439.5 -639,716.1 -78.8,138.2 -145.2,282.7 -196.8,431.3 -28.6,73.5 -48,149.5 -71.1,224.4 -17.6,76.1 -39.5,151.6 -52.1,228.3 -119.8,613.7 -70.9,1236.1 52.4,1827.6 l 50.6,221.3 61.4,219.8 31.1,109.9 37,107.8 74.9,215.4 86.9,210.5 43.9,105.1 49.1,102.6 c 33,68.2 64.9,137.1 99,204.7 l 108.8,199.5 c 35,67.2 75.2,131.4 114.8,195.8 40.2,64.1 77.7,130 120.1,192.5 85.2,124.8 168.5,251.2 261.5,370.2 88.5,122.5 186.9,237 282.6,353.8 48.9,57.4 100.4,112.6 150.5,168.9 l 75.7,84.1 79.1,80.8 c 208.1,218.6 433.3,420.1 667.3,610.6 59.4,46.6 117.2,95.1 177.9,140 l 182.8,134 c 124.4,85.9 249.9,170.3 378.7,250.4 258.5,157.4 520.9,317.9 814,418.4 146,50.1 296.7,91.4 453.2,107.9 38.7,4.9 78.3,7.1 117.7,8.4 39.3,1.9 79.3,0.4 118.9,-1.9 79.1,-3.6 159,-16.6 236.2,-40 36.3,-10.9 56.8,-49.2 45.8,-85.5 -6.1,-20.3 -20.8,-35.7 -38.9,-43.3 l -1.7,-0.8 -782.3,-327 c -255.1,-111.8 -515.4,-224.4 -759.9,-370 -242.3,-148.8 -477,-312.1 -697.9,-493.4 -221.4,-180.3 -435.1,-371.2 -632.2,-578.4 l -75,-76.6 -71.6,-79.7 c -47.5,-53.4 -96.4,-105.6 -142.7,-160 -90.4,-110.6 -183.7,-218.9 -267.2,-334.7 -88.1,-112.5 -166.4,-231.7 -246.9,-349.4 -40.2,-58.9 -75.2,-121 -113.1,-181.3 -37.4,-60.7 -75.3,-121 -108,-184.2 l -102.3,-187.4 c -32,-63.4 -61.7,-128 -92.7,-191.9 l -46.1,-96.1 -40.9,-98.3 -81.4,-196.7 -69.7,-200.8 -34.7,-100.5 -28.7,-102.2 -57.2,-204.5 -47.6,-208.3 c -116.2,-555.4 -158,-1129.3 -51.3,-1672.4 11,-68.3 30.6,-134.1 45.8,-201.2 20.5,-65.2 37,-132.1 62,-195.4 44.6,-129 101.7,-252.5 168.4,-369.3 131.9,-234.2 309.8,-440.9 523.1,-589.5 106.1,-74.5 221.5,-133.1 339.4,-169.4 58.8,-20.2 118.2,-29.3 176.4,-37.3 58.1,-3.9 113.4,-4.3 168,5.3 107.6,19.4 192.1,64.9 256,143.8 64.5,78.3 106.7,191.2 128.6,313.7 21.8,122.7 24.9,255.5 12.5,386.6 -6.1,65.4 -16.1,130.8 -29.8,193.3 -7.3,30.8 -14.9,61.7 -24,89.4 -4.3,14.4 -9.2,26.8 -13.8,39.4 l -6.9,16.2 -13.2,33.3 c -44.3,110.6 -47.3,213 -41,302.8 6.8,90.8 22.8,175.4 45.1,254.5 21.8,79.5 47.7,155.9 77.4,229.8 30.3,75 60.5,143.4 100.4,220.4 41.8,80.2 132.4,118.5 216.5,97.3 l 4.6,-1.2 c 414.6,-104.3 846.5,-136.3 1263.2,-55.2 208.1,38.5 413.4,97.6 608.9,183.4 196.1,84 385.6,186.3 563.4,308.3 354.8,246.7 665.1,555.1 956.2,881.3 146.3,163.2 283.4,334.9 424,506 70.6,85.4 140.6,171.8 213.5,257.3 70.7,86.3 145.4,172.9 220.5,257.1 l 3,3.4 c 24.3,27.3 66.2,29.7 93.5,5.3 18.9,-16.9 25.9,-42.3 20.2,-65.3"
         style="fill:#371a45;fill-opacity:1;fill-rule:nonzero;stroke:none"
         id="path140" />
      <path
         d="m 12981.6,15247.1 c -0.6,3.9 -6.2,15.3 -10.5,23.7 -4.3,9.2 -9.6,18.6 -14.8,28 -10.2,18.9 -21.8,37.9 -33.7,56.7 -24.2,37.5 -49.9,75.1 -78.5,111 -56.3,72.5 -119.3,141.6 -187.9,206.5 -69.6,63.3 -142.4,125.9 -221.9,180 -38.6,29.2 -80.4,53.1 -121.2,79.9 -41.4,25.4 -84.4,48 -127.1,72.4 47.1,-12.6 95.2,-23.9 142.4,-38.2 46.5,-15.7 94.9,-28.8 140.8,-47.7 94,-33.5 184.5,-77.3 274.5,-124.5 89,-48.9 175.3,-104.5 258.1,-167.8 41.6,-31.3 81.4,-65.5 120.7,-101.5 19.5,-18.2 38.8,-36.7 57.8,-56.7 9.5,-9.9 19,-19.8 28.4,-30.7 9.9,-11.2 17.9,-20 30.1,-36.7 l 25.5,-34.7 c 51.5,-70.3 36.3,-168.9 -34,-220.4 -70.2,-51.5 -168.9,-36.3 -220.4,33.9 -14.8,20.3 -24.3,43.6 -28.3,66.8"
         style="fill:#371a45;fill-opacity:1;fill-rule:nonzero;stroke:none"
         id="path142" />
      <path
         d="m 13273.4,15955.3 c -67.7,56.4 -129.3,111.9 -192.2,169.3 -62.2,57.2 -123.3,115.5 -182.9,175.4 -59.6,59.7 -117.8,120.9 -172.9,185 -54.7,64 -108,129.9 -150.3,201.4 66.3,-49.6 138,-88.3 210.4,-124.9 72.4,-36.5 146.7,-69.3 221.7,-100.3 74.8,-31 150.5,-60.2 226.7,-87.8 75.6,-27.3 153.6,-54.7 227.6,-77.4 104.9,-32.3 163.8,-143.5 131.6,-248.4 -32.3,-104.9 -143.5,-163.9 -248.4,-131.6 -25.7,7.9 -48.6,20.5 -68,36.6 l -3.3,2.7"
         style="fill:#371a45;fill-opacity:1;fill-rule:nonzero;stroke:none"
         id="path144" />
      <path
         d="m 12125.9,14716.3 c 35.8,-130.3 50,-267.1 24.6,-410.7 -13.3,-71.1 -37.5,-145.7 -83,-211.6 -45.3,-65.6 -110.2,-121 -182.4,-150.2 -51.6,-20.8 -110.3,4.1 -131.1,55.7 -16.4,40.4 -4.6,85.2 26.1,112.8 l 6.1,5.4 c 39.7,35.5 75,66.2 106.6,105 30.7,38.9 60.9,83.7 85.4,136.1 24.8,52.2 45.7,109.9 64.6,170.1 19.3,60.3 34.9,123.1 54.6,187.4 l 0.1,0.4 c 2.4,7.8 10.7,12.2 18.5,9.8 5,-1.5 8.6,-5.6 9.9,-10.2"
         style="fill:#371a45;fill-opacity:1;fill-rule:nonzero;stroke:none"
         id="path146" />
      <path
         d="m 12613.6,14568.3 c 9.1,-70.4 12.3,-140.2 11.9,-211.2 -1.3,-70.8 -6.8,-142.7 -22.5,-216 -15.8,-72.8 -40.9,-149.1 -87,-217.4 -45.3,-68.1 -109.4,-127.9 -183.2,-161.3 -50.7,-23 -110.4,-0.5 -133.4,50.2 -18.4,40.5 -7.8,86.8 23.1,115.5 l 4.1,3.8 c 42,38.9 79.2,74.4 112.7,117.7 33.1,43.1 65.3,92.3 92.7,148.7 55.6,112.9 97.1,244.8 153.3,374 3.3,7.5 12,11 19.5,7.7 5,-2.1 8.1,-6.7 8.8,-11.7"
         style="fill:#371a45;fill-opacity:1;fill-rule:nonzero;stroke:none"
         id="path148" />
      <path
         d="m 26685.8,13126.6 c -62.7,-47.2 -254.9,-60.8 -254.9,-60.8 l -2186.1,-20.9 c 0,0 -117.2,-8.3 -246.1,30.6 -128.9,39.4 -168.8,70.1 -270,126 -1946.3,1073.1 -2518.3,3210.1 -2686.2,4372.7 44.3,-46.7 98.3,-89 160.6,-127.9 991.4,-618.8 4100.7,-300.2 4100.7,-300.2 365.4,-505.4 559,-2634.6 559,-2634.6 544.3,-55.9 778.3,-381.8 873.6,-709.7 40.4,-136.7 56,-273.4 60.3,-391.1 6.9,-197.5 -48.1,-236.9 -110.9,-284.1"
         style="fill:#cebbaa;fill-opacity:1;fill-rule:nonzero;stroke:none"
         id="path150" />
      <path
         d="m 25906.4,14506.4 c -14.3,1.9 -28.8,3.6 -43.6,5.1 14.8,-1.4 29.3,-3.1 43.6,-5.1 m -43.6,5.1 c 0,0 -37.5,412.1 -110.6,916.7 13.8,-17.5 27.7,-35.1 41.7,-52.9 52.9,-472.1 68.9,-863.8 68.9,-863.8"
         style="fill:#ebf8ff;fill-opacity:1;fill-rule:nonzero;stroke:none"
         id="path152" />
      <path
         d="m 25793.9,15375.3 c -14,17.8 -27.9,35.4 -41.7,52.9 -10,69.2 -20.7,140.2 -32,212 12.2,10.4 24.4,20.8 36.6,31.3 14,-100.3 26.3,-199.9 37.1,-296.2"
         style="fill:#afa3b5;fill-opacity:1;fill-rule:nonzero;stroke:none"
         id="path154" />
      <path
         d="m 25641.1,16091.3 c -50.6,258.8 -109.6,507.5 -176.8,707.8 l 0.5,-0.3 c 89.9,-159.8 160.3,-403.3 215.3,-672.8 -13,-11.6 -26,-23.1 -39,-34.7"
         style="fill:#dfd7d5;fill-opacity:1;fill-rule:nonzero;stroke:none"
         id="path156" />
      <path
         d="m 25720.2,15640.2 c -23.6,148.9 -49.9,301.7 -79.1,451.1 13,11.6 26,23.1 39,34.7 30,-146.9 55.3,-301.5 76.7,-454.5 -12.2,-10.5 -24.4,-20.9 -36.6,-31.3"
         style="fill:#afa3b5;fill-opacity:1;fill-rule:nonzero;stroke:none"
         id="path158" />
      <path
         d="m 25463.9,14400.1 c 160.5,172.7 0,2399.2 0,2399.2 l 0.4,-0.2 c 67.2,-200.3 126.2,-449 176.8,-707.8 29.2,-149.4 55.5,-302.2 79.1,-451.1 11.3,-71.8 22,-142.8 32,-212 73.1,-504.6 110.6,-916.7 110.6,-916.7 v 0 0 c 14.8,-1.5 29.3,-3.2 43.6,-5.1 14.4,-2 28.6,-4.3 42.5,-7 l -485,-99.3"
         style="fill:#ebe4dd;fill-opacity:1;fill-rule:nonzero;stroke:none"
         id="path160" />
      <path
         d="m 24216.3,13044.2 c -42.4,0 -127.1,4 -217.6,31.3 -128.9,39.4 -168.8,70.1 -270,126 -367.6,202.7 -686.1,443.3 -962.3,708.2 -106,101.7 -205.9,207.1 -299.7,315.2 -955.8,1100.5 -1300.2,2490.6 -1424.2,3349.3 44.3,-46.7 98.3,-89 160.6,-127.9 464.5,-993.4 1675.3,-3334.6 2933.3,-3754 375.7,-125.2 746.1,-173.1 1093.1,-173.1 605.9,0 1140.4,146.2 1506.9,282.6 40.4,-136.7 56,-273.4 60.3,-391.1 0.4,-11.2 0.6,-21.9 0.6,-32.1 0,-169.9 -52.3,-207.5 -111.5,-252 -62.7,-47.2 -254.9,-60.8 -254.9,-60.8 l -2186.1,-20.9 c 0,0 -10.4,-0.7 -28.5,-0.7"
         style="fill:#b09b96;fill-opacity:1;fill-rule:nonzero;stroke:none"
         id="path162" />
      <path
         d="m 25474.8,16904.1 c 23,-17.3 45.1,-36.4 66.9,-56.7 20.3,-20.2 36.8,-42 55.3,-63.8 37.8,-43.8 66.9,-90.4 94.2,-137.8 13.8,-23.6 27.9,-47.9 40,-72.1 11.6,-24.1 22,-48.7 33.2,-73.2 l 31.3,-74.3 c 9.5,-24.9 17.2,-49.8 26,-74.8 34.4,-100.3 56.9,-201.8 82.2,-303 20.1,-101.4 40.8,-203.1 54.2,-305 29.2,-203.8 44.9,-408 59.6,-611.5 13.9,-204.3 30,-405.4 39.5,-612.4 l -175.4,185.7 100.5,-14.2 95.9,-20.6 47.9,-10.8 48.5,-15.8 c 32.2,-11.3 64.9,-19.9 96.4,-34 127.7,-51.4 248.4,-130.8 349,-229.4 100.9,-98.9 179.6,-217.3 235.4,-340.7 56.1,-123.6 91,-251.8 111.8,-379.1 10,-63.8 17.5,-127.3 21.1,-190.9 4,-61.1 7.5,-132.6 -6.2,-217.2 -7.3,-42.5 -20.8,-93.3 -50.8,-145.4 -28.8,-52.6 -76.6,-96.6 -106.2,-118.9 l -20.2,-15.5 c -8.3,-6.2 -32.1,-22.2 -44.2,-27.9 -27.7,-14.4 -50.8,-23 -70.9,-29.4 -41,-13.1 -75.8,-20.3 -109.9,-26.5 -34,-6 -66.4,-10.4 -99.3,-13.9 l -25.1,-2.4 -6.7,-0.6 -10.2,-0.6 h -2.7 l -10.8,-0.1 -43.1,-0.5 -172.6,-1.6 -345.1,-3.3 -1380.5,-13.2 -172.6,-1.7 -93.8,-1.4 c -37,0.1 -72.1,2 -107.7,6 -35.4,3.9 -70.9,9.7 -106.6,17.7 -17.7,4.2 -35.6,8.7 -53.8,14 -17.6,5.2 -32,9.8 -48.4,15.3 -62.7,20.1 -136.7,54.3 -190.3,85.6 l -73.9,41.8 -77.1,45.6 -154.6,91.8 c -51.9,30 -99.9,66.4 -149.9,99.3 -49.2,34.4 -100.1,66.3 -147.7,102.8 -384.2,287 -729.3,627.3 -1014.6,1010.4 l -105.9,144.3 c -34.5,48.7 -66.3,99.1 -99.6,148.6 -68,98.1 -125.2,202.5 -187.4,304 -115.4,207.9 -222.9,419.9 -315.8,637.9 -92.2,218.3 -175.6,439.9 -246.4,665.3 -70.4,225.4 -131.1,453.6 -181.6,683.8 l -74,345.8 c -24.4,115.4 -49.1,231.2 -61.3,348.7 -21.9,234.9 -26.4,474.7 86.8,714.6 16.9,35.8 59.6,51.1 95.4,34.3 14.2,-6.7 25.2,-17.5 32.2,-30.3 l 2.2,-3.9 c 121.1,-220.3 160.2,-439.5 196.9,-660.9 17.1,-110.7 27.8,-222.3 42.4,-333.7 14.8,-111.3 34.8,-221.9 59.5,-331.3 48.2,-219.3 105.9,-436.2 172.6,-650.1 67.2,-213.7 146.1,-423.2 232.9,-628.8 347.5,-821.6 886.1,-1561.2 1596.5,-2085.5 43.7,-33.5 90.6,-62.6 135.7,-94.2 46,-30.2 89.8,-63.9 137.6,-91.3 l 142.3,-84.3 71.3,-42.4 76.4,-43.1 c 46,-26.2 77,-40.3 123.8,-56 l 33.8,-10.7 c 9.5,-2.8 19.5,-5.3 29.7,-7.8 20.5,-4.5 41.9,-8.1 63.6,-10.5 45.7,-5.7 78.7,-2.8 143.3,-2.5 l 172.5,1.6 1380.5,13.2 345.1,3.3 172.6,1.7 43.1,0.4 10.8,0.1 h 2.7 l -4.7,-0.2 4,0.3 17.8,1.7 c 24.4,2.6 48.9,6 71.6,10 22.4,4 44.1,9 57.8,13.5 7.4,2.1 11,4.3 8.9,3.1 0.8,0.7 -11.3,-6.9 -7.6,-5.1 l 14,10.8 c 15.6,12.7 10.4,9.4 9.5,7.4 -1,-2.2 2.1,3 4.3,17.1 4.8,29.1 5.5,73.6 1.3,127 -2.9,51.3 -9,102.2 -16.8,152.1 -31.8,199.5 -108.7,381.6 -236.1,505.2 -63.7,61.7 -138,112.2 -224.1,146.8 -20.8,9.7 -44.3,15 -66.3,23.1 l -33.4,11.3 -36.3,7.8 -72.8,15.8 -70.4,10 -7.3,1 c -94.6,13.4 -163.8,92.6 -168,184.7 -9.2,195 -23,395.4 -45.5,592 -21.5,197.3 -51.9,393.1 -80.3,587.6 -28.9,194.5 -54.2,388.7 -86.5,578.2 -29.7,191.5 -50.2,376.1 -86.8,567.3 l -1.7,8.8 c -7,36.7 17,72.1 53.7,79.1 19.5,3.8 38.8,-1.4 53.5,-12.5"
         style="fill:#371a45;fill-opacity:1;fill-rule:nonzero;stroke:none"
         id="path164" />
      <path
         d="m 25550,13697.9 c 65,-22.9 114.4,-66.8 158.4,-115.6 42.9,-49.6 76.6,-106.1 103.1,-165 27.2,-59 46.5,-120.4 56.9,-182.9 4.5,-31.1 6.9,-62.4 7.6,-93.7 -1.1,-31 -3.2,-62 -9.7,-92.7 -14.6,-68.8 -82.2,-112.7 -151,-98 -47.6,10.1 -83.3,45.6 -95.9,89.3 l -3.1,11 c -7.6,26.3 -10.6,52.3 -12.7,78.4 -3.4,25.6 -4.7,51.3 -5.3,77 -3.8,50.5 -0.8,102.5 -4.5,153.4 -3.1,51.1 -7.3,103 -17.4,154.5 -9.6,51.3 -24.2,105 -47.2,155.3 l -1.9,4.1 c -4.2,9.2 -0.2,20 9,24.3 4.5,2 9.4,2.1 13.7,0.6"
         style="fill:#371a45;fill-opacity:1;fill-rule:nonzero;stroke:none"
         id="path166" />
      <path
         d="m 26091.6,13701.7 c 63.2,-25.8 110.8,-70.5 153.7,-119.8 41.4,-50.2 74.3,-106.6 100.3,-165.5 26.6,-59 45.5,-120.3 55.5,-182.8 4.5,-31 6.5,-62.3 7.2,-93.5 -1.4,-31 -3.6,-62 -10.3,-92.7 -14.9,-68.7 -82.8,-112.3 -151.5,-97.3 -47.5,10.4 -83,46.1 -95.4,89.9 l -3.1,10.9 c -7.3,26.4 -10.2,52.4 -12.3,78.4 -3.3,25.6 -4.2,51.4 -4.9,77 -3.5,50.7 -0.1,102.8 -3.5,154 -2.6,51.3 -6.5,103.5 -15.6,155.7 -8.6,51.9 -21.8,106.2 -42.6,158 l -1.6,3.9 c -3.8,9.4 0.8,20.1 10.2,23.9 4.6,1.8 9.6,1.7 13.9,-0.1"
         style="fill:#371a45;fill-opacity:1;fill-rule:nonzero;stroke:none"
         id="path168" />
      <path
         d="m 25914.9,14303.1 c -23,6.5 -58.2,10.8 -88.7,14.9 -31.8,3.8 -64.1,7.2 -96.8,9.6 -65.1,4.8 -131.5,7.7 -198.2,7.3 -133.6,-0.2 -269.2,-10.7 -405.7,-32.1 111.5,81.2 231.4,155.5 358.2,220.8 63.3,32.9 128.5,63.1 195.4,91.5 33.4,14.2 67.5,27.5 102.2,40.4 36,12.8 67.5,24.9 111.4,36.1 l 27.5,7 c 109.6,27.9 221.1,-38.3 249,-147.9 27.9,-109.7 -38.3,-221.1 -148,-249 -35.9,-9.2 -73,-8 -106.3,1.4"
         style="fill:#371a45;fill-opacity:1;fill-rule:nonzero;stroke:none"
         id="path170" />
      <path
         d="m 27516.3,18911.3 c -51,0 -101.9,19.9 -140.1,59.5 -281.6,292 -693.8,1054.3 -238.7,1849.2 53.5,93.2 172.4,125.5 265.6,72.1 93.2,-53.4 125.6,-172.3 72.1,-265.5 -425.4,-742.9 175,-1379.4 181.2,-1385.7 74.5,-77.4 72.3,-200.6 -5.1,-275.1 -37.7,-36.4 -86.4,-54.5 -135,-54.5"
         style="fill:#371a45;fill-opacity:1;fill-rule:nonzero;stroke:none"
         id="path172" />
      <path
         d="m 30465.5,16803.7 c -14.1,-77.4 -47.1,-101.7 -97.3,-131.4 -4.8,-2.9 -10.2,-5.3 -16,-7.3 -82.7,-32.1 -257.3,4.9 -394,81.3 -1736.2,969 -1230.7,2386 -1230.7,2386 190.2,-42.8 359.4,-99.7 511.2,-167.3 333.2,-148.9 578.4,-350.3 757.9,-574 333.2,-414.5 441.7,-906.3 469.4,-1282.8 11.2,-152.3 10.7,-244.2 -0.5,-304.5"
         style="fill:#e62036;fill-opacity:1;fill-rule:nonzero;stroke:none"
         id="path174" />
      <path
         d="m 30279.1,16954.6 c -2.8,1.7 -5.6,3.4 -8.4,5.2 -122.6,397.7 -290.9,782.5 -481.4,1154.7 0.5,1 1,2.1 1.5,3.1 21.4,43.3 48.3,83.4 78,121.9 274.1,-355.8 376.3,-777.7 403,-1145.5 4.2,-58.1 6.4,-103.7 7.3,-139.4"
         style="fill:#f5a6af;fill-opacity:1;fill-rule:nonzero;stroke:none"
         id="path176" />
      <path
         d="m 30275.9,16847.6 c -42,0.2 -136.2,20.1 -222.9,68.6 -440.5,245.8 -724.9,519.9 -905.7,787.9 263.7,106.9 469.4,312.8 560.7,566.2 27.5,-51.7 54.6,-103.6 81.3,-155.8 -81.3,-167.1 -92.6,-358 -46.1,-536.4 53,-202.8 177.5,-389.2 350.2,-508.3 55.9,-38.7 117.7,-73.4 177.3,-110 2.9,-9.6 5.9,-19.2 8.7,-28.8 0.4,-42.8 -1.4,-68.3 -3.5,-83.4"
         style="fill:#c31f39;fill-opacity:1;fill-rule:nonzero;stroke:none"
         id="path178" />
      <path
         d="m 30279.4,16931 c -2.8,9.6 -5.8,19.2 -8.7,28.8 2.8,-1.8 5.6,-3.5 8.4,-5.2 0.2,-8.4 0.3,-16.2 0.3,-23.6 m -490.1,1183.5 c -26.7,52.2 -53.8,104.1 -81.3,155.8 13.7,37.9 24.8,76.9 33.1,116.8 46.3,-47.7 88.7,-96.9 127.7,-147.6 -29.7,-38.5 -56.6,-78.6 -78,-121.9 -0.5,-1 -1,-2.1 -1.5,-3.1"
         style="fill:#cf8a9a;fill-opacity:1;fill-rule:nonzero;stroke:none"
         id="path180" />
      <path
         d="m 28870.7,18893.9 c -60.1,-377.8 -52.5,-1288.7 1182.3,-1977.7 86.7,-48.5 180.9,-68.4 222.9,-68.6 4,28.7 6.9,94.8 -4.1,246.4 -47.5,654 -333.6,1479.2 -1401.1,1799.9 m 1398.7,-2054.1 -0.1,-0.1 0.1,0.1 m 6.6,-380.5 c -138,0 -294.1,50.9 -412.7,117.1 -1858.5,1037.1 -1324.5,2605.8 -1318.9,2621.5 33.1,92.7 130.3,146.2 226.3,124.3 1530,-347 1840.4,-1527.3 1889.3,-2200 23.8,-328.3 12.6,-496.3 -192.7,-617.5 -53.9,-31.9 -120.2,-45.4 -191.3,-45.4"
         style="fill:#371a45;fill-opacity:1;fill-rule:nonzero;stroke:none"
         id="path182" />
      <path
         d="m 29565.1,18565.1 c 0,-315.2 -217.9,-584.7 -525.3,-693.7 -94.4,-34 -197.5,-52.5 -305,-52.5 -49.2,0 -97.3,3.9 -144,11.7 -390.2,60.8 -686.4,366.7 -686.4,734.5 0,412 371.6,745.7 830.4,745.7 311.8,0 583.7,-154.7 725.2,-383.8 21,-33.1 39,-68.1 54.1,-104.6 33,-80.2 51,-166.8 51,-257.3"
         style="fill:#e62036;fill-opacity:1;fill-rule:nonzero;stroke:none"
         id="path184" />
      <path
         d="m 28959.1,18049.1 c -2,3.4 -3.9,6.8 -5.8,10.2 13.5,44.3 17.7,91.8 31.9,136.2 25.3,80.3 84.1,149.8 159.5,187.8 52.6,26.7 112.4,37.9 164.9,65.2 19.4,10 37.4,22.1 54,35.8 -34,-200.1 -192.4,-365.6 -404.5,-435.2"
         style="fill:#f5a6af;fill-opacity:1;fill-rule:nonzero;stroke:none"
         id="path186" />
      <path
         d="m 28830.1,18019.8 c -45.2,153.5 -109.3,311.6 -196,473.4 96.2,4.8 187.4,19 273,39.8 -48.2,-108.6 -45.4,-236.1 -8.5,-349.3 13.9,-43.3 32.5,-84.7 54.7,-124.4 -1.4,-4.5 -2.9,-9 -4.5,-13.5 -38,-11.8 -77.7,-20.6 -118.7,-26"
         style="fill:#c31f39;fill-opacity:1;fill-rule:nonzero;stroke:none"
         id="path188" />
      <path
         d="m 28948.8,18045.8 c 1.6,4.5 3.1,9 4.5,13.5 1.9,-3.4 3.8,-6.8 5.8,-10.2 -3.5,-1.1 -6.9,-2.2 -10.3,-3.3"
         style="fill:#cf8a9a;fill-opacity:1;fill-rule:nonzero;stroke:none"
         id="path190" />
      <path
         d="m 28734.6,19116.4 c -350.5,0 -635.7,-247.4 -635.7,-551.4 0,-304 285.2,-551.4 635.7,-551.4 350.6,0 635.8,247.4 635.8,551.4 0,304 -285.2,551.4 -635.8,551.4 m 0,-1492 c -565.1,0 -1024.8,422 -1024.8,940.6 0,518.6 459.7,940.5 1024.8,940.5 565.2,0 1024.9,-421.9 1024.9,-940.5 0,-518.6 -459.7,-940.6 -1024.9,-940.6"
         style="fill:#371a45;fill-opacity:1;fill-rule:nonzero;stroke:none"
         id="path192" />
      <path
         d="m 28566.9,16652.4 c -102.6,-252 -242.7,-466.5 -374.5,-633.4 -201.4,-255.8 -288,-288.4 -364.4,-265.6 -16,4.9 -31.6,13.2 -46.2,25.3 -78.8,61.3 -138.1,210.7 -184.8,345.4 -603.7,1738.6 485.9,2485.8 646.4,2584.5 12.7,7.8 19.5,11.7 19.5,11.7 60.3,-84.2 113.8,-167.8 161.5,-250.1 401.8,-702.9 341,-1330.9 142.5,-1817.8"
         style="fill:#e62036;fill-opacity:1;fill-rule:nonzero;stroke:none"
         id="path194" />
      <path
         d="m 28375.7,16695.2 c -37.5,7.4 -73.3,20.8 -106.9,38.8 6,17.4 11.8,34.7 17.4,52.2 45.3,139.1 82.7,281.1 100.7,426.6 15.1,126.5 15.6,254.9 15.1,382.3 -0.6,173.2 -3.4,347.3 -19.1,520.1 223.6,-537.6 163.9,-1020.3 -7.2,-1420"
         style="fill:#f5a6af;fill-opacity:1;fill-rule:nonzero;stroke:none"
         id="path196" />
      <path
         d="m 27878.4,15961.1 c -20.7,32.8 -53,97.9 -97.8,227 -418,1203.9 30.4,1879 338.7,2176.5 38.2,16.8 75.6,33.4 112,49.9 10.9,-18.2 21.4,-36.4 31.7,-54.5 -111.2,-105.1 -196.9,-237.1 -251.1,-380.1 -91.5,-241.3 -96.8,-510.3 -43.3,-763.2 24.8,-116.3 62.3,-231.6 130.9,-328.9 44,-62.9 102.1,-117.7 169.3,-153.8 -85.3,-249.4 -197,-489.7 -332,-716.1 -25.2,-27 -44.4,-44.9 -58.4,-56.8"
         style="fill:#c31f39;fill-opacity:1;fill-rule:nonzero;stroke:none"
         id="path198" />
      <path
         d="m 27936.8,16017.9 c 135,226.4 246.7,466.7 332,716.1 33.6,-18 69.4,-31.4 106.9,-38.8 -89.6,-209.4 -209.8,-396 -336,-555.8 -42,-53.3 -75.9,-92.6 -102.9,-121.5"
         style="fill:#cf8a9a;fill-opacity:1;fill-rule:nonzero;stroke:none"
         id="path200" />
      <path
         d="m 28211.6,18446.9 c -295.4,-242.2 -893.5,-926.9 -431,-2258.8 44.8,-129.1 77.1,-194.2 97.8,-227 29,24.6 79.9,75.2 161.3,178.3 415.5,526.5 766.9,1343.7 171.9,2307.5 m -344.1,-2894.1 c -30.6,0 -62.1,4.4 -94.7,14.2 -193.8,57.5 -287.4,284.8 -359.8,493.4 -696.4,2005.6 741.9,2822.5 756.5,2830.5 86.4,47.5 194.4,22.8 251.8,-57.3 927.4,-1294.7 350.4,-2394.8 -76.1,-2935.3 -139.4,-176.7 -290.5,-345.5 -477.7,-345.5"
         style="fill:#371a45;fill-opacity:1;fill-rule:nonzero;stroke:none"
         id="path202" />
      <path
         d="m 8718.02,14200.2 h 0.49 z m 38.33,-193.3 c -8.6,0 -17.09,-0.3 -25.49,-0.8 h -0.05 c -85.45,-5.7 -159.67,-37.5 -233.54,-100.4 -33.79,-28.7 -78.23,-81 -74.17,-203.1 11.81,-355.5 435.35,-973.8 906.39,-1323.3 780.51,-579.1 1542.81,-561.5 1550.61,-561.1 2.1,0.1 4.2,0.1 6.3,0.1 h 20022.3 c 2.1,0 4.2,0 6.3,-0.1 6.3,-0.1 776.2,-13.5 1550.7,561.1 471,349.4 894.5,967.8 906.3,1323.3 4.1,122.1 -40.4,174.4 -74.1,203.1 -299.5,254.7 -684.2,13.7 -1334,-552.8 -559.9,-488.3 -1002.3,-511.7 -1050.9,-512.7 l -20026.6,-0.1 c -52.7,1.2 -492.8,24.6 -1052.81,512.8 -364.16,317.4 -776.07,654 -1077.24,654 z m 22168.95,-2578 c -8.7,0 -15.2,0.1 -19.2,0.2 H 10889 c -71.2,-1.9 -922.89,-6.7 -1791.39,637.6 -508.79,377.6 -1045.66,1087.8 -1063.43,1622.9 -7.03,212 65.92,389.2 210.94,512.6 136.91,116.4 291.7,181.1 460.06,192.2 451.9,28.8 912.35,-336.9 1384.22,-748.2 437.1,-381.1 774.4,-414.8 802,-416.9 h 20012.4 c 27.5,2.1 367,35.5 804.4,416.9 520.1,453.4 1232.5,1074.2 1841.8,556 145,-123.4 218,-300.6 210.9,-512.6 -17.7,-535.2 -554.6,-1245.4 -1063.4,-1622.9 -819.9,-608.3 -1624.4,-637.8 -1772.2,-637.8"
         style="fill:#371a45;fill-opacity:1;fill-rule:nonzero;stroke:none"
         id="path204" />
      <path
         d="m 11477.5,18525.7 -4362.46,194.6 4362.46,194.6 c 107.5,4.8 198.4,-78.4 203.2,-185.9 4.8,-107.5 -78.4,-198.5 -185.9,-203.3 -5.7,-0.2 -11.7,-0.2 -17.3,0"
         style="fill:#371a45;fill-opacity:1;fill-rule:nonzero;stroke:none"
         id="path206" />
      <path
         d="m 10886.5,16540.4 -6305.35,194.6 6305.35,194.6 c 107.4,3.3 197.2,-81.1 200.6,-188.6 3.3,-107.5 -81.1,-197.3 -188.6,-200.6 -3.9,-0.1 -8.3,-0.1 -12,0"
         style="fill:#371a45;fill-opacity:1;fill-rule:nonzero;stroke:none"
         id="path208" />
      <path
         d="m 10885.6,11429 -6012.6,194.6 6012.6,194.5 c 107.5,3.5 197.5,-80.8 200.9,-188.2 3.5,-107.5 -80.8,-197.4 -188.3,-200.9 -4,-0.1 -8.6,-0.1 -12.6,0"
         style="fill:#371a45;fill-opacity:1;fill-rule:nonzero;stroke:none"
         id="path210" />
      <path
         d="m 8706.1,12369.8 -1591.06,194.6 1591.06,194.6 c 107.42,13.1 205.23,-63.3 218.36,-170.8 13.14,-107.5 -63.33,-205.2 -170.8,-218.4 -15.82,-1.9 -32.42,-1.7 -47.56,0"
         style="fill:#371a45;fill-opacity:1;fill-rule:nonzero;stroke:none"
         id="path212" />
      <path
         d="m 16386,20923.6 c -797.3,-60.4 -1594.5,-92 -2391.8,-113.4 -398.6,-13.5 -797.3,-16.5 -1195.9,-24.4 l -1195.9,-8 -1195.9,7.6 c -398.6,8.2 -797.27,10.7 -1195.9,24.3 -797.27,21.4 -1594.54,53.1 -2391.8,113.9 797.26,60.8 1594.53,92.5 2391.8,113.9 398.63,13.6 797.3,16.1 1195.9,24.3 l 1195.9,7.6 1195.9,-8 c 398.6,-7.9 797.3,-10.9 1195.9,-24.4 797.3,-21.4 1594.5,-53 2391.8,-113.4"
         style="fill:#371a45;fill-opacity:1;fill-rule:nonzero;stroke:none"
         id="path214" />
      <path
         d="m 12029.9,19500.8 -3547.48,194.6 3547.48,194.6 c 107.5,5.9 199.4,-76.5 205.3,-183.9 5.9,-107.5 -76.5,-199.4 -183.9,-205.3 -7.1,-0.4 -14.4,-0.4 -21.4,0"
         style="fill:#371a45;fill-opacity:1;fill-rule:nonzero;stroke:none"
         id="path216" />
      <path
         d="m 29161.9,19171.7 c 0,0 -577.5,-397.9 -1529.9,-749.6 -194.1,-72 -404.3,-142 -628,-206.3 -302.6,-86.6 -630,-162.9 -979.2,-219.8 -1183.1,-192.7 -2609.4,-159.6 -4114.4,461.1 -375.1,154.7 -709.3,315.7 -1008,480.6 -2795.6,1545.5 -2482.3,3467.9 -3663.9,4365.4 -543.3,413.5 -996.7,633.9 -1341.6,797.3 -362.4,172.2 -606.1,282.1 -710.2,488.4 -35.5,69.6 -55,150.8 -57.4,248.6 -17.5,662.5 1725.9,487.9 2893.9,-157.1 0,0 1073.1,28.7 2566,-167.9 1510.9,-198.4 3451.8,-628.9 5143.7,-1554.2 1492.9,-816.2 2791.2,-2017.8 3429,-3786.5"
         style="fill:#e62036;fill-opacity:1;fill-rule:nonzero;stroke:none"
         id="path218" />
      <path
         d="m 25693.5,18083.2 c -829.9,240.8 -1340.9,557.5 -1362.1,570.4 549.4,-192 1517.2,-322.2 2264.5,-398.9 -274.3,-68.3 -576.7,-128.6 -902.4,-171.5"
         style="fill:#f07986;fill-opacity:1;fill-rule:nonzero;stroke:none"
         id="path220" />
      <path
         d="m 23984.4,18235.7 c -449.7,0 -1147,50.6 -1964.5,284.7 -36.1,14.3 -72.2,28.8 -108.4,43.8 -794.1,327.6 -1399,682.6 -1870.9,1048.1 l 4335.4,-110 c 1011.8,-385.7 2235.8,-597.9 2864.6,-597.9 79.6,0 149.8,3.4 208.7,10.3 134.3,-102.5 264.7,-183.1 390.9,-245.2 -174,-73.1 -365.3,-146.7 -571.6,-216.8 -824.9,64.4 -3510.4,310.8 -4980.3,882 21,-21 777.9,-777.9 2237.2,-1069.7 0,0 -199,-29.3 -541.1,-29.3 m -4142.6,1537.7 c -866.8,735.1 -1236.4,1502.1 -1556.3,2166 -267.4,555.1 -520.1,1079.4 -1002.2,1445.8 -418,317.8 -785.5,525.2 -1089.9,678.8 524.8,-136.6 1425.8,-658.3 2446.1,-1810.2 1426.4,-1610.5 3027,-1654 3195.9,-1654 9.7,0 14.6,0.1 14.6,0.1 0,0 -2012.6,1499.6 -2909.2,2472.5 -62.9,68.2 -7.8,169 72.7,169 12.5,0 25.5,-2.4 38.9,-7.8 258.3,-103.6 628.2,-261.8 1024.7,-462.1 32.7,-16.6 66.5,-24.1 99.2,-24.1 133,0 248.7,124.4 212.9,269.4 -66.6,269.5 -103.5,619.3 -11.2,990 23.3,-2.5 46.5,-4.9 70.2,-7.5 320.9,-2318.3 2422.6,-3716.5 3141.5,-4130.8 l -3747.9,-95.1"
         style="fill:#c31f39;fill-opacity:1;fill-rule:nonzero;stroke:none"
         id="path222" />
      <path
         d="m 20378,24006.8 c -464.5,48.2 -835.4,59.9 -1085.3,59.9 -234.4,0 -362.7,-10.3 -362.7,-10.3 0,0 -291.9,146 -2189,535.1 -489.1,100.4 -863.4,137.7 -1149.6,137.7 -128.9,0 -240,-7.5 -335.6,-20.3 -2.8,19 -4.4,39.2 -5,60.5 -0.9,35.7 4.3,77.4 78.4,122.5 106,64.4 285.7,96.1 510.1,96.1 547.7,0 1361,-188.9 2016.7,-550.9 28.3,-15.7 60.4,-24.3 92.5,-24.3 2.2,0 4.5,0 6.7,0.1 3.2,0.1 51.5,1.2 139.2,1.2 327.3,0 1202.8,-15.4 2326.1,-158.9 2.2,-27.7 4.6,-55.3 7.3,-82.8 -19.6,-55.6 -36.1,-110.8 -49.8,-165.6"
         style="fill:#f5a6af;fill-opacity:1;fill-rule:nonzero;stroke:none"
         id="path224" />
      <path
         d="m 20448.2,23999.3 c -23.7,2.6 -46.9,5 -70.2,7.5 13.7,54.8 30.2,110 49.8,165.6 5.7,-58.2 12.5,-116.1 20.4,-173.1"
         style="fill:#e7a5b0;fill-opacity:1;fill-rule:nonzero;stroke:none"
         id="path226" />
      <path
         d="m 15839.3,24988 c -224.4,0 -404.1,-31.7 -510.1,-96.1 -74.1,-45.1 -79.3,-86.8 -78.4,-122.5 6.5,-246.1 154.2,-327.8 620.2,-548.9 351.8,-166.9 833.6,-395.4 1412.3,-835.3 482.1,-366.4 734.8,-890.7 1002.2,-1445.8 503.6,-1045.1 1130.3,-2345.6 3626,-3375.2 1951,-804.9 3764.6,-575.2 4942.5,-240.7 994.6,282.4 1717.6,685 1997.3,855 -1086.8,2790.3 -3938.2,4065 -6158.8,4643.6 -2470.1,643.6 -4714.8,591.2 -4737.3,590.8 -34.3,-1.3 -68.9,7.4 -99.2,24.2 -655.7,362 -1469,550.9 -2016.7,550.9 m 8844.6,-7360.8 c -892.4,0 -1887.8,151 -2920.8,577.2 -2633.3,1086.4 -3295.8,2461.3 -3828.1,3566 -257.3,534 -479.5,995.2 -887.1,1305 -546.6,415.4 -1007.3,634 -1343.7,793.5 -481.4,228.5 -829.3,393.5 -842.4,890.3 -5.1,193 89.1,358.2 265.1,465.2 581.6,353.5 1964.6,63.3 2871.1,-421.6 359.2,3.7 2482.7,-2.2 4792.6,-604.1 1488.3,-387.8 2764.5,-943.6 3793.1,-1651.9 1296.6,-892.9 2201.1,-2030.7 2688.3,-3381.8 30,-83.2 0.2,-176.1 -72.6,-226.3 -35.4,-24.3 -882.8,-602.1 -2225.1,-985.6 -618.3,-176.6 -1403.4,-325.9 -2290.4,-325.9"
         style="fill:#371a45;fill-opacity:1;fill-rule:nonzero;stroke:none"
         id="path228" />
      <path
         d="m 18029,24785.9 c 177.1,-122.6 337.3,-248.6 496.6,-383.8 78.9,-67.7 156.7,-136.4 231.8,-208.4 37.9,-35.4 74.6,-72.4 111.4,-109 l 106.3,-110 c 136.1,-142 287.9,-269.5 455.1,-376.6 167.5,-106.2 352.3,-189.3 550.7,-233.6 -202.8,12 -405.2,65.6 -595.8,147.4 -190.4,82.6 -371.3,190.5 -538.2,316.5 l -121.4,90.8 c -40.3,28.9 -80.2,58 -121.4,85.7 -81.4,56.3 -165.4,109.2 -250,160.9 -168.4,102.2 -345.9,200 -518,282.1 l -2.5,1.1 c -97.3,46.5 -138.6,163.1 -92.1,260.4 46.4,97.4 163,138.7 260.3,92.2 9.3,-4.4 18.9,-10.1 27.2,-15.7"
         style="fill:#371a45;fill-opacity:1;fill-rule:nonzero;stroke:none"
         id="path230" />
      <path
         d="m 27637.3,28529 c 0,0 -313.7,-367.2 -774.4,-160 -460.7,206.7 -447.1,673.7 -600.8,987.5 -116.7,239.3 -910.6,918.9 -1002.5,1548.3 -29.7,197.1 10.2,389.2 161.5,560.9 634.3,720.9 3223.7,206.8 3751,-1408.3 22.4,-67.6 39.9,-132.3 53,-194.5 305,-1413.2 -1587.8,-1333.9 -1587.8,-1333.9"
         style="fill:#cebbaa;fill-opacity:1;fill-rule:nonzero;stroke:none"
         id="path232" />
      <path
         d="m 29040.6,29794.1 c -800.1,429.3 -1706.7,668.6 -2657.3,668.6 -70.8,0 -141.6,-1.3 -212.3,-4 -125.5,172.3 -273.8,327.9 -438.5,467.2 18.5,0.1 37.1,0.2 56,0.2 846,0 2034.5,-161.7 3160.5,-875.7 15.4,-24.3 30.3,-48.9 44.7,-73.8 19.9,-63.2 35.5,-124.1 46.9,-182.5"
         style="fill:#b09b96;fill-opacity:1;fill-rule:nonzero;stroke:none"
         id="path234" />
      <path
         d="m 28974.7,30034 c -8.6,5.5 -17.2,10.9 -25.7,16.4 -539.6,847.7 -1692.9,1286.5 -2565.7,1286.5 -365.4,0 -681.4,-76.9 -882.9,-232.8 -13.8,9.6 -27.7,19.1 -41.6,28.6 17.5,72.4 52.7,140.9 108.6,204.4 144.8,164.6 450.8,253 828.6,253 181.6,0 379.8,-20.4 584.6,-62.6 734.8,-151.2 1690.7,-632.5 1994.1,-1493.5"
         style="fill:#ebe4dd;fill-opacity:1;fill-rule:nonzero;stroke:none"
         id="path236" />
      <path
         d="m 28993.7,29976.6 c -14.4,24.9 -29.3,49.5 -44.7,73.8 8.5,-5.5 17.1,-10.9 25.7,-16.4 4.3,-12.3 8.5,-24.6 12.5,-37 2.2,-6.8 4.4,-13.6 6.5,-20.4"
         style="fill:#dfd7d5;fill-opacity:1;fill-rule:nonzero;stroke:none"
         id="path238" />
      <path
         d="m 27637.2,28529 h 0.4 -0.4 M 26396,31590.1 c -377.8,0 -683.8,-88.4 -828.6,-253 -343.9,-390.9 98.1,-965.2 580.3,-1519.9 140.5,-161.6 242,-278.4 289.3,-375 49.8,-101.7 82.9,-211.9 114.9,-318.4 74.8,-249.3 139.5,-464.6 390.7,-577.5 312.5,-140.2 524.6,84.4 547.8,110.5 38.8,43.6 96,69.5 154.7,66.6 9.2,-0.3 940,-31.8 1288.5,429.1 152.6,201.8 170.6,485.9 53.6,844.5 -288.7,884.3 -1261.4,1377.1 -2006.6,1530.5 -204.8,42.2 -403,62.6 -584.6,62.6 m 745.1,-3478.3 c -111.5,0 -231.9,22.9 -357.9,79.5 -413.4,185.7 -519.1,537.7 -604.1,820.6 -28.7,95.7 -55.9,186.1 -91.6,259.2 -24.9,50.8 -131,172.8 -233.5,290.8 -411,472.9 -1176.2,1353.2 -578.8,2032.3 313.1,355.9 996.5,476.5 1783.8,314.5 888,-182.8 1958.1,-749.2 2298.1,-1790.9 159.2,-487.4 120.8,-891.5 -113.8,-1201 -400.7,-528.5 -1250.4,-580.7 -1526.8,-583.2 -122.5,-107.7 -326.6,-221.8 -575.4,-221.8"
         style="fill:#371a45;fill-opacity:1;fill-rule:nonzero;stroke:none"
         id="path240" />
      <path
         d="m 32399.7,22994.2 c 0,0 -183.4,-1176.7 -144,-1783.8 24.3,-369.7 -293.8,-1144.1 -956.9,-1637.4 -426.6,-317.1 -996.2,-518.5 -1709.3,-420.3 0,0 -862,-1027.3 -2087.9,-31.6 -67.6,-18 -174.1,-25.8 -310.8,-22.8 -764.7,14.5 -2464.9,346.3 -3480.6,925.7 -882.4,502.9 -3108.9,2066.9 -3108.9,4577.9 0,721.4 146,1412.7 409.1,2048.5 54.5,132.8 114.4,263.1 179,391.1 964.2,1904.4 2994.6,3226.6 5193.9,3226.6 1992.9,0 3736.4,-1078.5 4707.3,-2694.5 266.6,-443.6 475.3,-927.6 614.9,-1440.8 8.3,-30.7 16.5,-61.8 24.3,-92.9 125,-37.5 246.6,-91.5 362.9,-212.6 101.2,-105.6 128.9,-195.1 312.8,-270.5 43.3,-18 95.8,-35 159.5,-51 32.6,-8.3 66.7,-28.3 101.2,-58.9 291.9,-257.3 591.6,-1275 -266.5,-2452.7"
         style="fill:#cebbaa;fill-opacity:1;fill-rule:nonzero;stroke:none"
         id="path242" />
      <path
         d="m 31410,25475.8 c -168.1,292.5 -434.9,351.6 -623.2,351.6 -119.7,0 -207.6,-23.9 -218.1,-26.9 324.2,188.8 640.3,285.3 938.7,318.9 11.8,-42.2 23,-84.6 33.9,-127.3 16.8,-66.3 67.2,-118.9 132.7,-138.5 104.6,-31.3 191.9,-70.7 278.4,-161 21,-21.9 39,-44.3 58.1,-67.9 17.7,-21.9 35.3,-43.1 54,-63.6 -20.6,0.6 -41.4,1 -62.5,1 -179,0 -377.9,-23.9 -592,-86.3"
         style="fill:#ebe4dd;fill-opacity:1;fill-rule:nonzero;stroke:none"
         id="path244" />
      <path
         d="m 21517.5,27247.3 c 417.9,720.6 997.9,1345.3 1687.4,1822.8 3.6,-6.3 6.8,-12.3 9.6,-18.1 45.4,-93 77.9,-198 110.5,-306.4 -750.8,-456.5 -1357.7,-1011.1 -1807.5,-1498.3 m 9031.2,775.7 c -1168.4,914.8 -2563,1657.3 -4012.8,1657.5 -12.8,51.5 -28.1,105 -46.1,160 -26.2,80.1 -56.8,157.8 -91.6,233.1 1654.5,-4.8 3165.5,-789.1 4150.5,-2050.6"
         style="fill:#ebe4dd;fill-opacity:1;fill-rule:nonzero;stroke:none"
         id="path246" />
      <path
         d="m 32254.7,21607.8 c -5.8,-145.4 -6.3,-281.6 1,-397.4 13.6,-207.7 -80.8,-542.9 -283.6,-884.4 -87.1,-147.3 -195.1,-295.7 -323,-435.8 -443.2,-484.5 -1129.1,-865.4 -2059.6,-737.5 0,0 -862,-1027.3 -2087.9,-31.6 -67.6,-18 -378.5,552.6 -375,793.4 10.7,718.5 758.8,2080.1 1843.6,3447 1,1.4 1.9,2.4 3.4,3.9 l 1,1 c 314.7,396.9 658.1,793.8 1020.5,1176.2 1157.3,1221 2184.7,1080.4 2671.1,904.3 85.2,-74.9 171.3,-215.5 229.1,-405.7 42.4,-140.6 69.6,-308.9 69.1,-498.6 -1,-429.5 -143.5,-970 -564.7,-1548.4 0,0 -120.2,-770.5 -145,-1386.4"
         style="fill:#f2ae75;fill-opacity:1;fill-rule:nonzero;stroke:none"
         id="path248" />
      <path
         d="m 31098.2,19806.9 c -473.2,0 -842.2,184.6 -1048.8,319.6 13.3,150.8 22.6,321.2 26.4,513.5 237.4,-283.7 551.8,-372.8 852.7,-372.8 398,0 772.5,155.7 914.5,222.3 -111.2,-201 -266.6,-412.6 -470.7,-602.6 -24.8,-23 -50.9,-46.3 -78.3,-69.5 -67,-7.2 -132.4,-10.5 -195.8,-10.5"
         style="fill:#fadfc8;fill-opacity:1;fill-rule:nonzero;stroke:none"
         id="path250" />
      <path
         d="m 28974.6,23366.4 c 314.7,396.9 658.1,793.8 1020.5,1176.2 765.4,807.5 1474,1019.5 2006.9,1019.5 21.1,0 41.9,-0.4 62.5,-1 89.8,-98.5 202.6,-180.3 450.2,-243.1 18.6,-7.6 94,-71.4 160,-234.5 -134,19.9 -266.9,29.1 -398.2,29.1 -1748.6,0 -3212.1,-1643.4 -3301.9,-1746.2"
         style="fill:#fadfc8;fill-opacity:1;fill-rule:nonzero;stroke:none"
         id="path252" />
      <path
         d="m 30761.5,21243.2 c -282.9,0 -521.4,56.3 -677.5,179.7 50.8,781.6 301.9,1191.7 450.6,1369.3 310.7,-278.8 640.8,-419.2 978.2,-419.2 9.4,0 18.8,0.1 28.2,0.4 74.5,1.8 145.8,10.4 213.6,24.2 -88.7,-257.6 -220.2,-692.1 -237.4,-1049 -267.5,-68.3 -526.3,-105.4 -755.7,-105.4 m -918.9,1042.3 c 61.7,849.2 752.3,1428.7 752.3,1428.7 316.9,-307.9 615.6,-425.7 887.1,-425.8 552.2,-0.1 992,487.4 1245,854.5 -62.2,-295.5 -202.3,-647.3 -484.3,-1034.4 -3.7,-5.1 -7.2,-10.3 -10.3,-15.7 -60.7,-62.5 -335.2,-323.1 -704.3,-330.4 -6.1,-0.2 -12.2,-0.3 -18.3,-0.3 -277.7,0 -559.9,147.3 -834.1,435.4 -37.8,39.8 -89.2,60.4 -141,60.4 -37.5,0 -75.4,-10.8 -108.5,-33.1 -21.5,-14.4 -372.6,-259.4 -583.6,-939.3"
         style="fill:#cd906b;fill-opacity:1;fill-rule:nonzero;stroke:none"
         id="path254" />
      <path
         d="m 30548.9,23062.4 c 0,0 -554.1,-385.7 -637.1,-1623.3 0,-23 3.2,-48.4 2.4,-70.8 -18.2,-475 231.6,-1062.3 1205.7,-1134.9 156.2,-11.7 284,12.1 401.1,47.2 -0.7,4.8 0.7,6.9 0,11.8 -198.6,1335.5 261.9,2305.2 261.9,2305.2 v 9.4 c -330.7,-86.3 -761.5,-41.1 -1234,455.4"
         style="fill:#371a45;fill-opacity:1;fill-rule:nonzero;stroke:none"
         id="path256" />
      <path
         d="m 30442.7,21528.4 c -210.7,0 -396.6,-84.2 -545,-210 -0.5,-466.1 258,-1017.4 1201,-1087.7 13.1,-0.9 22.5,3 35.4,2.4 90.9,133.5 158.1,284.6 158.1,457.7 0,463.1 -380.9,837.6 -849.5,837.6"
         style="fill:#ff457d;fill-opacity:1;fill-rule:nonzero;stroke:none"
         id="path258" />
      <path
         d="m 30106.5,21433.9 c 0.1,-4.9 0.5,-9.8 0.8,-14.8 1.2,-19.8 2,-39.6 1.3,-58 -12.2,-319.4 104.8,-865 1025.7,-933.6 58.5,-4.5 114.7,-3.1 172.2,4.5 -97.8,867.8 63.3,1567.3 185.1,1944.7 -325.2,5.3 -640.2,143.3 -940.9,412.7 -146.5,-179.4 -391.3,-588.3 -444.2,-1355.5 z m 1607.2,-1126.1 v -0.2 z m -515.4,-271.9 c -29.8,0 -60.8,1.1 -92.9,3.5 -1056.4,78.7 -1408.4,741.9 -1385.6,1336.3 0.1,6.3 -0.6,13.3 -1,20.3 -0.8,14.6 -1.6,29.1 -1.6,43.1 0,4.3 0.2,8.7 0.5,13 88.2,1315.8 694.3,1752.1 720,1770 78.9,54.9 186,44 252.1,-25.6 345.6,-363.1 687.1,-494.3 1044,-401.2 58,15.2 120.3,2.6 168.1,-34.3 47.7,-36.9 75.6,-93.8 75.6,-154 v -9.4 c 0,-28.9 -6.5,-57.4 -18.8,-83.5 -4.2,-8.9 -431.9,-937.6 -245.2,-2193.1 2.4,-16.5 2.5,-30.8 2.1,-40.9 -0.2,-84.6 -55.6,-161 -138.7,-185.9 -87.3,-26.1 -215.9,-58.3 -378.6,-58.3"
         style="fill:#371a45;fill-opacity:1;fill-rule:nonzero;stroke:none"
         id="path260" />
      <path
         d="m 27501.7,19315.7 c 44.1,0 87.6,-15.1 122.7,-43.6 1057.2,-858.9 1786.4,-29.3 1817,6.4 42.9,50.4 108.7,76.1 175,67 845.4,-116.5 1421.4,230.2 1755.9,541.4 498.4,463.9 706.1,1056.3 689.5,1310.6 -40.5,621.6 138.3,1777.5 145.9,1826.5 4.7,30.5 16.8,59.5 35,84.5 648.3,890.1 546.7,1593.7 472.8,1854.8 -71.5,253.1 -178.2,345.4 -200.8,354.7 -299,75.8 -401.5,179.3 -504.2,306.7 -19.1,23.6 -37.1,46 -58.1,67.9 -86.5,90.3 -173.8,129.7 -278.4,161 -65.5,19.6 -115.9,72.2 -132.7,138.5 -609.6,2403.1 -2730.7,4081.5 -5158,4081.5 -3028.6,0 -5587.2,-2505.8 -5587.2,-5471.8 0,-2497.8 2304.3,-4006.2 3010.5,-4409.1 1162.5,-663.1 3244.7,-990.2 3645,-883.6 16.5,4.4 33.4,6.6 50.1,6.6 m 1060.7,-824.3 c -323.7,0 -700.6,108.5 -1113.1,423.3 -650.7,-76.1 -2665.3,272.5 -3835.4,940 -752.4,429.1 -3207,2039.6 -3207,4747.1 0,1547.2 641.1,3018.2 1805.3,4142 1131.6,1092.4 2651.8,1718.9 4171.1,1718.9 2571,0 4821.1,-1751.5 5508.3,-4272.5 106.3,-41.9 226.9,-108.4 341.8,-228.4 32.6,-33.9 57.8,-65.2 80,-92.9 64.4,-79.8 99.9,-123.7 300,-174.6 178.6,-45.3 339.9,-234.4 442.5,-518.6 90.1,-250 319.5,-1144.6 -470.5,-2257.2 -32.6,-220 -168.7,-1182.7 -135.2,-1695.6 25.7,-395.1 -250.3,-1097.4 -812.8,-1620.9 -383,-356.4 -1033.1,-752.3 -1976.5,-653.8 -159.3,-149.4 -553.6,-456.7 -1098.5,-456.8"
         style="fill:#371a45;fill-opacity:1;fill-rule:nonzero;stroke:none"
         id="path262" />
      <path
         d="m 32502.9,25312.3 c 1.5,-0.1 -11.3,5.5 -19.2,8.6 -8.5,3.7 -19.1,7.1 -28.6,10.7 -20.3,6.8 -41,13.5 -62.9,19 -43.1,12 -88.6,20.3 -134.4,27.8 -92.1,13.9 -187.7,18.2 -283.8,14.6 -192.6,-5.3 -387.6,-45.6 -577.7,-105.4 -190.3,-60.7 -375.6,-144.7 -553.9,-243.8 -178.4,-99.2 -351,-212.6 -514.7,-339.2 -330.6,-249.6 -631.1,-542.9 -911.3,-854.6 -280.2,-312.2 -539.1,-645.2 -783.1,-989.3 216.9,361.7 450,714.9 708.2,1051.5 258.5,336.1 540.4,657.8 862.5,942.6 159.4,144 330.6,276.8 512.1,396.8 181.4,120 374.4,226.5 580.2,310.2 205.9,82.7 423.8,146.4 652.1,170.7 113.9,13.1 230,17.1 347.5,8.8 58.8,-4.8 117.8,-11.1 177.5,-22.6 29.8,-5.2 59.9,-12.1 90.4,-19.7 15.5,-4.4 30.3,-8.1 46.6,-13.4 17.1,-5.5 29,-8.9 54.6,-19.5 97.7,-44.8 140.6,-160.3 95.8,-258 -44.7,-97.7 -160.2,-140.6 -257.9,-95.8"
         style="fill:#371a45;fill-opacity:1;fill-rule:nonzero;stroke:none"
         id="path264" />
      <path
         d="m 29900.1,19321.1 c 700.9,-18.8 1184.2,281.3 1477.7,554.5 487.3,453.5 689.9,1039.2 673.4,1292.2 -24.9,381.8 32.9,965.1 83,1369.8 -159.7,-86.6 -361,-158.6 -593.2,-164.2 -347.2,-8.1 -687.1,132.2 -1006.4,418.8 -171.1,-204.4 -478.1,-717.1 -458.9,-1749.7 17.2,-923 -80.2,-1439.7 -175.6,-1721.4 m 67.5,-390.4 c -124.6,0 -255,8.6 -391.5,27.4 -75.9,10.5 -145.7,57.7 -167.3,131.2 -21.1,71.9 -5.8,142.9 49.3,192.5 28.5,43.1 253.2,426.1 228.5,1753.5 -30.6,1652.5 708.2,2168.4 739.6,2189.5 78.8,52.9 184.2,41.3 249.5,-27.3 280.2,-294.4 568.9,-441.8 852.4,-435.1 417.4,8.3 713.8,340.4 716.8,343.8 58.7,66.9 155.9,86 235.2,45.5 l 4.7,-2.4 c 50.4,-25.7 87.1,-72.1 100.6,-127 9.7,-39.9 6.5,-81.4 -8.5,-118.8 -28.1,-187.7 -171.6,-1184.9 -137.4,-1710.4 25.7,-393.5 -244.8,-1088.8 -796.5,-1602.4 -338.2,-314.6 -888.6,-660 -1675.4,-660"
         style="fill:#371a45;fill-opacity:1;fill-rule:nonzero;stroke:none"
         id="path266" />
      <path
         d="m 30287.8,21323.8 c -168.3,20.6 -369.5,-40.7 -390.1,-47.2 8.9,-265.7 100.9,-550.5 351.3,-757.4 0,0 335.7,606.8 187.1,745.6 -37.2,34.7 -89.3,51.8 -148.3,59"
         style="fill:#ffffff;fill-opacity:1;fill-rule:nonzero;stroke:none"
         id="path268" />
      <path
         d="m 29923.5,21258.2 c 10,-206.1 75.3,-485.8 318.3,-700 123.6,231 271.3,600.5 177.2,688.3 -29.8,27.9 -73.8,45.1 -134.2,52.5 -140.7,17.1 -304.8,-24.6 -361.3,-40.8 z m 332.8,-777.5 -23.2,19.2 c -284.3,235 -352.9,551.6 -360.4,775.9 l -0.6,19 18.1,5.7 c 22.8,7.1 227.1,69.3 400.6,48.1 71.4,-8.7 124.5,-30.1 162.3,-65.5 158.4,-147.8 -146.8,-712.2 -182.2,-776 l -14.6,-26.4"
         style="fill:#371a45;fill-opacity:1;fill-rule:nonzero;stroke:none"
         id="path270" />
      <path
         d="m 30333.7,21155.2 h 0.5 z m -275.4,6.5 c 17.9,-121.9 60.5,-259.3 151.8,-384.4 74.6,167.1 122.7,323.3 114.2,383.9 -9.1,4.5 -25.7,10.1 -54.7,13.7 v 0 c -65.1,8 -144.2,-0.7 -211.3,-13.2 z m 190.7,-792.5 c -34.5,0 -68.4,12 -95.5,34.4 -320.2,264.6 -397.4,618.1 -405.7,868 -2.2,67.3 40.6,127.9 104.9,148.1 41.3,13 258.3,76.8 453.3,53 98.5,-12.1 174.6,-44.2 232.4,-98.2 203.8,-190.2 -11.6,-663 -158.1,-927.9 -21.6,-39.1 -59.5,-66.5 -103.3,-74.8 -9.3,-1.8 -18.7,-2.6 -28,-2.6"
         style="fill:#371a45;fill-opacity:1;fill-rule:nonzero;stroke:none"
         id="path272" />
      <path
         d="m 31515.1,20266 c 0,0 -135.1,610 109.4,768.3 244.4,158.2 463.4,-267.7 463.4,-267.7 0,0 -163,-344 -572.8,-500.6"
         style="fill:#ffffff;fill-opacity:1;fill-rule:nonzero;stroke:none"
         id="path274" />
      <path
         d="m 31736.5,21044.6 c -33.6,0 -66.1,-10.4 -98.4,-31.3 -198,-128.2 -126.7,-592 -104.3,-713 335.3,139.2 494.7,408.3 525.7,466 -26.8,47.9 -139.4,235.3 -277.2,272.1 -15.5,4.1 -30.7,6.2 -45.8,6.2 z m -239.6,-812.3 -6.2,28.3 c -5.7,25.6 -135.9,628.9 120.2,794.7 58.5,37.8 120.5,48.4 184.4,31.3 178.9,-47.7 309.3,-298 314.8,-308.6 l 5.6,-11 -5.3,-11.1 c -6.8,-14.4 -172,-354.8 -586.4,-513.3 l -27.1,-10.3"
         style="fill:#371a45;fill-opacity:1;fill-rule:nonzero;stroke:none"
         id="path276" />
      <path
         d="m 31737,20919.6 c -8,0 -17.6,-2.6 -30.9,-11.2 -72.7,-47 -87.4,-235.7 -72.8,-415.3 142,91.4 232.6,203.5 279.7,272.9 -46.3,67.1 -110.5,137.7 -163,151.6 -4.1,1.1 -8.3,2 -13,2 z m -221.9,-803.6 c -24.6,0 -49,6 -71.1,17.9 -38.4,20.7 -65.9,57 -75.3,99.6 -26.4,118.9 -141.6,722.2 174.3,926.7 88,57 186.4,73.3 284.5,47.2 228,-60.8 377.5,-340.5 393.7,-372.2 21.4,-41.5 22.2,-90.6 2.2,-132.8 -7.7,-16.3 -194,-400.4 -654.7,-576.5 -17.3,-6.7 -35.5,-9.9 -53.6,-9.9"
         style="fill:#371a45;fill-opacity:1;fill-rule:nonzero;stroke:none"
         id="path278" />
      <path
         d="m 30410.7,22923.1 c -7.4,12.1 -10.4,19 -13.8,26.3 -3.6,7.6 -6.8,14.8 -9.3,21.6 -5.5,13.9 -11.1,27.8 -15.1,41.3 -9.5,27.2 -15.9,54.5 -22.2,81.6 -10.9,54.7 -17.2,109.5 -16.2,164.2 1,109.4 28.5,215.6 74.6,306.3 48.7,90 112.6,163.6 182.7,223.9 34.9,30.3 73.8,54.8 109.5,81.2 l 116,64.9 -82.9,-100.5 c -23,-36.8 -48.3,-70.6 -67.5,-107.5 -39.1,-73.3 -64.2,-149.8 -72.9,-222.9 -6.2,-73.9 4.6,-143.2 29.6,-204.9 12,-30.8 28.6,-59.7 46.4,-86.3 9.7,-13 18.8,-25.9 29.3,-37.1 4.9,-6.1 10.2,-10.8 15.2,-15.8 2.6,-2.7 5,-4.8 7.2,-6.2 2.3,-1.9 5,-4.1 3.8,-0.8 63.4,-86.8 44.3,-208.6 -42.5,-271.9 -86.8,-63.3 -208.5,-44.2 -271.9,42.6"
         style="fill:#371a45;fill-opacity:1;fill-rule:nonzero;stroke:none"
         id="path280" />
      <path
         d="m 31695.1,25852.9 c 1.2,0.7 -7,3.7 -12,5.9 -5.1,2.4 -12.4,4.6 -18.8,6.9 -12.9,4.8 -27.1,8.8 -41.4,12.7 -28.3,8.5 -58.7,14.5 -88.9,20.5 -30.6,4.8 -61.4,10.8 -92.9,13 l -47.5,4.8 -47.9,1.6 c -128.4,4.3 -260,-10 -391,-38.3 -64.1,-18.3 -130.9,-32.7 -194,-58.1 -31.8,-12.1 -65,-21.8 -96.1,-36 l -94.2,-42.7 c -32.2,-13.4 -62.4,-30.2 -92.6,-47.4 l -91.8,-50.9 c -59.5,-36.7 -117.2,-77 -176.7,-115.9 48.6,50.9 96.3,104.1 147.1,154.4 l 79.6,72.2 c 26.5,24.5 53.3,48.7 82.6,69.9 l 86.4,66.4 c 28.9,22.3 60.6,40.4 91.1,60.9 60.5,42.1 126.9,74.2 192.6,110.2 134.5,64.1 278.2,115.4 430,146 l 57.1,11.2 58,7.8 c 38.8,6.1 78.2,8.2 117.9,10.9 39.9,1.6 79.8,3 121.1,0.9 20.5,-0.7 41.2,-1.6 62.7,-4 10.9,-1.1 20.9,-1.6 32.9,-3.5 12,-1.9 21.1,-2.6 39.2,-6.9 102.8,-31 161.1,-139.6 130,-242.5 -31.1,-102.9 -139.7,-161.1 -242.5,-130"
         style="fill:#371a45;fill-opacity:1;fill-rule:nonzero;stroke:none"
         id="path282" />
      <path
         d="m 28025.8,24881.5 c 0,617.5 277.5,1118 619.8,1118 342.3,0 619.9,-500.5 619.9,-1118 0,-617.5 -277.6,-1118.1 -619.9,-1118.1 -342.3,0 -619.8,500.6 -619.8,1118.1"
         style="fill:#371a45;fill-opacity:1;fill-rule:nonzero;stroke:none"
         id="path284" />
      <path
         d="m 28645.7,25974.5 c -328.1,0 -594.9,-490.3 -594.9,-1093 0,-602.7 266.8,-1093.1 594.9,-1093.1 327.9,0 594.8,490.4 594.8,1093.1 0,602.7 -266.9,1093 -594.8,1093 z m 0,-2236.1 c -355.6,0 -644.9,512.8 -644.9,1143.1 0,630.2 289.3,1143 644.9,1143 355.5,0 644.8,-512.8 644.8,-1143 0,-630.3 -289.3,-1143.1 -644.8,-1143.1"
         style="fill:#371a45;fill-opacity:1;fill-rule:nonzero;stroke:none"
         id="path286" />
      <path
         d="m 28704.5,25090.7 c 0,177.9 79.9,322.1 178.6,322.1 98.6,0 178.6,-144.2 178.6,-322.1 0,-178 -80,-322.2 -178.6,-322.2 -98.7,0 -178.6,144.2 -178.6,322.2"
         style="fill:#ffffff;fill-opacity:1;fill-rule:nonzero;stroke:none"
         id="path288" />
      <path
         d="m 32690.9,25297.7 c -150.6,18.9 -354.6,0.7 -571,-148.6 -432.7,-298.6 -498,-739.5 -330.3,-863.6 154,-113.9 715.4,463.8 1175,443.6 -27.9,233 -95.4,416.4 -177,545 -31.9,8.7 -56,18.5 -96.7,23.6"
         style="fill:#371a45;fill-opacity:1;fill-rule:nonzero;stroke:none"
         id="path290" />
      <path
         d="m 24761.9,28120.4 c 0,0 -309.8,-362.9 -774.9,-216.9 -31.6,9.7 -63.7,21.9 -96.3,36.4 -112.4,50.6 -199.9,114.8 -269.5,187.8 -1,1.5 -2.4,2.9 -3.9,4.4 -24.3,25.8 -46.2,52.5 -65.6,80.3 l -0.5,0.9 c -186.8,257.4 -215.5,590.6 -336.7,838.7 -156.1,318.6 -1384.9,1336.7 -1094.9,2128.7 31.1,84.6 79.2,166.8 148.3,245.1 713.6,810.9 3628.4,232.6 4221.9,-1585.3 593.5,-1817.9 -1727.9,-1720.1 -1727.9,-1720.1"
         style="fill:#cebbaa;fill-opacity:1;fill-rule:nonzero;stroke:none"
         id="path292" />
      <g
         id="g294">
        <g
           id="g296"
           clip-path="url(#clipPath300)">
          <path
             d="m 23617.3,27902.8 h 369.699 v 229.301 H 23617.3 Z"
             style="fill:#b09b96;fill-opacity:1;fill-rule:nonzero;stroke:none"
             id="path302" />
        </g>
      </g>
      <path
         d="m 23987,27903.5 v 0 c -31.6,9.7 -63.7,21.9 -96.3,36.4 -112.4,50.6 -199.9,114.8 -269.5,187.8 -1,1.5 -2.4,2.9 -3.9,4.4 v 0 c -20.9,24.3 -42.8,51.1 -65.6,80.3 v 0 l -0.5,0.9 c -186.8,257.4 -215.5,590.6 -336.7,838.7 -2.8,5.8 -6,11.8 -9.6,18.1 -40.8,72.1 -126.6,174.2 -233.6,297.7 -327.4,378.1 -853.2,957.3 -893.4,1493.1 25.4,43.3 56.1,85.7 92.7,127.1 46.8,53.2 103,100.4 167.5,141.6 187,-48.5 414.2,-120.9 582.1,-217 340.5,-194.5 291.9,-340.5 1118.9,-632.3 826.9,-291.9 2189,-486.5 1751.2,-1459.4 -260.7,-579.4 -659.5,-658.5 -980.5,-658.5 -60.3,0 -117.8,2.8 -171.1,5.6 -53.4,2.8 -102.5,5.6 -146.1,5.6 -70.6,0 -126.5,-7.3 -161.7,-33.7 -109.4,-82.2 -204.3,-226.2 -343.9,-236.4"
         style="fill:#b09b96;fill-opacity:1;fill-rule:nonzero;stroke:none"
         id="path304" />
      <path
         d="m 22007.2,30696.6 c -62.3,255.9 -31.6,507.4 163.4,729.2 211.7,240.5 617,358.8 1097.8,358.8 16.3,0 32.6,-0.1 49,-0.4 -459.6,-7.7 -845,-126 -1049.5,-358.4 -69.1,-78.3 -117.2,-160.5 -148.3,-245.1 -30.3,-82.8 -44.1,-168 -44.1,-254.6 -0.1,-21.7 0.8,-43.4 2.4,-65.2 -31.4,-53.5 -54.6,-108.4 -70.7,-164.3"
         style="fill:#ebf8ff;fill-opacity:1;fill-rule:nonzero;stroke:none"
         id="path306" />
      <path
         d="m 26470.8,29083.6 c -15.5,99.2 -41.3,205.3 -78.3,319.1 -417.4,1278.6 -1983.5,1944.1 -3124.1,1944.1 -374.7,0 -703.2,-71.7 -930.3,-217.2 -84,21.8 -159.8,38.9 -218.5,51.1 -30.3,-82.8 -44.1,-168 -44.1,-254.6 0,86.6 13.8,171.8 44.1,254.6 31.1,84.6 79.2,166.8 148.3,245.1 204.5,232.4 589.9,350.7 1049.5,358.4 1135.9,-18.6 2663.6,-683.2 3075.1,-1943.7 98.8,-302.1 116.8,-551.6 78.3,-756.9"
         style="fill:#ebe4dd;fill-opacity:1;fill-rule:nonzero;stroke:none"
         id="path308" />
      <path
         d="m 22077.9,30860.9 c -1.6,21.8 -2.5,43.5 -2.4,65.2 0,86.6 13.8,171.8 44.1,254.6 58.7,-12.2 134.5,-29.3 218.5,-51.1 -64.5,-41.2 -120.7,-88.4 -167.5,-141.6 -36.6,-41.4 -67.3,-83.8 -92.7,-127.1"
         style="fill:#dfd7d5;fill-opacity:1;fill-rule:nonzero;stroke:none"
         id="path310" />
      <path
         d="m 23864.1,27880.9 c -132.6,2.6 -265.1,56.9 -373.9,144.7 -110.4,87.3 -187.8,207.6 -243.6,324.4 -56.9,117.6 -92.8,235.3 -124.9,343.6 l -23.1,79.7 -23,75.2 c -8.3,23.1 -15.5,48.4 -24.4,69.8 -8.4,20.2 -18.6,48 -24.1,56.8 -15.5,30.1 -47.1,74 -79.1,115.6 -32.7,42.5 -68.8,84.8 -105.2,128 l -225.5,261.6 c -151,178 -298.8,364.5 -430,569.7 -128.3,206.4 -246.9,433.2 -291.8,703.7 -21.5,134.4 -19.6,281.3 19.6,422.3 38.4,141.1 113.1,270.8 204.6,375.3 98.2,110 216.4,189.1 336.5,249.1 120.9,59.6 245.1,95.2 368.8,124.7 247.8,52.1 494.5,61 736.8,47.4 484.4,-30 954.2,-151.5 1394.7,-344 438.9,-193.8 852.6,-464 1184.8,-828.3 332.3,-363.2 568,-826.4 629,-1331.8 l 5.9,-47.8 1.9,-49.1 3.2,-98.2 c -4.5,-66.7 -5.3,-133 -18.7,-200.3 -21.7,-133 -57.1,-271 -126.2,-394.5 -67.6,-123.6 -166.4,-228.5 -280.6,-300.3 -114.7,-71 -244.7,-111 -383.5,-96.3 -41.6,4.5 -71.8,41.8 -67.4,83.5 1.2,11.2 4.8,21.7 10.2,30.8 l 1.9,3 c 68.1,113.2 135.4,193.2 196.5,269.2 61.5,74.9 115.7,144.7 163.9,218.9 102.4,145.7 131.6,340.3 106,539.1 -23.2,199.2 -87.1,406.1 -176.4,592.6 -90.3,188.1 -211.1,362.6 -353.8,519.5 -286.2,314.4 -655.3,558.3 -1053.3,733.8 -398.6,174.7 -830.4,285.4 -1261.1,311.7 -214.7,12.3 -430,3.2 -631.1,-39.1 -98.8,-24 -196.2,-52 -281.1,-94.4 -84.4,-42.4 -158.4,-93.9 -213.8,-155.2 -119,-136.2 -163,-297.2 -132.9,-481.5 29.4,-183.7 122.4,-375 236.1,-555.5 115.8,-181.1 252.7,-355.1 398.2,-526.3 l 223.6,-258.9 c 38.5,-43.5 76.6,-88.5 116.1,-135 39.7,-47.6 78.9,-94.3 121.9,-162.8 24.6,-40 34.6,-66.1 50.3,-97.9 14.7,-30.7 25.3,-60 38,-90.3 11.3,-29.4 21.6,-58.4 31.7,-87.6 l 27.5,-84.6 c 34.1,-110.9 62.7,-213.7 95.4,-307.2 68.8,-188 144.6,-325.2 298.5,-508.5 l 2.2,-2.6 c 25,-29.8 21.2,-74.2 -8.6,-99.3 -13.6,-11.4 -30.3,-16.8 -46.7,-16.4"
         style="fill:#371a45;fill-opacity:1;fill-rule:nonzero;stroke:none"
         id="path312" />
      <path
         d="m 24186.5,28410 c 0,0 -10.2,351.9 -209.1,688.4 -198.8,336.6 -1024.9,744.6 -1157.5,1280 0,0 576.2,-515.1 1188.1,-637.5 612,-122.3 1172.9,-581.3 1025,-866.8 -147.8,-285.6 -611.9,-91.8 -846.5,-464.1"
         style="fill:#f44d75;fill-opacity:1;fill-rule:nonzero;stroke:none"
         id="path314" />
      <path
         d="m 23465.5,29777.4 c 55.2,-47 111,-92.9 165.5,-137.7 204.7,-168.5 381.6,-313.9 472.1,-467 97,-164.2 153.1,-331.1 185.4,-466.4 120,69.7 248.6,95.8 354,117.2 142.8,29 225.3,48.8 261,117.7 13.2,25.5 8.9,61.3 -12.8,106.5 -94,195.7 -469.2,461.7 -911.3,550.2 -179.2,35.8 -354.2,102.1 -513.9,179.5 z m 721,-1513.3 c -12.8,0 -25.7,1.7 -38.5,5.2 -61.8,16.9 -105.3,72.1 -107.3,136.2 -0.2,5.5 -13.6,322 -188.9,618.7 -64.3,108.8 -230.4,245.4 -406.2,390.1 -316.3,260.1 -674.8,555 -767.4,929 -15.4,62.1 11.5,127 66.3,160 54.8,33 124.7,26.6 172.5,-16 5.6,-4.9 555.2,-490.4 1119.7,-603.3 489.4,-97.8 969.6,-403.1 1117.1,-709.9 79.1,-164.7 48.5,-290.6 8.8,-367.1 -101.6,-196.3 -293.1,-235.2 -462,-269.5 -160.8,-32.6 -299.6,-60.8 -390.6,-205.3 -27.2,-43.1 -74.3,-68.1 -123.5,-68.1"
         style="fill:#371a45;fill-opacity:1;fill-rule:nonzero;stroke:none"
         id="path316" />
      <path
         d="m 27398,18958.9 c -17.9,14.1 -23.5,20.9 -33.8,30.5 -9.8,9.3 -16.4,17.6 -24.7,26.4 -16.4,17.5 -29.4,35.2 -43.3,52.8 -14.3,17.5 -25.5,35.9 -37.7,53.9 -12.5,17.9 -23.6,36.3 -33.5,55.1 -43.5,73.6 -73.4,151.6 -98.5,229.3 -48.3,156.3 -60.9,315.5 -53.5,468 4.5,153.5 40.2,299.9 78,441.5 23.2,69.9 47.5,138.9 72.4,206.9 l 87.7,198.3 -40.8,-211.2 c -8.9,-71 -16.8,-141.5 -23.6,-211.4 -4.8,-140.8 -6.4,-280.3 20.6,-413 23.8,-132.3 65,-258.4 128.3,-366.1 32.3,-53.2 66.6,-104.1 107.7,-146.2 9.5,-11.2 19.8,-21.5 30.6,-30.9 10.6,-9.5 20.4,-20 31.5,-27.9 10.8,-8.3 21.3,-17.6 31.8,-23.9 5,-3.1 10.7,-7.7 15,-9.6 3.6,-1.7 11.3,-6.7 8,-3.1 88.2,-61.3 110,-182.6 48.6,-270.8 -61.3,-88.2 -182.6,-110 -270.8,-48.6"
         style="fill:#371a45;fill-opacity:1;fill-rule:nonzero;stroke:none"
         id="path318" />
      <path
         d="m 16111.9,17892.9 c -638.8,-60.4 -1277.4,-92 -1916.1,-113.5 -319.4,-13.4 -638.7,-16.4 -958.1,-24.3 l -958,-8.1 -958,7.7 c -319.4,8.1 -638.7,10.7 -958,24.3 -638.75,21.4 -1277.42,53.1 -1916.09,113.9 638.67,60.7 1277.34,92.5 1916.09,113.9 319.3,13.5 638.6,16.1 958,24.3 l 958,7.6 958,-8 c 319.4,-7.9 638.7,-10.9 958.1,-24.4 638.7,-21.4 1277.3,-53 1916.1,-113.4"
         style="fill:#371a45;fill-opacity:1;fill-rule:nonzero;stroke:none"
         id="path320" />
      <path
         d="m 24433.7,19500.8 -7664.3,194.6 7664.3,194.6 c 107.4,2.7 196.8,-82.2 199.5,-189.7 2.7,-107.4 -82.2,-196.8 -189.6,-199.5 -3.1,-0.1 -6.9,0 -9.9,0"
         style="fill:#371a45;fill-opacity:1;fill-rule:nonzero;stroke:none"
         id="path322" />
      <path
         d="m 27169.1,19290 c -556.4,13.6 -1675.5,209.4 -2611.3,559.3 -29.5,22.9 -65.7,37.4 -105.1,40.2 -232.9,91.5 -452.2,192.7 -646.1,303.2 -706.2,402.9 -3010.5,1911.3 -3010.5,4409.1 0,675.4 132.6,1326.8 373.3,1930.4 -3.9,-1212.3 296.8,-2692.2 1215.7,-3694.6 C 23399.5,21731 24942,21326 26173.7,21326 c 67.8,0 134.5,1.2 200.3,3.6 878.6,32.1 1605.9,666.4 1645.4,701.4 -321.4,-508.1 -570.6,-983 -723.1,-1385.8 l 14.8,76.4 -87.7,-198.3 c -24.9,-68 -49.2,-137 -72.4,-206.9 -37.8,-141.6 -73.5,-288 -78,-441.5 -7.4,-152.5 5.2,-311.7 53.5,-468 12.6,-39.1 26.5,-78.2 42.6,-116.9"
         style="fill:#b09b96;fill-opacity:1;fill-rule:nonzero;stroke:none"
         id="path324" />
      <path
         d="m 28571.2,18884 c -260.9,0 -570.9,91.9 -916.7,364 -10,11.2 -21.4,21.4 -34.3,30.3 0.9,-0.9 1,-1.3 0.6,-1.3 -1,0 -5.9,3.2 -8.6,4.4 -0.2,0.1 -0.5,0.2 -0.7,0.3 -3.1,2.1 -6.3,4.2 -9.5,6.1 -1.6,1.1 -3.3,2.3 -4.8,3.2 -10.5,6.3 -21,15.6 -31.8,23.9 -11.1,7.9 -20.9,18.4 -31.5,27.9 -10.8,9.4 -21.1,19.7 -30.6,30.9 -41.1,42.1 -75.4,93 -107.7,146.2 -63.3,107.7 -104.5,233.8 -128.3,366.1 -27,132.7 -25.4,272.2 -20.6,413 6.8,69.9 14.7,140.4 23.6,211.4 l 26,134.8 c 152.5,402.8 401.7,877.7 723.1,1385.8 1.2,1 1.7,1.5 1.7,1.5 0,0 -300,-1925.9 1085.6,-1925.9 161.8,0 346.5,26.3 557.3,84.9 -46.8,-561 -148.2,-803.7 -190.1,-882.6 -11.9,-8.8 -22.8,-19 -32.5,-30.4 -20.3,-23.6 -346,-394.5 -870.2,-394.5"
         style="fill:#cd906b;fill-opacity:1;fill-rule:nonzero;stroke:none"
         id="path326" />
      <path
         d="m 28568.4,18686.6 c -263.6,0 -569,81.6 -905.2,313.2 1.9,2.5 3.8,5.1 5.6,7.7 52.5,75.4 44.2,174.9 -14.3,240.5 345.8,-272.1 655.8,-364 916.7,-364 524.2,0 849.9,370.9 870.2,394.5 9.7,11.4 20.6,21.6 32.5,30.4 -7.2,-13.6 -12.7,-22.4 -15.8,-27.1 -55.1,-49.6 -70.4,-120.6 -49.3,-192.5 8,-27 22.4,-50.4 41.2,-69.8 -166.3,-137.7 -474,-332.8 -881.6,-332.9 m -1323.3,411.1 c -17.5,0 -35.6,0.2 -54.3,0.6 -564.7,10.7 -1639.5,194.4 -2572.1,523.1 10,24.3 15.2,51 14.5,78.9 -1.5,60.8 -30.8,114.4 -75.4,149 935.8,-349.9 2054.9,-545.7 2611.3,-559.3 16,-38.1 34.3,-75.8 55.9,-112.4 9.9,-18.8 21,-37.2 33.5,-55.1 5.5,-8.1 10.9,-16.4 16.4,-24.6 -9.7,-0.2 -19.7,-0.2 -29.8,-0.2 m 366.4,184 c -2.8,1.3 -6.1,3.8 -9.5,6.1 3.2,-1.9 6.4,-4 9.5,-6.1 m -3622.2,597 c -97.5,46.5 -190.8,94.9 -279.1,145.3 -882.4,502.9 -3108.9,2066.9 -3108.9,4577.9 0,872.2 213.6,1699.7 588.1,2439.6 -12.4,-162.6 -19.4,-333.2 -20,-509.3 -240.7,-603.6 -373.3,-1255 -373.3,-1930.4 0,-2497.8 2304.3,-4006.2 3010.5,-4409.1 193.9,-110.5 413.2,-211.7 646.1,-303.2 -4.6,0.4 -9.3,0.5 -14,0.5 -1.6,0 -3.3,0 -5,0 l -444.4,-11.3"
         style="fill:#371a45;fill-opacity:1;fill-rule:nonzero;stroke:none"
         id="path328" />
      <path
         d="m 29945.8,19322.4 c -14.9,0 -29.9,0.2 -45,0.5 40.9,121.5 82.3,286.6 114.6,508.7 172.6,-161.6 429.3,-316.2 785.1,-328.1 -236.9,-107.3 -521,-181.1 -854.7,-181.1"
         style="fill:#cd906b;fill-opacity:1;fill-rule:nonzero;stroke:none"
         id="path330" />
      <path
         d="m 29962.4,19320.2 c -20.5,0 -41.3,0.3 -62.3,0.9 0.2,0.6 0.4,1.2 0.7,1.8 15.1,-0.3 30.1,-0.5 45,-0.5 333.7,0 617.8,73.8 854.7,181.1 7.6,-0.3 15.2,-0.4 22.8,-0.6 -236.7,-108.1 -522.6,-182.7 -860.9,-182.7"
         style="fill:#371a45;fill-opacity:1;fill-rule:nonzero;stroke:none"
         id="path332" />
      <path
         d="m 29450,19019.5 c -18.8,19.4 -33.2,42.8 -41.2,69.8 -21.1,71.9 -5.8,142.9 49.3,192.5 3.1,4.7 8.6,13.5 15.8,27.1 41.9,78.9 143.3,321.6 190.1,882.6 21.9,6.1 44,12.5 66.5,19.3 0,0 87.4,-194.2 284.9,-379.2 -32.3,-222.1 -73.7,-387.2 -114.6,-508.7 -0.3,-0.6 -0.5,-1.2 -0.7,-1.8 21,-0.6 41.8,-0.9 62.3,-0.9 338.3,0 624.2,74.6 860.9,182.7 7.1,-0.1 14.1,-0.1 21.2,-0.1 137.1,0 288.2,21 454.3,70.2 -352.7,-262.2 -803.3,-445.3 -1351.8,-445.3 -114.9,0 -234,8 -357.5,25 0,0 -48.8,-58 -139.5,-133.2"
         style="fill:#371a45;fill-opacity:1;fill-rule:nonzero;stroke:none"
         id="path334" />
      <path
         d="m 27663.2,18999.8 c -53.1,36.6 -107,76.9 -161.6,121.3 -53,-14.1 -130,-21.9 -226.7,-23.2 -5.5,8.2 -10.9,16.5 -16.4,24.6 -12.5,17.9 -23.6,36.3 -33.5,55.1 -21.6,36.6 -39.9,74.3 -55.9,112.4 -16.1,38.7 -30,77.8 -42.6,116.9 -48.3,156.3 -60.9,315.5 -53.5,468 4.5,153.5 40.2,299.9 78,441.5 23.2,69.9 47.5,138.9 72.4,206.9 l 87.7,198.3 -14.8,-76.4 -26,-134.8 c -8.9,-71 -16.8,-141.5 -23.6,-211.4 -4.8,-140.8 -6.4,-280.3 20.6,-413 23.8,-132.3 65,-258.4 128.3,-366.1 32.3,-53.2 66.6,-104.1 107.7,-146.2 9.5,-11.2 19.8,-21.5 30.6,-30.9 10.6,-9.5 20.4,-20 31.5,-27.9 10.8,-8.3 21.3,-17.6 31.8,-23.9 1.5,-0.9 3.2,-2.1 4.8,-3.2 3.4,-2.3 6.7,-4.8 9.5,-6.1 0.2,-0.1 0.5,-0.2 0.7,-0.3 2.7,-1.2 7.6,-4.4 8.6,-4.4 0.4,0 0.3,0.4 -0.6,1.3 12.9,-8.9 24.3,-19.1 34.3,-30.3 58.5,-65.6 66.8,-165.1 14.3,-240.5 -1.8,-2.6 -3.7,-5.2 -5.6,-7.7"
         style="fill:#371a45;fill-opacity:1;fill-rule:nonzero;stroke:none"
         id="path336" />
      <path
         d="m 24618.7,19621.4 c -220.6,77.8 -433.4,163.7 -629.4,257.3 l 444.4,11.3 c 1.7,0 3.4,0 5,0 4.7,0 9.4,-0.1 14,-0.5 39.4,-2.8 75.6,-17.3 105.1,-40.2 44.6,-34.6 73.9,-88.2 75.4,-149 0.7,-27.9 -4.5,-54.6 -14.5,-78.9"
         style="fill:#371a45;fill-opacity:1;fill-rule:nonzero;stroke:none"
         id="path338" />
      <path
         d="m 21360.9,20845.9 c 0,0 -1224.2,138.6 -2237.7,1264.7 -875.6,972.9 -1459.3,1459.4 -1459.3,1459.4 0,0 486.4,-146 1653.9,-1313.4 1167.5,-1167.5 2043.1,-1410.7 2043.1,-1410.7"
         style="fill:#f07986;fill-opacity:1;fill-rule:nonzero;stroke:none"
         id="path340" />
      <path
         d="m 13800.1,22310.4 c -215.9,367.3 -250.9,734.7 -197.4,983.4 6.8,31.7 15.1,61.7 24.8,89.9 104.8,-222.5 364,-674.7 741.6,-674.7 14.7,0 29.7,0.7 44.8,2.1 -233,-112.2 -437.7,-245.9 -613.8,-400.7"
         style="fill:#b09b96;fill-opacity:1;fill-rule:nonzero;stroke:none"
         id="path342" />
      <path
         d="m 13686,22203.2 -93.5,82.2 -117.5,589.6 c 0,0 -48.7,408.8 100.7,629.4 0,0 17.7,-48.1 51.8,-120.7 -9.7,-28.2 -18,-58.2 -24.8,-89.9 -53.5,-248.7 -18.5,-616.1 197.4,-983.4 -39.5,-34.7 -77.5,-70.4 -114.1,-107.2 m 1048.5,642.3 c 9.2,6.8 18.5,13.9 27.9,21.3 l 1,-11 c -9.7,-3.4 -19.4,-6.9 -28.9,-10.3"
         style="fill:#371a45;fill-opacity:1;fill-rule:nonzero;stroke:none"
         id="path344" />
      <path
         d="m 13775,22125 -89,78.2 c 36.6,36.8 74.6,72.5 114.1,107.2 176.1,154.8 380.8,288.5 613.8,400.7 99.3,9.3 206.4,50.3 320.6,134.4 9.5,3.4 19.2,6.9 28.9,10.3 l 11.6,-130.8 -500,-350 -500,-250"
         style="fill:#371a45;fill-opacity:1;fill-rule:nonzero;stroke:none"
         id="path346" />
    </g>
  </g>
</svg>
