<?xml version="1.0" encoding="UTF-8" standalone="no"?>
<!-- Created with Inkscape (http://www.inkscape.org/) -->

<svg
   version="1.1"
   id="svg2"
   width="5333.3335"
   height="5333.3335"
   viewBox="0 0 5333.3335 5333.3335"
   sodipodi:docname="kangaroo_boxing.eps"
   xmlns:inkscape="http://www.inkscape.org/namespaces/inkscape"
   xmlns:sodipodi="http://sodipodi.sourceforge.net/DTD/sodipodi-0.dtd"
   xmlns="http://www.w3.org/2000/svg"
   xmlns:svg="http://www.w3.org/2000/svg">
  <defs
     id="defs6" />
  <sodipodi:namedview
     id="namedview4"
     pagecolor="#ffffff"
     bordercolor="#000000"
     borderopacity="0.25"
     inkscape:showpageshadow="2"
     inkscape:pageopacity="0.0"
     inkscape:pagecheckerboard="0"
     inkscape:deskcolor="#d1d1d1" />
  <g
     id="g8"
     inkscape:groupmode="layer"
     inkscape:label="ink_ext_XXXXXX"
     transform="matrix(1.3333333,0,0,-1.3333333,0,5333.3333)">
    <g
       id="g10"
       transform="scale(0.1)">
      <path
         d="M 0,0 H 40000 V 40000 H 0 Z"
         style="fill:#00edf9;fill-opacity:1;fill-rule:nonzero;stroke:none"
         id="path12" />
      <path
         d="m 19820.6,3865.3 c -5899.3,0 -10681.51,508.9 -10681.51,1136.7 0,302.4 1110.01,577.3 2920.41,780.9 -8.3,-79.9 -6.5,-159.3 5.3,-235.9 0,-0.1 0,-0.2 0.1,-0.4 0,-0.2 0,-0.4 0,-0.6 28.7,-186.5 116.2,-356.5 258.5,-478 0.2,-0.1 0.4,-0.3 0.6,-0.5 0.3,-0.2 0.4,-0.4 0.7,-0.6 135.3,-115 319.9,-186.2 550.8,-186.2 811.7,0 5199.6,0 5199.6,0 0,0 8.5,-0.3 24,-0.3 142.7,0 879.1,25.3 1051,543.3 43.7,131.6 25.8,266.6 -19,389.7 0.1,-0.1 0.1,-0.2 0.2,-0.3 v 0 0 c -3.4,9.3 -7,18.8 -10.9,28.1 -45.8,113.7 -112.9,215.9 -172.9,293.7 287.8,2.5 579.2,3.7 873.1,3.7 5899.2,0 10681.4,-508.9 10681.4,-1136.6 0,-627.8 -4782.2,-1136.7 -10681.4,-1136.7"
         style="fill:#0bbedf;fill-opacity:1;fill-rule:nonzero;stroke:none"
         id="path14" />
      <path
         d="m 10401.8,15407.2 c 0,0 226.5,-1913.6 1504,-2280.6 1392.3,-400 2914.1,1593.7 2914.1,1593.7 0,0 699.6,3591.2 347.4,3042.4 -523.1,-815.2 -2453.5,-2162.7 -2453.5,-2162.7 l -439.7,559.9 -1872.3,-752.7"
         style="fill:#ef863f;fill-opacity:1;fill-rule:nonzero;stroke:none"
         id="path16" />
      <path
         d="m 15205.5,16992.8 c -122,-917.8 -385.7,-2272.4 -385.7,-2272.4 0,0 -1521.8,-1993.7 -2914.2,-1594 -1277,367.2 -1503.8,2280.8 -1503.8,2280.8 l 1872.3,752.7 439.7,-559.9 c 0,0 40.5,28.2 111.4,79.2 417.8,299.8 1894.7,1386.3 2342,2083.6 136,211.7 115.3,-192.9 38.3,-770"
         style="fill:#ef863f;fill-opacity:1;fill-rule:nonzero;stroke:none"
         id="path18" />
      <path
         d="m 15263.6,17560.7 c -7.1,-146.2 -28.2,-344.2 -58.1,-567.9 -122,-917.8 -385.7,-2272.4 -385.7,-2272.4 0,0 -1521.8,-1993.7 -2914.2,-1594 -1277,367.2 -1503.8,2280.8 -1503.8,2280.8 l 1872.3,752.7 439.7,-559.9 c 0,0 8.4,5.7 24.7,17.2 18.9,13.6 48.4,34.3 86.7,62 417.8,299.8 1894.7,1386.3 2342,2083.6 83.2,129.4 107.8,28.1 96.4,-202.1"
         style="fill:#ffb030;fill-opacity:1;fill-rule:nonzero;stroke:none"
         id="path20" />
      <path
         d="m 12873.2,15409.4 -134.7,207.8 c 18.9,13.6 48.4,34.3 86.7,62 403.7,289.7 1796.2,1313.9 2293.3,2011.7 -31.1,-102.3 -62.9,-210.3 -94.8,-323.5 -22.6,-79.9 -45.2,-162.2 -67.9,-247.1 -849.7,-1075.8 -2082.6,-1710.9 -2082.6,-1710.9"
         style="fill:#ffd898;fill-opacity:1;fill-rule:nonzero;stroke:none"
         id="path22" />
      <path
         d="m 15205.5,16992.8 c -122,-917.8 -385.7,-2272.4 -385.7,-2272.4 0,0 -1521.8,-1993.7 -2914.2,-1594 -1277,367.2 -1503.8,2280.8 -1503.8,2280.8 l 1872.3,752.7 439.7,-559.9 c 0,0 40.5,28.2 111.4,79.2 39.6,-125.9 68.7,-253.1 70.5,-357.4 3.9,-218.8 -162.5,-691.6 -1129.6,-894.5 -614.1,-128.6 124.5,-1062.3 895.8,-729.5 709.2,306 373.7,1284.6 363.2,1314.9 18.5,-25.5 500.5,-687.6 952.6,-118.4 475,597.4 753.2,2021.9 1025.3,2247.8 52.8,44 123.7,-19 202.5,-149.3"
         style="fill:#f2802c;fill-opacity:1;fill-rule:nonzero;stroke:none"
         id="path24" />
      <path
         d="m 10401.8,15407.2 h 0.5 z m 196.1,-110.9 c 77.4,-421.3 392.1,-1723.4 1356.5,-2000.5 1171.5,-336.7 2503.8,1254.5 2700.8,1500 186,959.1 359.1,1998.1 416.7,2555.7 -715.7,-815.7 -2186.9,-1846.8 -2257.3,-1895.9 -76.6,-53.5 -181.6,-37.8 -239.3,35.6 l -358.1,456 z m 1691.3,-2399 c -143.7,0 -288,18.6 -432,60 -1374.2,394.9 -1620.5,2346.4 -1630.3,2429.2 -9.3,79 35.4,154.5 109.2,184.1 l 1872.3,752.6 c 72.6,29.2 155.8,7 204.2,-54.6 l 335.9,-427.7 c 444.1,320.2 1850.8,1362.7 2270.6,2016.9 108.9,169.7 232.2,143.3 280,124.1 156.1,-62.6 167,-236.7 119.3,-695.5 -27.4,-263.3 -78.5,-624 -151.9,-1072 -124.4,-759.5 -272.3,-1520.2 -273.8,-1527.8 -5.2,-26.6 -16.4,-51.6 -32.9,-73.2 -58.8,-77 -1327.1,-1716.1 -2670.6,-1716.1"
         style="fill:#390176;fill-opacity:1;fill-rule:nonzero;stroke:none"
         id="path26" />
      <path
         d="m 24448.8,13469.1 c 1518.2,-811.8 3232.3,-930.8 4804.7,1349.2 658.2,954.4 782.7,2132.7 1188.1,2134.7 479.3,2.5 957.2,-4605.4 -1596.1,-7215.3 C 27202,8057.8 24666,7269.5 21726.2,7467 l 2722.6,6002.1"
         style="fill:#ef863f;fill-opacity:1;fill-rule:nonzero;stroke:none"
         id="path28" />
      <path
         d="m 30501.9,12775.4 c -0.4,-1.7 -0.9,-3.5 -1.3,-5.2 -289.2,-1069.6 -803.5,-2162.4 -1654.9,-3032.7 C 27236,8092.8 24771.5,7303 21910,7456.2 c -61.2,3 -122.4,6.4 -184,10.7 l 2722.9,6002 c 1518.1,-811.6 3232.1,-930.6 4804.5,1349.5 658.5,954.1 783,2132.5 1188.2,2134.6 319.2,1.7 637.5,-2041.7 60.3,-4177.6"
         style="fill:#ffb030;fill-opacity:1;fill-rule:nonzero;stroke:none"
         id="path30" />
      <path
         d="m 26310.6,12587.6 c -151.3,0 -301.1,11.3 -448.4,33.2 -16.6,60.1 -34.7,119.9 -54.1,179.3 170.2,-26.9 337.6,-40.3 502.7,-40.3 187,0 371,17.2 552.7,51.4 930.5,175.7 1783.3,817.3 2535,1907.2 311.3,451.4 506.4,947.9 663.2,1346.8 100.2,255.1 231.9,590.2 331.4,685.5 -246.7,-502.6 -484.7,-1595.8 -1139.5,-2485.9 -868.8,-1180.9 -1940.2,-1677.2 -2943,-1677.2"
         style="fill:#ffd898;fill-opacity:1;fill-rule:nonzero;stroke:none"
         id="path32" />
      <path
         d="M 30500.6,12770.2 C 30211.4,11700.6 29697.1,10607.8 28845.7,9737.5 27236,8092.8 24771.6,7303 21910,7456.2 l 2104.2,1438.5 c 0,0 4999.6,-1107.8 6486.4,3875.5"
         style="fill:#fff3e9;fill-opacity:1;fill-rule:nonzero;stroke:none"
         id="path34" />
      <path
         d="m 22599.2,7261.2 c -290.4,0 -585.4,10 -884.8,30.1 -97.1,6.5 -170.4,90.4 -163.9,187.5 6.5,97 90.4,171.4 187.5,163.9 2911.5,-195.4 5390.9,592.2 6981.6,2218.2 1521.2,1554.9 1989.3,3936.4 1920.2,5646.8 -30.4,750.4 -156.6,1149.1 -227.2,1258.8 -101.3,-66 -244,-429.2 -350.9,-701.3 -156.8,-398.9 -351.9,-895.4 -663.2,-1346.8 -751.7,-1089.9 -1604.5,-1731.5 -2535,-1907.2 -774.8,-146.1 -1591.8,18.2 -2497.7,502.6 -85.8,45.8 -118.1,152.5 -72.3,238.3 45.9,85.7 152.6,118.2 238.3,72.2 1836.4,-981.9 3290.7,-570.7 4576.8,1294 288.3,418 475.1,893.6 625.3,1275.7 212.9,541.9 366.7,933.4 706.8,935.1 h 1.4 c 135.5,0 247,-101 331.5,-300.4 214.1,-505.3 321.4,-1727.1 112.4,-3084.5 C 30704.9,12568 30225.7,10896.8 28971.3,9614.6 27472.7,8082.7 25232.9,7261.2 22599.2,7261.2"
         style="fill:#390176;fill-opacity:1;fill-rule:nonzero;stroke:none"
         id="path36" />
      <path
         d="m 14866.5,11928.7 c 0,0 -1448,-1086 -1102.5,-2731.5 345.6,-1645.4 2089.8,-2534 2089.8,-2534 0,0 -364,-184.9 -1218.5,-39.9 -890.1,151.1 -1843.9,294.6 -2332.7,-280.8 -483.3,-568.9 -244.3,-1461.8 572.9,-1461.8 811.7,0 5199.6,0 5199.6,0 0,0 884.4,-31.3 1075,543 138,415.4 -337.7,864.6 -337.7,864.6 0,0 1523.9,552.5 1813.2,1384.1 284.3,817.7 -5759.1,4256.3 -5759.1,4256.3"
         style="fill:#ef863f;fill-opacity:1;fill-rule:nonzero;stroke:none"
         id="path38" />
      <path
         d="m 20625.7,7672.6 c -289.3,-832 -1813.3,-1384.5 -1813.3,-1384.5 0,0 475.5,-449 337.7,-864.5 -190.7,-574.1 -1075,-542.8 -1075,-542.8 0,0 -4387.7,0 -5199.4,0 -525.6,0 -812.2,368.9 -821,783.6 -5.3,230.2 75.3,474.9 247.8,677.9 489.1,575.8 1442.6,432.3 2332.7,280.8 435.8,-73.9 744.4,-62 941.6,-32.5 189.8,28.1 276.9,72.6 276.9,72.6 0,0 -1406.4,716.2 -1943.5,2054.5 l -0.4,0.9 c -60.8,151.4 -110.5,311.2 -145.8,478.5 -345.5,1645.5 1102.3,2731.5 1102.3,2731.5 0,0 1323.3,-752.8 2703,-1637.6 1567.6,-1006.8 3207.8,-2183.5 3056.4,-2618.4"
         style="fill:#ffb030;fill-opacity:1;fill-rule:nonzero;stroke:none"
         id="path40" />
      <path
         d="m 14343.5,7957 c -169,225.4 -320,479.4 -433.2,760.7 l -0.4,0.9 c -60.7,151.4 -110.5,311.2 -145.7,478.5 -247.5,1178.3 424.7,2069.7 826.4,2480.9 37.7,-198 83.1,-395.2 136.7,-590.1 -397.3,-458.3 -903.4,-1278.8 -683.6,-2325.8 35.2,-167.2 85,-327 145.7,-478.5 l 0.5,-0.8 c 45.3,-113.2 96.8,-221.5 153.6,-325.8"
         style="fill:#ffd898;fill-opacity:1;fill-rule:nonzero;stroke:none"
         id="path42" />
      <path
         d="m 19131.3,5813.1 c -0.1,0.1 -0.1,0.2 -0.2,0.3 -3.4,9.3 -7,18.6 -10.7,27.8 3.9,-9.3 7.5,-18.8 10.9,-28.1"
         style="fill:#85dfef;fill-opacity:1;fill-rule:nonzero;stroke:none"
         id="path44" />
      <path
         d="m 19131.1,5813.4 c -0.1,0 -0.2,0.1 -0.2,0.2 -4.5,12.1 -9.1,24.1 -14,36 1.2,-2.8 2.3,-5.6 3.5,-8.4 3.7,-9.2 7.3,-18.5 10.7,-27.8"
         style="fill:#f7c39f;fill-opacity:1;fill-rule:nonzero;stroke:none"
         id="path46" />
      <path
         d="m 19130.9,5813.6 c -24,25.7 -38.8,39.6 -38.8,39.6 0,0 7.1,2.6 19.8,7.5 1.7,-3.7 3.3,-7.4 5,-11.1 4.9,-11.9 9.5,-23.9 14,-36"
         style="fill:#ffd898;fill-opacity:1;fill-rule:nonzero;stroke:none"
         id="path48" />
      <path
         d="m 20625.7,7672.6 c -289.3,-832 -1813.3,-1384.5 -1813.3,-1384.5 0,0 475.5,-449 337.7,-864.5 -190.7,-574.1 -1075,-542.8 -1075,-542.8 0,0 -4387.7,0 -5199.4,0 -525.6,0 -812.2,368.9 -821,783.6 221.4,-56.4 500.5,-71.8 739.5,84.5 0,0 207,-324.5 1613,-324.5 1499.4,0 3589.1,-31.2 3589.1,388.3 0,562.6 -1403.4,471.9 -2419.5,777.9 189.8,28.1 276.9,72.6 276.9,72.6 0,0 -1406.4,716.2 -1943.5,2054.5 31.7,-42.7 1214.5,-1630.6 2123.6,-1112 696.4,397.9 -787.5,1314.5 -406.8,2098.9 69.6,143.5 1011.6,382.6 1942.3,586.4 1567.6,-1006.8 3207.8,-2183.5 3056.4,-2618.4"
         style="fill:#f2802c;fill-opacity:1;fill-rule:nonzero;stroke:none"
         id="path50" />
      <path
         d="m 13450.8,6581.8 c -413.2,0 -785.1,-83.8 -1014,-353.4 -205.3,-241.6 -263.6,-575.9 -145.2,-831.9 101.3,-219.1 308.7,-339.8 583.9,-339.8 h 5199.6 c 2.1,0 4.2,0 6.2,-0.1 7.2,0.2 755.3,-18.7 901.7,422.5 83.7,252.2 -189.3,584.7 -291.5,681.2 -44.4,42 -63.9,103.9 -51.5,163.7 12.4,59.8 54.9,109 112.3,129.9 402.1,146.1 1492.7,660.3 1707,1276.4 8.3,41.8 4.9,468 -2740.2,2253.7 -1219.8,793.5 -2468.9,1520.6 -2833.9,1730.9 -294.4,-260.7 -1218.4,-1197.9 -948.8,-2481.5 323.6,-1541.2 1980.7,-2404.8 1997.4,-2413.3 59,-30.2 96.1,-90.9 96,-157.1 -0.1,-66.2 -37.3,-126.8 -96.3,-156.7 -42.6,-21.7 -441.4,-206.9 -1327.7,-56.5 -367.7,62.4 -778.5,132 -1155,132 z m 4650.5,-1877.5 c -13.6,0 -23.4,0.1 -28.9,0.3 h -5196.9 c -414.3,0 -743.6,198.3 -903.5,544 -177.7,384.2 -100.6,858.2 196.4,1207.9 567.3,667.7 1636.9,486.3 2496.4,340.4 300.6,-51 535.5,-58.5 710.4,-49 -557.4,377.2 -1526.7,1190.2 -1783.5,2413.1 -364.4,1735.3 1106.4,2861.5 1169.1,2908.5 56.1,42.1 131.8,46.9 192.8,12.2 15.1,-8.6 1532.4,-873.3 2995.2,-1827 2701.8,-1761.5 2953.4,-2323.1 2843.1,-2640.1 -243.5,-700 -1228.9,-1198.9 -1686.3,-1397.5 147.5,-199.7 319.8,-523.3 211.6,-848.9 -208.9,-629.6 -1037.9,-663.9 -1215.9,-663.9"
         style="fill:#390176;fill-opacity:1;fill-rule:nonzero;stroke:none"
         id="path52" />
      <path
         d="m 15517.3,18837.1 c 0,0 -2534,-6038.8 148.1,-9741.1 1806.2,-2493.2 6432.5,-3211.8 8715.4,-1321.8 1309.2,1083.8 1687.3,2862 1541.8,3955.7 -138.3,1040.2 -578.8,2056.5 -1648.3,3064.1 -919.8,866.6 -3340.5,3095.7 -3996.1,4915.1 -658.5,1827.3 -2018.5,724.1 -2018.5,724.1 l -2742.4,-1596.1"
         style="fill:#ffb030;fill-opacity:1;fill-rule:nonzero;stroke:none"
         id="path54" />
      <path
         d="m 25459.6,12893.6 c -253.1,402.5 -582.2,802.7 -1005.7,1201.7 -321.4,302.9 -818.3,765.1 -1362.9,1317.2 62.4,22.5 123.6,48.7 183.3,78.6 11.7,-11.2 23.3,-22.4 34.9,-33.7 189,-182.5 379.8,-363.2 571.3,-541.9 l 286.2,-267.7 c 91.4,-88.8 184.2,-176.3 270.5,-269.8 351.3,-368 655.8,-776.7 892.9,-1223.1 45.9,-85.7 89,-172.8 129.5,-261.3"
         style="fill:#ffd898;fill-opacity:1;fill-rule:nonzero;stroke:none"
         id="path56" />
      <path
         d="m 25133.9,8604.6 c -12.8,-18.9 -26,-37.7 -39.3,-56.5 -13.7,-19.7 -27.8,-39.4 -41.9,-58.6 -13.3,-17.6 -26.1,-35.1 -39.4,-52.7 -13.7,-18.4 -27.8,-36.3 -41.9,-54.7 -76.2,-97.6 -157.5,-192.1 -243.9,-283.3 -14.6,-15.8 -30,-31.6 -45.4,-47 -15.8,-16.3 -31.6,-32.1 -47.5,-48 -80.4,-79.5 -164.7,-156.1 -253.7,-229.7 -23.5,-19.3 -47.1,-38.5 -71,-56.9 -16.7,-13.3 -33.4,-26.6 -50.5,-39 -12,-9.8 -24.4,-19.2 -37.2,-28.2 -23.6,-17.5 -47.1,-34.7 -71,-51.8 -18,-12.8 -36.4,-25.6 -54.8,-38 -7.3,-5.2 -15,-10.3 -22.3,-15 -17.5,-12 -34.6,-23.5 -52.6,-35.1 -53.9,-35.1 -109.1,-68.9 -165.2,-101.8 -26,-15.4 -53,-30.8 -80,-45.8 -18.8,-10.7 -37.6,-21 -56.9,-31.3 -13.7,-7.7 -27.3,-14.9 -41,-21.8 -21.4,-11.1 -42.8,-22.2 -64.7,-32.9 l -2.1,-1.3 c -27.4,-14.1 -54.7,-27.4 -82.6,-40.6 -26.5,-12.9 -53.4,-25.3 -80.4,-37.7 -9,-4.3 -18,-8.1 -27,-12 -20.9,-9.4 -41.9,-18.8 -63.3,-27.8 -28.6,-12.4 -57.7,-24.4 -86.8,-36.4 -29.1,-11.9 -58.2,-23.5 -87.7,-34.6 -29.6,-11.6 -59.1,-22.7 -89,-33.4 -15.4,-5.6 -30.8,-11.5 -46.7,-17.1 -2432.8,-857.9 -5881.4,-12 -7382.7,2060.6 -2668.2,3683.4 -173.7,9679.1 -148.5,9740.3 l 0.4,0.4 c 0,0 1.3,0.8 3.9,2.1 1.3,0.9 3,1.3 4.7,2.6 177.5,89 2980,1465.4 3928.2,122.8 802.6,-1137.3 -414.2,-3364.3 538.2,-6194.2 799.7,-2375 2721.2,-4328.2 5141.6,-4165.6"
         style="fill:#fff3e9;fill-opacity:1;fill-rule:nonzero;stroke:none"
         id="path58" />
      <path
         d="m 25134,8604.5 c -12.7,-18.9 -26.4,-37.4 -39.6,-56.3 -13.6,-19.8 -27.7,-39.6 -41.8,-58.5 -13.2,-17.7 -26,-35.3 -39.2,-52.9 -13.6,-18.5 -27.7,-36.5 -42.2,-54.6 -76.2,-97.7 -157.2,-192.3 -243.9,-283.5 -14.5,-15.8 -29.9,-31.7 -45.3,-47.1 -15.9,-16.3 -31.7,-32.1 -47.1,-48 -80.6,-79.2 -165.1,-155.8 -254.1,-229.3 -23.3,-19.4 -47.1,-38.7 -70.8,-57.2 -16.8,-13.2 -33.5,-26.4 -50.7,-38.8 -11.8,-10.1 -24.2,-19.3 -36.9,-28.1 -23.8,-17.6 -47.1,-34.8 -71.3,-52 -18.1,-12.8 -36.2,-25.5 -54.6,-37.8 -7.5,-5.3 -15,-10.6 -22.5,-15 -17.6,-12.3 -34.3,-23.8 -52.4,-35.2 -54.1,-35.2 -109.1,-69.1 -165,-101.7 -26.5,-15.4 -53.3,-30.8 -80.2,-45.8 -18.9,-11 -37.8,-21.1 -56.8,-31.3 -14,-7.9 -27.7,-14.9 -41.3,-22 -21.2,-11 -42.7,-22.4 -64.7,-33 l -1.8,-1.3 c -27.7,-14.1 -55,-27.3 -82.8,-40.5 -26.4,-12.8 -53.2,-25.1 -80.5,-37.9 -8.8,-3.9 -18.1,-7.9 -26.9,-11.8 -21.1,-9.3 -41.8,-19 -63.4,-27.8 -28.6,-12.3 -57.6,-24.2 -86.7,-36.5 -29,-11.9 -58.1,-23.3 -87.6,-34.4 -29.5,-11.8 -59,-22.8 -88.9,-33.4 -15.4,-5.7 -30.8,-11.5 -46.7,-17.2 -2433.1,-858 -5881.7,-11.9 -7382.8,2060.7 -1857.3,2563.8 -1213.3,6247.9 -641.8,8271.1 249.6,883.6 485.5,1450.1 493,1469 l 0.4,0.5 c 0,0 1.3,0.9 4,2.2 1.3,0.9 3.1,1.3 4.8,2.6 177.4,89 2979.8,1465.5 3928.1,122.9 316,-447.8 319.1,-1064.1 264.5,-1819.5 -83.6,-1164.3 -303.7,-2658.9 273.9,-4374.8 799.8,-2375 2720.9,-4328.2 5141.6,-4165.8"
         style="fill:#fff3e9;fill-opacity:1;fill-rule:nonzero;stroke:none"
         id="path60" />
      <path
         d="m 23784.4,7367.1 c -2.7,-1.3 -5.3,-3.1 -8,-4.4 -18.9,-11 -37.8,-21.1 -56.8,-31.3 -14,-7.9 -27.7,-14.9 -41.3,-22 -21.2,-11 -42.7,-22.4 -64.7,-33 l -1.8,-1.3 c -27.7,-14.1 -55,-27.3 -82.8,-40.5 -26.4,-12.8 -53.2,-25.1 -80.5,-37.9 -8.8,-3.9 -18.1,-7.9 -26.9,-11.8 -21.1,-9.3 -41.8,-19 -63.4,-27.8 -28.6,-12.3 -57.6,-24.2 -86.7,-36.5 -29,-11.9 -58.1,-23.3 -87.6,-34.4 -29.5,-11.8 -59,-22.8 -88.9,-33.4 -15.4,-5.7 -30.8,-11.5 -46.7,-17.2 -2382.9,-840.3 -5740.4,-45.8 -7287.7,1934.3 349.1,-99.9 746.1,-160.2 1153.3,-114.9 2263.6,251.8 2263.6,1771.9 2959.1,3081.5 89,167.7 192.4,277.8 302.9,344.3 683.2,-1655.7 1921.6,-3033.5 3485.2,-3507.7 88.9,-408 155.4,-902.4 123.3,-1406"
         style="fill:#f9d3b7;fill-opacity:1;fill-rule:nonzero;stroke:none"
         id="path62" />
      <path
         d="m 18458.2,9414.1 c -477.6,-1012.5 -1079.4,-1793.4 -1079.4,-1793.4 -732.1,423.5 -1282.8,900.6 -1697,1373 367.1,-114 794.1,-187.5 1232.1,-138.7 704.4,78.4 1189.5,279.6 1544.3,559.1"
         style="fill:#f9d3b7;fill-opacity:1;fill-rule:nonzero;stroke:none"
         id="path64" />
      <path
         d="m 19718.5,17145.1 c -593.4,-105.2 -1218.9,-161.5 -1864.3,-161.5 -1007.6,0 -1965.1,136.9 -2830.5,383.8 249.6,883.6 485.5,1450.1 493,1469 l 0.4,0.5 c 0,0 1.3,0.9 4,2.2 1.3,0.9 3.1,1.3 4.8,2.6 177.4,89 2979.8,1465.5 3928.1,122.9 316,-447.8 319.1,-1064.1 264.5,-1819.5"
         style="fill:#f9d3b7;fill-opacity:1;fill-rule:nonzero;stroke:none"
         id="path66" />
      <path
         d="m 25835.3,11718.3 c -101.2,505.6 -266.7,990.8 -505.2,1436.6 -237.1,446.4 -541.6,855.1 -892.9,1223.1 -86.3,93.5 -179.1,181 -270.5,269.8 l -286.2,267.7 c -191.5,178.7 -382.3,359.4 -571.3,541.9 -378.1,365.1 -749,739 -1107.5,1126 -358.8,386.7 -704.9,786.9 -1025.7,1210.2 -319.5,424 -619.3,867.7 -861.2,1352.5 l -45.9,90.5 -23,45.2 -19.6,47.3 -78.3,189.6 c -25.7,62.6 -53.5,129 -74.2,183.4 l -33.1,85.9 c -11.6,28.2 -24.9,55.3 -37.2,83 -48.9,111.2 -108.5,214.3 -174.8,309.1 -65.8,95.7 -144,176.9 -229.3,242.2 -85.7,65 -180.4,111.1 -281.7,135.8 -101.3,25 -210,25.5 -319.5,9.6 -109.7,-15.7 -220.3,-51.7 -327.7,-97.9 -53.4,-24.1 -106.2,-50.8 -157.4,-80.3 -25.5,-14.8 -50.8,-30.2 -75.2,-46.2 -23.7,-15.2 -50.5,-34.3 -67.2,-46.9 l -6.5,-4.9 c -77.6,-58.4 -188,-42.9 -246.4,34.8 -57.5,76.3 -43.2,184.4 31,243.6 34.7,27.6 61.2,46.6 92,67.6 29.8,20.4 60.1,39.7 90.7,58.2 61.4,37.1 124.8,70.8 189.9,101.7 131.3,59.8 270.5,109.2 419.8,132.3 148.4,23.6 306.2,25.4 459.8,-10.3 153.5,-34.8 299.1,-104.6 422.5,-196.3 123.4,-91.7 228.5,-201.8 312.6,-320.4 85,-118.2 157.5,-242.3 215.6,-369.7 14.5,-31.9 30.2,-63.5 43.8,-95.6 l 38.4,-96.8 c 25.8,-67.7 49.2,-121.7 73.2,-180 l 71.6,-173 17.9,-43.3 21.5,-42.1 43.1,-84.4 c 225.8,-451.4 514,-878.5 824.3,-1288.8 l 238.7,-304.2 247.8,-298 c 168,-196.6 336.7,-393 512.5,-583.7 349.1,-383.5 711.8,-755.8 1082.9,-1120.6 185.6,-182.5 373,-363.2 562.3,-543 l 284.4,-270.8 c 95.4,-94.2 191.9,-187.1 282.3,-286.7 369,-389.7 685.5,-837.2 916.1,-1326.7 114,-245.2 206.6,-500.3 272.8,-761.2 15.7,-65.5 30.8,-131 44.8,-196.6 l 35.4,-198 27.4,-198.7 17,-199.3 c 4.1,-48.5 -31.8,-91.2 -80.3,-95.3 -45.2,-3.8 -85.3,27.1 -94,70.5 l -0.3,1.6"
         style="fill:#390176;fill-opacity:1;fill-rule:nonzero;stroke:none"
         id="path68" />
      <path
         d="m 15679.7,18768.9 c -80.3,-196.5 -155.1,-405.6 -225.8,-611.6 -71.3,-207 -135.9,-416.5 -199.3,-626.1 -124,-420.4 -232.6,-845.5 -324.2,-1273.9 -91.5,-428.4 -166.2,-860.2 -221.1,-1294 -53.4,-434.1 -86.4,-870.1 -95.5,-1306 -0.5,-108.9 -6.1,-218 -2.4,-326.8 l 7.1,-326.5 20.1,-325.5 c 2.5,-54.4 7.5,-108.5 13.8,-162.4 l 17.1,-161.9 17.5,-161.9 24.6,-160.7 c 17.6,-106.9 29.5,-215 53.9,-320.4 22.2,-106 42.6,-212.3 66.1,-317.8 l 82.4,-313.5 c 120,-414.7 277,-817.4 473.4,-1199.8 l 158.8,-280.2 c 25.1,-47.6 55.1,-92 85.3,-136.4 l 89.4,-133.7 89.5,-133.6 97.9,-125.8 c 62.7,-85.9 135.6,-163.8 205.9,-243.7 l 53.1,-59.7 56.7,-56.5 113.2,-113.1 c 76.8,-74.1 159.2,-142.7 238.4,-214.5 84.2,-66.1 166.9,-134.3 252.8,-198.4 l 131.4,-93.1 c 43.8,-31 87,-62.8 133.1,-90.6 359.9,-234.9 745.6,-432.8 1147.3,-591.2 803.6,-317.3 1665.2,-490.6 2528.1,-517.5 861.7,-23.7 1732.5,98 2523.9,423.3 50.3,18.5 98.5,41.1 146.6,64.1 l 145,67.6 c 48.3,22.7 94,49.9 141.2,74.7 46.5,26 94.8,49.1 139.9,77.4 181.2,111.5 358,230.7 522,367.3 328.4,272.9 612.1,602.4 849.3,966.5 l 0.2,0.3 c 26.6,40.8 81.2,52.3 122,25.7 38,-24.7 50.4,-74.3 30.4,-113.9 -205.1,-402.6 -478.2,-776.6 -813.6,-1090.7 -337.6,-311.7 -727.8,-568.6 -1148.2,-751.6 -418.7,-187.9 -862.4,-311.4 -1311.1,-389.6 -449,-78.8 -905.3,-105.5 -1358.8,-90.3 -907.2,30.8 -1806.2,220.2 -2648.2,557.8 -420.4,170 -827.8,375.7 -1209.2,625.6 -48.7,29.5 -94.7,63.3 -141.3,96.2 l -139.6,99 c -91.5,68.3 -179.9,140.9 -269.6,211.6 -85,76.7 -172.8,150.2 -255.3,229.7 l -121.8,121.6 -60.8,60.8 -57.4,64.2 c -76,86.2 -154.3,170.5 -222.6,263.4 l -105.9,136.5 -95.5,142.1 -95.1,142.4 c -32,47.3 -63.9,94.7 -90.6,145.1 l -168.7,297.7 c -208.5,405.6 -374.2,831.1 -500.3,1267 l -86.4,329 c -24.7,110.5 -46.1,221.6 -69.2,332.4 -25.4,110.5 -38,222.9 -56.3,334.4 l -25.6,167.6 -18.2,168.3 -17.8,168.3 c -6.5,56.1 -11.7,112.2 -14.3,168.5 l -20.8,337.5 -7.3,337.5 c -3.7,112.5 1.9,224.9 2.4,337.3 9.4,449.4 43.4,897.6 98.1,1342.6 56.4,444.7 132.8,886.3 226.2,1324 93.6,437.6 204.4,871.2 331,1300.2 128.9,429.8 267.6,850.9 438,1274 36.3,90.2 138.8,133.9 229.1,97.6 90.2,-36.3 133.8,-138.9 97.5,-229.1 l -0.3,-0.8 -1.6,-4"
         style="fill:#390176;fill-opacity:1;fill-rule:nonzero;stroke:none"
         id="path70" />
      <path
         d="m 23338.7,12589.8 c -1257.2,1207.5 -3190.2,533 -3532.2,-866.6 -295.4,-1208.5 208.4,-2479.1 208.4,-2479.1 l 2942.4,-2030.8 626.7,362.4 521,1842.3 -766.3,3171.8"
         style="fill:#ffb030;fill-opacity:1;fill-rule:nonzero;stroke:none"
         id="path72" />
      <path
         d="m 22629.7,7439.7 -2614.9,1804.5 c 0,0 -89.4,225.8 -170.8,577.5 208.2,220.6 530,380.8 1026.6,323.2 1447,-167.8 2314.2,-1946.7 2400.9,-2467 24.7,-147 -243.9,-215.7 -641.8,-238.2"
         style="fill:#f2802c;fill-opacity:1;fill-rule:nonzero;stroke:none"
         id="path74" />
      <path
         d="m 20014.9,9244.1 -0.1,0.1 c 0,0 -122.3,308.7 -211.1,766.4 58,-298.7 130.2,-534 173.4,-661.4 23,-67.8 37.7,-105 37.7,-105 v 0 c 0.1,-0.1 0.1,-0.1 0.1,-0.1"
         style="fill:#fce9db;fill-opacity:1;fill-rule:nonzero;stroke:none"
         id="path76" />
      <path
         d="m 23354.3,12525.5 v 0 l -15.6,64.3 c -442.1,424.6 -967.7,616.5 -1478.4,626 510.8,-9.4 1036.4,-201.3 1478.6,-626 l 15.4,-64.3"
         style="fill:#ffd898;fill-opacity:1;fill-rule:nonzero;stroke:none"
         id="path78" />
      <path
         d="m 20213.8,9106.8 -198.9,137.3 v 0 l 198.9,-137.2 c 0,0 0,0 0,-0.1 m -236.7,242.4 c -43.2,127.4 -115.4,362.7 -173.4,661.4 -91.2,470.9 -146.9,1099.6 2.9,1712.4 218.6,894.8 1087.2,1493.2 2013.9,1493.2 13.3,0 26.5,-0.1 39.8,-0.4 510.7,-9.5 1036.3,-201.4 1478.4,-626 l 15.5,-64.3 c -401.7,300.2 -853.4,434.4 -1291.9,434.4 -926.7,0 -1795.3,-598.5 -2014,-1493.1 -128.4,-525.6 -105.8,-1063 -39.2,-1502.5 -61.8,-42.9 -116.5,-91.1 -165.1,-142.6 48.4,-208.8 99.5,-373.3 133.1,-472.5"
         style="fill:#ffd898;fill-opacity:1;fill-rule:nonzero;stroke:none"
         id="path80" />
      <path
         d="m 20213.8,9106.9 -199,137.3 c 0,0 -14.7,37.2 -37.7,105 -33.6,99.2 -84.7,263.7 -133.1,472.5 48.6,51.5 103.3,99.7 165.1,142.6 58.5,-386.2 150.9,-696.8 204.7,-857.4"
         style="fill:#f9c096;fill-opacity:1;fill-rule:nonzero;stroke:none"
         id="path82" />
      <path
         d="m 23277.7,12526.3 c -106.9,88.8 -218,171.2 -336.3,240.4 -117.8,69.9 -242,126.8 -368.9,173.2 -254.6,91.3 -524.4,131.6 -791,119.2 -532.4,-24.4 -1054.2,-259.1 -1403.1,-649.2 -173.7,-194.4 -303.7,-424.9 -372.6,-673.2 -65.9,-255 -100.8,-530.1 -102.2,-803.1 -3,-274.3 26.5,-550.2 72,-823.7 23.1,-136.8 52,-272.8 86.2,-407.4 17,-67.4 35.9,-134.1 55,-200.6 19,-65.3 40.8,-134.4 61.7,-192.8 l 0.1,-0.1 -63.7,80 2942.4,-2030.8 -188.1,7.5 626.6,362.4 c 84.2,48.7 192,19.9 240.6,-64.2 48.7,-84.2 19.9,-191.9 -64.2,-240.6 l -626.7,-362.4 c -60.8,-35.2 -134,-29.8 -188.2,7.5 l -2942.4,2030.8 -0.6,0.4 c -29.7,20.4 -50.9,48.4 -63.1,79.6 l -0.1,0.2 c -30.4,75.8 -54,143.4 -78,215.3 -23.7,70.8 -44.3,142.4 -64.4,214 -39.5,143.5 -73.4,288.3 -101.2,434.7 -56.7,292.5 -84.5,591.6 -83.7,892.8 2.6,302 34.2,603.2 117.8,904 88.7,305.3 251,588.2 466.4,817.2 429.9,460.9 1049.9,718.9 1667.4,714.6 308.5,-0.9 616.2,-66.6 894.5,-192.2 139.5,-61.8 271.2,-139.5 393.2,-228.5 122.7,-88 235,-188.8 336.6,-298 33.2,-35.6 31.2,-91.4 -4.5,-124.6 -32.8,-30.6 -82.8,-31.3 -116.4,-3.3 l -1.1,0.9"
         style="fill:#390176;fill-opacity:1;fill-rule:nonzero;stroke:none"
         id="path84" />
      <path
         d="m 23744.6,8915 c 0,0 991,-2023.5 208.4,-2654.7 -653.4,-526.9 -1629.9,-232.2 -2868.2,281.6 -865.4,359 -1857.4,305.2 -2260.1,1106.1 -543.9,1081.7 353.7,2101.8 1233.2,2140 1449.7,62.9 3160.1,-1778 3160.1,-1778"
         style="fill:#f2802c;fill-opacity:1;fill-rule:nonzero;stroke:none"
         id="path86" />
      <path
         d="m 23953,6260.3 c -653.3,-527.1 -1630.1,-232.3 -2868.3,281.5 -865.2,359 -1857.4,305.1 -2260,1106.1 -24.8,49.6 -46.6,99.2 -65.5,148.4 28.7,514.3 184.9,1359.8 886.1,1530.9 1214.7,296.5 2313.1,-919.9 3093,-1441.4 802.7,-536.6 1648.6,-929.4 1214.7,-1625.5"
         style="fill:#fff3e9;fill-opacity:1;fill-rule:nonzero;stroke:none"
         id="path88" />
      <path
         d="m 20556.9,7255.7 c -168.8,118.7 -362.3,591.4 82.4,777 524.8,218.9 1640.3,-544.3 1676.2,-1000.5 23.2,-295.2 -434.1,-271.8 -787.1,-113.8 -273,122.3 -696.6,144 -971.5,337.3"
         style="fill:#ff7d7d;fill-opacity:1;fill-rule:nonzero;stroke:none"
         id="path90" />
      <path
         d="m 19816,8889.5 c -47.4,90.9 -42.5,266.8 97.4,314.3 267.4,90.8 489.3,-347 328.3,-482.9 -109.5,-92.4 -319.1,-35.7 -425.7,168.6"
         style="fill:#ff7d7d;fill-opacity:1;fill-rule:nonzero;stroke:none"
         id="path92" />
      <path
         d="m 19162.9,8353 c -42.4,93.3 16.7,261.8 129.9,294.9 275.4,80.5 473.2,-249.2 332.2,-402.7 -96.9,-105.5 -367.4,-100.7 -462.1,107.8"
         style="fill:#ff7d7d;fill-opacity:1;fill-rule:nonzero;stroke:none"
         id="path94" />
      <path
         d="m 19106.7,7561.6 c -40.6,77.8 -30.1,214.1 60.8,258.3 217.7,105.8 511.8,-214.1 357.8,-369.9 -86.3,-87.4 -327.2,-63.5 -418.6,111.6"
         style="fill:#ff7d7d;fill-opacity:1;fill-rule:nonzero;stroke:none"
         id="path96" />
      <path
         d="m 23823.6,8953.7 c 78.6,-142.1 146.1,-284.8 209.9,-431.7 63.4,-146.5 124,-294.9 174.9,-447.3 102.6,-304.5 183.5,-620.9 202.3,-957.3 7.7,-167.9 -1.9,-342.4 -50.3,-518.3 -24.7,-87.7 -61.1,-175.2 -111.4,-257.3 -50.9,-81.5 -116.6,-157.7 -192.2,-218.8 -138.6,-112.6 -301.4,-200.2 -472.7,-250.7 -171.3,-51.5 -347.2,-69.9 -517.8,-68.7 -170.9,1.7 -337.7,21.9 -499.7,52.7 -162.2,30.5 -320.3,70.8 -475.3,116.9 -309.9,92.2 -608.7,204.3 -903.2,321.5 l -217.5,87.2 c -68.6,27.2 -139.3,51.4 -210.6,74.8 -143.1,46.3 -290.8,85.9 -441.7,124.5 -301.2,78.8 -618.1,147.9 -931.8,291.5 -155.6,72.5 -310.6,166.1 -443.5,291.9 -133.5,123.4 -243.2,279 -315.7,440.2 -74.3,158.5 -127.2,330.2 -150.8,507.7 -23.2,177.6 -14.1,360 23.3,535.2 38.7,175.1 107.2,342.2 198.2,494 92.5,150.9 205.1,288.7 337,405.1 260.7,234.3 594,395.3 956.7,425.9 355.8,25.4 691.1,-53.5 1001.5,-168.4 310.8,-116.5 598.6,-272.7 870.7,-447 272,-174.6 528.7,-369.2 766.4,-583.6 118.5,-107.6 233.4,-218.8 342.4,-335.7 109.3,-117.1 213.6,-236.3 309.8,-368.1 28.9,-39.5 20.3,-94.9 -19.2,-123.8 -33.1,-24.2 -77.4,-22.1 -107.9,2.4 l -1.9,1.6 c -240.9,193.9 -482.9,390.6 -728.4,576.6 -245.4,186.8 -493.4,368.1 -751.6,530 -258.2,161.2 -527.8,302.3 -806.8,402.9 -277.2,100 -570.2,159.6 -842.9,135.9 -264.5,-24.9 -526,-151.4 -730.4,-336.7 -206,-184.4 -354.9,-430.6 -411.8,-694.1 -27.2,-131.9 -33.8,-267.5 -15.7,-401.3 18.5,-133.8 59.1,-265.4 118.5,-390.8 57.4,-124.4 132.1,-230.6 228.3,-321.2 94.8,-91.2 211.4,-163.7 339.5,-224.3 257.7,-120.8 557.9,-191.5 863.1,-271.9 153,-40 308.5,-82.5 464,-133.6 77.7,-25.8 155.4,-53.5 232.4,-85 l 218.7,-90.5 c 287.5,-118.2 576.2,-229.9 867.4,-319.9 290.5,-88.9 586.2,-158.2 873.1,-164.3 286.6,-6.8 558,61.5 770.8,230.1 189.8,141.3 257.9,426.7 253.6,716.4 -2.1,292.3 -61.1,594.2 -138,890.4 -40.1,148 -82.5,296.5 -132,443 -49.3,146 -103.2,293.2 -159.8,434.5 l -0.8,2 c -18.1,45.2 3.9,96.5 49.1,114.6 41.7,16.7 88.7,-0.8 109.8,-39.2"
         style="fill:#390176;fill-opacity:1;fill-rule:nonzero;stroke:none"
         id="path98" />
      <path
         d="m 17180.2,26697.3 c 0,0 428.5,4130.5 -76.9,6909.8 -169.2,930.6 -637.7,2720.1 -1321.5,2640.3 -877.6,-102.4 -2103.9,-2339.5 -2391.6,-4035.4 -428.5,-2526.1 407,-4855.6 2879.7,-5842.6 l 910.3,327.9"
         style="fill:#ef863f;fill-opacity:1;fill-rule:nonzero;stroke:none"
         id="path100" />
      <path
         d="m 17180.3,26697.3 -910.4,-327.9 c -1502.9,600 -2400.9,1695.7 -2777.8,3030.4 -243.4,861.1 -269.8,1821.6 -101.6,2812.1 287.4,1696.2 1513.9,3933.3 2391.2,4035.5 684.1,79.6 1152.5,-1709.8 1321.5,-2640.5 151,-831.1 218.8,-1783.3 239.5,-2709.5 48,-2171.1 -162.4,-4200.1 -162.4,-4200.1"
         style="fill:#ef863f;fill-opacity:1;fill-rule:nonzero;stroke:none"
         id="path102" />
      <path
         d="m 17180.3,26697.3 -910.4,-327.9 c -1502.9,600 -2400.9,1695.7 -2777.8,3030.4 -66,232.9 -115.7,472.8 -150.1,718.9 -93.3,663.8 -74.4,1370.4 48.5,2093.2 287.4,1696.2 1513.9,3933.3 2391.2,4035.5 684.1,79.6 1152.5,-1709.8 1321.5,-2640.5 83.7,-459.5 141.8,-956.1 180.1,-1465 v -0.4 c 31.2,-410.7 50.1,-830.3 59.4,-1244.1 48,-2171.1 -162.4,-4200.1 -162.4,-4200.1"
         style="fill:#ffb030;fill-opacity:1;fill-rule:nonzero;stroke:none"
         id="path104" />
      <path
         d="m 13459.1,31170.5 c 10.9,325.9 45.6,663.6 104.7,1012 287.6,1695.4 1501,3804 2238.4,3890 7.5,0.9 15,1.3 22.6,1.3 324.8,0 725,-806.7 995.5,-1967.1 -260,813.9 -624.4,1571.5 -1079.9,1571.5 -133.6,0 -275.1,-65.1 -424,-213.1 -1192.9,-1185.5 -1670,-3106.7 -1857.3,-4294.6"
         style="fill:#ffd898;fill-opacity:1;fill-rule:nonzero;stroke:none"
         id="path106" />
      <path
         d="m 17180.3,26697.3 -910.4,-327.9 c -1502.9,600 -2400.9,1695.7 -2777.8,3030.4 479,15.9 700.9,198.6 1342.7,573.2 1256.4,732.9 2009.6,567.4 2507.9,924.4 48,-2171.1 -162.4,-4200.1 -162.4,-4200.1"
         style="fill:#e57138;fill-opacity:1;fill-rule:nonzero;stroke:none"
         id="path108" />
      <path
         d="m 16269.9,26193.3 c -21.7,0 -43.8,4 -65.2,12.6 -1228.9,490.5 -2111.4,1309.7 -2622.9,2434.8 -464.9,1022.8 -591.2,2267.9 -365.2,3600.7 296.3,1746.7 1553.9,4065.3 2544.8,4180.9 892.7,102.6 1356.7,-1912.1 1515.2,-2783.7 504,-2771.9 83.1,-6917.9 78.8,-6959.5 -10.1,-96.7 -96.9,-166.8 -193.3,-157 -96.8,10 -167,96.6 -157,193.3 4.2,41.1 420,4138 -75,6860.2 -266.8,1467.4 -752.3,2541.3 -1127.9,2496.9 -737.4,-86 -1950.8,-2194.6 -2238.4,-3890 -458.7,-2704.2 551.5,-4763.5 2771.4,-5649.6 90.3,-36 134.3,-138.5 98.3,-228.8 -27.5,-68.9 -93.7,-110.8 -163.6,-110.8"
         style="fill:#390176;fill-opacity:1;fill-rule:nonzero;stroke:none"
         id="path110" />
      <path
         d="m 16880.1,18022 c -2999.7,246.4 -5353.6,1703.4 -5800.3,3352.8 -230.5,851.5 -93.9,1671 391.9,2361.5 594.4,844.9 522.7,5374.4 4940.1,6258.4 1294.2,259 3626.6,205.6 5237.8,-1080.2 2190.5,-1748.1 2772.8,-5363.2 2109.2,-7639.9 -641.6,-2201.3 -2864.5,-3582.5 -6878.7,-3252.6"
         style="fill:#ef863f;fill-opacity:1;fill-rule:nonzero;stroke:none"
         id="path112" />
      <path
         d="m 16880.1,18022 c -2999.7,246.4 -5353.6,1703.4 -5800.3,3352.8 -230.5,851.5 -93.9,1671 391.9,2361.5 594.4,844.9 522.7,5374.4 4940.1,6258.4 1294.2,259 3626.6,205.6 5237.8,-1080.2 2190.5,-1748.1 2772.8,-5363.2 2109.2,-7639.9 -641.6,-2201.3 -2864.5,-3582.5 -6878.7,-3252.6"
         style="fill:#ef863f;fill-opacity:1;fill-rule:nonzero;stroke:none"
         id="path114" />
      <path
         d="m 23758.9,21274.8 c -48.1,-165.7 -105.5,-326.3 -171.8,-482.3 -814.7,-1917 -2995.1,-3075.8 -6706.8,-2770.4 -2999.7,246.5 -5353.7,1703.1 -5800.5,3352.6 -83.1,307.2 -118.6,610.7 -106.9,905.3 20.5,521 188.1,1015 499.1,1456.2 594.3,845.1 522.4,5374.3 4939.6,6258.6 1294.2,259.1 3626.7,205.4 5237.9,-1080.4 2190.6,-1748 2772.8,-5363.1 2109.4,-7639.6"
         style="fill:#ef863f;fill-opacity:1;fill-rule:nonzero;stroke:none"
         id="path116" />
      <path
         d="m 23758.8,21274.8 c -48,-165.5 -105.6,-326.2 -171.7,-482.5 -814.8,-1916.7 -2995.2,-3075.8 -6706.6,-2770.2 -3000.1,246.5 -5353.9,1703.1 -5800.7,3352.6 -83.2,307.3 -118.5,610.6 -107,905.1 20.7,521.2 188.4,1015.1 499.2,1456.2 220.1,313 349.1,1131.4 648.4,2083.1 l 0.9,2.7 c 0.5,2.2 1.3,4.8 2.2,8.3 26.4,83.2 54.2,167.3 82.8,252.3 535.3,1564.5 1573.3,3385.7 4205.3,3912.2 1294.3,259.2 3626.5,205.5 5237.7,-1080.3 1525.4,-1217.7 2271.1,-3339.9 2359.1,-5285.2 38.3,-848.3 -48,-1663.2 -249.6,-2354.3"
         style="fill:#ffb030;fill-opacity:1;fill-rule:nonzero;stroke:none"
         id="path118" />
      <path
         d="m 23782.2,24298 c -168.5,779.4 -542.8,2019.4 -1341.9,3122.2 l 78.9,-63.8 c 33.7,6.1 67.5,12.3 100.9,19.2 39.5,7.9 79.1,16.2 118.1,24.7 568.1,-921.7 910.8,-2017 1044,-3102.3 M 13479,28107.2 c 487.8,594 1140.5,1112.2 2033.5,1449.7 7.7,-17.6 11.6,-37.8 11.2,-64.6 l -0.3,-16.2 c -0.1,-17 4.6,-33.9 13.9,-48.5 -885.8,-312 -1556.4,-801.5 -2058.3,-1320.4"
         style="fill:#ffd898;fill-opacity:1;fill-rule:nonzero;stroke:none"
         id="path120" />
      <path
         d="m 23813.2,23719.1 c 10.7,-752.1 -77.5,-1469.7 -257.7,-2088.3 -48.1,-165.8 -105.5,-326.4 -171.8,-482.3 -814.7,-1917 -2995.1,-3075.8 -6706.8,-2770.5 -2999.7,246.5 -5353.7,1703.2 -5800.5,3352.7 -52.3,192.8 -85.5,384.2 -99.9,572.9 809.1,-1441.3 3016.9,-2630 5739.3,-2854.1 3834.5,-315.1 6086.8,881.9 6928.1,2862 68.6,161.1 127.9,327.3 177.9,498.2 83.1,284.8 147.1,590.1 191.4,909.4"
         style="fill:#f2802c;fill-opacity:1;fill-rule:nonzero;stroke:none"
         id="path122" />
      <path
         d="m 23587.1,20792.5 c -814.7,-1917 -2995.1,-3075.8 -6706.8,-2770.4 -2999.7,246.5 -5353.7,1703.1 -5800.5,3352.6 -7.5,28 -15,56.5 -21.5,84.5 -3.3,13.1 -6.5,26.2 -9.3,39.2 -6.1,26.2 -11.7,51.9 -16.8,77.6 -4.2,21 -8.4,41.5 -11.7,62 -1.9,8.4 -3.7,16.4 -4.7,24.8 -4.2,23.8 -8.4,47.6 -11.6,71.4 -3.8,23.8 -7.1,47.6 -9.9,71.5 -6,47.6 -10.7,94.7 -14.4,141.9 809.1,-1441.3 3017,-2630 5739.3,-2854.1 2958.2,-243.2 4974.7,413.7 6127.9,1636 242.3,16.3 489.3,38.3 740,63"
         style="fill:#f9d3b7;fill-opacity:1;fill-rule:nonzero;stroke:none"
         id="path124" />
      <path
         d="m 23587.1,20792.5 c -814.7,-1917 -2995.1,-3075.8 -6706.8,-2770.4 -2999.7,246.5 -5353.7,1703.1 -5800.5,3352.6 -83.1,307.2 -118.6,610.7 -106.9,905.3 7.4,187.7 34,372.1 79.8,551.9 654.6,-737.2 2488.9,-878.2 3794.8,382.8 426.7,510.8 1585.6,358.1 2091.2,-268.9 1878.3,-2331.2 4031.5,-2411.5 6648.4,-2153.3"
         style="fill:#ffffff;fill-opacity:1;fill-rule:nonzero;stroke:none"
         id="path126" />
      <path
         d="m 23383.7,21148.5 c -814.7,-1917 -2995.1,-3075.8 -6706.8,-2770.5 -2999.7,246.5 -5353.7,1703.2 -5800.5,3352.7 -7.5,28 -15,56.5 -21.5,84.5 -3.3,13.1 -6.5,26.1 -9.3,39.2 -6.1,26.2 -11.7,51.8 -16.9,77.5 -4.1,21 -8.4,41.6 -11.6,62.1 -1.9,8.4 -3.8,16.4 -4.7,24.8 -4.2,23.8 -8.4,47.6 -11.7,71.4 -3.7,23.8 -7,47.6 -9.8,71.4 -6.5,47.7 -11.2,94.8 -14.4,142 932.8,-1731.8 3238.9,-2904.2 5717,-3113.2 3202.6,-270.2 4997,672.8 6150.2,1895.1 242.3,16.3 489.3,38.2 740,63"
         style="fill:#f9d3b7;fill-opacity:1;fill-rule:nonzero;stroke:none"
         id="path128" />
      <path
         d="m 16894.5,18197.4 c 3642.4,-299.1 6020.3,811 6695.3,3126.5 661.5,2269.6 65.9,5764.4 -2050,7452.9 -1632.8,1303.1 -3969.9,1270.1 -5093.5,1045.2 -3292.6,-659 -4008.8,-3408 -4436.8,-5050.5 -138.5,-531.7 -238.6,-916 -393.7,-1136.5 -456.1,-648.3 -582.7,-1413.9 -366,-2214.2 442.8,-1635.3 2816.8,-2991 5644.7,-3223.4 m 1128.5,-400.3 c -371.1,0 -756.9,16.4 -1157.3,49.3 -2970.8,244.1 -5475.6,1708.7 -5955.8,3482.4 -244.9,904.6 -100.4,1772.2 417.8,2508.9 118.5,168.3 221.6,564.2 341.1,1022.6 217.8,836.2 516.2,1981.5 1196.5,3008.5 808.7,1220.7 1990.3,1994 3511.9,2298.5 1183.3,236.9 3648.4,268.5 5382.3,-1115.2 2229.8,-1779.5 2861.7,-5448.2 2168.4,-7826.8 -342.8,-1175.8 -1125.6,-2103.6 -2263.9,-2683.1 -973.4,-495.6 -2194.7,-745.1 -3641,-745.1"
         style="fill:#390176;fill-opacity:1;fill-rule:nonzero;stroke:none"
         id="path130" />
      <path
         d="m 15605.4,29459.5 c 176.5,438.6 -977.8,691.5 -928.3,1019.9 36.9,244.8 1436.8,588.9 2285.6,-215 0,0 -134.5,283.1 -139.3,617.3 -11.6,815.7 670.7,1077.1 670.7,1077.1 331.4,57.1 195.2,-908 1865.7,-1865.6 482.6,-276.6 1507.1,-524.3 2289.8,-1178.7 l -6044.2,545"
         style="fill:#ffb030;fill-opacity:1;fill-rule:nonzero;stroke:none"
         id="path132" />
      <path
         d="m 15523.7,29492.3 c 1,62.4 -21.8,89.2 -59.6,130.3 -39.6,39 -96.6,80.1 -159.3,118.3 -126.6,77.5 -269.1,153.9 -416.5,242.4 -74.1,45.1 -149.8,91.6 -228.8,159.2 -39.1,34.3 -80.6,74.4 -118.7,135.9 -18.7,31.2 -36.3,69.2 -45.9,114.6 -4.8,22.6 -7.4,46.7 -7.2,71.2 -0.2,12.1 1.2,24.3 2.3,36.4 0.4,4.9 2.1,14.6 4,23.6 2,8.8 4.3,18.1 6.9,26.2 22,63.9 53.1,98.5 79.3,125.9 26.8,27 52.2,46.5 76.5,62.9 48.8,33 94.4,55.4 140,75.7 90.6,39.6 179.2,66.1 268.3,87.4 177.7,42.7 356.3,59.6 535.2,60.2 178.9,0.2 358.1,-18.6 533.9,-59 176,-39.2 348,-102.4 509.2,-187.7 161.6,-84.6 311.7,-193.8 440.3,-323.4 l 0.2,-0.1 -280.2,-203.4 c -12.6,27.2 -20,45.8 -28.9,68.3 -8.5,21.5 -16.3,42.9 -23.8,64.4 -15.3,43.1 -28.2,86.5 -40.4,130.2 -23.6,87.7 -41.7,177.3 -52.4,269.1 -21.2,184.7 -11.6,373.5 38,558.5 49.7,184.5 143.6,359.4 269.8,503 62.9,72 133.4,136.5 209.4,193.1 38.1,28.3 77.7,54.6 118.8,78.9 20.7,12.2 41.7,23.9 63.5,35 l 33.5,16.5 c 12.8,5.8 21.1,9.9 40,17.4 9,3.5 18.1,6.1 27.2,8 l 5.9,1 c 52.5,10 124.9,5.6 183.7,-22.5 58.3,-27.2 96.7,-64.6 123.8,-95.8 54,-63.9 81.8,-117.5 111.1,-169 55.5,-102.1 103,-195.4 156.3,-286.3 105,-181.2 227.1,-348.8 367.2,-503.4 280,-309.7 624.2,-565 992.5,-781 47,-28.4 90.5,-50.4 134.9,-74.4 47.3,-22.1 92.6,-45.5 142.2,-66.5 96.5,-43.4 197.7,-84.2 299.1,-125.6 203.2,-82.3 410.4,-165.2 615.4,-257.2 409.7,-183.5 814.5,-404.6 1172.2,-701 74.8,-62.1 85.2,-173.1 23.2,-248 -62.1,-74.8 -173.1,-85.2 -248,-23.2 l -1.1,1 c -322.1,266.9 -696.9,473.8 -1090.3,649.8 -196.9,88.5 -398.9,169.3 -603.9,252.3 -102.6,41.9 -205.8,83.5 -310.2,130.3 -51.8,22 -104.7,48.9 -157,73.6 -52.7,28.1 -107.2,56.4 -154.5,85.1 -390.5,229.2 -763.6,503.7 -1075.7,848.6 -155.8,171.7 -294.5,362.3 -410.3,562.3 -58.1,99.2 -110.7,202.4 -160.5,293.7 -24.2,44.5 -50.5,87.8 -68.2,107.7 -8.6,10.5 -12.5,10.4 -4.3,6.6 8.6,-4.7 23.8,-4.8 22.2,-4.1 l 33.1,9.1 -16.9,-7.5 -22.1,-10.9 c -15,-7.7 -30.1,-16.1 -45.1,-24.9 -29.9,-17.7 -59.4,-37.3 -87.7,-58.2 -56.5,-42.2 -108.5,-90 -154.4,-142.5 -91.9,-105 -158.4,-228.7 -195,-363.6 -36.3,-134.4 -44.7,-281.7 -28,-425.2 8.4,-72.4 23,-145.3 42.4,-217.2 10,-35.9 20.6,-71.7 33,-106.7 l 19.2,-51.8 c 6.2,-16 14.5,-35.6 19.2,-45.9 41,-88.4 2.6,-193.3 -85.8,-234.3 -66.4,-30.8 -142.1,-16.7 -193.1,29.7 l -1.2,1.2 h -0.1 c -111.9,97 -234.8,180.3 -368.3,244.7 -133.3,64.7 -276.3,110.4 -423,142.5 -293.3,61.3 -608,63.2 -898.8,1 -72,-15.7 -142.6,-36 -204,-61.5 -30.2,-12.5 -59,-26.7 -78.9,-39.8 -10.2,-6.4 -17.5,-12.5 -19.9,-14.7 -2.9,-1.7 2.3,-0.6 10.7,24.1 1,3.2 2.3,7.4 3,11.1 l 1.2,8.4 c 0.5,1.8 0,3.7 0.2,5.6 -0.1,3.7 -0.7,7.2 -1.4,9.6 -1.4,4.9 -2.5,4.4 -0.3,0 4.5,-9.5 20.6,-30.2 43,-50.7 44.9,-42.1 108.3,-86.3 173.9,-129.1 132.5,-86.9 281.4,-169.1 419.8,-289.8 34.9,-30.1 68.5,-63.7 101.1,-100.9 32.8,-37.2 63.7,-79 89,-129.1 26,-48.9 44.4,-108.9 46,-171.5 1.3,-63 -17.8,-124 -47.8,-169.9 -26.9,-41.2 -82.1,-52.7 -123.2,-25.8 -26.4,17.2 -40.6,46 -40.4,75.3 l 0.3,16.2"
         style="fill:#390176;fill-opacity:1;fill-rule:nonzero;stroke:none"
         id="path134" />
      <path
         d="m 16433.3,22850.8 c -35.5,-357.2 -747.1,-553 -972.3,-517.9 -240.3,37.5 -722.3,610.1 -613.5,882 149.3,372.8 1631.4,95.4 1585.8,-364.1"
         style="fill:#390176;fill-opacity:1;fill-rule:nonzero;stroke:none"
         id="path136" />
      <path
         d="m 15460,23000.3 c -16.3,0 -30.4,0.8 -41.1,2.2 -92.8,12.1 -224.2,142.9 -191,225.9 14.8,36.9 72.5,53 143.2,53 147.1,0 350.4,-69.4 341,-164.2 -9.1,-92.2 -163.1,-116.9 -252.1,-116.9"
         style="fill:#c3b2d6;fill-opacity:1;fill-rule:nonzero;stroke:none"
         id="path138" />
      <path
         d="m 12713.8,15600 c 0,0 377.5,-413.4 419,-1172.7"
         style="fill:#e88a4b;fill-opacity:1;fill-rule:nonzero;stroke:none"
         id="path140" />
      <path
         d="m 12843.8,15718.7 c 14.5,-17.8 21.8,-28.4 31.2,-41.8 9.1,-12.8 17.2,-25.4 25.3,-38 16.5,-25.3 31.1,-50.4 45.7,-75.8 28.3,-50.9 54.8,-102.1 77.7,-154.4 46.7,-104.2 84.9,-210.8 114.4,-319.1 27.9,-108.6 52.2,-217.7 63.9,-328 8.5,-54.7 10.2,-110.1 14.9,-164.9 3.2,-54.9 2.5,-110 3.8,-164.6 1.2,-48.6 -37.3,-88.9 -85.8,-90 -44.3,-1.1 -81.8,30.8 -88.9,73.3 l -1.1,7.1 c -8.5,50.4 -14.7,100.7 -24.7,150.4 -11.4,49.4 -19.7,99.1 -34.4,147.4 -24.3,97.6 -59.8,191.6 -97.4,283.2 -39.1,91.1 -85.3,178.4 -136.9,260.7 -25.4,41.4 -53.5,80.6 -82.1,118.5 -14.5,18.5 -29.1,37.3 -44.1,54.3 -7.5,8.7 -15,17.4 -22.4,25.1 -6.7,7.4 -16.3,17.1 -19.1,19.1 -81.2,56.7 -101,168.5 -44.3,249.6 56.7,81.1 168.4,100.9 249.6,44.2 13.7,-9.5 25.6,-20.6 35.7,-32.9 l 19,-23.4"
         style="fill:#390176;fill-opacity:1;fill-rule:nonzero;stroke:none"
         id="path142" />
      <path
         d="m 10193,16351.8 c 0,0 -80.9,-838.5 254.9,-1195.1 209.6,-222.6 1770.8,-332.2 2153.1,226.2 182.3,266.2 -103.7,704.7 -103.7,704.7"
         style="fill:#d10b0b;fill-opacity:1;fill-rule:nonzero;stroke:none"
         id="path144" />
      <path
         d="m 11357.2,14949 c -421.5,0 -822.7,77.2 -928.5,189.6 -340.1,361.2 -265.4,1181 -262,1215.8 l 52.6,-5.1 c -0.8,-8.3 -75.8,-830.8 247.9,-1174.5 104.3,-110.8 613.5,-204.4 1138.9,-163.5 279.5,21.7 777.5,100.8 973.1,386.6 170.3,248.7 -101.2,671.1 -104,675.3 l 44.3,28.9 c 12.1,-18.5 293.4,-456.5 103.4,-734.1 -208.2,-304 -723.8,-387 -1012.7,-409.4 -83.7,-6.5 -168.7,-9.6 -253,-9.6"
         style="fill:#390176;fill-opacity:1;fill-rule:nonzero;stroke:none"
         id="path146" />
      <path
         d="m 11349.3,14799.1 c -427.8,0 -876.1,73.9 -1029.6,236.9 -379.53,403.1 -311,1238.8 -302,1332.7 9.3,96.8 95.6,167.3 192.2,158.4 96.8,-9.4 167.7,-95.4 158.3,-192.2 -19.9,-211.7 -21.6,-813.8 207.9,-1057.5 76.1,-65.8 594.4,-175.3 1156.6,-102.7 362.3,46.6 619.1,155.9 723,307.7 86.6,126.4 -34.1,397.8 -106.1,509.4 -52.6,81.6 -29.4,190.6 52,243.4 81.5,52.9 190.2,29.9 243.3,-51.4 35.8,-54.9 343.2,-547.3 101.4,-900.3 -231.1,-337.6 -739.1,-444.2 -1124.5,-474.1 -87.7,-6.8 -179.6,-10.3 -272.5,-10.3"
         style="fill:#390176;fill-opacity:1;fill-rule:nonzero;stroke:none"
         id="path148" />
      <path
         d="m 12201.6,15703.8 c -437.9,-117 -1543.9,-81.1 -2076,457.7 -542.16,549.1 -932.77,1882.5 -326.63,2882.6 120.8,199.3 707.13,843.6 1889.13,878.9 1245.4,37.3 1741.3,-381.5 2027.2,-912.6 188.6,-350.2 276.2,-1047.3 -134.7,-1299.8 0,0 -476.2,-544.3 -508.4,-1161.8 -28.5,-544.5 -384.8,-715.2 -870.6,-845"
         style="fill:#f42f2f;fill-opacity:1;fill-rule:nonzero;stroke:none"
         id="path150" />
      <path
         d="m 13872.9,18353.1 c 0,-260.2 -79.2,-511.5 -292.3,-642.7 0,0 -421.3,-481.6 -498.3,-1052.6 -4.8,-36.1 -8.4,-72.6 -10.1,-109.1 -28.6,-544.6 -384.8,-715 -870.8,-844.8 -437.5,-117.1 -1543.8,-81 -2075.6,457.8 -542.31,549 -932.79,1882.4 -326.61,2882.5 120.61,199 707.01,843.5 1888.91,878.7 1245.4,37.4 1741.1,-381.2 2027.2,-912.6 90.7,-168.1 158.1,-416.9 157.6,-657.2"
         style="fill:#f42f2f;fill-opacity:1;fill-rule:nonzero;stroke:none"
         id="path152" />
      <path
         d="m 13872.9,18353.1 c 0,-260.2 -79.2,-511.5 -292.3,-642.7 0,0 -421.3,-481.6 -498.3,-1052.6 -310.8,-140.4 -738.7,-292.3 -1152.9,-305.9 -1340.5,-44.9 -1639.4,626 -1730.1,1313.1 -38.7,294.1 148.8,857.1 148.8,857.1 687.8,-664.2 1516.8,-208.4 2128.8,-198.1 314.3,5.2 547.1,-33.2 727.3,-71.7 352.1,-75.2 503.3,-150.4 668.7,100.8"
         style="fill:#d10b0b;fill-opacity:1;fill-rule:nonzero;stroke:none"
         id="path154" />
      <path
         d="m 13680.8,18562.1 c -11.3,25.4 -23.2,49.6 -35.5,72.3 -273.8,509.2 -740.8,914.9 -1875.3,914.9 -49.3,0 -99.9,-0.8 -151.8,-2.4 -883.3,-26.3 -1434.1,-392.6 -1706.29,-659.3 12.04,21.9 24.61,43.7 37.66,65.2 127.43,210.2 689.03,762.6 1743.83,794.2 49.9,1.5 98.3,2.2 145.6,2.2 1122.4,0 1501.1,-413.2 1721.3,-822.3 54.8,-101.7 97.7,-230.8 120.5,-364.8"
         style="fill:#fa9797;fill-opacity:1;fill-rule:nonzero;stroke:none"
         id="path156" />
      <path
         d="m 11839,19749.2 c -47.3,0 -95.7,-0.7 -145.6,-2.2 -1054.8,-31.6 -1616.4,-584 -1743.83,-794.2 -549.69,-906.9 -194.97,-2165 301.33,-2667.5 472.2,-478.2 1491.4,-522 1905.3,-411.4 473.8,126.6 718.3,267.2 740.1,684.1 35.1,670.6 530.7,1244.4 551.8,1268.6 11.7,13.2 25.3,24.7 40.3,34 296.3,182.1 240.5,753.2 71.9,1066.3 -220.2,409.1 -598.9,822.3 -1721.3,822.3 m 362.6,-4045.4 h 0.5 -0.5 m -525,-231.6 c -545.3,0 -1252.7,136.7 -1676.3,565.6 -564.58,571.8 -1014.77,2003.9 -351.9,3097.6 192.74,318 866,928.7 2034.4,963.6 1120.3,33.6 1795.2,-276.5 2187.6,-1005.1 235.2,-437 301.7,-1197.8 -171.7,-1516.7 -76,-93.4 -425.1,-547.8 -450.7,-1037.6 -36.1,-691 -535.6,-881.5 -1000.9,-1005.9 -138.8,-37.1 -340.3,-61.5 -570.5,-61.5"
         style="fill:#390176;fill-opacity:1;fill-rule:nonzero;stroke:none"
         id="path158" />
      <path
         d="m 10435.9,18590.9 c 16.6,-54 38.3,-116.9 61.9,-172.9 23.9,-57 51,-111.9 80.5,-164.1 60,-104.1 131.3,-196.3 214,-271.6 83.7,-74.1 176.3,-133.8 279.9,-175.8 103.1,-42.1 221.4,-75.1 344.5,-97.2 247.2,-44.6 509.7,-51.5 770.9,-46.6 260.7,5.6 527.5,25 783.5,56.8 l 3.9,0.5 c 96.5,11.9 184.4,-56.6 196.4,-153.1 12,-96.5 -56.5,-184.5 -153,-196.4 v 0 c -277.3,-34.4 -547.2,-53.7 -823.6,-59.9 -275.6,-4.7 -552.6,2.9 -836.3,43.8 -141.7,20.8 -286.8,50.8 -431.3,113.3 -144.2,62.2 -277.3,157.9 -380.8,276.3 -104.7,117.5 -180.2,255.4 -227.3,397.5 -24.3,70.9 -40,143.7 -50.8,216.4 -9.8,74.1 -14.3,143.5 -8.2,223.5 3.6,48.7 46.1,85.2 94.8,81.5 37.3,-2.8 67.4,-28.3 77.9,-61.9 l 3.1,-10.1"
         style="fill:#390176;fill-opacity:1;fill-rule:nonzero;stroke:none"
         id="path160" />
      <path
         d="m 12473.4,16734.5 c 0,0 -660.6,-11.4 -894.7,383.8 -249.8,421.8 119.6,783 523.6,910.5 324.1,102.3 1139.8,216.2 1486,-514.1 243.8,-514.4 61.8,-1336.4 -1025.2,-1663 l -89.7,882.8"
         style="fill:#f42f2f;fill-opacity:1;fill-rule:nonzero;stroke:none"
         id="path162" />
      <path
         d="m 12562.8,15851.8 -60.3,593.8 -29,288.8 c 0,0 -660.8,-11.4 -895,383.9 -96.4,162.9 -100.3,316.9 -45.3,452.1 86.7,213.9 321.3,380.3 569.2,458.2 324,102.6 1139.7,216.2 1485.7,-513.7 243.9,-514.6 62.1,-1336.5 -1025.3,-1663.1"
         style="fill:#f42f2f;fill-opacity:1;fill-rule:nonzero;stroke:none"
         id="path164" />
      <path
         d="M 12954.7,16822.7 C 12842,16578 12503,16445.6 12503,16445.6 h -0.5 l -29,288.8 c 0,0 -660.8,-11.4 -895,383.9 -96.4,162.9 -100.3,316.9 -45.3,452.1 64.7,-772.6 1011.7,-454.4 1270,-249.6 -310.7,-515.6 151.5,-498.1 151.5,-498.1"
         style="fill:#d10b0b;fill-opacity:1;fill-rule:nonzero;stroke:none"
         id="path166" />
      <path
         d="m 11527.5,17555.8 c 78.9,213.4 305.1,381.2 548.7,464.3 -238,-81.2 -459.3,-243.3 -543,-449.7 -2,-4.9 -3.9,-9.7 -5.7,-14.6 m 548.9,464.3 c 0.4,0.2 0.8,0.3 1.3,0.5 -0.5,-0.2 -0.9,-0.3 -1.3,-0.5 m 1.5,0.5 c 1.3,0.5 2.5,0.9 3.8,1.3 -1.3,-0.4 -2.5,-0.8 -3.8,-1.3 m 4.3,1.5 c 0.3,0.1 0.6,0.2 0.9,0.3 -0.3,-0.1 -0.6,-0.2 -0.9,-0.3 m 1.6,0.5 c 0.3,0.1 0.6,0.2 0.9,0.3 -0.3,-0.1 -0.6,-0.2 -0.9,-0.3 m 1.7,0.6 c 0.3,0.1 0.5,0.2 0.8,0.3 -0.3,-0.1 -0.5,-0.2 -0.8,-0.3 m 2.3,0.8 c 0.1,0 0.2,0 0.3,0.1 -0.1,-0.1 -0.2,-0.1 -0.3,-0.1 m 1.7,0.5 c 0.3,0.1 0.5,0.2 0.7,0.2 -0.2,0 -0.5,-0.1 -0.7,-0.2 m 1.6,0.6 c 0.3,0 0.5,0.1 0.8,0.2 -0.3,-0.1 -0.5,-0.2 -0.8,-0.2 m 1.8,0.5 c 0.2,0.1 0.4,0.2 0.6,0.2 -0.2,0 -0.4,-0.1 -0.6,-0.2 m 3.8,1.3 c 0.3,0 0.5,0.1 0.7,0.2 -0.2,-0.1 -0.4,-0.2 -0.7,-0.2 m 1.8,0.5 c 0.2,0.1 0.4,0.1 0.6,0.2 -0.2,-0.1 -0.4,-0.1 -0.6,-0.2 m 1.7,0.6 c 0.2,0 0.3,0.1 0.5,0.1 -0.1,0 -0.3,-0.1 -0.5,-0.1"
         style="fill:#fa9797;fill-opacity:1;fill-rule:nonzero;stroke:none"
         id="path168" />
      <path
         d="m 13534.4,16538.1 c 52,235.1 20.3,468.8 -70.4,659.9 -221.6,467.7 -635.9,589.1 -990.3,589.1 -198.9,0 -379,-38.2 -495.4,-75 -160.4,-50.7 -315.7,-138.1 -428.5,-251.6 -7.7,33.9 -13.3,70.5 -16.6,109.9 -2,-4.9 -3.9,-9.7 -5.7,-14.6 v 0 c 1.8,4.9 3.7,9.7 5.7,14.6 83.7,206.4 305,368.5 543,449.7 0.1,0 0.1,0 0.2,0 0.4,0.2 0.8,0.3 1.3,0.5 0,0 0.1,0 0.2,0 1.3,0.5 2.5,0.9 3.8,1.3 0.2,0.1 0.3,0.1 0.5,0.2 0.3,0.1 0.6,0.2 0.9,0.3 0.3,0.1 0.5,0.2 0.7,0.2 0.3,0.1 0.6,0.2 0.9,0.3 0.3,0.1 0.5,0.2 0.8,0.3 0.3,0.1 0.5,0.2 0.8,0.3 0.5,0.1 1,0.3 1.5,0.5 0.1,0 0.2,0 0.3,0.1 0.5,0.1 1,0.3 1.4,0.4 0.2,0.1 0.5,0.2 0.7,0.2 0.3,0.1 0.6,0.3 0.9,0.4 0.3,0 0.5,0.1 0.8,0.2 0.3,0.1 0.7,0.2 1,0.3 0.2,0.1 0.4,0.2 0.6,0.2 1.1,0.4 2.2,0.7 3.2,1.1 0.3,0 0.5,0.1 0.7,0.2 0.4,0.1 0.7,0.2 1.1,0.3 0.2,0.1 0.4,0.1 0.6,0.2 0.3,0.1 0.7,0.2 1.1,0.4 0.2,0 0.4,0.1 0.5,0.1 0.6,0.2 1.1,0.4 1.7,0.5 116.5,36.9 296.6,75.2 495.5,75.2 354.4,0 768.6,-121.4 990.2,-588.9 131.6,-278.2 139.1,-645.8 -53.7,-976.8"
         style="fill:#fa9797;fill-opacity:1;fill-rule:nonzero;stroke:none"
         id="path170" />
      <path
         d="m 11498,17402.7 c 1.1,53.1 11.4,104.3 29.5,153.1 1.8,4.9 3.7,9.7 5.7,14.6 3.3,-39.4 8.9,-76 16.6,-109.9 -18.5,-18.6 -35.8,-37.9 -51.8,-57.8"
         style="fill:#e88585;fill-opacity:1;fill-rule:nonzero;stroke:none"
         id="path172" />
      <path
         d="m 12475,16646.4 c -141.8,-6.8 -274.7,2.4 -413,29 -136.5,27.8 -275.2,74.6 -402.7,160.7 -63.3,43.2 -123.3,96.7 -173.1,161 -24.7,33.1 -46.1,66.4 -64.8,100.9 -18.6,35.3 -35.9,72 -48.9,111.7 -27.3,78.5 -39.8,166.6 -32.4,253.9 6.6,87.4 33.3,172 70.9,246.8 38.1,74.7 86.5,141.1 141.5,197.6 54.2,57.6 114.8,105.7 178.2,147.3 126.3,82.1 269.4,139.4 409.6,173.7 139.3,34.6 280.2,53.8 424.4,56.4 143.8,2.3 290.9,-12.7 435.5,-52.7 144.2,-40.1 285.5,-108.1 407.3,-203.3 60.6,-47.8 116.3,-101.5 166,-159.8 48.4,-59 92.6,-121.1 129,-186.4 18.8,-32.5 34.6,-65.5 51.2,-99.4 16.1,-34.9 30.2,-70.4 42.9,-106.5 24.8,-72.2 42.3,-146.4 53,-221.4 21.9,-150.1 13.4,-303.3 -19.8,-450.1 -67.5,-295.1 -246.2,-554.3 -469,-737.5 -223,-186.5 -484,-305.5 -747.1,-385.2 -93,-28.2 -191.4,24.4 -219.6,117.4 -28.2,93.1 24.4,191.4 117.5,219.6 l 0.1,0.1 0.7,0.2 c 230.2,69.5 448.3,171.7 622.5,318.1 175.6,144 301.8,335.7 349,546.6 104.5,421.9 -160.6,898.7 -580.8,998.4 -209.2,57.1 -450.5,47.5 -673.7,-8.6 -56.2,-14.1 -107.2,-30.9 -157.5,-52 -50.4,-20.9 -98.3,-46.8 -143.4,-75.2 -90.2,-56.4 -169,-125.5 -218.4,-202 -48.3,-76.9 -66.6,-158.1 -44.9,-248.3 4.6,-22.4 12.9,-45.2 22.1,-68.2 4.7,-11.5 10.8,-22.8 16,-34.4 l 17.6,-31.4 c 25.3,-40.9 58.4,-79.1 98.3,-113.4 80,-69 186.1,-120 298.9,-157 112,-37.3 237.3,-61.4 353.8,-70.5 l 5.6,-0.4 c 48.5,-3.8 84.7,-46.1 80.9,-94.6 -3.4,-44.7 -39.8,-79 -83.4,-81.1"
         style="fill:#390176;fill-opacity:1;fill-rule:nonzero;stroke:none"
         id="path174" />
      <path
         d="m 21416.7,18877.1 c 0,0 1858.7,-368.7 2345.2,-1426.1 395.9,-860.7 -26.4,-1715.4 -895.2,-1939.7 -1140.7,-294.5 -2273.7,143.6 -2273.7,143.6 l 823.7,3222.2"
         style="fill:#ef863f;fill-opacity:1;fill-rule:nonzero;stroke:none"
         id="path176" />
      <path
         d="m 23901,16634.5 c -65.1,-533.5 -448.1,-972 -1034.5,-1123 -885.7,-228.9 -1767,-15.8 -2116.5,91.1 -100.4,30.4 -157.2,52.4 -157.2,52.4 l 824.1,3221.9 c 0,0 1858.6,-368.4 2345,-1425.8 128.6,-280 170.8,-559.1 139.1,-816.6"
         style="fill:#ffb030;fill-opacity:1;fill-rule:nonzero;stroke:none"
         id="path178" />
      <path
         d="m 23727.4,16720.4 c -23.4,130.5 -65.1,263.5 -126.2,396.6 -213.6,464.2 -691.6,795.6 -1160.7,1021.3 10.8,66.2 19.7,129.6 26.7,189.1 204.8,-96 401.2,-205.6 578.4,-336 119,-87.3 229,-183.7 323.5,-290 95,-106 174.6,-220.1 230.6,-345.7 93.1,-201.4 140.1,-421.2 127.7,-635.3"
         style="fill:#ffd898;fill-opacity:1;fill-rule:nonzero;stroke:none"
         id="path180" />
      <path
         d="m 23901,16634.5 c -65.1,-533.5 -448.1,-972 -1034.5,-1123 -885.7,-228.9 -1767,-15.8 -2116.5,91.1 463.1,13.7 1496.3,102.2 1371.7,630.4 -1053,110.1 -1017.8,1090 -1017.8,1090 0,0 1148.5,1130.5 1085.1,461.8 -62.5,-652.9 155,-1642 1712,-1150.3"
         style="fill:#f2802c;fill-opacity:1;fill-rule:nonzero;stroke:none"
         id="path182" />
      <path
         d="m 21451,19049.8 c 167.8,-32.8 321.8,-72.8 479.3,-120.4 156.3,-47.2 310.9,-100.5 463.5,-160.9 304.7,-121.5 601.4,-272.8 875.5,-471.7 136.5,-99.8 266.8,-212.6 383.3,-343 115.9,-130 216.9,-281.1 288.1,-446.1 141.8,-318.1 197,-690.7 112.9,-1043.6 -41.2,-175.6 -115,-344.4 -217.8,-492.7 -102.9,-148.4 -234.5,-274.8 -381.4,-374.7 -147.2,-99.9 -309.7,-173.2 -477,-220.9 -166.9,-45.3 -327.4,-72.9 -493.3,-91.1 -330,-32.5 -660,-16.3 -982.1,31.6 -161.2,23.4 -320.1,59.5 -476.9,101 -157.4,42.5 -309.5,90.3 -463.9,155.5 -44.8,18.9 -65.8,70.5 -46.9,115.3 17.6,41.7 63.5,62.8 105.9,50.3 l 4.5,-1.4 c 291.4,-87 602.2,-143.6 907.9,-170.6 306.6,-28.4 615.1,-24.3 914.3,21.1 148.4,21.1 300,53.4 437.6,95.9 135.9,43.8 263.6,107.3 376,189.3 225.4,163.6 383.9,404.6 442.4,671.1 59.5,267.1 15.8,554.6 -103.2,811.9 -56,125.6 -135.6,239.7 -230.6,345.7 -94.5,106.3 -204.5,202.7 -323.5,290 -238.3,175.3 -511,313 -792.6,430.6 -140.9,59 -285.2,111.7 -431.4,158.9 -145.1,46.2 -296.9,90.5 -439.1,123.5 l -5,1.1 c -94.7,22 -153.7,116.6 -131.7,211.3 21.4,92.6 112.7,151 205.2,133"
         style="fill:#390176;fill-opacity:1;fill-rule:nonzero;stroke:none"
         id="path184" />
      <path
         d="m 20504.3,17086 c 27.8,-23.4 63.2,-51.1 96.7,-76 34,-25.6 68.9,-50.5 104.3,-75 70.5,-49.1 143.4,-95.4 217.2,-140.2 148.2,-88.9 302.5,-167.9 461.1,-236.3 158.4,-70.1 323.1,-122.9 490.3,-165.2 167.4,-43.6 338.9,-62.1 511.2,-71.9 l 5.3,-0.3 c 48.5,-2.7 85.6,-44.3 82.9,-92.8 -2.6,-45.9 -40.3,-81.5 -85.4,-82.9 -185.7,-5.2 -373.4,0.2 -556.9,32 -183.4,30.5 -365.6,73.2 -541,134.1 -176.1,59.3 -348.1,130.3 -514.8,212.6 -83.2,41.6 -165.5,84.9 -246.3,131.8 -40.5,23.3 -80.7,47.3 -120.6,72.5 -40.5,25.5 -78.1,49.8 -121.6,80.7 -79.4,56.3 -98,166.4 -41.7,245.8 56.4,79.4 166.4,98 245.8,41.7 3.9,-2.8 7.7,-5.7 11.3,-8.7 l 2.2,-1.9"
         style="fill:#390176;fill-opacity:1;fill-rule:nonzero;stroke:none"
         id="path186" />
      <path
         d="m 21391,19156 c 0,0 700.2,0 909.9,-466 71.2,-158.1 -232.2,-2111 -884,-2254.2 -571.6,-125.6 -884.3,313.2 -884.3,313.2 l 858.4,2407"
         style="fill:#f42f2f;fill-opacity:1;fill-rule:nonzero;stroke:none"
         id="path188" />
      <path
         d="m 21951.3,17048.7 c -138.7,-316.5 -317,-565.2 -534.4,-612.7 -571.4,-126 -884.4,312.9 -884.4,312.9 l 293.6,823.7 564.8,1583.4 c 0,0 700.4,0 909.9,-466.2 47.6,-105.2 -71.3,-1008.5 -349.5,-1641.1"
         style="fill:#f42f2f;fill-opacity:1;fill-rule:nonzero;stroke:none"
         id="path190" />
      <path
         d="m 22289.8,18333.3 c -44,-346.5 -157.6,-873 -338.5,-1284.6 -138.7,-316.5 -317,-565.2 -534.4,-612.7 -571.4,-126 -884.4,312.9 -884.4,312.9 l 293.6,823.7 402.8,1129.6 162,453.8 c 0,0 700.4,0 909.9,-466.2 16.8,-36.5 12.8,-170.8 -11,-356.5"
         style="fill:#f42f2f;fill-opacity:1;fill-rule:nonzero;stroke:none"
         id="path192" />
      <path
         d="m 22133.6,18501.4 c -138,105.6 -313.5,161 -493.6,186.4 2.1,94.3 -2.4,183.1 -14.9,263.3 179.5,-37.4 412.5,-123.4 509.3,-320.7 3.6,-29.2 3.2,-73.3 -0.8,-129"
         style="fill:#fa9797;fill-opacity:1;fill-rule:nonzero;stroke:none"
         id="path194" />
      <path
         d="m 21951.3,17048.7 c -138.7,-316.5 -317,-565.2 -534.4,-612.7 -571.4,-125.9 -884.4,312.9 -884.4,312.9 l 293.6,823.7 c 129.9,-193.7 486.9,-609.7 1125.2,-523.9"
         style="fill:#d10b0b;fill-opacity:1;fill-rule:nonzero;stroke:none"
         id="path196" />
      <path
         d="m 20733.4,16787.8 c 97.9,-94.1 318.2,-251.8 645.8,-180 464.1,102 789.6,1744.4 755.2,2022.6 -119.1,242.8 -444.5,317.1 -622.8,339.7 l -778.2,-2182.3 m 478,-551.1 c -523.1,0 -808.6,391.1 -822.2,410.1 -33.4,46.9 -41.8,107.1 -22.4,161.3 l 858.4,2407 c 25,70.1 91.4,116.9 165.8,116.9 33.2,0 817,-6.4 1070.4,-569.7 90.8,-201.6 -93.6,-1285.4 -408.4,-1911.8 -170.7,-339.5 -371.9,-536.9 -598.3,-586.6 -86,-19 -167.2,-27.2 -243.3,-27.2"
         style="fill:#390176;fill-opacity:1;fill-rule:nonzero;stroke:none"
         id="path198" />
      <path
         d="m 21133.7,16947.5 c -82.6,-120.6 -344.1,-500 -1229.9,-284.7 0,0 0,-429.7 -746.5,-508.5 -896.3,-94.6 -1542,579.1 -1718.4,1113 -176.5,533.9 -325.8,2202.2 1058.4,3101.7 1108.2,720.2 2691,-437.8 3066.3,-1208.8 250,-513.5 -167.5,-1829.2 -429.9,-2212.7"
         style="fill:#f42f2f;fill-opacity:1;fill-rule:nonzero;stroke:none"
         id="path200" />
      <path
         d="m 21461.8,17715.2 c -100.8,-328.8 -225.8,-618.5 -328,-767.7 -82.7,-120.6 -344.2,-500.1 -1229.9,-284.8 0,0 0,-429.7 -746.6,-508.5 -896.3,-94.6 -1542.1,579.3 -1718.6,1113.3 -64.7,196.8 -126.4,547.7 -107.9,957.9 30,701.7 292.8,1575.6 1166.6,2143.4 1108,720.2 2691,-437.5 3066.1,-1208.8 152.7,-313.9 56.3,-927.5 -101.7,-1444.8"
         style="fill:#f42f2f;fill-opacity:1;fill-rule:nonzero;stroke:none"
         id="path202" />
      <path
         d="m 17603.2,16931.2 c -12.1,18.7 -23.7,37.4 -34.8,56.1 0,0 0,0 0.1,0 11.1,-18.7 22.7,-37.4 34.7,-56.1"
         style="fill:#fff9f4;fill-opacity:1;fill-rule:nonzero;stroke:none"
         id="path204" />
      <path
         d="m 17568.5,16987.3 c -0.1,0 -0.1,0 -0.1,0 -48,80.6 -86.7,161.6 -115.6,240 29,-78.4 67.8,-159.4 115.7,-240 m -116.3,241.6 c -0.1,0.2 -0.2,0.5 -0.3,0.7 0.1,-0.2 0.2,-0.5 0.3,-0.7"
         style="fill:#fce9db;fill-opacity:1;fill-rule:nonzero;stroke:none"
         id="path206" />
      <path
         d="m 17617.8,16909.2 c -4.9,7.3 -9.8,14.7 -14.6,22 -12,18.7 -23.6,37.4 -34.7,56.1 -47.9,80.6 -86.7,161.6 -115.7,240 -0.2,0.5 -0.4,1.1 -0.6,1.6 -0.1,0.2 -0.2,0.5 -0.3,0.7 -4.7,12.7 -9.1,25.4 -13.2,37.9 v 0 c -56.8,172.6 -111.2,463.6 -111.2,809.4 0,48.5 1,98 3.3,148.5 30,701.7 292.8,1575.6 1166.6,2143.4 245.1,159.4 513.6,226.8 787,226.8 962.4,0 1987,-835 2279.1,-1435.6 17.6,-36.5 32.1,-76.6 42.7,-120.6 -397.9,566.8 -1298.7,1221.2 -2150.5,1221.2 -273.5,0 -541.9,-67.4 -787.1,-226.8 -873.8,-567.9 -1136.6,-1441.7 -1166.5,-2143.4 -18.5,-410.3 43.1,-761.1 107.8,-957.9 2.6,-7.9 5.3,-15.8 7.9,-23.3"
         style="fill:#fa9797;fill-opacity:1;fill-rule:nonzero;stroke:none"
         id="path208" />
      <path
         d="m 21461.8,17716.1 v -0.9 c -100.8,-328.8 -225.8,-618.5 -328,-767.7 -82.7,-120.6 -344.2,-500.1 -1229.9,-284.8 0,0 0,-429.7 -746.6,-508.5 -896.3,-94.6 -1542.1,579.3 -1718.6,1113.3 -64.7,196.8 -126.4,547.6 -107.9,957.9 19.8,-204.2 150.1,-1172.7 844.3,-1373.4 627.8,-181.9 795.1,714.4 795.1,714.4 0,0 538.4,-489.5 1096.5,-559 1001.1,-125.1 1395.1,708.7 1395.1,708.7"
         style="fill:#d10b0b;fill-opacity:1;fill-rule:nonzero;stroke:none"
         id="path210" />
      <path
         d="m 21133.7,16947.5 h 0.5 z m -1850.6,3472.8 c -255.1,0 -485.9,-66.4 -689.9,-199 -1307.1,-849.4 -1146.5,-2416.7 -987.1,-2898.7 153.1,-463.4 729.4,-1077.9 1532.7,-993.2 540.1,57.1 585.3,305.2 588.8,336 -2.7,54.8 20.6,102.5 62.9,137.9 42.8,36.1 100.4,43.9 154.9,30.6 769,-186.8 975.2,114.1 1043,213.1 258.7,377.9 619.1,1620.8 416.9,2036.2 -219.5,450.8 -911.4,1063.7 -1646.4,1267.8 -166.7,46.2 -325.4,69.3 -475.8,69.3 z m -294.8,-4451 c -849.9,-0.1 -1509.6,616.4 -1716.6,1242.7 -181.5,549 -363.4,2334.4 1129.6,3304.7 406.8,264.3 908.8,324.4 1451.8,173.6 840.6,-233.3 1610.4,-922 1868.9,-1453 286.3,-588.2 -163.1,-1980.3 -443,-2389.2 v 0 c -249.8,-364.9 -670.5,-496.4 -1251.4,-391.5 -83,-179.3 -297.6,-418.9 -851.8,-477.3 -63.4,-6.7 -126,-10 -187.5,-10"
         style="fill:#390176;fill-opacity:1;fill-rule:nonzero;stroke:none"
         id="path212" />
      <path
         d="m 12811.8,24027.1 c -50.8,-652.7 356.5,-1129.1 909.6,-1064.1 553,65 1042.6,646.9 1093.3,1299.6 50.8,652.7 -356.5,1129.1 -909.5,1064.1 -553.1,-65 -1042.7,-646.9 -1093.4,-1299.6"
         style="fill:#390176;fill-opacity:1;fill-rule:nonzero;stroke:none"
         id="path214" />
      <path
         d="m 13954.9,24319.6 c -89.3,-245.5 -39.6,-480.1 110.9,-524.1 150.6,-43.9 345.1,119.5 434.4,365 89.3,245.5 39.7,480.1 -110.9,524 -150.6,44 -345.1,-119.4 -434.4,-364.9"
         style="fill:#ffffff;fill-opacity:1;fill-rule:nonzero;stroke:none"
         id="path216" />
      <path
         d="m 13221.3,23521.1 c -81.8,0 -150.5,136.8 -155.6,314.5 -5.2,184.7 60.3,343.4 146.3,354.6 3.2,0.5 6.4,0.7 9.6,0.7 81.8,0 150.5,-136.9 155.5,-314.6 5.3,-184.6 -60.2,-343.4 -146.2,-354.6 -3.2,-0.4 -6.4,-0.6 -9.6,-0.6"
         style="fill:#7e5aa6;fill-opacity:1;fill-rule:nonzero;stroke:none"
         id="path218" />
      <path
         d="m 14947.5,24610.6 c -1012.6,321.4 -1108.3,1143.5 -1611.2,1158.8 0,0 709.3,1295.7 1704.5,495.7 363.5,-292.3 304,-1780.6 -93.3,-1654.5"
         style="fill:#ffb030;fill-opacity:1;fill-rule:nonzero;stroke:none"
         id="path220" />
      <path
         d="m 14924.6,24559.9 c -177.9,15.7 -355.1,64.4 -522.3,141.9 -167,77.5 -321.7,187.1 -453.7,314.9 -132.5,127.1 -241.5,273.3 -333.4,408.9 -46.2,67.3 -89.6,131.8 -132.6,181.8 -43.5,51.6 -82.7,84.2 -146.1,108.3 l -14.1,5.4 c -46,17.5 -69.1,69 -51.6,115.1 11.2,29.3 36.8,49.5 65.4,55.6 53.2,10.9 111.7,8.9 167.8,-4.6 56,-14.5 106.3,-39.2 150.7,-67.5 88.8,-57.5 154.2,-124.9 214.9,-189 119.3,-129.7 216.7,-254.2 325.7,-366.2 108.5,-111.4 225.3,-210.8 355.1,-298.1 128.7,-89.2 271.2,-161.8 420.1,-236.5 l 2,-1 c 44.2,-22.1 62,-75.9 39.9,-120 -16.9,-33.7 -52.4,-52 -87.8,-49"
         style="fill:#390176;fill-opacity:1;fill-rule:nonzero;stroke:none"
         id="path222" />
      <path
         d="m 19740.3,23310.4 c -167,-660.4 -765.7,-1003.6 -1337.2,-766.7 -571.4,236.9 -899.3,964.3 -732.3,1624.7 167.1,660.4 765.8,1003.6 1337.2,766.7 571.5,-236.9 899.3,-964.3 732.3,-1624.7"
         style="fill:#390176;fill-opacity:1;fill-rule:nonzero;stroke:none"
         id="path224" />
      <path
         d="m 18612.9,23956.2 c 12.5,-270.3 -120.4,-486.5 -296.9,-482.8 -176.5,3.6 -329.8,225.7 -342.3,496 -12.6,270.3 120.4,486.5 296.9,482.8 176.5,-3.6 329.7,-225.7 342.3,-496"
         style="fill:#ffffff;fill-opacity:1;fill-rule:nonzero;stroke:none"
         id="path226" />
      <path
         d="m 19154.8,22935 c -12.5,0 -24.4,2.3 -35.8,7.2 -88.4,37.9 -104.8,215.2 -36.6,395.8 59.6,157.5 163.7,265.7 248.1,265.7 12.4,0 24.4,-2.4 35.7,-7.2 88.5,-38 104.9,-215.2 36.6,-395.9 -59.5,-157.5 -163.7,-265.6 -248,-265.6"
         style="fill:#7e5aa6;fill-opacity:1;fill-rule:nonzero;stroke:none"
         id="path228" />
      <path
         d="m 17646.4,24553.5 c 1195.8,1.1 1577.5,783.1 2122.3,641.2 0,0 -321.4,1500.9 -1660.9,1021.7 -489.3,-175.1 -930.5,-1663.3 -461.4,-1662.9"
         style="fill:#ffb030;fill-opacity:1;fill-rule:nonzero;stroke:none"
         id="path230" />
      <path
         d="m 17661.8,24682.4 c 183.9,28.4 361,56.9 530.4,104.1 169.6,46.6 330.7,107.8 487.1,185 157.2,76.9 306.4,170.8 479.7,262.2 87.1,44.8 181,90.3 293.6,117.6 56,14 116.7,20.8 179,17.4 62.1,-5.1 123,-21.4 175.5,-48.9 47.1,-24.7 65.3,-83 40.6,-130.2 -16.4,-31.2 -47.4,-49.7 -80.1,-51.5 l -14,-0.7 c -77.4,-4.2 -135.1,-25.5 -201.5,-63.2 -65.4,-37.1 -135.1,-88.6 -209.3,-141.6 -73.9,-53.4 -153.3,-108.4 -236.9,-160.6 -84.1,-51.5 -173,-99.5 -265.5,-141.9 -185,-85.1 -386.1,-141.8 -588,-164.7 -202,-22.8 -404.6,-14.4 -598.1,27 -52.1,11.2 -85.3,62.4 -74.1,114.5 8.6,40.2 41,69.1 79.3,75.2 l 2.3,0.3"
         style="fill:#390176;fill-opacity:1;fill-rule:nonzero;stroke:none"
         id="path232" />
      <path
         d="m 14652.6,21568.7 c 133.6,38.4 261.2,92.6 377.6,162.3 58.1,34.6 113.7,72.7 164.5,113.8 50.2,40.3 98.6,86.7 126.8,126.5 l 41.2,30.7 c 70.2,52.2 169.3,37.7 221.5,-32.4 8,-10.8 14.8,-23 19.7,-34.9 50.4,-123.8 147.5,-239.3 267.6,-340 120.2,-101.2 260.9,-188.8 406.1,-273.1 42.3,-24.3 56.8,-78.4 32.5,-120.6 -21.8,-37.9 -67.6,-53.3 -107.2,-38.8 -160.7,59.4 -323.7,124 -481.9,215.5 -79,45.9 -156.6,98.8 -229.6,162.6 -72.7,63.6 -140.7,138.7 -196.5,225.4 l 282.3,-36.6 v 0 c -73.8,-65 -143.9,-105.8 -216.7,-144.1 -72.4,-37.4 -146,-68.3 -220.7,-94.4 -149.3,-52.3 -303.6,-83.4 -457.8,-95.5 -48.7,-3.8 -91.2,32.6 -95,81.2 -3.4,42.6 24.1,80.6 63.7,91.9 l 1.9,0.5"
         style="fill:#390176;fill-opacity:1;fill-rule:nonzero;stroke:none"
         id="path234" />
      <path
         d="m 15634.5,22489 c -5.5,-19 -13.3,-47.3 -18.7,-72.1 -5.8,-25.6 -10.7,-51.7 -15.1,-77.7 -8.5,-52.1 -13.4,-104.6 -15.2,-156.2 -2.2,-51.7 0.4,-102.5 6,-151.8 4.8,-49.5 16.9,-96.1 29.4,-141.3 l 1.5,-5.4 c 26.1,-93.9 -28.9,-191.2 -122.9,-217.3 -93.9,-26.1 -191.2,28.9 -217.3,122.9 -1.8,6.5 -3.3,14 -4.4,20.4 -10.6,69.4 -17.8,138.5 -16.1,206.1 0.9,67.5 6.4,133.9 17.3,198.5 10.5,64.6 24.9,127.8 43.1,189.5 9.4,30.8 19.2,61.4 30.3,91.7 11.4,31.2 22.2,58.5 38.1,93.8 29.9,66.4 107.9,96.1 174.4,66.2 60.6,-27.3 90.6,-94.7 72.6,-156.7 l -3,-10.6"
         style="fill:#390176;fill-opacity:1;fill-rule:nonzero;stroke:none"
         id="path236" />
      <path
         d="m 20357.8,29105.8 c 0,0 762.3,1725.4 2397.3,3023.6 1653.6,1312.9 3238.2,1433.8 4615,2361.7 154.7,104.3 633.8,-38.1 633.5,-845.5 -0.5,-1777.5 -1793.3,-5619.1 -5484.4,-6289.2 l -2161.4,1749.4"
         style="fill:#ef863f;fill-opacity:1;fill-rule:nonzero;stroke:none"
         id="path238" />
      <path
         d="m 28003.8,33645.7 c -0.9,-1760 -1758.7,-5544.5 -5376.8,-6268.7 -35.6,-7.4 -71.7,-14 -107.8,-20.6 l -2161.5,1749.4 c 0,0 762.5,1725.6 2397.4,3023.4 1653.5,1313.1 3238.2,1434.2 4615.2,2362.1 92,61.7 298.1,36.6 450.4,-163.3 104.3,-136.4 183.1,-354.8 183.1,-682.3"
         style="fill:#ef863f;fill-opacity:1;fill-rule:nonzero;stroke:none"
         id="path240" />
      <path
         d="m 28003.8,33645.7 c -0.9,-1760 -1758.7,-5544.5 -5376.8,-6268.7 -35.6,-7.4 -71.7,-14 -107.8,-20.6 l -2102.9,1701.8 -58.6,47.6 c 0,0 762.5,1725.6 2397.4,3023.4 1653.5,1313.1 3238.2,1434.2 4615.2,2362.1 65.6,44.1 188.4,43.6 308.6,-31.7 48.9,-30.8 97.8,-73.9 141.8,-131.6 104.3,-136.4 183.1,-354.8 183.1,-682.3"
         style="fill:#ffb030;fill-opacity:1;fill-rule:nonzero;stroke:none"
         id="path242" />
      <path
         d="m 20416.3,29058.2 v 0 l -58.6,47.6 c 0,0 762.5,1725.6 2397.4,3023.4 1653.5,1313.1 3238.2,1434.2 4615.2,2362.1 28.3,19 67.3,29.8 112.1,29.8 59,0 128.2,-18.7 196.5,-61.5 -75.3,-54.5 -158.9,-129.8 -251.3,-229.7 -689,-742.7 -2579.2,-1074.6 -4692.3,-2589.4 -926.6,-664.3 -1785.5,-1793.4 -2319,-2582.3"
         style="fill:#ffd898;fill-opacity:1;fill-rule:nonzero;stroke:none"
         id="path244" />
      <path
         d="m 28003.8,33645.7 c -0.9,-1760 -1758.7,-5544.5 -5376.8,-6268.7 -486,378.2 -946.9,828.5 -414.2,1723 964.1,1620 2448.5,2327 3582.9,3186.3 1010.7,765.1 1596.2,1746.8 2025,2041.7 104.3,-136.4 183.1,-354.8 183.1,-682.3"
         style="fill:#e57138;fill-opacity:1;fill-rule:nonzero;stroke:none"
         id="path246" />
      <path
         d="m 20277.2,29141.4 c 53.8,204.2 133,392.1 224.5,575.8 89.3,184.6 195.8,359.5 307.9,530.4 226.4,340.3 473.5,667.1 741.2,977.1 538.3,616 1161.8,1168.2 1865.7,1596.3 350,216.1 716.3,403.9 1089,568.8 372.7,165.4 750.1,310.8 1121,459.1 370.9,148.4 735.6,300.7 1080.9,481.9 87.1,44.1 169.8,94.5 255.1,141.4 84.8,47.4 164,102.6 246.4,153.4 l 30.6,19.4 15.3,9.8 13.5,8 18.8,10.4 c 12.7,6.8 25.7,13.1 38.8,18.9 13.1,5.9 24,8 36.2,11.7 23.9,6.4 49.2,13.1 70.4,13.9 91.2,10.5 168.7,-7.1 239.7,-32.8 141.1,-53.8 247.9,-151.6 323,-257.8 75.1,-107.1 121.9,-222.5 154.1,-336.6 28.1,-114.1 45.7,-228.1 49.6,-339.1 2,-55.5 5,-111.8 1.8,-164.5 -2.4,-53.3 -1.6,-107.6 -7.1,-160.1 l -13.9,-158.4 -21.4,-156.2 c -32.6,-207.1 -74.4,-411.4 -130.4,-610.8 -25.2,-100.7 -58,-198.6 -87.8,-297.6 -32.3,-98.1 -66,-195.6 -101.3,-292.4 -288.5,-772.1 -693.7,-1496.1 -1196.9,-2146.3 -502.9,-649.5 -1108.4,-1225.2 -1803.3,-1671.6 -347.2,-222.5 -715,-415.7 -1101.9,-560.1 -387,-142.9 -792.4,-237.5 -1201.8,-263.6 -48.9,-3.2 -91,33.9 -94.1,82.8 -2.7,41.4 23.6,78 61.5,90.1 l 1.1,0.3 c 380,120.9 749.6,249 1107.9,404.2 358.5,153.3 705.8,332.7 1032.1,547 653.3,427.2 1224.3,978.2 1698.6,1601.3 237.4,311.8 451.1,641.7 639.6,985.2 189.1,343.2 353.8,699.9 489.1,1066.3 33.1,91.8 64.7,184.1 94.9,276.7 27.6,93.3 58.5,185.9 81.6,280.1 52.1,187.3 89.9,377.1 119.2,566.4 l 19.1,142.1 11.9,141.6 c 5.1,93.5 9.6,189.2 3.9,277 -3.2,89.5 -17.8,174.6 -37.3,255.3 -22.7,78.7 -53.9,150.9 -94.3,208.2 -40,57.5 -91.1,97.1 -137.9,115.2 -22.5,8.7 -46.3,12.7 -55.2,10.3 -4.1,1 -2.7,-1 -3.2,-0.5 0.4,0 -1.6,0.9 0.4,0.9 1.8,0.2 3.6,0.8 5.1,1.9 l 2.1,1.9 0.9,1.1 -3.8,-2.3 -16.5,-10.4 -32.9,-20.9 c -88.5,-54.4 -174.7,-113.5 -265.1,-163.9 -90.8,-49.7 -179.9,-103.3 -272,-149.6 -366.5,-190.8 -744.5,-346.7 -1119.2,-495.3 -374.9,-148.5 -747.3,-290.8 -1109.1,-450 -361.4,-159.6 -712.7,-335.7 -1047.5,-538.6 -672.5,-401.3 -1269.3,-920.7 -1791.9,-1508.3 -259.6,-295.5 -500.2,-608.3 -721.1,-934.4 -219.5,-326.6 -434.7,-658.2 -664.5,-981.3 l -2.3,-3.2 c -28.5,-40 -84.1,-49.4 -124.2,-20.9 -31.1,22.1 -43.6,60.5 -34.6,95.3"
         style="fill:#390176;fill-opacity:1;fill-rule:nonzero;stroke:none"
         id="path248" />
      <path
         d="m 22217.3,27914.2 c -99.8,31.9 -162.7,239.5 -383.5,477.8 -141.2,152.3 -165.3,380.2 -58.4,558.3 967.2,1610 2914.9,2499.4 4020.2,3335.8 992.8,751.3 1397.8,1079.3 1463.8,1079.3 142.8,0 48.2,-1411.5 -895.3,-2713.4 -1516,-2091.8 -3606.3,-2910.8 -4146.8,-2737.8"
         style="fill:#fff3e9;fill-opacity:1;fill-rule:nonzero;stroke:none"
         id="path250" />
      <path
         d="m 27181,32350.1 v -0.4 c -135.5,-493.9 -389.1,-1107.1 -817,-1697.5 -816.1,-1126.5 -1799.1,-1883.6 -2616.6,-2315.9 -701.3,-370.7 -1280.6,-501.9 -1530.2,-422.2 -99.9,32.1 -162.5,239.5 -383.4,478.1 -141.3,152.3 -165.1,379.9 -58.1,558.2 966.7,1609.8 2914.6,2499.5 4020,3335.9 992.7,751 1397.7,1079 1463.7,1079 77.9,0 85,-420.9 -78.4,-1015.2"
         style="fill:#fff3e9;fill-opacity:1;fill-rule:nonzero;stroke:none"
         id="path252" />
      <path
         d="m 27181,32350.1 c 38.8,1136.2 -809.9,-388.7 -1887.2,-1359.8 -1131.3,-1019.1 -2869.3,-1677.6 -2507,-2309.8 169.5,-294.9 602.7,-352.6 960.6,-344.2 -701.3,-370.7 -1280.6,-501.9 -1530.2,-422.2 -99.9,32.1 -162.5,239.5 -383.4,478.1 -141.3,152.3 -165.1,379.9 -58.1,558.2 966.7,1609.8 2914.6,2499.5 4020,3335.9 992.7,751 1397.7,1079 1463.7,1079 77.9,0 85,-420.9 -78.4,-1015.2"
         style="fill:#f9d3b7;fill-opacity:1;fill-rule:nonzero;stroke:none"
         id="path254" />
      <path
         d="m 22271,28081.8 h 0.1 z m 19.2,-9.4 z m -5.7,5.6 c 448,-116.2 2432.7,601.7 3937,2677.3 677,934.1 893,1911.1 915.7,2327.8 -130.1,-95.2 -322.3,-242 -553.1,-418.2 -187.6,-143.3 -413.4,-315.8 -682.3,-519.2 -298.4,-225.9 -655.6,-454.5 -1033.7,-696.5 -1055.6,-675.8 -2252.2,-1441.7 -2941.7,-2589.6 -66.2,-110.2 -51.2,-253.3 36.5,-348 115.6,-124.7 192,-242.2 247.9,-328 25.4,-39 56.3,-86.6 73.7,-105.6 z m 105.1,-361.6 c -87.4,0 -163.3,10 -225.9,30 l -0.1,0.1 c -111.9,35.8 -175,132.8 -248.1,245.1 -51.6,79.3 -115.8,178 -210.9,280.7 -193.5,208.9 -226.5,524.9 -80.1,768.6 732.1,1218.7 2019.4,2042.8 3053.7,2704.9 372.2,238.2 723.7,463.2 1011.1,680.7 268.4,203.1 493.8,375.2 681.1,518.3 726.2,554.7 783.8,596.7 889,596.7 77.5,0 146.6,-44.6 184.7,-119.2 144.5,-283.3 -59.8,-1662.6 -937.4,-2873.6 -1385.2,-1911.2 -3279.9,-2832.3 -4117.1,-2832.3"
         style="fill:#390176;fill-opacity:1;fill-rule:nonzero;stroke:none"
         id="path256" />
      <path
         d="m 19113.5,17076.8 c 0,0 395.2,-266.8 790.3,-414"
         style="fill:#f42f2f;fill-opacity:1;fill-rule:nonzero;stroke:none"
         id="path258" />
      <path
         d="m 19162.7,17149.7 c 63.2,-33 130.3,-65.9 196.4,-96.5 66.5,-30.8 133.5,-60 200.8,-87.5 134.5,-55.1 270.9,-102.7 405.4,-137.9 94.6,-24.7 151.2,-121.4 126.5,-215.9 -24.7,-94.6 -121.4,-151.2 -216,-126.5 -11.2,2.9 -21.8,6.8 -31.9,11.6 l -1.5,0.8 c -144.3,70.2 -278,149.7 -406.5,234.7 -64.2,42.5 -127.1,86.2 -188.9,131.2 -62,45.4 -121.8,90.9 -182.8,140.1 -37.9,30.6 -43.9,86.3 -13.2,124.2 26.9,33.4 73.1,42 109.7,22.8 l 2,-1.1"
         style="fill:#390176;fill-opacity:1;fill-rule:nonzero;stroke:none"
         id="path260" />
      <path
         d="m 16762.8,6333.3 c -83.5,5 -163.3,12.3 -244.8,21.4 -81.1,9.1 -162.1,20.3 -243.3,33.3 -162.3,26.4 -324.8,61.3 -488.7,112.7 l -0.5,0.2 c -93.2,29.2 -145.1,128.4 -115.9,221.7 29.3,93.2 128.5,145 221.8,115.8 10.2,-3.2 20.9,-7.8 30.1,-12.6 130.6,-69.5 272.7,-129.5 418.7,-181.9 73,-26.1 147.1,-50.7 221.9,-73.6 74.5,-22.6 151.2,-44.2 225.1,-62.6 l 2.3,-0.6 c 47.3,-11.8 76.1,-59.7 64.3,-107.1 -10.5,-41.9 -49.4,-69.3 -91,-66.7"
         style="fill:#390176;fill-opacity:1;fill-rule:nonzero;stroke:none"
         id="path262" />
      <path
         d="m 13299.1,6186 c -62.6,-35 -118.3,-92.1 -162.4,-157.1 -44.2,-65.2 -77.7,-138.8 -99.1,-214 -44.2,-150.7 -33.5,-307.4 24.4,-423.3 48.3,-126.6 144.5,-218.9 280.4,-274.2 67.5,-27.3 142.5,-46.2 220.7,-55.9 39,-5 78.8,-8.1 118.5,-9 19.9,-0.4 39.8,-0.4 59.4,0.1 18.2,0.5 41.7,1.9 53.1,3.1 l 2.6,0.3 c 5.9,0.6 12.1,0.9 18,0.9 l 619.1,-0.2 c 97.3,0 176.1,-78.8 176,-176.1 0,-97.3 -78.7,-176.1 -176,-176 l -619.1,-0.2 20.6,1.2 c -34.1,-3.6 -56.4,-4.4 -83.8,-5.5 -26.2,-0.8 -52,-0.8 -77.9,-0.2 -51.7,1 -103.3,4.8 -155,11.3 -103.3,12.8 -207.6,37.6 -309.8,78.7 -101.6,41.7 -202.1,101 -286.2,183.5 -85.1,81 -150.3,183.6 -191.8,291 -40,111.7 -44.6,230.4 -32.7,339.9 12.8,110.3 45,213.9 90.5,308.9 45.8,94.9 104.8,181.8 177.4,257.5 72.7,74.9 159.4,140.8 265.7,177.9 46,16.1 96.2,-8.2 112.3,-54.1 14.3,-41.1 -3.5,-85.6 -40.3,-106 l -4.6,-2.5"
         style="fill:#390176;fill-opacity:1;fill-rule:nonzero;stroke:none"
         id="path264" />
      <path
         d="m 19923.9,9659.5 c -127.9,-67.9 -247.6,-151.8 -321.8,-260.5 -37,-54 -62.8,-113.3 -71.1,-176.8 -8.2,-63.4 -0.4,-130.6 21.7,-196.5 45.1,-132.5 142.6,-253.8 256.2,-354.3 114.7,-100.9 248.3,-183.8 391.5,-246.2 11.2,-4.8 16.4,-17.8 11.6,-28.9 -4.5,-10.5 -16.1,-15.6 -26.7,-12.5 -153.8,46.9 -302.1,116 -437.4,209.5 -133.7,94.1 -259.5,212.4 -337.5,373.5 -38.1,80.2 -61.7,172 -60.7,266.9 0.9,94.9 28.9,189.1 72.1,271.1 43.2,82.5 100.8,153.6 163.3,216.4 63.1,62.1 131.8,114.9 202.1,164.3 59.8,42 142.4,27.6 184.4,-32.2 42,-59.9 27.6,-142.4 -32.3,-184.4 -4.3,-3.1 -8.7,-5.8 -13.2,-8.2 l -2.2,-1.2"
         style="fill:#390176;fill-opacity:1;fill-rule:nonzero;stroke:none"
         id="path266" />
      <path
         d="m 19032.7,9059.1 c -80.4,-125.5 -145.6,-261.1 -155.8,-397.9 -11.5,-135.7 36.6,-271.4 138.5,-379.8 99.9,-109.4 237.1,-192.7 381.9,-257.3 145.6,-64.5 301.1,-111.7 459.4,-147.3 11.9,-2.6 19.4,-14.4 16.8,-26.3 -2.5,-11 -12.9,-18.3 -24,-17.2 -163.6,18 -327.1,47.8 -487.2,98.2 -159.3,51 -318.2,121.6 -454.3,239.5 -67.7,58.7 -128.3,131.1 -170.5,216.5 -42.7,84.8 -66.4,181 -69.7,276.1 -6.6,192.5 58.3,368.7 135.5,526.6 32.2,65.6 111.4,92.8 177.1,60.7 65.6,-32.2 92.8,-111.4 60.7,-177 -2.3,-4.6 -4.7,-9 -7.4,-13.2 l -1,-1.6"
         style="fill:#390176;fill-opacity:1;fill-rule:nonzero;stroke:none"
         id="path268" />
      <path
         d="m 19831.3,7592 c -52.4,91.7 -67.6,204.9 -52.7,310.7 15.3,106.4 59.4,205.9 117.9,291.4 57.7,86.5 130.4,159.9 208.9,222.3 80,60.8 166.2,110.9 257,148.4 22.7,9.4 48.8,-1.4 58.1,-24.2 7.5,-17.9 2.2,-38 -11.5,-50.2 l -1.2,-1 c -70.3,-62.3 -139.4,-121.6 -202,-185.8 -62,-64.5 -117.6,-132.6 -163.8,-204.6 -45.1,-72.7 -80,-149 -103,-228.4 -23,-79.9 -29,-161.9 -24.1,-250.8 l 0.1,-3.1 c 1.4,-24.7 -17.5,-45.9 -42.3,-47.2 -17.5,-1 -33.2,8.3 -41.4,22.5"
         style="fill:#390176;fill-opacity:1;fill-rule:nonzero;stroke:none"
         id="path270" />
      <path
         d="m 17378.9,7620.8 c -2757.3,1595.2 -2945.2,3951.6 -2945.2,3951.6 0,0 2196.3,-380 4106.6,511 0,0 462.1,230.2 490.7,-397.2 82.5,-1814.4 -1652.1,-4065.4 -1652.1,-4065.4"
         style="fill:#fff3e9;fill-opacity:1;fill-rule:nonzero;stroke:none"
         id="path272" />
      <path
         d="M 17378.8,7620.7 C 15702.5,8590.5 14976.1,9842 14664,10674 c -201.2,536.6 -230.2,898.5 -230.2,898.5 0,0 2196.2,-379.9 4106.3,511.1 0,0 441.5,220.1 488.2,-356.6 1.3,-13.2 2.2,-26.9 2.6,-41 82.8,-1814.1 -1652.1,-4065.3 -1652.1,-4065.3"
         style="fill:#fff3e9;fill-opacity:1;fill-rule:nonzero;stroke:none"
         id="path274" />
      <path
         d="m 18458.2,9414.1 c -113.5,-240.7 -183.4,-475.8 -301.2,-682.9 -377.8,-664.2 -778.2,-1110.5 -778.2,-1110.5 -732.1,423.5 -1282.8,900.6 -1697,1373 367.1,-114 794.1,-187.5 1232.1,-138.7 704.4,78.4 1189.5,279.6 1544.3,559.1"
         style="fill:#f9d3b7;fill-opacity:1;fill-rule:nonzero;stroke:none"
         id="path276" />
      <path
         d="m 19028.3,11727 c -7.1,-17.2 -15.4,-34.8 -25.1,-52.4 -517.3,-280 -558.6,-932.8 -2195.4,-1301.7 -963.6,-217 -1727.4,72.2 -2143.8,301.1 -201.2,536.6 -230.2,898.5 -230.2,898.5 0,0 2196.2,-379.9 4106.3,511.1 0,0 441.5,220.1 488.2,-356.6"
         style="fill:#f9d3b7;fill-opacity:1;fill-rule:nonzero;stroke:none"
         id="path278" />
      <path
         d="m 17378.7,7444.7 c -29.9,0 -60.2,7.6 -88,23.8 -2805.1,1622.8 -3024.5,3990 -3032.5,4089.9 -4.3,54.3 16.7,107.4 56.8,144 40.2,36.7 95.2,52.7 148.7,43.6 21.4,-3.9 2166.5,-359.2 4002.1,496.9 88.2,41.2 193,3 234,-85.1 41.1,-88.2 3,-192.9 -85.1,-234 -1586.6,-740 -3336.1,-630.8 -3968.9,-558.2 127.2,-608.6 668.1,-2346.6 2821.3,-3592.4 84.2,-48.6 112.9,-156.3 64.2,-240.5 -32.6,-56.4 -91.8,-88 -152.6,-88"
         style="fill:#390176;fill-opacity:1;fill-rule:nonzero;stroke:none"
         id="path280" />
      <path
         d="m 19302.9,12136.2 c -12.6,161.1 -93.2,203.9 -249.2,236.6 -321.9,67.5 -1569.1,-394.3 -2448.9,-508.4 -1338.4,-173.7 -2068.8,134.4 -2068.8,134.4 0,0 -329.6,1.6 -329.7,-330.7 -0.1,-415.3 928.7,-1281 3646.9,-347.3 0,0 415.4,201.5 1032.7,320.7 458.4,88.4 417,494.7 417,494.7"
         style="fill:#fff3e9;fill-opacity:1;fill-rule:nonzero;stroke:none"
         id="path282" />
      <path
         d="m 19302.5,12074.8 c -8.8,-116.7 -69.5,-366.3 -416.4,-433.2 -617.6,-119.3 -1032.8,-320.9 -1032.8,-320.9 -2718.3,-933.7 -3647.1,-67.8 -3647.1,347.3 0,120.6 43.6,197.2 99,246.1 18.1,-420 954.8,-1259.5 3646.3,-335 0,0 415.6,201.1 1032.8,320.4 158,30.4 256.6,98.7 318.2,175.3"
         style="fill:#f9d3b7;fill-opacity:1;fill-rule:nonzero;stroke:none"
         id="path284" />
      <path
         d="m 20515.5,26502.4 c 31.7,-19.5 51,-35.5 73.4,-55.8 20.9,-19.7 40.3,-41 58,-63 18.6,-22 32.8,-45.9 48.9,-69.4 15.1,-23.8 26.9,-49 40.4,-73.9 48.7,-101.1 75.5,-209.5 87.9,-317.4 14.4,-108.3 7.8,-215.7 -4.3,-320.9 -8.3,-52.1 -19,-103.7 -30.8,-154.7 -15.4,-50.1 -30.6,-100 -50.3,-148.4 -20.3,-49.9 -77.3,-73.9 -127.3,-53.6 -37.2,15.1 -60,50.6 -60.8,88.3 l -0.1,7.3 c -1.1,49 2.5,96.6 5.7,143.9 1.7,47.2 3.2,94 6.7,140.4 1,92.5 4,184.1 -3,273.3 -5.7,89.3 -15.4,177.7 -36.5,262.7 -11.8,41.7 -22.6,84.6 -39,124.7 -7,21 -16.3,40.3 -25,60.3 l -26.8,53.9 -9.1,18.4 c -15.9,32 -2.8,70.9 29.2,86.8 20.7,10.3 44.4,8.4 62.8,-2.9"
         style="fill:#390176;fill-opacity:1;fill-rule:nonzero;stroke:none"
         id="path286" />
      <path
         d="m 20876.1,26766.1 c 23.4,-25.4 50.7,-61 77.8,-90 27.1,-30.4 55.3,-59.5 83.8,-87.5 57,-56.3 118.6,-105.3 183.4,-148.6 65.1,-42.7 133.9,-80.2 208.5,-108.2 36.5,-16.5 75.5,-26.7 114.5,-40.1 39.1,-13 80.3,-19.8 121.5,-34 l 16,-5.5 c 50.3,-17.4 77.1,-72.3 59.7,-122.6 -12.7,-37 -45.8,-61.3 -82.4,-64.7 -49.9,-4.5 -100.8,-9.3 -151.9,-6.4 -50.8,4.9 -102.8,7.4 -153,21.7 -102.2,20.8 -199.8,65.4 -288.5,121.3 -89.7,55.4 -167.1,128.7 -230.1,211 -15.5,20.7 -29.7,42.5 -44.4,63.6 -13.1,22.4 -26.1,44.6 -38,67.5 -23.2,47.5 -41.8,91.5 -55.6,149.9 -12.3,51.9 19.7,103.9 71.6,116.1 35.1,8.4 70.2,-3.6 93.1,-28.3 l 14,-15.2"
         style="fill:#390176;fill-opacity:1;fill-rule:nonzero;stroke:none"
         id="path288" />
      <path
         d="m 20921,25248.6 c 8,51.4 19.5,90.7 35.5,133.4 7.6,21.1 17.4,41 26.3,61.6 9.9,20 21,39.4 31.7,59.2 45.8,77.3 105.9,148.1 178,206.1 71.2,58.6 154.6,105.2 243,130.9 87.6,29.8 179.5,35.7 267.2,31.2 53.3,-2.7 94.3,-48.1 91.6,-101.3 -2.1,-42.6 -31.5,-77.3 -70.4,-88.2 l -11.2,-3.1 c -68.7,-19.1 -134.7,-34.2 -193.7,-63.6 -30.7,-11.8 -57.9,-30.1 -86.4,-45.1 -25.9,-19.6 -54.2,-35.2 -78,-57.7 -49.7,-41.7 -95.5,-89.8 -136.5,-144 -20.2,-27.2 -40.4,-55.1 -58.8,-84.4 -19,-27.7 -36.8,-61.9 -52.1,-85.6 l -10.3,-16 c -28.7,-44.6 -88.1,-57.6 -132.8,-28.9 -32.9,21.2 -48.6,59.1 -43.1,95.5"
         style="fill:#390176;fill-opacity:1;fill-rule:nonzero;stroke:none"
         id="path290" />
      <path
         d="m 19215.1,12129.3 c -6.3,43 -19.7,76.1 -36.3,89.7 -14.9,14.8 -44.1,27.9 -87.7,37.4 -10.2,2.6 -21.9,4.5 -32.9,6.7 -10.6,1.5 -25.9,5.1 -32.6,4.7 -15.2,1.3 -35.8,1.3 -57.4,-0.6 -43.2,-3 -90.9,-11.1 -138.8,-20.6 -192.8,-37.8 -391.3,-98 -588.4,-156.5 l -597.7,-175.6 c -201,-56.9 -403,-114.5 -610.6,-158.5 -103.6,-22.9 -208.2,-43.8 -314.9,-59 -107.6,-16.4 -212.5,-25.2 -318.8,-36.8 -212.5,-16.7 -425.8,-28.5 -640.1,-24.3 -214.2,1.2 -428.9,14.5 -643.5,42.1 -107.3,13 -214.6,32.1 -321.6,55.3 -53.5,12.7 -107,25.6 -160.6,40.9 -26.9,7.4 -53.9,16.2 -81,24.5 -28.4,9.6 -52.1,17.2 -87.3,31.4 l 70.2,-14.4 c 5.4,0 -1.1,-0.1 -2.7,-0.3 l -9.3,-0.9 c -6.6,-0.7 -13.4,-1.6 -20.1,-2.9 -13.5,-2.4 -26.4,-5.9 -37.7,-10.1 -22.9,-8.6 -38.8,-19.2 -49.9,-30.5 -10.8,-11.6 -19.6,-25.1 -25.6,-47.7 -6.3,-19.8 -9,-57.8 -6.7,-73.8 5,-46.4 35.7,-111 81.7,-167 45.9,-57.1 106,-109.6 173.2,-155.1 135.3,-91.1 298.1,-154.9 467.9,-198.7 170.5,-43.2 349.5,-66.1 530.5,-74.7 362.7,-18.4 733.1,18.2 1098.7,83.7 366.6,63.8 729.6,158.4 1089.5,266.3 46.6,14.1 95.7,-12.3 109.8,-58.9 13.3,-44.3 -10.3,-91 -52.6,-107.6 -178.1,-68.8 -358.7,-131.9 -541.7,-188.9 -182.9,-56.9 -367.8,-109.8 -555.8,-152.1 -375.7,-85 -761.6,-142.2 -1156.4,-140.5 -197.3,2.1 -396.6,20.4 -594.8,63.1 -197.9,43.5 -396,111.8 -578.6,227.6 -90.9,58.2 -177.9,128.2 -253.4,216.4 -74.2,88.8 -141.4,194.8 -165.1,336.7 -10.2,77.7 -6.5,135.9 9.2,208 15.5,69.5 50.4,143.2 102.5,202.3 52.1,59.4 117.7,101.7 182.4,128.2 32.6,13.5 65.3,23.4 98.1,30.6 16.5,3.7 33,6.6 49.9,8.9 8.5,1.2 17,2 26,2.7 10.2,0.7 15.5,1.2 32.8,1.4 23,0.1 45,-4.2 65.1,-12.3 l 5.1,-2.1 c 12.9,-5.3 38.4,-14.2 59.1,-21.1 22.4,-7 44.7,-14.4 67.8,-20.8 46,-13.4 93.3,-24.9 140.7,-36.4 95.8,-20.3 192.2,-41.1 290.7,-54.4 196.2,-29.8 396.3,-42.8 596.8,-46.3 200.7,-3.4 402,12.5 602.6,30.5 99.7,12.9 201.6,21.6 299,37 98.5,15.7 197.9,32.5 297.5,50.9 199,38.6 400,79.3 601.1,124.7 l 606.4,138.5 c 204.9,43.1 408.6,88.2 626,113.2 54.7,5.8 110.3,9.4 170.8,7.7 30.2,-0.8 61.6,-3 97.5,-10.5 19.1,-3.3 28.8,-7.2 43.6,-10.8 14.1,-4.2 27.8,-7.9 42.4,-13 28.6,-9.6 58.8,-21.1 90.1,-39 31.1,-17.6 63.4,-42.6 88.4,-74.8 25.1,-32.2 40.9,-69 49.9,-103.1 9.1,-34.3 11.6,-65.9 13.1,-96.7 2.5,-48.6 -34.9,-90 -83.4,-92.4 -45.7,-2.3 -84.9,30.5 -91.5,74.8 l -0.6,3.8"
         style="fill:#390176;fill-opacity:1;fill-rule:nonzero;stroke:none"
         id="path292" />
      <path
         d="m 25901.9,24314.3 1266.4,1401.3 c 0,0 -569.5,869.3 -562,1356.3 7.5,487.1 1214,1566.2 1955.8,1671.1 741.9,104.9 1701.1,-1281.4 1873.4,-2323 147.8,-892.9 -822.4,-1697.8 -1498.9,-2065.1 -190.1,-103.2 -421.6,-95 -604.8,20.1 -88.7,55.8 -180.6,120.7 -249.2,186.6 0,0 -1393.8,-22.5 -2180.7,-247.3"
         style="fill:#eecc13;fill-opacity:1;fill-rule:nonzero;stroke:none"
         id="path294" />
      <path
         d="m 28022.7,25603.5 c -9.1,0 -18.4,1 -27.7,3.1 -68.6,15.2 -111.7,83.2 -96.5,151.7 224.1,1005.1 -177.9,1362.3 -181.9,1365.8 -52.9,45.1 -60.4,125 -15.9,178.4 44.5,53.5 123.1,61.8 177.1,18.2 21.8,-17.7 530.3,-445.3 268.9,-1617.8 -13.2,-59.1 -65.7,-99.4 -124,-99.4"
         style="fill:#390176;fill-opacity:1;fill-rule:nonzero;stroke:none"
         id="path296" />
      <path
         d="m 29364,26712.5 c -1.5,0 -3,0.1 -4.5,0.1 -933.3,32.5 -1254.1,796.1 -1267.3,828.6 -26.5,65 4.9,139.2 69.9,165.6 65.1,26.5 139,-4.8 165.5,-69.6 11.6,-28 276.9,-643.9 1040.8,-670.5 70.1,-2.4 125,-61.3 122.6,-131.5 -2.4,-68.6 -58.8,-122.7 -127,-122.7"
         style="fill:#390176;fill-opacity:1;fill-rule:nonzero;stroke:none"
         id="path298" />
      <path
         d="m 28509.8,25476.1 c -11.1,0 -22.3,1.4 -33.4,4.4 -67.8,18.4 -107.8,88.3 -89.4,156.1 73.2,269.2 382.6,787.1 1030.4,820.4 70.3,5.5 129.8,-50.3 133.5,-120.4 3.6,-70.1 -50.3,-129.9 -120.5,-133.5 -627.6,-32.3 -796.4,-627.2 -798,-633.2 -15.4,-56.6 -66.7,-93.8 -122.6,-93.8"
         style="fill:#390176;fill-opacity:1;fill-rule:nonzero;stroke:none"
         id="path300" />
      <path
         d="m 28082.5,24688.8 c 32.9,0 64.4,-12.7 88.1,-35.5 53.7,-51.5 130.7,-109 228.9,-170.7 144.6,-90.9 327.1,-96.9 476.4,-16 597.8,324.6 1572.5,1096.9 1434.2,1932.7 -164.4,993.9 -1086.8,2307.2 -1730.2,2217.8 -679.8,-96.1 -1840.1,-1136.8 -1846.4,-1547.1 -5.7,-367.1 388.7,-1051.8 541.2,-1284.7 31.7,-48.4 26.7,-112 -12,-154.9 l -996.9,-1103.1 c 782.3,143 1765.9,160.6 1814.7,161.4 z m 569.4,-533.1 c -134.8,-0.1 -269.5,37.3 -387.7,111.6 -91.5,57.5 -168.4,113.2 -229.5,166.1 -254.4,-6.7 -1419,-47.4 -2097.8,-241.3 -54.7,-15.8 -112.9,6.8 -142.9,55 -30,48.2 -24.4,110.4 13.6,152.5 l 1201.7,1329.7 c -145.4,235.8 -536.8,911.7 -530.1,1344.6 8.9,577.1 1282.7,1684.3 2065.1,1795 870.2,123.3 1843.4,-1381.2 2016.7,-2428.1 151.1,-913.4 -748,-1754.7 -1563.8,-2197.6 -107.6,-58.5 -226.5,-87.5 -345.3,-87.5"
         style="fill:#390176;fill-opacity:1;fill-rule:nonzero;stroke:none"
         id="path302" />
    </g>
  </g>
</svg>
