<?xml version="1.0" encoding="UTF-8" standalone="no"?>
<!-- Created with Inkscape (http://www.inkscape.org/) -->

<svg
   version="1.1"
   id="svg2"
   width="5333.3335"
   height="5333.3335"
   viewBox="0 0 5333.3335 5333.3335"
   sodipodi:docname="rhino_health.eps"
   xmlns:inkscape="http://www.inkscape.org/namespaces/inkscape"
   xmlns:sodipodi="http://sodipodi.sourceforge.net/DTD/sodipodi-0.dtd"
   xmlns="http://www.w3.org/2000/svg"
   xmlns:svg="http://www.w3.org/2000/svg">
  <defs
     id="defs6">
    <clipPath
       clipPathUnits="userSpaceOnUse"
       id="clipPath108">
      <path
         d="m 9121.96,23281 c -31.57,4.1 -63.07,7.4 -94.45,10.1 134.76,452 701.16,1119.2 1432.89,1119.2 21.7,0 43.8,-0.6 65.8,-1.8 2.7,-0.1 5.5,-0.2 8.2,-0.2 77.8,0 146.1,51.2 167.6,125.9 15.3,53.1 146.6,461.2 576.6,461.2 64.5,0 135.9,-9.2 214.5,-30.2 113.2,-30.2 210,-87.2 290.2,-160.6 -27.3,10.5 -55.4,19.6 -84.3,27.3 -96.2,25.7 -183.8,36.9 -263.5,36.9 -576.1,0 -738.5,-588.2 -738.5,-588.2 -24.7,1.3 -49.4,2 -73.9,2 -681.68,0 -1251.01,-517.5 -1501.14,-1001.6"
         id="path106" />
    </clipPath>
  </defs>
  <sodipodi:namedview
     id="namedview4"
     pagecolor="#ffffff"
     bordercolor="#000000"
     borderopacity="0.25"
     inkscape:showpageshadow="2"
     inkscape:pageopacity="0.0"
     inkscape:pagecheckerboard="0"
     inkscape:deskcolor="#d1d1d1" />
  <g
     id="g8"
     inkscape:groupmode="layer"
     inkscape:label="ink_ext_XXXXXX"
     transform="matrix(1.3333333,0,0,-1.3333333,0,5333.3333)">
    <g
       id="g10"
       transform="scale(0.1)">
      <path
         d="M 0,0 H 40000 V 40000 H 0 Z"
         style="fill:#cceeff;fill-opacity:1;fill-rule:nonzero;stroke:none"
         id="path12" />
      <path
         d="m 20095.4,3300 c -4632.5,0 -8387.9,651.4 -8387.9,1455 0,803.6 3755.4,1455 8387.9,1455 4632.6,0 8388,-651.4 8388,-1455 0,-803.6 -3755.4,-1455 -8388,-1455"
         style="fill:#a3bee3;fill-opacity:1;fill-rule:nonzero;stroke:none"
         id="path14" />
      <path
         d="m 14606.4,23387.2 -6,-4.8 -737.3,-615.4 -353.9,335 c -164.9,16.3 -335.4,55.4 -507.3,119.1 -804.9,297.1 -1400.8,1035.8 -1512.5,1793 l -520.9,492.9 886.5,755.6 170.8,145.5 c 400.1,285.4 972,354.6 1563.9,136.2 995.2,-367.1 1670.4,-1408.6 1508.2,-2326.3 -62.6,-353.4 -240,-636.9 -491.5,-830.8"
         style="fill:#858993;fill-opacity:1;fill-rule:nonzero;stroke:none"
         id="path16" />
      <path
         d="m 12191.7,26030 c -76.3,8.6 -152,12.9 -226.9,12.9 -35,0 -69.8,-0.9 -104.3,-2.8 l 271.5,231.4 c 214.1,150.6 481.5,227.3 768.8,227.3 45.7,0 91.9,-2 138.5,-5.9 -7.7,-37.3 -14.9,-74.7 -21.5,-112.3 -269.6,-24.8 -514.9,-113.7 -716.8,-257.7 l -109.3,-92.9"
         style="fill:#c2c4c9;fill-opacity:1;fill-rule:nonzero;stroke:none"
         id="path18" />
      <path
         d="m 11227.1,25500.3 381.1,-360.6 c 28.1,-26.7 46.5,-62 52.2,-100.3 104.6,-709.2 680.9,-1390.2 1401.3,-1656.1 154.8,-57.4 311,-94.1 464.5,-109.3 38.1,-3.7 74,-20.1 101.8,-46.4 l 242.3,-229.4 628.3,524.2 2.2,1.7 c 226.2,174.4 373.9,424.8 426.9,724.1 148.1,837.7 -479,1795 -1397.8,2133.9 -510.1,188.2 -1032,146.8 -1397.9,-110.6 l -904.9,-771.2 m 2636,-2906.1 c -42.9,0 -85.7,15.8 -118.9,47.3 l -312,295.3 c -163.3,21.1 -328,62.1 -490.4,122.3 -826.5,305 -1467.9,1051.2 -1613.6,1869.6 l -478.5,452.8 c -35.7,33.6 -55.3,80.9 -54,130 1.3,49 23.3,95.2 60.7,127 l 1057.3,901.2 c 3.7,3.2 7.6,6.2 11.7,9.1 459.4,327.7 1103.9,386.6 1724.1,157.7 1068.3,-394.1 1794.4,-1523.9 1618.6,-2518.6 -68.2,-385.1 -260.2,-708.9 -555.1,-936.7 l -4.9,-4 -734.3,-612.9 c -32.1,-26.9 -71.5,-40.1 -110.7,-40.1"
         style="fill:#000072;fill-opacity:1;fill-rule:nonzero;stroke:none"
         id="path20" />
      <path
         d="m 14162.9,23415.5 c -162.3,-917.6 -1100.6,-1363.9 -2095.8,-996.6 -995.1,367.2 -1670.3,1408.9 -1508,2326.5 162.3,917.7 1100.6,1363.9 2095.8,996.7 995.2,-367.3 1670.3,-1408.9 1508,-2326.6"
         style="fill:#6b6f77;fill-opacity:1;fill-rule:nonzero;stroke:none"
         id="path22" />
      <path
         d="m 11964.5,25697.4 c -247.2,0 -479.8,-57.3 -677.8,-170.9 -297.1,-170.6 -495,-458.7 -557.4,-811.2 -148.2,-837.7 478.8,-1795.2 1397.7,-2134.2 470.1,-173.4 946.9,-154 1308.3,53.4 297.1,170.5 495.1,458.6 557.4,811.2 148.2,837.7 -478.8,1795.1 -1397.6,2134.2 -212.6,78.5 -426.6,117.5 -630.6,117.5 m 792.8,-3579.3 c -244.6,0 -498.9,46 -750,138.6 -1068.3,394.3 -1794.4,1524.2 -1618.4,2518.9 80.5,455.1 338.2,828.3 725.7,1050.7 450.4,258.5 1033.7,287 1600.1,78 1068.4,-394.3 1794.4,-1524.2 1618.5,-2518.9 -80.5,-455.1 -338.3,-828.3 -725.8,-1050.7 -250.8,-144 -542.8,-216.6 -850.1,-216.6"
         style="fill:#000072;fill-opacity:1;fill-rule:nonzero;stroke:none"
         id="path24" />
      <path
         d="m 11824.9,23496.5 c 703.5,-990.9 1645,-1741.6 2509.3,-2065.3 1194.6,-447.4 2878.6,-692.6 4672.9,-102.7 0,0 -792.7,-3511.7 -1432.7,-3898.9 -2655.2,-1606.4 -7224.3,-520.4 -8473.41,3725.4 l 2723.91,2341.5"
         style="fill:#c2c6d2;fill-opacity:1;fill-rule:nonzero;stroke:none"
         id="path26" />
      <path
         d="m 19007.2,21328.4 c 0,0 -793,-3511.5 -1432.8,-3898.8 -101.2,-61 -205.2,-118.7 -311.6,-171.7 -2686.9,-1347.2 -6960.7,-187.2 -8161.77,3897 l 1304.17,1121.2 1419.6,1220.4 c 703.6,-991.1 1645.1,-1741.5 2509.5,-2065.5 1194.5,-447.3 2878.4,-692.3 4672.9,-102.6"
         style="fill:#c2c6d2;fill-opacity:1;fill-rule:nonzero;stroke:none"
         id="path28" />
      <path
         d="m 9132.24,21145.7 c 534.07,-1799.5 1730.76,-3182.5 3371.16,-3895.4 1570.9,-682.8 3345.5,-670.8 4747.2,32 101.6,50.7 205.8,108 309.8,170.7 582.8,352.8 1312.3,3416.4 1409.4,3834.6 -2027.2,-650.9 -3778.2,-206.8 -4645.1,117.9 -887.3,332.5 -1821.8,1098 -2504.8,2050.9 L 9132.24,21145.7 M 14901.5,16692 c -810.4,0 -1640,169.2 -2419.9,508.2 -1660.6,721.8 -2870.51,2123.5 -3406.76,3947 l -4.99,16.9 2759.85,2372.7 17.3,-24.4 c 678.5,-955.6 1611.9,-1724.2 2496.9,-2055.7 866.7,-324.7 2624,-769.6 4654.8,-102.3 l 45.8,15 -10.6,-47 c -32.5,-143.8 -803,-3527.4 -1445.3,-3916.1 -105.2,-63.5 -210.7,-121.6 -313.6,-172.8 -719.5,-360.8 -1536.3,-541.5 -2373.5,-541.5"
         style="fill:#000072;fill-opacity:1;fill-rule:nonzero;stroke:none"
         id="path30" />
      <path
         d="m 19007.2,21292.2 c 0,0 -209.4,-926.6 -498,-1867.8 -1048,354.4 -1914.3,907.6 -2483.2,1583.3 899,-113.2 1920.3,-64 2981.2,284.5"
         style="fill:#9da3b2;fill-opacity:1;fill-rule:nonzero;stroke:none"
         id="path32" />
      <path
         d="m 25626,20259.8 c -442.3,-317.2 -962.9,-586 -1542.4,-793.1 l -221.8,1560.4 c 0,0 820.2,-266.1 1764.2,-767.3"
         style="fill:#9da3b2;fill-opacity:1;fill-rule:nonzero;stroke:none"
         id="path34" />
      <path
         d="m 24870.7,20555.3 c -49.2,-267.9 -75.5,-531.7 -81.5,-792.2 -991.4,-484.6 -2221.7,-771.9 -3553.8,-771.9 -1545.1,0 -2952.6,386.2 -4009.9,1020 l 1474.7,2642.5 6170.5,-2098.4"
         style="fill:#9da3b2;fill-opacity:1;fill-rule:nonzero;stroke:none"
         id="path36" />
      <path
         d="m 17262.8,17257.9 c -2686.9,-1347.2 -6960.7,-187.2 -8161.77,3897 l 1304.17,1121.2 1766.7,490.8 c 0,0 -1648.5,-3066.7 72.4,-4694.8 1649.2,-1560.3 4773.1,211.5 4773.1,211.5 l 245.4,-1025.7"
         style="fill:#9da3b2;fill-opacity:1;fill-rule:nonzero;stroke:none"
         id="path38" />
      <path
         d="m 14896.6,16552.1 c -750.9,-0.1 -1518.6,138.9 -2244.3,420.7 -1820.8,706.7 -3140.89,2174.7 -3717.14,4133.4 -26.95,91.5 25.44,187.6 117.04,214.6 91.58,26.8 187.67,-25.5 214.6,-117.1 545.32,-1853.4 1792.1,-3241.6 3510.6,-3908.7 1593.4,-618.4 3397.2,-510.3 4707.5,282.5 391,236.6 965.8,2160.2 1285.8,3498 -1964.5,-555.3 -3647.1,-124.5 -4497.2,193.8 -920.6,344.8 -1888.6,1139.9 -2589.6,2127.1 -55.2,77.9 -36.9,185.8 40.9,241.1 77.9,55.1 185.8,36.9 241,-40.9 662.5,-933.1 1570.5,-1682 2429,-2003.5 849.2,-318 2570.6,-753.9 4558.3,-100.4 l 289.7,95.2 -67.1,-297.5 c -135.1,-598.3 -842.8,-3603.9 -1511.9,-4008.7 -799.2,-483.5 -1768.2,-729.6 -2767.2,-729.6"
         style="fill:#000072;fill-opacity:1;fill-rule:nonzero;stroke:none"
         id="path40" />
      <path
         d="m 12644.8,23709.7 c -17.3,-97.7 -64.3,-177.3 -131.2,-234.1 -118.7,-100.8 -2313.7,-1974.6 -2313.7,-1974.6 l -939.13,740.2 c 0,0 2381.63,2034.8 2445.93,2091.3 118.6,104.1 302.1,134.7 492.6,64.4 294,-108.5 493.4,-416.2 445.5,-687.2"
         style="fill:#c2c6d2;fill-opacity:1;fill-rule:nonzero;stroke:none"
         id="path42" />
      <path
         d="m 9533.18,22246.6 662.42,-522.1 c 443.2,378.4 2103.8,1796 2206.1,1882.8 38.6,32.9 63.1,77.4 72.8,132.5 v 0 c 33.5,188.9 -120,415.5 -335,494.9 -124.3,45.9 -243.5,33.8 -318.7,-32.1 -55.4,-48.6 -1748.3,-1495.2 -2287.62,-1956 m 671.12,-969.1 -1215.94,958.3 160.13,136.9 c 823.44,703.5 2394.01,2045.6 2444.21,2089.7 172.1,151.1 421.3,187.2 666.5,96.6 374.4,-138.1 618.5,-524.5 555.8,-879.4 -23.8,-134.6 -89.3,-250.7 -189.5,-335.7 -117.2,-99.6 -2291.4,-1955.7 -2313.3,-1974.4 l -107.9,-92"
         style="fill:#000072;fill-opacity:1;fill-rule:nonzero;stroke:none"
         id="path44" />
      <path
         d="m 30601.7,13669.6 c -46.1,-880.1 -773.4,-1842.1 -1845.4,-1677.7 -549.3,84.3 -972.7,627.1 -882.8,1232.3 23.7,160.3 83.8,324.7 186.8,485.9 296.7,464.7 697.1,369.4 1098.9,274.1 242.3,-57.4 485.1,-114.9 705.9,-49.5 479.9,142.5 446.4,773.3 446.4,773.3 0,0 238,-390.8 284.6,-831.6 6.5,-68 9.3,-137.4 5.6,-206.8"
         style="fill:#7c7c7c;fill-opacity:1;fill-rule:nonzero;stroke:none"
         id="path46" />
      <path
         d="m 29692.8,13547.6 c -175.3,0 -358.2,43.3 -540.9,86.6 -182.7,43.4 -365.2,86.7 -539.5,86.7 -145,0 -284.2,-30 -413.3,-114.9 2.3,3.7 4.6,7.4 7,11.1 0.1,0.2 0.2,0.4 0.3,0.5 76.8,65 152.8,138.5 225.7,221.6 71.1,36.1 148.5,50.7 235.1,50.7 127.3,0 274.7,-31.7 451.3,-73.6 174.4,-41.3 352.7,-83.6 531,-83.6 88.4,0 176.9,10.4 264.8,36.5 230.7,68.3 368.5,218.4 450.6,379.4 5.7,-19.3 11.2,-38.9 16.4,-58.9 -53.6,-199.7 -175.6,-428 -451.3,-510.1 -76.9,-22.8 -156.3,-32 -237.2,-32"
         style="fill:#b0b0b0;fill-opacity:1;fill-rule:nonzero;stroke:none"
         id="path48" />
      <path
         d="m 30601.7,13669.6 c -46.1,-880.1 -773.4,-1842.1 -1845.4,-1677.7 -549.3,84.3 -972.7,627.1 -882.8,1232.3 124.4,209.6 333.5,431.4 654.1,393.7 522.2,-61.5 587.9,-704.9 822.3,-809.8 421.6,-188.6 1136.3,281.9 1246.2,1068.3 6.5,-68 9.3,-137.4 5.6,-206.8"
         style="fill:#6b6b6b;fill-opacity:1;fill-rule:nonzero;stroke:none"
         id="path50" />
      <path
         d="m 28667.2,13889.9 c -186.8,0 -330.6,-68.2 -461.1,-272.8 -193.5,-303.2 -225.4,-635 -89.8,-934.2 125.4,-277 380.8,-476.2 666.2,-520 476.8,-73.1 823,111.6 1029.3,279.5 355.9,289.6 592.4,763.3 617.3,1236.2 8.5,161.7 -21.5,325.5 -64.2,470 -82.1,-161 -219.9,-311.1 -450.6,-379.4 -265.3,-78.7 -535,-14.7 -795.8,47.1 -176.6,41.9 -324,73.6 -451.3,73.6 m 329.2,-2089.4 c -87.6,0 -176.4,6.9 -266.2,20.7 -399.8,61.2 -755.7,336.8 -928.9,719 -182.7,403.4 -141.4,863.8 113.4,1262.9 362.4,568 873.2,447 1283.6,349.6 226.7,-53.8 440.8,-104.6 617.8,-52.1 341.5,101.2 323.6,578.8 322.7,599.1 -3.6,78.8 46.7,150.5 122.2,173.5 75.6,23.2 157,-7.6 198.1,-75 14.1,-23.2 345,-573.3 315.2,-1137.7 -29.8,-567.4 -315,-1136.9 -744.3,-1486.3 -303.3,-246.7 -656.5,-373.7 -1033.6,-373.7"
         style="fill:#000072;fill-opacity:1;fill-rule:nonzero;stroke:none"
         id="path52" />
      <path
         d="m 28534.1,12834.7 c -386.2,-317.7 -357.8,-826 -554.4,-1402.8 -47.5,-139.3 -108.1,-282.8 -191,-428.1 C 26937,9505.5 25053,10241.6 25053,10241.6 l 305.2,1106 c 488.2,-405.3 908.9,-477.5 1256.9,-334.5 461.7,190.1 796.7,758 994.7,1429.8 159.8,542.8 480.3,715.6 776.1,745.9 198.5,20 302.4,-227.4 148.2,-354.1"
         style="fill:#c2c6d2;fill-opacity:1;fill-rule:nonzero;stroke:none"
         id="path54" />
      <path
         d="m 26370.7,10950.7 c 85,9.2 166.4,30.5 244.2,62.5 250.6,103.1 463.9,317.5 638.2,599.3 -174.3,-281.9 -387.5,-496.3 -638,-599.4 -77.9,-32 -159.3,-53.2 -244.4,-62.4 m -214.4,2.4 c -99.8,12.5 -204,41 -312.2,87 0,0.1 0,0.2 0.1,0.3 108.2,-46.2 212.3,-74.7 312.1,-87.3 m 1301.7,1061.3 c 57.2,135.6 107.7,279.4 151.5,428.3 33.8,114.5 74.7,212.6 121,296.3 v -0.1 c -46.2,-83.7 -87,-181.6 -120.7,-296 -43.9,-149 -94.5,-292.8 -151.8,-428.5"
         style="fill:#e0f5ff;fill-opacity:1;fill-rule:nonzero;stroke:none"
         id="path56" />
      <path
         d="m 27730.5,12738.9 v 0.1 c 41,74.3 86.3,137.2 134.7,190.4 -48.4,-53.2 -93.7,-116.2 -134.7,-190.5"
         style="fill:#6666aa;fill-opacity:1;fill-rule:nonzero;stroke:none"
         id="path58" />
      <path
         d="m 26438.6,10826.2 c -188.4,0 -389.9,59.4 -603,192 2.8,7.3 5.7,14.6 8.5,21.9 108.2,-46 212.4,-74.5 312.2,-87 40.2,-5 79.6,-7.5 118.4,-7.5 32.5,0 64.5,1.7 96,5.1 85.1,9.2 166.5,30.4 244.4,62.4 250.5,103.1 463.7,317.5 638,599.4 75.7,122.4 144.1,257.6 204.9,401.9 57.3,135.7 107.9,279.5 151.8,428.5 33.7,114.4 74.5,212.3 120.7,296 41,74.3 86.3,137.3 134.7,190.5 155.6,171.1 342.7,241 520.9,259.1 7.7,0.8 15.3,1.2 22.8,1.2 143.3,0 229.4,-142.6 189.3,-263 -46.7,17.2 -92.7,25.5 -137.7,25.5 -262.1,0 -491.9,-280.9 -651.4,-717.1 -241.8,-657.4 -612.7,-1202.3 -1086.2,-1362.1 -91,-30.5 -185.9,-46.8 -284.3,-46.8"
         style="fill:#dadde4;fill-opacity:1;fill-rule:nonzero;stroke:none"
         id="path60" />
      <path
         d="m 27979.7,11431.9 c -47.5,-139.3 -108.1,-282.8 -191,-428.1 C 26937,9505.5 25053,10241.6 25053,10241.6 l 305.1,1106 c 488.3,-405.3 909,-477.5 1257,-334.5 335.9,-152.8 939.2,-286.5 1364.6,418.8"
         style="fill:#a7acb7;fill-opacity:1;fill-rule:nonzero;stroke:none"
         id="path62" />
      <path
         d="m 26085.8,9892.5 c -600.5,0 -1085.6,184.1 -1095.5,188 -88.9,34.7 -132.9,135 -98.1,223.9 34.7,88.8 134.8,132.8 223.7,98.2 71.3,-27.7 1756.2,-661.8 2522.4,686.5 177.6,312.5 245.4,611.1 311.1,899.9 84.5,372 164.4,723.5 475.1,979.2 5.6,4.6 16,13.2 8.4,31.6 -8,19.1 -22.5,17.5 -29.6,16.9 -308.1,-31.2 -513.5,-235 -627.9,-622.8 -253.5,-859.1 -676.8,-1418.5 -1191.8,-1575.2 -417.2,-126.9 -866.5,6.3 -1335.7,396 -73.5,61 -83.5,170 -22.5,243.4 60.9,73.5 169.9,83.5 243.4,22.5 374.1,-310.7 715.3,-422.1 1014.2,-331.2 394.3,119.9 744.5,609.2 960.8,1342.4 194.9,660.4 610.4,837 924.7,868.9 165.7,16.9 319.7,-74.8 383.5,-228 63.6,-152.6 20.2,-326 -107.9,-431.5 -219.4,-180.5 -280.4,-448.9 -357.6,-788.8 -67.9,-298.7 -144.8,-637.2 -347.6,-994.1 -468,-823.5 -1223.9,-1025.8 -1853.1,-1025.8"
         style="fill:#000072;fill-opacity:1;fill-rule:nonzero;stroke:none"
         id="path64" />
      <path
         d="M 19650.4,9780.6 C 18234,7675.4 18115.4,5238.5 17458.5,4676.5 c -356.8,-304.9 -1265.9,-323.3 -1922.8,-310.8 -784.2,14.6 -1774.6,257.6 -1991,603.7 -52.7,84.2 -68.7,258.5 -56.6,504.9 48.9,975.9 546.5,3080.6 1009.8,5148.6 274.5,1229 537.3,2445 686.9,3404 l 4465.6,-4246.3"
         style="fill:#c2c6d2;fill-opacity:1;fill-rule:nonzero;stroke:none"
         id="path66" />
      <path
         d="M 19650.4,9780.6 C 18234,7675.4 18115.4,5238.5 17458.5,4676.5 c -356.8,-304.9 -1265.9,-323.3 -1922.8,-310.8 -784.2,14.6 -1774.6,257.6 -1991,603.7 -52.7,84.2 -68.7,258.5 -56.6,504.9 121,-293.9 553.8,-843.3 2100.4,-809.4 2101.4,45.5 1907.7,2726.3 1791.1,3098.1 -198,632.2 -2064.6,1049 -2881.7,2859.9 274.5,1229 537.3,2445 686.9,3404 l 4465.6,-4246.3"
         style="fill:#9da3b2;fill-opacity:1;fill-rule:nonzero;stroke:none"
         id="path68" />
      <path
         d="m 15806.7,4190 c -93,0 -184.8,1.1 -274.3,2.8 -716.8,13.5 -1852.9,235 -2134.4,684.9 -260.6,416.5 120.6,2187.7 764.3,5043.3 330.9,1468.3 673.2,2986.7 851.7,4132.7 14.7,94.4 103.1,158.9 197.4,144.2 94.3,-14.7 158.9,-103.1 144.2,-197.4 -180.3,-1157.5 -523.8,-2681.6 -856.1,-4155.5 -266.3,-1181.5 -517.8,-2297.5 -677.5,-3183.3 -228.6,-1268.1 -167.7,-1541.8 -131,-1600.6 161.7,-258.3 1042.5,-507.4 1847.9,-522.6 361.2,-6.8 1460.2,-27.5 1807.2,269.4 251.4,215 440.6,842.1 659.8,1568.1 309.7,1026.2 695.1,2303.3 1501.1,3500.9 53.3,79.3 160.7,100.2 239.9,46.9 79.2,-53.3 100.2,-160.7 46.9,-239.9 C 19016.9,8529.5 18639.8,7280 18336.8,6276.1 18082.7,5434.3 17899.2,4826 17570.9,4545.2 17222.6,4247.3 16483.8,4190 15806.7,4190"
         style="fill:#000072;fill-opacity:1;fill-rule:nonzero;stroke:none"
         id="path70" />
      <path
         d="m 13519,5829.2 c 42.2,16 -25.7,-223 8.4,-190.4 91.4,87.3 294.7,161 456.2,91.4 371,-159.8 280.6,-737.7 231.3,-993.2 -17,-67.7 -24.7,-110.8 -24.7,-110.8 0,0 11.1,42.1 24.7,110.8 141,317 327.9,632.5 710.9,643.9 452.2,13.6 547,-676.9 425.3,-1007.6 -747.6,45.1 -1606.6,276.8 -1806.4,596 -75,120 -76.5,424.9 -25.7,859.9"
         style="fill:#ffffff;fill-opacity:1;fill-rule:nonzero;stroke:none"
         id="path72" />
      <path
         d="m 13622.4,5550.1 c -26.1,-367.7 11.8,-479.4 32.2,-512.1 61.2,-97.8 217.4,-194.4 432.3,-278.5 0.4,1.8 0.9,3.6 1.3,5.5 91.8,477.4 39.3,762.1 -155.8,846.1 -102.2,44.1 -246,-4.9 -310,-61 z m 712.3,-874.3 c 268.9,-78.8 590.3,-138.6 919.8,-165.6 37.9,194.5 10.2,466.6 -104,625.2 -58.1,80.7 -130.5,118.7 -220.8,115.9 -285.7,-8.5 -443.6,-227.1 -590.6,-554 -1.5,-7.5 -3,-14.7 -4.4,-21.5 z m 1016.4,-432.1 c -2.6,0 -5.2,0 -7.9,0.2 -773.3,46.7 -1677.1,287.2 -1908.4,656.6 -60.8,97.2 -120.7,292.2 -44.5,943.7 5.6,48.1 37.5,89 82.7,106.2 46.3,17.6 96.7,9.9 134.9,-20.6 25.8,-20.6 40.5,-45.3 48,-72.9 120.8,38.6 259.2,44 379,-7.6 212.1,-91.3 329.4,-287.7 351.3,-586.2 132.3,141.7 303.3,240.4 535.8,247.4 178.7,5 329.8,-72.1 438.9,-223.6 189.9,-263.7 205.9,-702.8 111.8,-958.4 -18.8,-51.2 -67.6,-84.8 -121.6,-84.8"
         style="fill:#000072;fill-opacity:1;fill-rule:nonzero;stroke:none"
         id="path74" />
      <path
         d="m 16620.2,18926 c -1814.4,-2577.7 -2769.2,-5220.7 -1898.8,-7879.5 616,-1881.4 3284.8,-2482.9 4051.5,-2611.3 2205.1,-369.3 5863.5,116.8 6859.2,2543.4 1512.6,3686.3 -1361,6330.9 -761.3,9576.5 l -6170.6,2098.7 -2080,-3727.8"
         style="fill:#c2c6d2;fill-opacity:1;fill-rule:nonzero;stroke:none"
         id="path76" />
      <path
         d="m 24870.7,20555.3 c -49.2,-267.9 -75.5,-531.7 -81.5,-792.2 -991.4,-484.6 -2221.7,-771.9 -3553.8,-771.9 -1545.1,0 -2952.6,386.2 -4009.9,1020 l 1474.7,2642.5 6170.5,-2098.4"
         style="fill:#9da3b2;fill-opacity:1;fill-rule:nonzero;stroke:none"
         id="path78" />
      <path
         d="M 25632.1,10978.7 C 24636.3,8552 20978.2,8066 18772.7,8435.3 c -766.7,128.3 -3435.4,729.6 -4051.2,2611.2 -145.2,443.4 -239.6,886.8 -287.5,1328.7 618.6,-1877.7 3006.6,-2704 3765.6,-2869.6 2503.1,-547 5850.5,335.5 6846.2,2762.2 1344.8,3276.7 -776.4,5730.4 -843.2,8514.3 l 668,-227 c -599.8,-3245.7 2274.2,-5890.2 761.5,-9576.4"
         style="fill:#9da3b2;fill-opacity:1;fill-rule:nonzero;stroke:none"
         id="path80" />
      <path
         d="m 17911.7,8719.9 c 94.7,-16.3 189.7,-30.4 284.5,-43.9 94.3,-15.3 188.7,-29 283.2,-41 94.3,-12.4 188.2,-26 282,-36 46.9,-3.9 93.3,-13.3 140,-19.8 46.8,-6.4 93.4,-13.6 140.3,-19.1 374.8,-47.7 754.3,-68.1 1133.5,-66.5 379.3,1.6 758.5,26.5 1134.5,72.7 375.9,46.2 748.8,115.5 1113.6,211.7 364.8,95.8 721.6,219 1062.4,373.6 340.7,154.2 664.1,343.6 955.5,570.8 290.5,228 547.9,495.4 749.4,800.3 101.7,151.7 187.5,313.4 259.9,480.8 71.6,170.6 138,348.4 194.1,526.5 111.5,357.7 190.7,725 228.5,1097.5 38.4,372.3 39.8,748.7 5.9,1123.4 -65.6,751 -262,1489.5 -484.7,2223.8 -221.6,735.1 -473.5,1472 -633.2,2243.5 -79.9,385.1 -136.1,778.6 -152.1,1176.7 -17.3,397.8 11.4,799.6 85,1192.7 l 118.3,-202 -1540.6,530.5 c -512.7,179.5 -1026,357 -1537.7,539.4 -512.2,180.8 -1023.5,364.4 -1534,550 -255.5,92.4 -510.4,186.4 -765,281.1 -254.8,94.3 -509.6,188.4 -763.5,285.4 -44.6,17 -67,67 -49.9,111.6 16.2,42.5 62.7,64.7 105.6,52 260.3,-77.9 519.7,-158.8 779.1,-239.3 259.6,-80.2 519,-161.1 777.7,-243.6 517.9,-164.2 1035.1,-330.4 1551.3,-499.3 516.8,-167.4 1031.9,-339.6 1547.7,-510 l 1544.6,-518.8 146.1,-49.1 -27.7,-152.9 c -133,-733.6 -83.8,-1490.9 71,-2230.9 153.6,-742 396.4,-1471.6 618.4,-2214.5 221.7,-742.3 423.2,-1505.9 489.3,-2296.3 33,-394.2 34.6,-793.2 -5.8,-1189 -39.3,-396 -122.7,-787.3 -240.1,-1166.8 -59.5,-190.1 -127.7,-374.6 -205,-560 -80.3,-187 -175.9,-367.8 -288.7,-537.2 -224.1,-340.1 -508.1,-636.7 -824.6,-885.1 -317.4,-247.8 -665.2,-451 -1027.4,-615.2 -362,-165.5 -738.7,-292.4 -1120.9,-390.9 -764.9,-196.5 -1551.8,-283.7 -2337.1,-280.4 -392.7,2 -785.6,26.7 -1176.2,80.2 -97.6,14.1 -195.5,26.5 -292.2,47.9 -96.3,23.2 -191.8,46.8 -286.3,74.6 -94.3,28.4 -187.9,58.3 -280.9,89.6 -92.5,33.1 -184.1,68.6 -275,105.1 -44.6,17.8 -66.2,68.4 -48.3,113 15.5,38.7 56,60.1 95.5,53.2"
         style="fill:#000072;fill-opacity:1;fill-rule:nonzero;stroke:none"
         id="path82" />
      <path
         d="m 16256.3,18232.5 c -347,-603.3 -671.5,-1216.9 -939.6,-1852.6 -269.1,-634.6 -485.1,-1289.8 -616.2,-1960.8 -129.2,-670.5 -171.2,-1357.8 -94.9,-2034.2 37.5,-338 102.2,-672.9 193,-1001 20.6,-82.6 48.9,-163.1 72.8,-244.7 24.7,-81.4 50,-155.9 76.6,-234.3 51.2,-156.1 114.8,-308.8 174.5,-473 l 0.5,-1.3 c 16.8,-46.1 -7,-97.2 -53.2,-113.9 -31.8,-11.7 -66,-3.8 -89.7,17.2 -138.4,123.7 -245.7,277.7 -331.8,442.9 -42,82.3 -77.6,171.8 -103.4,257.7 -25.4,85.9 -55,170.6 -76.9,257.6 -95.9,345.3 -164.5,698.6 -204.4,1055.1 -80.6,713.4 -38.3,1437.6 98.5,2138.2 139.5,701.1 376.6,1377.4 676.8,2018.6 301.9,640.9 663.4,1249.8 1072,1822 27.8,38.9 81.8,47.9 120.7,20.1 36.5,-26 46.5,-75.5 24.7,-113.6"
         style="fill:#000072;fill-opacity:1;fill-rule:nonzero;stroke:none"
         id="path84" />
      <path
         d="m 26203.7,5074 c -13,-72.2 -31.4,-128.8 -56.6,-168 -394.5,-616.7 -3117.9,-754.2 -3655.7,-126.8 -671.4,782.7 -928.5,2669.6 -1453.2,4184.3 -69.7,200.9 1238.7,-114.3 2592.2,680.1 1353.5,793.9 2325,4834.9 2325,4834.9 283.7,-1752.3 -25.2,-3373 -85.2,-4501.9 -3.9,-73.1 -6.8,-143.2 -8.2,-212 -29.1,-1276 484.5,-3901.6 341.7,-4690.6"
         style="fill:#c2c6d2;fill-opacity:1;fill-rule:nonzero;stroke:none"
         id="path86" />
      <path
         d="m 26203.7,5074 c -13,-72.2 -31.4,-128.8 -56.6,-168 -394.5,-616.7 -3117.9,-754.2 -3655.7,-126.8 -671.4,782.7 -928.5,2669.6 -1453.2,4184.3 -69.7,200.9 1241.7,9.2 2595.2,803.6 1353.4,793.9 2322,4711.4 2322,4711.4 283.7,-1752.3 -25.2,-3373 -85.2,-4501.9 -250.7,-283.1 -901.2,-909.7 -2064.3,-1359.7 -1008.7,-390.3 -1526.5,-1512 -1162.1,-2530.3 137.2,-383.5 336.9,-730.3 627.4,-949.2 744,-561.1 2236,-482.7 2932.5,-63.4"
         style="fill:#9da3b2;fill-opacity:1;fill-rule:nonzero;stroke:none"
         id="path88" />
      <path
         d="m 26126,14506.1 c 118.4,-753.8 142.3,-1517.9 102,-2272 -18.7,-377.3 -50.8,-752.6 -86.4,-1125.6 -35.1,-372.8 -75,-743.7 -96.6,-1110.1 -4.5,-91.2 -8.4,-182.7 -10.6,-272.9 -1.3,-89.9 0.1,-180.8 3,-272.1 5.9,-182.6 18.1,-366.7 33.1,-551.1 30.1,-368.8 71.3,-738.8 114,-1109.3 42.8,-370.6 87.9,-741.9 128.2,-1115.1 39.4,-373.7 77.8,-747.5 87.6,-1132.3 2.1,-96.4 1.8,-193.7 -3.8,-293.7 -2.8,-50 -7,-100.7 -14.3,-153.2 -7.4,-52.6 -16.7,-106.3 -35.2,-165.6 -10.1,-30.2 -21.1,-60.8 -40.1,-95.4 l -14.7,-25.5 -14.5,-20.8 c -9.6,-14.2 -19.8,-27.1 -30.3,-39.2 -41.7,-49.3 -87.1,-88.5 -132.8,-122.5 -92,-66.7 -186.2,-114 -280.5,-154.2 -188.7,-78.7 -378.8,-129 -569.4,-168.5 -190.6,-38.8 -381.8,-65.3 -573.4,-83 -383.1,-34.1 -767.7,-36.5 -1153.6,4 -193,21.1 -386.3,53.1 -579.7,108 -96.6,27.4 -193.4,62.1 -289.5,107.4 -95.6,46.5 -192.4,103.8 -279.7,192.3 -10.4,11.2 -22.1,23.4 -31.2,34.1 l -24.3,30.1 c -16,20.1 -32.9,39.9 -48,60.5 -29.5,41.3 -60.2,82.3 -86.5,124.9 -55.7,84.1 -102.7,171.1 -148.7,258.2 -88.8,175.1 -162.8,353.8 -229.4,533.4 -132.1,359.6 -237.6,722.4 -342,1083.5 -102.3,361.6 -191.5,724.3 -273.5,1087.5 l -248.8,1087.5 -0.1,0.5 c -10.7,46.8 18.5,93.4 65.3,104.1 40.7,9.3 81.2,-11.7 98.1,-48 160.2,-343.6 286.6,-700.3 399.8,-1058.4 114.8,-357.9 210.5,-719.4 304.9,-1078.9 93.1,-359.5 193.9,-716 320.5,-1057.8 63.2,-170.7 132.8,-337.8 213,-496.1 41.3,-77.9 83.2,-155.7 130.9,-227.3 22.7,-37 48.3,-70.7 72.9,-105.4 12.5,-17.2 26.2,-32.8 39.1,-49.3 l 19.7,-24.5 16.1,-17.6 c 44,-45.2 109.1,-86.9 181.2,-121.5 73,-34.3 152.6,-63.5 235.6,-86.9 166.3,-47.3 342.9,-77.2 521.3,-96.5 357.6,-37.7 724,-35.8 1085,-3.5 180.6,16.6 360.1,41.6 535.7,77.4 175.1,36 347.8,82.9 504.1,148.2 77.6,32.9 150.9,71 210.3,114.4 29.2,21.6 54.5,44.4 73,66.5 20.8,26 23.5,30.2 34.6,62.7 19,61.8 29.4,148.5 34,234.1 4.8,86.6 5.3,176.3 3.3,266.7 -9.2,362.6 -46.6,733.2 -85.7,1102.6 -39.9,369.9 -85,740.6 -127.9,1112.4 -42.8,371.9 -84.4,744.9 -115.2,1121 -15.3,188.2 -27.8,377.1 -34,568 -3.1,95.4 -4.5,191.4 -3.1,288.3 2.2,96.6 6.3,191.8 11,287.2 22.5,379.8 62.7,752.3 97.6,1123.5 35.5,371.1 67,740.6 85.3,1109.9 39.4,738.1 15.5,1476 -98,2199.6 l -0.3,1.7 c -14.8,94.3 49.7,182.8 144,197.5 94.3,14.8 182.8,-49.6 197.6,-143.9"
         style="fill:#000072;fill-opacity:1;fill-rule:nonzero;stroke:none"
         id="path90" />
      <path
         d="m 26223.2,5684.5 c -14,7.3 -28.6,13.6 -43.6,17.9 -520.7,157.8 -438.4,-903.9 -438.4,-903.9 0,0 -142.3,717.6 -583.1,608.8 -441.3,-108.9 -418.6,-802.4 -418.6,-802.4 0,0 -58.5,662 -541,612.2 -351.3,-36.3 -468.4,-543.9 -507.1,-829.9 980.4,-77 2201.8,120.9 2455.8,518.7 75.5,118.6 92.4,400.7 76,778.6"
         style="fill:#ffffff;fill-opacity:1;fill-rule:nonzero;stroke:none"
         id="path92" />
      <path
         d="m 26080.1,5588.7 c -33.4,0 -53.4,-11.5 -67.9,-23.2 -126.4,-101.5 -159.3,-485.5 -143.1,-737.9 77.7,46.1 135.4,95.7 168.8,148.1 28.3,44.3 71.7,182.6 59.1,612.1 -6,0.6 -11.6,0.9 -16.9,0.9 z M 25247,5288.9 c -18.5,0 -37.6,-2.6 -57.8,-7.5 -333.6,-82.3 -320.3,-666.5 -320.1,-672.4 0.7,-23.2 -4.8,-45.2 -14.9,-64.4 301.2,38.2 573.2,99.1 783.2,176.2 -11.3,15.1 -19.5,32.9 -23.4,52.5 -20.3,101.3 -107.1,386.1 -260.7,483.5 -33.9,21.5 -68.6,32.1 -106.3,32.1 z m -1404.4,-781.7 c 268.5,-13.7 540.3,-7.7 797.4,14.6 -16.4,19.7 -27.2,44.3 -29.6,71.7 -7.9,84.1 -57.6,327.4 -191.9,437.6 -57,46.8 -124.6,65.5 -206.7,57 -220.2,-22.7 -323.4,-349.2 -369.2,-580.9 z m 285.6,-266.3 c -152,0 -302.1,5.6 -447,17 -35.5,2.8 -68.3,20.1 -90.7,47.9 -22.4,27.7 -32.4,63.4 -27.6,98.8 77.6,573.6 298.6,908 622.3,941.5 152.9,15.8 287,-23.1 398.9,-115.4 42.5,-35.2 78.8,-76.1 109.8,-119.8 70.3,185.8 198.8,364.4 433.2,422.2 129.5,31.9 256,12.1 365.6,-57.7 56.4,-35.8 105,-82.4 146.9,-134.3 32.4,168.6 94.4,333.5 210.1,426.4 70.2,56.4 190.9,112.5 367.5,59 20.5,-5.9 42.5,-14.9 65.7,-26.9 41.2,-21.4 67.8,-63.1 69.8,-109.5 19.8,-455 -9.8,-718.3 -96.2,-853.8 C 26005.3,4443 25036,4240.9 24128.2,4240.9"
         style="fill:#000072;fill-opacity:1;fill-rule:nonzero;stroke:none"
         id="path94" />
      <path
         d="m 15266.3,13530.4 c 5.5,2285.1 1947,5379.7 4595.4,5105.7 2586.2,-267.5 4118.9,-3826.4 3473.4,-6560.6 -393.7,-1667.6 -2484.3,-3132.9 -4830.5,-2544 -1670.7,419.4 -3244,1624.6 -3238.3,3998.9"
         style="fill:#eff0f4;fill-opacity:1;fill-rule:nonzero;stroke:none"
         id="path96" />
      <path
         d="m 24358.8,5051.1 c 1.8,-18.1 8.8,-101.6 19.9,-229.3 -19,125.8 -19.9,210.7 -19.9,229.3"
         style="fill:#e8d7ff;fill-opacity:1;fill-rule:nonzero;stroke:none"
         id="path98" />
      <path
         d="m 10535.6,24581.1 c 0,0 210.5,762.2 1002,551.1 721.1,-192.3 934.4,-1262.1 433.9,-1553.6 -334.6,-194.9 -650.8,-93.8 -650.8,-93.8 0,0 207,-444.8 -241.7,-870.7 -543.5,-515.8 -1165.29,-590.6 -1555.47,-436.5 -422.54,166.9 -763.82,425.2 -694.59,1008.1 65.94,555.2 794.72,1445.3 1706.66,1395.4"
         style="fill:#c2c6d2;fill-opacity:1;fill-rule:nonzero;stroke:none"
         id="path100" />
      <g
         id="g102">
        <g
           id="g104"
           clip-path="url(#clipPath108)">
          <path
             d="m 9027.51,23281 h 2755.79 v 1714.4 H 9027.51 Z"
             style="fill:#e1e3e9;fill-opacity:1;fill-rule:nonzero;stroke:none"
             id="path110" />
        </g>
      </g>
      <path
         d="m 10768.3,22318.6 c -32,0 -64,11.7 -89.1,35.5 -1.7,1.6 -4.2,4.1 -5.8,5.7 -49.3,51.9 -47.2,134 4.8,183.3 51.2,48.7 131.9,47.2 181.4,-2.8 50,-49.4 51.5,-130 2.9,-181.3 -25.5,-26.9 -59.8,-40.4 -94.2,-40.4"
         style="fill:#363d56;fill-opacity:1;fill-rule:nonzero;stroke:none"
         id="path112" />
      <path
         d="m 10460.4,24410.3 c -803.36,0 -1407.46,-804.3 -1459.81,-1245 -48.61,-409.1 115.82,-641 586.42,-826.9 334.04,-132.1 888.09,-59.1 1372.99,401.1 347.8,330.1 209.2,660.2 203.2,674.1 -27.2,62.2 -15.9,135.5 29.6,186 45.4,50.4 115.8,70.4 180.5,49.8 8.7,-2.7 251.4,-72.8 511.1,78.5 170.7,99.5 204.6,335.8 179.4,523.9 -38.9,289.7 -230.5,622.7 -570.7,713.4 -602.4,160.7 -773.5,-369.9 -791.1,-431 -22.3,-77.4 -94.7,-129.5 -175.8,-125.7 -22,1.2 -44.1,1.8 -65.8,1.8 m -534.03,-2476.4 c -177.76,0 -337.08,31.9 -466.38,83 -387.06,152.9 -891.41,442.5 -802.71,1189.3 74.97,631 833.59,1518.1 1757.72,1548.9 139.6,318.2 503.9,720.8 1167.1,544.2 494.3,-131.9 770.1,-598 824.3,-1001.5 51.1,-381 -82.2,-713.8 -347.9,-868.6 -189.7,-110.5 -375.2,-141.4 -518.8,-143 13.9,-208.6 -37.5,-508.7 -341.7,-797.5 -432.6,-410.6 -893.7,-554.8 -1271.63,-554.8"
         style="fill:#000072;fill-opacity:1;fill-rule:nonzero;stroke:none"
         id="path114" />
      <path
         d="m 11971.4,23578.3 c -334.4,-194.8 -650.7,-93.6 -650.7,-93.6 0,0 207.1,-444.9 -241.7,-870.5 -534.8,-507.9 -1145.25,-588.3 -1536.79,-443.1 -13.71,172.6 64.71,459.8 212.19,579.5 343.5,278.9 804.6,16.4 956.9,-301.5 20,-41.8 58.7,-11 88.4,19.7 20.6,21.4 36.8,42.7 39.5,39.8 -20.3,24.2 -306.7,375.9 -153,762.2 114.1,286.5 428.5,281.8 611.8,240.4 -10.9,167.4 64.5,459 264.4,640.7 4.6,4.1 9.1,8.1 13.7,12.1 340.7,296.3 812.9,-202.4 487.8,-515.7 -27.6,-26.6 -58.4,-50.1 -92.5,-70"
         style="fill:#e8eefc;fill-opacity:1;fill-rule:nonzero;stroke:none"
         id="path116" />
      <path
         d="m 11429.2,23594.2 c 96.8,-13.3 282.3,-17.2 476.9,96.2 l 0.2,0.1 c 24.4,14.1 47.1,31.3 67.6,51.1 109.8,105.8 71.2,228.1 4.7,300.6 -56.7,62.2 -187.5,137 -317.5,23.9 l -11.8,-10.4 c -139.3,-126.6 -206.5,-323.5 -220.1,-461.5 m -314.4,-191.3 c -116.4,0 -250.4,-35.1 -308.1,-180 -100.9,-253.4 35.2,-494.6 100.5,-589.2 27.6,23.6 55.1,48.4 82.6,74.5 307.7,291.9 256.3,585.9 225.8,686.7 -30,4.6 -64.5,8 -100.8,8 M 9673.03,22266.2 c 236.42,-59.6 566.77,-40 911.97,145.4 -80.2,151.2 -244.9,279.7 -407.6,316.2 -127.6,28.8 -242.37,2.5 -341.29,-77.8 -86.21,-70 -149.41,-244.6 -163.08,-383.8 m 251.34,-288.2 c -162.23,0 -307.89,27.3 -427.22,71.6 -47.34,17.5 -80.18,60.9 -84.18,111.3 -17.22,216.6 77.17,542.2 259.72,690.4 159.16,129.2 358.61,175.3 561.61,129.5 104.7,-23.5 206.6,-70.1 297.8,-133.6 -31.6,138.7 -34.2,301.1 33.7,471.6 109.2,274.5 365.7,355.7 610.1,340.8 28.4,198.9 127.5,432.1 299.3,588.2 l 16,14.2 c 233.1,202.6 517.9,131 678.7,-44.7 156.4,-170.8 201.1,-453.2 -16.1,-662.4 -35.4,-34.1 -74.8,-63.9 -117.2,-88.5 -203.6,-118.7 -401.9,-141.7 -544.1,-136.8 23.9,-198.6 -8,-509.6 -324.2,-809.5 -423,-401.6 -876,-542.1 -1243.93,-542.1"
         style="fill:#000072;fill-opacity:1;fill-rule:nonzero;stroke:none"
         id="path118" />
      <path
         d="m 10768.1,24270.8 c 125,-104.5 243.9,-216.6 359.3,-332 57.6,-57.7 114.5,-116.3 170.5,-175.8 56.3,-59.9 111,-118.9 166.7,-182.6 l 0.5,-0.5 c 63.5,-72.5 56.2,-182.7 -16.2,-246.2 -72.5,-63.6 -182.8,-56.3 -246.3,16.2 -10.4,11.9 -19.3,25.6 -25.9,39.2 -33.2,68.7 -70.1,140.3 -106.8,209.9 -37.1,70.1 -75.2,139.6 -114.3,208.7 -78.3,138 -160.7,273.8 -251.1,404.6 l -0.2,0.4 c -13.7,19.8 -8.8,46.9 11,60.6 16.5,11.4 38.1,9.8 52.8,-2.5"
         style="fill:#000072;fill-opacity:1;fill-rule:nonzero;stroke:none"
         id="path120" />
      <path
         d="m 9497.93,18870.1 -31.75,685.9 c -164.79,16.4 -335.34,55.5 -507.27,119.1 -804.87,297.1 -1400.75,1035.8 -1512.52,1793 l -832.56,159.1 1198.22,1089.4 170.74,145.5 c 400.12,285.4 972.08,354.7 1563.91,136.2 995.2,-367.1 1670.4,-1408.6 1508.3,-2326.3 -62.7,-353.4 -1557.07,-1801.9 -1557.07,-1801.9"
         style="fill:#858993;fill-opacity:1;fill-rule:nonzero;stroke:none"
         id="path122" />
      <path
         d="M 11054.9,20672.1 C 10992.5,20318.4 9497.76,18870 9497.76,18870 l -31.67,686.1 c -39.25,3.8 -78.98,9 -118.7,15.6 438.83,442.6 1216.21,1255.5 1260.71,1508.5 98.3,556.1 -111.2,1158 -513.1,1627.6 680.9,-483.7 1090,-1299.5 959.9,-2035.7"
         style="fill:#6b6f77;fill-opacity:1;fill-rule:nonzero;stroke:none"
         id="path124" />
      <path
         d="m 7293.75,22011.7 632.5,575.1 162.77,138.7 c 214.1,150.6 481.55,227.3 768.86,227.3 203.69,0 417.41,-38.6 629.02,-116.7 369.06,-136.1 691.1,-372 934.7,-659.8 -220.3,196.8 -478.82,357 -763.53,462 -236.58,87.3 -469.96,128.7 -690.38,128.7 -331.2,0 -633.22,-93.4 -873.41,-264.9 l -171.18,-145.2 -333.22,-303.1 c -45.95,-2.3 -91.29,-6.5 -135.88,-12.4 -54.53,-7.2 -108.06,-17.2 -160.25,-29.7"
         style="fill:#c2c4c9;fill-opacity:1;fill-rule:nonzero;stroke:none"
         id="path126" />
      <path
         d="m 6986.12,21732 492.71,-94.1 c 72.22,-13.8 127.84,-71.8 138.56,-144.5 104.68,-709.2 680.95,-1390.2 1401.39,-1656.1 154.56,-57.3 310.79,-94 464.47,-109.3 85.41,-8.5 151.64,-78.3 155.62,-164 l 13.79,-298.4 c 609.84,612.2 1198.84,1271.9 1232.14,1436.8 148,837.5 -479.1,1794.8 -1397.9,2133.7 -510.08,188.3 -1031.99,146.8 -1397.88,-110.6 L 7926.25,22586.8 6986.12,21732 M 9497.9,18697.3 c -21.43,0 -43.02,3.9 -63.66,12.1 -63.19,25.1 -105.84,84.9 -108.99,152.7 l -25.08,542.2 c -134.08,23.1 -268.52,59.6 -401.34,108.8 -805.56,297.3 -1435.33,1013.7 -1601.61,1807.6 l -715.84,136.7 c -64.33,12.3 -116.19,59.9 -133.94,122.9 -17.75,63.1 1.64,130.7 50.1,174.8 l 1198.22,1089.4 c 1.36,1.3 2.78,2.5 4.19,3.7 l 170.75,145.5 c 3.77,3.2 7.68,6.2 11.7,9.1 459.4,327.7 1103.96,386.6 1724.17,157.7 1068.23,-394.1 1794.43,-1523.9 1618.63,-2518.5 -67.2,-379.1 -1247,-1547.1 -1606.95,-1896 -32.87,-31.8 -76.23,-48.7 -120.35,-48.7"
         style="fill:#000072;fill-opacity:1;fill-rule:nonzero;stroke:none"
         id="path128" />
      <path
         d="m 9874.73,19600.8 c -162.3,-917.7 -1100.62,-1363.9 -2095.8,-996.7 -995.18,367.3 -1670.36,1408.9 -1508.05,2326.6 162.3,917.6 1100.62,1363.9 2095.8,996.6 995.17,-367.2 1670.32,-1408.8 1508.05,-2326.5"
         style="fill:#858993;fill-opacity:1;fill-rule:nonzero;stroke:none"
         id="path130" />
      <path
         d="m 6247.7,20707.3 c 2.43,74.9 10.04,149.5 23.18,223.4 24.43,138.2 66.49,265.7 123.7,381.4 -57.21,-115.7 -99.26,-243.2 -123.7,-381.4 -13.06,-73.8 -20.7,-148.4 -23.18,-223.4"
         style="fill:#e6f7ff;fill-opacity:1;fill-rule:nonzero;stroke:none"
         id="path132" />
      <path
         d="m 9336.39,21257.8 c -0.04,0.1 -0.07,0.1 -0.11,0.1 0.04,0 0.07,0 0.11,-0.1 m -1.09,1.2 c -257.51,291.1 -589.91,528.6 -968.62,668.3 -236.47,87.3 -469.67,128.6 -690.07,128.6 -29.15,0 -58.09,-0.7 -86.77,-2.2 l 0.04,0.1 c 28.85,1.4 57.87,2.2 87.2,2.2 220.29,0 453.29,-41.3 689.58,-128.4 378.83,-139.9 711.18,-377.4 968.64,-668.6"
         style="fill:#c2c4c9;fill-opacity:1;fill-rule:nonzero;stroke:none"
         id="path134" />
      <path
         d="m 7454,22041.4 c 44.59,5.9 89.93,10.1 135.88,12.4 l -0.04,-0.1 c -45.95,-2.3 -91.25,-6.4 -135.84,-12.3"
         style="fill:#e1e2e4;fill-opacity:1;fill-rule:nonzero;stroke:none"
         id="path136" />
      <path
         d="m 9881.74,19647.8 c -105.92,763.3 -704.11,1509.4 -1515.08,1808.8 -236.41,87.3 -469.65,128.6 -690.04,128.6 -707.14,0 -1282.09,-425.7 -1405.74,-1125.4 -2.84,-15.7 -5.2,-31.2 -7.08,-46.9 -13.66,98.3 -19.28,196.6 -16.1,294.4 2.48,75 10.12,149.6 23.18,223.4 24.44,138.2 66.49,265.7 123.7,381.4 201.25,406.8 590.2,666.9 1059.42,729.3 44.59,5.9 89.89,10 135.84,12.3 28.68,1.5 57.62,2.2 86.77,2.2 220.4,0 453.6,-41.3 690.07,-128.6 378.71,-139.7 711.11,-377.2 968.62,-668.3 0.33,-0.3 0.65,-0.7 0.98,-1.1 0.04,0 0.07,0 0.11,-0.1 406.76,-460.6 626.13,-1055.3 545.35,-1610"
         style="fill:#c2c4c9;fill-opacity:1;fill-rule:nonzero;stroke:none"
         id="path138" />
      <path
         d="m 9874.64,19600.5 c -162.19,-917.3 -1100.37,-1363.7 -2095.77,-996.3 -951.42,350.9 -1610.6,1319.3 -1524.07,2206 243.53,-566.1 742.89,-1063.1 1368.5,-1293.8 994.92,-367.4 1933.58,78.9 2095.77,996.3 7.1,40.2 12.29,80.4 16.08,121.1 144.7,-333.9 199.55,-692.3 139.49,-1033.3"
         style="fill:#6b6f77;fill-opacity:1;fill-rule:nonzero;stroke:none"
         id="path140" />
      <path
         d="m 7676.27,21882.6 c -247.19,0 -479.78,-57.2 -677.75,-170.9 -297.12,-170.5 -495.07,-458.6 -557.43,-811.2 -148.17,-837.7 478.84,-1795.2 1397.68,-2134.2 470.1,-173.5 946.95,-154 1308.31,53.4 297.11,170.6 495.09,458.7 557.44,811.2 148.17,837.8 -478.83,1795.2 -1397.68,2134.2 -212.57,78.5 -426.54,117.5 -630.57,117.5 z m 792.8,-3579.3 c -244.63,0 -498.9,46 -749.97,138.7 -1068.34,394.2 -1794.36,1524.1 -1618.44,2518.8 80.5,455.1 338.24,828.3 725.74,1050.7 450.44,258.6 1033.69,287 1600.12,78 1068.33,-394.3 1794.38,-1524.2 1618.48,-2518.8 -80.54,-455.2 -338.31,-828.4 -725.83,-1050.8 -250.78,-144 -542.8,-216.6 -850.1,-216.6"
         style="fill:#000072;fill-opacity:1;fill-rule:nonzero;stroke:none"
         id="path142" />
      <path
         d="m 11402.8,22810.5 c 0,0 1002.5,1260.5 1342.6,1031.9 340,-228.7 562.8,-1489.2 -211.1,-2257.2 l -1131.5,1225.3"
         style="fill:#c2c6d2;fill-opacity:1;fill-rule:nonzero;stroke:none"
         id="path144" />
      <path
         d="m 11267.5,22918.1 c 115.8,143.3 232.7,277.2 356.4,410.4 123.5,132.5 252.1,261.3 392.7,383.3 70.7,60.8 144.1,120 225.7,175 82.6,54.2 169.6,107.8 291.7,140.7 61.9,13.7 136.4,27.1 226.3,-2.5 42,-14.1 88.4,-41.6 110.1,-60.6 14.3,-10.5 26.8,-21.4 37.6,-32.4 11.1,-11 23.6,-22.3 33,-33.5 79,-90.6 127.7,-184.4 166.3,-278.2 75.5,-187.7 114,-378.3 127.3,-570.6 13.6,-192 -0.8,-385.3 -42.8,-573.1 -41.1,-187.7 -112.4,-369.9 -212.4,-534.3 -99.8,-164.1 -231.2,-309 -384.2,-418.5 -39.3,-28.1 -94,-19 -122.2,20.3 -22.1,30.8 -21.2,71.2 -0.8,100.7 l 1.2,1.7 c 194,279.4 319.3,579 372.1,898.3 25.6,159.1 35.5,321.4 26.2,482.1 -8.9,160 -35.4,321.4 -90.1,462.8 -26.7,70.1 -62.8,134.3 -99.5,177.7 -16.2,20.1 -42.2,36 -29.8,29.2 5.3,0.8 -12.2,0.9 -35.1,-4.7 -49.2,-12.4 -117.9,-48.3 -181.9,-91.9 -65,-43.8 -129.6,-95.4 -192.8,-150 -252.1,-220.2 -488.5,-483 -704.5,-747.1 l -2.3,-2.9 c -60.4,-73.9 -169.3,-84.8 -243.2,-24.4 -73.7,60.2 -84.7,168.6 -25,242.5"
         style="fill:#000072;fill-opacity:1;fill-rule:nonzero;stroke:none"
         id="path146" />
      <path
         d="m 12361,22510.8 c -194.8,-93.5 -550,-228.7 -911.3,65.2 -252.1,205 -238.6,768.7 178.8,1119.8 457.3,384.7 967.9,443.4 1263.1,-28.2 114.5,-182.8 239.7,-725 121.3,-1186.4 l -651.9,29.6"
         style="fill:#c2c6d2;fill-opacity:1;fill-rule:nonzero;stroke:none"
         id="path148" />
      <path
         d="m 13059.7,22825.4 c 9.5,299.1 -53.2,587.8 -124.5,756.1 71.3,-168.2 134,-457 124.5,-756.1"
         style="fill:#8080b9;fill-opacity:1;fill-rule:nonzero;stroke:none"
         id="path150" />
      <path
         d="m 11517.8,23587.7 c 0,0 -0.1,0 -0.2,0 33.2,37.8 70.1,74 110.9,108.3 133.2,112 270.9,196.3 406.6,248 0,0 0,0 0,-0.1 -135.6,-51.6 -273.4,-136.1 -406.6,-248.1 -40.7,-34.2 -77.5,-70.4 -110.7,-108.1"
         style="fill:#f4f7fe;fill-opacity:1;fill-rule:nonzero;stroke:none"
         id="path152" />
      <path
         d="m 11486.3,23549.9 -0.1,0.1 c 10.1,12.7 20.6,25.3 31.4,37.7 0.1,0 0.2,0 0.2,0 -10.9,-12.5 -21.4,-25.1 -31.5,-37.8 m 548.8,394 c 0,0.1 0,0.1 0,0.1 43.4,16.5 86.7,29.7 129.4,39.4 -42.7,-9.7 -86,-22.9 -129.4,-39.5"
         style="fill:#8080b9;fill-opacity:1;fill-rule:nonzero;stroke:none"
         id="path154" />
      <path
         d="m 11404,23428.6 c 23.7,41.5 51.1,82.1 82.2,121.4 l 0.1,-0.1 c -31.2,-39.3 -58.6,-79.9 -82.3,-121.3"
         style="fill:#8080b9;fill-opacity:1;fill-rule:nonzero;stroke:none"
         id="path156" />
      <path
         d="m 13012.8,22481.3 -20.9,0.9 c 18.7,371.6 -77.7,733.4 -166.9,876.4 -145,231.6 -342,335.3 -559.1,335.3 -224.9,0 -471.3,-111.3 -704,-306.9 -131.4,-110.6 -222.9,-242 -278.4,-377 3.4,134.8 41.9,281.2 120.5,418.6 23.7,41.4 51.1,82 82.3,121.3 10.1,12.7 20.6,25.3 31.5,37.8 33.2,37.7 70,73.9 110.7,108.1 133.2,112 271,196.5 406.6,248.1 43.4,16.6 86.7,29.8 129.4,39.5 57,12.8 113.1,19.5 168,19.5 217.1,0 414.1,-103.7 559.1,-335.3 14.5,-23.2 29.2,-52.2 43.6,-86.1 71.3,-168.3 134,-457 124.5,-756.1 -3.7,-115.3 -18.1,-232.1 -46.9,-344.1"
         style="fill:#e1e3e9;fill-opacity:1;fill-rule:nonzero;stroke:none"
         id="path158" />
      <path
         d="m 12398.4,22432.9 c -71.7,-96.7 -177.1,-159.5 -296.5,-190 -119.6,-27.8 -251.5,-29.7 -378.1,-2.8 -126.9,27 -244.8,84.7 -344.7,156.3 -24.8,18.6 -47.1,34.9 -78.2,63.6 -27.6,26.8 -52.8,55.4 -73.8,85.7 -42.5,60.3 -72.9,124.9 -92.3,189.9 -39.1,130.1 -43.2,260.2 -25.4,383.8 17.8,123.6 57.3,241.6 114.3,349.3 56.7,107.9 129.5,206.4 215.3,290.7 42.8,43.1 89.5,80.4 132.6,114.3 44.5,34.6 91.3,67 139.4,97.8 96.7,61.2 200.9,115.1 315.8,152.6 114.1,37.9 240.2,58.9 370.4,48.9 129.8,-9.3 261.6,-54.2 370.5,-127.5 109.1,-73.3 194.9,-169.6 260.3,-270.7 15.7,-23.7 36.3,-59.9 48.3,-86.6 14.1,-28.9 25.3,-56.8 35.8,-84.5 21,-55.4 37.3,-109.9 51.6,-164.5 28,-109.1 46.8,-218.5 58.3,-328.9 21.5,-220.6 14.1,-446.8 -41.7,-672.1 -22.9,-92.7 -116.6,-149.2 -209.3,-126.3 -92.7,23 -149.2,116.7 -126.3,209.4 h 0.1 l 0.6,2.8 c 43.1,173.8 51.2,363.8 32.6,551.3 -9.7,93.8 -25.9,187.3 -48.9,277 -22.8,88.9 -54.4,177.8 -91.1,234.1 -45.8,71.1 -100.7,130 -162.3,171.5 -61.8,40.9 -130.4,64.5 -205.4,70.3 -150.3,12.4 -320.9,-50.2 -472.7,-148.1 -37.9,-25.2 -75.2,-51.8 -111.4,-80.8 -37,-30.1 -70.3,-57.4 -99.3,-87.9 -59.5,-60.7 -109.9,-129.4 -146.3,-204.6 -74.2,-148 -94.6,-325.9 -51.7,-460.9 10.7,-33 25.1,-62.2 41.5,-85.8 18.4,-25.9 28.6,-35.2 67.6,-64.4 65.2,-50 135.2,-84.8 208.5,-104.4 73.3,-20.9 151.2,-23.1 233.1,-12.8 82.9,6.7 171.1,17.7 284,10.1 l 3,-0.2 c 53.8,-3.6 94.5,-50.2 90.9,-104 -1.4,-19.4 -8.2,-37.1 -19.1,-51.6"
         style="fill:#000072;fill-opacity:1;fill-rule:nonzero;stroke:none"
         id="path160" />
      <path
         d="m 12080.3,23062.5 c 225,-373.4 -249.4,-772.1 -598.8,-511.3 -10.6,7.8 -21.1,16.1 -31.7,24.7 -84.7,69 -139.3,178.2 -158.8,306.3 -21.8,143.6 33.2,292.9 154.3,373.3 213.3,141.8 493.3,4.6 615,-162.8 7.1,-9.8 13.7,-19.9 20,-30.2"
         style="fill:#ffffff;fill-opacity:1;fill-rule:nonzero;stroke:none"
         id="path162" />
      <path
         d="m 11644.9,23287.9 c -63,0 -126.1,-16.4 -184.5,-55.2 -107.6,-71.5 -163.5,-207.4 -142.4,-346.4 18.8,-123.5 71.7,-226.2 149,-289.2 10.3,-8.4 20.5,-16.4 30.8,-24 175.3,-130.8 372.8,-81.4 490.8,25.5 101.3,91.7 179.9,264.5 68.3,449.8 v 0 c -5.8,9.7 -12.1,19.1 -18.7,28.3 -79.3,109 -235.9,211.2 -393.3,211.2 z m 79.9,-848.4 c -85.2,0 -174.7,26.4 -259.7,89.8 -10.8,8.1 -21.7,16.5 -32.6,25.4 -87.8,71.6 -147.7,186.5 -168.5,323.4 -24.3,159.8 40.9,316.9 166.2,400.1 232.7,154.7 528.3,1 652.2,-169.4 7.5,-10.5 14.7,-21.2 21.3,-32.2 105.9,-175.9 75.2,-379.4 -78.4,-518.5 -77.5,-70.2 -185,-118.5 -300.5,-118.6"
         style="fill:#000072;fill-opacity:1;fill-rule:nonzero;stroke:none"
         id="path164" />
      <path
         d="m 11643.4,23184.1 c -44.4,0 -87.8,-10.9 -126.4,-36.6 -74.6,-49.5 -113,-146.1 -97.8,-245.8 14.9,-98.4 54.9,-178.4 112.5,-225.3 9.1,-7.5 18.1,-14.5 27.1,-21.2 128.8,-96.2 274.1,-59.5 361.1,19.2 76,68.8 128.8,189.3 49.3,321.2 v 0.1 c -4.3,7.1 -8.9,14.1 -13.8,20.9 -63.2,86.8 -191.6,167.5 -312,167.5 z m 84,-845.4 c -112.9,0 -226.1,35.9 -323.5,108.6 -11.9,8.9 -24,18.3 -36.2,28.2 -107.4,87.6 -180.2,225.1 -204.9,387.2 -30.2,199.1 52.5,395.6 210.7,500.7 262.3,174.3 621.1,40.2 791.6,-194.4 9.4,-12.9 18.1,-26.1 26.3,-39.7 130.2,-216.3 91.1,-476.3 -97.4,-647 -105.2,-95.3 -235.7,-143.6 -366.6,-143.6"
         style="fill:#000072;fill-opacity:1;fill-rule:nonzero;stroke:none"
         id="path166" />
      <path
         d="m 23272.9,15906 c 68.3,-255.2 229,-433.9 359,-399.1 68.8,18.4 4074.9,1089.9 4074.9,1089.9 l -247.2,924.2 c 0,0 -4010.6,-1072.7 -4074.9,-1089.9 -130,-34.8 -180,-269.9 -111.8,-525.1"
         style="fill:#c2c6d2;fill-opacity:1;fill-rule:nonzero;stroke:none"
         id="path168" />
      <path
         d="m 23439.9,15950.7 c 44.2,-165.1 125.7,-256.2 159.5,-273.5 l 3895.7,1041.9 -157.8,590.2 -3895.7,-1042 c -20.6,-31.9 -45.9,-151.5 -1.7,-316.6 m 157,-621.3 c -206.3,0 -404.6,208.9 -491,531.9 -39.9,149.4 -47.2,300.6 -20.5,425.9 34.8,163.6 127.6,276.9 254.6,310.9 l 4241.9,1134.5 336.5,-1258.1 -4241.9,-1134.6 c -26.5,-7.1 -53.1,-10.5 -79.6,-10.5"
         style="fill:#363d56;fill-opacity:1;fill-rule:nonzero;stroke:none"
         id="path170" />
      <path
         d="m 23861.7,21027.1 c 0,0 3769.3,-1222.4 4449.4,-3366 653.7,-2060.6 569.8,-2436.7 -634.7,-2916.9 -1204.5,-480.1 -2261,890.2 -2261,890.2 l -1019.4,1635.4 -534.3,3757.3"
         style="fill:#c2c6d2;fill-opacity:1;fill-rule:nonzero;stroke:none"
         id="path172" />
      <path
         d="m 25626,20259.8 c -442.3,-317.2 -962.9,-586 -1542.4,-793.1 l -221.8,1560.4 c 0,0 820.2,-266.1 1764.2,-767.3"
         style="fill:#9da3b2;fill-opacity:1;fill-rule:nonzero;stroke:none"
         id="path174" />
      <path
         d="m 27145.2,14467.6 c -1034.5,0 -1827.6,1010.5 -1866.7,1061.3 -3.5,4.5 -6.8,9.2 -9.8,14.1 l -1019.4,1635.4 c -50.5,81 -25.8,187.6 55.3,238.1 81,50.5 187.6,25.7 238.1,-55.2 l 1014.2,-1627.2 c 63.5,-78.9 758.8,-917.6 1597.6,-917.7 149,0 302.5,26.5 457.9,88.4 1064.6,424.4 1187.9,642.7 533.9,2704 -645.1,2033.6 -4301.2,3241.9 -4338,3253.9 -90.8,29.5 -140.5,127 -111.1,217.8 29.5,90.7 126.8,140.6 217.8,111 157.3,-51 3862,-1275.1 4560.9,-3478.1 326.8,-1030.3 484.7,-1676.5 383.6,-2140.3 -108.7,-497.7 -492.6,-739.7 -1119.1,-989.4 -204.4,-81.5 -404,-116.1 -595.2,-116.1"
         style="fill:#000072;fill-opacity:1;fill-rule:nonzero;stroke:none"
         id="path176" />
      <path
         d="M 23175.2,17741.1 21973,17419.5 c -177.9,-47.6 -318.7,-256.9 -386.3,-574.3 -77.2,-362.7 -52.3,-814.8 70.3,-1272.9 259.3,-969.5 838.3,-1538.4 1196.1,-1442.9 l 1190.6,318.5 c -257.6,328.8 -728,980.8 -874.6,1528.8 -116.2,434.7 -41.5,1324.5 6.1,1764.4 m -405.3,-3968.2 c -567.3,0 -1177.7,703.4 -1446.9,1710 -136.4,509.9 -162.8,1019.3 -74.4,1434.3 97,455.8 322.5,752.7 635.1,836.3 l 1448.6,387.5 c 55.8,14.9 115.5,0.9 158.8,-37.2 43.4,-38.2 64.9,-95.5 57.2,-152.8 -51.1,-380.3 -158.7,-1460.4 -45.2,-1884.9 180.6,-675.4 966.3,-1594.2 974.2,-1603.4 38.8,-45.1 51.7,-107 34.2,-163.8 -17.6,-56.8 -63.1,-100.6 -120.5,-116 l -1448.6,-387.5 c -56.8,-15.2 -114.4,-22.5 -172.5,-22.5"
         style="fill:#363d56;fill-opacity:1;fill-rule:nonzero;stroke:none"
         id="path178" />
      <path
         d="m 21490,15527.6 c 267.7,-1000.8 897.9,-1701.5 1407.7,-1565.2 141.8,38 1448.6,387.5 1448.6,387.5 0,0 -817,949.1 -1010.2,1671.5 -147.5,551.3 40.9,1952.6 40.9,1952.6 0,0 -1219.7,-326.2 -1448.6,-387.5 -509.8,-136.3 -706.1,-1058.1 -438.4,-2058.9"
         style="fill:#858993;fill-opacity:1;fill-rule:nonzero;stroke:none"
         id="path180" />
      <path
         d="m 21571.2,16763 c 4.6,27.9 9.8,55.3 15.5,82.2 67.6,317.4 208.4,526.7 386.3,574.3 l 831.8,222.5 c -33,-73.2 -61.2,-153.5 -84.4,-240.3 -305.1,-81.7 -612.5,-164 -716.3,-191.7 -190.8,-51.1 -337.8,-212.5 -432.9,-447"
         style="fill:#c2c4c9;fill-opacity:1;fill-rule:nonzero;stroke:none"
         id="path182" />
      <path
         d="m 24346.5,14349.8 c 0,0 -1306.8,-349.3 -1449,-387.5 -432.2,-115.6 -950.9,370.9 -1262.5,1132.2 257.7,-291.3 547.2,-437.7 805.9,-368.2 118.8,31.8 1054.5,281.7 1355.5,362.3 270.7,-414.3 550.1,-738.8 550.1,-738.8"
         style="fill:#6b6f77;fill-opacity:1;fill-rule:nonzero;stroke:none"
         id="path184" />
      <path
         d="M 23175.2,17741.1 21973,17419.5 c -177.9,-47.6 -318.7,-256.9 -386.3,-574.3 -77.2,-362.7 -52.3,-814.8 70.3,-1272.9 259.3,-969.5 838.3,-1538.4 1196.1,-1442.9 l 1190.6,318.5 c -257.6,328.8 -728,980.8 -874.6,1528.8 -116.2,434.7 -41.5,1324.5 6.1,1764.4 m -405.3,-3968.2 c -567.3,0 -1177.7,703.4 -1446.9,1710 -136.4,509.9 -162.8,1019.3 -74.4,1434.3 97,455.8 322.5,752.7 635.1,836.3 l 1448.6,387.5 c 55.8,14.9 115.5,0.9 158.8,-37.2 43.4,-38.2 64.9,-95.5 57.2,-152.8 -51.1,-380.3 -158.7,-1460.4 -45.2,-1884.9 180.6,-675.4 966.3,-1594.2 974.2,-1603.4 38.8,-45.1 51.7,-107 34.2,-163.8 -17.6,-56.8 -63.1,-100.6 -120.5,-116 l -1448.6,-387.5 c -56.8,-15.2 -114.4,-22.5 -172.5,-22.5"
         style="fill:#000072;fill-opacity:1;fill-rule:nonzero;stroke:none"
         id="path186" />
      <path
         d="m 22938.6,15915.1 c 267.7,-1000.8 897.9,-1701.6 1407.7,-1565.2 509.8,136.3 706.1,1058.2 438.4,2058.9 -267.7,1000.8 -897.9,1701.6 -1407.7,1565.2 -509.8,-136.3 -706.1,-1058.2 -438.4,-2058.9"
         style="fill:#a0a4af;fill-opacity:1;fill-rule:nonzero;stroke:none"
         id="path188" />
      <path
         d="m 24346.5,14349.8 c -227.9,-60.7 -480.1,45.6 -713,270.7 -288.1,279.3 -546.8,741 -695,1294.7 -267.5,1000.7 -71.4,1922.6 438.6,2058.8 362.2,96.7 785.2,-228.7 1096.4,-784.7 126.1,-226.5 233.8,-491.1 311.1,-780.7 267.9,-1000.6 71.4,-1922.5 -438.1,-2058.8"
         style="fill:#858993;fill-opacity:1;fill-rule:nonzero;stroke:none"
         id="path190" />
      <path
         d="m 24346.5,14349.8 c -227.9,-60.7 -480.1,45.6 -713,270.7 -126.1,226.4 -233.8,491.1 -311.2,780.6 -267.9,1000.6 -71.8,1922.6 438.2,2058.8 227.9,60.8 480.1,-45.6 713,-270.6 126.1,-226.5 233.8,-491.1 311.1,-780.7 267.9,-1000.6 71.4,-1922.5 -438.1,-2058.8"
         style="fill:#6b6f77;fill-opacity:1;fill-rule:nonzero;stroke:none"
         id="path192" />
      <path
         d="m 23506,17817.8 c -29.1,0 -57.3,-3.6 -84.3,-10.8 -178,-47.6 -318.8,-256.9 -386.4,-574.3 -77.2,-362.7 -52.3,-814.8 70.3,-1273 122.5,-458.2 326.6,-862.3 574.6,-1138.1 217,-241.3 443.7,-352.2 621.4,-304.7 178,47.6 318.8,256.9 386.4,574.3 77.2,362.7 52.3,814.8 -70.3,1273 -122.5,458.2 -326.6,862.3 -574.6,1138.1 -184,204.5 -374.8,315.5 -537.1,315.5 m 708.6,-3658 c -262.3,0 -537.5,148.4 -791.5,430.6 -283.7,315.6 -515.1,770.1 -651.5,1280 -136.4,509.9 -162.8,1019.3 -74.5,1434.3 97.1,455.7 322.7,752.7 635.2,836.3 312.5,83.6 656.3,-61.2 967.9,-407.5 283.7,-315.6 515.1,-770.1 651.5,-1280 136.4,-509.8 162.8,-1019.3 74.5,-1434.3 -97.1,-455.7 -322.7,-752.7 -635.2,-836.3 -57.9,-15.5 -116.8,-23.1 -176.4,-23.1"
         style="fill:#000072;fill-opacity:1;fill-rule:nonzero;stroke:none"
         id="path194" />
      <path
         d="m 25092,17611.4 c -298.1,78.2 -779.6,15.2 -1077.6,-347 -468.8,-569.9 -576.4,-2802.9 1052.1,-3679.6 1397.3,-752.3 3739.5,-436.1 3782.4,1969.4 30.2,1692.7 -1904.2,1906.6 -1904.2,1906.6 l -286.5,572.2 c 0,0 -566.9,228.9 -1566.2,-421.6"
         style="fill:#c2c6d2;fill-opacity:1;fill-rule:nonzero;stroke:none"
         id="path196" />
      <path
         d="m 28848.9,15554.4 c -42.8,-2405.9 -2385.2,-2721.7 -3782.6,-1969.6 -348.9,187.8 -618.1,438.2 -821.1,720.8 -744.7,1036.6 -599.3,2510.8 -230.6,2958.7 297.8,362.2 779.2,425.3 1077.5,347 999.3,650.4 1566.3,421.6 1566.3,421.6 l 286.3,-572.1 c 0,0 590.1,-65.3 1113.4,-408.7 423.9,-278.5 804.6,-740.1 790.8,-1497.7"
         style="fill:#c2c6d2;fill-opacity:1;fill-rule:nonzero;stroke:none"
         id="path198" />
      <path
         d="m 23884.4,16091.4 c 2.6,477.9 113.6,880.9 263.5,1063.2 194.5,236.4 477.6,313.2 699.8,313.2 75.9,0 144.7,-9 200.5,-23.6 14.4,-3.8 29.2,-5.7 43.8,-5.7 33.2,0 66,9.6 94.4,28 264.9,172.5 496.1,278.6 690.2,342.4 -4.3,-73.8 -5.7,-149.9 -4.1,-227.8 -185.2,-70.1 -395.8,-174.3 -630.4,-326.9 -72.6,19 -156.2,29.7 -245.3,29.7 -276.7,0 -606.9,-102.8 -832.2,-376.8 -132.8,-161.4 -236.6,-456.2 -280.2,-815.7"
         style="fill:#e1e3e9;fill-opacity:1;fill-rule:nonzero;stroke:none"
         id="path200" />
      <path
         d="m 28848.9,15554.4 c -42.8,-2405.9 -2385.2,-2721.7 -3782.6,-1969.6 -348.9,187.8 -618.1,438.2 -821.1,720.8 941.7,-618.6 2585.4,-454.3 2585.4,1654.3 460.2,492.9 867.6,847.3 1227.5,1092.2 423.9,-278.5 804.6,-740.1 790.8,-1497.7"
         style="fill:#9da3b2;fill-opacity:1;fill-rule:nonzero;stroke:none"
         id="path202" />
      <path
         d="m 24847.7,17467.8 c -222.2,0 -505.3,-76.8 -699.8,-313.2 -213.3,-259.3 -347.8,-965.3 -203.6,-1698 107.6,-546.7 403.8,-1288.7 1204.1,-1719.6 810.2,-436.3 1868.4,-452.7 2573.2,-40.1 609.1,356.5 939.1,999.8 954.5,1860.4 11.3,632.9 -275.2,1115.3 -851.5,1433.7 -444.5,245.5 -894.4,297.5 -898.9,298 -58.2,6.5 -109.2,42 -135.5,94.5 l -251.5,502.2 c -153.8,27.2 -625.8,53.9 -1352.3,-419.2 -40.9,-26.5 -91.1,-34.7 -138.2,-22.3 -55.8,14.6 -124.6,23.6 -200.5,23.6 m 1671,-4418.4 c -522.1,-0.1 -1060.2,128 -1534.2,383.2 -717.1,386.1 -1207,1081.2 -1379.4,1957.2 -151.7,771.1 -35.7,1605.7 275.8,1984.4 317.9,386.4 816.1,487.3 1178.3,421.3 1025.6,643.1 1637.7,408.3 1663.8,397.8 39,-15.8 71,-45.3 89.8,-82.9 l 246.8,-492.9 c 409.8,-74.4 1990.7,-466.1 1962.1,-2066.4 -22.2,-1247.7 -624.3,-1859.2 -1125.4,-2152.5 -398.2,-233.1 -880.6,-349.2 -1377.6,-349.2"
         style="fill:#000072;fill-opacity:1;fill-rule:nonzero;stroke:none"
         id="path204" />
      <path
         d="m 26164.4,16777.9 c 267.7,-1000.8 898,-1701.5 1407.8,-1565.2 141.8,37.9 1448.6,387.5 1448.6,387.5 0,0 -817,949.1 -1010.2,1671.5 -147.5,551.3 40.8,1952.6 40.8,1952.6 0,0 -1219.7,-326.2 -1448.6,-387.5 -509.8,-136.3 -706.1,-1058.2 -438.4,-2058.9"
         style="fill:#858993;fill-opacity:1;fill-rule:nonzero;stroke:none"
         id="path206" />
      <path
         d="m 26218.1,17688 c 9.6,538.4 187.5,917.1 429.4,981.8 l 1061,283.8 c -53.4,-82.9 -97.4,-181.5 -131.4,-292.7 -341.4,-91.3 -721.8,-193.1 -839.5,-224.7 -264.7,-70.8 -444.8,-353.1 -519.5,-748.2"
         style="fill:#c2c4c9;fill-opacity:1;fill-rule:nonzero;stroke:none"
         id="path208" />
      <path
         d="m 29020.6,15600.4 c 0,0 -1306.8,-349.8 -1448.5,-387.6 -500.4,-134.4 -1117.1,539 -1392.8,1510.7 301,-471.8 683.5,-737.4 1014.9,-648.6 105.4,28.1 857,228.8 1234,329.6 283.1,-445.1 592.4,-804.1 592.4,-804.1"
         style="fill:#6b6f77;fill-opacity:1;fill-rule:nonzero;stroke:none"
         id="path210" />
      <path
         d="m 27849.6,18991.4 -1202.1,-321.6 c -357.6,-95.6 -575.4,-877.8 -316.1,-1847.2 259.3,-969.5 838.6,-1538.3 1196.1,-1442.9 l 1190.6,318.5 c -257.6,328.8 -728,980.8 -874.5,1528.8 -116.3,434.6 -41.5,1324.5 6,1764.4 m -405.3,-3968.2 c -567.3,0 -1177.6,703.4 -1446.9,1710 -296.8,1109.7 -50.5,2107.1 560.7,2270.6 l 1448.6,387.5 c 55.8,15 115.5,0.9 158.9,-37.2 43.4,-38.2 64.8,-95.5 57.1,-152.8 -51,-380.4 -158.7,-1460.4 -45.2,-1884.9 180.7,-675.4 966.4,-1594.3 974.3,-1603.5 38.8,-45.1 51.6,-106.9 34.1,-163.7 -17.5,-56.9 -63,-100.7 -120.5,-116 l -1448.6,-387.5 c -56.8,-15.2 -114.4,-22.5 -172.5,-22.5"
         style="fill:#000072;fill-opacity:1;fill-rule:nonzero;stroke:none"
         id="path212" />
      <path
         d="m 27613,17165.3 c 267.7,-1000.7 898,-1701.5 1407.8,-1565.1 509.8,136.3 706,1058.2 438.3,2058.9 -267.6,1000.8 -897.9,1701.5 -1407.7,1565.2 -509.8,-136.4 -706.1,-1058.2 -438.4,-2059"
         style="fill:#858993;fill-opacity:1;fill-rule:nonzero;stroke:none"
         id="path214" />
      <path
         d="m 27983,16285.5 c -147.5,240 -273.8,530.2 -362.6,852.5 88.8,-322.1 215.2,-612.4 362.6,-852.5 v 0"
         style="fill:#c2c4c9;fill-opacity:1;fill-rule:nonzero;stroke:none"
         id="path216" />
      <path
         d="m 28052.6,16178.3 c -23.7,34.5 -46.9,70.3 -69.6,107.2 v 0 c 22.7,-36.9 45.9,-72.6 69.6,-107.2"
         style="fill:#b5b7bb;fill-opacity:1;fill-rule:nonzero;stroke:none"
         id="path218" />
      <path
         d="m 27604.5,17197.9 c -143.2,554.6 -143.7,1082.7 -27.4,1463 h 0.1 c -116.3,-380.3 -115.8,-908.4 27.3,-1463"
         style="fill:#c2c4c9;fill-opacity:1;fill-rule:nonzero;stroke:none"
         id="path220" />
      <path
         d="m 27577.1,18660.9 c 34,111.2 78,209.8 131.4,292.7 v 0 c -53.3,-82.9 -97.3,-181.5 -131.3,-292.7 h -0.1"
         style="fill:#e1e2e4;fill-opacity:1;fill-rule:nonzero;stroke:none"
         id="path222" />
      <path
         d="m 27708.5,18953.6 c 25.9,40.4 54.2,77.1 84.5,109.7 -30.3,-32.6 -58.5,-69.3 -84.5,-109.7 v 0"
         style="fill:#8080b9;fill-opacity:1;fill-rule:nonzero;stroke:none"
         id="path224" />
      <path
         d="m 28177.8,16012.3 c -42.9,51.4 -84.7,106.9 -125.2,166 -23.7,34.6 -46.9,70.3 -69.6,107.2 -147.4,240.1 -273.8,530.4 -362.6,852.5 -2.5,9.1 -4.9,18.2 -7.4,27.3 -2.9,10.9 -5.7,21.7 -8.5,32.6 -143.1,554.6 -143.6,1082.7 -27.3,1463 34,111.2 78,209.8 131.3,292.7 26,40.4 54.2,77.1 84.5,109.7 73.8,79.4 160.2,134.6 258.2,160.8 42.7,11.5 86.4,17.1 130.5,17.1 326.7,0 684.2,-304.9 957.1,-786.6 -224.5,268.3 -475.8,426.5 -711.2,426.5 -44,0 -87.5,-5.5 -130.1,-16.9 -510,-136.2 -706.1,-1058.2 -438.2,-2058.8 78.7,-295 189.2,-563.8 318.5,-793.1"
         style="fill:#c2c4c9;fill-opacity:1;fill-rule:nonzero;stroke:none"
         id="path226" />
      <path
         d="m 29020.6,15600.4 c -509.6,-136.7 -1139.7,564.3 -1407.6,1564.9 -33.6,125.7 -59.8,250.4 -79.1,371.9 307,-802.2 845,-1323.3 1290.6,-1203.6 446,119.2 651.7,839.1 517.8,1686.9 44.2,-115.1 83.3,-235.6 116.9,-361.3 267.4,-1000.6 71.3,-1922.6 -438.6,-2058.8"
         style="fill:#6b6f77;fill-opacity:1;fill-rule:nonzero;stroke:none"
         id="path228" />
      <path
         d="m 28177.7,19067.7 c -28.3,0 -55.5,-3.4 -81.6,-10.4 -178,-47.6 -318.8,-256.9 -386.4,-574.3 -77.2,-362.7 -52.2,-814.8 70.3,-1273 259.3,-969.5 838.6,-1538.3 1196.1,-1442.9 357.6,95.7 575.4,877.9 316.1,1847.4 -240.4,898.6 -755.7,1453.2 -1114.5,1453.2 z m 715.2,-3657.1 c -567.3,0 -1177.6,703.4 -1446.9,1710.1 -136.4,509.8 -162.8,1019.2 -74.4,1434.3 97,455.7 322.6,752.7 635.1,836.3 611.4,163.3 1322.6,-577.8 1619.5,-1687.5 296.8,-1109.7 50.5,-2107.1 -560.8,-2270.6 -56.8,-15.2 -114.4,-22.6 -172.5,-22.6"
         style="fill:#000072;fill-opacity:1;fill-rule:nonzero;stroke:none"
         id="path230" />
      <path
         d="m 22951.1,32379.3 c 0,0 10.4,1231.1 -474.6,2472.3 -485.1,1241.3 -1183.7,1318.7 -1796,965.7 -735.2,-423.8 -1313.3,-1615.7 -956.3,-2752.8 341.4,-1087.6 1113.8,-1437.8 1113.8,-1437.8 l 2113.1,752.6"
         style="fill:#c2c6d2;fill-opacity:1;fill-rule:nonzero;stroke:none"
         id="path232" />
      <path
         d="m 22951.1,32379.2 -866.6,-308.4 -1246.7,-444.2 c 0,0 -771.9,350.5 -1113.5,1438 -185.4,590.2 -118.7,1195.2 91,1700 194.6,467.2 511.7,848.8 865.2,1052.7 612.2,353.1 1311,275.7 1795.8,-965.6 485.2,-1241.4 474.8,-2472.5 474.8,-2472.5"
         style="fill:#c2c6d2;fill-opacity:1;fill-rule:nonzero;stroke:none"
         id="path234" />
      <path
         d="m 22084.5,32070.8 -1246.7,-444.2 c 0,0 -771.9,350.5 -1113.5,1438 -185.4,590.2 -118.7,1195.2 91,1700 276,364.2 773.7,849.3 1385,681.9 909.3,-248.9 885.7,-3247.9 884.2,-3375.7"
         style="fill:#9da3b2;fill-opacity:1;fill-rule:nonzero;stroke:none"
         id="path236" />
      <path
         d="m 22729.9,33075.4 c -28,9.1 -56.1,17.9 -84.3,26.5 -67.9,415.4 -182.7,911.1 -377.3,1408.4 -328.8,842 -756.2,1148.5 -1188.1,1148.5 -173.6,0 -347.8,-49.5 -516.8,-133.6 65.6,54.4 133.6,102.1 203.5,142.4 184.1,106.2 358.6,159.4 521.2,159.4 80.4,0 158,-13 232.3,-39.1 311.2,-109.3 578.7,-445.5 795.1,-999.2 244.7,-626.4 360.1,-1255.3 414.4,-1713.3"
         style="fill:#e1e3e9;fill-opacity:1;fill-rule:nonzero;stroke:none"
         id="path238" />
      <path
         d="m 20837.9,31453.8 c -23.9,0 -48.2,5 -71.3,15.5 -34.4,15.6 -846.9,395.4 -1207.3,1543.4 -387.2,1233.2 235.8,2493.7 1034.9,2954.4 361.4,208.3 721.3,259.2 1040.8,146.9 410.5,-144.1 747.8,-547.7 1002.5,-1199.4 491.5,-1257.9 486.9,-2485.2 486.4,-2536.8 -0.8,-95 -78,-171.3 -172.8,-171.3 h -1.4 c -95.4,0.7 -172.2,78.7 -171.5,174.1 0.1,12 3.7,1214.6 -462.7,2408.1 -216.4,553.7 -483.9,889.9 -795.1,999.2 -224.7,78.9 -478.2,38.4 -753.5,-120.3 -686.5,-395.8 -1203,-1515.4 -877.8,-2551.4 314.7,-1002.1 1013.2,-1328.9 1020.3,-1332.1 86.9,-39.4 125.4,-141.9 86,-228.8 -28.9,-63.7 -91.8,-101.5 -157.5,-101.5"
         style="fill:#000072;fill-opacity:1;fill-rule:nonzero;stroke:none"
         id="path240" />
      <path
         d="m 21128.4,31978 c 245.8,-79.2 496,113.8 639.4,387.1 401.4,764.6 -68.6,2536.3 -508.7,2791.1 -440.1,254.9 -934.5,-379.6 -1060.2,-922.3 -208,-898.1 119.4,-1994.8 929.5,-2255.9"
         style="fill:#ffffff;fill-opacity:1;fill-rule:nonzero;stroke:none"
         id="path242" />
      <path
         d="m 21767.9,32364.9 c -92.9,-176.5 -230.6,-319.6 -382.4,-377.1 -348.3,645.1 60.5,2306.1 -559.1,2677.7 -154.5,92.7 -318.5,68.9 -469.2,-20.1 212.9,394.1 572.3,701.5 901.8,510.7 440.4,-254.7 910.1,-2026.4 508.9,-2791.2"
         style="fill:#dfe6f4;fill-opacity:1;fill-rule:nonzero;stroke:none"
         id="path244" />
      <path
         d="m 21168.2,32101.4 c 186,-59.9 377.6,119.5 484.9,323.9 388.3,739.8 -101.9,2412 -459,2618.8 -87.4,50.6 -179.2,53.9 -280.7,9.8 -244.1,-105.8 -502.5,-478.9 -588.2,-849.3 -190.6,-823 102.7,-1864.5 843,-2103.2 m 71.3,-270.4 c -50.8,0 -101.3,7.7 -150.8,23.7 -904.6,291.5 -1231.8,1477.1 -1016.1,2408.4 90.6,391.5 373.1,870.7 737.6,1028.7 177.1,76.8 354.8,68.8 513.9,-23.3 495.6,-287.1 1003.7,-2115.6 558.5,-2963.7 -156.6,-298.5 -401.8,-473.8 -643.1,-473.8"
         style="fill:#000072;fill-opacity:1;fill-rule:nonzero;stroke:none"
         id="path246" />
      <path
         d="m 19468.3,20341.8 c -2833.9,448.2 -5243.6,1843.7 -6082.1,3936.2 -565.1,1410.2 -382.9,4277.6 2873.2,5001.6 831.1,357.4 1418.6,1934 2661.9,2980.6 1193.8,1005 2817.1,1071.5 4121.2,513.7 2013.1,-200.4 3172.4,-916.7 3910.5,-1597.6 1247.3,-1150.6 1716.4,-2925 1354.8,-5271.2 -231.3,-1501 -529.8,-2807.8 -1315.7,-3888.1 -678.3,-932.3 -1664.4,-1504.2 -2802.7,-1791.8 -560.8,-141.7 -1158.6,-214.3 -1774.7,-227 l -2946.4,343.6"
         style="fill:#c2c6d2;fill-opacity:1;fill-rule:nonzero;stroke:none"
         id="path248" />
      <path
         d="m 27580.3,23553 c 177.1,607.7 298.3,1259.9 405.3,1953.8 170.7,1107.2 156.4,2086.8 -37.3,2933.8 59.1,-23.3 136.3,-49.9 229.7,-74.1 44.8,-310.4 63.8,-625.4 67.1,-940.6 6.1,-393.2 -27,-787.7 -74.4,-1179.9 l -39.9,-294 -47,-296.1 c -33.1,-197 -67.6,-393.5 -105.7,-588.8 -75.9,-390.5 -165.4,-776.9 -279.5,-1153.9 -36.3,-121.3 -75.7,-241.4 -118.3,-360.2 m -654.3,6925.3 c -92.9,104.2 -191.2,204.2 -294.9,299.8 -738,680.7 -1897.6,1397.4 -3910.8,1597.5 -528.6,226.2 -1109.8,349.8 -1693.5,349.8 -596.4,0 -1195.4,-129 -1744,-409.4 504.7,354.3 1106.5,565.2 1723.9,618.4 114.8,10.1 230.1,15.2 345.4,15.2 554.8,0 1111.1,-116.4 1622.4,-334.6 l 24.1,-10.3 26.7,-2.8 c 785.8,-81.4 1564.4,-249.7 2282.3,-562.4 180.1,-76.2 353.7,-166 524.9,-259.3 168.2,-98.4 335.2,-199.4 492.1,-315 158.3,-113.4 310.8,-235 455.3,-366.2 142.8,-132.1 280.1,-266.9 403.5,-415.8 4.1,-4.8 8.2,-9.7 12.3,-14.5 -74.9,-50.4 -137.8,-94.5 -187.1,-130 -34.3,-24.6 -62,-45 -82.6,-60.4"
         style="fill:#e1e3e9;fill-opacity:1;fill-rule:nonzero;stroke:none"
         id="path250" />
      <path
         d="m 27677.1,23287 c -176.7,-452.6 -398.6,-876.4 -684.9,-1269.8 -678.6,-932.7 -1664.4,-1504.6 -2802.8,-1792.1 -560.7,-141.6 -1158.5,-214.1 -1774.8,-226.9 l -2946.2,343.4 c -2833.9,448.5 -5243.9,1843.8 -6082.4,3936.7 -27.8,69.7 -54,143.1 -77.5,219.4 29.2,-47.2 1965,-3118.1 7710.7,-3533.8 5282.6,-381.9 6637.3,2281.4 6657.9,2323.1"
         style="fill:#9da3b2;fill-opacity:1;fill-rule:nonzero;stroke:none"
         id="path252" />
      <path
         d="m 19454.8,20256.4 c -1186.9,112.8 -2361.7,456.3 -3424,1029.5 -530.4,287 -1034.1,631 -1482.2,1042.9 -447.6,411.2 -838.9,892.8 -1127.4,1436.2 -72.5,135.6 -136.6,275.5 -195.6,417.7 -57.9,144.7 -108.9,294.1 -146,444.6 -77.6,301.2 -115.7,609.3 -125.2,917.9 -12,616.1 100.7,1242 371.8,1804.5 134.1,281 305.9,544.9 509.9,780.7 203.7,236 439.2,443.5 694.6,618.8 255.6,175.4 530.1,320 814.3,436.4 285.2,113.9 578.8,200.5 875.4,269.2 l -32,-10.3 c 65.9,29.5 130.5,67.2 193.5,111.2 62.1,46.3 123.4,95.9 181.7,152.6 117.7,110.9 226.5,239.8 332.4,372.5 211.1,267 408.6,555.2 615.2,840 412.4,569.1 859.2,1139.8 1441.7,1584.1 291.4,222.1 615.5,401.2 957.7,531.2 342.3,130.1 702.4,210.4 1065.7,242.6 727.3,64.2 1465.2,-60.5 2134.1,-345.9 l -50.8,13.1 c 812.7,-84.2 1626.1,-258.6 2386,-589.4 190.5,-80.7 374.8,-175.8 556.7,-275.2 179,-104.4 356.6,-212.3 523.9,-335.2 168.7,-120.9 331.2,-250.6 484.7,-389.8 152.5,-140.9 302.7,-288.6 436.2,-449.6 270.5,-319.5 495.4,-677.5 667.3,-1057.9 172.6,-380.4 293.6,-781.5 373,-1188.3 78.3,-407.5 109.8,-820.5 115.5,-1231.6 7.8,-411.8 -25.1,-821.4 -72.6,-1227.5 l -40.2,-304.2 -46.6,-300.1 c -32.9,-199.9 -67.1,-399.8 -105.4,-599.5 -77.3,-399.3 -169,-797.9 -287.6,-1191.3 -236.5,-784.5 -594.1,-1555.4 -1147.1,-2189.5 -551.1,-634.9 -1282.4,-1096.1 -2062.9,-1368.4 -782.9,-273.1 -1612,-372.1 -2424,-336.6 -47.8,2.1 -84.8,42.5 -82.7,90.3 1.9,43.9 36.2,78.8 78.9,82.5 h 0.2 c 794.7,70.2 1580,205.1 2312.4,481.3 364.4,139.5 717.3,308.3 1038.8,524.5 81.9,51.6 158.1,111.3 236.7,167.5 74.8,61.1 152.3,118.9 223.1,184.5 146.1,126.1 280.5,264.9 406.2,410.8 128.1,144.1 237.5,303.1 346.8,463.8 103.8,164 202.7,331.3 289.8,505.6 176.2,347.2 318.9,713.2 431.9,1090.6 114.1,377 203.6,763.4 279.5,1153.9 38.1,195.3 72.6,391.8 105.7,588.8 l 47,296.1 39.9,294 c 47.4,392.2 80.5,786.7 74.4,1179.9 -4.1,392.7 -32.6,785.2 -105,1168.8 -73.4,383 -185.3,757.5 -343.8,1110.5 -158.4,352.7 -363.2,683.9 -612.9,978 -123.4,148.9 -260.7,283.7 -403.5,415.8 -144.5,131.2 -297,252.8 -455.3,366.2 -156.9,115.6 -323.9,216.6 -492.1,315 -171.2,93.3 -344.8,183.1 -524.9,259.3 -717.9,312.7 -1496.5,481 -2282.3,562.4 l -26.7,2.8 -24.1,10.3 c -617.5,263.6 -1300.8,378.5 -1967.8,319.4 -666.7,-57.5 -1315.1,-298.8 -1842.8,-705.9 -133,-98.8 -259.8,-212 -381.4,-329.5 -121.7,-117.7 -238.5,-241.5 -350.4,-370.3 -224.3,-257.5 -431.5,-532.6 -634.3,-814.6 -203.4,-281.9 -400.5,-571.9 -622.5,-854.4 -111.8,-140.7 -228.5,-280.6 -365,-410.3 -67,-65.5 -141.4,-126.7 -219.4,-184.9 -80.2,-56.6 -166.6,-108.1 -260.6,-149.9 l -13.4,-5.9 -18.6,-4.4 c -278.9,-65.6 -553.1,-147.5 -816.8,-253.4 -262.4,-108.4 -513,-241.7 -744.2,-401.2 -231.1,-159.6 -441.9,-346.6 -623.7,-558.4 -182,-211.6 -334.8,-447.7 -455.2,-699.8 -243.1,-504.4 -346.1,-1073.8 -334.8,-1637.2 9,-281.7 44.2,-563.8 114.3,-835 33.8,-136.5 78.8,-267.3 130.6,-396.8 54.3,-130.8 113.9,-259.4 179.7,-385 263.4,-502.9 624.7,-954.5 1044.6,-1344.6 420.2,-390.8 897.8,-721.8 1404.9,-999.9 507.5,-278.8 1046,-500.5 1595.3,-692.7 550,-192.5 1116.1,-339.6 1688.8,-473.1 l 0.8,-0.2 c 46.6,-10.9 75.6,-57.4 64.7,-104 -10,-42.8 -50,-70.6 -92.5,-66.6"
         style="fill:#000072;fill-opacity:1;fill-rule:nonzero;stroke:none"
         id="path254" />
      <path
         d="m 23631.6,27507.2 c -225.7,-704.8 -879.3,-1102.8 -1459.8,-888.9 -580.5,213.8 -868.1,958.5 -642.3,1663.3 225.7,704.8 879.3,1102.8 1459.8,888.9 580.4,-213.8 868,-958.5 642.3,-1663.3"
         style="fill:#000072;fill-opacity:1;fill-rule:nonzero;stroke:none"
         id="path256" />
      <path
         d="m 21988.6,28292.3 c -35.1,-292.7 95,-547.1 290.7,-568.3 195.6,-21.2 382.7,199 417.8,491.7 35.1,292.7 -95,547.2 -290.7,568.3 -195.7,21.2 -382.7,-198.9 -417.8,-491.7"
         style="fill:#ffffff;fill-opacity:1;fill-rule:nonzero;stroke:none"
         id="path258" />
      <path
         d="m 22915.5,27021.6 c -20.8,0 -39.8,4.9 -56.1,15.1 -86.2,54.1 -66,237.6 45.2,409.9 90.2,139.8 212.5,229.2 301.6,229.2 20.7,0 39.7,-4.9 56,-15.1 86.3,-54.1 66.1,-237.6 -45.2,-409.9 -90.2,-139.8 -212.5,-229.2 -301.5,-229.2"
         style="fill:#5959a3;fill-opacity:1;fill-rule:nonzero;stroke:none"
         id="path260" />
      <path
         d="m 17719.3,29828.5 c -140.2,-630.7 153.1,-1192.7 655.1,-1255.5 501.9,-62.8 1022.4,397.5 1162.5,1028.1 140.1,630.7 -153.2,1192.8 -655.1,1255.5 -501.9,62.8 -1022.4,-397.5 -1162.5,-1028.1"
         style="fill:#000072;fill-opacity:1;fill-rule:nonzero;stroke:none"
         id="path262" />
      <path
         d="m 19216.5,29789.2 c -99.7,-239 -300.2,-383.8 -447.7,-323.5 -147.5,60.4 -186.3,303 -86.5,541.9 99.7,239 300.1,383.8 447.6,323.5 147.6,-60.4 186.3,-303 86.6,-541.9"
         style="fill:#ffffff;fill-opacity:1;fill-rule:nonzero;stroke:none"
         id="path264" />
      <path
         d="m 18058.8,29163.8 c -81.2,0 -149.9,133.8 -155.2,305.1 -5.4,176.1 58.4,325.2 142.5,333 2.3,0.3 4.6,0.4 6.9,0.4 81.1,0 149.9,-133.8 155.1,-305.1 5.4,-176.1 -58.4,-325.2 -142.4,-333.1 -2.3,-0.2 -4.6,-0.3 -6.9,-0.3"
         style="fill:#5959a3;fill-opacity:1;fill-rule:nonzero;stroke:none"
         id="path266" />
      <path
         d="m 29627.3,28434.6 c -882.6,-289.1 -1533.2,-61.1 -1744.2,33.3 -48,21.6 -73.1,36.2 -73.1,36.2 0,0 -697.3,160.9 -991.7,663.8 -347.7,593.7 63.7,1276.9 63.7,1276.9 0,0 1205,947.4 2598.4,1267.9 1299.1,298.9 1761.3,-196 1830,-899.3 7.9,-81.5 9.2,-165.2 3.8,-251.6 -47,-809.9 -663.3,-1792.2 -1686.9,-2127.2"
         style="fill:#c2c6d2;fill-opacity:1;fill-rule:nonzero;stroke:none"
         id="path268" />
      <path
         d="m 29627.3,28434.6 c -882.6,-289.1 -1533.2,-61.1 -1744.2,33.3 -48,21.6 -73.1,36.2 -73.1,36.2 0,0 -697.3,160.9 -991.7,663.8 -347.7,593.7 63.7,1276.9 63.7,1276.9 0,0 1205,947.4 2598.4,1267.9 1299.1,298.9 1761.3,-196 1830,-899.3 7.9,-81.5 9.2,-165.2 3.8,-251.6 -47,-809.9 -663.3,-1792.2 -1686.9,-2127.2"
         style="fill:#c2c6d2;fill-opacity:1;fill-rule:nonzero;stroke:none"
         id="path270" />
      <path
         d="m 26889.5,30450.6 c 0,0 -0.1,0 -0.1,0 7.1,5.5 19.4,14.8 36.6,27.7 v -0.1 c -17.1,-12.7 -29.3,-22.1 -36.5,-27.6"
         style="fill:#e1e3e9;fill-opacity:1;fill-rule:nonzero;stroke:none"
         id="path272" />
      <path
         d="m 26926,30478.2 v 0.1 c 20.6,15.4 48.3,35.8 82.6,60.4 -34.3,-24.6 -62,-45 -82.6,-60.5"
         style="fill:#f0f1f4;fill-opacity:1;fill-rule:nonzero;stroke:none"
         id="path274" />
      <path
         d="m 31308.8,30492.7 c 2.3,23.2 4,46.2 5.4,69.1 2.2,35.1 3.3,69.8 3.3,104 0,-34.2 -1.1,-68.9 -3.3,-104 -1.3,-22.9 -3.1,-45.9 -5.4,-69.1 m -2064.3,1159.5 c 0.1,0 0.1,0 0.2,0 h -0.2"
         style="fill:#e6f7ff;fill-opacity:1;fill-rule:nonzero;stroke:none"
         id="path276" />
      <path
         d="m 29248,31653.2 c 0.2,0 0.4,0.1 0.7,0.1 -0.2,0 -0.5,-0.1 -0.7,-0.1"
         style="fill:#e6f7ff;fill-opacity:1;fill-rule:nonzero;stroke:none"
         id="path278" />
      <path
         d="m 29251.6,31654.1 c 0.4,0.2 0.7,0.3 1.1,0.4 -0.3,-0.1 -0.8,-0.3 -1.1,-0.4"
         style="fill:#e6f7ff;fill-opacity:1;fill-rule:nonzero;stroke:none"
         id="path280" />
      <path
         d="m 29255.3,31655.2 c 0.5,0.1 0.9,0.2 1.3,0.4 -0.4,-0.1 -0.9,-0.3 -1.3,-0.4"
         style="fill:#e6f7ff;fill-opacity:1;fill-rule:nonzero;stroke:none"
         id="path282" />
      <path
         d="m 29259.1,31656.3 c 0.5,0.1 1,0.3 1.6,0.4 -0.5,-0.1 -1.1,-0.3 -1.6,-0.4"
         style="fill:#e6f7ff;fill-opacity:1;fill-rule:nonzero;stroke:none"
         id="path284" />
      <path
         d="m 29262.9,31657.3 c 0.6,0.2 1.2,0.3 1.7,0.5 -0.6,-0.2 -1.1,-0.3 -1.7,-0.5"
         style="fill:#e6f7ff;fill-opacity:1;fill-rule:nonzero;stroke:none"
         id="path286" />
      <path
         d="m 29266.6,31658.4 c 0.8,0.2 1.6,0.4 2.3,0.6 -0.8,-0.2 -1.5,-0.4 -2.3,-0.6"
         style="fill:#e6f7ff;fill-opacity:1;fill-rule:nonzero;stroke:none"
         id="path288" />
      <path
         d="m 29270.3,31659.4 c 1,0.3 1.8,0.5 2.7,0.7 -0.8,-0.2 -1.8,-0.5 -2.7,-0.7"
         style="fill:#e6f7ff;fill-opacity:1;fill-rule:nonzero;stroke:none"
         id="path290" />
      <path
         d="m 29274.2,31660.4 c 1,0.3 1.9,0.6 2.9,0.9 -1,-0.3 -1.9,-0.6 -2.9,-0.9"
         style="fill:#e6f7ff;fill-opacity:1;fill-rule:nonzero;stroke:none"
         id="path292" />
      <path
         d="m 29278.1,31661.5 c 1.1,0.3 2.1,0.6 3.1,0.9 -1.1,-0.3 -2,-0.6 -3.1,-0.9"
         style="fill:#e6f7ff;fill-opacity:1;fill-rule:nonzero;stroke:none"
         id="path294" />
      <path
         d="m 29282,31662.6 c 1.2,0.3 2.5,0.7 3.7,1 -1.2,-0.3 -2.4,-0.7 -3.7,-1"
         style="fill:#e6f7ff;fill-opacity:1;fill-rule:nonzero;stroke:none"
         id="path296" />
      <path
         d="m 29285.8,31663.7 c 1.3,0.3 2.7,0.7 4,1 -1.3,-0.3 -2.7,-0.7 -4,-1"
         style="fill:#e6f7ff;fill-opacity:1;fill-rule:nonzero;stroke:none"
         id="path298" />
      <path
         d="m 29289.8,31664.7 c 53.6,14.7 107.6,28.4 161.9,41.3 -54.3,-12.8 -108.3,-26.6 -161.9,-41.3"
         style="fill:#e6f7ff;fill-opacity:1;fill-rule:nonzero;stroke:none"
         id="path300" />
      <path
         d="m 29451.9,31706 c 1.3,0.4 2.7,0.7 3.9,1 -1.3,-0.4 -2.5,-0.6 -3.9,-1"
         style="fill:#e6f7ff;fill-opacity:1;fill-rule:nonzero;stroke:none"
         id="path302" />
      <path
         d="m 29455.9,31707 c 1.2,0.3 2.7,0.6 3.9,0.9 -1.3,-0.3 -2.6,-0.6 -3.9,-0.9"
         style="fill:#e6f7ff;fill-opacity:1;fill-rule:nonzero;stroke:none"
         id="path304" />
      <path
         d="m 29460,31708 c 1.3,0.3 2.4,0.5 3.7,0.8 -1.3,-0.3 -2.4,-0.5 -3.7,-0.8"
         style="fill:#e6f7ff;fill-opacity:1;fill-rule:nonzero;stroke:none"
         id="path306" />
      <path
         d="m 29464.2,31708.9 c 1.2,0.3 2.3,0.6 3.6,0.9 -1.3,-0.3 -2.4,-0.6 -3.6,-0.9"
         style="fill:#e6f7ff;fill-opacity:1;fill-rule:nonzero;stroke:none"
         id="path308" />
      <path
         d="m 29468.2,31709.9 c 1.1,0.2 2.3,0.5 3.5,0.8 -1.2,-0.3 -2.3,-0.6 -3.5,-0.8"
         style="fill:#e6f7ff;fill-opacity:1;fill-rule:nonzero;stroke:none"
         id="path310" />
      <path
         d="m 29472.3,31710.8 c 1.1,0.3 2.2,0.5 3.2,0.8 -1.1,-0.3 -2.1,-0.5 -3.2,-0.8"
         style="fill:#e6f7ff;fill-opacity:1;fill-rule:nonzero;stroke:none"
         id="path312" />
      <path
         d="m 29476.4,31711.8 c 1.3,0.3 2.7,0.6 4,0.9 -1.4,-0.3 -2.7,-0.6 -4,-0.9"
         style="fill:#e6f7ff;fill-opacity:1;fill-rule:nonzero;stroke:none"
         id="path314" />
      <path
         d="m 31289.4,30349.6 c 0.1,45.7 -2.5,91.2 -6.6,135.4 -54.8,560.1 -359.1,988.1 -1137.1,988.1 -198.8,0 -428.6,-28 -693,-88.8 -1168.8,-268.8 -1976.9,-944.4 -2463.7,-944.5 -34.8,0 -67.9,3.5 -99.5,10.8 15.9,12.2 56.6,43.2 119.1,88.1 319.6,229.7 1208.6,823.1 2235.9,1113.5 h 0.2 c 1.1,0.3 2.2,0.6 3.3,1 0.2,0 0.5,0.1 0.7,0.1 0.9,0.3 1.9,0.6 2.9,0.8 0.3,0.1 0.8,0.3 1.1,0.4 0.8,0.2 1.8,0.5 2.6,0.7 0.4,0.1 0.9,0.3 1.3,0.4 0.8,0.2 1.7,0.4 2.5,0.7 0.5,0.1 1.1,0.3 1.6,0.4 0.7,0.2 1.5,0.4 2.2,0.6 0.6,0.2 1.1,0.3 1.7,0.5 0.7,0.2 1.3,0.4 2,0.6 0.8,0.2 1.5,0.4 2.3,0.6 0.5,0.1 1,0.3 1.4,0.4 0.9,0.2 1.9,0.5 2.7,0.7 0.4,0.1 0.8,0.3 1.2,0.3 1,0.3 1.9,0.6 2.9,0.9 0.4,0.1 0.7,0.1 1,0.2 1.1,0.3 2,0.6 3.1,0.9 0.3,0.1 0.6,0.1 0.8,0.2 1.3,0.3 2.5,0.7 3.7,1 0.1,0.1 0,0 0.1,0.1 1.3,0.3 2.7,0.7 4,1 v 0 c 53.6,14.7 107.6,28.5 161.9,41.3 0,0 0.1,0 0.2,0 1.4,0.4 2.6,0.6 3.9,1 0.1,0 0,0 0.1,0 1.3,0.3 2.6,0.6 3.9,0.9 0.1,0 0.2,0 0.2,0.1 1.3,0.3 2.4,0.5 3.7,0.8 0.1,0 0.4,0.1 0.5,0.1 1.2,0.3 2.3,0.6 3.6,0.9 0.1,0 0.2,0 0.4,0.1 1.2,0.2 2.3,0.5 3.5,0.8 0.2,0 0.4,0.1 0.6,0.1 1.1,0.3 2.1,0.5 3.2,0.8 0.3,0 0.5,0.1 0.9,0.2 1.3,0.3 2.6,0.6 4,0.9 v 0 c 264.3,60.8 494.2,88.8 693,88.8 778.1,0 1082.3,-427.9 1137,-988.1 4.7,-48.4 7.1,-97.5 7.1,-147.6 0,-34.2 -1.1,-68.9 -3.3,-104 -1.4,-22.9 -3.1,-45.9 -5.4,-69.1 -4.6,-47.2 -11,-94.9 -19.4,-143.1"
         style="fill:#e1e3e9;fill-opacity:1;fill-rule:nonzero;stroke:none"
         id="path316" />
      <path
         d="m 29627.3,28434.6 c -882.6,-289.1 -1533.2,-61.1 -1744.2,33.3 -162.2,157.4 -287,419.6 -225.6,857.4 189.7,1353.1 2952.9,2565.1 3656.7,1236.5 -47,-809.9 -663.3,-1792.2 -1686.9,-2127.2"
         style="fill:#9da3b2;fill-opacity:1;fill-rule:nonzero;stroke:none"
         id="path318" />
      <path
         d="m 26828.8,30512.8 c 330.8,289.4 689.1,534.8 1068.9,752.2 190.1,107.7 385.1,207.9 586.2,296.4 200.2,90.3 406.9,168 618,234.7 211.7,65.1 427.1,120.6 650.9,152.8 223,33 454.9,47.4 692.1,13.3 118.3,-17.2 238,-47.3 353.7,-96.5 115.7,-48.5 225.9,-119.6 320.5,-207.7 93.4,-89.4 170.7,-195.6 224.7,-308.8 55.8,-112.8 90.5,-231.1 114,-348.2 12,-58.8 19.8,-117.2 26,-175.8 l 6.3,-89.5 1.8,-89 c -0.5,-118.5 -12.8,-235.3 -33.6,-349.8 -42.4,-228.6 -115.7,-448.7 -216.3,-654.8 -99.6,-206.6 -226.1,-399.5 -374.3,-574.4 -147.9,-174.8 -317.5,-332.9 -507.9,-462.3 -94.3,-65.8 -193.4,-124.8 -296.2,-176.7 -102.3,-52.6 -208.5,-98.1 -317.5,-134.8 -216.6,-72.3 -438.4,-119.9 -665.2,-138.7 -113.1,-9.6 -226.8,-11.8 -340.1,-5.7 -113.3,5.7 -226.1,18.4 -337.1,40.8 -111.2,21.3 -220.5,51.6 -326.6,90.6 -53.1,19.4 -105.5,40.8 -157,64.6 -52.5,24.2 -99.6,49.7 -153.6,84 -40.2,25.7 -52.1,79 -26.5,119.3 23.1,36.3 68.7,49.5 106.9,33 l 6.2,-2.6 c 40.1,-17.2 91.7,-34.2 138.9,-48.9 48.4,-15 97.7,-27.9 147.3,-38.9 99.4,-21.8 200.3,-36.1 301.2,-45.7 202.2,-18.3 405.4,-9.8 605.1,19 198.9,31.2 397.4,81.2 584.4,153.2 92.9,35 183.9,75.1 271.1,122.7 87.6,46.4 172.1,99.1 252.3,157.7 80.8,57.8 157.3,121.5 230.2,189.2 73.1,67.4 143.3,138.4 207.3,215 129.3,151.9 239.9,319.9 329.6,497.9 177.3,355 271.6,760.5 197.5,1134.2 -34.7,186.7 -114.6,352.5 -238.5,468.2 -124,116.4 -296.3,180.8 -484.1,204.6 -188.1,23.2 -388.9,13.7 -589.1,-17.3 -200.3,-30.7 -402.4,-77.7 -601.1,-136 -398.6,-114.7 -786.8,-275.5 -1165.6,-458.4 -189.5,-91.5 -376.1,-190.3 -560.8,-293.2 -91.7,-52.4 -184.2,-104 -275,-158.6 -90.2,-54.4 -181.4,-111 -268.2,-167 l -3,-1.9 c -40.2,-25.9 -93.7,-14.3 -119.6,25.9 -23.5,36.5 -16,84.2 15.8,111.9"
         style="fill:#363d56;fill-opacity:1;fill-rule:nonzero;stroke:none"
         id="path320" />
      <path
         d="m 26828.8,30512.8 c 330.8,289.4 689.1,534.8 1068.9,752.2 190.1,107.7 385.1,207.9 586.2,296.4 200.2,90.3 406.9,168 618,234.7 211.7,65.1 427.1,120.6 650.9,152.8 223,33 454.9,47.4 692.1,13.3 118.3,-17.2 238,-47.3 353.7,-96.5 115.7,-48.5 225.9,-119.6 320.5,-207.7 93.4,-89.4 170.7,-195.6 224.7,-308.8 55.8,-112.8 90.5,-231.1 114,-348.2 12,-58.8 19.8,-117.2 26,-175.8 l 6.3,-89.5 1.8,-89 c -0.5,-118.5 -12.8,-235.3 -33.6,-349.8 -42.4,-228.6 -115.7,-448.7 -216.3,-654.8 -99.6,-206.6 -226.1,-399.5 -374.3,-574.4 -147.9,-174.8 -317.5,-332.9 -507.9,-462.3 -94.3,-65.8 -193.4,-124.8 -296.2,-176.7 -102.3,-52.6 -208.5,-98.1 -317.5,-134.8 -216.6,-72.3 -438.4,-119.9 -665.2,-138.7 -113.1,-9.6 -226.8,-11.8 -340.1,-5.7 -113.3,5.7 -226.1,18.4 -337.1,40.8 -111.2,21.3 -220.5,51.6 -326.6,90.6 -53.1,19.4 -105.5,40.8 -157,64.6 -52.5,24.2 -99.6,49.7 -153.6,84 -40.2,25.7 -52.1,79 -26.5,119.3 23.1,36.3 68.7,49.5 106.9,33 l 6.2,-2.6 c 40.1,-17.2 91.7,-34.2 138.9,-48.9 48.4,-15 97.7,-27.9 147.3,-38.9 99.4,-21.8 200.3,-36.1 301.2,-45.7 202.2,-18.3 405.4,-9.8 605.1,19 198.9,31.2 397.4,81.2 584.4,153.2 92.9,35 183.9,75.1 271.1,122.7 87.6,46.4 172.1,99.1 252.3,157.7 80.8,57.8 157.3,121.5 230.2,189.2 73.1,67.4 143.3,138.4 207.3,215 129.3,151.9 239.9,319.9 329.6,497.9 177.3,355 271.6,760.5 197.5,1134.2 -34.7,186.7 -114.6,352.5 -238.5,468.2 -124,116.4 -296.3,180.8 -484.1,204.6 -188.1,23.2 -388.9,13.7 -589.1,-17.3 -200.3,-30.7 -402.4,-77.7 -601.1,-136 -398.6,-114.7 -786.8,-275.5 -1165.6,-458.4 -189.5,-91.5 -376.1,-190.3 -560.8,-293.2 -91.7,-52.4 -184.2,-104 -275,-158.6 -90.2,-54.4 -181.4,-111 -268.2,-167 l -3,-1.9 c -40.2,-25.9 -93.7,-14.3 -119.6,25.9 -23.5,36.5 -16,84.2 15.8,111.9"
         style="fill:#000072;fill-opacity:1;fill-rule:nonzero;stroke:none"
         id="path322" />
      <path
         d="m 28052.4,29111.5 c -203,159.6 -182.7,474.9 -36.2,746.5 410.1,760 2142.1,1359.9 2599.3,1137.2 457.3,-222.6 88.5,-1069.7 -172.8,-1394.6 -410,-509.8 -1721.2,-1015.2 -2390.3,-489.1"
         style="fill:#ffffff;fill-opacity:1;fill-rule:nonzero;stroke:none"
         id="path324" />
      <path
         d="m 30798.5,30335.1 c -361.1,636.4 -1722.8,-136.2 -2077.5,-793.1 -120.5,-224.1 -155.7,-477.5 -50.5,-648.9 -231,15.7 -445.7,82.8 -618.1,218.3 -203.2,159.9 -182.6,475 -36,746.7 410,760 2141.9,1359.6 2598.9,1137.2 229,-111.7 251.2,-379.6 183.2,-660.2"
         style="fill:#dfe6f4;fill-opacity:1;fill-rule:nonzero;stroke:none"
         id="path326" />
      <path
         d="m 30346.5,30914.4 c -580.7,0 -1872.5,-481 -2216.2,-1117.9 -109.6,-203.2 -151.4,-462.3 2.2,-583.1 614.4,-483 1842,11.9 2209.2,468.4 184.8,229.8 415.7,725.3 349.7,1020.1 -19.2,85.9 -61.4,142.1 -132.6,176.8 -49.7,24.1 -122.5,35.7 -212.3,35.7 z m -1569.7,-2153.1 c -297.2,0 -579.9,71.7 -804.5,248.3 -235.7,185.3 -263.9,551 -70.1,910 454.8,843 2255.2,1443 2770.1,1192.2 141.8,-69.1 235.9,-191.2 272.1,-353.3 88.5,-395.4 -186.8,-973.2 -400.7,-1239.2 -291.7,-362.6 -1069.2,-758 -1766.9,-758"
         style="fill:#000072;fill-opacity:1;fill-rule:nonzero;stroke:none"
         id="path328" />
      <path
         d="m 18323.5,26464.2 c -15.4,48.5 399,531.4 560.7,277.9 251,-393.7 -545.2,-326.3 -560.7,-277.9"
         style="fill:#000072;fill-opacity:1;fill-rule:nonzero;stroke:none"
         id="path330" />
      <path
         d="m 17990.6,26888.7 c 50.1,61.7 102.3,114.7 161.1,164.3 57.6,50.6 120.9,95 188.2,135.3 l 51.4,29 54,25.6 c 35.5,18.1 74.7,30.8 113,44.6 39.4,11.5 80.1,21.2 121.5,28.8 42.6,3.7 84.2,13.4 128.5,9.5 l 65.6,-3.1 c 21.8,-2.7 43.7,-7.9 65.5,-12.1 44.3,-6.5 85.6,-23.7 127.2,-40.2 l 31.1,-12.6 31.8,-18.9 31.4,-19.6 c 9.7,-7.7 19.2,-15.6 28.5,-23.8 l 27.6,-24.7 24,-27.7 c 16.5,-18.2 29.4,-38.3 41.6,-58.6 48.4,-81.5 70.4,-169 74.9,-251.9 4.7,-83.9 -4.5,-161.8 -31.1,-242.2 -11.4,-34.5 -48.6,-53.2 -83.1,-41.8 -23.3,7.7 -39.4,27.2 -43.9,49.6 l -1.6,8.4 c -12.6,63.5 -28,131.3 -47,190 -20.1,59.2 -45.5,111.6 -76.4,151.1 -32.2,39.9 -63.1,65.5 -112.1,86 -25.6,10.2 -50.5,23 -78.3,26.6 -13.6,2.8 -26.9,7 -40.8,9.1 l -42.6,2.6 c -114.3,9.2 -240.4,-25.7 -362.1,-77 -122.4,-50 -243.9,-123.3 -357.1,-198.7 l -4.2,-2.8 c -29.9,-20 -70.4,-11.9 -90.3,18 -16.2,24.4 -13.8,55.7 3.7,77.2"
         style="fill:#000072;fill-opacity:1;fill-rule:nonzero;stroke:none"
         id="path332" />
      <path
         d="m 15632.9,28553.5 c 0,0 -204.4,702 -845.3,583.7 -410.5,-75.8 -675.4,-523.2 -421.6,-987.9"
         style="fill:#c2c6d2;fill-opacity:1;fill-rule:nonzero;stroke:none"
         id="path334" />
      <path
         d="m 15570.7,28535.4 c -84.3,162.8 -202.6,317.8 -342.9,404.5 -70.4,43.9 -146.4,69.9 -226,78.5 -39.8,4.1 -80.4,5.8 -121.9,0.9 -41.6,-4 -83.5,-11.2 -121.2,-21.9 -77.1,-22 -148.4,-61.2 -209.1,-113.4 -60.4,-52.6 -108,-119.7 -140.1,-194.7 -64.5,-151.2 -54.1,-334.2 13.4,-508.9 l 0.3,-0.8 c 13,-33.6 -3.7,-71.4 -37.4,-84.4 -28.4,-11 -59.7,-0.7 -76.6,23 -62.4,87.4 -109.6,190 -131.4,301.7 -21.6,111.3 -18.4,231.7 17.1,344.7 67,228.2 261.1,415.3 491.3,481.1 58.1,17.5 115.3,26.3 173,30.3 57.9,5.2 117.7,2.2 176.8,-5.6 118.1,-18.3 233.5,-66.7 326,-138.5 46.3,-35.8 87.9,-75.9 124.9,-118.7 36.2,-43.6 67.8,-89.5 95.5,-136.9 53.7,-96.8 92.9,-194.2 112.8,-304.7 6.3,-35.4 -17.2,-69.2 -52.5,-75.5 -28.8,-5.2 -56.5,9.4 -69.3,34 l -2.7,5.3"
         style="fill:#000072;fill-opacity:1;fill-rule:nonzero;stroke:none"
         id="path336" />
      <path
         d="m 17354.4,24324.9 c 105.5,-139.5 218.4,-259.4 347,-347.8 128.3,-88.6 270,-144.9 422.9,-171.3 153.9,-27.1 305.8,-19.5 450.6,25.8 144.7,46.8 279.1,137.3 407.1,254.7 l 1.5,1.5 c 35.7,32.8 91.3,30.4 124,-5.3 25.1,-27.3 29.5,-66.4 14.3,-97.8 -86.4,-177.1 -235.5,-337.1 -428.7,-432.4 -192.4,-97 -418.7,-120.8 -624.2,-86.8 -207.1,31.4 -412.5,123.8 -566.3,268.3 -154.5,143.1 -260.9,327.2 -305.7,519.9 -11,47.4 18.4,94.7 65.8,105.8 35,8.1 69.9,-5.8 90.2,-32.6 l 1.5,-2"
         style="fill:#000072;fill-opacity:1;fill-rule:nonzero;stroke:none"
         id="path338" />
      <path
         d="m 14991.9,28086.2 c 47.5,18.1 165.5,643.5 -133.4,611.3 -464.2,-50 85.9,-629.5 133.4,-611.3"
         style="fill:#000072;fill-opacity:1;fill-rule:nonzero;stroke:none"
         id="path340" />
      <path
         d="m 15272.8,28325.6 c -242.7,-42 -483.4,-223.1 -551.5,-478.1 -84.8,-317.6 125.4,-521.2 125.4,-521.2"
         style="fill:#c2c6d2;fill-opacity:1;fill-rule:nonzero;stroke:none"
         id="path342" />
      <path
         d="m 15302.3,28155.3 c -83.1,-1.6 -172.5,-25.2 -253.7,-67.5 -80.5,-43.3 -153.7,-104.7 -205.2,-183.2 -25.9,-39.2 -45.1,-82.5 -59.8,-129.4 -13,-46.6 -20.1,-95.4 -19.5,-145.2 1,-98.9 36.4,-204.1 97.7,-288.2 l 1.6,-2.2 c 7,-9.6 4.9,-23 -4.8,-30 -8.3,-6.1 -19.5,-5.4 -26.9,1.2 -88.9,78.3 -152.9,182.6 -182.2,303 -14.4,59.9 -19.5,122.7 -16.1,185.6 5.1,61.9 16.4,125.7 38.3,186.7 43.4,122.2 122,230.9 219.6,318.6 98.7,86.5 216.9,153.8 352,191.2 l 8.9,2.5 c 93,25.8 189.3,-28.8 215,-121.7 25.8,-93.1 -28.7,-189.3 -121.7,-215.1 -14.1,-3.9 -29.2,-5.9 -43.2,-6.3"
         style="fill:#000072;fill-opacity:1;fill-rule:nonzero;stroke:none"
         id="path344" />
      <path
         d="m 17611.5,28558.6 c 565.9,-37.6 756.5,-254.9 812.6,-467.4 47.2,-179.1 -14.4,-407.6 -14.4,-407.6"
         style="fill:#c2c6d2;fill-opacity:1;fill-rule:nonzero;stroke:none"
         id="path346" />
      <path
         d="m 17622.9,28731.1 c 125.7,-19.6 252.1,-47.5 376.3,-93.5 123.1,-46.5 247.6,-112.8 346,-216 98.3,-102.4 162.2,-240.1 163.4,-376.3 -0.1,-134.4 -33.3,-253 -78,-367.3 -4.4,-11.2 -17,-16.7 -28.2,-12.3 -9.1,3.6 -14.5,12.7 -13.7,22 l 0.1,1.6 c 9.6,114.6 4.5,234.8 -27.2,334.8 -17.2,48 -36.1,94.5 -63.6,134.2 -27.1,39.9 -60.9,73.3 -99.6,101.1 -77.2,55.7 -174.5,88.4 -277,106.9 -103.2,18.1 -211.8,22.6 -321.4,19.8 -95.8,-2.4 -175.5,73.4 -177.9,169.2 -2.4,95.8 73.3,175.5 169.1,177.9 10.3,0.3 20.4,-0.4 30.2,-1.8 l 1.5,-0.3"
         style="fill:#000072;fill-opacity:1;fill-rule:nonzero;stroke:none"
         id="path348" />
      <path
         d="m 15186,28092.8 c 8.6,-208.7 397.1,-753.2 1291.9,-781.7 932.2,-29.6 1317.8,442.8 1365.8,794.5 40.1,293.3 -175.9,933.2 -208.9,1412.4 -51.6,750 -0.1,1563.7 -366.6,1586.2 -588.7,36.3 -2134.6,-1738.1 -2082.2,-3011.4"
         style="fill:#ffffff;fill-opacity:1;fill-rule:nonzero;stroke:none"
         id="path350" />
      <path
         d="m 17843.5,28105.6 c -47.6,-351.7 -433.4,-824 -1365.8,-794.4 -894.6,28.2 -1282.9,572.7 -1291.7,781.8 -9.8,233.6 34.8,484.4 117.1,737.5 366.1,1126.2 1484.7,2303.6 1964.9,2273.8 366.7,-22.6 315.2,-836.3 367.1,-1586.2 13.8,-203 60.3,-434.7 106.7,-657.1 62.8,-302.3 125.2,-586.5 101.7,-755.4"
         style="fill:#ffffff;fill-opacity:1;fill-rule:nonzero;stroke:none"
         id="path352" />
      <path
         d="m 17843.5,28105.6 c -47.6,-351.7 -433.4,-824 -1365.8,-794.4 -894.6,28.2 -1282.9,572.7 -1291.7,781.8 -9.8,233.6 34.8,484.4 117.1,737.5 61.1,-262 283.1,-817.4 1070,-891.1 1173.7,-109.5 1344.1,700.6 1368.7,921.6 62.8,-302.3 125.2,-586.5 101.7,-755.4"
         style="fill:#dfe6f4;fill-opacity:1;fill-rule:nonzero;stroke:none"
         id="path354" />
      <path
         d="m 15358.7,28100 c 4.2,-102.6 310.7,-590.2 1124.7,-616.1 867,-28.2 1156.9,409.9 1189.1,645.1 18.1,132.2 -37.7,399.4 -91.7,657.7 -50.5,242.2 -102.8,492.7 -118.4,719.4 -10,144.8 -16.2,291.4 -22.1,433.1 -15.5,367.9 -41.4,983.8 -182.8,992.5 -111.7,5.8 -371.3,-128.6 -696.4,-447.2 -621.2,-608.7 -1233.7,-1623.2 -1202.4,-2384.6 z m 1204.8,-963.1 c -29.9,0 -60.2,0.5 -91.1,1.5 -992.6,31.5 -1446.6,642.6 -1459.1,947.3 v 0.1 c -37.1,902.2 650.9,2003.9 1305.9,2645.7 264.7,259.4 646.3,564.5 959.6,545.2 452.4,-27.8 477.7,-628 506.9,-1323 5.9,-139.4 11.9,-283.7 21.6,-423.9 13.9,-203 63.8,-441.7 112,-672.4 65.4,-313.3 121.9,-583.9 95.7,-775.3 -48.8,-356.9 -410.6,-945.2 -1451.5,-945.2"
         style="fill:#000072;fill-opacity:1;fill-rule:nonzero;stroke:none"
         id="path356" />
      <path
         d="m 13819.8,31640.7 c 188.1,307.6 280.8,676.9 241.1,1063.3 -96.3,937.8 -934.5,1619.9 -1872.3,1523.6 -937.8,-96.3 -1619.9,-934.5 -1523.6,-1872.3 96.2,-937.7 934.5,-1619.9 1872.3,-1523.6 260.8,26.8 501.8,111.1 711.8,238.9 l 789.9,-177.2 -219.2,747.3"
         style="fill:#ffffff;fill-opacity:1;fill-rule:nonzero;stroke:none"
         id="path358" />
      <path
         d="m 10865.2,32957.4 c 57.2,200.2 154.9,388.5 290.3,554.9 262.4,322.5 634.8,523.5 1048.4,565.9 54.2,5.6 108.2,8.4 162,8.4 356.4,0 699.4,-121.4 979.6,-349.5 166.3,-135.3 300.3,-299.8 396.9,-484.2 -315.2,403.6 -805.6,657.2 -1343.9,657.2 -58.3,0 -117.1,-3 -176.4,-9 -606.3,-62.3 -1105.6,-434.7 -1356.9,-943.7"
         style="fill:#ffffff;fill-opacity:1;fill-rule:nonzero;stroke:none"
         id="path360" />
      <path
         d="m 12365.9,34086.6 c -53.8,0 -107.8,-2.8 -162,-8.4 -413.6,-42.4 -786,-243.4 -1048.4,-565.9 -262.5,-322.5 -383.6,-728 -341.2,-1141.6 42.5,-413.7 243.5,-786.1 566,-1048.5 322.6,-262.5 728.1,-383.7 1141.7,-341.1 232.3,23.8 450.7,97.1 649.1,217.7 33.2,20.2 72.9,26.7 110.9,18.3 l 541.2,-121.4 -147.4,502.7 c -11.9,40.7 -6.2,84.4 15.9,120.6 178.9,292.7 254.9,628 219.8,969.6 -42.4,413.7 -243.4,786.1 -566,1048.5 -280.2,228.1 -623.2,349.5 -979.6,349.5 m -6.4,-3414.2 c -425.3,0 -834.3,144.8 -1168.7,416.9 -384.7,313.1 -624.5,757.2 -675.2,1250.7 -50.7,493.4 93.9,977.1 407,1361.8 313,384.7 757.2,624.5 1250.7,675.2 493.3,50.8 977,-93.9 1361.8,-407 384.7,-313.1 624.5,-757.2 675.1,-1250.7 39.6,-385.1 -39.2,-763.4 -228,-1098.6 l 200.9,-685 c 14.9,-51 1.8,-106.1 -34.5,-145 -36.4,-38.7 -90.6,-55.3 -142.4,-43.8 l -732.2,164.2 c -222.5,-125.5 -464.8,-202.4 -721.4,-228.8 -64.6,-6.6 -129.1,-9.9 -193.1,-9.9"
         style="fill:#000072;fill-opacity:1;fill-rule:nonzero;stroke:none"
         id="path362" />
      <path
         d="m 12359.9,30972.7 c -356.4,0 -699.3,121.4 -979.6,349.5 -271,220.6 -456.3,518.7 -533.7,853.9 258.1,-447.6 690.6,-793.8 1231.6,-928.5 159.8,-39.7 319.8,-58.8 477.4,-58.8 412.5,0.1 807.6,130.6 1134.5,360.7 l 133.1,-453.8 -541.2,121.4 c -10.9,2.4 -21.9,3.6 -32.8,3.6 -27.4,0 -54.4,-7.5 -78.1,-21.9 -198.4,-120.6 -416.8,-193.9 -649.1,-217.7 -54.3,-5.6 -108.3,-8.4 -162.1,-8.4"
         style="fill:#b2b2d4;fill-opacity:1;fill-rule:nonzero;stroke:none"
         id="path364" />
      <path
         d="m 12360.9,30822.6 c -864.3,0 -1605.7,654.3 -1695.9,1532.7 -9.2,89.3 -11.2,177.6 -6.7,264.6 44.6,-155.6 108,-304.6 188.3,-443.8 77.4,-335.2 262.7,-633.3 533.7,-853.9 280.3,-228.1 623.2,-349.5 979.6,-349.5 53.8,0 107.8,2.8 162.1,8.4 232.3,23.8 450.7,97.1 649.1,217.7 23.7,14.4 50.7,21.9 78.1,21.9 10.9,0 21.9,-1.2 32.8,-3.6 l 541.2,-121.4 -133.1,453.8 c 48,33.7 94.4,69.6 139.3,107.6 -3.2,-5.5 -6.3,-11 -9.6,-16.4 l 219.2,-747.3 -789.9,177.2 c -210,-127.8 -451,-212.1 -711.8,-238.9 -59.3,-6.1 -118.1,-9.1 -176.4,-9.1"
         style="fill:#000072;fill-opacity:1;fill-rule:nonzero;stroke:none"
         id="path366" />
      <path
         d="m 12908.7,33009 v 0 c -147.7,147.7 -387.2,121.2 -534.9,-26.5 l -23,-23 -23,23 c -147.7,147.7 -387.2,174.2 -534.9,26.5 -147.7,-147.8 -147.7,-387.3 0,-535 l 23,-23 464.4,-464.4 c 38.9,-38.9 102.1,-38.9 141,0 l 464.5,464.4 22.9,23 c 147.8,147.7 147.8,387.2 0,535"
         style="fill:#ff0068;fill-opacity:1;fill-rule:nonzero;stroke:none"
         id="path368" />
    </g>
  </g>
</svg>
