<?xml version="1.0" encoding="UTF-8" standalone="no"?>
<!-- Created with Inkscape (http://www.inkscape.org/) -->

<svg
   version="1.1"
   id="svg2"
   width="5333.3335"
   height="5333.3335"
   viewBox="0 0 5333.3335 5333.3335"
   sodipodi:docname="shark_health.eps"
   xmlns:inkscape="http://www.inkscape.org/namespaces/inkscape"
   xmlns:sodipodi="http://sodipodi.sourceforge.net/DTD/sodipodi-0.dtd"
   xmlns="http://www.w3.org/2000/svg"
   xmlns:svg="http://www.w3.org/2000/svg">
  <defs
     id="defs6" />
  <sodipodi:namedview
     id="namedview4"
     pagecolor="#ffffff"
     bordercolor="#000000"
     borderopacity="0.25"
     inkscape:showpageshadow="2"
     inkscape:pageopacity="0.0"
     inkscape:pagecheckerboard="0"
     inkscape:deskcolor="#d1d1d1" />
  <g
     id="g8"
     inkscape:groupmode="layer"
     inkscape:label="ink_ext_XXXXXX"
     transform="matrix(1.3333333,0,0,-1.3333333,0,5333.3333)">
    <g
       id="g10"
       transform="scale(0.1)">
      <path
         d="M 0,0 H 40000 V 40000 H 0 Z"
         style="fill:#b0f8ff;fill-opacity:1;fill-rule:nonzero;stroke:none"
         id="path12" />
      <path
         d="m 26853.8,29697.9 c -1112.8,313.9 -2120.9,419.5 -2174.3,-1375.3 -228.2,-581.3 -75.4,-1180 401.1,-1793.4 -743,-1557.2 -911.5,-3131.8 -202.2,-4732.8 -329.5,-799.9 -495.9,-1573.5 -342.5,-2295.9 -825.6,-462 -1240.6,-1532.1 -938.5,-3664 L 20283.7,13942 21433.2,6498.9 c 2537.2,-41 4698,601.4 6047.6,2717 2748.7,511.3 4225.1,1644.7 3937.2,3640.7 -477.9,160.9 -919.9,32.4 -1307.9,-532.6 -840.8,82.9 -1601.8,-43.1 -2265.3,-424.8 -50,656.6 -206.9,1227 -586.5,1618.1 396.6,876.8 197.1,1239.8 -242.7,1395.6 -1125.9,-1166.6 -1831,-2461.7 -930.4,-4247.5 -802.4,-363.2 -1476.9,-8.1 -2085.3,717.8 -85.6,1569.8 354.7,2829.4 1344.4,3764.9 1891.3,764.4 2691.8,1852.2 1914,3407.7 671.9,1200 763.8,2379.5 207.9,3536.1 188.4,254.1 330.3,524.9 409.6,818.4 83.4,308.1 97.8,641.1 24.7,1005.8 -1424.6,1363.9 -1798.3,3278.2 -1046.7,5781.8"
         style="fill:#45c4ef;fill-opacity:1;fill-rule:nonzero;stroke:none"
         id="path14" />
      <path
         d="m 25460.8,10521.5 c -412,0 -789.3,194.7 -1142.7,523.6 0,0.1 0,0.3 0,0.4 353.5,-329.1 730.8,-524 1143,-523.9 199.4,0 407.1,45.6 624.1,143.8 -217.1,-98.2 -424.9,-143.9 -624.4,-143.9 m 1559.6,4389.6 c -0.1,0.1 -0.3,0.1 -0.4,0.2 0.2,-0.1 0.3,-0.1 0.4,-0.2 m -1.5,0.6 c -0.1,0 -0.2,0.1 -0.4,0.1 0.1,0 0.3,-0.1 0.4,-0.1 m -1.5,0.5 c -0.2,0.1 -0.2,0.1 -0.4,0.1 0.1,0 0.2,0 0.4,-0.1"
         style="fill:#dffcff;fill-opacity:1;fill-rule:nonzero;stroke:none"
         id="path16" />
      <path
         d="m 25786.5,9989.8 c -538.1,0 -1017.1,332.2 -1460.8,861.7 -3.6,65.2 -5.9,129.6 -7.6,193.6 353.4,-328.9 730.7,-523.6 1142.7,-523.6 199.5,0 407.3,45.7 624.4,143.9 v 0 0 0 c -285.9,566.8 -409.9,1084.2 -410.2,1563.7 -0.5,1031.2 572,1887.5 1340.6,2683.8 0.4,-0.2 0.9,-0.4 1.4,-0.6 0.2,0 0.2,0 0.4,-0.1 0.4,-0.1 0.7,-0.3 1.1,-0.4 0.2,0 0.3,-0.1 0.4,-0.1 0.4,-0.2 0.8,-0.3 1.1,-0.4 0.1,-0.1 0.3,-0.1 0.4,-0.2 266.1,-95.5 442.7,-268.2 450.7,-586.3 -40.4,21.3 -83.7,40.1 -129.8,56.4 -1125.9,-1166.5 -1831,-2461.7 -930.4,-4247.4 -217.1,-98.3 -424.8,-144 -624.4,-144"
         style="fill:#b5e7f9;fill-opacity:1;fill-rule:nonzero;stroke:none"
         id="path18" />
      <path
         d="m 27625.2,12940.4 c -13.7,15.1 -27,30.6 -41.2,45.2 3.9,8.7 7.5,17.1 11.3,25.7 10.4,-23.3 20.1,-47.1 29.9,-70.9"
         style="fill:#b5e7f9;fill-opacity:1;fill-rule:nonzero;stroke:none"
         id="path20" />
      <path
         d="m 24665.4,28285.5 c 0.1,0.1 0.1,0.2 0.2,0.3 -0.1,-0.1 -0.1,-0.2 -0.2,-0.3 m 1.3,3.3 c 0,0.2 0.1,0.3 0.1,0.5 0,-0.2 -0.1,-0.3 -0.1,-0.5 m 1.2,3.4 c 0.1,0.3 0.2,0.5 0.3,0.8 -0.1,-0.2 -0.2,-0.6 -0.3,-0.8 m 1.2,3.3 c 0.2,0.4 0.3,0.8 0.5,1.2 -0.2,-0.4 -0.3,-0.8 -0.5,-1.2 m 1.3,3.4 c 0.2,0.5 0.4,1 0.6,1.6 -0.2,-0.6 -0.4,-1.1 -0.6,-1.6 m 1.3,3.3 c 0.2,0.7 0.5,1.4 0.7,2.1 -0.2,-0.7 -0.5,-1.4 -0.7,-2.1 m 1.2,3.4 c 0.3,0.8 0.6,1.5 0.9,2.3 -0.3,-0.8 -0.6,-1.5 -0.9,-2.3 m 1.3,3.4 c 0.4,0.9 0.7,1.7 1,2.6 -0.3,-0.9 -0.7,-1.8 -1,-2.6 m 1.3,3.4 c 0.4,0.9 0.7,1.8 1.1,2.8 -0.4,-1 -0.7,-1.9 -1.1,-2.8 m 1.3,3.4 c 0.4,1 0.8,2 1.2,3 -0.4,-1 -0.8,-2 -1.2,-3 m 1.3,3.4 c 0.5,1.1 0.9,2.2 1.4,3.4 -0.5,-1.2 -0.9,-2.3 -1.4,-3.4"
         style="fill:#dffcff;fill-opacity:1;fill-rule:nonzero;stroke:none"
         id="path22" />
      <path
         d="m 25064.5,26550.8 c -453.4,592.8 -604,1171.8 -399.1,1734.7 0.1,0.1 0.1,0.2 0.2,0.3 0.3,1 0.7,2 1.1,3 0,0.2 0.1,0.3 0.1,0.5 0.4,0.9 0.8,1.9 1.1,2.9 0.1,0.2 0.2,0.6 0.3,0.8 0.3,0.8 0.6,1.7 0.9,2.5 0.2,0.4 0.3,0.8 0.5,1.2 0.2,0.7 0.5,1.4 0.8,2.2 0.2,0.5 0.4,1 0.6,1.6 0.2,0.6 0.4,1.1 0.7,1.7 0.2,0.7 0.5,1.4 0.7,2.1 0.2,0.4 0.4,0.8 0.5,1.3 0.3,0.8 0.6,1.5 0.9,2.3 0.1,0.3 0.3,0.7 0.4,1.1 0.3,0.8 0.7,1.7 1,2.6 0.1,0.2 0.2,0.5 0.3,0.8 0.4,0.9 0.7,1.8 1.1,2.8 0.1,0.2 0.2,0.4 0.2,0.6 0.4,1 0.8,2 1.2,3 0.1,0.1 0.1,0.2 0.1,0.4 0.5,1.1 0.9,2.2 1.4,3.4 v 0 c 1.8,61 4.7,119.8 8.7,176.5 l 124.4,-11.1 c 3.6,-9.3 7.2,-18.2 11.3,-26.7 l 0.2,454.8 0.1,282.3 c 192.1,513.3 557.5,681.5 1007.4,681.5 310.2,0 660.7,-80 1022.2,-182 v 0 0 c -46.5,-136.1 -88.5,-275.7 -126.2,-418.2 -199.7,41.9 -391.7,68.5 -570.3,68.5 -644.7,0 -1116,-345.6 -1152.1,-1557.3 -159,-405.2 -132.5,-818.9 59.3,-1240.1"
         style="fill:#b5e7f9;fill-opacity:1;fill-rule:nonzero;stroke:none"
         id="path24" />
      <path
         d="m 24016.7,12337.7 c -0.1,0.1 -0.2,0.2 -0.2,0.3 107.1,1115.9 533.8,2043.1 1291.4,2775.3 -757.5,-732.2 -1184.1,-1659.7 -1291.2,-2775.6 m 1291.4,2775.7 c 2.8,2.8 5.8,5.6 8.7,8.4 -2.9,-2.8 -5.9,-5.6 -8.7,-8.4 m 9.1,8.9 c 1.4,1.3 2.9,2.7 4.3,4 -1.4,-1.3 -2.9,-2.7 -4.3,-4 m 4.5,4.3 c 1.4,1.2 2.7,2.5 4,3.8 -1.3,-1.3 -2.6,-2.5 -4,-3.8 m 4.6,4.3 c 1.4,1.4 2.7,2.6 4.1,4 -1.4,-1.4 -2.7,-2.7 -4.1,-4 m 4.7,4.6 c 1.3,1.2 2.6,2.4 3.9,3.6 -1.3,-1.2 -2.6,-2.4 -3.9,-3.6 m 4.3,4 c 1.4,1.3 2.7,2.5 4,3.9 -1.3,-1.3 -2.7,-2.6 -4,-3.9 m 4.9,4.7 c 1.4,1.3 2.7,2.5 4.1,3.9 1.7,0.7 3.6,1.4 5.3,2.1 -1.8,-0.7 -3.5,-1.4 -5.3,-2.1 -1.4,-1.4 -2.7,-2.6 -4.1,-3.9 m 10.9,6.6 c 1.2,0.5 2.6,1.1 3.7,1.5 -1.2,-0.5 -2.4,-1 -3.7,-1.5 m 5.9,2.4 c 0.9,0.4 2.1,0.8 3,1.2 -1,-0.4 -2,-0.8 -3,-1.2 m 5.3,2.2 c 1.1,0.4 1.9,0.7 3,1.2 -1.1,-0.5 -1.9,-0.8 -3,-1.2 m 5.4,2.2 c 1,0.3 1.9,0.7 2.8,1.1 -0.9,-0.4 -1.8,-0.8 -2.8,-1.1 m 5.2,2.1 c 0.9,0.3 1.9,0.8 2.9,1.1 -1,-0.3 -2,-0.8 -2.9,-1.1 m 5.3,2.1 c 1,0.5 1.9,0.8 2.9,1.2 -0.9,-0.4 -2,-0.8 -2.9,-1.2 m 5.2,2.1 c 1,0.5 1.9,0.8 2.9,1.3 -0.9,-0.4 -2,-0.9 -2.9,-1.3 m 9,3.8 c 0.3,0.1 0.8,0.3 1.2,0.4 -0.5,-0.1 -0.8,-0.3 -1.2,-0.4 m 4.5,1.8 c 0.5,0.2 1.2,0.5 1.8,0.7 -0.7,-0.2 -1.2,-0.5 -1.8,-0.7 m 4.7,2 c 0.8,0.3 1.6,0.6 2.4,0.9 -0.8,-0.3 -1.6,-0.6 -2.4,-0.9 m 5.3,2.2 c 0.7,0.2 1.3,0.5 2,0.8 -0.6,-0.3 -1.4,-0.6 -2,-0.8 m 5.2,2.1 c 0.7,0.3 1.3,0.5 2,0.8 -0.7,-0.3 -1.3,-0.5 -2,-0.8 m 5.1,2.1 c 0.7,0.3 1.4,0.6 2,0.8 -0.6,-0.2 -1.4,-0.5 -2,-0.8 m 5,2.1 c 0.7,0.3 1.6,0.6 2.3,0.9 -0.7,-0.3 -1.6,-0.6 -2.3,-0.9 m 5.3,2.2 c 0.4,0.2 0.8,0.3 1.3,0.5 -0.5,-0.2 -0.9,-0.4 -1.3,-0.5 m 14.7,6.1 c 0.1,0 0,0 0.1,0.1 l -0.1,-0.1 m 4.1,1.7 c 0.3,0.2 0.7,0.3 1,0.5 -0.4,-0.2 -0.6,-0.3 -1,-0.5 m 4.7,2 c 0.5,0.2 0.9,0.4 1.4,0.6 -0.4,-0.2 -1,-0.4 -1.4,-0.6 m 5.2,2.2 c 0.3,0.1 0.7,0.3 1.1,0.5 -0.4,-0.2 -0.7,-0.3 -1.1,-0.5 m 4.8,2 c 0.5,0.2 0.9,0.4 1.4,0.6 -0.5,-0.2 -0.9,-0.4 -1.4,-0.6 m 5.2,2.2 c 0.2,0.1 0.6,0.2 0.7,0.3 -0.2,-0.1 -0.5,-0.2 -0.7,-0.3 m 24,10.2 c 0.1,0 0.2,0.1 0.4,0.1 -0.1,0 -0.3,-0.1 -0.4,-0.1 m 4.7,2 c 0.1,0 0.4,0.2 0.5,0.2 -0.2,-0.1 -0.3,-0.1 -0.5,-0.2 m 4.6,1.9 c 0.4,0.2 0.6,0.3 1,0.5 -0.4,-0.2 -0.6,-0.3 -1,-0.5 m 5.1,2.2 c 0.1,0.1 0.4,0.2 0.5,0.3 -0.2,-0.1 -0.3,-0.2 -0.5,-0.3 m 5,2.2 h 0.1 -0.1"
         style="fill:#8dc6cc;fill-opacity:1;fill-rule:nonzero;stroke:none"
         id="path26" />
      <path
         d="m 24016.5,12338 c -22.4,25.4 -44.6,51.2 -66.8,77.7 -85.6,1569.8 354.7,2829.4 1344.4,3764.8 1204.7,486.9 1966.6,1105.1 2160.2,1891.7 384.6,-1257.9 -368.1,-2178.7 -1944.6,-2855.3 h -0.1 c -1.5,-0.6 -3,-1.3 -4.5,-1.9 -0.1,-0.1 -0.4,-0.2 -0.5,-0.3 -1.3,-0.5 -2.8,-1.1 -4.1,-1.7 -0.4,-0.2 -0.6,-0.3 -1,-0.5 -1.3,-0.5 -2.8,-1.1 -4.1,-1.7 -0.1,0 -0.4,-0.2 -0.5,-0.2 -1.5,-0.7 -2.8,-1.2 -4.3,-1.9 -0.2,0 -0.3,-0.1 -0.4,-0.1 -7.8,-3.3 -15.5,-6.6 -23.3,-9.9 -0.1,-0.1 -0.5,-0.2 -0.7,-0.3 -1.2,-0.5 -2.6,-1.1 -3.8,-1.6 -0.5,-0.2 -0.9,-0.4 -1.4,-0.6 -1.2,-0.5 -2.5,-1 -3.7,-1.5 -0.4,-0.2 -0.8,-0.4 -1.1,-0.5 -1.3,-0.6 -2.5,-1.1 -3.8,-1.6 -0.5,-0.2 -0.9,-0.4 -1.4,-0.6 -1.2,-0.5 -2.5,-1 -3.7,-1.5 -0.3,-0.2 -0.7,-0.3 -1,-0.5 -1.3,-0.5 -2.7,-1.1 -4,-1.6 -0.1,-0.1 0,-0.1 -0.1,-0.1 -4.6,-1.9 -8.9,-3.7 -13.4,-5.6 -0.5,-0.2 -0.9,-0.3 -1.3,-0.5 -1,-0.4 -2,-0.9 -3,-1.3 -0.7,-0.3 -1.6,-0.6 -2.3,-0.9 -1,-0.4 -2,-0.8 -3,-1.3 -0.6,-0.2 -1.3,-0.5 -2,-0.8 -1.1,-0.5 -2,-0.8 -3.1,-1.3 -0.7,-0.3 -1.3,-0.5 -2,-0.8 -1.1,-0.5 -2.1,-0.9 -3.2,-1.3 -0.7,-0.3 -1.3,-0.6 -2,-0.8 -1,-0.5 -1.9,-0.9 -2.9,-1.3 -0.8,-0.3 -1.6,-0.6 -2.4,-0.9 -0.9,-0.4 -2,-0.9 -2.9,-1.3 -0.6,-0.2 -1.3,-0.5 -1.8,-0.7 -1.2,-0.5 -2.2,-0.9 -3.3,-1.4 -0.4,-0.1 -0.9,-0.3 -1.2,-0.4 -2,-0.9 -4,-1.7 -6.1,-2.5 -1,-0.5 -1.9,-0.8 -2.9,-1.3 -0.9,-0.3 -1.5,-0.5 -2.3,-0.9 -1,-0.4 -1.9,-0.7 -2.9,-1.2 -0.8,-0.3 -1.6,-0.6 -2.4,-1 -1,-0.3 -2,-0.8 -2.9,-1.1 -0.8,-0.4 -1.6,-0.7 -2.4,-1 -0.9,-0.4 -1.8,-0.8 -2.8,-1.1 -0.8,-0.4 -1.6,-0.7 -2.4,-1 -1.1,-0.5 -1.9,-0.8 -3,-1.2 -0.7,-0.3 -1.6,-0.7 -2.3,-1 -0.9,-0.4 -2.1,-0.8 -3,-1.2 -0.8,-0.3 -1.4,-0.6 -2.2,-0.9 -1.1,-0.4 -2.5,-1 -3.7,-1.5 -0.5,-0.2 -1,-0.4 -1.5,-0.6 -1.7,-0.7 -3.6,-1.4 -5.3,-2.1 -1.4,-1.4 -2.7,-2.6 -4.1,-3.9 -0.3,-0.3 -0.6,-0.6 -0.9,-0.8 -1.3,-1.4 -2.6,-2.6 -4,-3.9 -0.2,-0.1 -0.3,-0.2 -0.4,-0.4 -1.3,-1.2 -2.6,-2.4 -3.9,-3.6 -0.2,-0.3 -0.4,-0.4 -0.6,-0.6 -1.4,-1.4 -2.7,-2.6 -4.1,-4 -0.2,-0.1 -0.4,-0.4 -0.6,-0.5 -1.3,-1.3 -2.6,-2.6 -4,-3.8 0,-0.1 -0.1,-0.2 -0.2,-0.3 -1.4,-1.3 -2.9,-2.7 -4.3,-4 -0.1,-0.2 -0.3,-0.3 -0.4,-0.5 -2.9,-2.8 -5.9,-5.6 -8.7,-8.4 -0.1,-0.1 -0.1,0 -0.2,-0.1 -757.6,-732.2 -1184.3,-1659.4 -1291.4,-2775.3"
         style="fill:#379dbf;fill-opacity:1;fill-rule:nonzero;stroke:none"
         id="path28" />
      <path
         d="m 21657,6497.1 c -74.1,0 -149,0.6 -223.8,1.8 l -15.2,98.9 c 33.7,-0.4 67.6,-0.6 101.3,-0.6 1124.3,0 2258.7,194.9 3399.6,512.6 v 0 0 c -79.1,12.8 -156.6,26.5 -232.6,41 -0.5,0.1 -0.9,0.2 -1.4,0.3 -0.7,0.1 -1.6,0.3 -2.3,0.4 -589.8,113.2 -1087.3,278.1 -1511.4,484 1757.7,257.3 3239.9,1014.8 4259.3,2612.9 2245,417.6 3641,1250.2 3920.6,2628.7 22.2,-6.3 44.5,-13 66.9,-20.5 23.8,-164.7 35.5,-323.6 35.5,-476.7 0.1,-1702.1 -1450.8,-2694.9 -3972.7,-3164 C 26171,7162.7 24097.5,6497.1 21657,6497.1"
         style="fill:#379dd6;fill-opacity:1;fill-rule:nonzero;stroke:none"
         id="path30" />
      <path
         d="m 14253.1,29445.1 989.6,-107.7 c -20.3,-719.3 -233.8,-1339.6 -706.5,-1827.1 -7.6,-521.2 99.3,-1002.8 404.6,-1415.8 -542.7,-1142.5 -1333.1,-2019.3 -2485.7,-2507.7 -308.9,-1383.7 128.5,-2926.6 948.5,-4551.1 l -1410.7,-2494.4 c -794.3,980.1 -1236.5,2046.2 -736.9,3342.9 -535.7,1479.5 -535.3,2784.1 421.7,3776.5 -332.9,1947.8 -174.8,3666.9 836,4989.1 l 687.6,67.2 c -537.7,829.8 -12.1,956.9 1051.8,728.1"
         style="fill:#45c4ef;fill-opacity:1;fill-rule:nonzero;stroke:none"
         id="path32" />
      <path
         d="m 11990.1,16544.8 c -0.3,0.4 -0.7,0.8 -1,1.1 0.4,-0.4 0.6,-0.7 1,-1.1 m -3.1,3.8 c -0.3,0.3 -0.5,0.6 -0.8,0.9 0.3,-0.3 0.5,-0.6 0.8,-0.9 m -3.6,4.4 c -0.2,0.3 -0.5,0.6 -0.7,0.9 0.2,-0.3 0.5,-0.6 0.7,-0.9 m -2.8,3.5 c -0.3,0.4 -0.7,0.9 -1.1,1.3 0.4,-0.4 0.8,-0.9 1.1,-1.3 m -3,3.8 c -0.3,0.3 -0.6,0.7 -0.9,1.1 0.3,-0.4 0.6,-0.8 0.9,-1.1 m -3.6,4.4 c -0.3,0.3 -0.7,0.8 -1,1.2 0.4,-0.4 0.7,-0.8 1,-1.2 m -2.9,3.6 c -0.3,0.4 -0.7,0.8 -1,1.3 0.3,-0.5 0.7,-0.9 1,-1.3 m -3.6,4.5 c -0.3,0.3 -0.5,0.6 -0.8,1 0.3,-0.4 0.5,-0.7 0.8,-1 m -2.9,3.6 c -0.4,0.5 -0.7,0.9 -1.1,1.4 0.4,-0.5 0.7,-0.9 1.1,-1.4 m -3,3.7 c -0.3,0.4 -0.6,0.8 -0.9,1.2 0.3,-0.4 0.6,-0.8 0.9,-1.2 m -3.6,4.6 c -0.3,0.3 -0.6,0.7 -0.8,1 0.3,-0.3 0.5,-0.7 0.8,-1 m -2.9,3.6 c -0.3,0.4 -0.6,0.7 -0.9,1.1 0.3,-0.4 0.6,-0.7 0.9,-1.1 m -6.6,8.3 c -0.2,0.3 -0.4,0.5 -0.5,0.7 0.1,-0.2 0.3,-0.5 0.5,-0.7 m -3.2,4 c -0.1,0.1 -0.2,0.3 -0.3,0.4 0.1,-0.1 0.2,-0.3 0.3,-0.4 m -6.4,8.1 c -0.1,0.1 -0.1,0.2 -0.2,0.2 0.1,0 0.2,-0.1 0.2,-0.2 m 1371.3,2615.1 -0.1,0.2 c 0.1,-0.1 0.1,-0.1 0.1,-0.2 v 0 m -1.5,3.2 c -0.7,1.2 -1.3,2.5 -1.9,3.8 0.6,-1.3 1.2,-2.5 1.9,-3.8 m -3.1,6.3 c -0.5,0.9 -1,2 -1.4,2.9 0.4,-1 0.9,-1.9 1.4,-2.9 m -2.6,5.4 c -0.5,0.9 -1.1,2.2 -1.6,3.1 0.5,-1 1.1,-2.1 1.6,-3.1 m -2.6,5.3 c -0.8,1.5 -1.6,3.2 -2.3,4.7 0.8,-1.6 1.5,-3.1 2.3,-4.7 m -2.6,5.3 c -0.9,1.8 -1.8,3.6 -2.6,5.4 0.8,-1.8 1.7,-3.6 2.6,-5.4 m -3.4,7 c -0.6,1.3 -1.3,2.6 -1.9,3.9 0.6,-1.3 1.3,-2.6 1.9,-3.9 m -2.8,5.8 c -0.7,1.3 -1.2,2.5 -1.8,3.8 0.6,-1.3 1.2,-2.5 1.8,-3.8 m -2.6,5.4 c -1.8,3.7 -3.7,7.5 -5.5,11.2 1.8,-3.7 3.7,-7.5 5.5,-11.2 m -5.6,11.5 c -0.8,1.8 -1.7,3.6 -2.6,5.4 0.9,-1.8 1.7,-3.6 2.6,-5.4 m -2.9,6.1 c -0.9,1.8 -1.7,3.5 -2.6,5.4 0.8,-1.8 1.7,-3.7 2.6,-5.4 m -2.8,5.6 c -202.3,419.7 -377.5,833.7 -519.2,1240.5 v 0 c 141.7,-406.8 316.9,-820.7 519.2,-1240.5"
         style="fill:#8dc6e3;fill-opacity:1;fill-rule:nonzero;stroke:none"
         id="path34" />
      <path
         d="m 11992.9,16541.3 v 0 c -1,1.2 -1.9,2.3 -2.8,3.5 -0.4,0.4 -0.6,0.7 -1,1.1 -0.7,0.9 -1.4,1.8 -2.1,2.7 -0.3,0.3 -0.5,0.6 -0.8,0.9 -0.9,1.2 -1.8,2.3 -2.8,3.5 -0.2,0.3 -0.5,0.6 -0.7,0.9 -0.7,0.9 -1.4,1.7 -2.1,2.6 -0.3,0.4 -0.7,0.9 -1.1,1.3 -0.6,0.8 -1.3,1.6 -1.9,2.5 -0.3,0.3 -0.6,0.7 -0.9,1.1 -0.9,1.1 -1.8,2.2 -2.7,3.3 -0.3,0.4 -0.6,0.8 -1,1.2 -0.6,0.8 -1.2,1.6 -1.9,2.4 -0.3,0.4 -0.7,0.8 -1,1.3 -0.9,1 -1.7,2.1 -2.6,3.2 -0.3,0.3 -0.5,0.6 -0.8,1 -0.7,0.8 -1.4,1.7 -2.1,2.6 -0.4,0.5 -0.7,0.9 -1.1,1.4 -0.6,0.7 -1.2,1.5 -1.9,2.3 -0.3,0.4 -0.6,0.8 -0.9,1.2 -0.9,1.1 -1.8,2.3 -2.7,3.4 -0.3,0.3 -0.5,0.7 -0.8,1 -0.7,0.9 -1.4,1.8 -2.1,2.6 -0.3,0.4 -0.6,0.7 -0.9,1.1 -1.9,2.4 -3.8,4.8 -5.7,7.2 -0.2,0.2 -0.4,0.5 -0.5,0.7 -0.9,1.1 -1.8,2.2 -2.7,3.3 -0.1,0.1 -0.2,0.3 -0.3,0.4 -2,2.6 -4.1,5.1 -6.1,7.7 0,0.1 -0.1,0.2 -0.2,0.2 -518.9,656.7 -875,1353.2 -893.2,2132.4 117.4,-184.3 249.6,-365 393.7,-542.8 l 1319.3,2332.7 c 141.7,-406.8 316.9,-820.8 519.2,-1240.5 0.1,-0.1 0.1,-0.2 0.2,-0.2 0.9,-1.9 1.7,-3.6 2.6,-5.4 0.1,-0.3 0.2,-0.5 0.3,-0.7 0.9,-1.8 1.8,-3.6 2.6,-5.4 0.1,-0.1 0.1,-0.2 0.1,-0.3 1.8,-3.7 3.7,-7.5 5.5,-11.2 0.2,-0.6 0.5,-1.1 0.8,-1.6 0.6,-1.3 1.1,-2.5 1.8,-3.8 0.3,-0.6 0.6,-1.2 0.9,-1.9 0.6,-1.3 1.3,-2.6 1.9,-3.9 0.3,-0.6 0.5,-1.1 0.8,-1.6 0.8,-1.8 1.7,-3.6 2.6,-5.4 0.1,-0.2 0.2,-0.4 0.3,-0.6 0.7,-1.5 1.5,-3.2 2.3,-4.7 0.3,-0.7 0.7,-1.4 1,-2.2 0.5,-0.9 1.1,-2.2 1.6,-3.1 0.4,-0.9 0.8,-1.7 1.2,-2.5 0.4,-0.9 0.9,-2 1.4,-2.9 0.4,-0.8 0.8,-1.7 1.2,-2.5 0.6,-1.3 1.2,-2.6 1.9,-3.8 0.5,-1 1,-2 1.4,-3 l 0.1,-0.2 c -654.7,-852.5 -1215.5,-1711.1 -1272.2,-2602.6 l -45.1,-79.9"
         style="fill:#379dd6;fill-opacity:1;fill-rule:nonzero;stroke:none"
         id="path36" />
      <path
         d="m 23637.8,15906.3 c -374.7,-866.2 -967.2,-1491.1 -1902.1,-1736.5 -677.8,-178 -1029.3,-935.8 -735.4,-1572 68.7,-148.8 153.2,-300.1 250.9,-453.5 140.1,-735.4 190.7,-1439.7 110.1,-2098.6 -56,-458.2 71.6,-922.1 364.5,-1278.9 646.1,-786.8 1602.7,-1399.5 3193.1,-1657 -3031.2,-843.9 -6016.9,-821.5 -8886,1420.8 -765.3,183.5 -1396.6,537.4 -1456.2,1618.1 -922.8,479.9 -1304.9,1219.5 -1105.7,2238.3 -698.7,695.5 -1034.7,1532.8 -882.1,2561.2 -1161.4,1540.1 -305.5,2948.6 772.9,4342.5 -726.6,1506.7 -1123.6,2928.2 -979.5,4209.7 556.6,30.5 1135.5,-87.3 1756.7,-486.4 2100.5,821.1 4142.2,1338.9 5958,690.5 448.2,-421.6 915.2,-765.5 1508.9,-591.1 1263,-23.7 2386.7,-349.1 2975.8,-1830.9 -86,-579.3 -109.2,-1152.2 -5.4,-1712.2 -1028.6,-671.6 -1206.8,-1996.3 -938.5,-3664"
         style="fill:#ffffff;fill-opacity:1;fill-rule:nonzero;stroke:none"
         id="path38" />
      <path
         d="m 20896.5,13101.3 c -0.1,0.5 -0.2,0.9 -0.3,1.4 13.1,473.5 322.9,915.6 807.3,1058.1 -484.9,-142.6 -794.5,-585.5 -807,-1059.5 m 807.1,1059.5 c 1.8,0.6 3.7,1.1 5.6,1.7 -1.9,-0.6 -3.7,-1.1 -5.6,-1.7 m 5.8,1.7 c 1.9,0.6 3.8,1.1 5.6,1.6 -1.8,-0.5 -3.7,-1 -5.6,-1.6 m 5.9,1.7 c 1.8,0.5 3.7,1 5.5,1.5 -1.9,-0.5 -3.6,-1 -5.5,-1.5 m 5.9,1.7 c 1.8,0.4 3.6,0.9 5.4,1.4 -1.8,-0.5 -3.6,-0.9 -5.4,-1.4 m 6,1.6 c 0.8,0.2 1.8,0.5 2.6,0.7 -0.9,-0.2 -1.7,-0.5 -2.6,-0.7 m 2.7,0.7 c 0.8,0.2 1.7,0.5 2.5,0.7 -0.8,-0.2 -1.7,-0.5 -2.5,-0.7 m 3.2,0.9 c 0.9,0.2 1.8,0.4 2.6,0.7 358.8,94.2 667.2,244.3 932.2,442.5 -265,-198.2 -573.4,-348.3 -932.2,-442.5 -0.9,-0.3 -1.7,-0.5 -2.6,-0.7 m 1904.7,1737.2 c -11.3,70.5 -21.9,140.9 -31.7,210.2 9.8,-69.4 20.4,-139.6 31.7,-210.2 0,-0.1 0.1,0.1 0,0"
         style="fill:#379dd6;fill-opacity:1;fill-rule:nonzero;stroke:none"
         id="path40" />
      <path
         d="m 24509.8,20512 c 5.6,186.3 20.9,373.5 43.7,561.5 v -0.1 c -22.8,-187.9 -38.1,-375.1 -43.7,-561.4 v 0"
         style="fill:#8dc6e3;fill-opacity:1;fill-rule:nonzero;stroke:none"
         id="path42" />
      <path
         d="m 24536.7,19833.7 c -26.1,224.4 -33.7,450.6 -26.9,678.3 v 0 c -6.8,-227.7 0.8,-453.9 26.9,-678.3"
         style="fill:#379dd6;fill-opacity:1;fill-rule:nonzero;stroke:none"
         id="path44" />
      <path
         d="m 20896.2,13102.7 c -3.9,21.3 -7.6,42.5 -11.7,63.9 -97.7,153.4 -182.1,304.7 -250.8,453.5 -293.9,636.2 57.5,1394 735.4,1572 934.8,245.4 1527.3,870.3 1902.1,1736.5 -268.3,1667.7 -90.1,2992.4 938.5,3664 -76.5,412.3 -83.9,831.5 -48.2,1255.2 144.5,-220.7 276.5,-477.2 392,-774.3 -22.8,-188 -38.1,-375.2 -43.7,-561.5 -6.8,-227.7 0.8,-453.9 26.9,-678.3 10.3,-88.1 23.4,-175.9 39.6,-263.4 v 0 c -985,-643.1 -1190.2,-1885.1 -970.2,-3453.8 9.8,-69.3 20.4,-139.7 31.7,-210.2 -230.9,-533.7 -544.5,-975.9 -969.9,-1294 -265,-198.2 -573.4,-348.3 -932.2,-442.5 -0.8,-0.3 -1.7,-0.5 -2.6,-0.7 -0.2,-0.1 -0.4,-0.1 -0.7,-0.2 -0.8,-0.2 -1.7,-0.5 -2.5,-0.7 h -0.1 c -0.8,-0.2 -1.8,-0.5 -2.6,-0.7 -0.2,-0.1 -0.4,-0.1 -0.6,-0.2 -1.8,-0.5 -3.6,-1 -5.4,-1.4 -0.1,-0.1 -0.3,-0.1 -0.4,-0.2 -1.8,-0.5 -3.7,-1 -5.5,-1.5 -0.1,0 -0.2,0 -0.3,-0.1 -1.8,-0.5 -3.7,-1 -5.6,-1.6 0,0 -0.1,0 -0.2,0 -1.9,-0.6 -3.8,-1.1 -5.6,-1.7 h -0.1 c -484.4,-142.5 -794.2,-584.6 -807.3,-1058.1"
         style="fill:#cccce3;fill-opacity:1;fill-rule:nonzero;stroke:none"
         id="path46" />
      <path
         d="m 21418,6597.8 c -69.1,0.7 -138,2.2 -207,4.4 69,-2.2 137.9,-3.7 207,-4.4 v 0"
         style="fill:#8dc6e3;fill-opacity:1;fill-rule:nonzero;stroke:none"
         id="path48" />
      <path
         d="m 21519.3,6597.2 c -33.7,0 -67.6,0.2 -101.3,0.6 v 0 c 33.7,-0.4 67.6,-0.6 101.3,-0.6 1124.1,0 2258.8,195 3399.6,512.6 v 0 C 23778,6792.1 22643.6,6597.2 21519.3,6597.2 m 3167,553.6 c -0.5,0.1 -0.9,0.2 -1.4,0.3 0.5,-0.1 0.9,-0.2 1.4,-0.3"
         style="fill:#2c7ec2;fill-opacity:1;fill-rule:nonzero;stroke:none"
         id="path50" />
      <path
         d="m 23170.6,7635.5 c -87.5,42.5 -172,86.8 -253.4,132.7 0.1,0 0.4,0 0.5,0.1 81.5,-46 165.9,-90.2 253.5,-132.8 -0.2,0 -0.4,0 -0.6,0"
         style="fill:#379dd6;fill-opacity:1;fill-rule:nonzero;stroke:none"
         id="path52" />
      <path
         d="m 24682.6,7151.5 c -590,113.2 -1087.7,278 -1512,484 0.2,0 0.4,0 0.6,0 424.1,-205.9 921.6,-370.8 1511.4,-484"
         style="fill:#2c7ec2;fill-opacity:1;fill-rule:nonzero;stroke:none"
         id="path54" />
      <path
         d="m 16491.8,8191.4 c -153.3,107 -306.2,219.9 -458.9,339.2 -27.6,6.6 -55,13.5 -82.2,20.6 27.2,-7.1 54.6,-14 82.2,-20.6 152.7,-119.3 305.6,-232.2 458.9,-339.2 m -542,360 c -0.3,0.1 -0.8,0.2 -1.1,0.3 0.4,-0.1 0.7,-0.2 1.1,-0.3"
         style="fill:#8dc6e3;fill-opacity:1;fill-rule:nonzero;stroke:none"
         id="path56" />
      <path
         d="m 21519.3,6597.2 c -33.7,0 -67.6,0.2 -101.3,0.6 v 0 c -69.1,0.7 -138,2.2 -207,4.4 -1598.1,51.6 -3175,512 -4719.2,1589.2 -153.3,107 -306.2,219.9 -458.9,339.2 -27.6,6.6 -55,13.5 -82.2,20.6 -0.3,0 -0.6,0.1 -0.9,0.2 -0.4,0.1 -0.7,0.2 -1.1,0.3 -721.3,188.1 -1305.3,550.9 -1370.3,1573.5 267.8,-311.3 656.6,-468.9 1087.9,-572.3 1789.1,-1398.3 3623.5,-1933.2 5486.1,-1933.2 585.6,0 1174.1,52.9 1764.8,148.5 81.4,-45.9 165.9,-90.2 253.4,-132.7 424.3,-206 922,-370.8 1512,-484 0.8,-0.1 1.5,-0.3 2.3,-0.4 0.5,-0.1 0.9,-0.2 1.4,-0.3 76,-14.5 153.5,-28.2 232.6,-41 -1140.8,-317.6 -2275.5,-512.6 -3399.6,-512.6"
         style="fill:#cccce3;fill-opacity:1;fill-rule:nonzero;stroke:none"
         id="path58" />
      <path
         d="m 14545.3,10165.6 c -713.5,380.9 -1094.4,921.4 -1123.5,1631 190.5,-243.2 453.6,-451.6 788.2,-625.6 24.6,-446 146.8,-767.9 335.3,-1005.4"
         style="fill:#cccce3;fill-opacity:1;fill-rule:nonzero;stroke:none"
         id="path60" />
      <path
         d="m 31586.6,23508.8 c -306.2,-45.7 -609.6,-71.2 -910.6,-77.6 v -0.4 l -0.8,0.4 c -978.9,-20.7 -1929.5,169 -2850.6,583.3 -1387.5,789.6 -1665.4,3647.5 -970.8,5683.4 385.1,1090.2 2039.1,2485.4 2184.3,2326 0,0 1194.2,-34.8 1921.5,-55.8 57,-1.7 111.2,-3.3 161.8,-4.9 3317,141.6 4085.6,-6310.4 465.2,-8454.4"
         style="fill:#6e6e89;fill-opacity:1;fill-rule:nonzero;stroke:none"
         id="path62" />
      <path
         d="m 26855.7,29703.4 c 0.1,0.3 0.2,0.7 0.4,1 v 0 c -0.2,-0.3 -0.3,-0.7 -0.4,-1 v 0 m 1,2.9 c 0.1,0.2 0.3,0.6 0.4,0.9 h -0.1 c 0,-0.3 -0.1,-0.6 -0.2,-0.8 -0.1,-0.1 -0.1,-0.1 -0.1,-0.1 m 1.3,3.5 c 0.1,0.3 0.2,0.6 0.3,0.9 0,0 0,0 0,-0.1 -0.1,-0.2 -0.2,-0.5 -0.3,-0.8 v 0 m 1,2.7 c 0.1,0.4 0.3,0.8 0.4,1.2 v 0 c -0.1,-0.4 -0.3,-0.8 -0.4,-1.2 v 0 m 0.9,2.7 c 0.2,0.4 0.4,0.8 0.5,1.3 v 0 c -0.1,-0.4 -0.3,-0.9 -0.4,-1.3 0,0 0,0 -0.1,0 m 1.1,2.9 c 0.3,0.7 0.5,1.4 0.8,2.1 0,0 -0.1,-0.1 -0.1,-0.2 -0.1,-0.4 -0.3,-0.8 -0.5,-1.3 0,-0.2 -0.1,-0.4 -0.2,-0.6 m 1.3,3.5 c 0.2,0.5 0.4,1 0.5,1.4 v 0 c -0.1,-0.4 -0.3,-0.9 -0.5,-1.3 0,-0.1 0,-0.1 0,-0.1 m 1,2.6 c 0.2,0.6 0.4,1.1 0.6,1.7 v -0.1 c -0.2,-0.5 -0.4,-1 -0.6,-1.5 v -0.1 m 0.8,2.3 c 0.8,2.1 1.6,4.4 2.4,6.5 v -0.1 c -0.8,-2.1 -1.6,-4.2 -2.4,-6.3 v -0.1 m 2.5,6.6 c 2.3,6.1 4.7,12.4 7.1,18.5 -2.4,-6.1 -4.8,-12.3 -7.1,-18.5 v 0 m 10.5,27.3 c 0.3,1 0.7,1.7 1,2.7 -0.3,-1 -0.7,-1.7 -1,-2.7 m 6.5,16.6 c 0.4,0.7 0.6,1.3 0.9,2 -0.3,-0.7 -0.5,-1.3 -0.9,-2 m 1.3,3.1 c 0.1,0.2 0.1,0.2 0.2,0.3 -0.1,-0.1 -0.1,-0.1 -0.2,-0.3 m 4236.5,2183.1 c 34.9,1.5 69.2,2.3 103.5,2.3 -34,-0.1 -68.9,-0.8 -103.5,-2.3 m 207.9,0.2 c -0.2,0 -0.3,0 -0.5,0 0.3,0 0.2,0 0.5,0 m -3.9,0.2 h -0.2 0.2 m -10.5,0.4 c -0.4,0 -0.5,0 -0.9,0 0.3,0 0.5,0 0.9,0 m -3.8,0.1 c -0.6,0 -0.7,0 -1.3,0 0.5,0 0.9,0 1.3,0 m -4,0.1 c -0.4,0.1 -0.9,0.1 -1.3,0.1 0.3,0 1,-0.1 1.3,-0.1 m -7.6,0.3 h -0.1 0.1 m -2.7,0 c -0.4,0.1 -1.2,0.1 -1.6,0.1 0.5,0 1.1,0 1.6,-0.1 m -4.1,0.2 c -0.6,0 -1.1,0 -1.7,0 0.6,0 1.1,0 1.7,0 m -4.2,0.1 c -0.4,0 -1.2,0 -1.6,0 0.6,0 1,0 1.6,0 m -6.1,0.1 c -0.6,0 -1.2,0 -1.8,0 0.7,0 1.2,0 1.8,0 m -4,0.1 c -0.6,0 -1.4,0 -2,0 0.8,0 1.2,0 2,0 m -4.2,0.1 c -0.6,0 -1.5,0 -2.1,0 0.8,0 1.3,0 2.1,0 m -4.2,0.1 c -0.8,0 -1.9,0 -2.7,0 1,0 1.7,0 2.7,0 m -4.6,0 c -1.2,0 -2.4,0.1 -3.6,0.1 1.2,0 2.3,-0.1 3.6,-0.1 m -5.5,0.1 c -0.8,0 -1.6,0 -2.4,0 1,0 1.5,0 2.4,0 m -4.3,0.1 c -0.8,0 -1.7,0 -2.5,0 0.8,0 1.7,0 2.5,0 m -4.3,0 c -1.2,0 -2,0 -3.2,0 0.9,0 2.3,0 3.2,0 m -4.6,0 c -1.2,0 -2.5,0 -3.7,0.1 1.2,-0.1 2.4,-0.1 3.7,-0.1 m -5.5,0.1 c -1,0 -1.6,0 -2.6,0 0.8,0 1.8,0 2.6,0 m -4.3,0 c -0.8,0 -2,0 -2.8,0 1,0 1.8,0 2.8,0 m -4.4,0 c -1.2,0 -2.4,0 -3.6,0 1.2,0 2.4,0 3.6,0 m -2229.7,70.9 v 0 0 0"
         style="fill:#dffcff;fill-opacity:1;fill-rule:nonzero;stroke:none"
         id="path64" />
      <path
         d="m 33303.3,25366.4 c 247.1,677.7 363.2,1399.8 359.7,2098.3 l 57.9,-2.6 v 0 c 0.4,1 0.8,2 1.3,3.1 0.1,0.2 0.2,0.5 0.3,0.8 0.4,0.8 0.7,1.6 1,2.4 0.1,0.2 0.3,0.5 0.4,0.8 0.8,2.1 1.7,4.2 2.6,6.3 0.1,0.1 0.1,0.2 0.2,0.3 177.8,423.6 153.1,723.8 -74.2,900.7 l -64.6,2.4 c -263.6,1621.5 -1209.7,2923.9 -2672.4,2923.9 -35.3,0 -71,-0.7 -106.9,-2.3 -50.6,1.7 -104.8,3.3 -161.8,4.9 -727.3,21 -1921.5,55.8 -1921.5,55.8 -7.7,8.5 -19.6,12.5 -35.3,12.5 -158.4,0 -703.3,-413.4 -1214.6,-959 32.4,117.1 67.8,232.1 106.2,344.7 19.2,54.3 42.4,109.5 67.5,165.1 -334.1,-377.7 -636.3,-802.4 -782.5,-1191.4 2.3,6.2 4.7,12.4 7.1,18.5 1.1,2.9 2.2,5.9 3.4,8.8 0.3,1 0.7,1.7 1,2.7 1.8,4.6 3.7,9.3 5.5,13.9 0.4,0.7 0.6,1.3 0.9,2 0.1,0.3 0.3,0.8 0.4,1.1 0.1,0.2 0.1,0.2 0.2,0.3 412.1,1018.2 1843.7,2256.1 2117.7,2256 v 0 c 15.7,0 27.6,-4.1 35.3,-12.5 0,0 1194.2,-34.8 1921.5,-55.8 57,-1.7 111.2,-3.3 161.8,-4.9 v 0 c 34.6,1.5 69.5,2.2 103.5,2.3 1.1,0 2.3,0 3.4,0 0.1,0 0.4,0 0.6,0 1.2,0 2.4,0 3.6,0 0.5,0 1.1,0 1.6,0 0.8,0 2,0 2.8,0 0.6,0 1.1,0 1.7,0 1,0 1.6,0 2.6,0 0.6,0 1.1,0 1.8,0 1.2,-0.1 2.5,-0.1 3.7,-0.1 0.5,0 0.9,0 1.4,0 1.2,0 2,0 3.2,0 0.6,0 1.2,0 1.8,0 0.8,0 1.7,0 2.5,0 0.6,-0.1 1.3,-0.1 1.9,-0.1 0.8,0 1.6,0 2.4,0 0.5,0 1.4,0 1.9,0 1.2,0 2.4,-0.1 3.6,-0.1 0.6,0 1.3,0 1.9,0 0.8,0 1.9,0 2.7,0 0.6,-0.1 1.4,-0.1 2.1,-0.1 0.6,0 1.5,0 2.1,0 0.6,0 1.5,-0.1 2.2,-0.1 0.6,0 1.4,0 2,0 0.6,0 1.6,0 2.2,-0.1 0.6,0 1.2,0 1.8,0 1.5,0 3,-0.1 4.5,-0.1 0.4,0 1.2,0 1.6,0 0.8,-0.1 1.7,-0.1 2.5,-0.1 0.6,0 1.1,0 1.7,0 0.8,-0.1 1.7,-0.1 2.5,-0.1 0.4,0 1.2,0 1.6,-0.1 0.9,0 1.6,0 2.6,0 h 0.1 c 2.2,-0.1 4.1,-0.2 6.3,-0.2 0.4,0 0.9,0 1.3,-0.1 0.9,0 1.8,0 2.7,-0.1 0.6,0 0.7,0 1.3,0 1,0 1.9,-0.1 2.9,-0.1 0.4,0 0.5,0 0.9,0 3.4,-0.1 6.8,-0.3 10.3,-0.4 h 0.2 c 1.1,-0.1 2.3,-0.1 3.4,-0.2 0.2,0 0.3,0 0.5,0 2438.6,-102.1 3382,-3880.8 2020.8,-6546.2 -15.5,-17 -31.1,-34 -46.8,-50.8 m -6448.6,4334.2 c 0.1,0.3 0.2,0.7 0.3,1 -0.1,-0.4 -0.2,-0.6 -0.3,-1 m 1,2.8 c 0.1,0.3 0.2,0.7 0.4,1 -0.2,-0.3 -0.3,-0.7 -0.4,-1 m 1.1,3 c 0.1,0.2 0.2,0.5 0.2,0.8 0,-0.3 -0.1,-0.6 -0.2,-0.8 m 1.2,3.4 c 0.1,0.3 0.2,0.6 0.3,0.8 -0.1,-0.2 -0.2,-0.5 -0.3,-0.8 m 1,2.7 c 0.1,0.4 0.3,0.8 0.4,1.2 -0.1,-0.4 -0.3,-0.8 -0.4,-1.2 m 1,2.7 c 0.1,0.4 0.3,0.9 0.4,1.3 -0.1,-0.4 -0.3,-0.9 -0.4,-1.3 m 1.2,3.5 c 0.2,0.5 0.4,0.9 0.5,1.3 -0.1,-0.4 -0.3,-0.8 -0.5,-1.3 m 1.1,3 c 0.2,0.4 0.4,0.9 0.5,1.3 -0.2,-0.4 -0.3,-0.9 -0.5,-1.3 m 1,2.6 c 0.2,0.5 0.4,1 0.6,1.5 -0.2,-0.5 -0.4,-1 -0.6,-1.5 m 0.8,2.3 c 0.8,2.1 1.6,4.2 2.4,6.3 -0.8,-2.1 -1.6,-4.2 -2.4,-6.3"
         style="fill:#c5c5d0;fill-opacity:1;fill-rule:nonzero;stroke:none"
         id="path66" />
      <path
         d="m 30531.7,23429.6 c -0.2,0 -0.4,0 -0.6,0 0.2,0 0.4,0 0.6,0 v 0 m 0,0 c 47.8,0 95.6,0.5 143.5,1.6 l 0.8,-0.4 v 0.4 c 301,6.4 604.4,31.9 910.6,77.6 1.5,0.9 3.4,2 4.9,3 -1.6,-1 -3.3,-2 -4.9,-3 -306.2,-45.7 -609.6,-71.2 -910.6,-77.6 v -0.4 l -0.8,0.4 c -48,-1.1 -95.7,-1.6 -143.5,-1.6 m 1061.6,83.2 c 1.1,0.6 2.1,1.2 3.2,1.9 -1.1,-0.6 -2.2,-1.3 -3.2,-1.9 m 5.2,3.1 c 1.1,0.6 1.9,1.1 3,1.8 -1,-0.6 -2,-1.2 -3,-1.8 m 5,3 c 0.8,0.5 2.1,1.2 2.9,1.7 -0.9,-0.5 -2,-1.2 -2.9,-1.7 m 5,3 c 1.1,0.7 1.8,1.1 2.9,1.7 -1,-0.6 -1.9,-1.1 -2.9,-1.7 m 5,3 c 0.9,0.5 2,1.2 2.9,1.7 -1,-0.6 -1.9,-1.1 -2.9,-1.7 m 5,3 c 1.1,0.7 2,1.2 3.1,1.9 -1.1,-0.7 -2,-1.3 -3.1,-1.9 m 4.9,2.9 c 1.3,0.8 2.8,1.7 4.1,2.5 -1.4,-0.8 -2.7,-1.6 -4.1,-2.5 m 7.2,4.4 c 0.6,0.4 1.8,1.1 2.4,1.5 -0.8,-0.5 -1.6,-1 -2.4,-1.5 m 5,3.1 c 0.8,0.5 1.4,0.8 2.2,1.3 -0.7,-0.4 -1.5,-0.9 -2.2,-1.3 m 4.8,2.9 c 0.7,0.4 1.7,1.1 2.4,1.5 -0.8,-0.5 -1.6,-1 -2.4,-1.5 m 4.9,3 c 0.9,0.6 1.4,0.9 2.3,1.4 -0.8,-0.5 -1.5,-0.9 -2.3,-1.4 m 5,3 c 0.6,0.4 1.5,1 2.2,1.4 -0.8,-0.4 -1.5,-0.9 -2.2,-1.4 m 4.8,3 c 0.8,0.6 1.3,0.8 2.2,1.4 -0.7,-0.5 -1.5,-0.9 -2.2,-1.4 m 4.9,3 c 0.4,0.3 1.4,0.9 1.8,1.2 -0.6,-0.4 -1.2,-0.8 -1.8,-1.2 m 13,8.1 c 0.2,0.1 0.8,0.5 1,0.6 -0.4,-0.2 -0.7,-0.4 -1,-0.6 m 4.2,2.7 c 0.7,0.4 1,0.6 1.6,1 -0.5,-0.4 -1,-0.7 -1.6,-1 m 4.8,3 c 0.4,0.2 1.1,0.6 1.5,0.9 -0.5,-0.3 -1,-0.6 -1.5,-0.9 m 4.8,3 c 0.4,0.2 0.9,0.6 1.4,0.8 -0.5,-0.2 -1,-0.6 -1.4,-0.8 m 4.8,3 c 0.5,0.3 0.6,0.4 1,0.6 -0.3,-0.2 -0.6,-0.4 -1,-0.6 m 4.8,3 0.5,0.3 c -0.2,-0.1 -0.4,-0.2 -0.5,-0.3 m 22.5,14.3 0.2,0.1 c -0.1,0 -0.2,-0.1 -0.2,-0.1 m 4.4,2.8 c 0.2,0.2 0.2,0.1 0.4,0.3 -0.1,-0.1 -0.3,-0.2 -0.4,-0.3 m 4.7,3 v 0.1 -0.1 m -3891,412.8 c -1.7,0.8 -3.5,1.6 -5.2,2.3 1.7,-0.7 3.5,-1.5 5.2,-2.3"
         style="fill:#8dc6e3;fill-opacity:1;fill-rule:nonzero;stroke:none"
         id="path68" />
      <path
         d="m 26853.8,29697.9 c 0.3,0.9 0.6,1.8 0.9,2.7 -0.3,-0.9 -0.6,-1.8 -0.9,-2.7 m 1.2,3.7 c 0.3,0.6 0.5,1.2 0.7,1.8 -0.1,-0.3 -0.2,-0.6 -0.3,-0.9 -0.1,-0.3 -0.2,-0.6 -0.4,-0.9 m 1.1,2.8 c 0.2,0.6 0.4,1.3 0.6,1.9 -0.2,-0.7 -0.4,-1.2 -0.6,-1.9 m 1,2.8 c 0.3,0.9 0.6,1.7 0.9,2.6 -0.3,-0.9 -0.6,-1.7 -0.9,-2.6 m 1.2,3.5 c 0.2,0.6 0.5,1.2 0.7,1.8 -0.3,-0.6 -0.4,-1.2 -0.7,-1.8 m 1.1,3 c 0.2,0.5 0.4,1 0.5,1.5 -0.1,-0.5 -0.3,-1 -0.5,-1.5 m 1,2.8 c 0.2,0.6 0.4,1.1 0.6,1.6 -0.2,-0.5 -0.4,-1.1 -0.6,-1.6 m 1.4,3.7 c 0.2,0.5 0.3,1 0.5,1.4 -0.2,-0.5 -0.3,-0.9 -0.5,-1.4 m 1,2.8 c 0.2,0.4 0.3,0.8 0.5,1.2 -0.2,-0.3 -0.3,-0.8 -0.5,-1.2 m 1.1,2.9 c 0.1,0.2 0.1,0.4 0.2,0.6 -0.1,-0.2 -0.1,-0.4 -0.2,-0.6 m 2.6,7.1 c 0,0 0.1,0 0.1,0.1 -0.1,-0.1 0,0 -0.1,-0.1"
         style="fill:#8dc6e3;fill-opacity:1;fill-rule:nonzero;stroke:none"
         id="path70" />
      <path
         d="m 30531.7,23429.6 c -0.2,0 -0.4,0 -0.6,0 -923.7,0.1 -1822.2,189.2 -2694.1,579.3 -1.7,0.8 -3.5,1.6 -5.2,2.3 -2.4,1.1 -4.8,2.2 -7.2,3.3 v 0 c -19.5,11.1 -38.8,22.6 -57.8,34.4 -665,415.4 -1063.8,1318.2 -1212.4,2367.7 -44.6,314.8 -66.7,642.7 -66.7,974.7 0,787.1 123.9,1596.8 366.1,2306.6 -13.6,-39.7 -26.6,-79.8 -39.4,-120.1 182.7,288.6 418,577.7 661,836.9 -554.2,-2000.9 -233.7,-4592.8 1077.1,-5338.8 876,-393.9 1778.7,-584.8 2707,-584.8 47.8,0 95.7,0.5 143.6,1.5 l 0.8,-0.4 v 0.4 c 301,6.5 604.4,32 910.6,77.7 376.3,222.9 705.2,492.3 988.8,796.1 -15.2,-41.8 -30.9,-83.3 -47.2,-124.7 32.5,57.9 63.8,116.4 94,175.5 0.1,0.1 0.2,0.2 0.2,0.3 -367.5,-719.7 -902.9,-1358.2 -1622.3,-1821.3 v -0.1 c -1.5,-0.9 -2.9,-1.8 -4.3,-2.7 -0.2,-0.2 -0.2,-0.1 -0.4,-0.3 -1.4,-0.9 -2.8,-1.7 -4.2,-2.7 l -0.2,-0.1 c -7.3,-4.7 -14.7,-9.3 -22,-14 l -0.5,-0.3 c -1.3,-0.8 -2.5,-1.6 -3.8,-2.4 -0.4,-0.2 -0.5,-0.3 -1,-0.6 -1.1,-0.7 -2.2,-1.4 -3.4,-2.2 -0.5,-0.2 -1,-0.6 -1.4,-0.8 -1.1,-0.7 -2.2,-1.4 -3.3,-2.1 -0.4,-0.3 -1.1,-0.7 -1.5,-0.9 -1.1,-0.7 -2.1,-1.4 -3.2,-2 -0.6,-0.4 -0.9,-0.6 -1.6,-1 -1.1,-0.7 -2.1,-1.4 -3.2,-2.1 -0.2,-0.1 -0.8,-0.5 -1,-0.6 -3.7,-2.3 -7.5,-4.6 -11.2,-6.9 -0.4,-0.3 -1.4,-0.9 -1.8,-1.2 -0.9,-0.5 -1.8,-1.1 -2.7,-1.6 -0.9,-0.6 -1.4,-0.8 -2.2,-1.4 -0.9,-0.5 -1.7,-1 -2.6,-1.6 -0.7,-0.4 -1.6,-1 -2.2,-1.4 -1,-0.5 -1.8,-1.1 -2.7,-1.6 -0.9,-0.5 -1.4,-0.8 -2.3,-1.4 -0.8,-0.5 -1.7,-1 -2.5,-1.5 -0.7,-0.4 -1.7,-1.1 -2.4,-1.5 -0.8,-0.5 -1.7,-1 -2.6,-1.6 -0.8,-0.5 -1.4,-0.8 -2.2,-1.3 -0.9,-0.6 -1.7,-1.1 -2.6,-1.6 -0.6,-0.4 -1.8,-1.1 -2.4,-1.5 -1,-0.6 -2.1,-1.3 -3.1,-1.9 -1.3,-0.8 -2.8,-1.7 -4.1,-2.5 -0.6,-0.3 -1.2,-0.7 -1.8,-1 -1.1,-0.7 -2,-1.2 -3.1,-1.9 -0.7,-0.4 -1.4,-0.9 -2.1,-1.3 -0.9,-0.5 -2,-1.2 -2.9,-1.7 -0.7,-0.4 -1.4,-0.9 -2.1,-1.3 -1.1,-0.6 -1.8,-1 -2.9,-1.7 -0.7,-0.4 -1.3,-0.8 -2.1,-1.3 -0.8,-0.5 -2.1,-1.2 -2.9,-1.7 -0.7,-0.4 -1.3,-0.8 -2,-1.2 -1.1,-0.7 -1.9,-1.2 -3,-1.8 -0.7,-0.4 -1.3,-0.8 -2,-1.2 -1.1,-0.7 -2.1,-1.3 -3.2,-1.9 -0.6,-0.4 -1.2,-0.7 -1.8,-1 -1.5,-1 -3.4,-2.1 -4.9,-3 -306.2,-45.7 -609.6,-71.2 -910.6,-77.6 v -0.4 l -0.8,0.4 c -47.9,-1.1 -95.7,-1.6 -143.5,-1.6 v 0 m -3677.9,6268.3 v 0 c 0.3,0.9 0.6,1.8 0.9,2.7 v 0 c -0.3,-0.9 -0.6,-1.8 -0.9,-2.7 m 1.2,3.7 v 0 c 0.2,0.3 0.3,0.6 0.4,0.9 -0.1,-0.3 -0.2,-0.6 -0.4,-0.9"
         style="fill:#585884;fill-opacity:1;fill-rule:nonzero;stroke:none"
         id="path72" />
      <path
         d="m 26855.4,29702.5 c 0.1,0.3 0.2,0.6 0.3,0.9 v 0 c -0.1,-0.3 -0.2,-0.6 -0.3,-0.9 m 0.7,1.9 v 0 c 0.2,0.7 0.4,1.2 0.6,1.9 0,0 0,0 0.1,0.1 -0.3,-0.7 -0.5,-1.3 -0.7,-2 m 0.9,2.8 h 0.1 c 0.3,0.9 0.6,1.7 0.9,2.6 v 0 c -0.3,-0.9 -0.6,-1.7 -1,-2.6 m 1.3,3.4 c 0,0.1 0,0.1 0,0.1 0.3,0.6 0.4,1.2 0.7,1.8 v 0 c -0.2,-0.6 -0.5,-1.3 -0.7,-1.9 m 1.1,3.1 v 0 c 0.2,0.5 0.4,1 0.5,1.5 0.1,0 0.1,0 0.1,0 -0.2,-0.5 -0.4,-1 -0.6,-1.5 m 1,2.8 v 0 c 0.2,0.5 0.4,1.1 0.6,1.6 0.1,0.2 0.2,0.4 0.2,0.6 -0.2,-0.7 -0.5,-1.5 -0.8,-2.2 m 1.3,3.5 c 0,0.1 0.1,0.2 0.1,0.2 0.2,0.5 0.3,0.9 0.5,1.4 0,0 0,0 0,0.1 -0.2,-0.6 -0.4,-1.1 -0.6,-1.7 m 1.1,3 v 0 c 0.2,0.4 0.3,0.9 0.5,1.2 v 0.1 c -0.2,-0.5 -0.3,-0.8 -0.5,-1.3 m 1.1,2.8 v 0.1 c 0.1,0.2 0.1,0.4 0.2,0.6 v 0.1 c 0,-0.2 -0.2,-0.6 -0.2,-0.8 m 2.6,7.1 v 0.1 c 0.1,0.1 0,0 0.1,0.1 v 0 c 0,0 -0.1,-0.1 -0.1,-0.2"
         style="fill:#b2cae3;fill-opacity:1;fill-rule:nonzero;stroke:none"
         id="path74" />
      <path
         d="m 33256.1,25241.7 c 16.3,41.4 32,82.9 47.2,124.7 15.7,16.8 31.3,33.8 46.8,50.8 -30.2,-59.1 -61.5,-117.6 -94,-175.5 m -6441.7,4336.1 c 12.8,40.3 25.8,80.4 39.4,120.1 v 0 0 c 0.3,0.9 0.6,1.8 0.9,2.7 0.1,0.4 0.2,0.6 0.3,1 0.2,0.3 0.3,0.6 0.4,0.9 0.1,0.3 0.2,0.6 0.3,0.9 0.1,0.3 0.2,0.7 0.4,1 0.2,0.7 0.4,1.3 0.7,2 0.1,0.2 0.2,0.5 0.2,0.8 0.4,0.9 0.7,1.7 1,2.6 0.1,0.3 0.2,0.6 0.3,0.8 0.2,0.6 0.5,1.3 0.7,1.9 0.1,0.4 0.3,0.8 0.4,1.2 0.2,0.5 0.4,1 0.6,1.5 0.1,0.4 0.3,0.9 0.4,1.3 0.3,0.7 0.6,1.5 0.8,2.2 0.2,0.5 0.4,0.9 0.5,1.3 0.2,0.6 0.4,1.1 0.6,1.7 0.2,0.4 0.3,0.9 0.5,1.3 0.2,0.5 0.3,0.8 0.5,1.3 0.2,0.5 0.4,1 0.6,1.5 0,0.2 0.2,0.6 0.2,0.8 0.8,2.1 1.6,4.2 2.4,6.3 0,0.1 0.1,0.2 0.1,0.2 146.2,389 448.4,813.7 782.5,1191.4 -25.1,-55.6 -48.3,-110.8 -67.5,-165.1 -38.4,-112.6 -73.8,-227.6 -106.2,-344.7 -243,-259.2 -478.3,-548.3 -661,-836.9"
         style="fill:#9e9ebd;fill-opacity:1;fill-rule:nonzero;stroke:none"
         id="path76" />
      <path
         d="m 32380,28425.5 1272.5,-49 c 229.7,-178.8 252.5,-483.6 68.4,-914.4 l -1346.5,60.9 c -93.1,4.2 -179.6,50.7 -234.2,126.4 -123.1,170.9 -118.9,372.2 -38.4,591.6 42.2,115.3 155.5,189.2 278.2,184.5"
         style="fill:#9da9b9;fill-opacity:1;fill-rule:nonzero;stroke:none"
         id="path78" />
      <path
         d="m 33722.2,27465.2 c 0.1,0.2 0.2,0.5 0.3,0.8 -0.1,-0.3 -0.2,-0.6 -0.3,-0.8 m 1.3,3.2 c 0.1,0.2 0.2,0.5 0.4,0.8 -0.1,-0.3 -0.3,-0.6 -0.4,-0.8 m 3,7.1 c 0.1,0.1 0.1,0.2 0.2,0.3 -0.1,-0.1 -0.1,-0.2 -0.2,-0.3"
         style="fill:#9e9ea6;fill-opacity:1;fill-rule:nonzero;stroke:none"
         id="path80" />
      <path
         d="m 33720.9,27462.1 -1346.5,60.9 c -41.3,1.9 -81.2,12.1 -117.7,29.4 -45.9,21.8 -86.1,54.9 -116.3,97 -28.3,39.2 -49.9,80 -65.4,122.2 -46,126.1 -37.9,265 7.8,412.9 14.7,-35.3 33.6,-69.5 57.4,-102.6 54.6,-75.7 141.1,-122.1 234.2,-126.3 l 1346.5,-60.9 c 40.3,94.3 70.1,182.2 90.6,264.5 61.9,-172.8 33.9,-400.5 -84.8,-683.4 -0.1,-0.1 -0.1,-0.2 -0.2,-0.3 -0.9,-2.1 -1.8,-4.2 -2.6,-6.3 -0.2,-0.3 -0.3,-0.6 -0.4,-0.8 -0.3,-0.8 -0.6,-1.6 -1,-2.4 -0.1,-0.3 -0.2,-0.6 -0.3,-0.8 -0.5,-1.1 -0.9,-2.1 -1.3,-3.1 v 0"
         style="fill:#7e8794;fill-opacity:1;fill-rule:nonzero;stroke:none"
         id="path82" />
      <path
         d="m 24824.3,29320.5 -0.4,-859.2 c -4.1,8.5 -7.7,17.4 -11.3,26.7 l -10559.5,940.1 c -64.7,634.3 204.7,800.1 633.9,741.9 l 9937.3,-849.5"
         style="fill:#9da9b9;fill-opacity:1;fill-rule:nonzero;stroke:none"
         id="path84" />
      <path
         d="m 24823.9,28461.3 c -4.1,8.5 -7.7,17.4 -11.3,26.7 l -124.4,11.1 v 0 l 124.4,-11.1 c 3.6,-9.3 7.2,-18.2 11.3,-26.7 l 0.2,454.8 v 0 l -0.2,-454.8"
         style="fill:#91b9c7;fill-opacity:1;fill-rule:nonzero;stroke:none"
         id="path86" />
      <path
         d="m 15110.7,29351.8 -857.6,76.3 v 0 c -0.1,1 -0.2,2 -0.3,3 v 0 c 0.1,-1 0.2,-2 0.3,-3 l 857.6,-76.3 m -858,80.4 c 0,0 0,0 0,0.1 -0.1,0.5 -0.2,1.1 -0.2,1.7 v 0 c 0,-0.6 0.1,-1.2 0.2,-1.8 m -0.3,3.2 c 0,0 0,0 -0.1,0 0,0.5 0,1 -0.1,1.5 v 0 c 0.1,-0.5 0.1,-1 0.2,-1.5 m -0.4,3.1 v 0 c 0,0.4 0,0.6 0,0.9 v 0.1 c 0,-0.3 0,-0.7 0,-1"
         style="fill:#379dbf;fill-opacity:1;fill-rule:nonzero;stroke:none"
         id="path88" />
      <path
         d="m 24823.9,28461.3 c -4.1,8.5 -7.7,17.4 -11.3,26.7 l -124.4,11.1 -9577.5,852.7 -857.6,76.3 c -0.1,1 -0.2,2 -0.3,3 -0.1,0.4 -0.1,0.7 -0.1,1.1 -0.1,0.6 -0.2,1.2 -0.2,1.8 -0.1,0.5 -0.1,0.9 -0.1,1.4 -0.1,0.5 -0.1,1 -0.2,1.5 0,0.5 -0.1,1.1 -0.2,1.6 0,0.3 0,0.7 0,1 -21.5,222.2 -1.1,385.9 53,502.2 1.5,-28.9 3.7,-58.6 6.9,-89.7 l 10512.2,-935.9 -0.2,-454.8"
         style="fill:#7e8794;fill-opacity:1;fill-rule:nonzero;stroke:none"
         id="path90" />
      <path
         d="m 12455,28700 -312.3,-878.2 c -211.9,-474.9 -453.8,-956.3 -546.1,-1535.2 -423.1,-377.4 -987,-542 -1671.03,-525 v -0.4 l -1.22,0.4 c -79.28,2 -159.79,5.6 -242.3,12.5 l -1887.88,215.6 c -3262.82,1213.6 -1748.72,7555.6 566.33,8279.2 h 1807 c 1209.5,-40.8 2733.3,-344.6 2966.3,-3317 -1114.1,-44.1 -1515.3,-1875.7 -678.8,-2251.9"
         style="fill:#6e6e89;fill-opacity:1;fill-rule:nonzero;stroke:none"
         id="path92" />
      <path
         d="m 13128.9,30951.7 h 0.1 c -0.1,0 0,0 -0.1,0 m 1.6,0.1 v 0 0 0 m -4804.57,3305.9 c 0.06,0 0.2,0.1 0.27,0.1 -0.14,0 -0.13,0 -0.27,-0.1 m 2.56,0.9 c 0.32,0.1 0.68,0.2 1,0.3 -0.42,-0.1 -0.58,-0.2 -1,-0.3 m 2.95,1 c 0.45,0.1 0.91,0.3 1.36,0.4 -0.56,-0.2 -0.8,-0.3 -1.36,-0.4 m 3.16,1 c 0.46,0.2 0.98,0.3 1.44,0.5 -0.42,-0.2 -1.01,-0.3 -1.44,-0.5 m 3.17,1 c 0.55,0.2 1.07,0.4 1.62,0.6 -0.56,-0.2 -1.06,-0.4 -1.62,-0.6 m 3.2,1.1 c 0.55,0.2 1.14,0.4 1.69,0.6 -0.56,-0.2 -1.12,-0.4 -1.69,-0.6 m 3.23,1.1 c 0.62,0.2 1.2,0.3 1.81,0.5 -0.56,-0.1 -1.25,-0.4 -1.81,-0.5 m 3.25,1 c 0.62,0.2 1.23,0.4 1.84,0.6 -0.7,-0.2 -1.14,-0.4 -1.84,-0.6 m 3.27,1.1 c 0.65,0.2 1.29,0.4 1.94,0.6 -0.57,-0.2 -1.38,-0.5 -1.94,-0.6 m 3.25,1 c 0.75,0.2 1.46,0.5 2.21,0.7 -0.7,-0.2 -1.5,-0.5 -2.21,-0.7 m 3.26,1 c 1.07,0.4 2.19,0.7 3.27,1 -1.13,-0.3 -2.14,-0.6 -3.27,-1"
         style="fill:#dffcff;fill-opacity:1;fill-rule:nonzero;stroke:none"
         id="path94" />
      <path
         d="m 12756.3,30860.7 c -328.6,2620.6 -1771.9,2900.5 -2928,2939.6 H 8021.33 c -391.02,-122.3 -759.03,-405.2 -1085.19,-796.2 391.19,618.6 869.48,1077.8 1389.79,1253.6 0.14,0.1 0.13,0.1 0.27,0.1 0.78,0.3 1.51,0.5 2.29,0.8 0.42,0.1 0.58,0.2 1,0.3 0.65,0.2 1.3,0.4 1.95,0.7 0.56,0.1 0.8,0.2 1.36,0.4 0.62,0.2 1.19,0.4 1.8,0.6 0.43,0.2 1.02,0.3 1.44,0.5 0.58,0.2 1.15,0.4 1.73,0.5 0.56,0.2 1.06,0.4 1.62,0.6 0.52,0.2 1.06,0.3 1.58,0.5 0.57,0.2 1.13,0.4 1.69,0.6 0.52,0.1 1.02,0.3 1.54,0.5 0.56,0.1 1.25,0.4 1.81,0.5 0.46,0.2 0.98,0.4 1.44,0.5 0.7,0.2 1.14,0.4 1.84,0.6 0.49,0.2 0.94,0.3 1.43,0.5 0.56,0.1 1.37,0.4 1.94,0.6 0.42,0.1 0.89,0.3 1.31,0.4 0.71,0.2 1.51,0.5 2.21,0.7 0.36,0.1 0.69,0.2 1.05,0.3 1.13,0.4 2.14,0.7 3.27,1 v 0 h 1807 c 1209.5,-40.8 2733.3,-344.6 2966.3,-3317 v 0 c -1.1,0 -2.1,-0.1 -3.1,-0.1 -0.1,0 -0.1,0 -0.2,0 v 0 c -0.5,0 -1.1,-0.1 -1.5,-0.1 h -0.1 c -135.1,-6 -259.6,-38.2 -372.6,-91"
         style="fill:#c5c5d0;fill-opacity:1;fill-rule:nonzero;stroke:none"
         id="path96" />
      <path
         d="m 10020.4,25760.4 c -31.37,0 -62.93,0.4 -94.83,1.2 v -0.4 l -1.22,0.4 c -79.28,2 -159.79,5.6 -242.3,12.5 l -1887.88,215.6 c -1.57,0.6 -3.01,1.1 -4.57,1.7 1.59,-0.6 2.98,-1.1 4.57,-1.7 l 1887.88,-215.6 c 82.51,-6.9 163.02,-10.5 242.3,-12.5 l 1.22,-0.4 v 0.4 c 31.9,-0.8 63.46,-1.2 94.83,-1.2 629.9,0 1153.8,160.6 1554.5,507.2 v 0 c -400.7,-346.6 -924.6,-507.2 -1554.5,-507.2"
         style="fill:#8dc6e3;fill-opacity:1;fill-rule:nonzero;stroke:none"
         id="path98" />
      <path
         d="m 7787.44,25992.2 c -0.83,0.4 -1.52,0.6 -2.35,0.9 0.79,-0.3 1.56,-0.6 2.35,-0.9 m -5.04,1.9 c -0.55,0.2 -1.28,0.5 -1.83,0.7 0.6,-0.2 1.23,-0.4 1.83,-0.7 m -4.7,1.8 c -0.55,0.2 -1.08,0.4 -1.63,0.6 0.4,-0.1 1.24,-0.4 1.63,-0.6 m -4.67,1.8 c -0.46,0.2 -0.97,0.4 -1.42,0.5 0.39,-0.1 1.02,-0.4 1.42,-0.5 m -4.58,1.7 c -0.46,0.2 -0.82,0.4 -1.28,0.5 0.39,-0.1 0.88,-0.3 1.28,-0.5 m -4.65,1.8 c -0.36,0.2 -0.62,0.3 -0.98,0.4 0.39,-0.1 0.59,-0.2 0.98,-0.4 m -4.6,1.8 c -0.18,0.1 -0.45,0.2 -0.63,0.2 0.2,0 0.43,-0.1 0.63,-0.2 m -4.64,1.8 h -0.03 0.03"
         style="fill:#8dc6e3;fill-opacity:1;fill-rule:nonzero;stroke:none"
         id="path100" />
      <path
         d="m 10020.4,25760.4 c -31.37,0 -62.93,0.4 -94.83,1.2 v -0.4 l -1.22,0.4 c -79.28,2 -159.79,5.6 -242.3,12.5 l -1887.88,215.6 c -1.59,0.6 -2.98,1.1 -4.57,1.7 -0.65,0.3 -1.51,0.6 -2.16,0.8 -0.79,0.3 -1.56,0.6 -2.35,0.9 -0.92,0.4 -1.77,0.7 -2.69,1 -0.6,0.3 -1.23,0.5 -1.83,0.7 -1.01,0.4 -1.86,0.7 -2.87,1.1 -0.39,0.2 -1.23,0.5 -1.63,0.6 -1,0.4 -2.03,0.8 -3.04,1.2 -0.4,0.1 -1.03,0.4 -1.42,0.5 -1.01,0.4 -2.15,0.9 -3.16,1.2 -0.4,0.2 -0.89,0.4 -1.28,0.5 -1.1,0.5 -2.27,0.9 -3.37,1.3 -0.39,0.2 -0.59,0.3 -0.98,0.4 -1.19,0.5 -2.43,0.9 -3.62,1.4 -0.2,0.1 -0.43,0.2 -0.63,0.2 -1.37,0.6 -2.64,1.1 -4.01,1.6 h -0.03 c -1480.54,576.5 -1956.6,2225.5 -1814.25,3905.9 117.71,-1273.8 672.71,-2385.8 1853.89,-2825.1 L 9682.05,26870 c 82.51,-6.9 163.02,-10.6 242.3,-12.6 l 1.22,-0.4 v 0.4 c 31.86,-0.8 63.5,-1.2 94.83,-1.2 641.5,0 1172.8,166.4 1576.2,526.3 92.3,578.8 334.2,1060.2 546.1,1535.1 l 15.2,42.4 c 71.8,-112.7 170.2,-203.2 297,-260.2 l -92.4,-260 -219.8,-618 c -211.9,-474.9 -453.8,-956.3 -546.1,-1535.2 -7.2,-6.4 -14.4,-12.7 -21.7,-19 -400.7,-346.6 -924.6,-507.2 -1554.5,-507.2"
         style="fill:#585884;fill-opacity:1;fill-rule:nonzero;stroke:none"
         id="path102" />
      <path
         d="m 12109.6,30098.4 c -0.5,-4 -0.5,-8.5 -0.9,-12.5 -10.5,-176.8 -45.3,-344.7 -99.9,-498.8 -192.5,-545.3 -631.4,-916.2 -1118.9,-886.7 -624.9,37.2 -1092.16,718.8 -1044.03,1521.4 48.14,802.9 593.83,1423.1 1218.83,1385.8 621.7,-37.6 1087.7,-711.5 1044.9,-1509.2"
         style="fill:#9da9b9;fill-opacity:1;fill-rule:nonzero;stroke:none"
         id="path104" />
      <path
         d="m 10944.2,28698.7 v 0 0 0 m 0.5,0 c 463,0.3 874.7,360.1 1061.4,880.6 -186.7,-520.6 -598.3,-880.3 -1061.4,-880.6 m -1098.68,1525.4 c 0,0.2 0.01,0.3 0.02,0.4 -0.01,-0.1 -0.01,-0.2 -0.02,-0.4 m 0.14,2.4 c 0.01,0.2 0.03,0.4 0.04,0.6 -0.01,-0.2 -0.03,-0.4 -0.04,-0.6 m 0.15,2.3 c 0.01,0.2 0.03,0.4 0.04,0.6 -0.02,-0.2 -0.03,-0.4 -0.04,-0.6 m 0.16,2.5 c 0,0.1 0.01,0.1 0.01,0.1 0,0 -0.01,0 -0.01,-0.1 m 0.16,2.4 c 0,0 0,0 0,0.1 0,-0.1 0,0 0,-0.1"
         style="fill:#58586e;fill-opacity:1;fill-rule:nonzero;stroke:none"
         id="path106" />
      <path
         d="m 10944.2,28698.7 v 0 c -18,0 -36.1,0.6 -54.3,1.7 v 0 c -595,35.4 -1047.09,655.1 -1047.44,1407 -0.01,37.8 1.11,76 3.41,114.4 0.05,0.8 0.1,1.6 0.15,2.3 0.01,0.2 0.01,0.3 0.02,0.4 0.04,0.7 0.08,1.3 0.12,2 0.01,0.2 0.03,0.4 0.04,0.6 0.04,0.6 0.07,1.2 0.11,1.7 0.01,0.2 0.02,0.4 0.04,0.6 0.04,0.6 0.08,1.3 0.12,1.9 0,0.1 0.01,0.1 0.01,0.1 0.05,0.8 0.1,1.5 0.15,2.3 0,0.1 0,0 0,0.1 13.25,199.8 57.45,388 125.85,557.4 -24.98,-779.4 435.02,-1432.1 1046.22,-1468.5 18.1,-1.1 36.2,-1.6 54.2,-1.6 321.8,0 618.8,173.7 832.8,454.4 l 120.1,-3.6 c -9.3,-61.9 -15,-123.7 -17,-184.8 v 0 0 c -0.9,-2.6 -1.8,-5.2 -2.7,-7.8 -186.7,-520.5 -598.4,-880.3 -1061.4,-880.6 -0.1,0 -0.3,0 -0.5,0 m 1081.7,1074 v 187.7 c 31.5,57 59.9,116.8 85.1,179.2 -0.5,-13.5 -0.7,-26.9 -1.4,-40.4 -38.9,-106.5 -67,-216.6 -83.7,-326.5"
         style="fill:#7e8794;fill-opacity:1;fill-rule:nonzero;stroke:none"
         id="path108" />
      <path
         d="m 11905.7,29775.5 -557.4,16.8 c -118.2,183.4 -144.2,369.1 -84.9,557.1 19.1,-58.9 47.2,-117.6 84.9,-176 l 677.6,-20.5 v -192.5 c -36.3,-65.7 -76.5,-127.5 -120.2,-184.9"
         style="fill:#7e8794;fill-opacity:1;fill-rule:nonzero;stroke:none"
         id="path110" />
      <path
         d="m 12025.8,29771.9 -120.1,3.6 c 43.7,57.4 83.9,119.2 120.2,184.9 v -187.7 c 0,-0.2 0,-0.6 -0.1,-0.8"
         style="fill:#656c76;fill-opacity:1;fill-rule:nonzero;stroke:none"
         id="path112" />
      <path
         d="m 32930.8,27497.8 v -1.7 c -138.8,-656.1 -640,-1142.3 -1236.2,-1142.3 -703.9,0 -1274.2,676.3 -1274.2,1510.5 0,834.1 570.3,1510 1274.2,1510 540,0 1002,-398.4 1187.2,-960.7 l 0.4,-7.7 -502.4,19.4 c -122.5,4.9 -235.8,-69.2 -277.9,-184.4 -80.5,-219.3 -84.9,-420.7 38.5,-591.5 54.2,-75.6 140.7,-122.1 234.2,-126.6 l 556.2,-25"
         style="fill:#9da9b9;fill-opacity:1;fill-rule:nonzero;stroke:none"
         id="path114" />
      <path
         d="m 30420.4,27867.3 c 0,0.2 0,0.4 0,0.7 0,-0.3 0,-0.5 0,-0.7 m 0,3.3 c 0,0.1 0,0.2 0,0.3 0,-0.1 0,-0.2 0,-0.3"
         style="fill:#58586e;fill-opacity:1;fill-rule:nonzero;stroke:none"
         id="path116" />
      <path
         d="m 31694.6,26353.8 c -703.9,0 -1274.2,676.3 -1274.2,1510.5 0,0.9 0,2 0,3 0,0.2 0,0.4 0,0.7 0,0.8 0,1.7 0,2.6 0,0.1 0,0.2 0,0.3 0.5,137.4 16.8,270.2 46.3,396.6 148.8,-638.3 641.9,-1107.2 1227.9,-1107.2 312.9,0 599.5,134.1 821.4,356.2 l 414.8,-18.7 v -1.7 c -138.8,-656.1 -640,-1142.3 -1236.2,-1142.3"
         style="fill:#7e8794;fill-opacity:1;fill-rule:nonzero;stroke:none"
         id="path118" />
      <path
         d="m 14887,30170 c -429.2,58.2 -698.6,-107.6 -633.9,-741.9 -1132.7,350.7 -1618.1,-80.9 -1051.8,-728.1 -1726,-525.9 -1429.1,2198.1 -67.5,2251.9 813.9,-7.3 1437.6,-224.5 1753.2,-781.9"
         style="fill:#45c4ef;fill-opacity:1;fill-rule:nonzero;stroke:none"
         id="path120" />
      <path
         d="m 13187.8,28715.7 c -190.4,223.1 -254.9,419.8 -210.2,566.4 0.3,0.1 0.5,0.1 0.8,0.1 -45,-146.6 18.8,-343.2 209.4,-566.5 v 0"
         style="fill:#8dc6cc;fill-opacity:1;fill-rule:nonzero;stroke:none"
         id="path122" />
      <path
         d="m 12792.2,28632.6 c -5.5,0 -11,0.1 -16.4,0.2 5.4,-0.1 10.8,-0.2 16.4,-0.2 119.8,0 254.3,20.7 404.1,65.9 -149.8,-45.2 -284.3,-65.9 -404.1,-65.9 m -16.5,0.2 c -0.6,0 -1.2,0 -1.7,0 0.6,0 1.1,0 1.7,0 m -1.9,0 c -0.5,0 -1.1,0 -1.7,0 0.6,0 1.1,0 1.7,0 m -1.8,0 c -0.5,0 -1.1,0 -1.6,0.1 0.4,-0.1 1.1,-0.1 1.6,-0.1 m -1.8,0.1 c -0.6,0 -1.2,0 -1.7,0 0.6,0 1.1,0 1.7,0 m -1.8,0 c -0.5,0 -1.1,0 -1.7,0 0.6,0 1.1,0 1.7,0 m -1.9,0 c -0.5,0.1 -1.1,0.1 -1.6,0.1 0.5,0 1.1,0 1.6,-0.1 m -1.8,0.1 c -0.5,0 -1.1,0 -1.6,0 0.6,0 1,0 1.6,0 m -1.9,0 c -2.3,0.1 -4.6,0.2 -6.9,0.3 2.3,-0.1 4.6,-0.2 6.9,-0.3 m -7,0.3 c -0.4,0 -0.9,0 -1.3,0 0.5,0 0.8,0 1.3,0 m -1.8,0 c -0.3,0 -0.6,0.1 -1,0.1 0.3,0 0.7,-0.1 1,-0.1 m -1.9,0.1 c -0.2,0 -0.5,0 -0.7,0 0.2,0 0.5,0 0.7,0 m -1.8,0.1 c -0.3,0 -0.5,0 -0.7,0 0.1,0 0.5,0 0.7,0 m -1.9,0.1 c -0.2,0 -0.5,0 -0.6,0 0.2,0 0.3,0 0.6,0 m -1.8,0 c -0.3,0.1 -0.5,0.1 -0.7,0.1 0.2,0 0.4,0 0.7,-0.1 m -1.9,0.1 c -0.2,0 -0.4,0 -0.6,0.1 0.2,-0.1 0.4,-0.1 0.6,-0.1 m -1.9,0.1 c -0.2,0 -0.3,0 -0.5,0 0.2,0 0.4,0 0.5,0 m -1.9,0.1 c -0.1,0 -0.2,0 -0.4,0 0.2,0 0.2,0 0.4,0 m -1.9,0.1 c -0.1,0 -0.2,0 -0.3,0 0.1,0 0.3,0 0.3,0 m -2,0.1 c 0,0 0,0 -0.1,0 h 0.1 m 463.1,67.3 c -0.1,0.1 -0.3,0.3 -0.4,0.5 0.1,-0.2 0.3,-0.4 0.4,-0.5 m -1.2,1.4 c -0.2,0.2 -0.5,0.5 -0.7,0.8 0.2,-0.3 0.5,-0.6 0.7,-0.8 m -1.1,1.3 c -0.3,0.3 -0.6,0.6 -0.9,0.9 0.3,-0.3 0.6,-0.6 0.9,-0.9 m -1.2,1.4 c -0.3,0.3 -0.6,0.6 -0.9,1 0.3,-0.4 0.6,-0.7 0.9,-1 m -1.2,1.3 c -0.4,0.4 -0.7,0.8 -1,1.2 0.3,-0.4 0.7,-0.8 1,-1.2 m -1.1,1.3 c -2.2,2.5 -4.3,5 -6.5,7.6 v 0 c 2.1,-2.6 4.3,-5.1 6.5,-7.6"
         style="fill:#379dbf;fill-opacity:1;fill-rule:nonzero;stroke:none"
         id="path124" />
      <path
         d="m 12792.2,28632.6 c -5.6,0 -11,0.1 -16.4,0.2 -0.1,0 -0.1,0 -0.1,0 -0.6,0 -1.1,0 -1.7,0 -0.1,0 -0.1,0 -0.2,0 -0.6,0 -1.1,0 -1.7,0 0,0 0,0 -0.1,0 -0.5,0 -1.2,0 -1.6,0.1 -0.1,0 -0.2,0 -0.2,0 -0.6,0 -1.1,0 -1.7,0 h -0.1 c -0.6,0 -1.1,0 -1.7,0 -0.1,0 -0.1,0 -0.2,0 -0.5,0.1 -1.1,0.1 -1.6,0.1 -0.1,0 -0.1,0 -0.2,0 -0.6,0 -1,0 -1.6,0 -0.1,0 -0.2,0 -0.3,0 -2.3,0.1 -4.6,0.2 -6.9,0.3 0,0 0,0 -0.1,0 -0.5,0 -0.8,0 -1.3,0 -0.2,0 -0.3,0 -0.5,0 -0.3,0 -0.7,0.1 -1,0.1 -0.3,0 -0.6,0 -0.9,0 -0.2,0 -0.5,0 -0.7,0 -0.4,0.1 -0.8,0.1 -1.1,0.1 -0.2,0 -0.6,0 -0.7,0 -0.4,0 -0.8,0 -1.2,0.1 -0.3,0 -0.4,0 -0.6,0 -0.5,0 -0.8,0 -1.2,0 -0.3,0.1 -0.5,0.1 -0.7,0.1 -0.4,0 -0.8,0 -1.2,0 -0.2,0 -0.4,0 -0.6,0.1 -0.4,0 -0.9,0 -1.3,0 -0.1,0 -0.3,0 -0.5,0 -0.5,0.1 -0.9,0.1 -1.4,0.1 -0.2,0 -0.2,0 -0.4,0 -0.4,0.1 -1,0.1 -1.5,0.1 0,0 -0.2,0 -0.3,0 -0.6,0.1 -1.1,0.1 -1.7,0.1 h -0.1 c -619.3,34.4 -817.7,647.6 -693.2,1234.7 84.9,-343.9 325,-601.8 748.5,-601.8 58.3,0 120.1,4.9 185.4,15.1 -44.7,-146.6 19.8,-343.3 210.2,-566.4 2.2,-2.6 4.3,-5.1 6.5,-7.6 0,-0.1 0,-0.1 0.1,-0.1 0.3,-0.4 0.6,-0.8 1,-1.2 0.1,-0.1 0.2,-0.2 0.3,-0.3 0.3,-0.4 0.6,-0.7 0.9,-1 0.1,-0.2 0.2,-0.3 0.3,-0.5 0.3,-0.3 0.6,-0.6 0.9,-0.9 0.1,-0.2 0.3,-0.4 0.4,-0.5 0.2,-0.3 0.5,-0.6 0.7,-0.8 0.3,-0.3 0.5,-0.6 0.8,-0.9 0.1,-0.2 0.3,-0.4 0.4,-0.5 0.4,-0.5 0.8,-1 1.2,-1.4 v 0 c -1.6,-0.5 -3.3,-1 -5,-1.5 -149.8,-45.2 -284.3,-65.9 -404.1,-65.9"
         style="fill:#379dbf;fill-opacity:1;fill-rule:nonzero;stroke:none"
         id="path126" />
      <path
         d="m 14940.8,26077.5 c 2683.2,2717 6174,2829.3 9595.1,-654 -182,-1283.6 -110,-2503.3 342.5,-3627.1 l -268,-876.5 c -750.1,2123.7 -2298.4,2319.4 -3399.6,2066.1 l -1154.2,648.7 c -2212.3,557.8 -4043.6,175.5 -5661.9,-732.6 -385.2,-21.9 -1254.9,460.3 -1939.6,667.7 1159.4,709.4 2008,1537.7 2485.7,2507.7"
         style="fill:#45c4ef;fill-opacity:1;fill-rule:nonzero;stroke:none"
         id="path128" />
      <path
         d="m 24608.8,20924.3 c -0.1,0.4 -0.2,0.7 -0.3,1 0.1,-0.2 0.1,-0.5 0.2,-0.7 0.1,-0.2 0.1,-0.1 0.1,-0.3"
         style="fill:#b5e7f9;fill-opacity:1;fill-rule:nonzero;stroke:none"
         id="path130" />
      <path
         d="m 24596.8,20958 c -8.4,23.1 -16.9,46 -25.5,68.7 v 0.1 c 8.6,-22.7 17.1,-45.6 25.5,-68.8 v 0"
         style="fill:#dffcff;fill-opacity:1;fill-rule:nonzero;stroke:none"
         id="path132" />
      <path
         d="m 24607.7,20927.4 c -3.6,10.2 -7.3,20.4 -10.9,30.6 v 0 c 0.8,-2.4 1.7,-4.8 2.6,-7.2 0.1,-0.3 0.1,-0.4 0.2,-0.6 0.4,-1.1 0.7,-2.1 1.1,-3.1 0.2,-0.5 0.4,-1.1 0.6,-1.6 0.3,-0.9 0.7,-1.9 1,-2.8 0.2,-0.6 0.4,-1.2 0.6,-1.8 0.3,-0.9 0.7,-1.8 1,-2.6 0.2,-0.8 0.5,-1.5 0.8,-2.3 0.2,-0.8 0.5,-1.5 0.8,-2.2 0.3,-0.9 0.5,-1.6 0.9,-2.5 0.2,-0.7 0.5,-1.5 0.7,-2.2 0.2,-0.6 0.4,-1.1 0.6,-1.7"
         style="fill:#b5e7f9;fill-opacity:1;fill-rule:nonzero;stroke:none"
         id="path134" />
      <path
         d="m 24531.2,25428.3 v 0 c -0.6,0.6 -0.9,0.9 -1.5,1.6 -0.1,0 0,0 -0.1,0 0.6,-0.6 1,-1 1.6,-1.6 m -4.7,4.8 -0.1,0.1 c -0.6,0.6 -1,1 -1.6,1.6 0,0.1 0,0.1 -0.1,0.1 0.7,-0.6 1.2,-1.2 1.8,-1.8 m -5.2,5.3 c -0.1,0.1 -0.2,0.2 -0.3,0.2 -0.4,0.5 -0.9,1 -1.3,1.4 -0.1,0.1 -0.2,0.2 -0.2,0.2 0.6,-0.6 1.1,-1.1 1.8,-1.8 m -16.2,16.4 c -0.2,0.2 -0.6,0.6 -0.8,0.8 0.2,-0.2 0.6,-0.6 0.8,-0.8 m -9564.3,622.7 c 1282.8,1299 2749.9,2002.6 4306,2002.6 -1555.9,-0.2 -3023.4,-703.8 -4306,-2002.6 m 4306.7,2002.6 c -0.2,0 -0.2,0 -0.4,0 v 0 c 0.2,0 0.2,0 0.4,0"
         style="fill:#dffcff;fill-opacity:1;fill-rule:nonzero;stroke:none"
         id="path136" />
      <path
         d="m 24608.9,20924 c 0,0.1 0,0.2 -0.1,0.3 0,0.2 0,0.1 -0.1,0.3 0.1,-0.2 0.2,-0.4 0.2,-0.6 m -1.1,3.1 c 0,0.1 0,0.2 -0.1,0.3 -0.2,0.6 -0.4,1.1 -0.6,1.7 0.3,-0.7 0.5,-1.3 0.7,-2 m -1.4,4.2 c -0.4,0.9 -0.6,1.6 -0.9,2.5 0.3,-0.9 0.6,-1.7 0.9,-2.5 m -1.7,4.7 c -0.3,0.8 -0.6,1.5 -0.8,2.3 0.2,-0.8 0.5,-1.6 0.8,-2.3 m -1.8,4.9 c -0.2,0.6 -0.4,1.2 -0.6,1.8 0.2,-0.6 0.4,-1.2 0.6,-1.8 m -1.6,4.6 c -0.2,0.5 -0.4,1.1 -0.6,1.6 0.2,-0.6 0.4,-1.1 0.6,-1.6 m -1.7,4.7 c -0.1,0.2 -0.1,0.3 -0.2,0.6 0.1,-0.2 0.1,-0.4 0.2,-0.6 m -11226.5,2956.7 c -75.4,38.7 -153.4,80.1 -233.1,123 812.7,601.3 1422.8,1280 1800.8,2047.6 v 0 c 1282.6,1298.8 2750.1,2002.4 4306,2002.6 h 0.3 c 0.2,0 0.2,0 0.4,0 1686.1,-0.2 3476.3,-826.2 5248.7,-2616.3 -660.7,667.2 -1323.9,1200 -1983.3,1606.6 576.5,-460.5 1144.8,-1032.3 1699.1,-1721.9 -20.4,-83.2 -39.6,-166.1 -57.7,-248.9 -1732.8,1706.1 -3479.7,2494.9 -5127.4,2494.9 -1555.9,0 -3023.6,-703.7 -4306.3,-2002.5 -303.9,-617.2 -758.6,-1176.9 -1347.5,-1685.1 m 11158.1,1521.4 c -0.5,0.5 -1,1.1 -1.5,1.6 0.6,-0.7 0.9,-1 1.5,-1.6 m -4.8,4.9 c -0.5,0.5 -1.1,1.1 -1.6,1.6 0.6,-0.6 1,-1 1.6,-1.6 m -5.4,5.4 c -0.4,0.5 -0.8,0.9 -1.3,1.4 0.4,-0.4 0.9,-0.9 1.3,-1.4 m -5.4,5.5 c -0.6,0.7 -1.2,1.3 -1.9,2 0.7,-0.7 1.3,-1.3 1.9,-2 m -4.6,4.7 c -0.7,0.8 -1.5,1.5 -2.2,2.2 0.6,-0.6 1.6,-1.5 2.2,-2.2 m -4.4,4.5 c -2,2 -3.9,4 -5.9,5.9 1.3,-1.3 2.4,-2.3 3.6,-3.6 0.2,-0.2 0.6,-0.6 0.8,-0.8 0.4,-0.4 1.1,-1.1 1.5,-1.5 m -6.3,6.3 c -1.2,1.2 -2.4,2.4 -3.6,3.6 1.1,-1 2.6,-2.5 3.6,-3.6"
         style="fill:#b5e7f9;fill-opacity:1;fill-rule:nonzero;stroke:none"
         id="path138" />
      <path
         d="m 12657.7,23502.8 v 0 c -44,15.6 -87.5,30.5 -130.5,44.4 43,-13.9 86.5,-28.8 130.5,-44.4"
         style="fill:#dffcff;fill-opacity:1;fill-rule:nonzero;stroke:none"
         id="path140" />
      <path
         d="m 12793,23453.1 c -45.5,17.3 -90.6,33.9 -135.3,49.7 v 0 c 44.7,-15.8 89.9,-32.4 135.3,-49.6 0,-0.1 0,-0.1 0,-0.1"
         style="fill:#ffffff;fill-opacity:1;fill-rule:nonzero;stroke:none"
         id="path142" />
      <path
         d="m 12527.1,23547.2 c -0.6,0.2 -1.3,0.5 -2,0.7 0.7,-0.2 1.4,-0.5 2,-0.7 m -2.7,0.9 c -0.5,0.2 -1,0.3 -1.5,0.5 0.5,-0.2 1,-0.3 1.5,-0.5 m -4,1.3 c 0,0 0,0 -0.1,0 0.1,0 0.1,0 0.1,0 m -61.2,19.2 c -0.1,0 -0.3,0.1 -0.4,0.1 0.1,-0.1 0.3,-0.1 0.4,-0.1"
         style="fill:#dffcff;fill-opacity:1;fill-rule:nonzero;stroke:none"
         id="path144" />
      <path
         d="m 12459.2,23568.5 c 0,0.1 0,0.1 0,0.1 -0.1,0 -0.3,0 -0.4,0.1 h -0.1 c 0.2,0 0.4,-0.1 0.5,-0.2"
         style="fill:#b5e7f9;fill-opacity:1;fill-rule:nonzero;stroke:none"
         id="path146" />
      <path
         d="m 12457.2,23569.2 c -0.7,0.2 -1.4,0.4 -2.1,0.6 v 0 c 0.7,-0.2 1.4,-0.4 2.1,-0.6"
         style="fill:#dffcff;fill-opacity:1;fill-rule:nonzero;stroke:none"
         id="path148" />
      <path
         d="m 12457.2,23569.2 v 0 c -0.7,0.2 -1.4,0.4 -2.1,0.6 0.7,-0.2 1.4,-0.4 2.1,-0.6"
         style="fill:#b5e7f9;fill-opacity:1;fill-rule:nonzero;stroke:none"
         id="path150" />
      <path
         d="m 12455.1,23569.8 v 0 c 2.1,1.3 4,2.5 6.1,3.7 -2.1,-1.2 -4.1,-2.5 -6.1,-3.7 m 10.3,6.3 c 0.5,0.3 0.9,0.5 1.3,0.8 -0.4,-0.3 -0.9,-0.5 -1.3,-0.8"
         style="fill:#b5e7f9;fill-opacity:1;fill-rule:nonzero;stroke:none"
         id="path152" />
      <path
         d="m 14368.4,22901.3 c -332.7,0 -980.4,326.6 -1575.4,551.9 0,-0.1 0,-0.1 0,-0.1 595.1,-225.3 1242.7,-551.8 1575.4,-551.8 v 0 m 0,0 c 9,0 17.8,0.3 26.3,0.8 2.7,1.5 5.6,3.1 8.4,4.7 -2.8,-1.6 -5.6,-3.2 -8.4,-4.7 -8.6,-0.5 -17.3,-0.8 -26.3,-0.8 m 52,15.1 c 1094.8,609.8 2287.3,978.6 3629.3,978.6 607,0 1244.6,-75.5 1917.5,-238.2 l 1.3,-0.9 c -673.8,163 -1312,238.6 -1919.7,238.6 -1341.5,0 -2533.9,-368.5 -3628.4,-978.1"
         style="fill:#ffffff;fill-opacity:1;fill-rule:nonzero;stroke:none"
         id="path154" />
      <path
         d="m 14368.4,22901.3 c -332.7,0 -980.3,326.5 -1575.4,551.9 205.7,146.5 399.2,297.7 580.1,453.7 266.8,-136.8 501.3,-239 661.4,-246.2 947.5,411.6 1944,654.5 3011.5,654.5 849.9,0 1745,-154.1 2695.6,-499.5 l 225.6,-158.9 c -672.9,162.7 -1310.5,238.2 -1917.5,238.2 -1342,0 -2534.5,-368.8 -3629.3,-978.6 -5.8,-3.2 -11.5,-6.4 -17.3,-9.6 -2.8,-1.6 -5.7,-3.2 -8.4,-4.7 -8.5,-0.5 -17.3,-0.8 -26.3,-0.8 v 0"
         style="fill:#b5e7f9;fill-opacity:1;fill-rule:nonzero;stroke:none"
         id="path156" />
      <path
         d="m 12527.2,23547.2 c 0,0 0,0 -0.1,0 0.1,0 0.1,0 0.1,0 m -2.1,0.7 c -0.2,0.1 -0.5,0.1 -0.7,0.2 0.2,-0.1 0.5,-0.1 0.7,-0.2 m -2.2,0.7 c -0.8,0.2 -1.6,0.5 -2.5,0.8 0.3,-0.1 0.6,-0.2 0.8,-0.3 0.4,-0.1 0.7,-0.2 1,-0.3 0.3,-0.1 0.5,-0.1 0.7,-0.2"
         style="fill:#dffcff;fill-opacity:1;fill-rule:nonzero;stroke:none"
         id="path158" />
      <path
         d="m 12522.2,23548.8 c -0.3,0.1 -0.6,0.2 -1,0.3 0.4,-0.1 0.7,-0.2 1,-0.3"
         style="fill:#b5e7f9;fill-opacity:1;fill-rule:nonzero;stroke:none"
         id="path160" />
      <path
         d="m 12520.3,23549.4 c -7.6,2.5 -15.2,4.9 -22.8,7.3 6.9,-2.2 13.9,-4.4 20.8,-6.6 0.1,0 0.1,-0.1 0.1,-0.1 0.6,-0.2 1.1,-0.3 1.7,-0.5 0.1,0 0.2,-0.1 0.2,-0.1 m -24.3,7.8 c -11.6,3.6 -23,7.2 -34.5,10.7 11.5,-3.5 22.9,-7.1 34.5,-10.7"
         style="fill:#dffcff;fill-opacity:1;fill-rule:nonzero;stroke:none"
         id="path162" />
      <path
         d="m 12520.1,23549.5 c -0.6,0.2 -1.1,0.3 -1.7,0.5 0.6,-0.1 1.1,-0.3 1.7,-0.5 m -1.8,0.6 c -6.9,2.2 -13.9,4.4 -20.8,6.6 -0.5,0.1 -1,0.3 -1.5,0.5 -11.6,3.6 -23,7.2 -34.5,10.7 -0.7,0.2 -1.5,0.4 -2.3,0.6 19.6,-5.9 39.3,-12.1 59.1,-18.4 m -59.6,18.6 c -0.5,0.2 -1,0.3 -1.5,0.5 0.5,-0.2 1,-0.3 1.5,-0.5"
         style="fill:#b5e7f9;fill-opacity:1;fill-rule:nonzero;stroke:none"
         id="path164" />
      <path
         d="m 12461.2,23573.5 c 1.4,0.9 2.8,1.8 4.2,2.6 -1.4,-0.8 -2.8,-1.7 -4.2,-2.6"
         style="fill:#dffcff;fill-opacity:1;fill-rule:nonzero;stroke:none"
         id="path166" />
      <path
         d="m 12466.7,23576.9 c 27.3,16.8 54.4,33.6 81.4,50.5 0.1,0 0.1,0.1 0.2,0.1 -27,-16.9 -54.3,-33.8 -81.6,-50.6"
         style="fill:#dffcff;fill-opacity:1;fill-rule:nonzero;stroke:none"
         id="path168" />
      <path
         d="m 12548.1,23627.4 c 207.6,130.3 404.4,264.7 591.2,402.9 0.2,-0.2 0.5,-0.3 0.7,-0.4 -186.6,-138.2 -384,-272.3 -591.7,-402.4 -0.1,0 -0.1,-0.1 -0.2,-0.1"
         style="fill:#b5e7f9;fill-opacity:1;fill-rule:nonzero;stroke:none"
         id="path170" />
      <path
         d="m 12657.7,23502.8 v 0 c -44,15.6 -87.5,30.5 -130.5,44.4 0,0 0,0 -0.1,0 -0.6,0.2 -1.3,0.5 -2,0.7 -0.2,0.1 -0.5,0.1 -0.7,0.2 -0.5,0.2 -1,0.3 -1.5,0.5 -0.2,0.1 -0.4,0.1 -0.7,0.2 44.6,-14.4 89.8,-29.7 135.5,-46"
         style="fill:#f2feff;fill-opacity:1;fill-rule:nonzero;stroke:none"
         id="path172" />
      <path
         d="m 12793,23453.2 c -45.4,17.2 -90.6,33.8 -135.3,49.6 v 0 c 44.7,-15.8 89.9,-32.4 135.3,-49.6 0,-0.1 0,-0.1 0,-0.1"
         style="fill:#ffffff;fill-opacity:1;fill-rule:nonzero;stroke:none"
         id="path174" />
      <path
         d="m 12521.2,23549.1 c -0.2,0.1 -0.5,0.2 -0.8,0.3 0,0 0,0 -0.1,0 0,0 -0.1,0.1 -0.2,0.1 0.3,-0.1 0.7,-0.3 1.1,-0.4 m -2.8,0.9 c 0,0 0,0.1 -0.1,0.1 0.1,0 0.1,-0.1 0.1,-0.1"
         style="fill:#f2feff;fill-opacity:1;fill-rule:nonzero;stroke:none"
         id="path176" />
      <path
         d="m 12793,23453.2 c -45.4,17.2 -90.6,33.8 -135.3,49.6 -45.7,16.3 -90.9,31.6 -135.5,46 -0.3,0.1 -0.6,0.2 -1,0.3 -0.4,0.1 -0.8,0.3 -1.1,0.4 -0.6,0.2 -1.1,0.4 -1.7,0.5 0,0 0,0.1 -0.1,0.1 -19.8,6.3 -39.5,12.5 -59.1,18.4 -0.1,0.1 -0.3,0.2 -0.5,0.2 -0.5,0.2 -1,0.3 -1.5,0.5 -0.7,0.2 -1.4,0.4 -2.1,0.6 v 0 c 2,1.2 4,2.5 6.1,3.7 1.4,0.9 2.8,1.8 4.2,2.6 0.4,0.3 0.9,0.5 1.3,0.8 237.7,145.9 462.4,296.9 673.3,453 79.7,-42.9 157.7,-84.3 233.1,-123 -180.9,-156 -374.4,-307.2 -580.1,-453.8"
         style="fill:#e1f5fd;fill-opacity:1;fill-rule:nonzero;stroke:none"
         id="path178" />
      <path
         d="m 24608.5,20925.3 c -0.1,0.3 -0.3,0.7 -0.4,1 0.1,-0.2 0.2,-0.4 0.2,-0.5 0.1,-0.2 0.1,-0.3 0.2,-0.5"
         style="fill:#379dd6;fill-opacity:1;fill-rule:nonzero;stroke:none"
         id="path180" />
      <path
         d="m 24571.3,21026.8 c -5.9,15.7 -11.8,31.2 -17.8,46.6 v 0.1 c 6,-15.5 11.9,-31 17.8,-46.7 v 0"
         style="fill:#8dc6e3;fill-opacity:1;fill-rule:nonzero;stroke:none"
         id="path182" />
      <path
         d="m 24161.5,21847.8 c -4,6.1 -7.9,12.1 -11.9,18.1 -0.1,0.1 -0.1,0.3 -0.1,0.4 4,-6.1 8,-12.1 12,-18.2 0,-0.1 0,-0.2 0,-0.3"
         style="fill:#cccce3;fill-opacity:1;fill-rule:nonzero;stroke:none"
         id="path184" />
      <path
         d="m 24553.5,21073.4 v 0.1 -0.1"
         style="fill:#719ecc;fill-opacity:1;fill-rule:nonzero;stroke:none"
         id="path186" />
      <path
         d="m 24553.5,21073.5 c -115.5,297.1 -247.5,553.6 -392,774.3 0,0.1 0,0.2 0,0.3 144.5,-220.7 276.5,-477.5 392,-774.6 v 0"
         style="fill:#a3a3cc;fill-opacity:1;fill-rule:nonzero;stroke:none"
         id="path188" />
      <path
         d="m 24535.9,25423.5 c -1.5,1.5 -3.2,3.3 -4.7,4.8 1.6,-1.6 3.1,-3.2 4.7,-4.8 m -6.3,6.4 c -1,1.1 -2,2.1 -3.1,3.2 1.1,-1.1 2.1,-2.1 3.1,-3.2 m -4.9,5 c -1,1.1 -2.4,2.5 -3.4,3.5 1.1,-1.1 2.3,-2.3 3.4,-3.5 m -5.2,5.3 c -1.3,1.3 -2.5,2.6 -3.8,3.9 h -0.1 c 1.3,-1.2 2.6,-2.6 3.9,-3.9 m -5.8,5.9 c -1.1,1.1 -1.6,1.6 -2.6,2.7 0.8,-0.9 1.7,-1.8 2.6,-2.7 m -4.9,5 c -0.9,0.8 -1.3,1.3 -2.2,2.1 0.7,-0.7 1.5,-1.4 2.2,-2.1 m -12.2,12.2 -0.3,0.4 c 0.1,-0.1 0.2,-0.2 0.3,-0.4"
         style="fill:#8dc6e3;fill-opacity:1;fill-rule:nonzero;stroke:none"
         id="path190" />
      <path
         d="m 24610.4,20919.9 v 0 c -0.5,1.4 -1,2.7 -1.5,4.1 0.5,-1.4 1,-2.7 1.5,-4.1 m -2.1,5.9 c 0,0.1 -0.1,0.3 -0.2,0.5 -0.1,0.2 -0.2,0.5 -0.3,0.8 0.2,-0.5 0.4,-0.9 0.5,-1.3 m -37,101 c -5.9,15.7 -11.8,31.2 -17.8,46.7 v 0 c -115.5,297.1 -247.5,553.9 -392,774.6 -4,6.1 -8,12.1 -12,18.2 -269.4,1037.6 -238.1,2119.7 4.8,3233.3 53.9,-53.1 107.5,-106.7 161.4,-161.6 -182,-1283.6 -110,-2503.3 342.5,-3627.2 l -86.9,-284 m -55.6,4417.3 h -0.1 v 0 h 0.1 m -2,2 c -1,1 -1.7,1.7 -2.7,2.7 0,0 0,0 0.1,0 1,-1.1 1.5,-1.6 2.6,-2.7 v 0 m -4.9,4.9 c -0.8,0.9 -1.4,1.5 -2.2,2.3 0,0 0,0 0,-0.1 0.9,-0.8 1.3,-1.3 2.2,-2.1 v -0.1 m -8.1,8.2 c -0.2,0.2 -0.2,0.2 -0.4,0.4 0.2,-0.1 0.3,-0.3 0.4,-0.4 m -4,4 c -0.2,0.3 -0.3,0.4 -0.5,0.6 0,0 0,0 0.1,-0.1 l 0.3,-0.4 c 0.1,0 0.1,0 0.1,-0.1"
         style="fill:#379dd6;fill-opacity:1;fill-rule:nonzero;stroke:none"
         id="path192" />
      <path
         d="m 24608.7,20924.6 c -0.1,0.2 -0.1,0.5 -0.2,0.7 -0.1,0.2 -0.1,0.3 -0.2,0.5 0.1,-0.4 0.3,-0.9 0.4,-1.2 m -1.6,4.5 c -0.2,0.7 -0.5,1.5 -0.7,2.2 0.2,-0.7 0.5,-1.5 0.7,-2.2 m -1.6,4.7 c -0.3,0.7 -0.6,1.4 -0.8,2.2 0.2,-0.7 0.5,-1.6 0.8,-2.2 m -1.6,4.5 c -0.3,0.8 -0.7,1.7 -1,2.6 0.4,-0.9 0.6,-1.7 1,-2.6 m -1.6,4.4 c -0.3,0.9 -0.7,1.9 -1,2.8 0.3,-0.9 0.7,-1.9 1,-2.8 m -1.6,4.4 c -0.4,1 -0.7,2 -1.1,3.1 0.4,-1 0.7,-2.1 1.1,-3.1"
         style="fill:#91b9de;fill-opacity:1;fill-rule:nonzero;stroke:none"
         id="path194" />
      <path
         d="m 24596.8,20958 c -8.4,23.2 -16.9,46.1 -25.5,68.8 v 0 c 8.6,-22.6 17.1,-45.7 25.5,-68.8 v 0"
         style="fill:#b2cae3;fill-opacity:1;fill-rule:nonzero;stroke:none"
         id="path196" />
      <path
         d="m 24599.4,20950.8 c -0.9,2.4 -1.8,4.8 -2.6,7.2 v 0 c 0.8,-2.4 1.7,-4.8 2.6,-7.2"
         style="fill:#91b9de;fill-opacity:1;fill-rule:nonzero;stroke:none"
         id="path198" />
      <path
         d="m 24535.9,25423.5 c -1.5,1.5 -3.2,3.3 -4.7,4.8 v 0 c 1.5,-1.5 3.2,-3.3 4.7,-4.8 v 0 m -6.2,6.4 c -1.1,1 -2.2,2.2 -3.3,3.3 l 0.1,-0.1 c 1.1,-1.1 2.1,-2.1 3.1,-3.2 0.1,0 0,0 0.1,0 m -4.9,4.9 c -1.2,1.3 -2.5,2.6 -3.8,3.8 0.1,0 0.2,-0.1 0.3,-0.2 1,-1 2.4,-2.4 3.4,-3.5 0.1,0 0.1,0 0.1,-0.1 m -5.1,5.2 c -1.3,1.3 -2.7,2.8 -4,4.1 1.3,-1.3 2.5,-2.6 3.8,-3.9 0,0 0.1,-0.1 0.2,-0.2"
         style="fill:#b2cae3;fill-opacity:1;fill-rule:nonzero;stroke:none"
         id="path200" />
      <path
         d="m 24610.4,20919.9 v 0 c -0.5,1.4 -1,2.7 -1.5,4.1 0,0.2 -0.1,0.4 -0.2,0.6 -0.1,0.3 -0.3,0.8 -0.4,1.2 -0.1,0.4 -0.3,0.8 -0.5,1.3 -0.2,0.7 -0.4,1.3 -0.7,2 -0.2,0.7 -0.5,1.5 -0.7,2.2 -0.3,0.8 -0.6,1.6 -0.9,2.5 -0.3,0.6 -0.6,1.5 -0.8,2.2 -0.3,0.7 -0.6,1.5 -0.8,2.3 -0.4,0.9 -0.6,1.7 -1,2.6 -0.2,0.6 -0.4,1.2 -0.6,1.8 -0.3,0.9 -0.7,1.9 -1,2.8 -0.2,0.5 -0.4,1 -0.6,1.6 -0.4,1 -0.7,2.1 -1.1,3.1 -0.1,0.2 -0.1,0.4 -0.2,0.6 -0.9,2.4 -1.8,4.8 -2.6,7.2 -8.4,23.1 -16.9,46.2 -25.5,68.8 l 86.9,284 c -452.5,1123.9 -524.5,2343.6 -342.5,3627.2 -53.9,54.9 -107.5,108.5 -161.4,161.6 18.1,82.8 37.3,165.7 57.7,248.9 -554.3,689.6 -1122.6,1261.4 -1699.1,1721.9 659.4,-406.6 1322.6,-939.4 1983.3,-1606.6 0.2,-0.2 0.3,-0.3 0.5,-0.6 1.2,-1.2 2.4,-2.4 3.6,-3.6 0.2,-0.2 0.2,-0.2 0.4,-0.4 2,-1.9 3.9,-3.9 5.9,-5.9 0.8,-0.8 1.4,-1.4 2.2,-2.3 0.7,-0.7 1.5,-1.4 2.2,-2.2 1,-1 1.7,-1.7 2.7,-2.7 0.7,-0.7 1.3,-1.3 1.9,-2 h 0.1 c 1.3,-1.3 2.7,-2.8 4,-4.1 0.5,-0.5 0.9,-0.9 1.3,-1.4 1.3,-1.2 2.6,-2.5 3.8,-3.8 0.5,-0.5 1.1,-1.1 1.6,-1.6 1.1,-1.1 2.2,-2.3 3.3,-3.3 0.5,-0.5 1,-1.1 1.5,-1.6 1.5,-1.5 3.2,-3.3 4.7,-4.8 v 0 c -60.1,-423.7 -92.5,-840.4 -92.7,-1249 v 0 c -0.3,-829.3 132,-1625.2 435.2,-2378.1 l -268,-876.5"
         style="fill:#91b9de;fill-opacity:1;fill-rule:nonzero;stroke:none"
         id="path202" />
      <path
         d="m 28084.9,22840.2 c 894.1,-771.6 1491.3,-1807 1532.7,-3336.1 l -2184.4,-738.2 c 471.2,1070.3 522.1,2138.9 148.7,3205.8 l 503,868.5"
         style="fill:#45c4ef;fill-opacity:1;fill-rule:nonzero;stroke:none"
         id="path204" />
      <path
         d="m 27615.1,21873.4 c -10.7,32.8 -21.8,65.5 -33.2,98.3 v 0 c 11.4,-32.8 22.5,-65.5 33.1,-98.2 l 0.1,-0.1"
         style="fill:#8dc6cc;fill-opacity:1;fill-rule:nonzero;stroke:none"
         id="path206" />
      <path
         d="m 27615,21873.5 c -10.6,32.7 -21.7,65.4 -33.1,98.2 l 19.7,34 c 5.2,-44.1 9.7,-88.2 13.4,-132.2"
         style="fill:#379dbf;fill-opacity:1;fill-rule:nonzero;stroke:none"
         id="path208" />
      <path
         d="m 27435.7,18771.5 c 0.2,0.5 0.4,1 0.6,1.5 -0.2,-0.4 -0.4,-1 -0.6,-1.5 m 2.6,6 c 0.2,0.4 0.4,0.9 0.6,1.4 -0.2,-0.5 -0.4,-1 -0.6,-1.4 m 3,6.8 c 0.2,0.5 0.4,1 0.6,1.4 -0.2,-0.4 -0.4,-0.9 -0.6,-1.4 m 2.4,5.6 c 0.3,0.6 0.6,1.3 0.9,2 -0.4,-0.7 -0.6,-1.3 -0.9,-2 m 2.5,5.9 c 0.5,1 0.9,2 1.3,3 -0.4,-1 -0.8,-2 -1.3,-3 m 2.9,6.6 c 0.4,1 0.9,2 1.3,3 -0.5,-1.1 -0.8,-1.9 -1.3,-3 m 2.2,5 c 159,370 267.6,739.7 326.2,1109.2 l 0.3,0.1 c -58.5,-369.6 -167.4,-739.3 -326.5,-1109.3 m 2166.1,702.2 c 0,0.5 0,1.1 0,1.6 0,-0.6 0,-1.1 0,-1.6 m -0.1,5.9 c -0.1,0.4 -0.1,0.9 -0.1,1.3 0,-0.4 0,-0.9 0.1,-1.3 m -0.3,6.9 c 0,0.1 0,0.2 0,0.3 0,-0.1 0,-0.2 0,-0.3 m -0.1,5.5 c 0,0.5 0,0.8 -0.1,1.3 0.1,-0.4 0.1,-0.8 0.1,-1.3 m -0.2,6.6 v 0.2 c 0,-0.1 0,-0.1 0,-0.2 m -0.2,6.2 v 0.1 -0.1 m -0.2,6 v 0.2 c 0,0 0,-0.1 0,-0.2"
         style="fill:#8dc6e3;fill-opacity:1;fill-rule:nonzero;stroke:none"
         id="path210" />
      <path
         d="m 27433.2,18765.9 c 0.8,1.9 1.6,3.7 2.5,5.6 0.2,0.5 0.4,1.1 0.6,1.5 0.7,1.5 1.3,3 2,4.5 0.2,0.4 0.4,0.9 0.6,1.4 0.8,1.8 1.6,3.6 2.4,5.4 0.2,0.5 0.4,1 0.6,1.4 0.6,1.4 1.2,2.8 1.8,4.2 0.3,0.7 0.5,1.3 0.9,2 0.5,1.3 1.1,2.6 1.6,3.9 0.5,1 0.9,2 1.3,3 0.6,1.2 1.1,2.4 1.6,3.6 0.5,1.1 0.8,1.9 1.3,3 0.3,0.7 0.6,1.3 0.9,2 159.1,370 268,739.7 326.5,1109.3 l 1641.3,554.7 c -4.1,150 -13.7,295.1 -28.2,435.8 129.8,-404.8 208.2,-855.4 225.4,-1360.3 v -0.2 c 0,-2 0.1,-3.9 0.2,-5.9 v -0.1 c 0,-2 0.1,-4 0.2,-6 v -0.2 c 0,-1.7 0.1,-3.6 0.1,-5.3 0.1,-0.5 0.1,-0.8 0.1,-1.3 0,-1.7 0.1,-3.4 0.1,-5.2 0,-0.1 0,-0.2 0,-0.3 0.1,-1.9 0.2,-3.8 0.2,-5.6 0,-0.4 0,-0.9 0.1,-1.3 0,-1.4 0,-2.9 0.1,-4.3 0,-0.5 0,-1.1 0,-1.6 0.1,-1.8 0.1,-3.7 0.2,-5.5 l -2184.4,-738.2"
         style="fill:#379dd6;fill-opacity:1;fill-rule:nonzero;stroke:none"
         id="path212" />
      <path
         d="m 13447.5,21729 1439.3,-1510.2 1009.9,414.6 c 2328.9,-0.3 4335.4,787.4 6190.5,1945 -552.4,-726.1 -952.5,-1400.4 -970.8,-1945 -2292.3,-4159.4 -5108.1,-5925.8 -6229.6,-1978.8 -179.8,632.8 -179.8,1154.1 0,1564.2 L 13447.5,21729"
         style="fill:#000072;fill-opacity:1;fill-rule:nonzero;stroke:none"
         id="path214" />
      <path
         d="m 17269.6,16524.3 c 156.7,2592.4 1374.4,3384 3213,3121.4 -746.6,-1396 -1755.7,-2504.4 -3213,-3121.4"
         style="fill:#ff67a0;fill-opacity:1;fill-rule:nonzero;stroke:none"
         id="path216" />
      <path
         d="m 14917.8,18734.7 703.9,-147.5 -351.9,-785.6 -406.1,938.5"
         style="fill:#ffffff;fill-opacity:1;fill-rule:nonzero;stroke:none"
         id="path218" />
      <path
         d="m 15540.6,17131 492.3,431.4 304.7,-903.4 z"
         style="fill:#ffffff;fill-opacity:1;fill-rule:nonzero;stroke:none"
         id="path220" />
      <path
         d="m 17624,16659 67.5,1085.9 784.6,-404.2 z"
         style="fill:#ffffff;fill-opacity:1;fill-rule:nonzero;stroke:none"
         id="path222" />
      <path
         d="m 18987,17801.6 v 853 l 605.7,-188.7 z"
         style="fill:#ffffff;fill-opacity:1;fill-rule:nonzero;stroke:none"
         id="path224" />
      <path
         d="m 22738.3,24368.3 c 82.5,562.2 -222.1,1072.4 -680.5,1139.7 -458.4,67.4 -896.9,-333.7 -979.4,-895.9 -82.6,-562.1 222,-1072.3 680.4,-1139.7 458.4,-67.3 896.9,333.8 979.5,895.9"
         style="fill:#000072;fill-opacity:1;fill-rule:nonzero;stroke:none"
         id="path226" />
      <path
         d="m 22483.7,24648.7 c 31.4,213.5 -63.7,404.2 -212.4,426 -148.6,21.8 -294.5,-133.5 -325.9,-346.9 -31.3,-213.4 63.8,-404.1 212.4,-425.9 148.7,-21.9 294.6,133.4 325.9,346.8"
         style="fill:#ffffff;fill-opacity:1;fill-rule:nonzero;stroke:none"
         id="path228" />
      <path
         d="m 21675.2,23851.1 c -66.5,0.1 -137.1,89.9 -162.9,211.7 -27.7,131 7,249.2 77.5,264.2 4.9,1 9.9,1.5 14.9,1.5 66.4,0 137.1,-89.9 162.8,-211.7 27.7,-130.9 -6.9,-249.2 -77.4,-264.1 -5,-1 -9.9,-1.6 -14.9,-1.6"
         style="fill:#5959a3;fill-opacity:1;fill-rule:nonzero;stroke:none"
         id="path230" />
      <path
         d="m 17729.8,18536.3 c 274.8,528.1 704.2,892.3 1324.2,1054.7 -539.7,-153.2 -974.7,-484.2 -1281.9,-1031.9 -14.1,-7.5 -28.1,-15.1 -42.3,-22.8"
         style="fill:#000072;fill-opacity:1;fill-rule:nonzero;stroke:none"
         id="path232" />
      <path
         d="m 17772.1,18559.1 c 307.2,547.7 742.2,878.7 1281.9,1031.9 240.8,63.1 510.5,95.7 810.8,95.7 193,0 398.8,-13.4 617.8,-41 v 0 l -733.9,-991.1 c -180.7,195.7 -419,300.8 -723.9,300.8 -333.7,0 -747.4,-125.9 -1252.7,-396.3"
         style="fill:#cc5297;fill-opacity:1;fill-rule:nonzero;stroke:none"
         id="path234" />
      <path
         d="m 11596.8,26488.8 c 37,0 74.2,-10.2 107.2,-30.8 76.3,-47.7 111.9,-140 87.4,-226.5 -230,-813.8 -203.6,-1663.3 78.5,-2524.9 20,-61.2 9.7,-128.2 -27.7,-180.5 -936.5,-1310.5 -1049.4,-2432.9 -366.1,-3639.1 26.1,-46.2 33.1,-100.7 19.4,-151.9 -416,-1557.9 -222.1,-2504.4 592.9,-2893.5 74.2,-35.4 119.6,-112.2 114.8,-194.3 -42.2,-726.4 150.3,-1293.4 588.6,-1733.3 45,-45.2 66.1,-109.1 56.8,-172.2 -161.6,-1095.3 65.7,-1833.4 694.9,-2256.7 61.3,-41.3 95.2,-112.7 88.5,-186.3 -102,-1111.7 214.9,-1775.1 968.6,-2028.1 79.9,-26.8 134.8,-100.4 137.8,-184.6 28,-787.5 440.1,-1241.1 1297.1,-1427.6 32.5,-7.1 62.7,-22 88,-43.6 1820.5,-1547.1 4647.7,-2255.9 7202.6,-1805.7 1829.1,322.4 3242.2,1212.6 3978.9,2506.8 31.6,55.6 87.7,92.9 151.2,100.7 2548.1,311.2 3747.4,1356.4 3760.9,3284.3 -352.5,67.4 -663.9,-82.2 -969.5,-463.2 -41.9,-52.2 -107,-80.4 -173.7,-75 -701.2,55.7 -1430.6,-84.8 -2230,-429.1 -65.8,-28.4 -141.7,-19.8 -199.6,22.7 -57.8,42.4 -88.9,112.3 -81.6,183.6 54.3,531.2 -87.9,1007.3 -447.4,1498.2 -39.3,53.8 -49.7,123.4 -27.7,186.3 263.8,754.8 162.5,942.9 139.6,973 -16.1,20.9 -47.8,32.2 -94.6,33.7 -1145.7,-667.3 -1858.3,-2111.4 -890.5,-3868.2 47.5,-86.2 26,-194 -50.8,-255.5 -319.7,-255.7 -686.2,-353.6 -1060,-282.8 -498.1,94.2 -981,490.8 -1324.9,1088.2 -15.6,27.1 -24.8,57.6 -26.6,88.9 -96.6,1622.2 435.4,2982.8 1581.4,4043.8 22.1,20.4 48.5,35.7 77.2,44.6 897.9,280.1 1477.9,690.9 1723.9,1220.9 228,491.1 184,1118.5 -130.8,1864.9 -40.6,96.3 -1.3,207.6 90.8,256.9 749.1,401.4 1550.2,688.9 2383.9,855.7 -145,1236.3 -712.6,2258.4 -1775.6,3203.9 -40.9,36.4 -65.4,88 -67.6,142.7 l -40.5,970.8 c -2.9,70.1 30.7,136.7 88.7,176 58.1,39.3 132.3,45.7 196.4,16.9 1135.6,-510.7 2350,-677.5 3609.7,-495.8 2094.8,1266.1 2616.6,3996.2 2041.1,5934.2 -409,1377.3 -1316.6,2171.4 -2428.4,2123.8 -4.8,-0.2 -9.6,-0.2 -14.5,-0.1 l -2083.2,60.7 c -13.8,0.4 -27.3,2.2 -40.5,5.3 -293.8,-117.6 -1610.9,-1243.8 -1947.3,-2196.4 -34.7,-98 -138,-153.8 -238.9,-129.1 -1298,318.1 -1651.7,-7.6 -1804.9,-280.2 -38.8,-69.1 -114.5,-109.3 -193.5,-102.4 l -9937.6,849.4 c -66.5,5.7 -125.9,43.8 -158.8,101.9 -254.6,449.8 -771,672.1 -1578.7,679.5 -104.9,0.9 -191.6,81.9 -199.8,186.4 -209.6,2674.2 -1454,3085.7 -2768.3,3130.6 H 8392.56 c -565.28,-189.9 -1114.16,-769.9 -1548.49,-1637.4 -433.86,-866.6 -697.7,-1928.4 -723.87,-2913.1 -44.66,-1680.5 582.61,-2891.8 1722.02,-3328.3 l 1859.67,-212.5 c 765.31,-62.7 1341.21,88.4 1760.21,462.1 38.1,33.9 86.2,51.3 134.7,51.3 z M 21778.3,6271.7 c -2168.8,0 -4351.6,723.7 -5878.5,2002.7 -956.3,222.9 -1479.5,781.1 -1557.3,1660.7 -826.3,336.5 -1203.6,1104 -1122.7,2284.2 -668.7,506.8 -932.6,1341.1 -785.1,2482.9 -441.9,481.3 -657.1,1098.1 -640.6,1836.7 -891.6,503.3 -1130.4,1585.9 -710.2,3221.2 -701.8,1291.4 -583.7,2540.8 370.7,3918 -224,729.3 -279.2,1451.8 -165.2,2155.3 -441.7,-226 -985.8,-313.7 -1624.04,-260.9 -2.1,0.2 -4.2,0.4 -6.3,0.7 l -1887.74,215.7 c -16.24,1.9 -32.2,5.7 -47.53,11.4 -1325.91,493.1 -2057.79,1851.4 -2007.96,3726.6 27.68,1041.9 307.08,2165.8 766.53,3083.5 491.23,981.2 1136.84,1638.7 1817.94,1851.6 19.53,6.1 39.87,9.2 60.33,9.2 h 1806.87 c 2.2,0 4.5,0 6.8,-0.1 630,-21.2 1356.7,-109.5 1969.6,-603.8 662.2,-534 1047.6,-1424.4 1175.6,-2718.4 811.5,-39.9 1365.4,-298.2 1686.4,-786.2 l 9714.2,-830.4 c 487.3,675 1499.5,517.6 2011.2,402.5 450.6,1002.9 1779.9,2210.9 2205.8,2297 62.3,12.6 112.7,6.7 152.4,-7.1 l 2030.7,-59.1 c 1305.4,51.7 2361.6,-849.4 2826,-2413.1 622,-2095 42.6,-5056.2 -2256.6,-6417.7 -22.4,-13.3 -47.2,-22.1 -73.1,-26 -1242,-186.1 -2443.7,-53.1 -3576.5,395.1 l 23.6,-566.8 c 1154.7,-1048.9 1747.5,-2193.6 1863.8,-3596.1 8.6,-104 -63.4,-197.5 -166.2,-215.8 -798.3,-142 -1567.1,-399.2 -2287.7,-765.2 296,-782.6 314.8,-1461.2 55.8,-2019.2 -291.8,-628.5 -939.8,-1107 -1926.1,-1422.7 -1033.4,-972.5 -1499,-2165.4 -1422.3,-3644.2 282.2,-472.1 654.1,-781.6 1025.6,-851.8 207.5,-39.3 407.4,-3.1 596.2,107.4 -973.9,1939.6 -91.5,3569.1 1174.6,4278.9 26,14.5 54.8,23.2 84.5,25.3 267.4,18.6 412.1,-93 486.6,-190.5 175.2,-229 161.2,-628.5 -45.1,-1252.8 303.1,-441.4 459.6,-891.8 473.9,-1366.4 710.6,269.4 1376.1,383.8 2023.7,349.1 542.1,618.9 1101.3,603.1 1481.6,475.1 80.7,-27.1 135.7,-101.8 137.7,-186.8 53.3,-2216.8 -1260.2,-3471.5 -4015.1,-3833.6 -810,-1352.8 -2300.1,-2280.6 -4208.8,-2617 -531.4,-93.6 -1074.3,-139.1 -1618,-139.1"
         style="fill:#000072;fill-opacity:1;fill-rule:nonzero;stroke:none"
         id="path236" />
      <path
         d="m 27724.6,23838.7 c -701.8,399.3 -1187,1294.5 -1366.3,2520.8 -163.4,1117.6 -52.6,2358.2 304,3403.7 l 382.9,-130.6 c -652.8,-1913.9 -410.8,-4708.2 879.4,-5442.4 l -200,-351.5"
         style="fill:#000072;fill-opacity:1;fill-rule:nonzero;stroke:none"
         id="path238" />
      <path
         d="m 9851.72,25572.8 c -1289.92,506.5 -2036.75,1715.5 -2102.91,3404.2 -41.45,1058.8 195.22,2274.8 649.34,3336.2 453.32,1059.6 1065.99,1838.7 1680.85,2137.7 l 176.9,-363.9 c -520.91,-253.2 -1076.35,-975.8 -1485.85,-1932.9 -431.32,-1008.2 -656.22,-2160.4 -617.02,-3161.3 42.07,-1074.2 396.59,-2474.2 1846.54,-3043.5 l -147.85,-376.5"
         style="fill:#000072;fill-opacity:1;fill-rule:nonzero;stroke:none"
         id="path240" />
      <path
         d="m 12794.8,28431.1 c -377,0 -600.2,171 -713,296 -314.7,348.8 -366.6,961.8 -129.2,1525.3 229.3,544.5 668,881.6 1173.3,901.6 l 16,-404.2 c -496.5,-19.6 -736.4,-464.2 -816.5,-654.4 -172.1,-408.6 -148.2,-870.1 56.7,-1097.3 125.2,-138.8 302.7,-172.7 476.5,-160.2 -168.2,319.7 -75.2,537.4 -16.3,628 183,281.8 613.9,360.9 1201.6,228 13.8,225.8 81.7,395.6 205.1,514.9 151.3,146.5 375.1,200.8 665,161.5 l -54.3,-400.9 c -161,21.8 -271.8,4.6 -329.4,-51.3 -72.8,-70.4 -99.8,-237 -76,-469.3 6.9,-67.5 -20.5,-134 -73.1,-177 -52.4,-43 -123.1,-56.9 -187.9,-36.8 -622.3,192.6 -946,111.9 -1011.8,10.6 -40,-61.6 -2.3,-213 172,-412.3 45.2,-51.7 61.2,-122.7 42.3,-188.7 -18.8,-66 -69.9,-118 -135.5,-138 -176.2,-53.6 -330.7,-75.5 -465.5,-75.5"
         style="fill:#000072;fill-opacity:1;fill-rule:nonzero;stroke:none"
         id="path242" />
      <path
         d="m 13740.7,27756.2 c -303.9,113.6 -658.1,285.3 -747.1,631.2 -34.3,133.1 -17.5,280.8 27.2,403.9 l 49.6,66.3 c 24.9,33.4 65.4,48.5 104,42.9 l 728.1,-106 -674.2,-294.8 153.5,109.2 c -261.6,-313.6 122.5,-655.3 358.9,-852.7"
         style="fill:#000072;fill-opacity:1;fill-rule:nonzero;stroke:none"
         id="path244" />
      <path
         d="m 11796.5,26254.7 -399.5,63.6 c 85.2,534.6 287.2,980.3 482.4,1411.3 155.9,344 303.1,669 378.1,1013.5 l 395.2,-86 c -84.1,-386.4 -247.2,-746.3 -404.8,-1094.4 -184.2,-406.7 -374.7,-827.2 -451.4,-1308"
         style="fill:#000072;fill-opacity:1;fill-rule:nonzero;stroke:none"
         id="path246" />
      <path
         d="m 24853,17054.3 c -173.5,-616.4 -539.2,-1300.6 -1235.1,-1419 -107.2,-13.1 -204.7,62.4 -220,168.1 -110.1,680.5 -166.6,1374.6 -57,2064.3 103.1,705 465.9,1421.5 1091.4,1806.8 l -92,-193.2 c -44.2,401.7 -54.9,812.1 -2.8,1221.5 51.2,408.6 169.7,815.3 361.2,1186.5 l -12,-157.4 c -542.5,1573.5 -765.8,3460.6 225.8,4909.7 l 5.2,-232.2 c -106.7,146.3 -210,296.4 -303.1,456.7 -338.8,555.5 -536.7,1316.2 209.8,1641.8 l -81.5,-305.8 c -100.1,186.7 -125.6,404.3 -92.9,604.3 30,188.6 97.5,355.9 174.4,514 -12.3,-175.2 -9.7,-351.4 27.8,-509.1 34,-144.4 102.9,-280.1 215.6,-368.2 72.8,-58.2 84.8,-164.4 26.6,-237.3 -25.3,-36.1 -70.3,-51.8 -108.1,-68.6 -64.9,-28.4 -120.9,-63.6 -163.7,-103.2 -252.2,-246.8 -8.5,-693.6 141.3,-963.9 83.5,-143.9 179.8,-284 280.2,-421.8 51.3,-70.3 50.2,-163.1 4.6,-231.5 -215.8,-322.7 -377.4,-679.3 -479.5,-1054.2 -313.1,-1156.5 -70.8,-2383.5 300.9,-3501.8 18,-53.8 11.9,-110.5 -12.1,-157.3 -167.9,-326.1 -272.9,-683.2 -319.2,-1051.9 -47.1,-369 -38,-747.8 3.4,-1124.6 8.7,-79.1 -29.5,-152.7 -91.9,-193.2 -532.5,-332.8 -816.3,-919.1 -910.2,-1531.3 -101.3,-635.6 -46.6,-1295.6 56.8,-1932.9 l -220,168.1 c 591.5,3 961.4,556.4 1212.2,1041.8 8.5,17 29.2,24 46.3,15.4 15.1,-7.5 22.2,-24.9 17.6,-40.6"
         style="fill:#000072;fill-opacity:1;fill-rule:nonzero;stroke:none"
         id="path248" />
      <path
         d="m 28065.3,23072 c 63.2,-359.2 -80.4,-764.3 -337.1,-1017.4 l 43.4,209.7 c 340.8,-910 480.3,-1955.6 105.4,-2881.2 -123.3,-309.5 -296.2,-597.1 -501,-854.5 -17.1,-22.3 -40.2,-51.5 -69.5,-55.7 l -917.9,-222.8 740.5,586.3 c 0.2,0.3 -70.3,-56.7 -69.2,-55.4 367.9,457 595,1012.5 630,1598.7 39.8,592 -93,1186.4 -297.7,1744.3 -27.5,74.8 -7.9,155.5 43.3,209.8 91,95.8 160.8,202 199.5,316.4 39.2,114.1 48,237.3 29.8,365.1 l 400.5,56.7"
         style="fill:#000072;fill-opacity:1;fill-rule:nonzero;stroke:none"
         id="path250" />
      <path
         d="m 25518.8,9391.2 c -1096.4,82.9 -1680.1,972.7 -1738.7,2006.2 l 403.2,32.8 c 39.4,-425 108.8,-852.3 335.1,-1215.5 229.9,-375.9 606.1,-618.5 1000.4,-823.5"
         style="fill:#000072;fill-opacity:1;fill-rule:nonzero;stroke:none"
         id="path252" />
      <path
         d="m 24794.8,28286.5 -10559.7,940.3 35.9,402.9 10559.7,-940.3 -35.9,-402.9"
         style="fill:#000072;fill-opacity:1;fill-rule:nonzero;stroke:none"
         id="path254" />
      <path
         d="m 24371.8,25148.4 c -1235.1,1715.5 -3107.1,2693.8 -5147.1,2693.8 -29.6,0 -59,-0.2 -88.6,-0.6 -1676.7,-23.3 -3144.7,-725.2 -3926.9,-1877.7 -30.1,-44.4 -76.7,-75 -129.4,-85.1 -52.8,-10 -107.3,1.3 -151.7,31.5 -394,268.2 -588.3,785.5 -594.1,1581.6 -0.5,68.6 33.8,132.8 91.2,170.5 450.3,295.6 645.5,834 596.8,1645.9 l 403.8,24.2 c 54.1,-902.4 -176.4,-1555.1 -685.3,-1942.3 14.7,-464.2 105.5,-802.5 270.7,-1009.9 882.5,1148.8 2402.9,1841.9 4119.3,1865.7 1021.5,13.9 2052.8,-215.8 2980.7,-665.1 1026.5,-497 1897.5,-1235.9 2588.8,-2196.1 l -328.2,-236.4"
         style="fill:#000072;fill-opacity:1;fill-rule:nonzero;stroke:none"
         id="path256" />
      <path
         d="m 15212.7,25969.2 c -539.8,-908.2 -1291.9,-1705.5 -2177.7,-2292.5 -66,-44.7 -201.1,-129.7 -269.5,-170.6 l -67.4,-41.3 c -133.3,-78.2 -224.7,-224.4 -227.4,-379.3 -1.3,-34.4 6.6,-98.4 8.4,-134.6 62.2,-1008.4 336.8,-1991.3 699.1,-2933.2 295.9,-759.6 638.1,-1502.7 913.1,-2293.5 -1100.5,1384.2 -1921.1,3424.8 -2069.1,5193.9 -60,420.2 132.1,782.1 501.2,985.1 64.1,38.2 190.4,120.4 252.1,162.3 500,330.5 954.7,726.3 1357.6,1170.4 268.5,298.1 513.7,616.5 738,949.9 l 341.6,-216.6"
         style="fill:#000072;fill-opacity:1;fill-rule:nonzero;stroke:none"
         id="path258" />
      <path
         d="m 12595.5,14966.5 c 1099.6,330.3 2272.8,-58.6 3216.5,-634.8 310.9,-190.9 606.4,-402.7 881.7,-639.1 -768.7,348.8 -1533.1,710 -2357.6,884.3 -73.4,14.3 -178.8,32.1 -253.4,45.7 -74.2,7.6 -180.7,22.6 -254,29.8 -378.2,30.8 -760.3,9.8 -1127.2,-76.3 l -106,390.4"
         style="fill:#000072;fill-opacity:1;fill-rule:nonzero;stroke:none"
         id="path260" />
      <path
         d="m 12864.2,18654.6 c -174.8,-322.5 -333.4,-653.1 -452.1,-992.7 -118.9,-339.1 -196,-687.5 -210.6,-1031.4 l -400.5,57 c 173.4,748.3 592.7,1386.1 1063.2,1967.1"
         style="fill:#000072;fill-opacity:1;fill-rule:nonzero;stroke:none"
         id="path262" />
      <path
         d="m 15534,13045.3 c -117.8,-1454.7 182.9,-2377.1 836.1,-3654.1 -991,891.4 -1308.6,2420.5 -836.1,3654.1"
         style="fill:#000072;fill-opacity:1;fill-rule:nonzero;stroke:none"
         id="path264" />
      <path
         d="m 13447.5,21729 1585.7,-1370.7 -223.1,47.6 1009.7,414.6 c 24.8,10.2 51.7,15 76.9,15.2 1075.9,-0.3 2147.7,177.9 3169.2,515.4 1023.5,336.1 1995.3,825 2914.2,1398.9 186.8,116.2 402.9,-114.6 268.8,-293.2 -319.8,-427.9 -634,-864.8 -824.7,-1358.6 -59,-158.2 -98.7,-318.8 -105.7,-471.6 -1.1,-32.4 -10.2,-64 -25,-90.8 -675.8,-1208.6 -1447.8,-2396.6 -2481.4,-3340.9 -1675.4,-1515.7 -3213.5,-1225.6 -3975.3,953 -238.5,680.1 -435.6,1451.5 -135.2,2152.1 l 370.5,-162.5 c -164.7,-377.6 -134.3,-817.5 -43.6,-1220.5 1272.3,-4953.9 4630.7,-599.8 5910.7,1814.1 l -25,-90.8 c 54.3,778.3 572.4,1457.9 1012,2060.6 l 268.1,-294.1 c -1407.4,-882.9 -2974.2,-1574.1 -4627.7,-1839.6 -551.8,-90.4 -1111,-135.5 -1670,-136 l 76.9,15.1 -1009.7,-414.6 -37.5,-11.3 c -70,-21.1 -143.2,4.7 -185.9,58.8 L 13447.5,21729"
         style="fill:#000072;fill-opacity:1;fill-rule:nonzero;stroke:none"
         id="path266" />
      <path
         d="m 15337.8,17668.7 -215.8,111.1 374.4,726.4 c 7.3,14.3 2.9,26.6 -0.4,32.7 -3.3,6.1 -11.2,16.5 -27.2,18.1 l -617.3,62.4 24.4,241.5 617.3,-62.4 c 91.5,-9.3 172.3,-63 216.1,-143.9 43.9,-80.8 44.9,-177.8 2.8,-259.5 l -374.3,-726.4"
         style="fill:#000072;fill-opacity:1;fill-rule:nonzero;stroke:none"
         id="path268" />
      <path
         d="m 16257.4,16492.3 -255,933 c -4.5,16.2 -16.2,22.4 -25.2,24.6 -9.1,2.4 -22.2,2.5 -33.8,-9.8 l -315,-330.5 -175.7,167.4 315,330.6 c 70,73.5 170.5,102.5 268.9,77.7 98.4,-24.9 173.1,-98.1 199.9,-196 l 255,-933 -234.1,-64"
         style="fill:#000072;fill-opacity:1;fill-rule:nonzero;stroke:none"
         id="path270" />
      <path
         d="m 17745.2,16652.3 -242.3,13.5 52.1,938 c 5.6,101.2 63.2,188.4 154,233.4 90.8,45 195.2,37.9 279,-19 l 666.7,-452 -136.1,-200.9 -666.8,452 c -13.9,9.4 -26.8,6.5 -35.1,2.4 -8.3,-4.2 -18.5,-12.6 -19.4,-29.4 l -52.1,-938"
         style="fill:#000072;fill-opacity:1;fill-rule:nonzero;stroke:none"
         id="path272" />
      <path
         d="m 18881.9,17643.9 -97.2,904.7 c -10.4,97.1 29.7,190.5 107.2,249.9 77.4,59.4 178,73.8 269.1,38.6 l 607.8,-235.1 -87.5,-226.4 -607.9,235.1 c -16,6.3 -28.1,-0.4 -33.9,-4.8 -5.8,-4.4 -15.2,-14.4 -13.4,-31.4 l 97.1,-904.7 -241.3,-25.9"
         style="fill:#000072;fill-opacity:1;fill-rule:nonzero;stroke:none"
         id="path274" />
      <path
         d="m 17152.2,16519.4 c -47.4,1192.7 336.2,2179.4 1080.3,2778.3 637.7,513.3 1486.9,681.6 2329.6,461.9 l -61.2,-234.9 c -767.7,200.2 -1539,48.5 -2116.2,-416.1 -682.7,-549.5 -1034.3,-1465.5 -990,-2579.5 l -242.5,-9.7"
         style="fill:#000072;fill-opacity:1;fill-rule:nonzero;stroke:none"
         id="path276" />
      <path
         d="m 14671.1,17967 c 336.9,-708.4 601.1,-1520.2 1141.2,-2086.2 737.6,-775 1798.6,-373 2549.5,161.3 1171.7,833.5 2049.2,1990.6 2849,3178.8 -539.4,-1126.4 -1240.3,-2194.5 -2149.9,-3059.3 -765.2,-724 -1906.2,-1456.8 -2987.5,-986 -1031.6,492.2 -1430.5,1729.2 -1402.3,2791.4"
         style="fill:#000072;fill-opacity:1;fill-rule:nonzero;stroke:none"
         id="path278" />
      <path
         d="m 18379.1,8609.2 c 176.1,129.6 327.8,268.8 450.2,444.2 124.7,178.5 204.2,362.5 345.4,540.1 61.1,-465.7 -339.7,-929.2 -795.6,-984.3"
         style="fill:#000072;fill-opacity:1;fill-rule:nonzero;stroke:none"
         id="path280" />
      <path
         d="m 17637.5,9768.8 c 514.6,-8.5 908.5,78.5 1267.7,460.9 112.1,107.4 217,228.1 350.4,348.1 -71.7,-786.9 -948.3,-1167.4 -1618.1,-809"
         style="fill:#000072;fill-opacity:1;fill-rule:nonzero;stroke:none"
         id="path282" />
      <path
         d="m 17300.4,11413.8 c 450.2,22.7 926.7,47.2 1286.2,342.7 115.9,88.3 219.1,196.7 331.9,318 -115.6,-742.3 -1020,-880.1 -1618.1,-660.7"
         style="fill:#000072;fill-opacity:1;fill-rule:nonzero;stroke:none"
         id="path284" />
      <path
         d="m 18109.5,13247.6 c 380.4,14.5 747,13.7 1104.9,141.9 115.6,36 229.8,82.3 364.8,127.8 -257.1,-534.8 -1016.6,-544.6 -1469.7,-269.7"
         style="fill:#000072;fill-opacity:1;fill-rule:nonzero;stroke:none"
         id="path286" />
      <path
         d="m 24906.6,28443.9 c 145.2,-1.6 290.8,-6.1 437.7,-16.5 186.8,-18.6 394.8,-27.5 576.4,-123.8 96.3,-50.6 159.4,-170.5 117,-275.7 -26.5,-75.6 -83.2,-131.7 -136,-177.3 -127.1,-104.8 -256.9,-173.5 -388,-242.7 l 11.2,209.3 404.8,-411.5 -538.2,208.7 c -53.1,20.6 -79.5,80.4 -58.9,133.5 9.4,30.6 47.7,55.8 70.1,75.8 145.5,79.4 295.7,151.9 396.4,267.4 4.7,7.3 9.3,14.7 9,15.5 1.2,2.1 -2.1,-4.8 1.1,-12.8 -0.6,-3.4 2.4,-7.7 3.1,-9.2 -1.1,-1.2 3.4,-2.9 0.6,-1.5 -137.9,82.6 -316.3,83 -486.4,102.3 -139.4,9.8 -280.7,14.2 -422.4,15.8 l 2.5,242.7"
         style="fill:#000072;fill-opacity:1;fill-rule:nonzero;stroke:none"
         id="path288" />
      <path
         d="m 24679.5,15327.5 826.6,171.8 -15,-404.3 z"
         style="fill:#000072;fill-opacity:1;fill-rule:nonzero;stroke:none"
         id="path290" />
      <path
         d="m 24740.1,19541.3 -60.6,-775.4 -337,701 z"
         style="fill:#000072;fill-opacity:1;fill-rule:nonzero;stroke:none"
         id="path292" />
      <path
         d="m 27715.8,22042.6 -828.3,-462 560.5,765.1 z"
         style="fill:#000072;fill-opacity:1;fill-rule:nonzero;stroke:none"
         id="path294" />
      <path
         d="m 30610.6,23305 c -1447.5,752.6 -2243.3,2258.4 -2183.4,4131.5 65.9,2063.6 1130.1,4067.4 2475.4,4661 l 114.3,-259.1 c -1231.8,-543.5 -2245,-2481 -2306.7,-4411 -33.1,-1034.2 186.8,-2912.4 2031,-3871.2 l -130.6,-251.2"
         style="fill:#000072;fill-opacity:1;fill-rule:nonzero;stroke:none"
         id="path296" />
      <path
         d="m 24483,21012.6 c -761.1,1569.2 -1759.5,2176.4 -3052.1,1856.7 -245.8,-60.8 -504.9,-10.4 -711,138.4 l -664.8,480.2 c -1775.5,525.6 -3529.3,337.3 -5360.6,-575.4 -371.3,-185 -808.8,-148.2 -1141.5,96 -351.9,258.3 -740.9,350.5 -1189.8,282.1 l -42.7,280 c 519.3,79.1 990.4,-33.1 1400,-333.8 246.9,-181.2 571.7,-208.3 847.6,-70.9 1880.1,937.1 3761.2,1134.4 5591.1,586.4 15.1,-4.5 29.4,-11.5 42.2,-20.8 l 684.3,-494.2 c 138.4,-100 312.3,-133.9 477.1,-93.2 1422.6,352.2 2558,-323.5 3375,-2008 l -254.8,-123.5"
         style="fill:#000072;fill-opacity:1;fill-rule:nonzero;stroke:none"
         id="path298" />
      <path
         d="m 31694.6,26212.2 c -780.7,0 -1415.8,741.1 -1415.8,1652 0,910.8 635.1,1651.7 1415.8,1651.7 582.1,0 1113.2,-425.2 1321.7,-1058 l -268.9,-88.6 c -172.8,524.5 -586.1,863.4 -1052.8,863.4 -624.5,0 -1132.7,-613.9 -1132.7,-1368.5 0,-754.7 508.2,-1368.8 1132.7,-1368.8 518.1,0 969.4,423.6 1097.7,1030 l 277,-58.5 c -156.2,-738.8 -721.5,-1254.7 -1374.7,-1254.7"
         style="fill:#000072;fill-opacity:1;fill-rule:nonzero;stroke:none"
         id="path300" />
      <path
         d="m 32001.3,26278.4 c -599.3,204 -1017.8,856.2 -1017.8,1585.8 0,730 418.6,1381.9 1017.9,1585.5 l 91.1,-268.1 c -486.3,-165.2 -825.9,-706.9 -825.9,-1317.4 0,-610.3 339.7,-1152.2 826,-1317.7 l -91.3,-268.1"
         style="fill:#000072;fill-opacity:1;fill-rule:nonzero;stroke:none"
         id="path302" />
      <path
         d="m 11010.9,31467.5 c -241.8,0 -476.6,-116.4 -665.6,-331.2 -209.5,-238.2 -336.7,-566 -358.14,-923 -43.5,-723.6 365.34,-1339 911.34,-1371.8 545.4,-32.9 1025.6,529.3 1069.1,1252.8 43.5,723.6 -365.3,1339 -911.3,1371.8 -15.2,1 -30.3,1.4 -45.4,1.4 z m -67.6,-2910.5 c -20.5,0 -41.1,0.6 -61.8,1.8 -701.9,42.3 -1229.86,792.1 -1177,1671.5 25.22,419.6 177.29,807.7 428.2,1093 259.8,295.2 594.2,446.3 940.5,425.5 701.9,-42.2 1229.9,-792 1177.1,-1671.5 -51.3,-853.5 -631.2,-1520.3 -1307,-1520.3"
         style="fill:#000072;fill-opacity:1;fill-rule:nonzero;stroke:none"
         id="path304" />
      <path
         d="m 11229.9,28633.4 c -543.5,218.7 -892.6,875.3 -849,1596.9 39.7,662.5 407.5,1243 915.1,1444.6 l 104.5,-263.2 c -407.5,-161.8 -703.7,-643.4 -736.9,-1198.4 -36.4,-601.7 239.9,-1143.4 672,-1317.2 l -105.7,-262.7"
         style="fill:#000072;fill-opacity:1;fill-rule:nonzero;stroke:none"
         id="path306" />
      <path
         d="m 12021.7,29630.4 -677.7,20.4 c -46.6,1.4 -89.5,25.7 -114.8,64.9 -182.4,283.2 -183.1,591.4 -2.2,891.4 25.6,42.4 71.6,68.4 121.2,68.4 h 677.7 v -283.2 h -593.6 c -77.3,-160.6 -77.7,-309.7 -1,-460.8 l 598.9,-18.1 -8.5,-283"
         style="fill:#000072;fill-opacity:1;fill-rule:nonzero;stroke:none"
         id="path308" />
      <path
         d="m 32369.1,28284.1 c -59.6,0 -114.4,-37.1 -134.4,-91.8 -71.6,-195.2 -65.1,-341.5 20.4,-460.2 28.9,-40.1 75.9,-65.4 125.8,-67.6 l 1245.9,-56.4 c 149.1,402 43.9,561.3 -28,628.7 l -1224.2,47.2 c -1.9,0.1 -3.7,0.1 -5.5,0.1 z m 1351.8,-963.6 c -2.1,0 -4.3,0.1 -6.4,0.2 l -1346.5,60.9 c -137.5,6.2 -262.4,73.7 -342.6,185 -141.5,196.4 -160.5,439.7 -56.6,723.2 63.4,172.9 230.1,284.4 416.7,277.2 l 1272.5,-49.1 c 29.6,-1.1 58.1,-11.5 81.5,-29.7 285.8,-222.4 323.3,-586.4 111.5,-1081.7 -22.3,-52.3 -73.6,-86 -130.1,-86"
         style="fill:#000072;fill-opacity:1;fill-rule:nonzero;stroke:none"
         id="path310" />
      <path
         d="m 33625.3,27357.6 c -362.9,332.1 -392.3,725.5 -82.8,1107.9 l 220.1,-178.1 c -216,-266.9 -199.4,-489.2 53.8,-720.9 l -191.1,-208.9"
         style="fill:#000072;fill-opacity:1;fill-rule:nonzero;stroke:none"
         id="path312" />
    </g>
  </g>
</svg>
