<?xml version="1.0" encoding="UTF-8" standalone="no"?>
<!-- Created with Inkscape (http://www.inkscape.org/) -->

<svg
   version="1.1"
   id="svg2"
   width="5333.3335"
   height="5333.3335"
   viewBox="0 0 5333.3335 5333.3335"
   sodipodi:docname="sloth_health.eps"
   xmlns:inkscape="http://www.inkscape.org/namespaces/inkscape"
   xmlns:sodipodi="http://sodipodi.sourceforge.net/DTD/sodipodi-0.dtd"
   xmlns="http://www.w3.org/2000/svg"
   xmlns:svg="http://www.w3.org/2000/svg">
  <defs
     id="defs6" />
  <sodipodi:namedview
     id="namedview4"
     pagecolor="#ffffff"
     bordercolor="#000000"
     borderopacity="0.25"
     inkscape:showpageshadow="2"
     inkscape:pageopacity="0.0"
     inkscape:pagecheckerboard="0"
     inkscape:deskcolor="#d1d1d1" />
  <g
     id="g8"
     inkscape:groupmode="layer"
     inkscape:label="ink_ext_XXXXXX"
     transform="matrix(1.3333333,0,0,-1.3333333,0,5333.3333)">
    <g
       id="g10"
       transform="scale(0.1)">
      <path
         d="M 0,0 H 40000 V 40000 H 0 Z"
         style="fill:#7fffb5;fill-opacity:1;fill-rule:nonzero;stroke:none"
         id="path12" />
      <path
         d="m 21033.3,27042.3 c 0,0 796.2,-2595.9 -158.3,-6045.9 -954.5,-3450 -1816.7,-204.1 -1812.5,-154.1 4.2,50 104.2,2211.1 104.2,2211.1 l 1123.8,3211.5 -409.3,1146.2 1152.1,-368.8"
         style="fill:#be8560;fill-opacity:1;fill-rule:nonzero;stroke:none"
         id="path14" />
      <path
         d="m 19212.3,20833.8 c -0.1,-1.7 -0.2,-3 -0.3,-3.8 0.1,1.3 0.2,2.6 0.3,3.8 m 742.4,-1574 c -27.7,0 -55.7,2.6 -84,7.6 -619.6,110.4 -962.7,1527 -957.7,1587.3 4.1,57.3 76.3,1611.6 103.8,2205.7 0.7,14.5 3.5,28.8 8.3,42.6 l 1106.3,3161.4 -391.4,1096.3 c -27.9,78 12.8,163.8 90.8,191.7 77.9,27.9 163.9,-12.8 191.7,-90.8 l 409.2,-1146.2 c 11.6,-32.4 11.7,-67.6 0.4,-100 l -1116.6,-3190.8 c -17.9,-386.1 -91.4,-1972.8 -102.3,-2174.6 47.3,-239 397.4,-1273.4 729.1,-1289.4 87,-2.2 404.4,89 788.1,1475.8 932.2,3368.9 167.4,5936.4 159.6,5961.9 -24.3,79.2 20.2,163.1 99.4,187.4 79.1,24.3 163.1,-20.2 187.4,-99.4 33,-107.7 798,-2677.4 -157.2,-6129.8 -318.9,-1152.7 -659.2,-1696.6 -1064.9,-1696.7"
         style="fill:#5e3519;fill-opacity:1;fill-rule:nonzero;stroke:none"
         id="path16" />
      <path
         d="m 22183.3,26303.5 c 0,0 166.7,-1333.2 -383.3,-2480.6 -550,-1147.3 -583.3,-3030.6 -583.3,-3114 0,-83.3 1416.6,-149.9 1583.3,266.7 166.7,416.7 145,1808.4 145,1808.4 0,0 305,2391.6 288.3,2491.6 -16.6,100 -750.1,916.7 -750.1,916.7 l -299.9,111.2"
         style="fill:#be8560;fill-opacity:1;fill-rule:nonzero;stroke:none"
         id="path18" />
      <path
         d="m 21369.2,20813.8 c 298.7,-42 1200.4,-10.4 1291.5,217.5 127.5,318.7 140.2,1371.5 134.3,1750.3 -0.1,7.1 0.3,14.3 1.2,21.3 108.3,849.6 276.8,2221.6 287.3,2440 -67.5,110.3 -411.9,515.1 -711.9,849.2 -9.2,10.3 -16.8,21.5 -22.7,33.4 25.2,-421.7 28.9,-1444.2 -413.6,-2367.4 -470.3,-980.9 -552.4,-2529.5 -566.1,-2944.3 m 360.9,-314.8 c -223.9,0 -404.3,18 -459.9,28.7 -50.3,9.7 -203.5,39.3 -203.5,181.2 0,19.4 25.6,1984.9 598.1,3178.9 523.5,1092.3 371.3,2384.2 369.7,2397.1 -10.2,82.2 48.2,157.1 130.4,167.4 82.4,10.2 157,-48.1 167.3,-130.3 0.9,-7.2 4.4,-36 8.5,-83.1 7.8,24.2 22,46.7 42.3,65 61.7,55.4 156.5,50.2 211.9,-11.4 762.5,-849.1 779.3,-949.4 786.4,-992.2 13.4,-80.7 -82.9,-930.1 -286.2,-2524.8 2.7,-188.9 13.4,-1432.6 -155.8,-1855.6 -139.4,-348.5 -761.1,-420.9 -1209.2,-420.9"
         style="fill:#5e3519;fill-opacity:1;fill-rule:nonzero;stroke:none"
         id="path20" />
      <path
         d="m 10725,31496.4 c 0,0 -918.75,-287.5 -1137.5,562.5 -218.75,850 100,2112.5 -281.25,2487.5 0,0 1776.75,-672.4 2177.05,-1587.5 291.7,-666.6 166.7,-1283.3 -758.3,-1462.5"
         style="fill:#62cd3e;fill-opacity:1;fill-rule:nonzero;stroke:none"
         id="path22" />
      <path
         d="m 10725,31496.4 c 0,0 -919,-287.5 -1137.5,562.5 -40.5,158 -62.5,330 -74,508.5 285.5,-654 1083.5,-404.5 1083.5,-404.5 592.5,115 856.5,409 893,780.5 283,-660.5 153,-1269.5 -765,-1447"
         style="fill:#52b92b;fill-opacity:1;fill-rule:nonzero;stroke:none"
         id="path24" />
      <path
         d="m 27916.7,26442.3 c 0,0 -1041.7,308.3 -866.7,1366.6 175,1058.4 966.7,1900 1533.3,2150 0,0 -158.3,-433.3 83.4,-1158.3 241.6,-725 883.3,-1891.7 -750,-2358.3"
         style="fill:#62cd3e;fill-opacity:1;fill-rule:nonzero;stroke:none"
         id="path26" />
      <path
         d="m 27916.5,26442.5 c 0,0 -867,256 -886,1104.4 255,-414.9 728,-554.4 728,-554.4 1019,290.9 1152.5,854.9 1050,1413.4 250.5,-700 469,-1575 -892,-1963.4"
         style="fill:#52b92b;fill-opacity:1;fill-rule:nonzero;stroke:none"
         id="path28" />
      <path
         d="m 28385.6,29673.5 c -473.2,-328.2 -1043.2,-1015.6 -1187.6,-1889 -135.1,-817.1 545.2,-1120.7 721.5,-1185 430.3,130 712.4,322.2 839.2,571.7 200,393.8 16.1,894 -146.3,1335.2 -31.8,86.5 -61.9,168.2 -88,246.8 -130.1,390 -150.8,703.7 -138.8,920.3 z m -468.9,-3381.2 c -14.4,0 -28.7,2 -42.6,6.2 -404.2,119.6 -1127.6,594.4 -972.1,1534.9 172.8,1045.1 959.8,1971.2 1620.8,2262.8 55.1,24.3 119.2,13.3 163.1,-27.8 43.9,-41.1 59,-104.5 38.3,-160.9 -1,-3 -134.6,-401.3 84.7,-1059.4 24.8,-74.2 54,-153.8 85.1,-238.1 174.4,-474.1 391.5,-1064.2 132.2,-1574.6 -172.8,-340.1 -522.2,-581.3 -1068.3,-737.3 -13.5,-3.9 -27.4,-5.8 -41.2,-5.8"
         style="fill:#5e3519;fill-opacity:1;fill-rule:nonzero;stroke:none"
         id="path30" />
      <path
         d="m 9441.67,30092.3 c 0,0 -941.67,216.6 -1266.67,-414.6 -325,-631.2 -81.25,-1382.7 -406.25,-1800.7 0,0 1000,-149.3 1712.5,331.9 712.45,481.3 1520.85,1541.7 -39.58,1883.4"
         style="fill:#62cd3e;fill-opacity:1;fill-rule:nonzero;stroke:none"
         id="path32" />
      <path
         d="m 9481,28208.9 c -712,-481 -1712,-332 -1712,-332 34,44 62,91.6 85,142.6 342,20.9 780,102.5 1143,348 625.5,422.4 1325,1291.4 430,1727.9 9.5,-2 14.51,-3 14.51,-3 1560.49,-342 752.49,-1402.5 39.49,-1883.5"
         style="fill:#52b92b;fill-opacity:1;fill-rule:nonzero;stroke:none"
         id="path34" />
      <path
         d="m 8011.73,28008 c 319.62,-12.2 924.51,13.8 1385.6,325.2 438.27,296.1 847.87,773.8 782.67,1114 -54.5,284.6 -449.03,428.2 -770.43,498.6 l -1.31,0.3 c -9.13,2 -832.81,181.6 -1099.9,-337.1 -146.24,-284.1 -166.51,-602.3 -186.08,-910 -15.74,-247.4 -30.82,-484.8 -110.55,-691 m 127.05,-303.5 c -223.78,0 -376.08,21.7 -392.19,24.1 -52.68,7.9 -97.27,43.1 -117.09,92.6 -19.83,49.5 -11.87,105.8 20.85,147.8 136.03,175 152.92,441 172.56,749 20.51,322.8 43.8,688.5 218.75,1028.3 371.77,722.3 1378.47,504.7 1432.76,492.4 595.28,-130.5 931.88,-377.8 1000.28,-735 94.3,-492.3 -388.9,-1067.4 -909.51,-1419.1 -471.73,-318.6 -1050.09,-380.1 -1426.41,-380.1"
         style="fill:#5e3519;fill-opacity:1;fill-rule:nonzero;stroke:none"
         id="path36" />
      <path
         d="m 9608.6,34253.6 c 57.37,-261.9 52.29,-594.2 46.73,-956.9 -6.35,-417.4 -12.94,-849.1 77.44,-1200.4 51.12,-198.6 145.75,-334 289.33,-413.9 278.2,-154.8 654.4,-44 658.1,-42.8 5.4,1.7 10.8,3 16.3,4.1 359.4,69.6 596.9,210.1 705.8,417.4 139.8,266.3 46.5,602.6 -56.3,837.7 -264.9,605.4 -1212.8,1112.6 -1737.4,1354.8 m 774.5,-2953.8 c -156.5,0 -339.3,27.2 -506.88,120.4 -216.25,120.4 -362.25,322.7 -433.97,601.4 -100.45,390.3 -93.56,842.4 -86.87,1279.7 7.27,477.8 14.84,971.8 -154.3,1138.2 -50.59,49.7 -59.37,128.1 -21.14,187.8 38.23,59.8 113.18,84.6 179.39,59.4 74.96,-28.3 1840.57,-705.8 2261.47,-1667.6 185.3,-423.7 201.6,-803.2 47.1,-1097.5 -152.6,-290.4 -457.7,-482.5 -907.1,-571 -38.6,-11.2 -189,-50.8 -377.7,-50.8"
         style="fill:#5e3519;fill-opacity:1;fill-rule:nonzero;stroke:none"
         id="path38" />
      <path
         d="m 35175,21959 c 0,0 -3075,-300 -5450,700 -2375,999.9 -7875,3516.5 -9218.5,4124.9 -1343,608.6 -5240,2475.1 -7823,3016.5 -840,176.1 -1706,324.5 -2493,445.5 C 9711,29812.5 8450,28317.5 8450,28317.5 c 278.5,788 611.5,1497.9 1071.5,2026.9 -908.5,129.5 -1646,215.5 -2009.5,255 -147.5,16 -250.5,154.5 -222.99,300 18.49,96 45.49,176 71.98,238 41.51,96.5 138.51,157.5 244,153 917.51,-38.5 1967.01,-137.5 3056.01,-274.5 30.5,665.5 -159,1536 -569.5,2609.5 685,-736.4 993.5,-1642.5 1031,-2670 3448.5,-463 7162.5,-1268.9 8303,-1721.5 1575,-624.9 6524.5,-2751.9 9074.5,-3299.9 2550,-548.1 6925,-950 6925,-950 850,-1650.1 -250,-3025 -250,-3025"
         style="fill:#b07e4f;fill-opacity:1;fill-rule:nonzero;stroke:none"
         id="path40" />
      <path
         d="m 9186,30391.4 c -753,103.5 -1356.5,173.5 -1674,208 -147.5,16 -250.5,154.5 -222.99,300 0.99,4 1.49,8 2.49,11.5 27,-13.5 57,-22 89,-25 364.5,-33.5 1103,-108 2013.5,-222.5 -72.5,-86 -141.5,-177 -208,-272"
         style="fill:#8d5b39;fill-opacity:1;fill-rule:nonzero;stroke:none"
         id="path42" />
      <path
         d="m 35175,21959 c 0,0 -3075,-300 -5450,700 -2375,999.9 -7875,3516.5 -9218.5,4124.9 -1343,608.6 -5240,2475.1 -7823,3016.5 -840,176.1 -1706,324.5 -2493,445.5 C 9711,29812.5 8450,28317.5 8450,28317.5 c 98,278.5 203.5,546.9 319,801.5 404,482.9 999.5,1180.4 1295.5,1456.4 789,-108 1657,-242.5 2500,-405 2591.5,-499.4 6518,-2302.9 7870.5,-2890 1353,-586.4 6893,-3013.9 9284,-3975.4 2391,-961.5 5460.5,-612.1 5460.5,-612.1 0,0 451,582.5 532,1437.5 205,-1245 -536.5,-2171.4 -536.5,-2171.4"
         style="fill:#8d5b39;fill-opacity:1;fill-rule:nonzero;stroke:none"
         id="path44" />
      <path
         d="m 10586,30707.4 c -1089,137 -2138.5,236 -3056,274.5 -3.64,0.2 -7.29,0.3 -10.92,0.3 -19.54,0 -38.72,-2.3 -57.26,-6.5 10.62,35.5 22.97,69.8 36.97,102.5 16.13,37.5 53.8,62.5 94.48,62.5 1.79,0 3.61,0 5.42,-0.1 852.74,-35.8 1858.53,-125.5 2990.21,-266.8 0.5,-56.7 -0.5,-112.2 -2.9,-166.4"
         style="fill:#c8a584;fill-opacity:1;fill-rule:nonzero;stroke:none"
         id="path46" />
      <path
         d="m 35548.9,24191.8 c -49,157.8 -114.3,319.3 -198.9,483.7 0,0 -4375,402 -6925,950 -629.6,135.2 -1405.6,366.9 -2240.8,648.3 -22.9,68 -46.5,134.9 -70.7,200.3 879.3,-298.8 1698,-545.6 2355,-686.8 2336,-502 6240.9,-885.9 6859.4,-944.9 108,-224 178.8,-441.8 221,-650.6 m -13067.5,3463.6 c -673.9,268.3 -1304.9,525.7 -1845,746.8 55.8,34.8 107.4,72.8 152.2,114.8 489.4,-200.1 1052.9,-429.5 1655.1,-669.4 13,-61.7 25.6,-126.5 37.7,-192.2 m -4645.8,1721.5 c -251.7,63.5 -523.6,128.7 -812.1,194.9 -285.2,122.2 -614.7,236.3 -991.6,329.1 0.2,18.1 0.1,37.8 -0.5,58.8 706,-147.7 1347.3,-294.9 1888.7,-432.2 -30.1,-47.7 -58.5,-98 -84.5,-150.6 m -3604.7,781.7 c -4.7,46.7 -11.8,99.1 -22.3,156.2 63.1,-11.4 125.4,-22.8 188,-34.3 -52,-46.2 -107.2,-87.5 -165.7,-121.9 m -1518.9,242.5 c -553.8,88.8 -1112.6,171.8 -1664.5,245.8 -2.3,62.1 -5.5,123.7 -9.8,184.8 18.9,-12.9 40.9,-21.7 64.8,-24.9 577.8,-77.6 1159.2,-164.2 1732.6,-256.7 -38.2,-50.9 -79.2,-100.5 -123.1,-149 M 10867.4,31812 c -60.2,206.1 -136.1,405.2 -228.7,596.7 -21.8,88.2 -45.7,178.3 -71.6,270.1 132.5,-268.1 232.4,-556.4 300.3,-866.8"
         style="fill:#c8a584;fill-opacity:1;fill-rule:nonzero;stroke:none"
         id="path48" />
      <path
         d="m 27760.6,26117.2 c -124.1,922.4 -13.2,1892 372.7,2916.7 -61.2,-1311.7 -12,-2384.2 217,-3066.6 l -589.7,149.9"
         style="fill:#b07e4f;fill-opacity:1;fill-rule:nonzero;stroke:none"
         id="path50" />
      <path
         d="m 10190.5,30395.9 c 7.6,0 15.2,-0.5 22.8,-1.7 916.7,-140.9 1758.1,-291.3 2501,-447 2329.8,-488.4 5723.9,-2048.4 7355,-2798.1 191.2,-87.9 359.1,-165.1 499.1,-228.5 206.6,-93.6 511.5,-232.3 888.3,-403.7 2050.9,-932.9 6318.7,-2874.3 8326.5,-3719.7 2124.6,-894.6 4856.9,-729.6 5311.9,-694.4 178.8,251.4 886.4,1383.3 232.8,2739.6 -618.5,59 -4523.4,442.9 -6859.4,944.9 -2136.1,459 -5984.6,2035.3 -8052.1,2882.1 -420.3,172.1 -783.3,320.8 -1046.2,425.1 -1085.1,430.6 -4747.4,1239.7 -8267.7,1712.3 -72.4,9.7 -127.2,70.2 -129.9,143.2 -23.9,654.9 -157.6,1227.3 -405.5,1728.8 183.1,-648.8 264.9,-1207.9 243.7,-1669.7 -1.9,-41.8 -21.2,-80.9 -53.2,-107.9 -32,-26.9 -73.7,-39.3 -115.3,-34.1 -1153.47,145.1 -2177.5,237.2 -3043.61,273.5 -42.72,2.3 -83.06,-23.3 -99.9,-62.4 -27.3,-63.8 -48.35,-133.6 -62.45,-207.1 -7.23,-38.2 8.69,-66.9 18.79,-80.6 10.26,-13.8 33.36,-37.6 73.1,-41.9 279.98,-30.4 1036.77,-116.3 2014.45,-255.6 54.4,-7.8 100.2,-44.7 119.38,-96.2 19.2,-51.4 8.7,-109.3 -27.38,-150.8 -259.03,-297.9 -490.68,-670.5 -708.64,-1143.9 397.41,455.9 895.5,1012.5 1163.86,1255.1 27.7,25.1 63.7,38.7 100.6,38.7 m 24984.5,-8437 h 0.5 -0.5 m 0,0 h 0.5 -0.5 m -1116.2,-194.3 c -1121.4,0 -2883.1,120.8 -4392,756.1 -2011.8,847.1 -6282.2,2789.6 -8334.4,3723.2 -376.5,171.2 -681.3,309.9 -887.8,403.4 -140.4,63.6 -308.8,141 -500.6,229.2 -1621.1,745.1 -4994.5,2295.7 -7291.3,2777.1 -718.2,150.5 -1529.7,296.1 -2413.4,433 -500.47,-475.2 -1662.54,-1851.5 -1674.64,-1865.8 -46.64,-55.4 -126.22,-69.5 -189.21,-33.5 -62.9,36 -91.02,111.8 -66.85,180.1 284.03,803.7 583.01,1404.7 929.79,1865.3 -845.32,117.2 -1489.6,190.1 -1742.58,217.6 -111.92,12.2 -214.6,71.1 -281.7,161.6 -66.89,90.3 -93.35,205.3 -72.45,315.5 18.21,94.9 45.6,185.3 81.4,269 65.87,153.2 223.04,250.6 388.32,243.9 832.52,-34.9 1808.31,-120.6 2902.62,-254.9 -5.7,622.4 -194.6,1424.1 -562.57,2386.5 -25.69,67 -0.2,142.9 60.77,180.9 60.9,37.9 140.3,27.5 189.1,-25.2 654,-703.1 1003.1,-1567.8 1065.2,-2640.3 3503.6,-477.7 7125.8,-1282 8214.3,-1713.9 264.5,-105 628.2,-253.9 1049.3,-426.4 2058.9,-843.3 5891.4,-2413 8001.4,-2866.4 2511.9,-539.8 6863.6,-943.3 6907.2,-947.3 51.1,-4.7 96.2,-35.1 119.7,-80.7 884.3,-1716.6 -254.6,-3172.9 -266.3,-3187.4 -25.2,-31.6 -62.3,-51.6 -102.5,-55.6 -46.6,-4.5 -481.4,-45 -1130.8,-45"
         style="fill:#5e3519;fill-opacity:1;fill-rule:nonzero;stroke:none"
         id="path52" />
      <path
         d="m 27896.8,26237.3 237.1,-60.2 c -106.6,433.2 -164.1,994.2 -173.3,1694.6 -103.5,-554.3 -125,-1100.8 -63.8,-1634.4 z m 453.5,-420 c -12.3,0 -24.7,1.5 -37,4.6 l -589.7,149.9 c -59.3,15.1 -103.5,64.7 -111.7,125.4 -130.1,967.1 -1.8,1973 381,2989.6 26.1,69.1 98.4,108.8 170.7,94 72.3,-14.9 123,-80.1 119.6,-153.8 -65.9,-1410.9 2.6,-2396.1 209.3,-3012 17.5,-52.1 5.1,-109.5 -32.2,-149.7 -28.8,-31 -68.8,-48 -110,-48"
         style="fill:#5e3519;fill-opacity:1;fill-rule:nonzero;stroke:none"
         id="path54" />
      <path
         d="m 22762.5,26783.9 c 0,0 -120.8,1033.4 -262.5,1441.7 -141.7,408.4 650,465.6 1050,-288 0,0 -333.3,463.5 -337.5,584.1 -4.2,120.6 933.3,216.4 1175,-516.9 0,0 -137.5,370.8 -325,516.7 -187.5,145.8 412.5,304.1 837.5,-116.7 425,-420.8 625,-1158.3 625,-1158.3 l -2762.5,-462.6"
         style="fill:#ffeee5;fill-opacity:1;fill-rule:nonzero;stroke:none"
         id="path56" />
      <path
         d="m 22755.6,28372.5 c -35.4,0 -66.1,-5.6 -90.3,-16.1 -23.2,-10.2 -45.1,-19.7 -23.6,-81.6 112.9,-325.4 210.1,-1008.2 250.3,-1317.1 l 2437.2,408.1 c -81,230.1 -258.6,659 -534.8,932.4 -181.5,179.8 -392.5,228.8 -525.9,228.8 h -0.6 c 78.1,-94.8 141.6,-208.1 186.5,-300.2 29.2,-53.4 54.7,-111.7 75.6,-175.1 25.6,-77.6 -15.8,-161.5 -92.9,-188.5 -77.2,-27 -161.8,12.7 -190.2,89.4 -11.7,31.3 -32.8,81.9 -60.5,139 -77.5,137.3 -196.5,238 -355.2,300.3 -167.8,65.8 -334,68.9 -431.7,56.9 25.5,-47.7 61.6,-108.1 102.8,-173 65.7,-77.7 126.6,-166.9 180.2,-267.9 37,-69.7 13.6,-156.1 -53.3,-197.7 -67.1,-41.6 -154.9,-24.3 -201,39.8 -56.1,78 -116,164.5 -170.7,250.1 -172.8,194.6 -370.2,272.4 -501.9,272.4 m 6.9,-1738.6 c -32.3,0 -63.9,10.5 -90.1,30.1 -32.8,24.7 -54.1,61.7 -58.9,102.5 -1.2,10.2 -120.6,1021.8 -255.2,1409.9 -68.3,197.1 5.1,375.7 187.2,455 147.2,64.2 340.3,54.7 534.6,-31 27.3,55.6 93,113.6 242.1,140.2 159.7,28.5 376.8,18.3 586.2,-57.1 26.4,41.8 75.2,86.5 164.8,114.8 195.7,62 605.5,36.7 932.3,-286.9 448.6,-444.2 655.7,-1194 664.3,-1225.7 11.1,-40.9 4.3,-84.5 -18.5,-120.2 -22.9,-35.7 -59.7,-60 -101.5,-67 L 22787.3,26636 c -8.2,-1.4 -16.5,-2.1 -24.8,-2.1"
         style="fill:#5e3519;fill-opacity:1;fill-rule:nonzero;stroke:none"
         id="path58" />
      <path
         d="m 9416.5,7742.4 -1823,685 c -269,101.6 -475.51,326 -547.5,604.5 -125.5,487.1 -151,1020.6 -97.01,1549 147.5,1441.1 887.01,2844.5 1808.51,3164.6 154.5,53.4 322,54.9 478.5,8.5 l 1461,-432.1 c 195.5,-58 369,-177.4 487.5,-343.4 355.5,-499.5 523.5,-1130.1 544.5,-1779.6 58,-1779.4 -987.5,-3701 -2312.5,-3456.5"
         style="fill:#cecbd3;fill-opacity:1;fill-rule:nonzero;stroke:none"
         id="path60" />
      <path
         d="m 8925.11,11125.3 -1624.28,431.8 c 123.61,414.2 293.24,801.2 497.04,1127.7 L 9412.5,12284 8925.11,11125.3"
         style="fill:#ebeaed;fill-opacity:1;fill-rule:nonzero;stroke:none"
         id="path62" />
      <path
         d="m 9416.5,7742.4 -1823,685 c -269,101.6 -475.51,326 -547.5,604.5 -125.5,487.1 -151,1020.6 -97.01,1549 42.51,-26.9 67.51,-46.9 67.51,-46.9 l 1681,-391.5 110.01,585.9 C 8898,7414.9 10883,7977.4 11400,11242.5 l 329,-43.6 c 58,-1779.4 -987.5,-3701 -2312.5,-3456.5"
         style="fill:#a69eb7;fill-opacity:1;fill-rule:nonzero;stroke:none"
         id="path64" />
      <path
         d="m 9456.6,7887.6 c 729.9,-126.2 1247.6,495.4 1491.9,878.8 692.7,1087.1 933.1,2973.3 113.6,4124.9 -96.7,135.9 -241.5,237.8 -407.8,286.9 l -1460.79,431.9 c -130.22,38.5 -263.91,36.3 -386.62,-6.3 C 7613,13189 6752.4,10773.6 7191.41,9069.5 c 59.03,-229.1 229.2,-416.6 455.13,-501.5 L 9456.6,7887.6 m 184.13,-315.9 c -83.45,0 -167.33,7.6 -251.28,23.1 -8.73,1.6 -17.28,4 -25.58,7.1 l -1822.89,685.3 c -317.39,119.3 -556.65,383.8 -640.09,707.4 -480.67,1865.8 465.38,4426.3 1807.56,4892.6 182.33,63.2 379.4,66.9 570.07,10.6 l 1460.88,-431.9 c 230.3,-68.1 431.8,-210.4 567.1,-400.7 903.9,-1270.1 656.4,-3265.1 -104.9,-4460.1 C 10775.9,7937.2 10218,7571.7 9640.73,7571.7"
         style="fill:#5e3519;fill-opacity:1;fill-rule:nonzero;stroke:none"
         id="path66" />
      <path
         d="m 9828.23,7585 c -6.89,0 -13.77,0.4 -20.75,1.4 -535.16,74.1 -927.54,418.6 -1134.77,996.4 -412.84,1151.2 2.64,3005.1 889.16,3967.5 492.43,534.5 1066.93,732.6 1661.33,572.9 80.1,-21.5 127.5,-103.9 106,-183.8 -21.5,-80.1 -103.9,-127.4 -183.8,-106 -606,162.7 -1075.7,-174.7 -1362.87,-486.4 -806.6,-875.5 -1200.98,-2621.4 -827.4,-3662.9 169.49,-472.6 470.07,-741.9 893.46,-800.5 82.08,-11.4 139.4,-87.2 128.03,-169.2 -10.4,-75.1 -74.71,-129.4 -148.39,-129.4"
         style="fill:#5e3519;fill-opacity:1;fill-rule:nonzero;stroke:none"
         id="path68" />
      <path
         d="M 26716.5,18525.5 C 26350,16159 25675,12859 21450,11909 c -4225,-950 -6353.5,1687.5 -6353.5,1687.5 v -2079.6 c 0,0 -992,-2165.9 -1038.5,-2153.5 -23.5,6.6 -741.5,342.1 -1453,675.1 -709.5,333.5 -1413,664 -1413,664 0,0 395.5,4793.9 445.5,5994 9,211 37.5,399 78.5,566 192,782.5 659,1096.4 659,1096.4 0,0 6008.5,2966.6 7285,3151.6 218.5,31.5 430,47 630.5,51.5 971.5,20.4 1684.5,-228 1684.5,-228 650,1499.9 437.5,3887.4 687.5,5274.9 250,1387.6 1362.5,1750.1 2612.5,925.1 283,-187.1 531,-629.6 740,-1230.5 715.5,-2052 985.5,-5947.1 701.5,-7778"
         style="fill:#d79d77;fill-opacity:1;fill-rule:nonzero;stroke:none"
         id="path70" />
      <path
         d="m 11471.1,10770.2 -120,38.5 c 61.3,747.9 391.1,4797.9 436.3,5881.5 8.8,212.1 38.2,399.2 80.1,563.1 59.7,-3.1 120.1,-5.7 181.5,-7.9 -31,-83 -59,-172.9 -83,-270.4 -41,-167 -69.5,-355 -78.5,-566 -41.7,-1001.6 -324.3,-4507.1 -416.4,-5638.8"
         style="fill:#efd8c9;fill-opacity:1;fill-rule:nonzero;stroke:none"
         id="path72" />
      <path
         d="m 21052.5,19130.9 908,1990 c -274.2,67.1 -740.9,154.8 -1305.6,154.8 -37.7,0 -75.9,-0.4 -114.4,-1.2 -47.1,-1.2 -94.6,-2.9 -142.8,-5.2 23,47.2 45.3,95 66.7,143.3 843.6,-10.3 1453.5,-217.6 1461.2,-220.3 16.3,-5.7 33,-8.4 49.3,-8.4 58.3,0 113.4,34.1 137.8,90.4 426.5,984.3 490.8,2334.2 547.5,3525.2 31.7,664.6 61.5,1292.3 149.9,1782.9 105.2,583.7 369,981.3 762.8,1150 138.8,59.4 290.8,88.8 452.8,88.8 296.1,0 625.5,-98.3 967.7,-290.8 -252.5,102.5 -494.5,153 -718.5,153 -682.8,0 -1201.4,-468.4 -1362.4,-1362 -250,-1387.5 -37.5,-3775 -687.5,-5274.9 0,0 -532.5,-1281.1 -1172.5,-1915.6"
         style="fill:#efd8c9;fill-opacity:1;fill-rule:nonzero;stroke:none"
         id="path74" />
      <path
         d="M 26716.5,18525.5 C 26350,16159 25675,12859 21450,11909 c -4225,-950 -6353.5,1687.5 -6353.5,1687.5 v -2079.6 c 0,0 -992,-2165.9 -1038.5,-2153.5 -23.5,6.6 -741.5,342.1 -1453,675.1 l 24.5,202.4 c 1683.5,308.5 1754,3059 2331,6118.1 l 136,-983.5 c 2812,-5134.6 13620,-2652.5 10918.5,10928 715.5,-2052 985.5,-5947.1 701.5,-7778"
         style="fill:#be8560;fill-opacity:1;fill-rule:nonzero;stroke:none"
         id="path76" />
      <path
         d="M 20357,21544.5 C 19647.5,17947 14602,17070 11716,17262.4 c 192,782.6 659,1096.6 659,1096.6 0,0 6008.5,2966.5 7285,3151.5 218.5,31.5 430,47 630.5,51.4 l 66.5,-17.4"
         style="fill:#be8560;fill-opacity:1;fill-rule:nonzero;stroke:none"
         id="path78" />
      <path
         d="m 11349.9,10793.8 c 950.8,-447.3 2262,-1062.3 2650.5,-1240.6 167.9,317.3 640.9,1330.7 945.9,1996.3 v 2046.9 c 0,63.6 40.1,120.3 100.1,141.5 60,21.2 126.7,2.2 166.7,-47.3 5.1,-6.2 532.7,-648.2 1557.1,-1167.3 943.4,-478 2515.5,-947.2 4646.9,-468 3963.1,891.1 4737,3818.9 5151.3,6493.2 379,2445.9 -228.4,8102.8 -1376,8860.3 -602.8,397.8 -1178,512.6 -1619.5,323.6 -393.8,-168.7 -657.6,-566.3 -762.8,-1150 -88.4,-490.6 -118.2,-1118.3 -149.9,-1782.9 -56.7,-1191 -121,-2540.9 -547.5,-3525.2 -31.3,-72.1 -112.9,-107.8 -187.1,-82 -9.9,3.5 -1021.2,347.2 -2243.9,169.9 -1214.1,-175.9 -6943.7,-2991.7 -7229.6,-3132.5 -73.7,-54.1 -621,-490.1 -664.7,-1539.5 -45.5,-1091 -379.5,-5189.5 -437.5,-5896.4 m 2713.5,-1581.4 c -13.7,0 -28.4,1.9 -44.2,6.1 -16.3,4.4 -59.7,15.9 -2891.2,1348.1 -56.6,26.6 -90.7,85.7 -85.6,148.1 3.9,47.9 395.9,4804.7 445.3,5988 52.5,1261.3 772.9,1760.1 803.6,1780.7 5.5,3.7 11.3,7.1 17.3,10.1 246.2,121.5 6044.5,2979.3 7330.1,3165.6 1043,151.1 1921.6,-49.1 2249.5,-141.7 359.4,924.7 419.2,2181.7 472.4,3296.4 32.1,674.6 62.4,1311.8 154.3,1821.7 122.1,678 455.9,1165.4 939.9,1372.7 537.4,230 1213.2,106.1 1902.8,-349.1 811.2,-535.3 1221.1,-2755.4 1393.1,-4031.1 252.9,-1874.3 298.8,-3934.1 114.2,-5125.4 -190.1,-1227.4 -455.9,-2641.7 -1206,-3893.7 -888.7,-1483.3 -2254.7,-2414.3 -4176,-2846.3 -2226.3,-500.6 -3872.8,-4.3 -4862.2,500.2 -654.7,333.8 -1111.7,709.7 -1374.4,959.2 v -1705.2 c 0,-21.5 -4.6,-42.9 -13.6,-62.4 -2.5,-5.5 -251.2,-548.4 -502.3,-1082.8 -147.8,-314.3 -267.6,-564.5 -356.1,-743.5 -53.2,-107.4 -95.8,-190.7 -126.6,-247.4 -43.3,-79.6 -91.7,-168.3 -184.3,-168.3"
         style="fill:#5e3519;fill-opacity:1;fill-rule:nonzero;stroke:none"
         id="path80" />
      <path
         d="m 10590.1,10895.4 3109.9,-997.8 -450,-1213.7 -3039.7,958.3 c -206.7,65.2 -362.35,245.6 -379.45,461.7 -13.76,173.9 22.24,356.2 103.56,518 120.79,240.2 399.69,355.6 655.69,273.5"
         style="fill:#cecbd3;fill-opacity:1;fill-rule:nonzero;stroke:none"
         id="path82" />
      <path
         d="m 13700,9897.5 -450,-1213.6 -3039.5,958.6 c -207,65 -362.5,245.4 -379.5,461.5 -13.99,173.9 22,356 103.5,518 7.5,14.9 15.5,29.5 25,43.5 -1,-29.1 0,-58 2.5,-86.6 17,-215.9 172.5,-396.5 379.5,-461.4 L 13381,9159 l 278.5,751.4 40.5,-12.9"
         style="fill:#a69eb7;fill-opacity:1;fill-rule:nonzero;stroke:none"
         id="path84" />
      <path
         d="m 10420.7,10772 c -146.3,0 -283.5,-80.7 -352.2,-217.4 -68.4,-136.1 -99.74,-291.9 -88.12,-438.8 11.86,-149.6 122.32,-282.3 275.02,-330.5 l 2903.6,-915.4 345.8,932.7 -2960.6,950 v 0 c -41,13.1 -82.6,19.4 -123.5,19.4 M 13250,8533.9 c -14.9,0 -30.1,2.2 -45.1,7 l -3039.7,958.3 c -268.08,84.5 -462.51,322.8 -483.85,592.9 -15.91,200.7 26.37,412.8 119.04,597.2 154.79,307.8 506.31,454.6 835.41,348.9 l 3110,-997.8 c 39,-12.5 71.2,-40.4 89.1,-77.3 17.9,-36.8 20,-79.3 5.7,-117.7 l -450,-1213.6 c -22.3,-60.2 -79.4,-97.9 -140.6,-97.9"
         style="fill:#5e3519;fill-opacity:1;fill-rule:nonzero;stroke:none"
         id="path86" />
      <path
         d="m 11182.3,9858.8 c -12.8,168.6 -223,239.6 -333.1,111.3 -44.4,-51.9 -94,-117.6 -148.8,-201 -295.4,-448.9 -843.14,-1015.3 -724.9,-1376.2 118.2,-361 904.4,-570.7 1069.1,40.5 128.1,475.4 167.9,1027.1 137.7,1425.4"
         style="fill:#ffeee5;fill-opacity:1;fill-rule:nonzero;stroke:none"
         id="path88" />
      <path
         d="m 10551.9,8195.9 c -186.8,0 -391.4,113.9 -433.9,243.7 -7.4,22.6 -10.2,47.6 -9.1,74.7 77.1,-28.7 160.5,-44.9 242.8,-44.9 110.4,0 219,29.1 308.4,96.5 -29.6,-129.4 -44,-252.3 -33.3,-363.7 -21.6,-3.7 -42.7,-5.6 -62.9,-6.1 -4,-0.2 -8,-0.2 -12,-0.2 m 401.1,1219.4 c 20.5,160.5 32.7,319.9 37,470.7 0.2,0 0.3,0 0.5,0 4.3,0 8.9,-0.8 13.7,-2.3 12,-4 26.8,-13.5 28.5,-36.2 4.3,-56.4 7.1,-114.5 8.5,-174 -8.3,-23.8 -16.5,-48.4 -24.5,-73.7 -18.7,-59.1 -40.3,-120.7 -63.7,-184.5"
         style="fill:#bdb4c0;fill-opacity:1;fill-rule:nonzero;stroke:none"
         id="path90" />
      <path
         d="m 10990.5,9886 c -10.5,0 -19.6,-4.5 -27.4,-13.5 -43.4,-50.8 -89.7,-113.3 -137.5,-185.8 -74.2,-112.9 -160.6,-228.5 -252,-350.9 -232,-310.6 -520.8,-697.1 -455.6,-896.2 42.5,-129.8 247.1,-243.7 433.9,-243.7 4,0 8,0 12,0.2 120.1,3.1 275.9,53.7 335.9,276.3 114.2,423.8 165.1,950.7 132.9,1375.1 -1.7,22.7 -16.5,32.2 -28.5,36.2 -4.8,1.5 -9.4,2.3 -13.7,2.3 m -439.6,-1990.1 c -321.6,0 -634.29,194.7 -717.93,450.3 -113.78,347.2 198.43,765.1 500.23,1169.1 88.7,118.7 172.5,230.9 241.9,336.3 54.6,83.1 108.5,155.8 160.2,216.1 89.4,104.2 231.6,143.8 362.2,101.1 131.9,-43.2 223.8,-160.4 234.3,-298.7 34.7,-455.9 -19.9,-1021.4 -142.4,-1475.8 -81.9,-303.8 -312.7,-490 -617.5,-498.2 -7,-0.1 -14,-0.2 -21,-0.2"
         style="fill:#5e3519;fill-opacity:1;fill-rule:nonzero;stroke:none"
         id="path92" />
      <path
         d="m 11599.1,9771.9 c -58.2,158.7 -279.8,169.9 -350.8,16.4 -28.6,-61.9 -58.5,-138.7 -88.6,-233.8 -162.1,-512.4 -535.1,-1206.4 -323.1,-1521.6 212,-315.2 1025.5,-303.1 1017.7,329.9 -6,492.3 -117.8,1034.1 -255.2,1409.1"
         style="fill:#ffeee5;fill-opacity:1;fill-rule:nonzero;stroke:none"
         id="path94" />
      <path
         d="m 11300.2,7980.9 c -142.2,0 -282.5,51.5 -339.1,135.8 -13.3,19.7 -22.8,43 -29.1,69.4 19.6,-1.6 39.3,-2.4 59.1,-2.4 276.3,0 560.5,156.9 555.7,532.1 -4.2,343.9 -60,711.8 -140.2,1030 3.7,1.1 7.7,1.6 12.1,1.6 h 2.2 c 12.6,-0.6 29.5,-5.7 37.4,-27.2 146.3,-399.5 240.7,-920.3 246.1,-1359.3 2.8,-230.6 -133.3,-321.5 -248,-357.3 -49.4,-15.4 -103,-22.7 -156.2,-22.7"
         style="fill:#bdb4c0;fill-opacity:1;fill-rule:nonzero;stroke:none"
         id="path96" />
      <path
         d="m 11418.7,9747.4 c -16,0 -27.5,-7.4 -34.3,-22 -28,-60.8 -55.5,-133.6 -81.7,-216.2 -40.7,-128.7 -92.4,-263.5 -147.1,-406.1 -138.7,-362 -311.5,-812.5 -194.5,-986.4 77.9,-115.8 313.8,-169.8 495.3,-113.1 114.7,35.8 250.8,126.7 248,357.3 -5.4,439 -99.8,959.8 -246.1,1359.3 -7.9,21.5 -24.8,26.6 -37.4,27.2 h -2.2 M 11297.6,7680 c -240.2,0 -471.5,99.8 -585.4,269.2 -204,303.3 -17.3,790.3 163.3,1261.3 53.1,138.3 103.2,269 141.2,389.3 29.9,94.5 62,179.1 95.4,251.4 57.6,124.6 183.2,201.8 321,195.9 138.6,-5.6 259,-93.4 306.8,-223.6 v 0 c 157.3,-429.2 258.6,-988.3 264.5,-1458.9 3.8,-314.7 -167.7,-556.7 -458.7,-647.4 -80.8,-25.1 -165,-37.2 -248.1,-37.2"
         style="fill:#5e3519;fill-opacity:1;fill-rule:nonzero;stroke:none"
         id="path98" />
      <path
         d="m 12062.9,9749.9 c -102.4,119.6 -299.5,57.3 -311.6,-99.7 -4.8,-63.4 -5.9,-140.1 -1.3,-232.9 25,-500 -75,-1227.1 212.5,-1433.4 287.5,-206.2 993.8,68.8 781.3,618.8 -165.3,427.8 -439,864.4 -680.9,1147.2"
         style="fill:#ffeee5;fill-opacity:1;fill-rule:nonzero;stroke:none"
         id="path100" />
      <path
         d="m 11962.5,7983.9 v 0 c -14,10 -27,21.3 -39.1,33.6 v 0 c 12.1,-12.3 25.2,-23.6 39.1,-33.6 v 0 m 814.8,351.2 c 13.1,79.6 4.5,169.2 -33.5,267.6 -12.4,31.9 -25.3,63.9 -38.8,95.8 l 0.4,-0.1 c 13.4,-31.8 26.3,-63.7 38.6,-95.5 38,-98.4 46.5,-188.1 33.3,-267.8"
         style="fill:#64c09e;fill-opacity:1;fill-rule:nonzero;stroke:none"
         id="path102" />
      <path
         d="m 12243.9,9517.5 -0.2,0.1 c -60.8,85 -121.8,163.2 -180.8,232.3 -36.9,43 -86,62.5 -134.3,62.5 -38.1,0 -75.7,-12.1 -106.4,-34.2 -0.1,0.1 -0.1,0.2 -0.2,0.3 30.8,22 68.4,34 106.5,34 48.4,0 97.6,-19.5 134.5,-62.5 59.1,-69.2 120.1,-147.4 180.9,-232.5"
         style="fill:#9b9cb3;fill-opacity:1;fill-rule:nonzero;stroke:none"
         id="path104" />
      <path
         d="m 12524.7,9069.9 -0.2,0.1 c -87.8,160 -184.1,312.4 -280.8,447.6 l 0.2,-0.1 c 96.7,-135.2 193,-287.6 280.8,-447.6"
         style="fill:#7f7ca0;fill-opacity:1;fill-rule:nonzero;stroke:none"
         id="path106" />
      <path
         d="m 12705.4,8698.4 -0.4,0.1 c -52.9,125.4 -114.3,250.6 -180.5,371.5 l 0.2,-0.1 c 66.3,-120.8 127.7,-246.1 180.7,-371.5"
         style="fill:#4d3331;fill-opacity:1;fill-rule:nonzero;stroke:none"
         id="path108" />
      <path
         d="m 11923.4,8017.5 c -7.2,7.3 -14.1,15 -20.8,23.1 6.7,-8.1 13.6,-15.8 20.8,-23.1 v 0"
         style="fill:#4d3331;fill-opacity:1;fill-rule:nonzero;stroke:none"
         id="path110" />
      <path
         d="m 12204.9,7915.6 c -91.9,0 -177.7,22 -242.4,68.3 v 0 c -13.9,10 -27,21.3 -39.1,33.6 -7.2,7.3 -14.1,15 -20.8,23.1 -20.1,24.7 -37.5,52.8 -52.6,83.8 310.5,15 670.5,273 510.5,686.5 -133.4,345.4 -337.4,696.3 -538.3,967.3 30.7,22.1 68.3,34.2 106.4,34.2 48.3,0 97.4,-19.5 134.3,-62.5 59,-69.1 120,-147.3 180.8,-232.3 96.7,-135.2 193,-287.6 280.8,-447.6 66.2,-120.9 127.6,-246.1 180.5,-371.5 13.5,-31.9 26.4,-63.9 38.8,-95.8 38,-98.4 46.6,-188 33.5,-267.6 -44.1,-265.1 -329.2,-419.5 -572.4,-419.5"
         style="fill:#bdb4c0;fill-opacity:1;fill-rule:nonzero;stroke:none"
         id="path112" />
      <path
         d="m 11928.5,9662.5 c -3.2,0 -6.5,-0.6 -10,-1.8 -16.3,-5.3 -17.2,-17 -17.6,-22 -4.8,-61.4 -5.1,-133.4 -1.1,-213.9 6.3,-126 5,-260.6 3.6,-403 -3.4,-358.8 -7.8,-805.3 146.6,-916 92.1,-66.1 307.2,-53.6 456.8,62.1 124.7,96.5 157.4,224.6 97,380.7 -175.6,454.6 -453.5,868.3 -654.9,1103.8 -5.8,6.7 -12.6,10.1 -20.4,10.1 z m 278.5,-1897 c -124,0 -241.4,31.6 -331.9,96.6 -281,201.5 -276.2,690.1 -271.7,1162.6 1.4,137.9 2.7,268 -3.2,385.1 -4.7,93.1 -4.1,177.9 1.6,251.9 10.1,131.6 97.9,243.2 223.5,284.3 126.9,41.4 264.8,2.7 351.6,-98.6 v 0 c 277.6,-324.6 548.4,-780.8 706.8,-1190.7 107.4,-277.8 35.1,-549.3 -193.3,-726 -140.5,-108.8 -317.8,-165.2 -483.4,-165.2"
         style="fill:#5e3519;fill-opacity:1;fill-rule:nonzero;stroke:none"
         id="path114" />
      <path
         d="m 17668.5,9073.5 c -128.5,-1647.6 -1297,-3579 -2677,-3619.5 -98.5,-3 -196.5,11.5 -290.5,40 l -967.5,292.4 c -252,76 -458.5,255.6 -573.5,492.1 -300.5,620 -374.5,1303 -288.5,1968.5 181,1408.5 1077,2736.5 2043.5,3209.9 174,85.6 376,94.6 560.5,34.1 l 1429,-468.1 c 156,-50.9 293,-148.5 390.5,-280.5 316,-426.5 424,-1026 373.5,-1668.9"
         style="fill:#cecbd3;fill-opacity:1;fill-rule:nonzero;stroke:none"
         id="path116" />
      <path
         d="M 15144.8,9073.5 13325,9559 l 533.3,975 1766.7,-541.7 -480.2,-918.8"
         style="fill:#ebeaed;fill-opacity:1;fill-rule:nonzero;stroke:none"
         id="path118" />
      <path
         d="m 17668.5,9073.5 c -128.5,-1647.6 -1297,-3579 -2677,-3619.5 -98.5,-3.1 -196.5,11.4 -290.5,40 l -967.5,292.4 c -252,76 -458.5,255.6 -573.5,492 -300.5,620.1 -374.5,1303.1 -288.5,1968.6 L 14690,7830.4 c 17.5,-2343 1280,-2537.9 2843.5,1033.6 l 135,209.5"
         style="fill:#a69eb7;fill-opacity:1;fill-rule:nonzero;stroke:none"
         id="path120" />
      <path
         d="m 15233.4,11380 c -87.9,0 -173.9,-19.3 -252.4,-57.8 -1303.5,-638.4 -2614.6,-3063.7 -1685.9,-4978.4 96.8,-199.7 272.4,-350.5 481.8,-413.8 l 967.2,-292.4 c 81.7,-24.7 163.7,-36 243.1,-33.7 747,22 1533,698.5 2051,1765.4 598.7,1233.1 654.7,2583.5 136.1,3284 -78.9,106.6 -188.3,185.1 -316.3,227.1 l -1429.2,467.9 c -64.7,21.2 -130.6,31.7 -195.4,31.7 z m -266.6,-6076.4 c -102.6,0 -206.6,15.7 -309.5,46.8 l -967.3,292.4 c -289.2,87.5 -531.6,295.2 -664.8,570.1 -447.7,922.8 -452.1,2049.6 -12.5,3172.8 390.1,997 1093.8,1842.3 1836.4,2206 206.9,101.3 445.8,116.2 673,41.8 v -0.1 l 1429.3,-468 c 187.5,-61.3 347.9,-176.7 464,-333.6 683.1,-922.7 438.3,-2469.7 -107.3,-3593.6 C 16732.5,6052.8 15868.2,5329.7 14996,5304 c -9.8,-0.3 -19.5,-0.4 -29.2,-0.4"
         style="fill:#5e3519;fill-opacity:1;fill-rule:nonzero;stroke:none"
         id="path122" />
      <path
         d="m 14991.4,5303.9 c -25.7,0 -51.6,6.6 -75.4,20.5 -374.7,218.6 -561.8,711.1 -541.1,1424.1 40.8,1404.3 910.5,3454.4 1970.5,3992.9 398.4,202.5 798.1,179.5 1156.2,-66.3 68.2,-47 85.6,-140.3 38.7,-208.6 -46.9,-68.3 -140.1,-85.6 -208.6,-38.8 -269.4,185.1 -547.7,200.1 -850.4,46.3 -954.7,-485.1 -1768.9,-2439.4 -1806.5,-3734.1 -17.2,-588.1 122.2,-998.8 392.3,-1156.4 71.6,-41.8 95.7,-133.6 54,-205.2 -27.9,-47.8 -78.1,-74.4 -129.7,-74.4"
         style="fill:#5e3519;fill-opacity:1;fill-rule:nonzero;stroke:none"
         id="path124" />
      <path
         d="m 16617.2,8084.9 c -233.2,-610.5 -594.9,-1039.5 -807.8,-958.2 -213,81.4 -196.6,642.2 36.6,1252.8 233.2,610.5 594.9,1039.4 807.9,958.1 212.9,-81.3 196.5,-642.2 -36.7,-1252.7"
         style="fill:#5e3519;fill-opacity:1;fill-rule:nonzero;stroke:none"
         id="path126" />
      <path
         d="m 22118,21288.6 c -75.7,-207.5 -155,-409.7 -237.3,-612.5 -82.1,-202.4 -168.6,-403.1 -259,-602.1 -90,-199.2 -186.1,-396.1 -290.4,-589.3 -105.1,-192.4 -215.2,-383.8 -358.6,-556.6 -17.7,-21.3 -49.2,-24.2 -70.4,-6.6 -20.3,16.8 -23.9,46.2 -9,67.3 l 0.7,1 c 121.5,171.6 215.1,366.2 302.8,561.4 87.2,196 166.5,396.1 239.9,598.6 73.7,202.4 143.6,406.3 209,611.8 65.5,205 128.8,412.4 186.3,617.7 l 0.4,1.2 c 22.3,79.9 105.2,126.5 185,104.1 79.9,-22.4 126.5,-105.2 104.1,-185.1 -1,-3.6 -2.3,-7.5 -3.5,-10.9"
         style="fill:#5e3519;fill-opacity:1;fill-rule:nonzero;stroke:none"
         id="path128" />
      <path
         d="m 14946.4,13591.4 c 8.4,404.7 21,807.4 39.4,1210.9 9.3,201.6 19.7,403.1 33.4,604.6 13.7,201.5 29.1,402.9 52.2,603.7 1.6,13.7 14,23.6 27.7,22 12.9,-1.5 22.3,-12.7 22.2,-25.3 -2.2,-200.6 3.2,-401.4 10.4,-602.1 7.1,-200.6 17.6,-401.3 29.1,-601.9 23.3,-400.9 52.3,-802.5 85.5,-1201.8 v -0.8 c 6.9,-82.6 -54.5,-155.2 -137.2,-162.1 -82.7,-6.9 -155.3,54.6 -162.2,137.2 -0.4,5.2 -0.6,10.5 -0.5,15.6"
         style="fill:#5e3519;fill-opacity:1;fill-rule:nonzero;stroke:none"
         id="path130" />
      <path
         d="m 19250,27937.6 c 0,0 541.7,254.7 991.7,438 450,183.4 716.6,391.7 466.6,733.3 -250,341.7 -708.3,233.4 -708.3,233.4 0,0 -391.7,600 -1033.3,266.6 0,0 -233.4,383.4 -508.4,250 -275,-133.3 -726.4,-707.3 -604.9,-1320.3 121.6,-613 479.9,-905.7 1396.6,-601"
         style="fill:#ffeee5;fill-opacity:1;fill-rule:nonzero;stroke:none"
         id="path132" />
      <path
         d="m 19483.3,28210 c -50.8,56.1 -106.9,106.5 -167.2,150.7 181.5,81.5 401.7,178.1 603.5,260.4 338.1,137.3 573,289.3 562.8,501.2 38,-26 73.8,-59.4 104.9,-101.9 55.5,-75.9 76.7,-139.1 62.8,-188 -27.3,-96.3 -183.7,-203.3 -465,-317.9 -238.6,-97.1 -504.4,-215 -701.8,-304.5"
         style="fill:#d7c0b2;fill-opacity:1;fill-rule:nonzero;stroke:none"
         id="path134" />
      <path
         d="m 18576.7,29736.2 c -17.7,0 -35.4,-3.8 -52.9,-12.2 -233,-113 -628.9,-623.5 -523.3,-1156.2 53.5,-269.4 151.1,-442.1 298.5,-527.9 187.7,-109.2 488.9,-96.7 895.4,37.3 70.2,32.8 572.4,266.9 990.7,437.3 281.3,114.6 437.7,221.6 465,317.9 13.9,48.9 -7.3,112.1 -62.8,188 -186.8,255.2 -538.5,179.1 -553.5,175.7 -61.1,-13.7 -125.1,11.7 -159.4,64.2 -32.7,49 -336.5,476.3 -838.6,215.5 -69.9,-36.3 -156.3,-12.3 -197.3,55.2 -1.2,1.9 -130.9,205.2 -261.8,205.2 m 673.3,-1798.6 h 0.5 -0.5 m -631.4,-271.5 c -183.3,0 -339.3,38.2 -470.4,114.5 -226.2,131.7 -370.7,370 -441.9,728.8 -138.7,699.5 365.4,1328.8 686.6,1484.5 255.7,124 485.9,-34.7 623.4,-198.2 484.8,185.9 866.3,-70.8 1050.3,-292 174.5,16.8 533.6,7.1 762.8,-306.2 112.9,-154.2 149.7,-304.6 109.3,-446.9 -71.4,-252 -363.8,-401.2 -640.4,-513.9 -441.3,-179.8 -979.1,-432.3 -984.5,-434.9 -5.3,-2.5 -10.9,-4.7 -16.5,-6.6 -258.9,-86 -484.2,-129.1 -678.7,-129.1"
         style="fill:#5e3519;fill-opacity:1;fill-rule:nonzero;stroke:none"
         id="path136" />
      <path
         d="m 19009.7,28042.3 c -29,0 -58.4,8.4 -84.2,25.9 -68.5,46.6 -86.3,139.9 -39.8,208.4 517.1,760.7 1040.5,1173.9 1062.5,1191.1 65.3,51 159.5,39.5 210.6,-25.8 51,-65.3 39.4,-159.5 -25.8,-210.5 -8.3,-6.6 -511.8,-406.4 -999.1,-1123.4 -29.1,-42.7 -76.2,-65.7 -124.2,-65.7"
         style="fill:#5e3519;fill-opacity:1;fill-rule:nonzero;stroke:none"
         id="path138" />
      <path
         d="m 18366.8,28075.6 c -4.3,0 -8.6,0.2 -13,0.6 -82.5,7.1 -143.7,79.7 -136.6,162.3 70.1,814.6 613.6,1443 636.7,1469.3 54.6,62.4 149.4,68.5 211.6,13.9 62.3,-54.6 68.5,-149.3 14,-211.6 -7.9,-9 -502.1,-585 -563.4,-1297.3 -6.7,-78.2 -72.2,-137.2 -149.3,-137.2"
         style="fill:#5e3519;fill-opacity:1;fill-rule:nonzero;stroke:none"
         id="path140" />
      <path
         d="m 19224.8,28730.5 c 169.7,345.9 212.9,630.3 75.3,826.8 17.3,1.5 34.2,2.3 50.7,2.3 215.7,0 371,-124.4 454.8,-214 -132.7,-120 -344.6,-326.7 -580.8,-615.1"
         style="fill:#d7c0b2;fill-opacity:1;fill-rule:nonzero;stroke:none"
         id="path142" />
      <path
         d="m 19805.6,29345.6 c -83.8,89.6 -239.1,214 -454.8,214 -16.5,0 -33.4,-0.8 -50.7,-2.3 -33.8,48.2 -78.4,91.2 -134.8,128.5 l 584.7,-189.3 99.7,-111.6 c -13.5,-11.9 -28.2,-25 -44.1,-39.3"
         style="fill:#5e3519;fill-opacity:1;fill-rule:nonzero;stroke:none"
         id="path144" />
      <path
         d="m 19101.9,28483.9 c -3.4,1.5 -6.7,2.9 -10.1,4.3 50.3,83.7 94.9,164.6 133,242.3 236.2,288.4 448.1,495.1 580.8,615.1 15.9,14.3 30.6,27.4 44.1,39.3 l 31.5,-35.4 -779.3,-865.6"
         style="fill:#5e3519;fill-opacity:1;fill-rule:nonzero;stroke:none"
         id="path146" />
      <path
         d="m 12625,18184 c -5567,-293 -5739,3903 -5744,4099 0,4.4 0,6.9 0,6.9 0,0 -394,826.1 551,3517.1 5.5,17.5 12,34.4 18,52 968,2732.4 4137.5,3624.9 4137.5,3624.9 995,415.1 1663.5,1037 1775,2012.5 800,-725 725,-1562.5 725,-1562.5 737.5,212.5 1075,1362.5 1075,1362.5 107,-80 198.5,-164.5 276.5,-250.5 531,-587 436,-1261.9 436,-1261.9 1341.5,-305.6 2094,-891.5 2394.5,-1175 105.5,-100.1 155.5,-162.5 155.5,-162.5 l 428,-605 1722,-2432.5 c 18.5,-103.5 35.5,-205.5 51,-306.6 782.5,-5103.9 -2411.5,-6624.5 -8001,-6918.4"
         style="fill:#d79d77;fill-opacity:1;fill-rule:nonzero;stroke:none"
         id="path148" />
      <path
         d="m 13585.5,27702 c 392,142 780.5,274.5 1156.5,390.5 2073.5,640.5 2520,371 2922.5,-170 -1488.5,54 -2856.5,-42 -4079,-220.5"
         style="fill:#ffeee5;fill-opacity:1;fill-rule:nonzero;stroke:none"
         id="path150" />
      <path
         d="M 19333.5,22652.5 C 19002.5,20958.5 15975,18734 11450,19259 c -2679.5,310.5 -3411,2197 -3540.5,3779 374.5,236 777,454 1200,654.5 252,198.5 545,382 878,516.5 359,145 702.5,217.5 1016,226.5 417.5,135.5 843,256 1273,363 l 1,0.5 c 1091.5,272 2208,454.5 3269,548.5 232.5,178 549.5,325 978.5,411.5 1066,215 1904,-150.5 2372,-445 121.5,-16.5 239.5,-35 354,-55.5 209,-810 254,-1727 82.5,-2606"
         style="fill:#ffeee5;fill-opacity:1;fill-rule:nonzero;stroke:none"
         id="path152" />
      <path
         d="m 18845.2,21631.3 c -104.8,747.3 -1345.2,1177.6 -2257.7,1227.6 -912.5,50 -1412.5,450 -1562.5,875 -150,425 -175,1687.5 1500,2025 1675,337.5 2785.8,-757.6 2785.8,-757.6 213.5,-1438.4 165.7,-2653.5 -465.6,-3370"
         style="fill:#a96b3f;fill-opacity:1;fill-rule:nonzero;stroke:none"
         id="path154" />
      <path
         d="m 7993.19,22412.4 c 0,0 694.31,1271.5 1994.31,1796.5 1300,525 2400,100 2587.5,-825 187.5,-925 -100,-1450 -987.5,-1962.5 -887.5,-512.5 -1581.8,-1158.9 -1515.9,-1804.4 -1078.76,456.3 -1784.27,1372.5 -2078.41,2795.4"
         style="fill:#a96b3f;fill-opacity:1;fill-rule:nonzero;stroke:none"
         id="path156" />
      <path
         d="m 19251,25258.5 c -114.5,20.5 -232.5,39 -354,55.5 -468,294.5 -1306,660 -2372,445 -429,-86.5 -746,-233.5 -978.5,-411.5 -1061,-94 -2177.5,-276.5 -3269,-548.5 l -1,-0.5 c -430,-107 -855.5,-227.5 -1273,-363 -313.5,-9 -657,-81.5 -1016,-226.5 -333,-134.5 -626,-318 -878,-516.5 -423,-200.5 -825.5,-418.5 -1200,-654.5 -100,1217.5 157,2254.5 157,2254.5 0,0 2838,1438 5519,2409.5 1222.5,178.5 2590.5,274.5 4079,220.5 169,-227.5 330.5,-503.5 602,-780 444.5,-453 787.5,-1121 984.5,-1884"
         style="fill:#f9cebb;fill-opacity:1;fill-rule:nonzero;stroke:none"
         id="path158" />
      <path
         d="m 8066.5,25292.5 c 0,0 -257,-1037 -157,-2254.5 -373,-234.5 -718,-485.5 -1028.5,-755 0,4.5 0,7 0,7 0,0 -394,826 551,3517 786.5,411 2981,1431.5 6153.5,1895 -2681,-971.5 -5519,-2409.5 -5519,-2409.5"
         style="fill:#be8560;fill-opacity:1;fill-rule:nonzero;stroke:none"
         id="path160" />
      <path
         d="m 12625,18184 c -2279,-120 -3654,512.5 -4483.5,1315.5 851,-600 2116.5,-1014.5 3999.5,-915.5 5406.5,284.5 8571.5,1716 8065.5,6428.5 -279.5,100.5 -600.5,182.5 -955.5,246 -197,763 -540,1431 -984.5,1884 -271.5,276.5 -433,552.5 -602,780 88.5,-3 178,-6.5 267.5,-11 231,-10.5 465,-25.5 702,-44 31.5,-2.5 63,-5 95,-7.5 42,-3.5 83.5,-9.5 124,-18.5 L 20575,25409 c 18.5,-103.5 35.5,-205.5 51,-306.5 v -1 c 782,-5103 -2412,-6623.5 -8001,-6917.5"
         style="fill:#be8560;fill-opacity:1;fill-rule:nonzero;stroke:none"
         id="path162" />
      <path
         d="m 8038.53,26726.5 c 1214.51,1921.1 3562.67,2605.4 3589.67,2613.1 5.8,1.6 11.5,3.6 17,5.9 1024.7,427.2 1621.3,1030.3 1814.5,1837.8 17.3,-19.9 34,-39.9 50.1,-59.8 -147.9,-912.4 -802.9,-1502.9 -1759.8,-1902 0,0 -2182.1,-614.7 -3478.13,-2384.7 -82.51,-38.1 -160.25,-74.9 -233.34,-110.3"
         style="fill:#efd8c9;fill-opacity:1;fill-rule:nonzero;stroke:none"
         id="path164" />
      <path
         d="m 14250,29671.5 c 0,0 5.3,59.4 -2.2,160.5 536.3,227.4 851.4,872.6 984.3,1210.9 25.4,-23.8 49.5,-47.9 72.4,-72.1 -83,-243.6 -421.4,-1116.9 -1054.5,-1299.3"
         style="fill:#efd8c9;fill-opacity:1;fill-rule:nonzero;stroke:none"
         id="path166" />
      <path
         d="m 8175.55,25207.1 c -84.24,-390.5 -533.8,-2761.5 571.82,-4355 577.64,-832.6 1491.83,-1326.8 2717.03,-1469 1994,-231.4 3927,71.2 5442.8,851.7 1252.6,644.9 2135.2,1580.6 2303.5,2441.9 314,1607.5 -120.5,3448.7 -1033.2,4378 -204.8,208.5 -349,416.4 -476.3,599.9 -434.9,627 -697.3,1005.5 -2922.6,318.3 -2714.5,-838.4 -6139.97,-2534.1 -6603.05,-2765.8 m 4623.15,-6152.8 c -429,0 -883.4,24.8 -1363.1,80.5 -1300.2,150.9 -2273.97,681 -2894.29,1575.7 -1266.2,1826.3 -623.97,4499 -595.99,4611.8 8.74,35.3 32.42,65.1 64.79,81.5 37.4,18.9 3771.49,1905.1 6694.79,2807.9 2293.2,708.2 2674.9,344.9 3201.7,-414.6 127.5,-183.8 259.4,-373.9 449.2,-567.2 981.8,-999.6 1434.2,-2891.6 1100.3,-4601.2 -182.7,-934.5 -1115.5,-1937 -2434.5,-2616.2 -901,-464 -2310.1,-958.2 -4222.9,-958.2"
         style="fill:#5e3519;fill-opacity:1;fill-rule:nonzero;stroke:none"
         id="path168" />
      <path
         d="m 11587.5,29483.9 h 0.5 -0.5 m 1872.2,1699.4 c -193.2,-807.5 -789.8,-1410.6 -1814.5,-1837.8 -5.5,-2.3 -11.2,-4.3 -17,-5.9 -30.9,-8.8 -3106.76,-905.3 -4036.78,-3530.8 -922.86,-2605.1 -577.35,-3448 -573.78,-3456.2 8.1,-18.5 13.43,-40.7 13.62,-60.9 0.2,-15.5 33.49,-1578.7 1259.12,-2727.3 977.79,-916.2 2432.82,-1330.3 4326.72,-1230.7 3748.9,197.4 5927.8,924.8 7065.1,2358.9 865.6,1091.4 1111.3,2615 751,4657.1 l -2127.5,3005.5 c -43.7,52.1 -777.4,898.6 -2464,1282.5 -76,17.3 -126.1,89.9 -115.2,167.2 3.9,29.8 84.3,694.5 -494.4,1238 -142.4,-362.5 -494.2,-1077.6 -1103,-1253.1 -47.7,-13.7 -98.9,-3.1 -137.1,28.4 -38.1,31.5 -58.3,79.8 -53.9,129.1 2.2,27.7 44.2,633 -478.4,1236 M 12078.1,18019.2 c -1713.5,0 -3055.97,446.2 -3996.5,1329.7 -1240.28,1165.1 -1341.41,2678.8 -1349.61,2911.5 -67.04,188.9 -307.23,1153.6 576.61,3648.6 514.65,1452.8 1640.48,2387 2494.29,2914.8 878.91,543.4 1638.91,774 1734.81,801.9 1031.8,432.1 1579.9,1049.7 1675.8,1887.8 6.4,55.9 43.5,103.5 96.1,123.3 52.6,19.8 111.9,8.6 153.6,-29.2 590.7,-535.3 735.3,-1127.8 767.7,-1449 524.9,308.6 784.9,1170.6 787.7,1180.2 13.9,47.1 50,84.4 96.5,99.9 46.7,15.5 97.8,7.3 137.1,-22 706.4,-527.2 782.3,-1223 779.7,-1515.8 1753.1,-431.8 2479.7,-1322.6 2510.4,-1361.1 1.8,-2.3 3.5,-4.5 5.1,-6.9 l 2150,-3037.3 c 12.8,-18 21.4,-38.5 25.3,-60.2 384.8,-2148.2 121.3,-3760.6 -805.5,-4929.2 -1195.4,-1507.4 -3441.9,-2269.8 -7284.3,-2472.1 -189,-9.9 -374.1,-14.9 -554.8,-14.9"
         style="fill:#5e3519;fill-opacity:1;fill-rule:nonzero;stroke:none"
         id="path170" />
      <path
         d="m 14255.7,22703.3 c -87.9,-71.7 -199.1,-109.1 -312.5,-107.2 -943.9,15.8 -1225.7,552.4 -169,923.8 934.8,383.5 1373.2,-89.6 481.5,-816.6"
         style="fill:#5e3519;fill-opacity:1;fill-rule:nonzero;stroke:none"
         id="path172" />
      <path
         d="m 13332.1,21987.9 c 69.2,-71.4 155.9,-109.5 245.1,-127.5 89.3,-17 181,-13.2 259.7,11.3 79.2,24.3 142.7,66.6 188.8,122.5 46.7,56.1 77.5,128.7 104.9,214.7 l 1.9,5.8 c 27.7,87 120.7,135 207.7,107.3 7.1,-2.3 14.8,-5.4 21.4,-8.6 91.1,-43.8 180.4,-81 268.9,-100.5 88.2,-18.8 174,-21.6 249.2,1.1 16.8,8.9 37.4,12.1 54.3,22.2 16,10.9 36.1,17.4 50.2,32.3 l 24.9,18.9 c 8.7,6.1 14.6,15.5 22.3,23.1 l 22.7,24.3 19.7,28.5 c 53.3,77.2 89.3,178.4 120,288.9 l 0.7,2.7 c 7.6,27.3 35.8,43.3 63.1,35.7 18.6,-5.1 31.9,-19.9 36.1,-37.4 29,-120.5 33.4,-254.1 -10.8,-387.7 -5.6,-16.6 -10.8,-33.6 -17.2,-50.1 l -25.7,-47.9 c -9.3,-15.8 -16.6,-32.8 -28.1,-47.4 l -34.7,-44.4 c -22.5,-30.7 -54,-53.1 -82.9,-78.6 -29.7,-24.2 -64.1,-42.1 -97.7,-61.5 -140.2,-65.9 -296.3,-73.4 -433.5,-44.3 -138.4,28.5 -262.9,89.9 -366.3,171.5 l 230.9,104.5 c -8.6,-132.4 -56.1,-275.5 -155.9,-387.4 -24.9,-27.8 -50,-55.4 -81.3,-76 -30.2,-21.8 -59.3,-45.2 -93.4,-59.2 -33.3,-15.7 -66.1,-31.9 -101.1,-40 -34.4,-10.2 -68.7,-20.2 -103.8,-22 -139.1,-16.7 -276.5,8.7 -394.3,70.4 -116.8,60.2 -219.8,162.7 -255,289.4 -7.5,27.1 8.4,55.1 35.5,62.7 18.5,5.1 37.5,-0.7 50.1,-13.6 l 3.6,-3.7"
         style="fill:#5e3519;fill-opacity:1;fill-rule:nonzero;stroke:none"
         id="path174" />
      <path
         d="m 14279.2,22038.1 c -61.9,0 -119.7,38.5 -141.5,100.1 -1.3,3.8 -135.1,382.1 -220.2,588.6 -31.5,76.6 5.1,164.3 81.6,195.8 76.7,31.5 164.3,-4.9 195.9,-81.6 87.9,-213.5 220,-587.1 225.6,-602.9 27.6,-78.1 -13.4,-163.8 -91.5,-191.4 -16.5,-5.8 -33.4,-8.6 -49.9,-8.6"
         style="fill:#5e3519;fill-opacity:1;fill-rule:nonzero;stroke:none"
         id="path176" />
      <path
         d="m 20575,25409 c -1515,779.9 -4946,768 -8158,-48 l -1,-0.5 C 10274,24816.9 8229.5,23915.5 6916,22653 l -35,-363.1 -143,156.1 c -93,100.9 -158.5,224.9 -185,359.9 -272,1395.6 302.5,2589.6 614,3109 108.5,181.1 264,328.1 450,428.5 1018,549.6 4878,2396.5 10345.5,2130 257,-11.9 518,-29.5 782,-51.5 266,-22.5 510,-156.9 674,-367.5 467,-600.4 1361.5,-1880.5 1156.5,-2645.4"
         style="fill:#00aaff;fill-opacity:1;fill-rule:nonzero;stroke:none"
         id="path178" />
      <path
         d="m 6481.94,23126.2 c 2626.11,2426.9 10201.36,4399.4 14024.76,3068.3 -210,452.1 -885.8,1591 -885.8,1591 C 12291.7,28437 6896.44,25395 6896.44,25395 c 0,0 -482.55,-984.9 -414.5,-2268.8"
         style="fill:#ffffff;fill-opacity:1;fill-rule:nonzero;stroke:none"
         id="path180" />
      <path
         d="m 16885,28350.1 c -4821.8,0 -8195.98,-1598.5 -9196.9,-2138.7 -162.94,-88 -298.64,-217.1 -392.4,-373.5 -332.86,-555 -852.77,-1683.2 -595.5,-3003.4 11.86,-60.8 34.13,-119.7 65.78,-174.8 l 0.68,7.3 c 3.41,35.7 19.52,69 45.36,93.8 1499.21,1440.9 4120.98,2566.8 7192.98,3089 2629.6,447 5120,358.4 6450.6,-218.7 20.8,732 -784.7,1854.4 -1155.6,2331 -138.9,178.5 -346,291.5 -568.2,310.2 -636.2,53.5 -1252.7,77.8 -1846.8,77.8 M 6881.25,22140.2 c -41.25,0 -81.54,17 -110.4,48.5 l -143.21,155.7 c -114.21,124.2 -190.91,273.8 -221.87,432.7 -276.42,1418.5 277.73,2623.2 632.62,3215.1 121.48,202.5 296.87,369.6 507.22,483.2 1142.67,616.7 5328.09,2590.9 11211.29,2095.8 305.4,-25.6 589.6,-180.5 779.8,-424.9 535.5,-688 1401.2,-1963.5 1183.2,-2776.2 -11.8,-43.9 -42.7,-80 -84.2,-98.3 -41.4,-18.4 -89.1,-17 -129.3,3.8 -1219.8,628 -3752,737.2 -6451.1,278.4 -2986.8,-507.7 -5531.81,-1589.3 -6995.33,-2971.3 l -29.39,-306.8 c -5.67,-58.9 -45.42,-109 -101.57,-127.9 -15.67,-5.3 -31.79,-7.8 -47.76,-7.8"
         style="fill:#5e3519;fill-opacity:1;fill-rule:nonzero;stroke:none"
         id="path182" />
      <path
         d="m 10194.5,22373.9 c -9.9,226.6 50.9,467 192.9,669.9 140.6,202.2 368,358.1 624.3,404.5 127.3,23.9 260.2,21.4 386.3,-8.2 125.7,-30.9 244.4,-86.9 344.2,-163.8 202,-153.2 325,-379 360.3,-604.7 4.4,-28 -14.8,-54.3 -42.8,-58.7 -19.4,-3 -37.9,5.2 -49,19.9 l -0.7,1 c -128.5,171 -269.3,309.8 -430.8,391.8 -160.1,82.8 -335.8,109.7 -504.7,79 -168.8,-30 -329.1,-116.2 -460.5,-247.6 -133.6,-130.8 -233.5,-304.8 -321,-500.5 l -0.6,-1.3 c -11.5,-25.8 -41.8,-37.4 -67.6,-25.8 -18.3,8.1 -29.4,25.8 -30.3,44.5"
         style="fill:#5e3519;fill-opacity:1;fill-rule:nonzero;stroke:none"
         id="path184" />
      <path
         d="m 16167,23732.7 c -23.5,210.6 17.9,440.3 143.4,638.6 123.8,197.8 338.9,352.1 581.4,397.9 242.1,47.5 498.2,-13.6 690.8,-147.5 194.8,-132.8 328.9,-328.5 391.4,-534.8 12.3,-40.5 -10.7,-83.4 -51.2,-95.6 -28.9,-8.8 -59,0.4 -78.3,21.1 l -1.8,2 c -133.2,143.1 -270.2,261.9 -422.2,334.9 -151,73 -312.3,100.8 -466.9,77.1 -154.1,-25.3 -299.3,-103.3 -415.9,-227.1 -118.6,-123.2 -202.9,-290.2 -271.3,-477.2 l -0.5,-1.3 c -9.7,-26.6 -39.1,-40.2 -65.7,-30.5 -18.8,6.9 -31.1,23.7 -33.2,42.4"
         style="fill:#5e3519;fill-opacity:1;fill-rule:nonzero;stroke:none"
         id="path186" />
      <path
         d="m 18028.1,28620.7 c -211.9,10.9 -421.1,18.6 -628.2,23.4 -922.7,568.1 -1974.9,956.4 -1974.9,956.4 248.2,521.1 38.6,1077.2 -94.4,1342 470.7,-521.6 399.6,-1109.7 395.9,-1137.6 -10.9,-77.3 39.2,-149.9 115.2,-167.2 1130.6,-257.3 1833,-722.6 2186.4,-1017"
         style="fill:#a27c73;fill-opacity:1;fill-rule:nonzero;stroke:none"
         id="path188" />
      <path
         d="m 18260.8,28607.5 c -78.1,4.8 -155.3,9.2 -232.7,13.2 -353.4,294.4 -1055.8,759.7 -2186.4,1017 -76,17.3 -126.1,89.9 -115.2,167.2 3.7,27.9 74.8,616 -395.9,1137.6 -49.9,99.5 -89.1,157.9 -89.1,157.9 l 197.5,-54.5 c 531,-587 436,-1261.9 436,-1261.9 1341.5,-305.6 2094,-891.5 2394.5,-1175 l -8.7,-1.5"
         style="fill:#4d3331;fill-opacity:1;fill-rule:nonzero;stroke:none"
         id="path190" />
      <path
         d="m 17625,28500 c -73.7,49.2 -148.9,97.2 -225.1,144.1 207.1,-4.8 416.3,-12.5 628.2,-23.4 77.4,-4 154.6,-8.4 232.7,-13.2 L 17625,28500"
         style="fill:#4d3331;fill-opacity:1;fill-rule:nonzero;stroke:none"
         id="path192" />
      <path
         d="m 20455.6,25631.1 c -764.8,331.7 -1912.7,502 -3250,502 -961.9,0 -2022.1,-88.2 -3107.9,-267.8 2676.7,637.1 4592.5,323.7 5196.2,626.2 366.7,-58.7 713.6,-137.7 1036.4,-238.8 81.8,-221.2 130.6,-434.2 125.3,-621.6 m -1033.7,2171.2 c -147.8,11.9 -296.1,22.3 -442.2,31.2 -204.3,214.5 -430.8,365.6 -618.2,466.8 122.7,-8.2 246.1,-17.5 370.3,-28 222.2,-18.7 429.3,-131.7 568.2,-310.2 36.8,-47.3 77.8,-100.9 121.9,-159.8"
         style="fill:#188dc5;fill-opacity:1;fill-rule:nonzero;stroke:none"
         id="path194" />
      <path
         d="m 20330.3,26252.7 c -322.8,101.1 -669.7,180.1 -1036.4,238.8 174.6,87.5 239.4,226.5 181.1,454.9 -95.5,374 -283.5,664.7 -495.3,887.1 146.1,-8.9 294.4,-19.3 442.2,-31.2 286.7,-383.3 702.2,-992.4 908.4,-1549.6"
         style="fill:#d7ccc5;fill-opacity:1;fill-rule:nonzero;stroke:none"
         id="path196" />
      <path
         d="m 12417,25361 c 587.3,213.7 1149.1,377.8 1680.7,504.3 1085.8,179.6 2146,267.8 3107.9,267.8 1337.3,0 2485.2,-170.3 3250,-502 5.3,187.4 -43.5,400.4 -125.3,621.6 -206.2,557.2 -621.7,1166.3 -908.4,1549.6 -44.1,58.9 -85.1,112.5 -121.9,159.8 -138.9,178.5 -346,291.5 -568.2,310.2 -124.2,10.5 -247.6,19.8 -370.3,28 -228.7,123.7 -399,173.1 -399,173.1 257,-11.9 518,-29.5 782,-51.5 266,-22.5 510,-156.9 674,-367.5 467,-600.4 1361.5,-1880.5 1156.5,-2645.4 -743.3,382.6 -1947.7,574.7 -3361.2,574.7 -1467.6,0 -3160.6,-207.1 -4796.8,-622.7"
         style="fill:#5e3519;fill-opacity:1;fill-rule:nonzero;stroke:none"
         id="path198" />
      <path
         d="m 14248.6,23398.5 c -16.8,59.4 -172.1,67.3 -346.7,17.6 -174.7,-49.6 -302.6,-137.9 -285.8,-197.2 16.9,-59.4 172.2,-67.3 346.8,-17.7 174.7,49.6 302.6,138 285.7,197.3"
         style="fill:#ffeee5;fill-opacity:1;fill-rule:nonzero;stroke:none"
         id="path200" />
    </g>
  </g>
</svg>
