<svg width="48" height="50" viewBox="0 0 48 50" fill="none" xmlns="http://www.w3.org/2000/svg">
<g clip-path="url(#clip0_452_3987)">
<path d="M31.3421 5.18384H28.2956C27.9462 5.18381 27.6058 5.07321 27.3232 4.86787C27.0405 4.66254 26.8301 4.37301 26.7221 4.04076L25.7807 1.14313C25.6727 0.810863 25.4623 0.521304 25.1797 0.315953C24.8971 0.110601 24.5567 0 24.2073 0C23.8579 0 23.5175 0.110601 23.2349 0.315953C22.9523 0.521304 22.7419 0.810863 22.6339 1.14313L21.6925 4.04076C21.5844 4.37301 21.374 4.66254 21.0914 4.86788C20.8087 5.07322 20.4684 5.18382 20.119 5.18384H17.0724C16.7231 5.18395 16.3828 5.2946 16.1002 5.49995C15.8177 5.7053 15.6074 5.99481 15.4994 6.327C15.3915 6.6592 15.3915 7.01703 15.4993 7.34924C15.6072 7.68145 15.8175 7.971 16.1 8.1764L18.5649 9.96705C18.8475 10.1724 19.0578 10.462 19.1657 10.7942C19.2737 11.1265 19.2737 11.4844 19.1658 11.8166L18.2244 14.7142C18.1164 15.0464 18.1164 15.4043 18.2243 15.7366C18.3323 16.0689 18.5426 16.3584 18.8253 16.5638C19.1079 16.7692 19.4483 16.8798 19.7976 16.8798C20.147 16.8798 20.4874 16.7692 20.7701 16.5639L23.2347 14.773C23.5174 14.5677 23.8578 14.4572 24.2072 14.4572C24.5566 14.4572 24.897 14.5677 25.1797 14.773L27.6445 16.5639C27.9271 16.7692 28.2675 16.8798 28.6169 16.8798C28.9662 16.8798 29.3066 16.7692 29.5892 16.5638C29.8719 16.3584 30.0822 16.0689 30.1902 15.7366C30.2981 15.4043 30.2981 15.0464 30.1901 14.7142L29.2492 11.817C29.1412 11.4847 29.1412 11.1268 29.2492 10.7946C29.3571 10.4623 29.5675 10.1728 29.8501 9.96739L32.3142 8.1764C32.5967 7.97102 32.8069 7.6815 32.9148 7.34932C33.0227 7.01714 33.0227 6.65934 32.9148 6.32717C32.8069 5.99499 32.5966 5.70548 32.3141 5.5001C32.0316 5.29473 31.6914 5.18402 31.3421 5.18384Z" fill="#0085FF"/>
<path d="M19.7563 21.3271H28.2421C28.5194 21.3271 28.794 21.3818 29.0501 21.4879C29.3063 21.594 29.5391 21.7495 29.7351 21.9456C29.9312 22.1416 30.0867 22.3744 30.1928 22.6306C30.2989 22.8868 30.3536 23.1613 30.3536 23.4386V47.8882C30.3536 48.4481 30.1311 48.9851 29.7353 49.381C29.3394 49.7768 28.8024 49.9993 28.2425 49.9993H19.7572C19.1972 49.9993 18.6602 49.7768 18.2642 49.3808C17.8682 48.9849 17.6458 48.4478 17.6458 47.8878V23.4382C17.6458 22.8784 17.8681 22.3415 18.2639 21.9456C18.6597 21.5498 19.1965 21.3273 19.7563 21.3271Z" fill="#0085FF"/>
<path d="M2.43336 28.7412H10.9188C11.196 28.7412 11.4706 28.7957 11.7268 28.9018C11.9829 29.0078 12.2157 29.1633 12.4118 29.3594C12.6078 29.5554 12.7634 29.7881 12.8695 30.0443C12.9756 30.3004 13.0302 30.575 13.0302 30.8522V47.8886C13.0302 48.4486 12.8078 48.9857 12.4118 49.3816C12.0158 49.7776 11.4788 50.0001 10.9188 50.0001H2.43421C1.87422 50.0001 1.33716 49.7776 0.941185 49.3816C0.54521 48.9857 0.322754 48.4486 0.322754 47.8886V30.8522C0.322754 30.2924 0.545107 29.7556 0.940909 29.3597C1.33671 28.9638 1.87355 28.7413 2.43336 28.7412Z" fill="#0085FF"/>
<path d="M37.0803 28.7412H45.566C46.126 28.7412 46.663 28.9637 47.059 29.3596C47.455 29.7556 47.6775 30.2927 47.6775 30.8527V47.8884C47.6775 48.4484 47.455 48.9854 47.059 49.3814C46.663 49.7774 46.126 49.9998 45.566 49.9998H37.0812C36.5212 49.9998 35.9841 49.7774 35.5882 49.3814C35.1922 48.9854 34.9697 48.4484 34.9697 47.8884V30.852C34.9698 30.2922 35.1922 29.7554 35.588 29.3596C35.9838 28.9637 36.5206 28.7413 37.0803 28.7412Z" fill="#0085FF"/>
</g>
<defs>
<clipPath id="clip0_452_3987">
<rect width="47.3546" height="50" fill="white" transform="translate(0.322754)"/>
</clipPath>
</defs>
</svg>
