<svg width="100" height="100" viewBox="0 0 100 100" fill="none" xmlns="http://www.w3.org/2000/svg">
<g id="custom-components/icon/settings">
<path id="Vector" d="M49.5496 61.2613C56.0178 61.2613 61.2613 56.0177 61.2613 49.5495C61.2613 43.0813 56.0178 37.8378 49.5496 37.8378C43.0814 37.8378 37.8379 43.0813 37.8379 49.5495C37.8379 56.0177 43.0814 61.2613 49.5496 61.2613Z" stroke="#0085FF" stroke-width="9.00901" stroke-linecap="round" stroke-linejoin="round"/>
<path id="Vector_2" d="M78.1385 60.9609C77.6188 62.1384 77.4638 63.4446 77.6934 64.711C77.923 65.9774 78.5268 67.146 79.4268 68.0661L79.661 68.3003C80.3869 69.0254 80.9628 69.8865 81.3558 70.8344C81.7487 71.7822 81.9509 72.7982 81.9509 73.8243C81.9509 74.8504 81.7487 75.8664 81.3558 76.8142C80.9628 77.7621 80.3869 78.6232 79.661 79.3483C78.9359 80.0743 78.0748 80.6502 77.1269 81.0431C76.179 81.436 75.163 81.6383 74.137 81.6383C73.1109 81.6383 72.0949 81.436 71.1471 81.0431C70.1992 80.6502 69.3381 80.0743 68.6129 79.3483L68.3787 79.1141C67.4586 78.2141 66.2901 77.6104 65.0237 77.3808C63.7572 77.1511 62.4511 77.3061 61.2736 77.8258C60.119 78.3207 59.1342 79.1424 58.4406 80.1898C57.7469 81.2371 57.3747 82.4645 57.3697 83.7207V84.3844C57.3697 86.4551 56.5471 88.4411 55.0829 89.9053C53.6186 91.3696 51.6327 92.1922 49.5619 92.1922C47.4911 92.1922 45.5052 91.3696 44.0409 89.9053C42.5767 88.4411 41.7541 86.4551 41.7541 84.3844V84.033C41.7239 82.7409 41.3056 81.4877 40.5537 80.4364C39.8018 79.3851 38.751 78.5843 37.5379 78.1381C36.3604 77.6185 35.0542 77.4634 33.7878 77.6931C32.5214 77.9227 31.3528 78.5264 30.4328 79.4264L30.1985 79.6607C29.4734 80.3866 28.6123 80.9625 27.6644 81.3554C26.7166 81.7483 25.7006 81.9506 24.6745 81.9506C23.6484 81.9506 22.6324 81.7483 21.6846 81.3554C20.7367 80.9625 19.8756 80.3866 19.1505 79.6607C18.4245 78.9355 17.8486 78.0744 17.4557 77.1266C17.0628 76.1787 16.8606 75.1627 16.8606 74.1366C16.8606 73.1106 17.0628 72.0946 17.4557 71.1467C17.8486 70.1989 18.4245 69.3377 19.1505 68.6126L19.3847 68.3784C20.2847 67.4583 20.8884 66.2897 21.1181 65.0233C21.3477 63.7569 21.1927 62.4507 20.673 61.2733C20.1781 60.1186 19.3564 59.1339 18.3091 58.4402C17.2617 57.7466 16.0343 57.3744 14.7781 57.3694H14.1144C12.0437 57.3694 10.0577 56.5468 8.59349 55.0825C7.12925 53.6183 6.30664 51.6323 6.30664 49.5616C6.30664 47.4908 7.12925 45.5048 8.59349 44.0406C10.0577 42.5764 12.0437 41.7537 14.1144 41.7537H14.4658C15.758 41.7235 17.0112 41.3053 18.0625 40.5533C19.1138 39.8014 19.9145 38.7506 20.3607 37.5375C20.8804 36.36 21.0354 35.0539 20.8058 33.7875C20.5761 32.5211 19.9724 31.3525 19.0724 30.4324L18.8382 30.1982C18.1122 29.4731 17.5363 28.6119 17.1434 27.6641C16.7505 26.7162 16.5482 25.7002 16.5482 24.6742C16.5482 23.6481 16.7505 22.6321 17.1434 21.6842C17.5363 20.7364 18.1122 19.8753 18.8382 19.1501C19.5633 18.4242 20.4244 17.8483 21.3723 17.4554C22.3201 17.0625 23.3361 16.8602 24.3622 16.8602C25.3883 16.8602 26.4043 17.0625 27.3521 17.4554C28.3 17.8483 29.1611 18.4242 29.8862 19.1501L30.1205 19.3844C31.0405 20.2844 32.2091 20.8881 33.4755 21.1177C34.7419 21.3473 36.0481 21.1923 37.2256 20.6727H37.5379C38.6925 20.1778 39.6773 19.3561 40.3709 18.3087C41.0645 17.2613 41.4368 16.034 41.4418 14.7778V14.1141C41.4418 12.0433 42.2644 10.0574 43.7286 8.59315C45.1929 7.1289 47.1788 6.3063 49.2496 6.3063C51.3203 6.3063 53.3063 7.1289 54.7705 8.59315C56.2348 10.0574 57.0574 12.0433 57.0574 14.1141V14.4655C57.0624 15.7217 57.4346 16.949 58.1283 17.9964C58.8219 19.0438 59.8066 19.8655 60.9613 20.3604C62.1388 20.88 63.4449 21.035 64.7113 20.8054C65.9777 20.5758 67.1463 19.9721 68.0664 19.0721L68.3006 18.8378C69.0258 18.1119 69.8869 17.536 70.8347 17.1431C71.7826 16.7501 72.7986 16.5479 73.8247 16.5479C74.8507 16.5479 75.8667 16.7501 76.8146 17.1431C77.7624 17.536 78.6235 18.1119 79.3487 18.8378C80.0746 19.563 80.6505 20.4241 81.0434 21.3719C81.4364 22.3198 81.6386 23.3358 81.6386 24.3619C81.6386 25.3879 81.4364 26.4039 81.0434 27.3518C80.6505 28.2996 80.0746 29.1607 79.3487 29.8859L79.1144 30.1201C78.2145 31.0402 77.6107 32.2088 77.3811 33.4752C77.1515 34.7416 77.3065 36.0477 77.8262 37.2252V37.5375C78.321 38.6922 79.1427 39.6769 80.1901 40.3706C81.2375 41.0642 82.4648 41.4364 83.7211 41.4414H84.3847C86.4555 41.4414 88.4414 42.264 89.9057 43.7283C91.3699 45.1925 92.1925 47.1785 92.1925 49.2492C92.1925 51.32 91.3699 53.3059 89.9057 54.7702C88.4414 56.2344 86.4555 57.057 84.3847 57.057H84.0334C82.7771 57.0621 81.5498 57.4343 80.5024 58.1279C79.455 58.8215 78.6333 59.8063 78.1385 60.9609Z" stroke="#0085FF" stroke-width="9.00901" stroke-linecap="round" stroke-linejoin="round"/>
</g>
</svg>
