<svg width="60" height="50" viewBox="0 0 60 50" fill="none" xmlns="http://www.w3.org/2000/svg">
<g id="custom-components/icon/social">
<path id="Vector" d="M50.8554 26.9939H46.2974C46.7707 28.2979 47.0124 29.6752 47.0115 31.0631V48.296C47.0111 48.8767 46.9117 49.453 46.7177 50H54.2181C55.5613 50 56.8495 49.4641 57.7992 48.5102C58.749 47.5563 59.2826 46.2625 59.2826 44.9135V35.4985C59.2786 33.2512 58.3908 31.0965 56.8124 29.5036C55.234 27.9107 53.0929 27.0087 50.8554 26.9939Z" fill="#0085FF"/>
<path id="Vector_2" d="M35.1556 22.5586H24.7887C22.5424 22.5613 20.3889 23.4587 18.8005 25.054C17.2121 26.6493 16.3186 28.8122 16.3159 31.0683V48.2961C16.3159 48.7481 16.4947 49.1815 16.8128 49.501C17.131 49.8206 17.5625 50.0001 18.0125 50.0001H41.942C42.3919 50.0001 42.8235 49.8206 43.1416 49.501C43.4598 49.1815 43.6385 48.7481 43.6385 48.2961V31.0683C43.6359 28.8104 42.7409 26.646 41.1504 25.0504C39.5598 23.4548 37.4037 22.5586 35.1556 22.5586Z" fill="#0085FF"/>
<path id="Vector_3" d="M29.9747 0C27.9608 0.00100604 25.9924 0.601647 24.3183 1.726C22.6443 2.85035 21.3397 4.44794 20.5695 6.31681C19.7992 8.18569 19.598 10.242 19.9911 12.2257C20.3842 14.2094 21.3541 16.0316 22.7782 17.4618C24.2022 18.892 26.0165 19.8661 27.9916 20.261C29.9667 20.6558 32.0141 20.4537 33.8749 19.6801C35.7357 18.9066 37.3263 17.5963 38.4458 15.9149C39.5653 14.2336 40.1633 12.2566 40.1643 10.234C40.1616 7.52058 39.0872 4.9191 37.1769 3.00044C35.2665 1.08178 32.6763 0.0026932 29.9747 0Z" fill="#0085FF"/>
<path id="Vector_4" d="M47.8674 9.53711C46.3649 9.53711 44.8962 9.98458 43.6469 10.8229C42.3977 11.6613 41.424 12.8529 40.849 14.2471C40.274 15.6412 40.1236 17.1753 40.4167 18.6553C40.7098 20.1353 41.4334 21.4948 42.4958 22.5618C43.5582 23.6289 44.9118 24.3555 46.3854 24.6499C47.859 24.9443 49.3864 24.7932 50.7745 24.2157C52.1626 23.6383 53.3491 22.6603 54.1838 21.4057C55.0185 20.151 55.4641 18.6758 55.4641 17.1668C55.4561 15.1458 54.6531 13.2098 53.2302 11.7807C51.8073 10.3516 49.8797 9.54515 47.8674 9.53711Z" fill="#0085FF"/>
<path id="Vector_5" d="M9.19033 26.9939H13.7483C13.275 28.2979 13.0333 29.6752 13.0342 31.0631V48.296C13.0346 48.8767 13.1339 49.453 13.328 50H5.78197C4.43879 50 3.15063 49.4641 2.20087 48.5102C1.2511 47.5563 0.717529 46.2625 0.717529 44.9135L0.717529 35.4985C0.721549 33.2433 1.61567 31.0817 3.2039 29.4875C4.79213 27.8933 6.9449 26.9966 9.19033 26.9939Z" fill="#0085FF"/>
<path id="Vector_6" d="M12.1682 9.53711C13.6707 9.53711 15.1394 9.98458 16.3887 10.8229C17.6379 11.6613 18.6116 12.8529 19.1866 14.2471C19.7616 15.6412 19.912 17.1753 19.6189 18.6553C19.3258 20.1353 18.6022 21.4948 17.5398 22.5618C16.4774 23.6289 15.1238 24.3555 13.6502 24.6499C12.1766 24.9443 10.6492 24.7932 9.26107 24.2157C7.87297 23.6383 6.68653 22.6603 5.8518 21.4057C5.01707 20.151 4.57153 18.6758 4.57153 17.1668C4.57953 15.1458 5.38246 13.2098 6.80538 11.7807C8.2283 10.3516 10.1559 9.54515 12.1682 9.53711Z" fill="#0085FF"/>
</g>
</svg>
