<svg width="23" height="16" viewBox="0 0 23 16" fill="none" xmlns="http://www.w3.org/2000/svg">
<g id="icon/game">
<path id="Vector" d="M5.27825 15.7834C4.89936 15.7841 4.52207 15.7343 4.15632 15.6354C3.05846 15.3223 2.12704 14.5914 1.56189 13.5995C0.996735 12.6075 0.842876 11.4336 1.13332 10.3295L2.94867 3.44209C3.09005 2.88468 3.34139 2.36114 3.68792 1.90222C4.03445 1.4433 4.46919 1.05826 4.9666 0.769694C5.45093 0.48917 5.9861 0.307538 6.54112 0.235318C7.09615 0.163099 7.65998 0.201727 8.19997 0.348967C8.77398 0.508366 9.30862 0.785281 9.76999 1.16216C10.2314 1.53903 10.6094 2.00765 10.8801 2.5383H12.9059C13.1754 2.0068 13.5531 1.53749 14.0147 1.16047C14.4762 0.783456 15.0114 0.507047 15.5861 0.348967C16.126 0.201727 16.6899 0.163099 17.2449 0.235318C17.7999 0.307538 18.3351 0.48917 18.8194 0.769694C19.3144 1.05752 19.7476 1.44045 20.0939 1.89644C20.4402 2.35242 20.6929 2.87243 20.8373 3.4265L22.6527 10.3295C22.9475 11.4368 22.7948 12.6156 22.2278 13.6113C21.6607 14.607 20.7247 15.3396 19.6219 15.6509C19.0819 15.7982 18.5181 15.8368 17.9631 15.7646C17.4081 15.6924 16.8729 15.5107 16.3886 15.2302C15.8927 14.9434 15.459 14.5608 15.1125 14.1047C14.7661 13.6485 14.5139 13.128 14.3706 12.5734L14.2304 11.8878H9.55564L9.37644 12.5578C9.23319 13.1124 8.981 13.6329 8.63455 14.0891C8.2881 14.5452 7.85433 14.9278 7.35851 15.2146C6.72546 15.5798 6.00902 15.7756 5.27825 15.7834ZM7.08582 1.75918C6.61565 1.76078 6.15393 1.88426 5.74573 2.11758C5.10595 2.49294 4.64092 3.10645 4.45238 3.82386L2.63703 10.7113C2.44706 11.4209 2.54305 12.1767 2.90436 12.8162C3.26566 13.4558 3.86345 13.9281 4.56925 14.1317C4.91012 14.2246 5.26605 14.2491 5.61643 14.2036C5.96682 14.1582 6.30471 14.0437 6.61055 13.8668C6.92899 13.6829 7.20744 13.4373 7.42955 13.1442C7.65166 12.8512 7.81294 12.5167 7.9039 12.1605L8.38696 10.3295H15.3991L15.8743 12.1605C15.9669 12.5161 16.1288 12.8498 16.3508 13.1427C16.5727 13.4355 16.8503 13.6816 17.1677 13.8668C17.475 14.0435 17.8142 14.1579 18.1658 14.2033C18.5175 14.2488 18.8746 14.2244 19.2168 14.1317C19.9234 13.93 20.5219 13.4576 20.8823 12.8172C21.2426 12.1767 21.3357 11.42 21.1412 10.7113L19.3258 3.82386C19.2354 3.46842 19.0752 3.13452 18.8545 2.84159C18.6338 2.54866 18.357 2.30255 18.0403 2.11758C17.7329 1.94085 17.3937 1.82648 17.0421 1.78102C16.6905 1.73557 16.3334 1.75991 15.9912 1.85267C15.568 1.97331 15.1797 2.19316 14.8586 2.49399C14.5374 2.79482 14.2927 3.16793 14.1447 3.58233L13.9577 4.09655H9.82833L9.64134 3.58233C9.49202 3.16737 9.24591 2.794 8.92342 2.49319C8.60093 2.19238 8.21136 1.9728 7.78703 1.85267C7.55838 1.79102 7.32264 1.75959 7.08582 1.75918Z" fill="#1E293B"/>
<path id="Vector_2" d="M7.2184 7.99223C6.91021 7.99223 6.60894 7.90084 6.35269 7.72961C6.09644 7.55839 5.89671 7.31503 5.77877 7.03029C5.66083 6.74556 5.62997 6.43225 5.6901 6.12998C5.75022 5.82771 5.89863 5.55006 6.11656 5.33213C6.33448 5.11421 6.61213 4.9658 6.9144 4.90567C7.21668 4.84555 7.52999 4.87641 7.81472 4.99435C8.09945 5.11229 8.34282 5.31201 8.51404 5.56826C8.68526 5.82452 8.77665 6.12579 8.77665 6.43398C8.77665 6.84725 8.61248 7.2436 8.32025 7.53583C8.02802 7.82805 7.63168 7.99223 7.2184 7.99223Z" fill="#1E293B"/>
<path id="Vector_3" d="M16.5677 5.65493C16.998 5.65493 17.3468 5.3061 17.3468 4.8758C17.3468 4.44551 16.998 4.09668 16.5677 4.09668C16.1374 4.09668 15.7886 4.44551 15.7886 4.8758C15.7886 5.3061 16.1374 5.65493 16.5677 5.65493Z" fill="#1E293B"/>
<path id="Vector_4" d="M16.5677 8.77138C16.998 8.77138 17.3468 8.42256 17.3468 7.99226C17.3468 7.56196 16.998 7.21313 16.5677 7.21313C16.1374 7.21313 15.7886 7.56196 15.7886 7.99226C15.7886 8.42256 16.1374 8.77138 16.5677 8.77138Z" fill="#1E293B"/>
<path id="Vector_5" d="M15.0096 7.21303C15.4399 7.21303 15.7887 6.86421 15.7887 6.43391C15.7887 6.00361 15.4399 5.65479 15.0096 5.65479C14.5793 5.65479 14.2305 6.00361 14.2305 6.43391C14.2305 6.86421 14.5793 7.21303 15.0096 7.21303Z" fill="#1E293B"/>
<path id="Vector_6" d="M18.1258 7.21303C18.5561 7.21303 18.9049 6.86421 18.9049 6.43391C18.9049 6.00361 18.5561 5.65479 18.1258 5.65479C17.6955 5.65479 17.3467 6.00361 17.3467 6.43391C17.3467 6.86421 17.6955 7.21303 18.1258 7.21303Z" fill="#1E293B"/>
</g>
</svg>
