<svg width="17" height="16" viewBox="0 0 17 16" fill="none" xmlns="http://www.w3.org/2000/svg">
<g id="icon/user-x">
<path id="Vector" d="M11.1997 13.85V12.55C11.1997 11.8604 10.9258 11.1991 10.4382 10.7115C9.95056 10.2239 9.28924 9.94995 8.59967 9.94995H4.69963C4.01006 9.94995 3.34874 10.2239 2.86114 10.7115C2.37354 11.1991 2.09961 11.8604 2.09961 12.55V13.85" stroke="black" stroke-width="1.30001" stroke-linecap="round" stroke-linejoin="round"/>
<path id="Vector_2" d="M6.64983 7.34995C8.08578 7.34995 9.24985 6.18588 9.24985 4.74993C9.24985 3.31397 8.08578 2.1499 6.64983 2.1499C5.21387 2.1499 4.0498 3.31397 4.0498 4.74993C4.0498 6.18588 5.21387 7.34995 6.64983 7.34995Z" stroke="black" stroke-width="1.30001" stroke-linecap="round" stroke-linejoin="round"/>
<path id="Vector_3" d="M11.8501 5.3999L15.1001 8.64993" stroke="black" stroke-width="1.30001" stroke-linecap="round" stroke-linejoin="round"/>
<path id="Vector_4" d="M15.1001 5.3999L11.8501 8.64993" stroke="black" stroke-width="1.30001" stroke-linecap="round" stroke-linejoin="round"/>
</g>
</svg>
