<svg width="100" height="100" viewBox="0 0 100 100" fill="none" xmlns="http://www.w3.org/2000/svg">
<path d="M75 33.3333C75 26.7028 72.3661 20.344 67.6777 15.6556C62.9893 10.9672 56.6304 8.33325 50 8.33325C43.3696 8.33325 37.0107 10.9672 32.3223 15.6556C27.6339 20.344 25 26.7028 25 33.3333C25 62.4999 12.5 70.8332 12.5 70.8332H87.5C87.5 70.8332 75 62.4999 75 33.3333Z" stroke="#0084FF" stroke-width="10.8333" stroke-linecap="round" stroke-linejoin="round"/>
<path d="M57.2106 87.5001C56.4781 88.7629 55.4266 89.8112 54.1616 90.5398C52.8965 91.2685 51.4622 91.652 50.0023 91.652C48.5424 91.652 47.1081 91.2685 45.843 90.5398C44.5779 89.8112 43.5265 88.7629 42.7939 87.5001" stroke="#0084FF" stroke-width="10.8333" stroke-linecap="round" stroke-linejoin="round"/>
</svg>
