<svg xmlns="http://www.w3.org/2000/svg" width="64" height="50" viewBox="0 0 64 50" fill="none">
<path d="M21.0288 0C32.284 0 41.4038 7.69531 41.4038 17.1875C41.4038 26.6797 32.284 34.375 21.0288 34.375C19.197 34.375 17.424 34.1504 15.7293 33.7695C12.7319 35.625 8.40512 37.5 3.09783 37.5C2.12022 37.5 1.23469 36.9238 0.851485 36.0254C0.468083 35.127 0.653084 34.0918 1.31394 33.3887C1.36497 33.3496 3.53178 30.9961 5.13337 27.9199C2.33671 24.9805 0.653809 21.25 0.653809 17.1875C0.653809 7.69531 9.77652 0 21.0288 0ZM43.9115 12.5195C54.7259 12.9297 63.3461 20.459 63.3461 29.6875C63.3461 33.75 61.6613 37.4805 58.8695 40.4199C60.4662 43.4961 62.631 45.8496 62.6898 45.8887C63.3461 46.5918 63.5322 47.627 63.062 48.5254C62.7682 49.4238 61.8768 50 60.8972 50C55.5977 50 51.2681 48.125 48.2706 46.2695C46.5759 46.6504 44.8029 46.875 42.9711 46.875C34.9387 46.875 27.9935 42.9492 24.6728 37.2559C26.3674 37.0312 27.9935 36.6504 29.5412 36.123C32.284 39.7559 37.2798 42.1875 42.9711 42.1875C44.3621 42.1875 45.7923 42.0215 47.2224 41.6113L49.1032 41.2695L50.7391 42.1973C52.4044 43.3105 54.1088 44.082 55.8524 44.5801C55.441 43.9355 55.0492 43.1738 54.6965 42.5879L53.1488 39.6289L55.4508 37.1973C56.9104 35.6738 58.6442 33.125 58.6442 29.6875C58.6442 23.2129 52.4435 17.8809 44.4503 17.2461L44.5384 17.1875C44.5384 15.5762 44.3229 14.0137 43.9115 12.5195Z" fill="#0085FF"/>
</svg>
