<svg xmlns="http://www.w3.org/2000/svg" width="70" height="50" viewBox="0 0 70 50" fill="none">
  <path d="M13.7935 49.9469C12.5792 49.949 11.3699 49.7894 10.1976 49.4724C6.67882 48.469 3.6935 46.1263 1.88212 42.9471C0.0707407 39.7678 -0.422397 36.0053 0.508504 32.4666L6.32695 10.3915C6.78009 8.60489 7.58565 6.92689 8.69632 5.456C9.807 3.9851 11.2004 2.75098 12.7947 1.8261C14.347 0.926983 16.0623 0.344828 17.8412 0.113355C19.6201 -0.118117 21.4273 0.00569293 23.158 0.477615C24.9978 0.98851 26.7114 1.87605 28.1901 3.08399C29.6689 4.29192 30.8805 5.7939 31.7483 7.49471H38.241C39.105 5.79118 40.3155 4.28699 41.7948 3.0786C43.2741 1.87021 44.9896 0.984279 46.8313 0.477615C48.5621 0.00569293 50.3692 -0.118117 52.1481 0.113355C53.927 0.344828 55.6423 0.926983 57.1947 1.8261C58.7812 2.74861 60.1695 3.97597 61.2795 5.43745C62.3896 6.89892 63.1994 8.56563 63.6624 10.3415L69.4808 32.4666C70.4257 36.0156 69.9364 39.7938 68.1188 42.9851C66.3013 46.1764 63.3012 48.5245 59.7668 49.5224C58.0361 49.9943 56.2289 50.1181 54.45 49.8866C52.6711 49.6552 50.9558 49.073 49.4034 48.1739C47.8143 47.2547 46.424 46.0283 45.3136 44.5663C44.2032 43.1044 43.3949 41.436 42.9357 39.6585L42.4862 37.461H27.5031L26.9288 39.6086C26.4696 41.3861 25.6613 43.0544 24.5509 44.5164C23.4405 45.9784 22.0502 47.2047 20.461 48.124C18.432 49.2942 16.1357 49.9221 13.7935 49.9469ZM19.587 4.99752C18.0801 5.00264 16.6002 5.39843 15.2919 6.14623C13.2413 7.34933 11.7508 9.31571 11.1465 11.6151L5.32808 33.6902C4.71923 35.9645 5.02688 38.3869 6.18491 40.4368C7.34293 42.4867 9.25891 44.0005 11.5211 44.6529C12.6136 44.9509 13.7544 45.0293 14.8774 44.8836C16.0005 44.7378 17.0835 44.3708 18.0637 43.8038C19.0843 43.2146 19.9768 42.4272 20.6887 41.4881C21.4006 40.5489 21.9175 39.4768 22.2091 38.335L23.7573 32.4666H46.232L47.7553 38.335C48.052 39.4747 48.5709 40.5445 49.2823 41.483C49.9937 42.4215 50.8835 43.2102 51.9006 43.8038C52.8857 44.3703 53.9729 44.7368 55.0999 44.8825C56.2268 45.0282 57.3715 44.9502 58.4682 44.6529C60.7331 44.0066 62.6515 42.4926 63.8064 40.4398C64.9614 38.3871 65.2596 35.9616 64.6363 33.6902L58.8178 11.6151C58.5279 10.4758 58.0144 9.40566 57.307 8.46678C56.5996 7.5279 55.7126 6.73908 54.6975 6.14623C53.7124 5.57978 52.6252 5.21322 51.4982 5.06753C50.3713 4.92184 49.2266 4.99988 48.1299 5.29719C46.7735 5.68382 45.529 6.3885 44.4997 7.35268C43.4703 8.31687 42.6859 9.51273 42.2115 10.8409L41.6122 12.4891H28.3771L27.7778 10.8409C27.2992 9.51095 26.5104 8.31425 25.4768 7.35012C24.4431 6.38598 23.1945 5.68221 21.8345 5.29719C21.1016 5.09958 20.346 4.99883 19.587 4.99752Z" fill="#0085FF"/>
  <path d="M20.0115 24.9751C19.0237 24.9751 18.0581 24.6822 17.2367 24.1334C16.4154 23.5846 15.7753 22.8046 15.3973 21.892C15.0193 20.9794 14.9203 19.9752 15.1131 19.0064C15.3058 18.0375 15.7814 17.1476 16.4799 16.4492C17.1784 15.7507 18.0683 15.275 19.0371 15.0823C20.0059 14.8896 21.0101 14.9885 21.9227 15.3665C22.8353 15.7445 23.6154 16.3847 24.1641 17.206C24.7129 18.0273 25.0058 18.9929 25.0058 19.9807C25.0058 21.3053 24.4797 22.5756 23.543 23.5123C22.6064 24.4489 21.3361 24.9751 20.0115 24.9751Z" fill="#0085FF"/>
  <path d="M49.9777 17.4834C51.3568 17.4834 52.4748 16.3654 52.4748 14.9862C52.4748 13.607 51.3568 12.489 49.9777 12.489C48.5985 12.489 47.4805 13.607 47.4805 14.9862C47.4805 16.3654 48.5985 17.4834 49.9777 17.4834Z" fill="#0085FF"/>
  <path d="M49.9777 27.4722C51.3568 27.4722 52.4748 26.3541 52.4748 24.975C52.4748 23.5958 51.3568 22.4778 49.9777 22.4778C48.5985 22.4778 47.4805 23.5958 47.4805 24.975C47.4805 26.3541 48.5985 27.4722 49.9777 27.4722Z" fill="#0085FF"/>
  <path d="M44.9835 22.4778C46.3627 22.4778 47.4807 21.3597 47.4807 19.9806C47.4807 18.6014 46.3627 17.4834 44.9835 17.4834C43.6044 17.4834 42.4863 18.6014 42.4863 19.9806C42.4863 21.3597 43.6044 22.4778 44.9835 22.4778Z" fill="#0085FF"/>
  <path d="M54.9723 22.4778C56.3514 22.4778 57.4695 21.3597 57.4695 19.9806C57.4695 18.6014 56.3514 17.4834 54.9723 17.4834C53.5931 17.4834 52.4751 18.6014 52.4751 19.9806C52.4751 21.3597 53.5931 22.4778 54.9723 22.4778Z" fill="#0085FF"/>
</svg>
