<?xml version="1.0" encoding="UTF-8" standalone="no"?>
<!-- Created with Inkscape (http://www.inkscape.org/) -->

<svg
   version="1.1"
   id="svg2"
   width="5333.3335"
   height="5333.3335"
   viewBox="0 0 5333.3335 5333.3335"
   sodipodi:docname="cat_kickBoard.eps"
   xmlns:inkscape="http://www.inkscape.org/namespaces/inkscape"
   xmlns:sodipodi="http://sodipodi.sourceforge.net/DTD/sodipodi-0.dtd"
   xmlns="http://www.w3.org/2000/svg"
   xmlns:svg="http://www.w3.org/2000/svg">
  <defs
     id="defs6" />
  <sodipodi:namedview
     id="namedview4"
     pagecolor="#ffffff"
     bordercolor="#000000"
     borderopacity="0.25"
     inkscape:showpageshadow="2"
     inkscape:pageopacity="0.0"
     inkscape:pagecheckerboard="0"
     inkscape:deskcolor="#d1d1d1" />
  <g
     id="g8"
     inkscape:groupmode="layer"
     inkscape:label="ink_ext_XXXXXX"
     transform="matrix(1.3333333,0,0,-1.3333333,0,5333.3333)">
    <g
       id="g10"
       transform="scale(0.1)">
      <path
         d="M 0,0 H 40000 V 40000 H 0 Z"
         style="fill:#ffcaec;fill-opacity:1;fill-rule:nonzero;stroke:none"
         id="path12" />
      <path
         d="m 16473.1,13679.8 c -61,-15.4 -502.5,-122.6 -1107,-122.6 -178.5,0 -371.8,9.8 -573.8,33.4 -1278.4,151.2 -2274.7,792.2 -2881.8,1854.2 -500.5,876.3 -486.2,1856.2 -472.8,2720.8 2,136.9 1.5,272.8 -3.1,404 -15.9,482.5 -79.5,905.6 -223.6,1119.9 -218.9,325.1 -612.2,300 -920.4,260 -562.02,-72.3 -1116.32,130.3 -1286.05,670.7 -45.64,145.1 -57.44,292.3 -39.99,433.8 48.19,386.2 315.35,727.7 710.69,852.3 244.6,76.9 1458.85,589.7 2894.65,-680.5 791.7,-699.4 912.2,-1678.8 922,-2564.9 1.5,-180.5 -1.1,-356.9 -3.6,-526.1 -9.8,-660 -19,-1283.5 203,-1672.7 230.3,-402 565.6,-623 908.7,-738.9 626.6,-212.8 1279.8,-75.4 1365.5,-55.9 l 507.6,-1987.5"
         style="fill:#ffffff;fill-opacity:1;fill-rule:nonzero;stroke:none"
         id="path14" />
      <path
         d="m 13479.6,18582.5 h -0.6 c -1112.2,399.4 -2027,-75.4 -2056.7,-91.3 -15.9,482.5 -79.5,905.5 -223.6,1119.9 -218.9,325.1 -612.2,300 -920.4,259.9 -562.02,-72.2 -1116.32,130.3 -1286.05,670.8 -97.95,311.7 -39.49,635.8 132.29,886.6 124.6,183.5 310.23,327.6 538.41,399.4 244.6,76.9 1458.85,589.7 2894.65,-680.4 714.3,-630.8 882,-1489.1 915.3,-2301.9 3.6,-88.2 5.6,-175.9 6.7,-263"
         style="fill:#ffb720;fill-opacity:1;fill-rule:nonzero;stroke:none"
         id="path16" />
      <path
         d="m 13318.8,20031.3 c -131.2,436.4 -358.4,849.5 -748.9,1194.5 405.6,-310.7 626.3,-738.8 748.9,-1194.5"
         style="fill:#ffeaf7;fill-opacity:1;fill-rule:nonzero;stroke:none"
         id="path18" />
      <path
         d="m 13472.9,18845.5 c -33.3,812.8 -201,1671.1 -915.3,2301.9 -201.2,178 -398.1,321 -588.5,435 205.6,-92.3 408.4,-209.2 600.8,-356.6 v 0 c 390.5,-345 617.7,-758.1 748.9,-1194.5 106,-394.1 138.6,-808.8 154.1,-1185.8"
         style="fill:#ffffff;fill-opacity:1;fill-rule:nonzero;stroke:none"
         id="path20" />
      <path
         d="m 13472.9,18845.5 c -186.1,616.4 -473.3,1273.2 -915.8,1798.8 -595.9,707.6 -1548.3,883 -2346.2,883 -436.05,0 -825.96,-52.4 -1086.36,-98.9 124.6,183.5 310.23,327.6 538.41,399.4 91.54,28.8 361.45,74.5 723.25,74.5 442.6,0 1022.8,-68.4 1582.9,-319.9 190.4,-114 387.3,-257 588.5,-435 714.3,-630.8 882,-1489.1 915.3,-2301.9 v 0"
         style="fill:#ffe2a6;fill-opacity:1;fill-rule:nonzero;stroke:none"
         id="path22" />
      <path
         d="m 14728.8,13598.5 c -1247.9,164.7 -2221.3,801.9 -2818.3,1846.3 -418.9,733.4 -477.1,1539.4 -477.2,2289.5 0,146.2 2.2,290.3 4.4,431.3 0.7,49.2 1.1,98.2 1.1,147 0,62.6 -0.6,124.7 -2.1,185.9 76.6,38 437.9,204.3 949.4,237.6 -12.7,-924.2 -113.6,-2043.5 329.4,-2694.5 257.3,-378.3 578.7,-657.8 882.9,-860 111.8,-74.4 233.6,-108.1 352.4,-108.1 336.3,0 649.2,269.6 649.2,649.7 v 0 c 156.7,-53.2 315.1,-84.5 465.8,-101.3 12.2,-562.8 71.1,-1107.5 176.4,-1628.8 -121.7,-82.6 -311.6,-219.3 -513.4,-394.6 m -5765.73,7442.8 c 0.47,4.2 0.96,8.5 1.49,12.7 0.31,-0.2 0.61,-0.4 0.92,-0.6 -0.83,-4 -1.64,-8.1 -2.41,-12.1"
         style="fill:#cccce3;fill-opacity:1;fill-rule:nonzero;stroke:none"
         id="path24" />
      <path
         d="m 11436.7,18498.5 c -0.6,23.9 -1.3,47.6 -2.1,71.1 -15.9,482.5 -79.5,905.6 -223.6,1119.9 -152.4,226.3 -389.3,282.9 -623.2,282.9 -102.1,0 -203.6,-10.7 -297.2,-22.9 -72.8,-9.4 -145.6,-14.1 -217.3,-14.1 -481.94,0 -921.01,214.4 -1068.75,684.8 -44.27,140.8 -56.69,283.5 -41.48,421.1 0.77,4 1.58,8.1 2.41,12.1 169.23,-108.4 430.54,-191.2 832.85,-196.3 1220.37,-15.9 1898.77,-89.7 2390.07,-828.1 182.1,-273.4 205.1,-749.4 197.7,-1292.9 -511.5,-33.3 -872.8,-199.6 -949.4,-237.6 v 0"
         style="fill:#cc9230;fill-opacity:1;fill-rule:nonzero;stroke:none"
         id="path26" />
      <path
         d="m 10588.3,20178.7 c 265.9,0 585.3,-66.1 793,-374.5 154.3,-229.5 238.8,-631.1 258.4,-1227.8 4.5,-125.5 5.5,-261 3.2,-413.9 -12.9,-837.7 -27.5,-1787.1 445.8,-2616 573.4,-1002.9 1516.7,-1608.9 2727.8,-1752.2 181.3,-21.2 366.3,-31.9 549.7,-31.9 365.2,0 666.6,40.2 855.4,74 l -407.6,1595.7 c -490.6,-69.5 -1701.2,-119.6 -2300.6,928.2 -249.9,438 -240.3,1088.6 -230.1,1777.3 2.4,159.1 5.2,338.9 3.6,521.6 -8.6,782.2 -113.2,1763.9 -852.2,2412.5 -903.5,793.1 -2482.6,706.5 -2697.79,638.9 -431.42,-135.8 -672.16,-597.4 -536.54,-1028.8 148.14,-471.8 646.63,-582.6 1064.23,-528.8 84.3,10.9 198.1,25.7 323.7,25.7 z m 4777.9,-6826.5 c -199.2,0 -400.3,11.6 -597.6,34.7 -1345.7,159.2 -2395.5,835.6 -3036.1,1956.1 -529.1,926.5 -513.5,1935.5 -499.8,2825.8 2.2,145.8 1.2,274.6 -2.9,393.7 -22.1,669.6 -127.8,921.8 -188.9,1012.6 -136.6,202.9 -378.3,215.9 -723.8,171.1 -731.72,-94.1 -1323.5,224.8 -1508.09,812.6 -203.39,647 157.62,1339.3 804.76,1543.2 294.97,92.7 2040.83,200.3 3091.53,-722 860.9,-755.7 982.2,-1848.8 991.8,-2716.8 1.6,-188 -1.2,-370.5 -3.6,-531.5 -9.3,-631.3 -18.1,-1227.4 176.1,-1567.9 572.2,-1000.5 1900.9,-730.6 2050.5,-696.4 108.5,24.6 216.7,-41.5 244.3,-149.3 l 507.6,-1987.5 c 13.5,-52.8 5.4,-108.8 -22.5,-155.7 -27.9,-46.8 -73.2,-80.6 -126.1,-93.9 -85.3,-21.6 -542,-128.8 -1157.2,-128.8"
         style="fill:#000072;fill-opacity:1;fill-rule:nonzero;stroke:none"
         id="path28" />
      <path
         d="m 10121.9,7429.3 c 0,-779.6 632,-1411.6 1411.6,-1411.6 779.6,0 1411.5,632 1411.5,1411.6 0,779.6 -631.9,1411.5 -1411.5,1411.5 -779.6,0 -1411.6,-631.9 -1411.6,-1411.5"
         style="fill:#616161;fill-opacity:1;fill-rule:nonzero;stroke:none"
         id="path30" />
      <path
         d="m 11533.5,6239.1 c -549.8,0 -1013.6,374.6 -1149.8,882 153.8,-57.7 320.4,-89 494.4,-89 101.2,0 200,10.6 295.1,30.8 89.4,-97.5 210,-157.8 342.7,-170.6 17.6,-1.7 35,-2.6 52.4,-2.6 123.8,0 242.6,42.6 339.4,122.3 l 792.5,653.1 c 15.4,-76.3 23.5,-155.1 23.5,-235.8 0,-656.3 -533.9,-1190.2 -1190.2,-1190.2"
         style="fill:#4e4e64;fill-opacity:1;fill-rule:nonzero;stroke:none"
         id="path32" />
      <path
         d="m 11533.5,8619.5 c -656.3,0 -1190.2,-533.9 -1190.2,-1190.2 0,-656.3 533.9,-1190.2 1190.2,-1190.2 656.3,0 1190.2,533.9 1190.2,1190.2 0,656.3 -533.9,1190.2 -1190.2,1190.2 m 0,-2823.1 c -900.4,0 -1632.94,732.5 -1632.94,1632.9 0,900.4 732.54,1632.9 1632.94,1632.9 900.4,0 1632.9,-732.5 1632.9,-1632.9 0,-900.4 -732.5,-1632.9 -1632.9,-1632.9"
         style="fill:#000072;fill-opacity:1;fill-rule:nonzero;stroke:none"
         id="path34" />
      <path
         d="m 10878.4,7429.3 c 0,-361.8 293.3,-655.1 655.1,-655.1 361.8,0 655.1,293.3 655.1,655.1 0,361.8 -293.3,655.1 -655.1,655.1 -361.8,0 -655.1,-293.3 -655.1,-655.1"
         style="fill:#000072;fill-opacity:1;fill-rule:nonzero;stroke:none"
         id="path36" />
      <path
         d="m 11293.5,7263.8 31.7,-38.4 c 110.2,-133.8 307.9,-152.8 441.7,-42.6 l 1489.9,1227.7 -430.8,522.7 -1489.8,-1227.7 c -133.8,-110.2 -152.9,-308 -42.7,-441.7"
         style="fill:#b8b8b8;fill-opacity:1;fill-rule:nonzero;stroke:none"
         id="path38" />
      <path
         d="m 12141.5,7778.3 -149.1,181.2 306.2,252.3 c 63.6,-60.2 119.5,-116.1 167.5,-166 l -324.6,-267.5"
         style="fill:#9d9393;fill-opacity:1;fill-rule:nonzero;stroke:none"
         id="path40" />
      <path
         d="m 11464.3,7404.6 31.7,-38.4 c 21.2,-25.7 48.2,-31.9 62.5,-33.3 14.2,-1.4 41.9,-0.5 67.6,20.7 l 1319.1,1087 -149.3,181 -1319,-1086.9 c -39.3,-32.4 -45,-90.8 -12.6,-130.1 m 104,-514.9 c -17.4,0 -34.8,0.9 -52.4,2.6 -142.2,13.7 -270.7,82 -361.6,192.3 l -31.6,38.4 v 0 c -187.6,227.7 -155,565.7 72.7,753.3 l 1489.8,1227.8 c 94.4,77.7 233.9,64.3 311.6,-30.1 l 430.8,-522.7 c 37.3,-45.3 55.1,-103.6 49.5,-162.1 -5.6,-58.4 -34.3,-112.2 -79.6,-149.5 L 11907.7,7012 c -96.8,-79.7 -215.6,-122.3 -339.4,-122.3"
         style="fill:#000072;fill-opacity:1;fill-rule:nonzero;stroke:none"
         id="path42" />
      <path
         d="m 27592.5,7675.7 c 0,-792.2 642.2,-1434.4 1434.4,-1434.4 792.1,0 1434.3,642.2 1434.3,1434.4 0,792.2 -642.2,1434.3 -1434.3,1434.3 -792.2,0 -1434.4,-642.1 -1434.4,-1434.3"
         style="fill:#616161;fill-opacity:1;fill-rule:nonzero;stroke:none"
         id="path44" />
      <path
         d="m 29026.9,6462.7 c -668.9,0 -1213.1,544.1 -1213.1,1213 0,93.4 10.7,184.4 30.7,271.8 132.5,-192.7 310.9,-351.3 519.4,-460.1 81.9,-289 347.7,-500.7 663,-500.7 315.2,0 581.1,211.7 663,500.8 208.3,108.9 386.7,267.5 519.2,460.1 20.1,-87.5 30.8,-178.5 30.8,-271.9 0,-668.9 -544.2,-1213 -1213,-1213"
         style="fill:#4e4e64;fill-opacity:1;fill-rule:nonzero;stroke:none"
         id="path46" />
      <path
         d="m 29026.9,8888.7 c -668.9,0 -1213.1,-544.2 -1213.1,-1213 0,-668.9 544.2,-1213 1213.1,-1213 668.8,0 1213,544.1 1213,1213 0,668.8 -544.2,1213 -1213,1213 m 0,-2868.8 c -913,0 -1655.8,742.8 -1655.8,1655.8 0,912.9 742.8,1655.7 1655.8,1655.7 912.9,0 1655.7,-742.8 1655.7,-1655.7 0,-913 -742.8,-1655.8 -1655.7,-1655.8"
         style="fill:#000072;fill-opacity:1;fill-rule:nonzero;stroke:none"
         id="path48" />
      <path
         d="m 28337.9,7675.7 c 0,-380.5 308.4,-689 689,-689 380.5,0 689,308.5 689,689 0,380.5 -308.5,689 -689,689 -380.6,0 -689,-308.5 -689,-689"
         style="fill:#000072;fill-opacity:1;fill-rule:nonzero;stroke:none"
         id="path50" />
      <path
         d="m 25379,18838.5 2964,-10106.4 302.7,-1031.6 c 55.8,-189.8 255.1,-298.8 445.4,-242.9 189.8,55.9 298.9,255.1 243,444.9 l -302.7,1031 -2964.5,10107 -687.9,-202"
         style="fill:#b8b8b8;fill-opacity:1;fill-rule:nonzero;stroke:none"
         id="path52" />
      <path
         d="m 28972,7657.9 c -23.7,0 -42.4,7.8 -53.1,13.7 -15.1,8.2 -42,27.8 -53.3,66.1 l -309.9,1056.6 263.5,77.1 L 29129,7815 c 11.3,-38.4 -0.9,-69.4 -9.1,-84.4 -8.2,-15.1 -27.7,-42 -66.1,-53.3 h -0.1 l -50.4,-14.8 c -11.1,-3.3 -21.6,-4.6 -31.3,-4.6"
         style="fill:#9d9393;fill-opacity:1;fill-rule:nonzero;stroke:none"
         id="path54" />
      <path
         d="m 10162.7,9672.6 c 1692.4,-429.8 2690.5,-1729.7 2690.5,-1729.7 h 12718.4 c 481.4,0 927.5,251.3 1176.5,663 l 1501.3,2479.7 -159.9,257.3 -64.7,103.5 -84.2,135.6 -1156.5,-1313.2 c -261.2,-296.6 -637,-466.5 -1032.1,-466.5 H 14261 c -1328.1,1115.6 -2709.4,1283.3 -2709.4,1283.3 l -1328.1,-625.9 -227,-379.5 c -94.09,-157.3 -11.49,-362.4 166.2,-407.6"
         style="fill:#b8b8b8;fill-opacity:1;fill-rule:nonzero;stroke:none"
         id="path56" />
      <path
         d="m 24900.8,9395.1 c -377.1,0 -835.8,1.8 -1349.2,5.1 207,51 371.7,113.5 472.4,180.7 h 1728 c 348.4,0 684.3,114.1 958.6,320 l -179,-234.4 c -204,-149.7 -399.9,-242.2 -579.8,-257.7 -112.6,-9.6 -491.9,-13.7 -1051,-13.7 m -3747.9,25.4 c -1359.6,13.7 -2802.4,30.9 -4035.8,46.5 37,35 71.2,73 102.5,113.9 h 3508.3 c 29.7,-15.6 59.8,-30 90.4,-43.1 106,-45.4 218.1,-84.3 334.6,-117.3 m -5753.8,68.8 c -874.4,11.7 -1431.4,19.7 -1431.4,19.7 -907,797.4 -2339.7,1130 -2339.7,1130 l -692.4,-88.4 648.9,305.8 c 272.7,-47.5 1428.9,-295.2 2534.1,-1223.6 39.9,-33.5 90.3,-51.9 142.4,-51.9 h 1012.1 c 41.9,-32.4 83.9,-62.9 126,-91.6"
         style="fill:#e3e3e3;fill-opacity:1;fill-rule:nonzero;stroke:none"
         id="path58" />
      <path
         d="m 12957.9,8164.3 h 12613.7 c 401.3,0 779.6,213.1 987.1,556.1 l 1431,2363.7 -79.7,128.3 -959.9,-1089.9 c -303,-344.1 -739.8,-541.6 -1198.1,-541.6 H 14261 c -52.1,0 -102.5,18.4 -142.4,51.9 -1105.2,928.4 -2261.4,1176.1 -2534.1,1223.6 l -1205.7,-568.2 -192.4,-321.6 c -12.3,-20.6 -7.5,-39.7 -3.5,-49.3 4.5,-10.9 14.1,-25 34.2,-30.1 1509.8,-383.5 2478.4,-1414.5 2740.8,-1722.9 M 25571.6,7721.6 H 12853.2 c -68.9,0 -133.7,31.9 -175.6,86.5 -9.4,12.2 -975.9,1245.2 -2569.5,1650 -152.34,38.7 -274.24,144.5 -334.41,290.3 -60.66,146.8 -48.69,309.2 32.8,445.4 l 227.01,379.5 c 22.6,37.8 55.8,67.9 95.6,86.7 l 1328.1,625.8 c 37.7,17.8 79.6,24.6 121.1,19.6 58.1,-7.1 1419.6,-183.4 2762.5,-1281.7 H 25752 c 331.2,0 646.8,142.6 865.9,391.4 l 1156.6,1313.2 c 46.3,52.5 114.5,79.7 184.4,74.3 69.7,-5.8 132.6,-44.2 169.6,-103.6 l 308.9,-496.6 c 44,-70.7 44.5,-160.2 1.3,-231.5 L 26937.4,8491.2 c -287.1,-474.7 -810.5,-769.6 -1365.8,-769.6"
         style="fill:#000072;fill-opacity:1;fill-rule:nonzero;stroke:none"
         id="path60" />
      <path
         d="M 25571.6,8164.3 H 12957.9 c -262.4,308.4 -1231,1339.4 -2740.8,1722.9 -20.1,5.1 -29.7,19.2 -34.2,30.1 -2.1,4.9 -4.3,12.4 -4.4,21.3 0,8.4 2,18 7.9,28 l 146.8,245.4 c 365.2,-90.2 1438.8,-449.6 2903,-1769.4 40.7,-36.7 93.5,-57 148.2,-57 h 11874.7 c 533.5,0 1045.2,253.2 1368.8,677.3 l 668.2,875.5 -737.4,-1218 c -207.5,-343 -585.8,-556.1 -987.1,-556.1"
         style="fill:#9393aa;fill-opacity:1;fill-rule:nonzero;stroke:none"
         id="path62" />
      <path
         d="m 12957.9,8164.3 h 12613.7 c 401.3,0 779.6,213.1 987.1,556.1 l 737.4,1218 -668.2,-875.5 c -323.6,-424.1 -835.3,-677.3 -1368.8,-677.3 H 13384.4 c -54.7,0 -107.5,20.3 -148.2,57 -1464.2,1319.8 -2537.8,1679.2 -2903,1769.4 l -146.8,-245.4 c -12.3,-20.6 -7.5,-39.7 -3.5,-49.3 4.5,-10.9 14.1,-25 34.2,-30.1 1509.8,-383.5 2478.4,-1414.5 2740.8,-1722.9 M 25571.6,7721.6 H 12853.2 c -68.9,0 -133.7,31.9 -175.6,86.5 -9.4,12.2 -975.9,1245.2 -2569.5,1650 -152.34,38.7 -274.24,144.5 -334.41,290.3 -60.66,146.8 -48.69,309.2 32.8,445.4 l 227.01,379.5 c 44.8,75 129.7,116.8 216.3,106.2 54.3,-6.5 1337.8,-177.1 3219.2,-1851.2 h 11790.1 c 396.3,0 776.5,188.1 1016.9,503.1 l 1637.5,2145.8 c 44.2,57.9 114.6,90.1 186.6,86.8 72.6,-3.5 139,-42.4 177.4,-104.2 l 159.9,-257.4 c 44,-70.7 44.5,-160.2 1.3,-231.5 L 26937.4,8491.2 c -287.1,-474.7 -810.5,-769.6 -1365.8,-769.6"
         style="fill:#000072;fill-opacity:1;fill-rule:nonzero;stroke:none"
         id="path64" />
      <path
         d="m 13384.3,8385.6 c -32.2,0 -64.7,7 -95.6,21.8 -110.3,52.9 -156.7,185.1 -103.9,295.3 409.6,853.8 918.5,1257.3 939.9,1274.1 96.4,75.2 235.5,58.1 310.7,-38.3 75.1,-96.2 58.2,-234.9 -37.7,-310.3 -7.4,-5.9 -453.4,-365.8 -813.7,-1116.9 -38.1,-79.4 -117.3,-125.7 -199.7,-125.7"
         style="fill:#000072;fill-opacity:1;fill-rule:nonzero;stroke:none"
         id="path66" />
      <path
         d="m 27005,19382.9 -783.8,-891.8 -435.5,1164 c 0,0 1054,356.8 1219.3,-272.2"
         style="fill:#b8b8b8;fill-opacity:1;fill-rule:nonzero;stroke:none"
         id="path68" />
      <path
         d="m 26079.5,19501.6 219.4,-586.7 445.9,507.2 c -18.5,22.7 -41.6,41.2 -70.4,56.7 -150.1,81.1 -402.3,59.9 -594.9,22.8 m 141.7,-1231.9 c -13.3,0 -26.7,1.2 -40,3.6 -76.5,14.1 -140.1,67.3 -167.4,140.2 l -435.4,1164 c -21,56.1 -18.3,118.4 7.3,172.5 25.7,54.1 72.3,95.5 129,114.8 73.9,25 734.8,237.8 1169.1,4 169.4,-91.1 285.3,-239.7 335.3,-429.6 18.7,-71.3 0.7,-147.1 -47.9,-202.4 l -783.8,-891.8 c -42.4,-48.3 -103.2,-75.3 -166.2,-75.3"
         style="fill:#000072;fill-opacity:1;fill-rule:nonzero;stroke:none"
         id="path70" />
      <path
         d="M 25653.7,18688.5 28865.6,7737.7 c 11.3,-38.3 38.2,-57.9 53.3,-66.1 15,-8.2 46,-20.4 84.4,-9.1 l 50.4,14.8 h 0.1 c 38.4,11.3 57.9,38.2 66.1,53.3 8.2,15 20.4,46 9.1,84.4 l -3211.9,10950.7 -263.4,-77.2 M 28971.3,7215 c -91.5,0 -182.1,23 -264.7,68.1 -129.8,70.9 -224.2,188.1 -265.8,330 l -3274.2,11163.1 c -16.6,56.4 -10,117 18.1,168.5 28.2,51.5 75.6,89.7 131.9,106.3 l 688.3,201.8 c 117.3,34.5 240.3,-32.8 274.7,-150.1 L 29553.8,7939.6 c 41.7,-141.9 25.5,-291.5 -45.4,-421.3 -70.9,-129.8 -188.1,-224.2 -330,-265.8 l -50.4,-14.8 c -51.7,-15.1 -104.4,-22.7 -156.7,-22.7"
         style="fill:#000072;fill-opacity:1;fill-rule:nonzero;stroke:none"
         id="path72" />
      <path
         d="m 29287,10021.2 -1746,-512.1 -1942.9,6623.9 1746,512.1 1942.9,-6623.9"
         style="fill:#b8b8b8;fill-opacity:1;fill-rule:nonzero;stroke:none"
         id="path74" />
      <path
         d="m 29287,10021.4 -114.2,388.9 -1043.8,3559 1158,-3947.9 M 25598.2,16133 v 0 l 58.4,17.1 -42.6,-12.5 -15.8,-4.6"
         style="fill:#ffeaf7;fill-opacity:1;fill-rule:nonzero;stroke:none"
         id="path76" />
      <path
         d="m 29172.8,10410.3 -76.7,261.4 -216.4,-63.5 -1754.5,5026.1 c -63.9,183.1 -235.8,299 -420.8,299 -41.6,0 -83.9,-5.9 -125.7,-18.1 l -224.3,-65.8 -136.4,465.1 -604,-176.9 42.6,12.5 1687.5,494.8 784.9,-2675.6 1043.8,-3559"
         style="fill:#e3e3e3;fill-opacity:1;fill-rule:nonzero;stroke:none"
         id="path78" />
      <path
         d="m 27556.3,9513.5 0.1,0.1 301.1,88.3 v 0 l -301.2,-88.4"
         style="fill:#cca2d4;fill-opacity:1;fill-rule:nonzero;stroke:none"
         id="path80" />
      <path
         d="m 27541.1,9509 v 0.1 l 15.3,4.5 -0.1,-0.1 -15.2,-4.5"
         style="fill:#000072;fill-opacity:1;fill-rule:nonzero;stroke:none"
         id="path82" />
      <path
         d="m 27857.5,9601.9 v 0 l 268.3,78.7 -268.3,-78.7"
         style="fill:#000072;fill-opacity:1;fill-rule:nonzero;stroke:none"
         id="path84" />
      <path
         d="M 27541.1,9509.1 25598.2,16133 h -0.1 l 136.7,-465.4 619.6,181.8 1440.2,-4910.1 c 79.7,-271.7 328.1,-448 597.6,-448 58.1,0 117.2,8.2 175.7,25.4 l 311.8,91.5 223.6,-640.5 183.6,53.7 -1161.1,-340.8 -268.3,-78.7 -301.1,-88.3 -15.3,-4.5"
         style="fill:#9393aa;fill-opacity:1;fill-rule:nonzero;stroke:none"
         id="path86" />
      <path
         d="m 29286.9,10021.4 -114.1,388.9 114.2,-388.9 h -0.1 M 25598.2,16133 v 0 l 15.8,4.6 -15.9,-4.6"
         style="fill:#ccbbdc;fill-opacity:1;fill-rule:nonzero;stroke:none"
         id="path88" />
      <path
         d="m 29103.3,9967.7 -223.6,640.5 216.4,63.5 76.7,-261.4 114.1,-388.9 -183.6,-53.7 m -3368.5,5699.9 -136.6,465.4 15.8,4.6 604,176.9 136.4,-465.1 -619.6,-181.8"
         style="fill:#b6b6cc;fill-opacity:1;fill-rule:nonzero;stroke:none"
         id="path90" />
      <path
         d="m 25872.9,15982.9 1818.2,-6199.1 1321.2,387.5 -1818.3,6199.1 z M 27541,9287.7 c -36.8,0 -73.3,9.2 -106.1,27.1 -51.6,28.2 -89.8,75.7 -106.3,132 l -1942.9,6623.9 c -16.5,56.3 -9.9,116.9 18.2,168.4 28.2,51.5 75.6,89.8 131.9,106.3 l 1746,512.1 c 56.4,16.5 117,10 168.5,-18.2 51.5,-28.1 89.7,-75.6 106.2,-131.9 l 1942.9,-6623.9 c 34.4,-117.3 -32.8,-240.3 -150.1,-274.7 l -1746,-512.1 c -20.4,-6 -41.4,-9 -62.3,-9"
         style="fill:#000072;fill-opacity:1;fill-rule:nonzero;stroke:none"
         id="path92" />
      <path
         d="m 27486.5,10480.8 204.6,-697 1321.2,387.3 -204.6,697.5 z m 54.5,-1193.1 c -95.8,0 -184,62.6 -212.3,159.1 l -329.3,1121.7 c -16.5,56.4 -10,116.9 18.2,168.5 28.1,51.5 75.5,89.7 131.9,106.3 l 1745.9,512.4 c 56.2,16.5 116.9,10 168.5,-18.2 51.5,-28.1 89.7,-75.6 106.2,-131.9 l 329.3,-1122.3 c 16.5,-56.3 10,-116.9 -18.2,-168.4 -28.1,-51.5 -75.6,-89.8 -131.9,-106.3 l -1746,-511.8 c -20.7,-6.2 -41.7,-9.1 -62.3,-9.1"
         style="fill:#000072;fill-opacity:1;fill-rule:nonzero;stroke:none"
         id="path94" />
      <path
         d="m 27433.7,18660.9 c -516.8,-221.5 -923,184.6 -923,184.6 l -2732,-184.6 c 162.5,-1363.5 -55.9,-2469 -284.6,-3186.4 l -0.5,-0.5 c -186.2,-584.1 -379.5,-911.2 -379.5,-911.2 l 258.4,-3175.1 c 468.2,-190.8 692.3,-504.1 763.1,-809.2 81,-344 -33.4,-678.4 -209.2,-815.3 -332.3,-258.4 -1993.7,-480 -3027.5,-36.9 -1033.7,443 -1550.6,2658.2 -1550.6,2658.2 -738.4,-1329.1 -2252.1,-1070.7 -2252.1,-1070.7 0,0 627.6,-1698.3 -590.8,-1919.8 -1218.3,-221.5 -2436.7,1809.1 -2473.6,2695.2 -9.7,232.2 84.6,466.6 229.2,686.6 406.1,619.4 1210.7,1122.4 1210.7,1122.4 -203.6,926.6 -241,1860.9 -171.3,2760.8 119.5,1551.7 555.9,3001.8 1006.1,4137.6 145.6,368.2 293.3,703.5 431.7,998.9 311.3,662.5 577.4,1121.5 681,1293.7 29.8,49.8 46.2,75.9 46.2,75.9 l 5270.8,-184.6 c 29.7,-80.5 60,-158.4 90.8,-233.3 364,-886.1 786.5,-1366.5 1243.4,-1636.2 827.1,-489.8 1768.1,-290.3 2680.3,-567.2 696.4,-211.2 1001.5,-599.9 1073.3,-972.7 78.9,-407.2 -120.5,-794.3 -390.3,-910.2"
         style="fill:#ffffff;fill-opacity:1;fill-rule:nonzero;stroke:none"
         id="path96" />
      <path
         d="m 17610.1,18969.6 c -241.5,-1468.6 -1154.8,-2541.3 -2040.3,-2395.7 -93.9,15.4 -184.1,44.1 -269.2,85.2 157.9,2054.7 872.2,3931.9 1437.8,5136.4 702.5,-355.8 1085,-1528.5 871.7,-2825.9"
         style="fill:#ffb720;fill-opacity:1;fill-rule:nonzero;stroke:none"
         id="path98" />
      <path
         d="m 16317.3,9582.3 c -258.8,0 -534.2,115.6 -820.9,344.9 -681.1,544.8 -1236.3,1614.1 -1259.5,2170.6 -5.2,125.1 29.9,255.5 92.4,386 146.3,-570.8 524.3,-1779.2 1103.1,-1779.2 42.8,0 86.6,6.6 131.6,20.6 399.7,124 493.9,446.7 482.7,751.4 -12.5,340.7 223.6,643 554.9,723.1 903.3,218.5 1253.1,884.6 1387.1,1322.3 73.9,241.3 277.1,419.4 525.7,463.1 2035.9,357.3 2711.4,1667.6 2781.9,2514.6 33.9,408.4 -179.3,795.6 -542.1,986.3 -292.7,153.8 -682.5,395 -1093.9,752.6 980.5,-568.6 2189.3,-782.6 3351.9,-782.6 206.2,0 411.4,6.8 613.2,19.5 -42.4,-1268.3 -395.5,-2192 -578.6,-2590.6 -543.9,-558 -1204.9,-855.9 -1204.9,-855.9 0,0 -707.1,-1753.2 -573.8,-2685.9 129.5,-902.8 609.3,-1017.2 1516.9,-1017.2 30.6,0 61.6,0.1 93.2,0.3 361.9,2.6 735.7,85.2 1062.2,187.3 4.1,-19.1 7.1,-37.1 9.4,-53.8 33.9,-245.5 -51.6,-458.6 -149.2,-534.5 -146.8,-114.2 -760.8,-246.6 -1444,-246.6 -469.3,0 -971.4,62.5 -1376.7,236.2 -768.6,329.4 -1294.1,1928.2 -1431.8,2516.4 -19.3,82.6 -87.4,144.8 -171.3,156.5 -9.5,1.3 -19,2 -28.4,2 -73.7,0 -142.8,-39.8 -179.3,-105.5 -480.2,-864.4 -1318.3,-987.2 -1755.8,-987.2 -160.8,0 -267.5,16.6 -282.5,19.1 -11.4,1.9 -22.9,2.9 -34.3,2.9 -60.4,0 -118.4,-26.7 -157.8,-74 -46.8,-56.3 -60.1,-133.3 -34.9,-202 87.5,-238.3 264.4,-944.1 36,-1343.4 -93.7,-163.8 -247.7,-263.2 -470.9,-303.7 -49.9,-9.1 -100.4,-13.6 -151.6,-13.6 m 10802,9218.2 c -264,0 -454.1,181 -463.4,190.1 -38.6,38.6 -91.2,60 -145.3,60 -4.5,0 -9,-0.1 -13.5,-0.4 l -452.5,-30.6 c -38.3,145.1 -92.6,284.4 -162.7,413.2 -78.6,136 -182.1,248.2 -302.7,341.9 471.8,-101.8 816.2,-151.8 816.2,-151.8 277.9,-194.3 534.3,-268.2 763.4,-268.2 174.7,0 333.7,43 474.4,108.4 1,-10.6 1.9,-21.2 2.4,-31.8 15.5,-281.8 -131.4,-517.1 -282.5,-581.8 -82.1,-35.2 -160.7,-49 -233.8,-49 m -8876.7,871.6 c -187.2,148.7 -388.1,288.3 -594.5,418.3 -49.4,473.6 -184.4,891.5 -386.2,1206.6 746.3,-249.3 1615,-411.3 2598.6,-484.3 l -1451.8,-1062.6 c -18.5,20.8 -44.9,33.1 -72.4,33.1 -12.5,0 -25.3,-2.5 -37.7,-7.9 -41,-17.8 -63.1,-61 -56,-103.2 m 5458.3,697.6 c -53,10.2 -105.8,20.5 -158.4,31 -8.6,22.4 -17.3,44.8 -26.1,67.1 58.6,-33.8 120.2,-66.4 184.5,-98.1 m -403.7,82.4 c -162.6,36.1 -322,76.2 -476.3,124.4 -257.1,84 -504,199.4 -740,331.9 493.2,87.5 964.2,220 1407.6,395.8 133.1,-132.6 269.9,-241 409.5,-330.1 l -443.7,-352.1 c -43.5,105.2 -88.8,209.7 -135.6,313.5 -15.8,32.8 -43.5,46.7 -71.1,46.7 -50.8,0 -101.7,-46.8 -79.4,-109.3 46.7,-138.4 89.7,-279 129,-420.8"
         style="fill:#cccce3;fill-opacity:1;fill-rule:nonzero;stroke:none"
         id="path100" />
      <path
         d="m 17648.1,20090.4 c -383.8,241.8 -786.5,450.2 -1154.8,621.3 106.5,269.3 213.9,520.9 318.3,752.3 144.7,-59.4 295,-115.1 450.3,-167 201.8,-315.1 336.8,-733 386.2,-1206.6"
         style="fill:#cc9230;fill-opacity:1;fill-rule:nonzero;stroke:none"
         id="path102" />
      <path
         d="m 27433.9,18660.9 h 0.5 -0.5 M 17578.5,22956 c -111.3,-187.2 -363.9,-629.1 -654.5,-1247.6 -561.6,-1196.2 -1263.7,-3045.9 -1418.9,-5065 -73.8,-951.9 -17.6,-1860.6 167.1,-2701.1 18.6,-84.7 -18.1,-172 -91.7,-218 -382.5,-239.6 -1369.8,-999 -1343.6,-1626.5 23.2,-556.5 578.4,-1625.8 1259.5,-2170.6 343.5,-274.7 670.5,-386.2 972.5,-331.3 223.2,40.5 377.2,139.9 470.9,303.7 228.4,399.3 51.5,1105.1 -36,1343.4 -25.2,68.7 -11.9,145.7 34.9,202 46.8,56.2 119.9,83.3 192.1,71.1 55.6,-9.2 1381.6,-213.9 2038.3,968.1 41.2,74.1 123.7,115.2 207.7,103.5 83.9,-11.7 152,-73.9 171.3,-156.5 137.7,-588.2 663.2,-2187 1431.8,-2516.4 995.6,-426.6 2573.1,-182.3 2820.7,10.4 97.6,75.9 183.1,289 149.2,534.5 -25.7,186.5 -145,530.5 -654.5,738.1 -71.6,29.2 -120.8,96.2 -127.1,173.3 l -258.4,3175.1 c -3.4,42.3 6.3,84.5 27.9,121 9.1,15.5 920.3,1600.9 637.4,3969.4 -6.6,55.9 9.9,112 45.8,155.2 35.9,43.3 88,70 144.1,73.8 l 2732.1,184.6 c 58.8,3.9 117,-17.7 158.8,-59.6 11.9,-11.6 318.3,-303.4 697.2,-141.1 151.1,64.7 298,300 282.5,581.8 -22.4,406.8 -366.6,740.8 -944.4,916.3 -350.8,106.6 -719.6,139.8 -1076.4,172 -1089.5,98.2 -2215.5,199.8 -3021.7,2260.7 L 17578.5,22956 M 16321.2,9172.4 c -353.1,0 -722.6,147.8 -1081.1,434.5 -798.6,638.8 -1385.7,1816.4 -1413.1,2473.8 -35.4,849.8 1030.7,1651.6 1415.2,1912.4 -169.8,840.5 -219,1741.9 -146.1,2681.8 159.9,2080.9 880.4,3980.6 1456.6,5207.8 401.8,855.6 725.8,1370.6 739.4,1392.1 39,61.6 107.1,98.6 180.6,95.4 l 5270.8,-184.7 c 83.2,-2.9 156.3,-55.7 185.2,-133.7 719.3,-1943.1 1647.8,-2026.8 2723,-2123.7 377.3,-34 767.6,-69.1 1158.8,-188 1068.4,-324.6 1219.4,-1007.6 1234.7,-1286.3 23.5,-426.8 -199.6,-839.6 -530.5,-981.4 v 0 c -499.9,-214.3 -909.9,35.4 -1073.3,162.9 l -2436.1,-164.6 c 202.1,-2164.5 -514.1,-3642.1 -681.5,-3953.3 l 243.4,-2991.8 c 602.3,-291.1 753.4,-751.7 789,-1009.9 50.5,-366.3 -71.6,-733.7 -303.8,-914.4 -395.7,-307.7 -2142.5,-531.4 -3234.1,-63.5 -828.7,355.1 -1335,1674 -1549.9,2368.8 -594.7,-707.8 -1430,-815.5 -1883.3,-815.5 -3.3,0 -6.5,0 -9.8,0 86.1,-354.1 171.9,-954.7 -78.8,-1394.2 -155.3,-272.1 -409,-441.9 -754.2,-504.7 -72.8,-13.2 -146.6,-19.8 -221.1,-19.8"
         style="fill:#000072;fill-opacity:1;fill-rule:nonzero;stroke:none"
         id="path104" />
      <path
         d="m 23309.1,11192.7 c -352.4,125.2 -785.1,141.5 -1101.7,-81.1 l -34.3,-22.9 c -20.8,-18.1 -72.2,-64 -93.6,-82.3 -102.6,-108.3 -265,32.1 -170.3,147.3 l 68.3,77.7 34.7,38.9 39.1,34.5 c 43.5,42.1 115.5,93.8 167.7,126.3 364.2,221 815.5,244.6 1223.1,150.1 279.2,-86.5 141.2,-491.3 -133,-388.5"
         style="fill:#000072;fill-opacity:1;fill-rule:nonzero;stroke:none"
         id="path106" />
      <path
         d="m 17038,11117.2 -846.5,359.7 c -108.5,46.3 -59.4,210.7 55.9,190.8 l 907.2,-157.2 c 297.9,-68 170.5,-498.6 -116.6,-393.3"
         style="fill:#000072;fill-opacity:1;fill-rule:nonzero;stroke:none"
         id="path108" />
      <path
         d="m 19167.6,12481.4 c 167.7,369.1 261.7,768.7 349.3,1163.9 18.3,111.1 125.7,186.9 236.2,159.6 96.4,-19.2 197.7,-27.6 296.7,-34.5 312.6,-16.5 628.3,7.1 934.4,78.2 204.7,45.2 407.8,110.6 599.1,196.5 197.6,81.9 380.5,194.5 560.3,312.5 115.5,72.8 233.4,-89.7 125.4,-176.6 -718.2,-578.1 -1666.9,-869.5 -2586.9,-780.1 l 236.2,159.6 c -87.6,-402.5 -187.2,-804.5 -348.2,-1185.8 -11.7,-26.6 -25.5,-57.6 -40.9,-87 -134.2,-238.3 -485.1,-51.4 -361.6,193.7"
         style="fill:#000072;fill-opacity:1;fill-rule:nonzero;stroke:none"
         id="path110" />
      <path
         d="m 23318.7,20935.5 c 325,-720.2 575,-1475.5 665,-2264.2 22.7,-270.2 -368.9,-316.2 -408.4,-46.8 -2.9,381.6 -43.2,766.3 -117.7,1143.4 -72.2,372.1 -168.2,746.1 -289.4,1105 -34.4,96.6 105.7,155.7 150.5,62.6"
         style="fill:#000072;fill-opacity:1;fill-rule:nonzero;stroke:none"
         id="path112" />
      <path
         d="m 25163.2,17257.9 c -720,-18.4 -797.9,498.5 -797.9,498.5 -4748.8,-480 -6032.3,1938.3 -6032.3,1938.3 l 2603.3,1905.4 c 0,0 206.7,-366.6 882.5,-777.8 181,-109.8 395.9,-223.6 649.2,-333.9 989.7,-430.7 2713.6,-369.2 3193.6,-1089.1 141.5,-212.8 218.9,-484.6 238.9,-763.5 48.2,-664.6 -230.2,-1365 -737.3,-1377.9"
         style="fill:#ffffff;fill-opacity:1;fill-rule:nonzero;stroke:none"
         id="path114" />
      <path
         d="m 25143,17463.5 c -14,0 -28.1,0.4 -41.8,0.8 -13.6,0.4 -26.7,0.9 -38.7,0.9 -2.3,0 -4.6,-0.1 -6.9,-0.1 -208.5,6.7 -437.4,117.5 -486.9,318.9 54.3,87.1 92.2,188.5 108.8,298.3 3.9,26.3 6.6,53.1 8.1,80.3 146.1,-165 316.5,-303.8 498.1,-347.3 33.5,-8 65.7,-11.8 96.5,-11.8 148.1,0 265.3,87.1 356.4,205.7 -31.6,-108.2 -74.8,-211 -130.1,-304.7 -79.6,-128.6 -184.7,-215.4 -294.5,-234.9 -20.2,-4.8 -44.4,-6.1 -69,-6.1 m -1774.4,466.9 c -217.8,0 -435,5.6 -651.6,18.7 -1064.8,56.9 -2135.6,279.8 -3073.5,800.5 -457.7,257.1 -896,578.4 -1226.4,989.7 -2.6,3.8 -5.4,7.4 -8.4,10.8 l 1451.8,1062.6 c 58.5,-4.3 117.3,-8.3 176.6,-12 194.6,-12.2 387.3,-18.3 577.9,-18.3 283.1,0 561.6,13.4 834.3,39.8 7.3,-5.2 14.5,-10.4 21.8,-15.5 -944.7,-131 -1358,-963 -534.8,-1377.6 843.1,-424.9 2327.7,-500.4 2964,-512.7 -280.3,-76.7 -488.6,-365.3 -488.6,-709.5 0,-97.7 16.8,-191 47.3,-276.1 -30.2,-0.2 -60.3,-0.4 -90.4,-0.4"
         style="fill:#cccce3;fill-opacity:1;fill-rule:nonzero;stroke:none"
         id="path116" />
      <path
         d="m 18417.1,19739.3 c 330.4,-411.3 768.7,-732.6 1226.4,-989.7 937.9,-520.7 2008.7,-743.6 3073.5,-800.5 539.1,-32.6 1082.7,-18.3 1627.5,11.4 l 223.5,-173.4 c 47.9,-203.3 278.1,-315.3 487.6,-322 13.8,0.2 29.4,-0.3 45.6,-0.8 37.7,-1.1 79.1,-2.3 110.8,5.3 109.8,19.5 214.9,106.3 294.5,234.9 240.8,408.1 252.7,991.9 71.5,1419.5 -115.4,305.8 -422.1,460.7 -718.7,559.7 -693.8,228 -1447,277.7 -2162.3,501.8 -552.4,187.4 -1073.6,472.1 -1521.6,849.6 -133.4,115 -260.6,243.6 -366.4,386.9 -16.9,24.4 -29.8,41.4 -51.2,77.6 -57.6,97.5 -25.2,223.2 72.3,280.8 100.2,59.5 230,22.5 285.2,-79.6 192.2,-276.7 469.4,-483.3 752,-666.4 299.3,-184.8 617.8,-348.2 953.6,-457.9 336.3,-105.1 696.7,-171.7 1060.9,-241.5 663.1,-143.1 1620.7,-246.5 2000.1,-902.2 316,-580.8 310.3,-1374.1 -27.9,-1946.5 -136.3,-226 -380.4,-419.9 -660.3,-431.5 -433,-26.5 -888.3,162.4 -1017.9,612.2 -6.7,22.2 -8.3,31.8 -13.5,58.7 l 223.5,-173.4 c -2016.8,-281.2 -4586,-14.5 -5912.6,1717.6 -87.4,121.4 -162.4,239.7 -224,380.3 -20.9,48.2 1.2,104.2 49.4,125.1 44.1,19.2 93,2 118.5,-36"
         style="fill:#000072;fill-opacity:1;fill-rule:nonzero;stroke:none"
         id="path118" />
      <path
         d="m 23411.7,18206.9 c 0,-402.9 285.4,-729.5 637.5,-729.5 352.1,0 637.5,326.6 637.5,729.5 0,402.9 -285.4,729.6 -637.5,729.6 -352.1,0 -637.5,-326.7 -637.5,-729.6"
         style="fill:#b8b8b8;fill-opacity:1;fill-rule:nonzero;stroke:none"
         id="path120" />
      <path
         d="m 24049.2,17477.2 c -3.9,0 -7.8,0 -11.7,0.1 v 0.2 c 3.9,-0.1 7.8,-0.1 11.7,-0.1 66.1,0 129.9,11.5 189.9,32.9 0,-0.1 0,-0.1 0.1,-0.1 -60,-21.5 -123.8,-33 -190,-33"
         style="fill:#d6a2bd;fill-opacity:1;fill-rule:nonzero;stroke:none"
         id="path122" />
      <path
         d="m 24037.5,17477.3 c -46.5,1 -91.8,7.6 -135.4,19.4 0.1,0 0.3,0.1 0.4,0.1 43.5,-11.7 88.6,-18.4 135,-19.3 v -0.2"
         style="fill:#0a005b;fill-opacity:1;fill-rule:nonzero;stroke:none"
         id="path124" />
      <path
         d="m 23902.1,17496.7 c -75.9,20.6 -146.5,56.7 -209.2,105.2 62.8,-48.6 133.6,-84.6 209.6,-105.1 -0.1,0 -0.3,-0.1 -0.4,-0.1 m 337.1,13.5 c -0.1,0 -0.1,0 -0.1,0.1 83.7,29.8 160,78.9 224.9,142.6 -64.9,-63.8 -141.2,-112.9 -224.8,-142.7"
         style="fill:#0a005b;fill-opacity:1;fill-rule:nonzero;stroke:none"
         id="path126" />
      <path
         d="m 24685.6,18162.6 v 0 c 0.7,14.7 1.1,29.5 1.1,44.3 0,38.7 -2.6,76.7 -7.7,113.8 5.1,-37 7.7,-75 7.7,-113.6 0,-14.9 -0.3,-29.8 -1.1,-44.5"
         style="fill:#d6cccc;fill-opacity:1;fill-rule:nonzero;stroke:none"
         id="path128" />
      <path
         d="m 24677.5,18082.3 c 3.9,26.4 6.6,53.1 8.1,80.3 v 0 c -1.5,-27.2 -4.2,-54 -8.1,-80.3"
         style="fill:#ada3b6;fill-opacity:1;fill-rule:nonzero;stroke:none"
         id="path130" />
      <path
         d="m 24049.2,17477.4 c -3.9,0 -7.8,0 -11.7,0.1 -46.4,0.9 -91.5,7.6 -135,19.3 -76,20.5 -146.8,56.5 -209.6,105.1 -169.6,131.2 -281.2,353.4 -281.2,605.2 0,111.8 22.2,217.5 61.5,312.1 102.3,-246.3 322,-416.7 576,-416.7 254.1,0 473.7,170.4 576.1,416.7 25.7,-61.9 44.1,-128.6 53.7,-198.5 5.1,-37.1 7.7,-75.1 7.7,-113.8 0,-14.8 -0.4,-29.6 -1.1,-44.3 -1.5,-27.2 -4.2,-53.9 -8.1,-80.3 -25.7,-170.7 -103.3,-321.2 -213.5,-429.4 -64.9,-63.7 -141.2,-112.8 -224.9,-142.6 -60,-21.4 -123.8,-32.9 -189.9,-32.9"
         style="fill:#9d9393;fill-opacity:1;fill-rule:nonzero;stroke:none"
         id="path132" />
      <path
         d="m 24049.2,18715.1 c -229.4,0 -416.1,-228 -416.1,-508.2 0,-280.2 186.7,-508.2 416.1,-508.2 229.5,0 416.2,228 416.2,508.2 0,280.2 -186.7,508.2 -416.2,508.2 z m 0,-1459.1 c -473.6,0 -858.8,426.6 -858.8,950.9 0,524.3 385.2,950.9 858.8,950.9 473.6,0 858.9,-426.6 858.9,-950.9 0,-524.3 -385.3,-950.9 -858.9,-950.9"
         style="fill:#000072;fill-opacity:1;fill-rule:nonzero;stroke:none"
         id="path134" />
      <path
         d="m 26750.7,25546.5 c 0,-1882.9 -2270.6,-4818.1 -6700.9,-4541.2 -1747.6,109.2 -3090,494.3 -4034.6,1097.4 -1450.1,925.5 -1961.3,2364.4 -1558.8,4108.3 0,0 -2637.2,3314.1 -1882.9,4651.9 65.6,116.4 170.2,209.2 304,282.1 1031.2,561.4 3794.1,-60.6 3794.1,-60.6 0,0 286.6,237 759.4,515.4 646.6,380 1641.9,837.4 2729.5,869.1 0,0 664.6,2049.1 1772.2,2270.6 122,24.6 247.6,5.1 374.8,-50.7 1022.5,-448.7 2129.6,-3258.7 2228,-4490.4 0,0 1363,-1703.5 1950.6,-3346.9 v -1 c 161.6,-451.3 264.6,-898.4 264.6,-1304"
         style="fill:#ffffff;fill-opacity:1;fill-rule:nonzero;stroke:none"
         id="path136" />
      <path
         d="m 21412.5,32450.8 c -412.3,126.9 -746.2,181.9 -965.9,205.6 251.6,638.7 821.5,1741 1526.4,1882 21,4.3 42.6,6.4 64.8,6.4 41.9,0 85.8,-7.5 131.8,-22.5 -155,-209.3 -304.2,-497.9 -355.2,-868.9 -70.6,-110.4 -136.9,-261.6 -203.2,-459.5 -79.3,-236.4 -147.1,-509.2 -198.7,-743.1"
         style="fill:#cccce3;fill-opacity:1;fill-rule:nonzero;stroke:none"
         id="path138" />
      <path
         d="m 21268.3,26967.9 c 0,-2597.2 -2323.9,-4719.6 -5252.9,-4865.2 -1450.2,925.6 -1961.4,2364.4 -1558.9,4108.4 0,0 -2637.2,3314 -1882.9,4651.9 572.3,1015.3 4098.1,221.5 4098.1,221.5 0,0 286.7,236.9 759.4,515.3 2228.1,-638.4 3837.2,-2471 3837.2,-4631.9"
         style="fill:#ffb720;fill-opacity:1;fill-rule:nonzero;stroke:none"
         id="path140" />
      <path
         d="m 18118.7,31357.2 c -137,57.9 -277,111 -419.9,159.2 621.9,344.6 1510.1,719.2 2466.3,747.5 0.5,0 1.3,0 2.3,0 33.5,0 326.6,-2.9 787.2,-112.9 -694.7,-64 -1859,-250.6 -2835.9,-793.8"
         style="fill:#ffffff;fill-opacity:1;fill-rule:nonzero;stroke:none"
         id="path142" />
      <path
         d="m 14909.1,27228.7 c 288.4,1031.6 678,1948.2 1158.7,2725.4 v 0 c 0.8,1.3 1.5,2.6 2.3,3.8 0,0.1 0,0.1 0,0.1 0.1,0.2 0.3,0.4 0.4,0.7 0.9,1.5 1.7,3 2.5,4.5 385.4,621.9 697.3,931.4 734.5,967.3 40.1,32.4 310.3,246.7 727.6,492.5 52.2,30.7 106.9,61.9 163.7,93.4 142.9,-48.2 282.9,-101.3 419.9,-159.2 -117.7,-65.5 -232.5,-136 -343.6,-212.2 -1432.3,-982.5 -2345.7,-2658.2 -2866,-3916.3"
         style="fill:#ffe2a6;fill-opacity:1;fill-rule:nonzero;stroke:none"
         id="path144" />
      <path
         d="m 14212.4,31175.4 c -705.6,0 -1288.9,-109.5 -1460.1,-413.1 -563.1,-998.8 1155.1,-3531.8 1864.7,-4423.5 38.9,-49 53.4,-112.9 39.4,-173.9 -388.5,-1682.9 119.6,-3027.8 1469.3,-3889.3 944.2,-602.8 2268.8,-961.3 3937,-1065.5 2042.3,-127.7 3856.2,450.1 5108.6,1626.6 847.8,796.4 1374.5,1834.8 1374.5,2709.8 0,1788.8 -2148.6,4496.7 -2170.3,4523.8 -25.6,32 -41,70.9 -44.3,111.8 -88.4,1105.4 -1021.9,3528.6 -1919,4206 -165.4,125 -313.4,175.7 -439.2,150.3 -810.4,-162 -1442.2,-1594.5 -1617.3,-2132.8 -26.8,-82.4 -102.5,-139.1 -189.1,-141.6 -1044.1,-30.6 -2007.4,-474.2 -2631.5,-841 -450.9,-265.5 -730,-494.4 -732.8,-496.7 -48.9,-40.3 -113.8,-55.9 -175.6,-41.9 -688.4,154.8 -1627.4,291 -2414.3,291 m 6402.6,-10393 c -190.6,0 -383.3,6.1 -577.9,18.3 -1738.4,108.6 -3128.7,488.5 -4132.1,1129.1 -1483.4,946.8 -2059.5,2408.5 -1669.7,4231.4 -177.6,230.4 -708.2,938.8 -1181.5,1772.9 -787.8,1388.4 -1009.5,2407.8 -658.9,3029.6 283.8,503.4 1087.7,698.2 2457.7,595.3 785.1,-58.9 1512,-200.3 1768,-253.7 118.8,90.9 365.2,270.3 706.5,471.3 637.8,374.8 1610.6,824.8 2685.8,891 176.4,480.9 831.9,2063.5 1879.7,2273.1 245.9,49.2 503.8,-26.6 766.8,-225.2 976.2,-737.2 1950.6,-3211.3 2075,-4437.8 308,-394.1 2221.6,-2915.4 2221.6,-4731.2 0,-999.4 -562.2,-2124.2 -1503.8,-3008.8 C 24237,21396.1 22535.6,20782.4 20615,20782.4"
         style="fill:#000072;fill-opacity:1;fill-rule:nonzero;stroke:none"
         id="path146" />
      <path
         d="m 14456.7,26005.9 c -13.2,0 -26.5,1.3 -40,3.9 -111.1,22 -183.4,129.9 -161.4,241 67.9,343.5 147,680.9 235.2,1003.1 299.8,1099.5 711.3,2077.7 1223.1,2907.4 1.7,3.1 3.4,6.1 5.2,9 443.9,718.5 798.6,1050.8 813.5,1064.6 83.1,77 212.8,72.1 289.9,-11 77,-83.1 72,-212.8 -11,-289.8 -3,-2.8 -329.3,-311 -738.2,-971 -1.7,-3 -3.4,-6 -5.2,-9 -493.5,-798 -891.1,-1742.9 -1181.6,-2808.3 -85.6,-312.9 -162.5,-640.7 -228.5,-974.5 -19.3,-97.7 -105,-165.4 -201,-165.4"
         style="fill:#000072;fill-opacity:1;fill-rule:nonzero;stroke:none"
         id="path148" />
      <path
         d="m 24535.7,29993.3 c -54.2,0 -108.3,21.4 -148.6,63.7 -281.7,296 -577.1,566.7 -878,804.6 -636.3,505.9 -1312.5,885.7 -2010.5,1129.1 -798.7,279.1 -1328.9,273.2 -1334.4,273.2 -112,-2.2 -206.7,88.3 -208.6,201.5 -2,113.3 88.2,206.7 201.5,208.7 24.2,0.4 609.4,6.9 1476.7,-296.1 741.5,-258.6 1458.2,-660.6 2130.1,-1195 315.6,-249.4 625.4,-533.3 920.3,-843.2 78.2,-82.1 74.9,-211.9 -7.2,-290 -39.6,-37.7 -90.5,-56.5 -141.3,-56.5"
         style="fill:#000072;fill-opacity:1;fill-rule:nonzero;stroke:none"
         id="path150" />
      <path
         d="m 23636.1,31022.4 c -356.9,284.1 -705.1,511.8 -1034.8,695.3 h -0.5 c -373.8,207.7 -723.5,358 -1034.8,466.7 110.8,552.7 331.8,1464.5 588.2,1502.9 111.8,16.9 292.8,-120.5 491.2,-361.5 397.9,-482.5 866.1,-1383 990.7,-2303.4"
         style="fill:#ff96c4;fill-opacity:1;fill-rule:nonzero;stroke:none"
         id="path152" />
      <path
         d="m 21803.1,32316.4 c 524.4,-199.4 1035.4,-470.9 1526,-810.3 -280.8,1041.2 -916.8,1871 -1138.5,1969.7 -73.5,-81.4 -223.8,-399.4 -387.5,-1159.4 m 1833.2,-1499.1 c -45.4,0 -90.6,15.1 -127.7,44.6 -635.7,505.6 -1312,885.4 -2010,1128.8 -96.7,33.7 -153.7,133.6 -133.6,234 53.4,266.5 139.5,650.9 246.2,969.2 153.1,457.1 306.5,665.4 512.7,696.3 113.8,17.3 235.1,-24.1 370.7,-125.8 444.8,-333.8 1179.6,-1492.5 1344.9,-2714.5 11.2,-83 -29.1,-164.4 -101.9,-205.8 -31.6,-17.9 -66.5,-26.8 -101.3,-26.8"
         style="fill:#000072;fill-opacity:1;fill-rule:nonzero;stroke:none"
         id="path154" />
      <path
         d="m 15893.2,30062.5 v -0.5 c -275.4,-445.1 -586.6,-1044 -870.2,-1813.2 -117.9,-319.5 -231.3,-669.2 -334.8,-1049.1 -370.3,275.3 -1446.1,2022.4 -1465,2747.4 -3.1,110.3 18.4,196.9 70.2,251.3 393.8,412.3 2599.8,-135.9 2599.8,-135.9"
         style="fill:#ff96c4;fill-opacity:1;fill-rule:nonzero;stroke:none"
         id="path156" />
      <path
         d="m 13939.2,30147.2 c -394.8,0 -485.2,-77.8 -497.3,-90.5 -49.4,-67.4 -8.3,-481.5 438.1,-1326.7 240.6,-455.5 511,-870.8 710.8,-1126.6 258.8,858.1 588.2,1636.7 982.2,2322 -214.8,46.5 -533.1,110.1 -863.7,157 -337.5,47.9 -586.7,64.8 -770.1,64.8 m 749.1,-3152.6 c -43.5,0 -86.5,13.8 -122.4,40.5 -393,292.4 -1474.6,2021.2 -1544.3,2845.6 -17,201.1 24.6,355.7 123.6,459.4 137,143.3 454.4,314.7 1624.8,148 604.2,-85.9 1149.9,-220.8 1172.8,-226.5 91.5,-22.7 155.6,-104.8 155.6,-199.1 v -0.5 c 0,-38.1 -10.6,-75.5 -30.6,-107.9 -493.5,-798 -891.1,-1742.9 -1181.6,-2808.3 -17.8,-65.5 -66.9,-117.8 -130.9,-140 -21.9,-7.5 -44.5,-11.2 -67,-11.2"
         style="fill:#000072;fill-opacity:1;fill-rule:nonzero;stroke:none"
         id="path158" />
      <path
         d="m 20397.9,26214.3 c 77.8,-615.6 -219,-1160.1 -662.7,-1216.2 -443.8,-56 -866.6,397.7 -944.3,1013.3 -77.7,615.7 219,1160.2 662.8,1216.2 443.7,56.1 866.5,-397.6 944.2,-1013.3"
         style="fill:#000072;fill-opacity:1;fill-rule:nonzero;stroke:none"
         id="path160" />
      <path
         d="m 19648.3,26338.2 c 27.6,-218.5 -77.7,-411.7 -235.2,-431.6 -157.5,-19.9 -307.5,141.1 -335.1,359.6 -27.6,218.5 77.7,411.8 235.2,431.6 157.5,19.9 307.5,-141.1 335.1,-359.6"
         style="fill:#ffffff;fill-opacity:1;fill-rule:nonzero;stroke:none"
         id="path162" />
      <path
         d="m 19871.7,25377.8 c -4.7,0 -9.4,0.2 -14.1,0.6 -126.7,10.7 -217.4,161.8 -202.6,337.5 14.2,169.1 121,299.4 242,299.4 4.7,0 9.4,-0.2 14.1,-0.6 126.7,-10.6 217.3,-161.7 202.5,-337.4 -14.2,-169.2 -121,-299.5 -241.9,-299.5"
         style="fill:#5959a3;fill-opacity:1;fill-rule:nonzero;stroke:none"
         id="path164" />
      <path
         d="m 24993,27514.8 c 71.4,-565.3 -201.1,-1065.4 -608.6,-1116.8 -407.6,-51.5 -795.8,365.1 -867.2,930.5 -71.4,565.4 201.1,1065.4 608.6,1116.9 407.6,51.4 795.8,-365.2 867.2,-930.6"
         style="fill:#000072;fill-opacity:1;fill-rule:nonzero;stroke:none"
         id="path166" />
      <path
         d="m 24304.6,27628.6 c 25.3,-200.6 -71.4,-378.1 -216,-396.3 -144.7,-18.3 -282.4,129.5 -307.8,330.2 -25.3,200.6 71.4,378.1 216,396.4 144.7,18.2 282.4,-129.6 307.8,-330.3"
         style="fill:#ffffff;fill-opacity:1;fill-rule:nonzero;stroke:none"
         id="path168" />
      <path
         d="m 24509.7,26746.6 c -4.3,0 -8.6,0.2 -13,0.6 -116.3,9.8 -199.5,148.5 -186,309.9 13.1,155.3 111.2,275 222.2,275 4.4,0 8.7,-0.2 13,-0.6 116.3,-9.8 199.6,-148.5 186,-309.9 -13,-155.3 -111.1,-275 -222.2,-275"
         style="fill:#5959a3;fill-opacity:1;fill-rule:nonzero;stroke:none"
         id="path170" />
      <path
         d="m 23073.3,25264.8 c -60.7,-51.8 -139.8,-75.8 -219,-66.5 -269,31.7 -889.8,138.6 -875.3,449.7 18.4,396.9 1294.3,684.3 1467.5,415.4 178.2,-276.7 -188.6,-641 -373.2,-798.6"
         style="fill:#000072;fill-opacity:1;fill-rule:nonzero;stroke:none"
         id="path172" />
      <path
         d="m 23052.6,24692.4 c -86.9,0 -167.1,56.6 -193.3,144.1 l -141.5,473.8 c -31.9,106.8 28.8,219.2 135.6,251.2 106.8,31.9 219.3,-28.9 251.2,-135.7 l 141.5,-473.8 c 31.9,-106.8 -28.8,-219.2 -135.6,-251.1 -19.3,-5.8 -38.7,-8.5 -57.9,-8.5"
         style="fill:#000072;fill-opacity:1;fill-rule:nonzero;stroke:none"
         id="path174" />
      <path
         d="m 21512.7,24774.5 c 84.8,-466.3 520.4,-490.6 892,-311.6 204.9,106.2 374.2,290.4 459.8,504.3 28.3,93.9 129.1,146.2 222.1,115.3 l 92.7,-31.1 c 214.6,-178.2 513.5,-266.1 787.6,-191.8 305.1,67.2 323.4,420.1 251.9,678.5 -17.5,52 12.1,109.1 65.5,123 47.1,12.6 95.5,-12.6 112.9,-56.9 36,-91.6 57.2,-176.8 71.2,-270.8 133.6,-894.4 -975.9,-1012.2 -1542.2,-596.4 l 314.7,84.3 c -227.7,-498 -779.8,-831.1 -1327.2,-762.3 -356.7,33 -621.4,346.4 -643.8,696.6 -7.1,161.3 223.9,177.8 242.8,18.9"
         style="fill:#000072;fill-opacity:1;fill-rule:nonzero;stroke:none"
         id="path176" />
      <path
         d="m 20615,21192.7 c -182,0 -366.3,5.8 -552.3,17.4 -1529.3,95.5 -2769.9,404.8 -3693.3,920.1 774.7,81.8 1500.7,302.6 2144,632.9 781.3,-214.7 1624.8,-323.7 2470.4,-323.7 638.8,0 1278.5,62.1 1894.4,187.8 2835.3,578.4 3452.3,2579.9 3579.8,3606.6 55.9,-238.3 87.8,-469.7 87.8,-687.3 0,-875 -526.7,-1913.4 -1374.5,-2709.8 -1138.3,-1069.4 -2740.3,-1644 -4556.3,-1644"
         style="fill:#cccce3;fill-opacity:1;fill-rule:nonzero;stroke:none"
         id="path178" />
      <path
         d="m 16369.4,22130.2 c -83.9,46.8 -165.1,95.2 -243.7,145.4 -1349.1,861.1 -1857.4,2205.1 -1469.9,3887.1 0.7,2.8 1.4,5.7 1.9,8.6 20.8,105 42.6,209.4 65.5,312.9 168.9,-1907.8 1773.5,-3166.8 3790.2,-3721.1 -643.3,-330.3 -1369.3,-551.1 -2144,-632.9 m -2020.3,4560.3 c -793.8,1081.4 -2097.7,3183.4 -1596.8,4071.8 35.7,63.4 89.4,118.3 158.4,165.5 40.5,-213.2 103.9,-433 183.4,-653.7 -61.8,-99.4 -86.2,-231.3 -72.5,-393.4 64,-757.8 983.1,-2279.7 1436.4,-2747.8 -38.2,-144.9 -74.6,-292.7 -108.9,-442.4"
         style="fill:#cc9230;fill-opacity:1;fill-rule:nonzero;stroke:none"
         id="path180" />
      <path
         d="m 20627.3,20987.1 c -188.4,0 -380.7,5.9 -577.5,18.2 -1747.6,109.2 -3090,494.3 -4034.6,1097.4 -1394.1,889.8 -1920.4,2254.1 -1601.3,3907.7 0.9,-0.2 1.9,-0.4 2.8,-0.6 13.5,-2.6 26.8,-3.9 40,-3.9 93.1,0 176.6,63.7 199.1,156.8 -387.5,-1682 120.8,-3026 1469.9,-3887.1 78.6,-50.2 159.8,-98.6 243.7,-145.4 923.4,-515.3 2164,-824.6 3693.3,-920.1 186,-11.6 370.3,-17.4 552.3,-17.4 1816,0 3418,574.6 4556.3,1644 847.8,796.4 1374.5,1834.8 1374.5,2709.8 0,217.6 -31.9,449 -87.8,687.3 44.5,357.7 29.4,597.2 28.1,616.7 161.6,-451.3 264.6,-898.4 264.6,-1304 0,-1799.3 -2073.5,-4559.4 -6123.4,-4559.4 m -6336.1,5439.8 c -565.8,756.8 -2356,3304 -1717.7,4436 65.6,116.4 170.2,209.2 304,282.1 8.2,-71.4 19.4,-144 33.2,-217.2 -69,-47.2 -122.7,-102.1 -158.4,-165.5 -500.9,-888.4 803,-2990.4 1596.8,-4071.8 -20,-87.3 -39.3,-175.2 -57.9,-263.6"
         style="fill:#000072;fill-opacity:1;fill-rule:nonzero;stroke:none"
         id="path182" />
      <path
         d="m 14456.7,26005.9 c -13.2,0 -26.5,1.3 -40,3.9 -0.9,0.2 -1.9,0.4 -2.8,0.6 12.8,66.5 26.9,133.2 42.5,200.6 0,0 -62.4,78.4 -165.2,215.9 18.6,88.4 37.9,176.3 57.9,263.6 34.3,149.7 70.7,297.5 108.9,442.4 39.8,-41.1 76.1,-74.1 107.9,-97.8 35.9,-26.7 78.9,-40.5 122.4,-40.5 8,0 16,0.5 24,1.4 -7.6,-175.5 -3.8,-346 10.9,-511.8 -22.9,-103.5 -44.7,-207.9 -65.5,-312.9 -0.5,-2.9 -1.2,-5.8 -1.9,-8.6 -22.5,-93.1 -106,-156.8 -199.1,-156.8"
         style="fill:#000072;fill-opacity:1;fill-rule:nonzero;stroke:none"
         id="path184" />
      <path
         d="m 14590.8,27603.4 c -155.1,198.5 -352.7,493.2 -545.9,828.1 220.8,-342.7 423.1,-623.4 554.6,-799.4 -2.9,-9.5 -5.8,-19.1 -8.7,-28.7"
         style="fill:#cc78b4;fill-opacity:1;fill-rule:nonzero;stroke:none"
         id="path186" />
      <path
         d="m 14688.3,26994.6 c -43.5,0 -86.5,13.8 -122.4,40.5 -31.8,23.7 -68.1,56.7 -107.9,97.8 -453.3,468.1 -1372.4,1990 -1436.4,2747.8 -13.7,162.1 10.7,294 72.5,393.4 236.5,-656.8 615,-1321.3 950.8,-1842.6 193.2,-334.9 390.8,-629.6 545.9,-828.1 2.9,9.6 5.8,19.2 8.7,28.7 96.1,-128.5 154.3,-201.2 154.3,-201.2 -21.6,-148.1 -35.3,-293.1 -41.5,-434.9 -8,-0.9 -16,-1.4 -24,-1.4"
         style="fill:#000072;fill-opacity:1;fill-rule:nonzero;stroke:none"
         id="path188" />
      <path
         d="m 14947.4,28625.6 c -271.8,862.4 -1121.8,1176.1 -1517.4,1277.4 -9.5,83.2 -2.8,133.7 11.9,153.7 12.1,12.7 102.5,90.5 497.3,90.5 183.4,0 432.6,-16.9 770.1,-64.8 330.6,-46.9 648.9,-110.5 863.7,-157 -231.2,-402.1 -440.1,-836.3 -625.6,-1299.8"
         style="fill:#cc78b4;fill-opacity:1;fill-rule:nonzero;stroke:none"
         id="path190" />
      <path
         d="m 15023,28248.8 c -13.2,136 -39.2,261.3 -75.6,376.8 185.5,463.5 394.4,897.7 625.6,1299.8 -214.8,46.5 -533.1,110.1 -863.7,157 -337.5,47.9 -586.7,64.8 -770.1,64.8 -394.8,0 -485.2,-77.8 -497.3,-90.5 -14.7,-20 -21.4,-70.5 -11.9,-153.7 -126.3,32.4 -206.3,43.1 -206.3,43.1 l -0.5,1 c -3.1,110.3 18.4,196.9 70.2,251.3 107.6,112.6 350.6,153.6 646.9,153.6 787.9,0 1952.9,-289.5 1952.9,-289.5 v -0.5 c -275.4,-445.1 -586.6,-1044 -870.2,-1813.2"
         style="fill:#000072;fill-opacity:1;fill-rule:nonzero;stroke:none"
         id="path192" />
      <path
         d="m 22471.2,32019.7 c -219.9,112 -442.8,211 -668.1,296.7 163.7,760 314,1078 387.5,1159.4 77.7,-34.6 206.3,-158.9 352.6,-350.7 -98.5,-233.4 -213.5,-645.6 -72,-1105.4"
         style="fill:#cc78b4;fill-opacity:1;fill-rule:nonzero;stroke:none"
         id="path194" />
      <path
         d="m 22600.8,31717.7 c -373.8,207.7 -723.5,358 -1034.8,466.7 110.8,552.7 331.8,1464.5 588.2,1502.9 6.2,0.9 12.6,1.4 19.2,1.4 112.6,0 284.6,-135.2 472,-362.9 0,0 -48.6,-74 -102.2,-200.7 -146.3,191.8 -274.9,316.1 -352.6,350.7 -73.5,-81.4 -223.8,-399.4 -387.5,-1159.4 225.3,-85.7 448.2,-184.7 668.1,-296.7 30.4,-98.9 72.7,-200 129.6,-302"
         style="fill:#000072;fill-opacity:1;fill-rule:nonzero;stroke:none"
         id="path196" />
      <path
         d="m 28090.2,29590.5 c -209.5,342.8 -312.8,754.3 -268.6,1184.9 107.3,1045 1041.4,1805.2 2086.4,1697.9 1045,-107.3 1805.2,-1041.5 1697.9,-2086.5 -107.3,-1045 -1041.4,-1805.1 -2086.5,-1697.8 -290.6,29.8 -559.1,123.8 -793.2,266.2 l -880.2,-197.4 244.2,832.7"
         style="fill:#ff0068;fill-opacity:1;fill-rule:nonzero;stroke:none"
         id="path198" />
      <path
         d="m 31382.7,31057.9 c -280,567.1 -836.4,982.1 -1512.1,1051.5 -66,6.7 -131.6,10 -196.5,10 -599.8,0 -1146.4,-282.7 -1497.7,-732.4 107.7,205.4 257,388.8 442.3,539.7 312.4,254.2 694.5,389.4 1091.8,389.4 59.8,0 120.1,-3.1 180.4,-9.3 461,-47.3 875.9,-271.3 1168.4,-630.7 150.8,-185.3 259.7,-395.2 323.4,-618.2"
         style="fill:#ff80b4;fill-opacity:1;fill-rule:nonzero;stroke:none"
         id="path200" />
      <path
         d="m 28726.2,29122.5 c 30.4,0 60.5,-8.3 87,-24.4 221,-134.5 464.4,-216.1 723.3,-242.7 460.9,-47.4 912.8,87.7 1272.2,380.2 359.4,292.4 583.4,707.4 630.7,1168.3 47.4,461 -87.6,912.8 -380.1,1272.2 -292.5,359.4 -707.4,583.4 -1168.4,630.7 -461,47.3 -912.7,-87.7 -1272.2,-380.1 -359.4,-292.5 -583.4,-707.4 -630.7,-1168.4 -39.1,-380.7 45.6,-754.4 245,-1080.6 24.6,-40.2 31,-89 17.8,-134.3 l -164.4,-560.3 603.2,135.3 c 12.1,2.7 24.4,4.1 36.6,4.1 m 991.4,-611 c -71.4,0 -143.2,3.6 -215.3,11 -285.8,29.4 -555.9,115.1 -803.8,255 l -815.9,-183 c -57.8,-12.8 -118.2,5.6 -158.7,48.8 -40.5,43.2 -55.2,104.7 -38.5,161.5 l 223.9,763.4 c -210.4,373.5 -298.2,795.1 -254.2,1224.3 116.6,1135.1 1135.3,1963.8 2270,1847.2 549.9,-56.5 1044.8,-323.7 1393.7,-752.4 348.9,-428.7 510,-967.7 453.5,-1517.5 -56.5,-549.9 -323.7,-1044.9 -752.4,-1393.8 -372.6,-303.2 -828.4,-464.5 -1302.3,-464.5"
         style="fill:#000072;fill-opacity:1;fill-rule:nonzero;stroke:none"
         id="path202" />
      <path
         d="m 29717.1,28846.1 c -59.9,0 -120.2,3.1 -180.6,9.3 -258.9,26.6 -502.3,108.2 -723.3,242.7 -26.5,16.1 -56.6,24.4 -87,24.4 -12.2,0 -24.5,-1.4 -36.6,-4.1 l -603.2,-135.3 148.4,505.7 c 364.3,-256.4 804.6,-401.8 1264.2,-401.8 175.6,0 353.9,21.2 532,65.5 602.9,150 1084.8,535.8 1372.4,1034.6 -86.2,-373.5 -292.6,-705.7 -594.7,-951.5 -312.3,-254.2 -694.4,-389.5 -1091.6,-389.5"
         style="fill:#b2006b;fill-opacity:1;fill-rule:nonzero;stroke:none"
         id="path204" />
      <path
         d="m 29716,28678.9 c -65,0 -130.5,3.3 -196.6,10.1 -290.6,29.8 -559.1,123.8 -793.2,266.2 l -880.2,-197.4 244.2,832.7 c -3.7,6 -7.1,12.2 -10.7,18.2 50,-42.2 101.8,-82.2 155.3,-119.9 l -148.4,-505.7 603.2,135.3 c 12.1,2.7 24.4,4.1 36.6,4.1 30.4,0 60.5,-8.3 87,-24.4 221,-134.5 464.4,-216.1 723.3,-242.7 60.4,-6.2 120.7,-9.3 180.6,-9.3 397.2,0 779.3,135.3 1091.6,389.5 302.1,245.8 508.5,578 594.7,951.5 89.5,155.1 160.2,321.2 209.9,494.5 5,-96.8 2.8,-195.3 -7.4,-294.8 -100.5,-978.9 -926.8,-1707.9 -1889.9,-1707.9"
         style="fill:#000072;fill-opacity:1;fill-rule:nonzero;stroke:none"
         id="path206" />
      <path
         d="m 29105.5,31115.2 v 0 c 164.6,164.6 431.5,135.2 596.1,-29.5 l 25.6,-25.6 25.6,25.6 c 164.7,164.7 431.5,194.1 596.2,29.5 v 0 c 164.6,-164.6 164.6,-431.5 0,-596.1 l -25.7,-25.6 -517.5,-517.5 c -43.4,-43.4 -113.8,-43.4 -157.2,0 l -517.5,517.5 -25.6,25.6 c -164.6,164.6 -164.6,431.5 0,596.1"
         style="fill:#ffffff;fill-opacity:1;fill-rule:nonzero;stroke:none"
         id="path208" />
    </g>
  </g>
</svg>
