<?xml version="1.0" encoding="UTF-8" standalone="no"?>
<!-- Created with Inkscape (http://www.inkscape.org/) -->

<svg
   version="1.1"
   id="svg2"
   width="5333.3335"
   height="5333.3335"
   viewBox="0 0 5333.3335 5333.3335"
   sodipodi:docname="koala_health.eps"
   xmlns:inkscape="http://www.inkscape.org/namespaces/inkscape"
   xmlns:sodipodi="http://sodipodi.sourceforge.net/DTD/sodipodi-0.dtd"
   xmlns="http://www.w3.org/2000/svg"
   xmlns:svg="http://www.w3.org/2000/svg">
  <defs
     id="defs6">
    <clipPath
       clipPathUnits="userSpaceOnUse"
       id="clipPath148">
      <path
         d="m 19941.8,28110.2 c -3721.5,-77.7 -7261.1,-3287.4 -7168.6,-7718.2 69,-3305.2 3697,-4328.8 7418.4,-4251.1 3721.5,77.7 7303.7,1251.8 7234.6,4557.1 -92.4,4430.7 -3763,7489.9 -7484.4,7412.2"
         id="path146" />
    </clipPath>
  </defs>
  <sodipodi:namedview
     id="namedview4"
     pagecolor="#ffffff"
     bordercolor="#000000"
     borderopacity="0.25"
     inkscape:showpageshadow="2"
     inkscape:pageopacity="0.0"
     inkscape:pagecheckerboard="0"
     inkscape:deskcolor="#d1d1d1" />
  <g
     id="g8"
     inkscape:groupmode="layer"
     inkscape:label="ink_ext_XXXXXX"
     transform="matrix(1.3333333,0,0,-1.3333333,0,5333.3333)">
    <g
       id="g10"
       transform="scale(0.1)">
      <path
         d="M 0,0 H 40000 V 40000 H 0 Z"
         style="fill:#7dd4ff;fill-opacity:1;fill-rule:nonzero;stroke:none"
         id="path12" />
      <path
         d="m 20000,7200 c -3432.9,0 -6215.8,347.4 -6215.8,775.9 0,255.8 991.3,482.6 2520.6,624 158.3,-193.7 371.4,-331.4 607.3,-391.1 296.5,-75 636.5,-136.9 950.1,-136.9 350.4,0 667.9,77.3 854.9,300.4 85.9,102.5 150.1,228.8 197.5,367.7 352.4,7.8 715.2,11.8 1085.4,11.8 436.9,0 863.1,-5.6 1274.5,-16.3 47.2,-137.1 111,-261.8 195.9,-363.2 187,-223.1 504.5,-300.4 854.9,-300.4 313.6,0 653.6,61.9 950.1,136.9 229.1,57.9 436.7,189.5 593.5,374.4 1430,-142.1 2346.9,-361.3 2346.9,-607.3 0,-428.5 -2782.9,-775.9 -6215.8,-775.9"
         style="fill:#64aae3;fill-opacity:1;fill-rule:nonzero;stroke:none"
         id="path14" />
      <path
         d="m 24397.9,17950 c 0,0 2210,-5173.5 -640.8,-9163.7 -131.5,-184.1 -319.3,-316.6 -533.9,-370.9 -463.9,-117.2 -1290.9,-262.4 -1589.4,93.9 -424.3,506.2 -218.6,1825.1 -218.6,1825.1 -1325.4,-297.6 -2642.9,0 -2642.9,0 0,0 205.7,-1318.9 -218.6,-1825.1 -298.5,-356.3 -1125.5,-211.1 -1589.3,-93.9 -214.7,54.3 -402.5,186.8 -534,370.9 -2850.8,3990.2 -640.8,9163.7 -640.8,9163.7 h 8608.3"
         style="fill:#ae7a69;fill-opacity:1;fill-rule:nonzero;stroke:none"
         id="path16" />
      <path
         d="m 17869.4,8497.6 c -232.4,0 -524.1,41.4 -852.8,124.5 -162.8,41.2 -309.4,143.5 -412.7,288.1 -45.8,64 -90.2,128.4 -133.3,193.1 54.5,-20.9 111.4,-37.7 170,-50.2 269.4,-57 649.7,-121.2 997.7,-121.2 313.1,0 600.1,52 756.1,207.9 100.1,100.1 168.4,234.4 213.9,383.8 -8.9,-341.6 -63.1,-692.6 -218,-877.4 -82.8,-98.9 -266.2,-148.6 -520.9,-148.6 m 4448.8,0 c -254.7,0.1 -438.2,49.7 -521,148.6 -154.9,184.8 -209.1,535.8 -218,877.3 45.5,-149.4 113.8,-283.6 213.9,-383.7 156.1,-155.9 442.9,-207.9 756.1,-207.9 347.9,0 728.3,64.2 997.7,121.2 58.7,12.5 115.5,29.3 170,50.2 -43.1,-64.7 -87.5,-129.1 -133.2,-193.1 -103.4,-144.6 -250,-246.9 -412.8,-288.1 -328.7,-83.1 -620.3,-124.5 -852.7,-124.5 m -2173.9,1918.3 c -749.6,0 -1316.7,124.5 -1325.1,126.4 -15.5,3.5 -31.3,5.2 -46.9,5.2 -34.1,0 -67.6,-8.2 -97.8,-23.8 -16.3,181.2 -38.9,303 -38.9,303 0,0 646.1,-122.2 1510.2,-122.2 432,0 918.6,30.5 1406.1,122.2 0,0 -22.6,-121.7 -38.9,-302.9 -30.1,15.5 -63.7,23.7 -97.7,23.7 -15.6,0 -31.2,-1.7 -46.7,-5.2 -422.4,-94.8 -846.5,-126.4 -1224.3,-126.4"
         style="fill:#79556c;fill-opacity:1;fill-rule:nonzero;stroke:none"
         id="path18" />
      <path
         d="m 16609.1,15134 c 0,-2328.1 1570.1,-4215.4 3507,-4215.4 1936.8,0 3506.9,1887.3 3506.9,4215.4 0,2328.1 -1570.1,4215.3 -3506.9,4215.3 -1936.9,0 -3507,-1887.2 -3507,-4215.3"
         style="fill:#e7d0bc;fill-opacity:1;fill-rule:nonzero;stroke:none"
         id="path20" />
      <path
         d="M 30746.8,12479.2 H 9325.25 c -235.06,0 -426.3,-191.3 -426.3,-426.3 0,-235.1 191.24,-426.3 426.3,-426.3 H 30746.8 c 235.1,0 426.3,191.2 426.3,426.3 0,235 -191.2,426.3 -426.3,426.3"
         style="fill:#ffffff;fill-opacity:1;fill-rule:nonzero;stroke:none"
         id="path22" />
      <path
         d="M 31858.7,12479.2 H 8213.35 c -210.84,0 -382.38,-191.3 -382.38,-426.3 0,-235.1 171.54,-426.3 382.38,-426.3 H 12644 27428.1 31858.7 c 210.9,0 382.4,191.2 382.4,426.3 0,235 -171.5,426.3 -382.4,426.3"
         style="fill:#867e9e;fill-opacity:1;fill-rule:nonzero;stroke:none"
         id="path24" />
      <path
         d="m 31858.7,11839.7 h -724.8 v 426.3 h 724.8 c 91.7,0 169.3,-97.6 169.3,-213.1 0,-115.5 -77.6,-213.2 -169.3,-213.2 m -4895.3,0 h -1303.1 c 75.7,138.2 139.6,281.1 192.3,426.3 h 1110.8 v -426.3 m -5005.2,0 h -3707.3 c -6.2,56.6 -19.8,112.4 -39.3,162.6 -35.9,94.7 -87.7,170.5 -138.6,232.3 -8.7,10.8 -17.4,21.2 -26.1,31.4 h 4118.8 c -10.7,-12.2 -21.3,-24.8 -31.8,-37.9 -50.5,-61.3 -101.7,-136.3 -137.1,-229.4 -19.1,-49.2 -32.4,-103.7 -38.6,-159 m -7429,0 h -1420.6 v 426.3 h 1229.3 c 52.4,-145.1 115.9,-288 191.3,-426.3 m -5591.11,0 h -724.75 c -91.74,0 -169.24,97.7 -169.24,213.2 0,115.5 77.5,213.1 169.24,213.1 h 724.75 v -426.3"
         style="fill:#5e5891;fill-opacity:1;fill-rule:nonzero;stroke:none"
         id="path26" />
      <path
         d="m 8213.34,12266 c -91.74,0 -169.24,-97.6 -169.24,-213.1 0,-115.5 77.5,-213.2 169.24,-213.2 H 31858.7 c 91.7,0 169.3,97.7 169.3,213.2 0,115.5 -77.6,213.1 -169.3,213.1 H 8213.34 M 31858.7,11413.4 H 8213.34 c -328.37,0 -595.51,286.9 -595.51,639.5 0,352.6 267.14,639.4 595.51,639.4 H 31858.7 c 328.4,0 595.6,-286.8 595.6,-639.4 0,-352.6 -267.2,-639.5 -595.6,-639.5"
         style="fill:#000072;fill-opacity:1;fill-rule:nonzero;stroke:none"
         id="path28" />
      <path
         d="m 11074.9,15569.9 c -98.2,0 -177.7,-159.1 -177.7,-355.3 V 12052.9 8891.2 c 0,-196.2 79.5,-355.3 177.7,-355.3 h 1643 c 98.1,0 177.6,159.1 177.6,355.3 v 3161.7 3161.7 c 0,196.2 -79.5,355.3 -177.6,355.3 h -1643"
         style="fill:#4b6f98;fill-opacity:1;fill-rule:nonzero;stroke:none"
         id="path30" />
      <path
         d="m 9306.45,14681.7 c -85.7,0 -155.2,-118.9 -155.2,-265.5 V 12052.9 9689.6 c 0,-146.7 69.5,-265.6 155.2,-265.6 H 10742 c 85.7,0 155.2,118.9 155.2,265.6 v 2363.3 2363.3 c 0,146.6 -69.5,265.5 -155.2,265.5 H 9306.45"
         style="fill:#4b6f98;fill-opacity:1;fill-rule:nonzero;stroke:none"
         id="path32" />
      <path
         d="m 27331.8,14681.7 c -85.7,0 -155.2,-118.9 -155.2,-265.5 V 12052.9 9689.6 c 0,-146.7 69.5,-265.6 155.2,-265.6 h 1435.5 c 85.8,0 155.2,118.9 155.2,265.6 v 2363.3 2363.3 c 0,146.6 -69.4,265.5 -155.2,265.5 h -1435.5"
         style="fill:#ffffff;fill-opacity:1;fill-rule:nonzero;stroke:none"
         id="path34" />
      <path
         d="m 28997.2,15569.9 c 98.1,0 177.6,-159.1 177.6,-355.3 V 12052.9 8891.2 c 0,-196.2 -79.5,-355.3 -177.6,-355.3 h -1643 c -98.1,0 -177.6,159.1 -177.6,355.3 v 3161.7 3161.7 c 0,196.2 79.5,355.3 177.6,355.3 h 1643"
         style="fill:#4b6f98;fill-opacity:1;fill-rule:nonzero;stroke:none"
         id="path36" />
      <path
         d="m 30765.6,14681.7 c 85.7,0 155.2,-118.9 155.2,-265.5 V 12052.9 9689.6 c 0,-146.7 -69.5,-265.6 -155.2,-265.6 H 29330 c -85.7,0 -155.2,118.9 -155.2,265.6 v 2363.3 2363.3 c 0,146.6 69.5,265.5 155.2,265.5 h 1435.6"
         style="fill:#4b6f98;fill-opacity:1;fill-rule:nonzero;stroke:none"
         id="path38" />
      <path
         d="m 12717.9,15356.7 h 0.5 -0.5 M 11133.8,8749.1 H 12659 c 11.3,28.9 23.4,78.1 23.4,142.1 v 6323.4 c 0,64 -12.1,113.2 -23.4,142.1 h -1525.2 c -11.4,-28.9 -23.4,-78.1 -23.4,-142.1 V 8891.2 c 0,-64 12,-113.2 23.4,-142.1 m 1584.1,-426.3 h -1643 c -226.5,0 -390.8,239 -390.8,568.4 v 6323.4 c 0,329.4 164.3,568.4 390.8,568.4 h 1643 c 226.4,0 390.7,-239 390.7,-568.4 V 8891.2 c 0,-329.4 -164.3,-568.4 -390.7,-568.4"
         style="fill:#000072;fill-opacity:1;fill-rule:nonzero;stroke:none"
         id="path40" />
      <path
         d="m 10742,14468.6 h 0.5 -0.5 M 9370.47,9637.2 H 10678 c 3.4,13.3 6.1,30.9 6.1,52.4 v 4726.6 c 0,21.5 -2.7,39.1 -6.1,52.4 H 9370.47 c -3.38,-13.3 -6.11,-30.9 -6.11,-52.4 V 9689.6 c 0,-21.5 2.73,-39.1 6.11,-52.4 M 10742,9210.9 H 9306.45 c -210,0 -368.36,205.8 -368.36,478.7 v 4726.6 c 0,272.9 158.36,478.7 368.36,478.7 H 10742 c 210,0 368.4,-205.8 368.4,-478.7 V 9689.6 c 0,-272.9 -158.4,-478.7 -368.4,-478.7"
         style="fill:#000072;fill-opacity:1;fill-rule:nonzero;stroke:none"
         id="path42" />
      <path
         d="m 28997.2,15356.7 h 0.5 -0.5 M 27413.1,8749.1 h 1525.2 c 11.4,28.9 23.4,78.1 23.4,142.1 v 6323.4 c 0,64 -12,113.2 -23.4,142.1 h -1525.2 c -11.3,-28.9 -23.4,-78.1 -23.4,-142.1 V 8891.2 c 0,-64 12.1,-113.2 23.4,-142.1 m 1584.1,-426.3 h -1643 c -226.4,0 -390.8,239 -390.8,568.4 v 6323.4 c 0,329.4 164.4,568.4 390.8,568.4 h 1643 c 226.4,0 390.8,-239 390.8,-568.4 V 8891.2 c 0,-329.4 -164.4,-568.4 -390.8,-568.4"
         style="fill:#000072;fill-opacity:1;fill-rule:nonzero;stroke:none"
         id="path44" />
      <path
         d="m 30765.6,14468.6 h 0.5 -0.5 M 29394,9637.2 h 1307.6 c 3.3,13.3 6.1,30.9 6.1,52.4 v 4726.6 c 0,21.5 -2.8,39.1 -6.1,52.4 H 29394 c -3.3,-13.3 -6,-30.9 -6,-52.4 V 9689.6 c 0,-21.5 2.7,-39.1 6,-52.4 m 1371.6,-426.3 H 29330 c -209.9,0 -368.3,205.8 -368.3,478.7 v 4726.6 c 0,272.9 158.4,478.7 368.3,478.7 h 1435.6 c 210,0 368.3,-205.8 368.3,-478.7 V 9689.6 c 0,-272.9 -158.3,-478.7 -368.3,-478.7"
         style="fill:#000072;fill-opacity:1;fill-rule:nonzero;stroke:none"
         id="path46" />
      <path
         d="M 10678,9637.2 H 9370.47 c -3.38,13.3 -6.11,30.9 -6.11,52.4 v 2043.6 h 166.14 c 348.8,0 631.6,282.7 631.6,631.5 v 2103.9 h 515.9 c 3.4,-13.3 6.1,-30.9 6.1,-52.4 V 9689.6 c 0,-21.5 -2.7,-39.1 -6.1,-52.4"
         style="fill:#344d8d;fill-opacity:1;fill-rule:nonzero;stroke:none"
         id="path48" />
      <path
         d="M 10742,9343.3 H 9306.45 c -85.7,0 -155.2,54 -155.2,120.7 v 1074.2 1074.3 c 0,66.6 69.5,120.7 155.2,120.7 h 57.91 V 9689.6 c 0,-21.5 2.73,-39.1 6.11,-52.4 H 10678 c 3.4,13.3 6.1,30.9 6.1,52.4 v 0 4726.6 0 c 0,21.5 -2.7,39.1 -6.1,52.4 h -515.9 v 213.1 h 735.1 v -3069.2 -428.8 c -3.8,-11.3 -5.8,-23.2 -5.8,-35.4 V 9911.6 9431 c -18.5,-50.6 -78.4,-87.7 -149.4,-87.7 m 0,5125.3 h 0.5 -0.5"
         style="fill:#000072;fill-opacity:1;fill-rule:nonzero;stroke:none"
         id="path50" />
      <path
         d="m 12659,8749.1 h -1525.2 c -11.4,28.9 -23.4,78.1 -23.4,142.1 v 798.4 0 1597.6 h 217.5 c 401.6,0 727.1,325.5 727.1,727.1 v 3342.4 h 604 c 11.3,-28.9 23.4,-78.1 23.4,-142.1 V 8891.2 c 0,-64 -12.1,-113.2 -23.4,-142.1"
         style="fill:#344d8d;fill-opacity:1;fill-rule:nonzero;stroke:none"
         id="path52" />
      <path
         d="M 12722.7,8535.9 H 11070 c -98.7,0 -178.6,62.2 -178.6,139 V 9249 c 131.3,71.6 219,237.5 219,440.6 v -798.4 c 0,-64 12,-113.2 23.4,-142.1 H 12659 c 11.3,28.9 23.4,78.1 23.4,142.1 v 6323.4 c 0,64 -12.1,113.2 -23.4,142.1 h -604 v 171.4 h 846.4 v -846.4 -3533.4 -1236.7 -977 -259.7 c 0,-76.8 -80,-139 -178.7,-139 m -4.8,6820.8 h 0.5 -0.5"
         style="fill:#000072;fill-opacity:1;fill-rule:nonzero;stroke:none"
         id="path54" />
      <path
         d="m 10891.4,9249 v 182 c 3.8,10.5 5.8,21.6 5.8,33 v 225.6 848.6 645.5 c 20.2,59.6 89.9,103.5 172.8,103.5 h 40.4 v -1597.6 0 c 0,-203.1 -87.7,-369 -219,-440.6"
         style="fill:#000072;fill-opacity:1;fill-rule:nonzero;stroke:none"
         id="path56" />
      <path
         d="m 10891.4,9431 v 1717.3 c 0,12.2 2,24.1 5.8,35.4 V 10538.2 9689.6 9464 c 0,-11.4 -2,-22.5 -5.8,-33"
         style="fill:#000072;fill-opacity:1;fill-rule:nonzero;stroke:none"
         id="path58" />
      <path
         d="M 30701.6,9637.2 H 29394 c -3.3,13.3 -6,30.9 -6,52.4 v 4726.6 c 0,21.5 2.7,39.1 6,52.4 h 533.4 v -2103.9 c 0,-348.8 282.8,-631.5 631.6,-631.5 h 148.7 V 9689.6 c 0,-21.5 -2.8,-39.1 -6.1,-52.4"
         style="fill:#344d8d;fill-opacity:1;fill-rule:nonzero;stroke:none"
         id="path60" />
      <path
         d="m 30783,9343.3 h -1435.5 c -71,0 -130.9,37.1 -149.4,87.7 v 480.6 1236.7 c 0,12.2 -2,24.1 -5.8,35.4 v 428.8 3069.2 h 735.1 v -213.1 H 29394 c -3.3,-13.3 -6,-30.9 -6,-52.4 V 9689.6 c 0,-21.5 2.7,-39.1 6,-52.4 h 1307.6 c 3.3,13.3 6.1,30.9 6.1,52.4 v 2043.6 h 75.3 c 85.7,0 155.2,-54.1 155.2,-120.7 V 10538.2 9464 c 0,-66.7 -69.5,-120.7 -155.2,-120.7"
         style="fill:#000072;fill-opacity:1;fill-rule:nonzero;stroke:none"
         id="path62" />
      <path
         d="m 28938.3,8749.1 h -1525.2 c -11.3,28.9 -23.4,78.1 -23.4,142.1 v 6323.4 c 0,64 12.1,113.2 23.4,142.1 h 621.4 v -3342.4 c 0,-401.6 325.5,-727.1 727,-727.1 h 200.2 v -2396 c 0,-64 -12,-113.2 -23.4,-142.1"
         style="fill:#344d8d;fill-opacity:1;fill-rule:nonzero;stroke:none"
         id="path64" />
      <path
         d="m 29019.5,8535.9 h -1652.7 c -98.7,0 -178.7,62.2 -178.7,139 v 259.7 977 1236.7 3533.4 846.4 h 846.4 v -171.4 h -621.4 c -11.3,-28.9 -23.4,-78.1 -23.4,-142.1 V 8891.2 c 0,-64 12.1,-113.2 23.4,-142.1 h 1525.2 c 11.4,28.9 23.4,78.1 23.4,142.1 v 2396 -1597.6 c 0,-211.9 95.5,-383.3 236.4,-449.4 v -565.3 c 0,-76.8 -80,-139 -178.6,-139"
         style="fill:#000072;fill-opacity:1;fill-rule:nonzero;stroke:none"
         id="path66" />
      <path
         d="m 29198.1,9240.2 c -140.9,66.1 -236.4,237.5 -236.4,449.4 v 1597.6 h 57.8 c 82.9,0 152.6,-43.9 172.8,-103.5 V 10538.2 9689.6 9464 c 0,-11.4 2,-22.5 5.8,-33 v -190.8"
         style="fill:#000072;fill-opacity:1;fill-rule:nonzero;stroke:none"
         id="path68" />
      <path
         d="m 29198.1,9431 c -3.8,10.5 -5.8,21.6 -5.8,33 v 225.6 848.6 645.5 c 3.8,-11.3 5.8,-23.2 5.8,-35.4 V 9911.6 9431"
         style="fill:#000072;fill-opacity:1;fill-rule:nonzero;stroke:none"
         id="path70" />
      <path
         d="m 15934.4,17736.9 c -140,-367.8 -528.6,-1484.2 -682.9,-2908.1 -172.8,-1594.7 -78.4,-3915.9 1352.4,-5918.6 103.3,-144.6 249.9,-246.9 412.7,-288.1 689,-174.2 1215.4,-165 1373.7,24.1 296.3,353.5 224.2,1314.8 171.4,1655.4 -10.9,69.7 13.6,140.3 65.1,188.5 51.6,48.1 123.6,67.7 192.4,52.2 12.6,-2.9 1288.8,-282.9 2549.4,0 68.8,15.5 140.8,-4.1 192.3,-52.3 51.5,-48.2 75.8,-118.8 64.9,-188.5 -52.7,-340.5 -124.9,-1301.8 171.4,-1655.3 158.4,-189 684.7,-198.3 1373.7,-24.1 162.8,41.2 309.4,143.5 412.8,288.1 1433.5,2006.5 1525.9,4332.8 1351,5931.1 -155.5,1421 -541.9,2529.5 -681.5,2895.6 h -8318.8 m 1927.8,-9665 c -313.6,0 -653.6,61.9 -950.1,136.9 -260.6,65.9 -493.2,227 -655.1,453.6 -1511.7,2115.9 -1610.9,4553.2 -1427.9,6225.3 197.3,1802.9 741.4,3092.1 764.5,3146.1 33.5,78.5 110.6,129.4 196,129.4 H 24398 c 85.3,0 162.5,-50.9 196,-129.4 23,-54 567.1,-1343.2 764.5,-3146.1 182.9,-1672.1 83.7,-4109.4 -1428,-6225.3 -161.9,-226.6 -394.5,-387.7 -655.1,-453.6 -627.8,-158.7 -1450.6,-259.2 -1805,163.5 -353.4,421.8 -339.6,1247.1 -300.6,1697.2 -889.7,-147.5 -1726.2,-61.9 -2152.4,3.8 39.2,-449.3 54.1,-1278 -300.3,-1701 -187,-223.1 -504.5,-300.4 -854.9,-300.4"
         style="fill:#000072;fill-opacity:1;fill-rule:nonzero;stroke:none"
         id="path72" />
      <path
         d="m 15434.5,16982 c 0,0 -1599.1,-1358.9 -982,-4156.4 617.1,-2797.6 3342.7,-1891.8 3548.4,-1172.4 205.7,719.4 -1354.2,772.7 -1397.1,3010.8 l -1169.3,2318"
         style="fill:#ae7a69;fill-opacity:1;fill-rule:nonzero;stroke:none"
         id="path74" />
      <path
         d="m 16027.3,11234.5 c -169.5,45.8 -329.7,117.9 -472.2,217.2 -188.1,125.5 -346.4,296.6 -473.4,494 -126.8,197.7 -225.9,419.8 -294.9,656 -21.1,57.2 -32.1,119.1 -48.5,178.5 l -22.8,90 c -7.5,30.2 -12.6,62.1 -19.2,93 -12.4,62.3 -26.4,124.4 -37.5,186.9 l -30.5,187.7 c -35.7,250.8 -56,503.1 -56.4,754.7 0.1,251.5 18.2,502.4 57.9,749.4 39.9,247 102.1,489.8 185.9,724.7 42.1,117.3 88,233.4 141.7,345.9 36.7,79.4 76.5,157.3 119.3,233.6 -238,-833.9 -350,-2058.1 -68,-3336.4 177.3,-803.8 571.8,-1295.3 1018.6,-1575.2"
         style="fill:#e3d1cb;fill-opacity:1;fill-rule:nonzero;stroke:none"
         id="path76" />
      <path
         d="m 15572.5,16819.5 -26.6,-26.2 -30.4,-31.6 c -20.4,-21.6 -40.5,-44.3 -60.5,-67.1 -39.5,-46.5 -78.7,-93.8 -115.5,-143.5 -74.6,-98.4 -142.7,-202.6 -206.9,-309 -64.4,-106.4 -122.9,-216.5 -175.2,-329.6 -53.7,-112.5 -99.6,-228.6 -141.7,-345.9 -83.8,-234.9 -146,-477.7 -185.9,-724.7 -39.7,-247 -57.8,-497.9 -57.9,-749.4 0.4,-251.6 20.7,-503.9 56.4,-754.7 l 30.5,-187.7 c 11.1,-62.5 25.1,-124.6 37.5,-186.9 6.6,-30.9 11.7,-62.8 19.2,-93 l 22.8,-90 c 16.4,-59.4 27.4,-121.3 48.5,-178.5 69,-236.2 168.1,-458.3 294.9,-656 127,-197.4 285.3,-368.5 473.4,-494 371.1,-258.8 862.4,-332.5 1326.6,-238 231,46.4 458,133.1 646,253.8 92.4,59.5 175.3,133.5 216.9,198.9 4.8,8 9.9,15.7 15.3,23.3 2.8,7 4.6,13.1 7.8,19.4 l 4.9,9.2 2.7,12.7 c 1.4,8.2 5.3,17.2 5.9,24.8 5,30.9 1.9,53.4 -7.6,84 -9.6,29.9 -30.4,67.4 -62.9,108.4 -30.6,40.6 -70.3,83.8 -113.7,127.9 l -282.8,278.6 c -195.2,196.2 -380.6,422.9 -517.7,676 l -49.5,95.9 c -15.1,32.6 -28.7,65.8 -43,98.7 -29.2,65.4 -51,133.8 -73,201.4 -41,136.3 -70,275.1 -84.9,414.3 -30.5,278.2 -13.8,556.4 57.7,823 157.7,-526.2 301,-1010.9 558.2,-1424 126.4,-207.7 281.2,-394.2 465.3,-568.2 91.5,-88.2 189.4,-173.8 291.3,-271.8 50.8,-49.1 103.1,-101.8 154.4,-165.4 50.9,-61.8 102.7,-137.6 138.6,-232.3 36.3,-93.3 52,-205.8 38.4,-306.6 -2.5,-25.4 -8.5,-48.4 -13.2,-72.7 l -8,-35.8 -13.2,-37.1 c -9.1,-24.5 -18.5,-49.7 -29,-73 l -35.5,-62.2 c -99.4,-160.1 -222.9,-262.7 -348.7,-351.7 -253.5,-174.4 -531.3,-279 -818.1,-342.6 -143.7,-30.8 -290.2,-48.4 -437.9,-55.2 -147.9,-2.6 -297.1,0.5 -445.1,26.2 -296.5,42.4 -587.1,155.9 -840.8,323.4 -255.1,167.2 -463,395.3 -623.1,642.6 -160.1,248.2 -277.9,516.2 -358.6,788.5 -24.4,67.6 -37.5,136.6 -56.3,204.9 l -26.1,102.8 c -8.3,34.2 -14.2,67.7 -21.1,101.7 -12.8,67.8 -27.2,135.3 -38.6,203.5 l -31.2,205.1 c -36.5,274.5 -56.1,552.2 -53.7,830.8 2.6,557.3 104.7,1118.1 305.3,1642.8 51.8,130.6 108.1,259.5 172.8,384.4 63.3,125.4 133.5,247.5 210.4,365.5 76.4,118.3 160.5,231.7 251,340.8 44.8,54.7 92.7,107.5 141.7,159.8 24.9,25.8 50.2,51.6 76.4,77 l 40.5,38.2 c 14.7,13.3 26.4,24 46.6,41 89.9,75.7 224.2,64.2 300,-25.8 71.9,-85.4 65.1,-211 -13,-288.2 l -11,-10.9"
         style="fill:#000072;fill-opacity:1;fill-rule:nonzero;stroke:none"
         id="path78" />
      <path
         d="m 24764.1,16982 c 0,0 1599.1,-1358.9 982,-4156.4 -617.1,-2797.6 -3342.7,-1891.8 -3548.4,-1172.4 -205.7,719.4 1354.2,772.7 1397.1,3010.8 l 1169.3,2318"
         style="fill:#ae7a69;fill-opacity:1;fill-rule:nonzero;stroke:none"
         id="path80" />
      <path
         d="m 24144.3,11217.9 c 457.9,276.8 864.7,771.8 1045.6,1591.8 282.9,1282.4 169.3,2510.4 -70.3,3344.5 44.5,-78.5 85.8,-158.8 123.9,-240.6 53.9,-112.5 100.1,-228.6 142.5,-345.9 84.2,-235 146.8,-477.9 187.2,-725.1 40.1,-247.2 58.8,-498.3 59.1,-750.1 -0.1,-251.9 -20,-504.5 -55.5,-755.6 l -30.3,-188 c -11,-62.5 -25,-124.7 -37.3,-187.1 -6.4,-31 -11.6,-62.9 -19,-93.2 l -22.8,-90.1 c -16.4,-59.6 -27.4,-121.6 -48.4,-179 -68.9,-236.7 -168.1,-459.6 -295.3,-658.2 -127.2,-198.4 -286.2,-370.4 -475.2,-497 -151.5,-105.8 -322.9,-180.9 -504.2,-226.4"
         style="fill:#e3d1cb;fill-opacity:1;fill-rule:nonzero;stroke:none"
         id="path82" />
      <path
         d="m 24902.2,17144.4 c 20.1,-17 31.7,-27.7 46.5,-41.1 l 40.3,-38.2 c 26.3,-25.5 51.4,-51.3 76.3,-77.2 48.8,-52.4 96.6,-105.3 141.3,-160.1 90.3,-109.2 174.1,-222.7 250.3,-341.1 76.6,-118.1 146.6,-240.2 209.7,-365.7 64.4,-124.9 120.4,-253.8 171.9,-384.4 199.6,-524.7 300.8,-1085 302.7,-1641.7 2,-278.4 -17.8,-555.7 -54.5,-829.9 l -31.5,-204.9 c -11.4,-68 -25.9,-135.4 -38.8,-203.2 -7.1,-33.8 -12.8,-67.4 -21.2,-101.5 l -26.2,-102.6 c -18.8,-68.2 -31.9,-137.1 -56.3,-204.5 -80.8,-271.7 -198.5,-539 -358.3,-786.2 -159.9,-246.4 -367.1,-473.6 -621.3,-639.7 -252.7,-166.6 -542,-279.5 -837.3,-321.5 -147.3,-25.6 -296,-28.5 -443.2,-26 -147.2,7 -293.1,24.6 -436.3,55.3 -285.7,63.3 -562.2,168.2 -814.3,341.5 -125,88.5 -247.6,190.6 -345.7,348.7 l -34.9,61.4 c -10.4,22.9 -19.6,47.7 -28.6,71.8 l -13,36.5 -7.9,35.3 c -4.6,23.9 -10.5,46.6 -12.9,71.6 -13.4,99.2 2.1,209.8 37.8,301.7 35.4,93.1 86.6,168.1 137.1,229.4 50.9,63.1 102.9,115.4 153.6,164.4 l 291.3,271.7 c 91.8,87.9 177.4,177.4 255.3,272.2 78,94.7 147.6,194.6 212.3,298 64.6,103.5 120.6,212.5 174.5,324.2 24.4,56.9 52.9,112.6 74.3,171.7 11.6,29.1 25,57.8 35.7,87.6 10.5,29.8 21.1,59.6 32.6,89.4 87.8,239.8 155.6,493.1 231.3,756.7 65.3,-266.5 79.8,-543.7 47.5,-820.7 -15,-138.7 -45,-276.6 -85.5,-412.5 -43.3,-134.9 -95.7,-268.6 -164.4,-394.5 -135.7,-252.6 -320.9,-478.1 -515.4,-674 l -282.8,-278.7 c -43.5,-44.3 -83.5,-87.7 -114.6,-128.9 -32.8,-41.5 -54.2,-79.8 -64.3,-111.3 -10.1,-32 -13.4,-56.5 -8.2,-89 0.7,-7.9 4.5,-17.2 6.1,-25.8 l 2.8,-13.2 5.1,-9.8 c 3.4,-6.6 5.3,-13.2 8.3,-20.5 5.6,-7.9 10.8,-15.9 15.8,-24.1 42.9,-67.5 126.7,-142 220,-202 189.3,-121.8 417.6,-208.2 649.8,-254.9 466.2,-94.7 960.3,-20.4 1333.5,240.2 189,126.6 348,298.6 475.2,497 127.2,198.6 226.4,421.5 295.3,658.2 21,57.4 32,119.4 48.4,179 l 22.8,90.1 c 7.4,30.3 12.6,62.2 19,93.2 12.3,62.4 26.3,124.6 37.3,187.1 l 30.3,188 c 35.5,251.1 55.4,503.7 55.5,755.6 -0.3,251.8 -19,502.9 -59.1,750.1 -40.4,247.2 -103,490.1 -187.2,725.1 -42.4,117.3 -88.6,233.4 -142.5,345.9 -52.6,113 -111.4,223.1 -176,329.4 -64.5,106.4 -132.9,210.4 -207.7,308.7 -37,49.6 -76.2,96.8 -115.8,143.2 -20.1,22.8 -40.2,45.4 -60.7,67 l -30.5,31.5 -26.7,26.1 -10.2,10.1 c -84,82.2 -85.5,217 -3.2,301 78.3,80.1 205,84.7 289.5,13.8"
         style="fill:#000072;fill-opacity:1;fill-rule:nonzero;stroke:none"
         id="path84" />
      <path
         d="m 31711.1,28771.8 647.5,270.6 c 111.9,46.8 135.7,195.2 43.3,273.8 -563.8,479.9 -2372.1,1761.2 -5386.2,1529.4 -3694.6,-284.2 -4582.8,-4689.3 -4582.8,-4689.3 l 4616.8,-6803 c 0,0 4690.8,-302 5863.1,4387.3 l 343.8,-129.6 c 101.5,-38.3 211.1,31.1 219.8,139.1 63.7,785.5 136.4,3528.6 -1790.8,4734.7 -111.1,69.5 -95.4,236.5 25.5,287"
         style="fill:#ae7a69;fill-opacity:1;fill-rule:nonzero;stroke:none"
         id="path86" />
      <path
         d="m 23544.1,27433.6 c -123.4,66.2 -248.4,129 -374.8,188.2 101.8,217.3 220.6,444.9 358.5,673.1 869.5,1439.5 2048.5,2226.2 3504.2,2338.2 244.1,18.7 479.6,27.5 707.2,27.5 2379.8,0 3857.5,-958.9 4460.8,-1453.4 l -303,-126.7 c -608.8,459 -1958.6,1250 -4030.6,1250 -208.6,0 -424.3,-8 -647.5,-25.2 -2034.1,-156.5 -3128.9,-1691.6 -3674.8,-2871.7"
         style="fill:#e3d1cb;fill-opacity:1;fill-rule:nonzero;stroke:none"
         id="path88" />
      <path
         d="m 31711.1,28771.8 h 0.5 -0.5 m 82.2,-196.7 v 0 0 m -4628.4,-9012 c 307.9,-3.8 1270.3,22.4 2314.6,429.9 1674,653.2 2759.6,1931.5 3226.5,3799.3 14.8,59 54,108.9 107.9,137.1 53.9,28.3 117.2,32.1 174.1,10.6 l 281.1,-105.9 c 60,850.1 73,3362.5 -1696.5,4470 -118.7,74.3 -185.3,207.3 -173.8,347.3 11.6,141.1 99.7,262.6 230.1,317.1 l 571.1,238.7 c -661,541.8 -2371.2,1640.9 -5168,1425.9 -1455.7,-112 -2634.7,-898.7 -3504.2,-2338.2 -552.8,-915.1 -799.5,-1819.6 -866.4,-2095.7 l 4503.5,-6636.1 m 63.2,-427.3 c -113.4,0 -181,4 -192.1,4.7 -65.7,4.3 -125.7,38.6 -162.7,93.1 l -4616.7,6803 c -32.2,47.4 -43.9,105.7 -32.6,161.8 9.4,46.5 237.3,1150.7 932.2,2305.8 931.8,1549.1 2260.8,2432.2 3843.1,2553.9 3050.8,234.7 4890.9,-1026.5 5540.7,-1579.6 100.1,-85.1 147.8,-213.6 127.5,-343.5 -20.3,-130.3 -105,-238.4 -226.7,-289.3 l -559.2,-233.7 c 1937.7,-1290.3 1874.3,-4053.6 1807.3,-4879.1 -9.6,-118.8 -72.9,-223.5 -173.5,-287.2 -100.7,-63.9 -222.5,-76.2 -334,-34.2 l -123.4,46.6 c -667,-2348.4 -2227.8,-3399.4 -3439.4,-3868.4 -1046.9,-405.3 -1995.8,-453.9 -2390.5,-453.9"
         style="fill:#000072;fill-opacity:1;fill-rule:nonzero;stroke:none"
         id="path90" />
      <path
         d="m 23498.7,24158 c 0,-2182.7 1769.4,-3952.1 3952.2,-3952.1 2182.7,0 3952.1,1769.4 3952.1,3952.1 0,2182.7 -1769.4,3952.2 -3952.1,3952.2 -2182.8,0 -3952.2,-1769.5 -3952.2,-3952.2"
         style="fill:#e7d0bc;fill-opacity:1;fill-rule:nonzero;stroke:none"
         id="path92" />
      <path
         d="m 8288.89,28771.8 -647.5,270.6 c -111.91,46.8 -135.7,195.2 -43.32,273.8 563.83,479.9 2372.11,1761.2 5386.23,1529.4 3694.6,-284.2 4582.7,-4689.3 4582.7,-4689.3 l -4616.7,-6803 c 0,0 -4690.8,-302 -5863.12,4387.3 L 6743.34,23611 c -101.41,-38.3 -211.02,31.1 -219.77,139.1 -63.72,785.5 -136.39,3528.6 1790.79,4734.7 111.1,69.5 95.47,236.5 -25.47,287"
         style="fill:#ae7a69;fill-opacity:1;fill-rule:nonzero;stroke:none"
         id="path94" />
      <path
         d="m 16582.8,27404.8 c -541.4,1183.7 -1637.5,2742.8 -3688.1,2900.5 -223.1,17.2 -438.9,25.2 -647.4,25.2 -2118.9,0 -3482.61,-827.3 -4070.87,-1280.7 l -376.47,157.4 c 603.25,494.5 2080.93,1453.5 4460.04,1453.5 227.7,0 463.8,-8.8 708,-27.6 1455.7,-112 2634.7,-898.7 3504.2,-2338.2 152.8,-253 282.2,-505.1 391,-743.4 -94.5,-46.9 -187.8,-95.8 -280.4,-146.7"
         style="fill:#e3d1cb;fill-opacity:1;fill-rule:nonzero;stroke:none"
         id="path96" />
      <path
         d="m 8206.7,28575.1 h 0.49 -0.49 M 7087.17,23953.8 c 34.08,0 68.06,-8.2 98.93,-24.4 53.85,-28.2 93.11,-78.1 107.85,-137.1 468.42,-1873.6 1558.94,-3153.8 3241.35,-3805.1 1042.2,-403.4 1995,-428.2 2299.7,-424.3 l 4503.6,6636.3 c -66.8,276 -313.5,1180.5 -866.4,2095.7 -869.5,1439.5 -2048.5,2226.2 -3504.2,2338.2 -2796.2,215.4 -4507.05,-884.1 -5168.04,-1425.9 l 571.09,-238.7 c 130.38,-54.5 218.56,-176 230.14,-317.1 11.46,-139.9 -55.09,-273 -173.69,-347.3 C 6657.92,27196.6 6670.96,24684 6730.97,23834.1 l 281,105.9 c 24.27,9.2 49.76,13.8 75.2,13.8 m 5684.73,-4818 c -394.6,0 -1343.6,48.6 -2390.5,453.9 -1211.66,469 -2772.45,1520 -3439.45,3868.4 l -123.38,-46.6 c -111.57,-42.1 -233.26,-29.6 -333.94,34.1 -100.59,63.8 -163.87,168.4 -173.54,287.2 -66.94,825.6 -130.27,3589 1807.38,4879.2 l -559.23,233.8 c -121.68,50.8 -206.5,158.9 -226.81,289.2 -20.26,130 27.39,258.4 127.49,343.5 649.9,553.1 2490.63,1814.2 5540.78,1579.6 1582.3,-121.7 2911.3,-1004.8 3843.1,-2553.9 694.9,-1155.1 922.8,-2259.3 932.2,-2305.8 11.3,-56.1 -0.4,-114.4 -32.6,-161.8 l -4616.7,-6803 c -37,-54.5 -97,-88.8 -162.7,-93.1 -11.1,-0.7 -78.7,-4.7 -192.1,-4.7"
         style="fill:#000072;fill-opacity:1;fill-rule:nonzero;stroke:none"
         id="path98" />
      <path
         d="m 16501.3,24158 c 0,-2182.7 -1769.4,-3952.1 -3952.2,-3952.1 -2182.7,0 -3952.11,1769.4 -3952.11,3952.1 0,2182.7 1769.41,3952.2 3952.11,3952.2 2182.8,0 3952.2,-1769.5 3952.2,-3952.2"
         style="fill:#e7d0bc;fill-opacity:1;fill-rule:nonzero;stroke:none"
         id="path100" />
      <path
         d="m 12780.8,22441.1 c -802,653.7 -1314.2,1649.5 -1314.2,2764.9 0,1073.1 474.4,2034.8 1224.6,2688.4 1075.6,-40.4 2036.4,-537.2 2693.8,-1302.1 -212.1,-174.8 -415.9,-361.5 -610,-559.6 -988.3,-1008.5 -1667.6,-2243 -1994.2,-3591.6"
         style="fill:#a191a6;fill-opacity:1;fill-rule:nonzero;stroke:none"
         id="path102" />
      <path
         d="m 27378.6,22579.1 c -368.3,1399.8 -1115.8,2664.7 -2187.9,3671.1 -160.5,150.6 -326.8,293.9 -498.2,429.5 654.3,715 1582.3,1175.8 2616.3,1214.7 750.2,-653.6 1224.6,-1615.3 1224.6,-2688.4 0,-1039.6 -444.9,-1975.2 -1154.8,-2626.9"
         style="fill:#a191a6;fill-opacity:1;fill-rule:nonzero;stroke:none"
         id="path104" />
      <path
         d="m 27450.8,27897 c -2061.6,0 -3739,-1677.3 -3739,-3739 0,-2061.7 1677.4,-3739 3739,-3739 2061.7,0 3739.1,1677.3 3739.1,3739 0,2061.7 -1677.4,3739 -3739.1,3739 m 0,-7904.3 c -2296.7,0 -4165.2,1868.6 -4165.2,4165.3 0,2296.8 1868.5,4165.3 4165.2,4165.3 2296.8,0 4165.3,-1868.5 4165.3,-4165.3 0,-2296.7 -1868.5,-4165.3 -4165.3,-4165.3"
         style="fill:#000072;fill-opacity:1;fill-rule:nonzero;stroke:none"
         id="path106" />
      <path
         d="m 12549.1,27897 c -2061.6,0 -3738.98,-1677.3 -3738.98,-3739 0,-2061.7 1677.38,-3739 3738.98,-3739 2061.7,0 3739,1677.3 3739,3739 0,2061.7 -1677.3,3739 -3739,3739 m 0,-7904.3 c -2296.7,0 -4165.25,1868.6 -4165.25,4165.3 0,2296.8 1868.55,4165.3 4165.25,4165.3 2296.8,0 4165.3,-1868.5 4165.3,-4165.3 0,-2296.7 -1868.5,-4165.3 -4165.3,-4165.3"
         style="fill:#000072;fill-opacity:1;fill-rule:nonzero;stroke:none"
         id="path108" />
      <path
         d="m 12721.2,18370.7 c 0,0 -781.6,26.7 -1678.6,-692.7 -897,-719.4 -1332.17,603.9 -444,1003.6 888.1,399.6 2122.6,-310.9 2122.6,-310.9"
         style="fill:#57dfff;fill-opacity:1;fill-rule:nonzero;stroke:none"
         id="path110" />
      <path
         d="m 11216.4,18653.7 c -192.1,0 -382.5,-30.7 -556.3,-108.9 -245.3,-110.4 -394.1,-317.7 -398,-554.4 -2.6,-158.1 65.3,-294.4 172.9,-347.1 129.9,-63.6 312.4,-9.8 513.8,151.7 478.1,383.5 925.5,564.7 1251.9,650.2 -270,103.9 -629.8,208.5 -984.3,208.5 z M 10553,17317.6 c -107.7,0 -192.2,28 -250,56.3 -214.8,105.3 -345.37,343.4 -340.83,621.5 4.49,274.8 157.83,635.3 574.83,823 947.1,426.2 2205.9,-287.1 2259,-317.7 59.7,-34.3 88.3,-104.9 69.4,-171.2 -18.9,-66 -80.5,-110.8 -148.8,-108.7 -10.6,0 -744.7,10.2 -1580.1,-659.8 -234.4,-188 -432,-243.4 -583.5,-243.4"
         style="fill:#000072;fill-opacity:1;fill-rule:nonzero;stroke:none"
         id="path112" />
      <path
         d="m 12845.5,17815.4 c 0,0 -394.7,-392.5 -458.6,-1208.3 -64,-815.8 -962.5,-396.7 -737,258.7 225.5,655.4 1195.6,949.6 1195.6,949.6"
         style="fill:#57dfff;fill-opacity:1;fill-rule:nonzero;stroke:none"
         id="path114" />
      <path
         d="m 12456,17483.6 c -259.8,-141 -559.5,-362.2 -664.2,-666.6 -56.7,-164.8 -25.8,-326.1 82.8,-431.5 68.7,-66.7 154.4,-94.2 218.9,-70 78.6,29.7 131.1,140.2 143.8,303.3 28.8,366.8 121,654.3 218.7,864.8 z m -412.8,-1477 c -132.2,0 -267.7,57 -377.6,163.7 -191.2,185.7 -251.6,470.9 -157.5,744.3 247.6,719.7 1251.3,1031.4 1293.9,1044.3 65.9,20.1 137,-7.5 172.3,-66.6 35.2,-59 25.9,-134.2 -22.5,-182.8 -6,-6.1 -357.3,-373.2 -415.4,-1114.1 -30.4,-388.6 -224.2,-518 -336.9,-560.6 -50.3,-19 -103.1,-28.2 -156.3,-28.2"
         style="fill:#000072;fill-opacity:1;fill-rule:nonzero;stroke:none"
         id="path116" />
      <path
         d="m 27680.1,18420.7 c 0,0 781.6,26.7 1678.6,-692.7 897,-719.4 1332.2,603.9 444.1,1003.6 -888.2,399.6 -2122.7,-310.9 -2122.7,-310.9"
         style="fill:#57dfff;fill-opacity:1;fill-rule:nonzero;stroke:none"
         id="path118" />
      <path
         d="m 28200.5,18495.2 c 326.5,-85.5 773.9,-266.7 1252,-650.2 201.5,-161.5 384,-215.3 513.8,-151.7 107.6,52.7 175.5,189 172.9,347.1 -3.9,236.7 -152.7,444 -398,554.4 -494.3,222.5 -1124.3,60.6 -1540.7,-99.6 z m 1647.8,-1127.6 c -151.5,0 -349,55.4 -583.4,243.4 -837.4,671.5 -1573,659.6 -1580.2,659.8 -68.4,-3.4 -130.1,43.2 -148.7,109.3 -18.6,66.1 9.8,136.4 69.3,170.6 53.1,30.6 1311.8,743.9 2259,317.7 417,-187.7 570.4,-548.2 574.9,-823.1 4.5,-278 -126.1,-516.1 -340.9,-621.4 -57.8,-28.3 -142.2,-56.3 -250,-56.3"
         style="fill:#000072;fill-opacity:1;fill-rule:nonzero;stroke:none"
         id="path120" />
      <path
         d="m 27555.8,17865.4 c 0,0 394.7,-392.5 458.7,-1208.3 63.9,-815.8 962.4,-396.7 736.9,258.7 -225.5,655.4 -1195.6,949.6 -1195.6,949.6"
         style="fill:#57dfff;fill-opacity:1;fill-rule:nonzero;stroke:none"
         id="path122" />
      <path
         d="m 27945.4,17533.6 c 97.7,-210.5 189.9,-498 218.6,-864.8 12.8,-163.1 65.2,-273.6 143.8,-303.3 64.6,-24.3 150.3,3.3 219,70 108.5,105.4 139.5,266.7 82.8,431.5 -104.8,304.4 -404.4,525.6 -664.2,666.6 z m 412.8,-1477 c -53.3,0 -106,9.2 -156.3,28.2 -112.8,42.6 -306.5,172 -337,560.6 -58.9,751.7 -411.3,1110 -414.8,1113.6 -48.9,48.5 -58.4,124.1 -23,183.3 35.3,59.1 106.2,86.7 172.2,66.6 42.7,-12.9 1046.4,-324.6 1294,-1044.3 94.1,-273.4 33.7,-558.6 -157.6,-744.3 -109.9,-106.7 -245.4,-163.7 -377.5,-163.7"
         style="fill:#000072;fill-opacity:1;fill-rule:nonzero;stroke:none"
         id="path124" />
      <path
         d="m 16658.8,15845.2 c -365.5,188 -701.1,417.8 -996.4,693.8 346.1,-124.6 704.5,-225.5 1066.9,-306.8 -28.4,-126.8 -51.9,-255.8 -70.5,-387 m 6909.5,34.6 c -22.9,154 -52.7,305.4 -89.1,453.2 376.7,94.6 749.8,209.9 1109.2,350 2.9,-10.8 5.7,-21.5 8.6,-32.4 l -61.7,-122.3 c -289.3,-254.6 -614.5,-469.5 -967,-648.5"
         style="fill:#79556c;fill-opacity:1;fill-rule:nonzero;stroke:none"
         id="path126" />
      <path
         d="m 20012.1,15140.6 c -1203.5,0 -2384.1,205.9 -3353.3,704.6 18.6,131.2 42.1,260.2 70.5,387 1066.3,-239.3 2166.1,-308.5 3081.8,-308.5 132.4,0 261,1.5 385,4.1 936.5,19.5 2127,114.9 3283.1,405.2 36.4,-147.8 66.2,-299.2 89.1,-453.2 -968,-491.7 -2140.7,-712 -3332.5,-736.9 -74.8,-1.6 -149,-2.3 -223.7,-2.3"
         style="fill:#a191a6;fill-opacity:1;fill-rule:nonzero;stroke:none"
         id="path128" />
      <path
         d="m 24597,16650.6 c -2.9,10.9 -5.7,21.6 -8.6,32.4 10.4,4.1 20.7,8.1 31.1,12.2 l -22.5,-44.6"
         style="fill:#000072;fill-opacity:1;fill-rule:nonzero;stroke:none"
         id="path130" />
      <path
         d="m 24535.3,16528.3 61.7,122.3 22.5,44.6 c 30.6,12.1 61,24.3 91.4,36.8 6.3,-7 12.6,-14 18.8,-21 -62.8,-63 -127.7,-123.9 -194.4,-182.7"
         style="fill:#79556c;fill-opacity:1;fill-rule:nonzero;stroke:none"
         id="path132" />
      <path
         d="m 24729.7,16711 c -6.2,7 -12.5,14 -18.8,21 22.2,9 44.3,18.2 66.3,27.5 -15.7,-16.4 -31.5,-32.5 -47.5,-48.5"
         style="fill:#000072;fill-opacity:1;fill-rule:nonzero;stroke:none"
         id="path134" />
      <path
         d="m 19941.8,28110.2 c -3721.5,-77.7 -7261.1,-3287.4 -7168.6,-7718.2 69,-3305.2 3697,-4328.8 7418.4,-4251.1 3721.5,77.7 7303.7,1251.8 7234.6,4557.1 -92.4,4430.7 -3763,7489.9 -7484.4,7412.2"
         style="fill:#ae7a69;fill-opacity:1;fill-rule:nonzero;stroke:none"
         id="path136" />
      <path
         d="m 19800.9,16349.9 c -1858.4,0 -3441.3,288.8 -4596.3,840.3 -1272.1,607.4 -2002.8,1518.6 -2177.9,2712.8 854.8,-2171.6 3745.3,-2935.2 6778.9,-2935.1 128.5,0 257.2,1.3 386,4 3105.4,64.8 6113.5,893.3 6984.3,3086.2 -163,-1133.6 -848.7,-2026.7 -2045.3,-2660.7 -1208.6,-640.3 -2917.9,-1001.1 -4943.4,-1043.4 -130,-2.7 -258.8,-4.1 -386.3,-4.1"
         style="fill:#79556c;fill-opacity:1;fill-rule:nonzero;stroke:none"
         id="path138" />
      <path
         d="m 20036,20739.2 c -1152.5,0 -2086.8,-1246.4 -2086.8,-2175.2 0,-928.7 655.5,-1596.1 2086.8,-1596.1 1431.3,0 2086.9,667.4 2086.9,1596.1 0,928.8 -934.3,2175.2 -2086.9,2175.2"
         style="fill:#e7d0bc;fill-opacity:1;fill-rule:nonzero;stroke:none"
         id="path140" />
      <g
         id="g142">
        <g
           id="g144"
           clip-path="url(#clipPath148)">
          <path
             d="m 20492.1,25917.6 c 4109.9,-101.2 7465.2,-2004.8 7977.2,-4387.4 61.1,228.9 96.1,463.5 102,702.9 66.6,2702.6 -3535.1,4983.5 -8044.5,5094.5 -4509.4,111 -8218.9,-1990 -8285.4,-4692.6 -5.9,-239.4 17.5,-475.5 67.3,-707.1 628.6,2354.5 4073.5,4090.8 8183.4,3989.7"
             style="fill:#ff0031;fill-opacity:1;fill-rule:nonzero;stroke:none"
             id="path150" />
          <path
             d="m 20156.6,26071.7 c 112.8,0 225.8,-1.4 339.2,-4.2 1999,-49.2 3919.2,-531.1 5406.9,-1356.9 1233.1,-684.5 2105.4,-1567.8 2516.6,-2533 0.9,19.7 1.6,39.5 2.1,59.2 30.8,1252.3 -763.5,2455.8 -2236.6,3388.7 -1496.8,947.9 -3507.5,1499.1 -5661.7,1552.1 -4419.2,107.9 -8067.4,-1930.6 -8131.8,-4546.2 -0.5,-19.8 -0.7,-39.6 -0.8,-59.3 458.2,943.9 1372.9,1783.1 2638.2,2406.1 1439.9,709 3249.4,1093.5 5127.9,1093.5 z m 8296.9,-5181.9 -130.8,608.9 c -502.1,2336.1 -3870.1,4171.4 -7834.3,4268.9 -110.3,2.7 -220.9,4.1 -330.4,4.1 -3824.5,0 -7105.2,-1638.1 -7704.4,-3882.5 l -160.7,-601.9 -130.8,609.1 c -53,246.3 -76.7,496 -70.7,742.3 33.6,1361.9 940.1,2614.9 2552.7,3528.2 1588.2,899.5 3679.3,1365.2 5886.4,1310.6 2207.7,-54.3 4272.8,-622 5814.8,-1598.5 1565.7,-991.6 2409.5,-2287.7 2376,-3649.6 -6.1,-246.4 -42.1,-494.6 -107.1,-737.9 l -160.7,-601.7"
             style="fill:#000072;fill-opacity:1;fill-rule:nonzero;stroke:none"
             id="path152" />
        </g>
      </g>
      <path
         d="m 19941.8,28110.2 4.4,-213.1 c -3421,-71.5 -7054.7,-2959.4 -6960,-7500.6 30.1,-1439 776.5,-2517.8 2218.4,-3206.3 1234.2,-589.3 2957.1,-878.7 4982.6,-836.2 2025.5,42.3 3734.8,403.1 4943.4,1043.4 1411.9,748.1 2112.6,1857.1 2082.5,3296.1 -42.2,2021.6 -864,3884.6 -2314.1,5245.8 -1365.1,1281.4 -3169.9,1994.9 -4952.8,1957.8 l -4.4,213.1 m -130.7,-12186.5 c -1424.4,0 -3294.4,167.5 -4790.2,881.8 -1599.2,763.6 -2427.2,1968.8 -2460.8,3582.1 -44.7,2137.2 742,4142 2214.9,5645.1 1387.7,1416.2 3269.3,2251.1 5162.3,2290.6 1893.6,39.1 3807.9,-716.1 5253.4,-2073.1 1534.5,-1440.4 2404,-3410.6 2448.6,-5547.8 33.8,-1613.3 -743.2,-2851.9 -2309.1,-3681.7 -1600.8,-848.1 -3675.6,-1062.5 -5134.1,-1092.9 -124,-2.6 -252.6,-4.1 -385,-4.1"
         style="fill:#000072;fill-opacity:1;fill-rule:nonzero;stroke:none"
         id="path154" />
      <path
         d="m 20073.8,23190 c -1013.7,0 -1835.5,-1360.6 -1835.5,-2374.3 0,-1013.7 576.6,-1742.2 1835.5,-1742.2 1258.9,0 1835.5,728.5 1835.5,1742.2 0,1013.7 -821.8,2374.3 -1835.5,2374.3"
         style="fill:#000072;fill-opacity:1;fill-rule:nonzero;stroke:none"
         id="path156" />
      <path
         d="M 20286.9,19073.5 V 18573 l -72.3,-45.8 -953.9,-604.4 c -17.1,-10.8 -39.8,-5.7 -50.7,11.4 -8.7,13.7 -7.1,31.1 2.8,43 l 720.1,869.9 -72.3,-159.9 v 386.3 c 0,117.7 95.5,213.2 213.2,213.2 117.7,0 213.1,-95.5 213.1,-213.2"
         style="fill:#000072;fill-opacity:1;fill-rule:nonzero;stroke:none"
         id="path158" />
      <path
         d="m 20286.9,19073.5 v -386.3 l -72.3,159.9 720.2,-869.9 c 12.9,-15.6 10.7,-38.7 -4.9,-51.7 -12.5,-10.3 -30,-10.9 -43,-2.7 l -954,604.4 -72.3,45.8 v 114.2 386.3 c 0,117.7 95.5,213.2 213.2,213.2 117.7,0 213.1,-95.5 213.1,-213.2"
         style="fill:#000072;fill-opacity:1;fill-rule:nonzero;stroke:none"
         id="path160" />
      <path
         d="m 15781.3,23135 c 194.8,-45.8 383.6,-104.6 571.2,-166 187.1,-62.5 372.1,-129.8 555.4,-200.7 183.1,-71.5 365,-145.6 541.7,-231.1 88.5,-42.5 176,-87.2 261.9,-135.3 86.1,-47.8 171.1,-97.8 252.8,-155.3 l 32.3,-22.7 c 71.6,-50.4 88.7,-149.3 38.3,-220.9 -24.3,-34.5 -60.2,-56.5 -98.5,-64.2 L 16123,21575.9 c -41.4,-8.3 -81.7,18.5 -90,60 -7.8,38.9 15.8,76.9 53,88.2 l 1771.1,532.3 -28,-307.9 c -97,23.5 -190.7,54.6 -283.3,87.9 -92.9,32.9 -184.1,69.3 -274.4,107.8 -180.7,76.6 -356.3,164.6 -530.7,255.2 -174.2,91.2 -346.7,185.9 -517,285.5 -169.8,100.7 -338.5,203.9 -501.2,320.3 -32.7,23.3 -40.2,68.7 -16.9,101.3 17.7,24.7 47.9,35 75.7,28.5"
         style="fill:#000072;fill-opacity:1;fill-rule:nonzero;stroke:none"
         id="path162" />
      <path
         d="m 24476.2,23005.2 c -162.8,-116.4 -331.4,-219.6 -501.3,-320.3 -170.3,-99.6 -342.8,-194.3 -517,-285.5 -174.4,-90.6 -349.9,-178.6 -530.7,-255.2 -90.3,-38.5 -181.5,-74.9 -274.3,-107.8 -92.7,-33.3 -186.3,-64.4 -283.4,-87.9 l -27.9,307.9 1771,-532.3 c 40.5,-12.1 63.4,-54.8 51.3,-95.2 -11.5,-38.1 -50.2,-60.5 -88.3,-53 l -1813.3,362.9 c -85.9,17.2 -141.6,100.7 -124.4,186.6 8.3,41.4 31.9,75.7 63.9,98.3 l 32.5,22.9 c 81.7,57.5 166.8,107.5 252.9,155.3 85.8,48.1 173.3,92.8 261.8,135.3 176.7,85.5 358.6,159.6 541.7,231.1 183.3,70.9 368.3,138.2 555.4,200.7 187.7,61.4 376.5,120.2 571.2,166 39,9.1 78.1,-15.1 87.3,-54.1 7,-29.5 -5.2,-59.1 -28.4,-75.7"
         style="fill:#000072;fill-opacity:1;fill-rule:nonzero;stroke:none"
         id="path164" />
      <path
         d="m 21114,20844 c -191.6,0 -410.9,225.4 -517.2,548.1 -119.9,364 -50.4,714 155.1,781.7 23.4,7.7 47.6,11.5 72.2,11.5 191.6,0 410.9,-225.4 517.1,-548.1 119.9,-364 50.5,-714.1 -155,-781.8 -23.4,-7.7 -47.6,-11.4 -72.2,-11.4"
         style="fill:#4d4d9d;fill-opacity:1;fill-rule:nonzero;stroke:none"
         id="path166" />
    </g>
  </g>
</svg>
