<?xml version="1.0" encoding="UTF-8" standalone="no"?>
<!-- Created with Inkscape (http://www.inkscape.org/) -->

<svg
   version="1.1"
   id="svg2"
   width="5333.3335"
   height="5333.3335"
   viewBox="0 0 5333.3335 5333.3335"
   sodipodi:docname="polarbear_ski.eps"
   xmlns:inkscape="http://www.inkscape.org/namespaces/inkscape"
   xmlns:sodipodi="http://sodipodi.sourceforge.net/DTD/sodipodi-0.dtd"
   xmlns="http://www.w3.org/2000/svg"
   xmlns:svg="http://www.w3.org/2000/svg">
  <defs
     id="defs6" />
  <sodipodi:namedview
     id="namedview4"
     pagecolor="#ffffff"
     bordercolor="#000000"
     borderopacity="0.25"
     inkscape:showpageshadow="2"
     inkscape:pageopacity="0.0"
     inkscape:pagecheckerboard="0"
     inkscape:deskcolor="#d1d1d1" />
  <g
     id="g8"
     inkscape:groupmode="layer"
     inkscape:label="ink_ext_XXXXXX"
     transform="matrix(1.3333333,0,0,-1.3333333,0,5333.3333)">
    <g
       id="g10"
       transform="scale(0.1)">
      <path
         d="M 0,0 H 40000 V 40000 H 0 Z"
         style="fill:#80b3ff;fill-opacity:1;fill-rule:nonzero;stroke:none"
         id="path12" />
      <path
         d="M 0,0 H 40000 V 7387.5 H 0 Z"
         style="fill:#ffffff;fill-opacity:1;fill-rule:nonzero;stroke:none"
         id="path14" />
      <path
         d="m 7617.32,7868.8 -3109.9,1579.8 717.55,-927.5 -2969.05,957.6 928.65,-1204 L 687.625,8670.8 2155.82,7326.9 h 5755.55 l -294.05,541.9"
         style="fill:#ffffff;fill-opacity:1;fill-rule:nonzero;stroke:none"
         id="path16" />
      <path
         d="M 13196.6,7908.3 9917.92,9716.3 10910.9,8521.1 7554.97,9668.8 8870.57,8274.7 6366.82,9134.2 7841.77,7326.9 H 13469 l -272.4,581.4"
         style="fill:#ffffff;fill-opacity:1;fill-rule:nonzero;stroke:none"
         id="path18" />
      <path
         d="m 12117.7,10021.2 c 0,-363.4 -294.6,-658 -658,-658 -363.4,0 -658,294.6 -658,658 0,363.4 294.6,658 658,658 363.4,0 658,-294.6 658,-658"
         style="fill:#ffffff;fill-opacity:1;fill-rule:nonzero;stroke:none"
         id="path20" />
      <path
         d="m 32064.9,27006.8 c 0,-363.4 -294.6,-658 -658,-658 -363.4,0 -658,294.6 -658,658 0,363.4 294.6,658 658,658 363.4,0 658,-294.6 658,-658"
         style="fill:#ffffff;fill-opacity:1;fill-rule:nonzero;stroke:none"
         id="path22" />
      <path
         d="m 30278.4,19689.2 c 0,-175.7 -142.4,-318.2 -318.1,-318.2 -175.8,0 -318.2,142.5 -318.2,318.2 0,175.7 142.4,318.1 318.2,318.1 175.7,0 318.1,-142.4 318.1,-318.1"
         style="fill:#ffffff;fill-opacity:1;fill-rule:nonzero;stroke:none"
         id="path24" />
      <path
         d="m 27236.2,32910.5 c 0,-175.7 -142.5,-318.2 -318.2,-318.2 -175.7,0 -318.2,142.5 -318.2,318.2 0,175.6 142.5,318.1 318.2,318.1 175.7,0 318.2,-142.5 318.2,-318.1"
         style="fill:#ffffff;fill-opacity:1;fill-rule:nonzero;stroke:none"
         id="path26" />
      <path
         d="m 13543.1,33546.6 c 0,-175.7 -142.5,-318.1 -318.2,-318.1 -175.7,0 -318.2,142.4 -318.2,318.1 0,175.7 142.5,318.2 318.2,318.2 175.7,0 318.2,-142.5 318.2,-318.2"
         style="fill:#ffffff;fill-opacity:1;fill-rule:nonzero;stroke:none"
         id="path28" />
      <path
         d="m 34228.2,12003.2 c 0,-175.7 -142.5,-318.1 -318.2,-318.1 -175.7,0 -318.2,142.4 -318.2,318.1 0,175.7 142.5,318.2 318.2,318.2 175.7,0 318.2,-142.5 318.2,-318.2"
         style="fill:#ffffff;fill-opacity:1;fill-rule:nonzero;stroke:none"
         id="path30" />
      <path
         d="m 5983.77,18594.5 c 0,-175.7 -142.46,-318.1 -318.16,-318.1 -175.75,0 -318.2,142.4 -318.2,318.1 0,175.7 142.45,318.2 318.2,318.2 175.7,0 318.16,-142.5 318.16,-318.2"
         style="fill:#ffffff;fill-opacity:1;fill-rule:nonzero;stroke:none"
         id="path32" />
      <path
         d="m 9983.98,27586.1 c 0,-175.7 -142.45,-318.1 -318.15,-318.1 -175.75,0 -318.2,142.4 -318.2,318.1 0,175.7 142.45,318.2 318.2,318.2 175.7,0 318.15,-142.5 318.15,-318.2"
         style="fill:#ffffff;fill-opacity:1;fill-rule:nonzero;stroke:none"
         id="path34" />
      <path
         d="m 14643.3,12426.9 c 0,-672.3 -545,-1217.4 -1217.4,-1217.4 -672.4,0 -1217.4,545.1 -1217.4,1217.4 0,672.4 545,1217.5 1217.4,1217.5 672.4,0 1217.4,-545.1 1217.4,-1217.5"
         style="fill:#ffffff;fill-opacity:1;fill-rule:nonzero;stroke:none"
         id="path36" />
      <path
         d="m 13501.7,11517 c -501.5,0 -932.3,303.8 -1118.6,737.3 -9.3,56.2 -14.1,113.8 -14.1,172.6 0,190.1 50.4,368.6 138.6,522.9 171.6,-464.6 618.1,-795.9 1142.3,-795.9 116.6,0 229.3,16.4 336.1,47 107.5,-132.9 216.8,-250.8 322.9,-354.3 -13.3,-20 -27.2,-39.6 -41.7,-58.7 -209,-169.4 -475.3,-270.9 -765.5,-270.9"
         style="fill:#bfbfdc;fill-opacity:1;fill-rule:nonzero;stroke:none"
         id="path38" />
      <path
         d="m 13425.9,13483.8 c -582.8,0 -1056.9,-474.1 -1056.9,-1056.9 0,-582.8 474.1,-1056.9 1056.9,-1056.9 582.7,0 1056.9,474.1 1056.9,1056.9 0,582.8 -474.2,1056.9 -1056.9,1056.9 m 0,-2434.8 c -759.8,0 -1378,618.1 -1378,1377.9 0,759.8 618.2,1378 1378,1378 759.8,0 1378,-618.2 1378,-1378 0,-759.8 -618.2,-1377.9 -1378,-1377.9"
         style="fill:#000072;fill-opacity:1;fill-rule:nonzero;stroke:none"
         id="path40" />
      <path
         d="m 25205.6,8828.2 c 12,-524.4 -420.4,-952.3 -945.3,-952.3 h -3402.5 c -501.8,0 -861,481.7 -721.3,963.9 258.1,892.5 535.9,2264.8 290.3,3499.9 l 364.2,307.9 3132.7,2647.1 c 0,0 1658.6,-2715.9 0,-5389.6 0,0 1163.8,-14.5 1273.8,-960.3 v -0.5 c 4.6,-37.2 7.1,-75.9 8.1,-116.1"
         style="fill:#ffffff;fill-opacity:1;fill-rule:nonzero;stroke:none"
         id="path42" />
      <path
         d="m 24260.5,8036.6 h -3402.7 c -170,0 -327.3,70.7 -439,195.6 22.2,40.6 41.7,83 58.1,127.1 164.4,442.1 162.8,838.4 -2.5,1159.5 137.7,631.5 236.4,1362.5 201.3,2089.2 341.9,99.5 663.9,223.7 965.7,372.1 -41.7,-644.8 -146.6,-1998.1 -327.6,-2665.7 -231.6,-856.3 625.1,-997.3 2036.4,-997.3 63.9,0 128.8,0.3 194.8,0.8 827.5,6.4 1266.8,130.3 1484.3,333.7 -29.5,-140.4 -98.8,-270.4 -202.8,-376.8 -150.1,-153.6 -351.2,-238.2 -566,-238.2"
         style="fill:#bfbfdc;fill-opacity:1;fill-rule:nonzero;stroke:none"
         id="path44" />
      <path
         d="m 23908.9,9745.3 c -61.5,6.3 -136.2,10.6 -205.8,13 -70.9,1.1 -142.3,2.7 -213.9,1.2 -143.2,-3.2 -287.1,-12.2 -430.6,-28.4 -143.5,-16.3 -286.5,-40.6 -428.9,-70.9 -71.7,-13.5 -142.6,-30.7 -214.5,-46.6 -71.7,-16.3 -142.3,-36.8 -215.6,-52.7 l -1.7,-0.4 c -16.6,-3.5 -33,7 -36.5,23.6 -2.9,13 3.1,25.9 13.9,32.6 128.6,79.1 263.9,150.4 405.8,205.2 141.1,57.3 287.8,99.8 435.9,137.5 148.1,38.5 299.2,65.6 452,83.8 76.3,9.6 153.2,16.7 230.5,20.6 78.8,3.1 152.5,6 239.1,1.1 88.5,-5 156.2,-80.9 151.2,-169.4 -5,-88.6 -80.9,-156.3 -169.4,-151.2 -2.3,0.1 -4.5,0.3 -6.7,0.5 l -4.8,0.5"
         style="fill:#000072;fill-opacity:1;fill-rule:nonzero;stroke:none"
         id="path46" />
      <path
         d="m 20602.1,12277.7 c 218.2,-1229.5 -46.5,-2566.9 -311.4,-3482.4 -52.7,-181.8 -17.8,-372.6 95.5,-523.3 112.4,-149.7 284.3,-235.4 471.6,-235.4 h 3402.7 c 214.8,0 415.9,84.6 566,238.2 145.7,149 223.3,344.3 218.6,549.9 -20.3,895.9 -1078.3,919.3 -1123.4,919.9 -57.8,0.7 -110.9,32.5 -138.7,83.3 -27.9,50.8 -26.2,112.6 4.3,161.8 663.6,1069.6 866.6,2270.6 603.4,3569.6 -140.1,691.8 -382.7,1228.9 -513.7,1485.9 l -3274.9,-2767.5 m 3658.4,-4562.2 h -3402.7 c -289.1,0 -554.6,132.5 -728.2,363.6 -174.6,232.2 -228.3,525.8 -147.3,805.5 261.7,904.4 524,2232.7 287.2,3424.1 -11.3,57.2 9.3,116.1 53.9,153.8 l 3496.7,2955 c 35.9,30.2 83.1,43.2 129.3,35.9 46.3,-7.5 86.9,-34.9 111.4,-74.9 17.5,-28.7 431.7,-714.8 642.2,-1743.7 185,-904 236.6,-2241.8 -513.4,-3594 499.9,-84.4 1158.2,-401.2 1176.5,-1208.8 6.7,-292.7 -103.4,-570.3 -310,-781.7 -208,-212.7 -498,-334.8 -795.6,-334.8"
         style="fill:#000072;fill-opacity:1;fill-rule:nonzero;stroke:none"
         id="path48" />
      <path
         d="m 24199.9,19322.3 c 0,0 1762.5,-1773.3 3863.3,-3039.9 500.1,-301.5 652.4,-967.9 307.6,-1439.3 -277.2,-378.9 -758.6,-709.8 -1594.1,-688.9 -1909.7,47.7 -3330,1529.3 -3330,1529.3 l 753.2,3638.8"
         style="fill:#ffffff;fill-opacity:1;fill-rule:nonzero;stroke:none"
         id="path50" />
      <path
         d="m 26950.3,14529.2 c -24.8,0 -49.7,0.3 -75.1,1 -700.6,17.5 -1335.3,228 -1858.3,487.6 l 1500.8,103.4 c 39.3,2.7 75.9,21.1 101.4,51.2 10.4,12.1 18.5,25.7 24.3,40.1 l 1751.5,147.1 c -7.9,-122.8 -43.7,-241.3 -105.9,-348.6 -280.9,-272.9 -703.6,-481.8 -1338.7,-481.8 m -2317,1648.3 c 30.8,149.2 57.1,296.5 79.5,440.5 132.5,-112.2 309.4,-251.4 523.9,-396.2 l -603.4,-44.3"
         style="fill:#bfbfdc;fill-opacity:1;fill-rule:nonzero;stroke:none"
         id="path52" />
      <path
         d="m 23621.6,15736.8 c 283.1,-268.5 1552.2,-1382 3159.1,-1422.2 654.9,-16.4 1146,193.4 1460.6,623.3 135.2,184.9 184.5,412.3 138.6,640.4 -47.3,235.5 -192.9,442 -399.6,566.6 -1673.8,1009.2 -3149,2351.9 -3682.4,2858.9 l -676.3,-3267 m 3228.1,-1744.1 c -25.4,0 -51,0.3 -77,1 -1953.4,48.8 -3382,1516.2 -3441.9,1578.7 -36.6,38.1 -52,91.8 -41.3,143.6 l 753.2,3638.8 c 12,57.9 54.8,104.5 111.5,121.3 56.4,17 117.8,1.3 159.6,-40.7 17.5,-17.5 1773.6,-1774.4 3832.3,-3015.5 283.6,-171 483.5,-454.7 548.6,-778.4 63.8,-317.4 -5.2,-634.7 -194.4,-893.1 -254.3,-347.8 -745.8,-755.7 -1650.6,-755.7"
         style="fill:#000072;fill-opacity:1;fill-rule:nonzero;stroke:none"
         id="path54" />
      <path
         d="M 20552.6,14650.2 8015.64,13524 c -123.85,-11.2 -229.95,63.5 -237.05,166.7 -6.8,99.3 81.15,188.9 198.01,205.6 l 12471.5,1750.8 c 329.8,46.3 628.6,-138.4 667.4,-412.6 38.8,-274.1 -197.1,-533.8 -527,-580.1 -11.4,-1.6 -24.6,-3.1 -35.9,-4.2"
         style="fill:#b9bedb;fill-opacity:1;fill-rule:nonzero;stroke:none"
         id="path56" />
      <path
         d="m 7977.26,13670.1 c -19.9,2.4 -34.94,9.7 -43.66,17.1 -3.91,3.4 -8.69,8.4 -9.03,13.5 -0.93,14.1 25.92,44 72.41,50.7 l 5099.92,715.9 c 1.7,-22.7 3.6,-45.5 5.7,-68.1 l -5057.17,-709.9 c -24.18,-3.5 -47.09,-10 -68.17,-19.2"
         style="fill:#e3e5f1;fill-opacity:1;fill-rule:nonzero;stroke:none"
         id="path58" />
      <path
         d="m 20552.6,14650.2 h 0.5 -0.5 m -2.7,857.6 c -26.7,0 -53.9,-1.8 -81.4,-5.7 L 7996.98,13751.4 c -46.49,-6.7 -73.34,-36.6 -72.41,-50.7 0.34,-5.1 5.12,-10.1 9.03,-13.5 12.11,-10.3 36.38,-20.2 68.94,-17.5 L 20539.1,14796 c 9.1,0.8 19.9,2 29.2,3.3 139.8,19.6 262.9,87.7 337.5,186.8 37.2,49.6 78.7,129.3 64.8,227.9 -24.4,172.5 -205.4,293.8 -420.7,293.8 M 7991.66,13376.5 c -92.63,0 -181.4,31.2 -248,88 -65.87,56.2 -105.32,132.9 -111.09,216.1 -11.95,174.7 130.13,333 323.39,360.6 L 20427.7,15792 c 408.9,57.5 782.7,-183.5 832.7,-537 21.8,-154.4 -21,-312.4 -120.8,-444.9 -121,-160.7 -314.4,-270.3 -530.7,-300.7 -13.6,-1.9 -29.3,-3.7 -42.7,-4.9 h -0.5 L 8028.72,13378.2 c -12.41,-1.1 -24.75,-1.7 -37.06,-1.7"
         style="fill:#000072;fill-opacity:1;fill-rule:nonzero;stroke:none"
         id="path60" />
      <path
         d="m 10169.2,12588.2 c -203.67,0 -404.06,124.6 -570.76,357.2 -165.72,231.2 -283.3,549.6 -331.1,896.5 -47.85,346.8 -20.75,685.1 76.27,952.6 108.45,299 293.16,480.9 520.12,512.2 378.97,52.4 756.17,-348.8 916.87,-975.2 20.1,-78.3 -27.1,-158.1 -105.3,-178.1 -78.7,-20.2 -158.2,27.1 -178.2,105.3 -116.7,454.9 -376.8,787 -593.43,758.1 -112.45,-15.5 -216.31,-132.9 -284.91,-322.1 -81.11,-223.6 -102.93,-512.3 -61.48,-812.9 41.46,-300.6 140.53,-572.6 279.1,-765.9 117.24,-163.6 248.82,-248.3 361.52,-233 213.7,29.4 374.6,416.2 366.3,880.5 -1.4,80.8 62.9,147.5 143.7,149 82.9,0.8 147.5,-62.9 149,-143.7 11.4,-640.5 -243.1,-1124 -619.1,-1175.8 -22.9,-3.1 -45.7,-4.7 -68.6,-4.7"
         style="fill:#000072;fill-opacity:1;fill-rule:nonzero;stroke:none"
         id="path62" />
      <path
         d="m 10043.5,13848.4 c -29.6,0 -57.85,13 -76.99,35.9 l -591.31,705.1 c -35.64,42.5 -30.08,105.8 12.4,141.5 42.48,35.6 105.86,30.1 141.51,-12.4 l 499.19,-595.3 367.5,635.3 c 27.8,48 89.3,64.4 137.2,36.6 48.1,-27.7 64.5,-89.2 36.7,-137.2 l -439.3,-759.4 c -16.4,-28.3 -45.6,-46.9 -78.2,-49.7 -2.9,-0.3 -5.9,-0.4 -8.7,-0.4"
         style="fill:#000072;fill-opacity:1;fill-rule:nonzero;stroke:none"
         id="path64" />
      <path
         d="m 9664.17,13010.8 c -13.87,0 -27.93,2.9 -41.41,9 -50.54,22.8 -72.95,82.4 -50.05,132.9 l 379.25,837.5 c 14.75,32.6 45.65,54.9 81.24,58.5 35.8,3.6 70.3,-11.8 91.4,-40.7 l 577.6,-791.5 c 32.7,-44.9 22.8,-107.7 -22,-140.4 -44.9,-32.7 -107.7,-22.8 -140.3,22 l -476,652.3 -308.18,-680.6 c -16.8,-37.1 -53.32,-59 -91.55,-59"
         style="fill:#000072;fill-opacity:1;fill-rule:nonzero;stroke:none"
         id="path66" />
      <path
         d="m 26424.6,16162.3 -2560.2,-188 44.8,-886.2 2598.5,179.1 -83.1,895.1"
         style="fill:#b9bedb;fill-opacity:1;fill-rule:nonzero;stroke:none"
         id="path68" />
      <path
         d="m 24391.2,15268 c 29.2,88.2 56.6,176.4 82.3,264.3 l 1719.5,118.5 4.4,-59.1 c 5.2,-72 28.8,-138.3 65.7,-194.7 l -1871.9,-129"
         style="fill:#8b8ec1;fill-opacity:1;fill-rule:nonzero;stroke:none"
         id="path70" />
      <path
         d="m 24017.8,15838.8 30,-594.4 2300.3,158.5 -56,602.9 -2274.3,-167 m -108.7,-897 c -35.7,0 -70.2,13 -97.1,36.8 -29.4,26.1 -47,62.9 -49,102.1 l -44.7,886.2 c -4.1,79.4 56.1,147.5 135.4,153.3 l 2560.2,188.1 c 79.6,5.8 149.1,-53 156.4,-132.5 l 83.1,-895.1 c 3.6,-39.3 -8.7,-78.3 -34.3,-108.3 -25.5,-30.1 -62.1,-48.5 -101.4,-51.2 l -2598.5,-179.1 c -3.4,-0.2 -6.7,-0.3 -10.1,-0.3"
         style="fill:#000072;fill-opacity:1;fill-rule:nonzero;stroke:none"
         id="path72" />
      <path
         d="m 26197.4,15591.7 c 16.7,-228 216.2,-398.5 444,-379.3 l 2445.7,205.3 c 200.8,13.7 373.8,157.8 410.2,355.8 24.1,130.7 11.7,255.7 -15.4,363.9 -52.9,212 -250.3,355.3 -468.3,340.5 l -2455.3,-170.6 c -226.8,-15.8 -397.7,-212.9 -381.1,-439.7 l 20.2,-275.9"
         style="fill:#555584;fill-opacity:1;fill-rule:nonzero;stroke:none"
         id="path74" />
      <path
         d="m 29223,15498.2 c -161.7,0 -304.2,199.8 -321.6,455.4 -6.5,95.6 5.4,185.8 31.2,262.5 l 81,5.6 c 10.4,0.7 20.8,1.1 31.1,1.1 205.4,0 386.8,-139.7 437.2,-341.6 5.5,-21.9 10.3,-44.5 14.4,-67.8 -33.3,-176.5 -133.4,-306.1 -260,-314.7 -4.4,-0.3 -8.9,-0.5 -13.3,-0.5"
         style="fill:#40407f;fill-opacity:1;fill-rule:nonzero;stroke:none"
         id="path76" />
      <path
         d="m 29506.1,15998.3 c -4.7,48.6 -13.2,95.2 -24.2,139.1 -15.6,62.6 -43.8,119.2 -81.5,167.5 0,0.1 -0.1,0.2 -0.1,0.3 -0.1,0 -0.1,0.1 -0.2,0.1 -50.5,64.8 -117.9,114.6 -194.6,143.9 152.2,-16 283,-207.8 300.6,-450.9"
         style="fill:#6086dc;fill-opacity:1;fill-rule:nonzero;stroke:none"
         id="path78" />
      <path
         d="m 29506.6,15992 c -4.5,50.9 -13.2,99.6 -24.7,145.4 -15.6,62.6 -43.8,119.2 -81.5,167.5 37.7,-48.3 65.9,-104.9 81.5,-167.5 11,-43.9 19.5,-90.5 24.2,-139.1 0.1,-1.1 0.2,-2.3 0.3,-3.4 0,-1 0.1,-2 0.2,-2.9 m -106.3,313.2 c -0.1,0 -0.1,0.1 -0.2,0.1 0.1,0 0.1,-0.1 0.2,-0.1"
         style="fill:#40407f;fill-opacity:1;fill-rule:nonzero;stroke:none"
         id="path80" />
      <path
         d="m 26492,16297.2 c 21.5,5.1 43.6,8.5 66.3,10.1 l 603.4,41.9 -603.4,-41.9 c -22.7,-1.6 -44.8,-5 -66.3,-10.1"
         style="fill:#ffffff;fill-opacity:1;fill-rule:nonzero;stroke:none"
         id="path82" />
      <path
         d="m 29205.5,16449.2 v 0 c -8.6,3.3 -17.4,6.3 -26.2,9.1 8.8,-2.8 17.6,-5.8 26.2,-9.1 m -26.7,9.3 c -0.2,0 -0.4,0.1 -0.6,0.1 0.2,0 0.4,-0.1 0.6,-0.1"
         style="fill:#cce1ff;fill-opacity:1;fill-rule:nonzero;stroke:none"
         id="path84" />
      <path
         d="m 26186.9,15735.2 -9.7,132.4 c -15,204.1 121.9,384.1 314.8,429.6 21.5,5.1 43.6,8.5 66.3,10.1 l 603.4,41.9 1851.9,128.6 c 10.4,0.7 20.8,1.1 31.1,1.1 46.1,0 91,-7 133.5,-20.3 0.2,0 0.4,-0.1 0.6,-0.1 0.2,-0.1 0.3,-0.1 0.5,-0.2 8.8,-2.8 17.6,-5.8 26.2,-9.1 -6.8,0.7 -13.7,1.1 -20.6,1.1 -4.5,0 -9,-0.2 -13.4,-0.5 -106.3,-7.2 -193.9,-99.8 -238.9,-233.7 l -2374.3,-165 c -184.1,-12.8 -331.4,-145.2 -371.4,-315.9 m 3313,55.7 c -1.1,7.6 -2.3,15.1 -3.6,22.5 10.4,55.7 14.3,115.9 10.3,178.6 5.6,-64.2 4.4,-131.8 -6.7,-201.1"
         style="fill:#bbbbce;fill-opacity:1;fill-rule:nonzero;stroke:none"
         id="path86" />
      <path
         d="m 29400.4,16304.9 c 0,0.1 -0.1,0.2 -0.1,0.3 0,-0.1 0.1,-0.2 0.1,-0.3 m -0.3,0.4 c -50.5,64.8 -118,114.6 -194.6,143.9 v 0 c 76.7,-29.3 144.1,-79.1 194.6,-143.9"
         style="fill:#bfcff1;fill-opacity:1;fill-rule:nonzero;stroke:none"
         id="path88" />
      <path
         d="m 29496.3,15813.4 c -4.1,23.3 -8.9,45.9 -14.4,67.8 -50.4,201.9 -231.8,341.6 -437.2,341.6 -10.3,0 -20.7,-0.4 -31.1,-1.1 l -81,-5.6 c 45,133.9 132.6,226.5 238.9,233.7 4.4,0.3 8.9,0.5 13.4,0.5 6.9,0 13.8,-0.4 20.6,-1.1 76.6,-29.3 144.1,-79.1 194.6,-143.9 0.1,0 0.1,-0.1 0.2,-0.1 0,-0.1 0.1,-0.2 0.1,-0.3 37.7,-48.3 65.9,-104.9 81.5,-167.5 11.5,-45.8 20.2,-94.5 24.7,-145.4 4,-62.7 0.1,-122.9 -10.3,-178.6"
         style="fill:#b3b3cc;fill-opacity:1;fill-rule:nonzero;stroke:none"
         id="path90" />
      <path
         d="m 29044.6,16318.4 c -6.7,0 -13.3,-0.2 -20,-0.7 l -2455.2,-170.6 c -66.8,-4.6 -127.8,-35.1 -171.7,-85.7 -43.8,-50.6 -65.3,-115.3 -60.4,-182.1 l 20.2,-275.9 c 4.9,-67.2 35.8,-128.3 87,-172 51.3,-43.7 116.5,-64.7 183.4,-59.1 l 2445.7,205.4 c 134.9,9.2 243.2,101.6 265.9,224.9 17,92.8 12.6,192.4 -13.3,295.9 -32.5,130.1 -149.1,219.9 -281.6,219.9 z m -2438.7,-1268.1 c -135.7,0 -265.5,47.8 -369.9,137 -116.9,99.8 -187.5,239.3 -198.7,392.6 l -20.3,275.9 c -11.1,152.6 37.9,300.3 138.1,415.9 100.3,115.6 239.5,185.1 392.1,195.7 l 2455.3,170.6 c 296,20.6 563.3,-174 635.2,-461.7 37,-148.2 42.9,-293.5 17.5,-431.8 -49.2,-267.7 -278.4,-467.9 -557.2,-486.9 l -2443.2,-205.2 c -16.4,-1.4 -32.7,-2.1 -48.9,-2.1"
         style="fill:#000072;fill-opacity:1;fill-rule:nonzero;stroke:none"
         id="path92" />
      <path
         d="m 18901.8,11480.8 c 0,0 -122,-1157.8 -491.7,-1778.6 0,0 1276.8,596.7 1825.8,-107.5 116,-148.1 174.3,-310.4 194.4,-474.1 30.6,-246.2 -25.6,-495.3 -104,-705.2 -121.5,-326.5 -438,-539.5 -786.6,-539.5 h -3717.9 c -503.8,0 -895.1,438.5 -837.8,938.8 l 162.7,1430.5 c 68.8,606.8 -165.7,1205 -618.3,1615.4 -516.9,468.1 -1135.7,1275.8 -1262.8,2520.9 -104.9,1027.2 238.6,2228.2 830.3,3359.9 v 0.5 h 0.5 c 429.5,822.7 990.5,1609.3 1605.3,2266.3 247.2,264.7 502.8,507.8 762.5,724.3 265.2,221 534.4,413.9 802.2,572.1 213.9,126.6 426.9,230.5 636.4,309.4 l 1586.2,-430.5 1659.1,-449.5 3408.5,-924.7 c 0,0 97.9,-549 113,-1365.2 44.2,-2289.5 -557,-6682 -5767.8,-6963.3"
         style="fill:#ffffff;fill-opacity:1;fill-rule:nonzero;stroke:none"
         id="path94" />
      <path
         d="m 19539.9,8036.6 h -3718.2 c -194.3,0 -380,83.1 -509.4,228.1 -129.4,144.9 -191.1,338.8 -169.1,531.9 l 162.8,1430.3 c 74,650.3 -176.4,1305.5 -669.9,1752.6 -484.4,438.9 -1087.7,1214.7 -1210.8,2418.4 -48.6,475.3 2.2,1006 144,1566.7 l 265.1,-12.6 c -20.1,-903 137.2,-1977.1 809,-2795.1 1079.6,-1315.3 1360.9,-2058 1238.4,-3184.5 -77.9,-716.5 432.4,-1363.7 1147.1,-1457.1 225.3,-29.5 477,-56.6 753.8,-78.4 245.8,-19.2 499.3,-30.6 747.3,-30.6 736.4,0 1426.1,100.3 1734.3,392.4 -16.1,-103.3 -45.6,-212.5 -88.3,-327.5 -96.7,-260 -352.4,-434.6 -636.1,-434.6 m -5656.6,8872.8 c 19.1,46.9 38.9,94 59.1,141 -7.8,-45.2 -15.4,-92.3 -22.8,-140.9 l -36.3,-0.1"
         style="fill:#bfbfdc;fill-opacity:1;fill-rule:nonzero;stroke:none"
         id="path96" />
      <path
         d="m 23781.4,18335.9 c -999.3,0 -3426.4,106.7 -5428.1,1046.9 h -0.5 c -8.2,27.8 -16.8,57.3 -25.9,88.4 v 0 c 0,0.1 0,0 0,0.1 -47.8,164.2 -106.3,371.7 -161.9,587 2072.2,-1147.5 4795.1,-1270.4 5868.4,-1270.4 272.8,0 439.3,7.9 461.2,9.1 6.2,-127.9 10.8,-265.6 12.7,-411.5 -79.6,-21.7 -166.6,-35.7 -261.6,-40.4 0,0 -170.6,-9.2 -464.3,-9.2"
         style="fill:#bfbfdc;fill-opacity:1;fill-rule:nonzero;stroke:none"
         id="path98" />
      <path
         d="m 18911.5,11883.4 c 0,0 -2.9,1782 -596.8,2753.5 349.3,-485.7 1416.2,-1823 2576.1,-1823 12.5,0 24.9,0.2 37.5,0.5 1432.2,35.8 2518.4,1620.3 2518.4,1620.3 0,0 -1100.3,-2515.5 -4535.2,-2551.3 m -596.8,2753.5 c -77.5,107.8 -119.7,173.7 -119.7,173.7 42.4,-54.2 82.2,-112.4 119.7,-173.7"
         style="fill:#bfbfdc;fill-opacity:1;fill-rule:nonzero;stroke:none"
         id="path100" />
      <path
         d="m 18483,9559.3 c -158.3,-84.2 -324.8,-152.7 -493.9,-217.1 -169.5,-63.7 -341.2,-124 -520.3,-172.2 l -1,-0.2 c -15.5,-4.2 -31.4,5 -35.6,20.5 -2.9,11.1 0.9,22.4 9,29.5 139.2,120.9 285.8,229.7 434.6,335.1 149.1,104.7 301,205.3 461,290.2 78.3,41.5 175.4,11.7 216.9,-66.6 41.6,-78.3 11.8,-175.5 -66.5,-217 l -4.2,-2.2"
         style="fill:#000072;fill-opacity:1;fill-rule:nonzero;stroke:none"
         id="path102" />
      <path
         d="m 18741.5,11491.1 c 15.1,276.7 14.6,565 6.4,847.7 -4.7,141.9 -13,283.6 -24.9,424.9 -11.2,141.4 -25.2,282.5 -44.5,422.8 -36.9,280.8 -95.9,557.8 -177.2,827.1 -80.6,269.7 -187.3,530.4 -336.3,773.2 l -0.5,0.8 c -11.1,18.1 -5.4,41.8 12.7,52.9 15.7,9.6 35.5,6.6 47.8,-6.1 206.4,-213.7 358.1,-478.2 468.1,-753 28.4,-68.7 52.5,-138.6 77.3,-208.6 22,-70.6 44.8,-141.2 63.7,-212.5 39.8,-142.4 73.2,-286.3 101.3,-431 58.6,-289.1 93.2,-581.6 114.3,-874.6 10.8,-146.5 17.9,-293.3 19.4,-440.2 1.8,-147.8 1.8,-292.3 -7.2,-444.4 -5.3,-88.5 -81.3,-156 -169.8,-150.7 -88.5,5.2 -155.9,81.2 -150.7,169.7 l 0.1,2"
         style="fill:#000072;fill-opacity:1;fill-rule:nonzero;stroke:none"
         id="path104" />
      <path
         d="m 17911.3,21445.2 c -1030,-407.2 -2226.2,-1500.3 -3134.3,-2867.5 -979.8,-1475.2 -1472.5,-2998.7 -1351.7,-4179.8 123.1,-1203.7 726.4,-1979.5 1210.8,-2418.4 493.5,-447.1 743.9,-1102.3 669.9,-1752.6 l -162.8,-1430.3 c -22,-193.1 39.7,-387 169.1,-531.9 129.4,-145 315.1,-228.1 509.4,-228.1 h 3718.2 c 283.7,0 539.4,174.6 636.1,434.6 157,422.1 134.6,766.9 -66.6,1024.8 -463.4,594.5 -1620.1,66.1 -1631.8,60.7 -64,-29.7 -139.7,-14.3 -186.9,38 -47.2,52.3 -54.9,129.2 -18.8,189.7 347.5,582.7 468.9,1701.8 470.1,1713 8.3,78.4 72.3,139.2 151,143.5 1878.2,101.5 3312,759.9 4261.8,1957 1718,2165.3 1346.3,5470.2 1259.1,6083.7 l -6502.6,1763.6 M 19539.9,7715.5 h -3718.2 c -285.7,0 -558.7,122.2 -748.9,335.4 -190.3,213.1 -280.8,498.1 -248.5,782 l 162.7,1430.3 c 62.4,547.8 -149.4,1100.5 -566.5,1478.4 -526.1,476.6 -1181.1,1318.7 -1314.6,2623.6 -279.4,2733.5 2478,6547.4 4740.2,7398.9 31.4,11.9 66,13.6 98.5,4.7 l 6654.1,-1804.7 c 59.9,-16.3 105.2,-65.7 116.1,-126.9 7,-39.9 173.1,-993.2 98.9,-2266.2 -68.9,-1180.7 -368.8,-2862.8 -1406.4,-4171.4 -986.4,-1244 -2453.6,-1940.4 -4362.7,-2071.1 -35.4,-261.1 -130.5,-848.4 -321.7,-1340.9 458.3,135.4 1216.9,248.2 1639.7,-294.2 270.4,-346.7 309.9,-808.1 114.3,-1334.1 -143.2,-385.1 -519.8,-643.8 -937,-643.8"
         style="fill:#000072;fill-opacity:1;fill-rule:nonzero;stroke:none"
         id="path106" />
      <path
         d="m 20592,15778.2 -12573.37,596.1 c -124.15,5.9 -219.1,94.3 -212,197.6 6.8,99.2 106.15,176 224.15,176.5 l 12593.72,31.6 c 333.1,0.8 603.9,-222.9 604.9,-499.8 1,-276.8 -268.2,-502 -601.2,-502.8 -11.5,0 -24.8,0.3 -36.2,0.8"
         style="fill:#b9bedb;fill-opacity:1;fill-rule:nonzero;stroke:none"
         id="path108" />
      <path
         d="m 8701.93,16488.4 -676.33,32 c -32.43,1.6 -55.33,14.9 -65.92,26.8 -3.42,3.8 -7.37,9.4 -7.03,14.7 0.97,14 31.59,40 78.51,40.2 l 8511.04,21.3 79.1,-115.1 -7919.37,-19.9"
         style="fill:#e3e5f1;fill-opacity:1;fill-rule:nonzero;stroke:none"
         id="path110" />
      <path
         d="m 20598.5,15924.4 c 9.1,-0.4 20,-0.9 29,-0.7 141.5,0.4 272.7,51 360.1,139 43.8,44 95.8,117.4 95.5,217 -0.8,195.4 -205.5,353.9 -456.7,353.9 h -1.5 l -12593.74,-31.5 c -46.92,-0.2 -77.54,-26.2 -78.51,-40.2 -0.34,-5.3 3.61,-10.9 7.03,-14.7 10.59,-11.9 33.49,-25.2 65.92,-26.8 l 12572.9,-596 m 27.5,-293.4 c -12.9,0 -27.6,0.5 -40.3,1 h -0.6 l -12573.42,596.1 c -106.06,5 -204.74,50.4 -270.66,124.5 -57.57,64.7 -86.13,146.2 -80.37,229.3 11.92,174.6 174.22,312 369.48,312.9 l 12594.07,31.5 h 2.2 c 412.1,0 748,-289.2 749.3,-645.6 0.6,-156 -63.5,-306.7 -180.5,-424.3 -141.8,-142.7 -348.4,-224.8 -566.7,-225.3 l -2.5,-0.1"
         style="fill:#000072;fill-opacity:1;fill-rule:nonzero;stroke:none"
         id="path112" />
      <path
         d="m 10092.9,15148.5 c -443.48,0 -790.89,601.7 -790.89,1369.8 0,768.1 347.41,1369.7 790.89,1369.7 382.6,0 701.4,-448.8 775.1,-1091.3 9.2,-80.3 -48.4,-152.9 -128.7,-162.1 -80.5,-9.2 -152.9,48.4 -162.1,128.7 -53.5,466.6 -266.3,832 -484.3,832 -235.62,0 -498.22,-442.3 -498.22,-1077 0,-634.7 262.6,-1077.1 498.22,-1077.1 215.8,0 428,361.2 483.2,822.3 9.6,80.3 82.6,137.6 162.7,127.9 80.3,-9.6 137.5,-82.4 127.9,-162.7 -76.1,-636 -394.3,-1080.2 -773.8,-1080.2"
         style="fill:#000072;fill-opacity:1;fill-rule:nonzero;stroke:none"
         id="path114" />
      <path
         d="m 10085.5,16417.8 c -1.7,0 -3.4,0.1 -5,0.2 -32.8,1.6 -62.6,19.1 -80.1,46.8 l -489.46,779.3 c -29.49,47 -15.33,109 31.64,138.5 46.93,29.5 108.94,15.4 138.48,-31.6 l 413.24,-657.9 450.8,579.2 c 34.1,43.8 97.2,51.5 140.9,17.6 43.8,-34.1 51.7,-97.2 17.6,-141 l -538.8,-692.3 c -19.1,-24.5 -48.4,-38.8 -79.3,-38.8"
         style="fill:#000072;fill-opacity:1;fill-rule:nonzero;stroke:none"
         id="path116" />
      <path
         d="m 10549.6,15554.8 c -35.8,0 -70.4,19.2 -88.6,52.9 l -382.4,711.2 -398.17,-632.1 c -29.54,-46.9 -91.6,-61 -138.58,-31.4 -46.92,29.5 -60.98,91.6 -31.44,138.5 l 489.99,777.9 c 19.1,30.2 51.4,48 88.5,46.8 35.7,-1.2 68.1,-21.3 85,-52.8 l 464.1,-863 c 26.3,-48.8 8,-109.8 -40.9,-136 -15.2,-8.2 -31.4,-12 -47.5,-12"
         style="fill:#000072;fill-opacity:1;fill-rule:nonzero;stroke:none"
         id="path118" />
      <path
         d="m 20563.2,15804.4 2338.9,-120.3 c 201,-10.4 390,112.1 449.7,304.4 39.5,126.9 42.1,252.3 28.1,363.1 -27.2,216.7 -206.1,382.6 -424.3,393.9 l -2290.6,117.7 -101.8,-1058.8"
         style="fill:#555584;fill-opacity:1;fill-rule:nonzero;stroke:none"
         id="path120" />
      <path
         d="m 22925.7,15844 c -5.1,0 -10.2,0.1 -15.4,0.4 l -22.8,1.2 c -71.7,90.3 -114,233.7 -105.8,392.7 4.6,89.9 24.8,173.2 56,243.5 l 94,-4.9 c 109.6,-5.6 209.3,-50.3 284.8,-120.8 1.7,-8.1 3.1,-16.3 4.2,-24.6 13.3,-105.9 5.8,-205.3 -22.2,-295.4 -35.7,-115 -146.8,-192.1 -272.8,-192.1"
         style="fill:#40407f;fill-opacity:1;fill-rule:nonzero;stroke:none"
         id="path122" />
      <path
         d="m 22837.7,16481.8 -1166.6,59.9 c -16.4,20.1 -33.1,39.9 -50.1,59.3 -16.3,18.6 -32.7,36.9 -49.4,54.9 l 1328.9,-68.4 c -23.9,-30.3 -45.1,-65.9 -62.8,-105.7"
         style="fill:#bbbbce;fill-opacity:1;fill-rule:nonzero;stroke:none"
         id="path124" />
      <path
         d="m 23216.5,16356.1 c -75.5,70.5 -175.2,115.2 -284.8,120.8 l -94,4.9 c 17.7,39.8 38.9,75.4 62.8,105.7 l 46.8,-2.4 c 132.5,-6.8 242,-101.6 269.2,-229"
         style="fill:#b3b3cc;fill-opacity:1;fill-rule:nonzero;stroke:none"
         id="path126" />
      <path
         d="m 20739.1,15956.1 2171.2,-111.7 c 132.3,-6.6 251,72 288.2,191.7 28,90.1 35.5,189.5 22.2,295.4 -17.6,139.7 -132.6,246.4 -273.4,253.6 l -2137.2,110 -71,-739 m 2187.2,-433.2 c -10.8,0 -21.6,0.3 -32.5,0.9 l -2338.8,120.3 c -43.8,2.3 -84.7,22.3 -113.3,55.4 -28.6,33.2 -42.4,76.6 -38.2,120.3 l 101.7,1058.8 c 8.2,85.4 79.8,149.5 168,144.9 l 2290.6,-117.8 c 296.4,-15.2 538.4,-239.8 575.4,-534.1 19.1,-151.7 7.6,-296.7 -34.1,-430.8 -77.7,-249.7 -312.8,-417.9 -578.8,-417.9"
         style="fill:#000072;fill-opacity:1;fill-rule:nonzero;stroke:none"
         id="path128" />
      <path
         d="m 21656.4,15133 c -242.6,-289.8 -519.9,-473.2 -775.6,-589.2 -422.4,-191.4 -902.6,-211.5 -1344.6,-70.8 -822.7,261.7 -2350.2,1058.8 -3352.2,3077 -281.9,567.1 -430.5,1069.9 -489.8,1510.9 -25.1,185.8 -34.1,360.1 -31.1,523.9 0.5,21.6 1.5,42.7 2,63.8 5.5,126.5 18.1,246.6 36.6,359.6 16.6,100.5 37.2,194.8 61.8,284.8 8.1,29.6 16.6,58.8 25.6,87.9 9.1,28.6 18.1,56.8 27.7,83.9 1,3 2,6 3,9 9,24.6 17.6,48.7 26.6,71.8 9,23.6 18.1,46.3 27.7,68.9 l 9,22.1 c 8.1,17.5 15.6,35.1 23.1,52.2 l 171.8,315.9 c 7.5,12.1 15,23.6 23.1,35.2 l 89.9,126.6 c 2,3 4,5 6,8 11.6,14.6 23.1,29.1 34.1,43.2 3.1,3.5 6.6,7.5 9.6,11.6 11.6,14 23.1,27.6 34.1,40.6 2.6,3.1 5.1,5.6 7.6,8.6 11.5,13.5 23.1,26.1 34.2,38.2 1.5,2 3,3.5 4.5,5 12.1,13.5 24.1,26.1 35.1,37.6 72.4,74.4 120.1,111.6 120.1,111.6 0,0 397.3,-37.7 790.1,-166.3 351.1,-115.5 697.1,-303.4 752.4,-603.8 78.9,-428.9 238.6,-995 334.1,-1318 h 0.5 c 46.1,-155.7 77.3,-255.1 77.3,-255.1 512.4,-1074.4 1840.9,-1798.7 1840.9,-1798.7 0,0 382.2,531.4 1014.6,358.1 632.9,-173.3 555.1,-793.6 555.1,-793.6 -387.8,328 -638.5,-113.5 -638.5,-113.5 0,0 593.3,-448.1 659.6,-1000.1 25.5,-206.9 -23.6,-428.9 -206,-646.9"
         style="fill:#ffffff;fill-opacity:1;fill-rule:nonzero;stroke:none"
         id="path130" />
      <path
         d="m 20123.6,14542.4 c -132.4,0 -265,15.1 -394.3,44.3 -62,15 -120.6,30.4 -183.5,52.7 -62.4,21.3 -125,41.9 -186.4,67.1 l -92.5,36.1 -91.3,39.9 -91.2,40.1 c -30.1,13.9 -59.7,29.2 -89.6,43.8 -238.4,117.7 -470.4,251.1 -688,405.7 -217.9,153.9 -428.7,319.3 -622,504.1 -100.1,88.7 -190.9,187.1 -284.1,283 -47.8,46.9 -89.6,99.4 -133.9,149.5 l -131.2,151.9 -122.9,159 c -40.2,53.6 -83.9,104.5 -120.3,160.9 l -113.9,165.8 -57,82.9 c -18.2,28.1 -35,57.2 -52.6,85.8 -142.5,227 -271.2,464.2 -387.8,705.3 -59.4,120.3 -109.6,244 -160.9,367.2 l -68.7,187.6 c -23.7,62.3 -40.5,126.5 -61.2,189.6 -76.3,254.1 -130.3,513.7 -153.7,774.9 -12.8,130.6 -14.3,261.4 -11.6,391.7 7.3,129.9 17.2,259.8 41.9,387.1 9.5,64.2 26.4,126.7 40.3,189.9 17.9,62 33.6,124.9 55.8,185.5 41.3,122.2 91.5,241.4 152.2,354.9 60.3,113.7 129.5,222.6 207,324.4 5.7,7.3 11.5,14.6 17.2,21.8 458.7,-174.2 686.6,-353 691.7,-357.2 29.3,-23.9 65.3,-36.3 101.7,-36.3 22.8,0 45.8,4.9 67.3,14.8 185.7,-156.5 382.5,-300.3 587.8,-432.7 0.2,-0.1 0.8,-0.4 1,-0.6 0.9,-0.6 1.8,-1.1 2.7,-1.8 121.7,-78.2 246.3,-152.4 373.4,-222.8 66.1,-256.1 136.3,-501.2 187.9,-675.5 -653.1,305.9 -1259.8,701.2 -1757.1,1210.1 -278.7,-545.1 -534.9,-1924.8 662,-3584.4 1083.4,-1502 2190.1,-2359.8 3110.6,-2359.8 486.8,0 921.5,239.9 1273.1,751.4 -44.6,-90.4 -111,-171.7 -191.7,-258.1 -87.7,-92.3 -183.5,-176.7 -286.9,-250.7 -103.1,-74.5 -213.8,-138.5 -329.4,-192.4 -114,-53.6 -233.1,-92.8 -355.8,-119 -116.1,-25.3 -235,-37.5 -354.1,-37.5"
         style="fill:#bfbfdc;fill-opacity:1;fill-rule:nonzero;stroke:none"
         id="path132" />
      <path
         d="m 21071.6,16873.1 c -79.5,59.5 -170.6,126.1 -257.1,185.7 -75.9,52.4 -73.3,166.3 6.3,212.9 116.1,68 282.3,142.1 455.8,142.1 96.1,0 194.4,-22.7 287.7,-81.9 3.2,-4 6.4,-8.1 9.5,-12.3 34,-45 59.4,-97.4 77.5,-153.8 -29.4,5.6 -60.1,8.4 -90.8,8.4 -33.5,0 -67.1,-3.4 -99.5,-10.2 -93.1,-19.2 -173.5,-64.9 -237.1,-117.6 -32,-26.6 -61,-55 -86.7,-85.4 -13.4,-14.8 -25.3,-30.8 -37.5,-46.6 -9.8,-13.8 -17.9,-24.9 -28.1,-41.3"
         style="fill:#bfbfdc;fill-opacity:1;fill-rule:nonzero;stroke:none"
         id="path134" />
      <path
         d="m 21107,16651.2 c -48.4,42.6 -89.7,95 -129.7,150.2 -39.6,55.7 -77.2,115.1 -106.1,188.7 l -0.3,0.9 c -5.3,13.3 1.3,28.3 14.6,33.6 3.3,1.3 6.9,1.8 10.3,1.7 77.5,-2.4 146.4,-19.1 213.1,-39.5 66.5,-20.9 131.6,-44.6 189.7,-78 77.3,-44.6 103.8,-143.4 59.3,-220.7 -44.6,-77.3 -143.3,-103.9 -220.7,-59.3 -9.2,5.3 -17.7,11.4 -25.5,18.2 l -4.7,4.2"
         style="fill:#000072;fill-opacity:1;fill-rule:nonzero;stroke:none"
         id="path136" />
      <path
         d="m 16574.6,21343.8 c -16.1,-13 -42.6,-36.8 -63.7,-57.4 -22.3,-21.4 -44.2,-44.1 -65.7,-67.2 -43.3,-46 -83.4,-95.9 -123,-146.1 -77.5,-101.8 -146.7,-210.7 -207,-324.4 -60.7,-113.5 -110.9,-232.7 -152.2,-354.9 -22.2,-60.6 -37.9,-123.5 -55.8,-185.5 -13.9,-63.2 -30.8,-125.7 -40.3,-189.9 -24.7,-127.3 -34.6,-257.2 -41.9,-387.1 -2.7,-130.3 -1.2,-261.1 11.6,-391.7 23.4,-261.2 77.4,-520.8 153.7,-774.9 20.7,-63.1 37.5,-127.3 61.2,-189.6 l 68.7,-187.6 c 51.3,-123.2 101.5,-246.9 160.9,-367.2 116.6,-241.1 245.3,-478.3 387.8,-705.3 17.6,-28.6 34.4,-57.7 52.6,-85.8 l 57,-82.9 113.9,-165.8 c 36.4,-56.4 80.1,-107.3 120.3,-160.9 l 122.9,-159 131.2,-151.9 c 44.3,-50.1 86.1,-102.6 133.9,-149.5 93.2,-95.9 184,-194.3 284.1,-283 193.3,-184.8 404.1,-350.2 622,-504.1 217.6,-154.6 449.6,-288 688,-405.7 29.9,-14.6 59.5,-29.9 89.6,-43.8 l 91.2,-40.1 91.3,-39.9 92.5,-36.1 c 61.4,-25.2 124,-45.8 186.4,-67.1 62.9,-22.3 121.5,-37.7 183.5,-52.7 245.7,-55.5 503.3,-60.1 748.4,-6.8 122.7,26.2 241.8,65.4 355.8,119 115.6,53.9 226.3,117.9 329.4,192.4 103.4,74 199.2,158.4 286.9,250.7 89.7,96 161.7,185.7 205.8,288.6 43.1,102.1 61.5,210.4 48,321.6 -5.5,55.5 -18.2,111.6 -37.3,167 -18,55.6 -42.8,110.5 -71.5,164.2 -57.2,107.7 -131.6,210.5 -215.5,306.3 -42,48 -86.3,94.5 -132.6,138.9 -45.3,43.4 -96.5,88.9 -140.6,123.3 l -4.1,3.2 c -63.1,49.2 -78.5,137 -38.8,204.1 14.5,24.7 24.2,37.8 36.5,55.2 12.2,15.8 24.1,31.8 37.5,46.6 25.7,30.4 54.7,58.8 86.7,85.4 63.6,52.7 144,98.4 237.1,117.6 91.9,19.4 194.1,10.6 274.3,-22.8 l 31.3,-11.3 27.9,-14.5 55,-30 c 33.7,-21.9 63.9,-46 95.5,-69.5 l -262.9,-102.6 c 0.6,8.4 2,30.9 1.5,47.9 0.1,18.4 -1.1,36.9 -2.6,55.6 -1.2,18.7 -4.8,37.1 -6.8,55.6 -4.1,18.1 -7.1,36.5 -11.6,54.3 -18.3,71.2 -47,137.6 -88.8,192.9 -41.8,55.3 -93.2,102.5 -154.8,139.6 -14.8,10 -32.7,16.2 -48.8,24.8 -16.8,7.6 -31.9,17.7 -50.8,22.5 -36.5,10.9 -71.1,27.3 -109.6,32.7 l -56.4,12.2 c -18.8,3.3 -37.7,3.5 -56.5,5.6 -37.7,5.8 -75.1,2.2 -112.5,1.6 -74.2,-7.7 -148.5,-20.2 -218.6,-50.8 -70.3,-28.7 -138,-67.1 -200.5,-114.5 -31.1,-23.9 -61.4,-49.3 -89.3,-76.8 -14.4,-13.6 -27.7,-27.7 -40.7,-41.9 -12.1,-13.3 -26.6,-30.7 -33.1,-39.2 l -0.1,-0.1 -3.6,-4.6 c -49.5,-62.4 -135.6,-78.7 -203.5,-42.6 -104.4,55.3 -197,112.5 -291.5,173.8 -94.3,60 -185.4,124.5 -275,191 -179,133.5 -349.5,278.7 -510.8,434.2 -79.9,78.8 -157.9,159.4 -231.6,244.6 -76.8,81.8 -143.8,173.5 -211.9,263 -130.5,184.2 -238.6,387 -307.8,602.2 -12.2,37.8 8.6,78.4 46.4,90.5 30.3,9.8 62.4,-1.6 80.2,-26.1 l 2.2,-3 c 125.9,-173.5 251,-339.5 389.7,-497.1 140.2,-156.1 285.6,-307.6 444.4,-446.6 158.5,-139.1 323.9,-270.9 495,-395.4 85.6,-62.3 172.6,-122.7 260.2,-181.7 86.8,-58.8 179.2,-115.9 264.2,-167.6 l -207.2,-47.2 0.5,0.7 c 21.1,28.1 36.5,45.5 55,66.3 17.9,19.7 36.1,38.8 55,56.8 37.5,36.7 77.4,70.5 119,102.4 83.5,63.4 176.2,116.6 275.6,156.9 98.8,42.3 207.2,63 314.8,73 54.1,1.8 108.5,5.2 161.9,-1.8 26.7,-2.8 53.9,-4 80.2,-8.5 l 78.1,-16.4 c 52.5,-8.6 102.5,-29.6 153.4,-46.1 25.5,-7.3 49.9,-21.4 74.7,-32.9 24.5,-12.6 49.9,-22.8 73.4,-38 95.9,-57.2 182.3,-135 250.2,-226.5 68.4,-91.7 113.5,-197.1 140.6,-303.2 6.6,-26.6 11.4,-53.4 17,-80.1 3.4,-26.9 8,-53.8 9.9,-80.8 2.3,-27 3.9,-54.2 3.9,-81.7 0.1,-28.8 -0.3,-52.2 -4.1,-89.3 -8.7,-86.7 -86,-149.9 -172.7,-141.1 -27.1,2.7 -51.9,12.1 -73,26.5 l -17.2,11.9 c -19.6,13.5 -38.7,29.3 -57.7,42 l -28.4,15.1 -13.9,8 -13.5,4.1 c -36.5,16 -66.5,15 -97.6,9.7 -30.8,-6.1 -64.6,-22.9 -98,-50.6 -16.5,-13.8 -33.1,-29.6 -48.1,-47.5 -8,-8.6 -14.7,-18.1 -22,-27.2 -6,-8.3 -14.6,-21.1 -16.1,-23.7 l -42.9,207.3 c 64.3,-50.1 115.5,-96.4 169.5,-147.8 52.9,-50.7 103.5,-103.7 152,-159.2 96.8,-110.8 185.3,-231.7 257.2,-366.7 35.9,-67.4 68,-138.1 92.5,-213.2 25.5,-74.5 43.8,-153.2 52.1,-234.4 19.7,-162 -7.8,-333.7 -72.8,-484 -64.3,-150.9 -169.4,-277.4 -266.9,-381.2 -101.5,-107 -212.9,-205 -332.9,-290.9 -119.7,-86.4 -247.9,-160.6 -381.3,-222.8 -134.7,-63.3 -278.2,-110.8 -424.2,-141.9 -292.2,-63.4 -597.1,-57.8 -886.9,7.9 -71.6,17 -145.9,37.1 -212.6,60.7 -67.6,23.1 -135.5,45.5 -201.3,72.5 l -99.4,38.9 -97.6,42.5 -97.5,42.9 c -32.2,14.9 -63.6,31.1 -95.5,46.6 -254,125.4 -500,267.1 -730.5,430.7 -230.7,162.9 -453.4,337.9 -657.6,532.8 -105.5,93.9 -201.4,197.4 -299.6,298.6 -50.3,49.6 -94.4,104.6 -141.1,157.4 l -138,160 -129.3,167.2 c -42.3,56.2 -88.1,109.9 -126.4,169 l -119.5,173.9 -59.7,87 c -19.1,29.5 -36.8,59.9 -55.2,89.8 -149.6,238.4 -283.4,484.9 -406,738.3 -62.1,126.4 -115.5,257.3 -169.7,387.7 l -73,199.4 c -25.1,66.2 -43.5,135.1 -65.4,202.6 -81.7,272 -140.5,552.9 -166.1,839.1 -13.9,143 -15.8,287.4 -12.6,431.8 7.9,144.2 19.3,288.9 46.7,431.6 10.9,71.8 29.4,142.3 45.3,213.2 20,69.9 37.9,140.5 62.9,209.1 46.6,137.9 103.5,272.8 172.3,401.7 68.4,129 147,252.8 236,369.6 45.4,57.7 91.6,114.9 142.4,169 25.3,27.2 51.1,54 78.4,80.1 28.3,27.2 52.4,50 89.8,80 69.1,55.5 170.1,44.5 225.6,-24.7 55.5,-69.1 44.4,-170.1 -24.7,-225.6 l -0.2,-0.1 -4.1,-3.3"
         style="fill:#000072;fill-opacity:1;fill-rule:nonzero;stroke:none"
         id="path138" />
      <path
         d="m 8659.38,24281 c -97.4,47.4 -183.94,96.3 -271.84,150.4 -87.3,53.2 -171.41,111.6 -253.71,171.9 -82.5,60.1 -160.35,127.1 -235.9,195.5 -74.5,70.1 -143.79,145.9 -206.35,226.1 -12.34,15.8 -9.55,38.7 6.3,51.1 13.31,10.3 31.5,10 44.35,0.3 l 1,-0.8 c 77.96,-59.2 157.61,-114 240.71,-163.7 82.79,-50.1 167.9,-95.7 254.34,-138.6 86.55,-42.8 175,-81.5 263.7,-118.7 88.25,-35.9 180.66,-71.9 266.15,-100 l 1.8,-0.6 c 77.45,-25.4 119.66,-108.8 94.25,-186.2 -25.39,-77.5 -108.79,-119.6 -186.25,-94.2 -6.15,2 -12.85,4.7 -18.55,7.5"
         style="fill:#000072;fill-opacity:1;fill-rule:nonzero;stroke:none"
         id="path140" />
      <path
         d="m 8468.52,23594.9 c -97.4,47.4 -183.95,96.3 -271.85,150.5 -87.3,53.2 -171.41,111.5 -253.7,171.9 -82.5,60 -160.35,127 -235.9,195.5 -74.5,70.1 -143.8,145.8 -206.35,226.1 -12.35,15.8 -9.55,38.7 6.3,51 13.3,10.4 31.5,10 44.35,0.3 l 1,-0.8 c 77.95,-59.1 157.6,-114 240.7,-163.6 82.8,-50.1 167.9,-95.7 254.34,-138.6 86.56,-42.9 175.01,-81.5 263.71,-118.7 88.25,-35.9 180.65,-72 266.15,-100 l 1.8,-0.6 c 77.45,-25.4 119.65,-108.8 94.25,-186.3 -25.4,-77.4 -108.8,-119.6 -186.25,-94.2 -6.15,2 -12.85,4.8 -18.55,7.5"
         style="fill:#000072;fill-opacity:1;fill-rule:nonzero;stroke:none"
         id="path142" />
      <path
         d="m 8481.88,22918.1 c -97.4,47.4 -183.95,96.3 -271.85,150.4 -87.3,53.2 -171.4,111.6 -253.7,171.9 -82.5,60.1 -160.35,127.1 -235.9,195.5 -74.5,70.1 -143.8,145.9 -206.35,226.1 -12.36,15.8 -9.55,38.7 6.3,51.1 13.3,10.3 31.5,10 44.35,0.3 l 1,-0.8 c 77.95,-59.2 157.6,-114 240.7,-163.7 82.8,-50.1 167.9,-95.7 254.35,-138.6 86.55,-42.8 175,-81.5 263.7,-118.7 88.25,-35.9 180.65,-71.9 266.15,-100 l 1.8,-0.6 c 77.45,-25.4 119.65,-108.8 94.25,-186.2 -25.4,-77.5 -108.8,-119.6 -186.25,-94.2 -6.15,2 -12.85,4.7 -18.55,7.5"
         style="fill:#000072;fill-opacity:1;fill-rule:nonzero;stroke:none"
         id="path144" />
      <path
         d="m 8291.02,22232 c -97.41,47.4 -183.95,96.3 -271.85,150.5 -87.3,53.1 -171.41,111.5 -253.71,171.8 -82.5,60.1 -160.35,127.1 -235.9,195.6 -74.5,70 -143.79,145.8 -206.35,226.1 -12.34,15.8 -9.55,38.7 6.3,51 13.31,10.4 31.5,10 44.35,0.3 l 1,-0.8 c 77.96,-59.2 157.61,-114 240.71,-163.7 82.79,-50.1 167.9,-95.7 254.34,-138.6 86.55,-42.8 175,-81.5 263.7,-118.7 88.25,-35.9 180.66,-71.9 266.15,-99.9 l 1.8,-0.6 c 77.45,-25.5 119.66,-108.8 94.25,-186.3 -25.39,-77.4 -108.79,-119.6 -186.25,-94.2 -6.15,2 -12.85,4.7 -18.54,7.5"
         style="fill:#000072;fill-opacity:1;fill-rule:nonzero;stroke:none"
         id="path146" />
      <path
         d="m 17132.7,23428.1 c 0,0 -1312.9,1074.2 -4105.8,608.7 -2090.5,-348.4 -3425.45,246.1 -3964.65,567.1 -147.35,87.8 -338.35,12.2 -386.9,-152.3 -116.5,-395.1 -281.5,-1119 -291.2,-2074.3 -0.95,-97 50.3,-187.5 135.15,-234.6 473.65,-263.2 2156.5,-1063.9 4507.6,-672 2792.9,465.5 4105.8,-608.7 4105.8,-608.7 v 2566.1"
         style="fill:#ff8d06;fill-opacity:1;fill-rule:nonzero;stroke:none"
         id="path148" />
      <path
         d="m 16445.9,21595.6 c -455,180.1 -1140.3,358.9 -2066.5,358.9 -404.6,0 -854.8,-34 -1352.3,-117 -448.2,-74.7 -872.3,-106 -1268.2,-106 -1642.9,-0.1 -2802.75,539.8 -3212.23,763.1 8.53,356.4 38.43,678 79.05,961.1 467.01,-242.2 1585.98,-721.1 3133.18,-721.1 396,-0.1 819.9,31.3 1268.2,106 497.2,82.9 947.8,117 1352.2,117 972.7,0 1679.2,-197 2133,-385.8 21.9,-225.8 56.5,-349.2 56.5,-349.2 -159.9,-219.1 -148.7,-477.2 -122.9,-627"
         style="fill:#bf6a21;fill-opacity:1;fill-rule:nonzero;stroke:none"
         id="path150" />
      <path
         d="m 16516.5,23400.6 c -453.6,189.3 -1161.5,387.5 -2137.3,387.5 -404.4,0 -855,-34 -1352.3,-116.9 -448.4,-74.8 -861.7,-106.1 -1240.1,-106.1 -1386.1,0 -2300.98,421 -2724.54,673.2 -42.37,25.2 -88.32,36.9 -133.48,36.9 -53.01,0 -104.91,-16.2 -148.52,-45.6 16.54,63.3 33.01,122.1 49.04,176.5 9.09,30.8 31.55,55.2 61.58,67 8.89,3.5 22.25,7.3 38.11,7.3 15.3,0 32.94,-3.6 51.14,-14.4 484.09,-288.2 1414.57,-697 2796.27,-697 389.7,0 815.4,32.6 1276.9,109.5 483.6,80.6 921.8,113.6 1315.4,113.6 996.5,0 1707,-211.9 2142,-400.6 6.8,-18.4 13.7,-36.8 20.7,-55.1 -5.7,-46.3 -10.6,-91.6 -14.9,-135.8"
         style="fill:#ffd19b;fill-opacity:1;fill-rule:nonzero;stroke:none"
         id="path152" />
      <path
         d="m 14387.6,21749.1 c 1339.6,0 2188.1,-365.1 2584.6,-590.7 v 2187.4 c -280.7,188.5 -1561.3,925.6 -3918.9,532.7 -2098.1,-349.6 -3452.56,218 -4073.17,587.5 -37.06,22.1 -71.78,13.9 -89.25,7.1 -30.03,-11.8 -52.49,-36.2 -61.58,-67 -124.7,-422.9 -275.39,-1118.6 -284.66,-2030.4 -0.35,-38.9 19.77,-74.5 52.63,-92.7 450.73,-250.5 2100.23,-1037.8 4403.23,-654 510.1,85 972.3,120.1 1387.1,120.1 m 2745.2,-1047.7 c -36.4,0 -72.4,12.4 -101.7,36.3 -12.2,10 -1301.2,1020.8 -3977.8,574.6 -2405.6,-400.9 -4138.16,426.8 -4611.98,690 -135.8,75.5 -219.2,219.7 -217.68,376.5 9.62,948.9 167.24,1675.6 297.76,2118.2 37.35,126.6 129.34,226.8 252.34,275 122.61,48.1 257.71,37.1 370.65,-30.2 469.24,-279.4 1784.51,-892 3856.11,-546.6 2832.4,471.9 4178,-597.1 4233.9,-642.8 37.3,-30.5 58.9,-76.2 58.9,-124.3 V 20862 c 0,-62.1 -35.7,-118.5 -91.8,-145.1 -21.9,-10.4 -45.4,-15.5 -68.7,-15.5"
         style="fill:#000072;fill-opacity:1;fill-rule:nonzero;stroke:none"
         id="path154" />
      <path
         d="m 26871.1,29044.3 c -36.5,-656.2 -598.1,-1158.6 -1254.3,-1122 -656.3,36.6 -1158.6,598.2 -1122,1254.4 36.5,656.2 598.1,1158.5 1254.3,1121.9 656.3,-36.5 1158.6,-598.1 1122,-1254.3"
         style="fill:#ffffff;fill-opacity:1;fill-rule:nonzero;stroke:none"
         id="path156" />
      <path
         d="m 25299.1,29543.8 c -119.4,94.9 -244,183.3 -372.8,264.9 22.2,24 45.6,47 70.3,69.1 190.3,170.3 431.6,262.2 685,262.2 19.4,0 39,-0.5 58.6,-1.6 153,-8.6 299.1,-50 430.2,-120.5 -353.6,-23.9 -668.4,-203.6 -871.3,-474.1"
         style="fill:#d9d9ea;fill-opacity:1;fill-rule:nonzero;stroke:none"
         id="path158" />
      <path
         d="m 25681.6,30140 c -253.4,0 -494.7,-91.9 -685,-262.2 -204.9,-183.3 -326.3,-435.5 -341.6,-710 -31.5,-566.8 403.9,-1053.6 970.7,-1085.2 274.5,-15.5 538.6,77.3 743.6,260.6 204.9,183.3 326.3,435.4 341.5,710 v 0 c 15.3,274.6 -77.2,538.7 -260.5,743.6 -183.4,205 -435.5,326.3 -710.1,341.6 -19.6,1.1 -39.2,1.6 -58.6,1.6 m 3,-2380.2 c -25.5,0 -51.1,0.8 -76.8,2.2 -743.5,41.4 -1314.7,680.1 -1273.3,1423.6 20.1,360.2 179.2,691 448.1,931.5 268.9,240.5 614.8,361.8 975.5,341.8 360.2,-20 691,-179.2 931.5,-448.1 240.4,-268.8 361.8,-615.3 341.8,-975.4 -20.1,-360.2 -179.2,-691.1 -448.1,-931.6 -249.7,-223.3 -566.3,-344 -898.7,-344"
         style="fill:#000072;fill-opacity:1;fill-rule:nonzero;stroke:none"
         id="path160" />
      <path
         d="m 28083.2,23880.3 c 6.5,-342.5 -54.8,-680.6 -179.8,-1001 l -1.1,-0.5 v -1.5 c -118,-299.9 -292.3,-583.7 -519.3,-839.4 h -0.5 c -338.6,-381.2 -795.6,-700.2 -1361.2,-917.2 -2.5,-1 -5.6,-2.5 -8.6,-3.5 -336,-127.5 -711.2,-219.5 -1122.1,-267.2 -23.1,-2.5 -47.2,-6 -70.3,-7.5 -2,-0.5 -4,-0.5 -6.5,-1 -455.6,-49.8 -893.6,-70.8 -1303,-70.8 -8.5,0.5 -16.5,0 -25.1,0 -1544.5,1 -2676.7,281.7 -2790.2,310.9 -2.5,1 -4.5,1.5 -7,2 l -2.5,0.5 c 0,0 -3728,143.6 -4267,3676.2 l -1,1.5 c -45.7,610.8 42.2,1186.5 182.3,1686.2 290.9,1039.8 806.7,1748.5 806.7,1748.5 0,0 -1202.5,1308.5 -30.1,2332.1 52.7,45.7 104.5,85.9 156.7,121.6 l 2,1 c 46.7,32.1 92.9,59.8 139.1,83.9 l 2,1 c 1014.7,529.4 1903.7,-697.7 1903.7,-697.7 6954.7,1813.3 7335,-3903.3 7335,-3903.3 779.5,-656 1153.7,-1465.7 1167.8,-2254.8"
         style="fill:#ffffff;fill-opacity:1;fill-rule:nonzero;stroke:none"
         id="path162" />
      <path
         d="m 18586.9,29080.4 c -233.1,-155.5 -450.6,-332.5 -599.9,-461.1 -33.1,-28.4 -62.8,-54.4 -88.6,-77.4 -73,-65.4 -183.4,-61.8 -255.6,4.6 -356.7,327.3 -517.2,943.9 -177,1267 v 0.7 c 44.8,42.5 98.4,80 161.2,111.2 427.1,210.3 832.4,-306.1 1013,-585 55.6,-86.7 33.1,-202.5 -53.1,-260"
         style="fill:#ff85a8;fill-opacity:1;fill-rule:nonzero;stroke:none"
         id="path164" />
      <path
         d="m 23420,21014 c -294.1,0 -577.7,10.1 -850.4,28.9 -3264.3,226.1 -5008.9,1718.6 -5669.8,2439.8 -80.4,186.7 -148.1,378.5 -202,574.5 -68.8,273 -111.1,552.5 -125.3,834.3 -20,399.4 20,801.1 105,1194.5 49,-16.3 101.4,-25.1 155.7,-25.1 h 1477.2 c -342.5,-216.2 -782.1,-697.1 -609.6,-1707.9 209.2,-1225.2 2805.1,-2824.6 6277.7,-2824.8 964.7,0 1996.9,123.4 3064.7,412.6 -37.4,-34.7 -75.6,-68.4 -114.5,-101.3 -178.1,-147.1 -374,-272.3 -578.4,-382.4 l -156.4,-77.4 c -51.3,-27.4 -107,-46.2 -160.2,-69.7 -87.9,-39.8 -179.9,-69.8 -271.4,-101 -847.2,-135.6 -1627.2,-195 -2342.3,-195"
         style="fill:#bfbfdc;fill-opacity:1;fill-rule:nonzero;stroke:none"
         id="path166" />
      <path
         d="m 17987,28619.3 c -680.5,470 -527.1,1169.5 -521.2,1194.2 v 0.7 c 44.8,42.5 98.4,80 161.2,111.2 69.2,34.1 137.9,49.1 205.1,49.1 347.5,0 656.6,-400.4 807.9,-634.1 20.4,-31.8 30.3,-67.6 30.4,-102.9 0.1,-61 -29,-120.7 -83.5,-157.1 -233.1,-155.5 -450.6,-332.5 -599.9,-461.1 v 0"
         style="fill:#d971a0;fill-opacity:1;fill-rule:nonzero;stroke:none"
         id="path168" />
      <path
         d="m 19705.1,30139.9 c 18,-24.9 25.3,-40.9 36.2,-60.8 10,-18.9 18,-38.2 26.3,-57.2 16.8,-37.8 28.5,-77.4 40.5,-115.9 11.9,-38.5 20.4,-78.1 27.2,-117.8 5.9,-40 10.5,-79.9 10.6,-120.8 0.1,-36.7 -29.6,-66.6 -66.3,-66.7 -19,0 -36.1,7.8 -48.3,20.6 l -1.6,1.7 c -26.9,28.3 -50.1,57.4 -74.6,85.3 l -68.9,83.4 c -22.2,27.6 -46.5,53.2 -68.1,79 l -33.5,36.9 c -9.8,11.1 -23.7,25.6 -28.7,29.9 -67.8,58.7 -75.2,161.4 -16.5,229.2 58.7,67.9 161.3,75.2 229.1,16.6 9.6,-8.4 18,-17.5 25.1,-27.3 l 11.5,-16.1"
         style="fill:#000072;fill-opacity:1;fill-rule:nonzero;stroke:none"
         id="path170" />
      <path
         d="m 23647.6,23363.9 c 0,0 -1152.7,-119.2 -1726.7,822 0,0 -368.5,-2015.1 762.5,-2219.9 1096.8,-198.7 964.2,1397.9 964.2,1397.9"
         style="fill:#000072;fill-opacity:1;fill-rule:nonzero;stroke:none"
         id="path172" />
      <path
         d="m 21865.2,23367 c 0,0 1147.3,-19 914.9,-1414.9 0,0 -922.6,85.2 -914.9,1414.9"
         style="fill:#f24667;fill-opacity:1;fill-rule:nonzero;stroke:none"
         id="path174" />
      <path
         d="m 22035,23777.4 c -12.5,-175.8 -17.7,-394.3 3.3,-615.4 58.8,-618.5 285.4,-967.8 673.7,-1038.1 208.8,-37.8 369.2,-2.6 490.4,107.5 237.5,215.6 289.7,683.8 290.5,966.7 -308.2,3.1 -966.4,74.4 -1457.9,579.3 z m 830.5,-1989.3 c -67.3,0 -137.5,6.7 -210.7,19.9 -272.1,49.3 -491,191.2 -650.5,421.7 -472.6,682.9 -251,1932.2 -241.4,1985.1 12,65.5 63.2,116.8 128.7,128.9 65.4,12.1 131.6,-17.4 166.3,-74.2 512.7,-840.5 1530.3,-750.2 1573.5,-745.9 42.7,4.2 85.7,-8.9 118.8,-36.4 33,-27.5 53.8,-67.2 57.3,-110 3.3,-39.1 74.2,-962.6 -389.2,-1383.4 -150.7,-136.9 -336,-205.7 -552.8,-205.7"
         style="fill:#000072;fill-opacity:1;fill-rule:nonzero;stroke:none"
         id="path176" />
      <path
         d="m 23656.5,23524.1 c 10.1,0.3 34.6,-0.8 53.5,-1.5 l 62.6,-3 131.3,-6.5 138.4,-6.2 c 47.6,-2.4 96.9,-6.3 149.3,-12.8 l 0.7,-0.1 c 14.2,-1.8 24.2,-14.7 22.4,-28.9 -0.7,-5.4 -3,-10.3 -6.5,-14.1 -36,-39.5 -75.7,-74.9 -118.9,-103.5 -42.8,-29.6 -88.6,-54 -136.1,-75.1 -47.5,-20.7 -96.9,-38.3 -148.2,-50.5 -25.4,-6.7 -51.7,-11 -78.4,-14.7 -28.3,-3 -50.9,-5.7 -88,-3.6 -88.3,4.9 -156,80.5 -151.1,168.8 4.6,83.5 72.3,148.4 154.3,151.3 l 14.7,0.4"
         style="fill:#000072;fill-opacity:1;fill-rule:nonzero;stroke:none"
         id="path178" />
      <path
         d="m 20696.2,21121.9 c 242.9,-19.6 484.5,-43.2 724.6,-68.2 l 719.8,-72.5 c 479.7,-46.2 961.9,-66.2 1443.1,-57.9 240.6,5.4 481,14.2 720.6,33.6 120,6.7 239.4,19.3 358.9,32 l 179.1,18.5 c 59.7,6.2 117,17 175.6,25.2 233.9,32 462.4,89.7 686.8,156.4 110.3,39 222.6,72.8 329,121 53.2,23.5 108.9,42.3 160.2,69.7 l 156.4,77.4 c 204.4,110.1 400.3,235.3 578.4,382.4 176.2,148.7 336.4,315.1 473.9,498.3 275.8,366 447.4,804.7 493.4,1256.4 47,452.7 -42.4,914.2 -234.3,1330.3 -99,207.2 -224,402.2 -366.2,584.7 -142.7,182.8 -309.1,347 -483.5,502.7 l -3.1,2.8 c -32.7,29.1 -50.8,68.9 -53.7,109.4 l -0.1,0.1 c -7.5,88.3 -21.2,188.6 -37.8,283.2 -7.7,48 -16.9,95.9 -26.8,143.7 -9,47.9 -19.7,95.5 -31,143.1 -44.3,190.2 -97.4,378.9 -163.2,563 -127.4,369.6 -297.8,723.7 -509.4,1049.8 -211.2,326.1 -464.9,623.6 -757.1,877 -291.9,253.9 -621.7,462.5 -974.3,623.6 l -269,111.3 c -91.5,32.3 -184.9,60 -277.3,90.5 -91.5,33.2 -187.8,50.9 -282.5,74.1 -95.2,21.2 -189,48.2 -286.5,59.6 l -290.1,44.6 c -97.1,12.1 -195.4,16.5 -293.1,25.2 l -146.7,11.5 c -31.4,3.5 -63.2,3.4 -94.9,3.3 -17.6,-0.1 -35.1,-0.2 -52.5,0.4 l -295.3,2.3 -73.8,0.5 -73.9,-4.4 -147.8,-8.6 -295.6,-17.5 c -196.4,-25 -393.3,-44.8 -589.3,-73.7 -195.1,-36.1 -391,-67.5 -585.5,-107.2 l -580.7,-136.1 -1.7,-0.4 c -65.4,-15.3 -130.9,11 -168.7,61.5 -26,34.8 -60.7,76.9 -93.6,114.2 -33.9,38 -68.3,75.8 -104.5,111.9 -71.7,72.6 -147.6,141.1 -227,203.5 -158.8,124.9 -333,226.4 -515.5,284.2 -182.5,58.1 -372.1,65.3 -551.2,16.8 -88.8,-26.4 -177,-60 -258.9,-110.8 -21.2,-10.9 -41.2,-24.4 -61.1,-38.4 l -60.2,-40.8 c -37.6,-31.9 -77.5,-60.4 -113.7,-94.3 -35.4,-34.6 -74.4,-66.5 -105.9,-103.9 l -49.8,-54.3 -44.9,-57.4 c -31.7,-37.2 -54.8,-79.2 -82,-118.9 -12,-20.6 -22.6,-41.9 -34.1,-62.8 -12.1,-20.6 -22,-42.1 -30.7,-64.1 -39.8,-86.1 -65,-177.5 -79.4,-270.8 -14.3,-93.2 -18.2,-188.9 -8.3,-284.9 18.2,-192.1 78.3,-384.2 166,-565.7 43.9,-90.8 94.4,-179.2 150.3,-264.3 27.7,-42.6 57.2,-84.1 87.4,-124.9 29.7,-39.5 63.7,-82.1 92.1,-113.9 l 0.3,-0.3 c 51.6,-57.8 54.3,-142.2 11.3,-202.8 -37.1,-52.2 -77.3,-114.4 -114,-173.8 -37.4,-60.1 -73.5,-121.6 -108.5,-183.6 -70.8,-123.6 -135.2,-251.3 -197.4,-379.8 -122.2,-258.2 -227.7,-524.3 -312.7,-796.3 -168.8,-543.6 -260.4,-1112.5 -232.1,-1676.8 14.2,-281.8 56.5,-561.3 125.3,-834.3 74.7,-271.5 175.7,-535.1 300.7,-788 259.2,-501.4 616.8,-951.2 1033.4,-1340.6 l 0.7,-0.7 c 64.7,-60.5 68.2,-162.1 7.6,-226.9 -60.5,-64.7 -162.1,-68.2 -226.8,-7.6 -439.1,410.2 -822,889.9 -1101.1,1430.6 -135.1,272.5 -244.4,557.7 -325,851.6 -74.7,295.3 -120.2,597.4 -135.4,900.8 -16.6,303.5 2.7,607.6 45.2,906.7 42.9,299.2 111.4,593.8 201.1,881 89.8,287.3 200.8,567.2 329.3,838.6 65.3,135.1 133,269.2 207.8,399.8 37,65.5 75.2,130.5 115.1,194.7 40.4,65.1 79.5,126.3 127.2,193.5 l 11.6,-203.1 c -43.8,49.2 -77,91.7 -112.6,138.7 -34.3,46.3 -67.6,93.2 -99,141.4 -63.1,96.2 -120.4,196.3 -170.9,300.7 -100.5,208.5 -173.8,436.1 -196.6,676.1 -22.6,239.1 12.8,491.6 113.6,714.4 11.6,28.3 24.4,55.9 39.4,82.4 14.5,26.6 28.4,53.7 43.7,79.9 33.4,50.1 63.9,102.9 102.2,148.7 18.5,23.5 36.5,47.4 55.5,70.5 l 59.9,65.7 c 38.9,45.2 83.8,82.8 126.1,123.6 43,40.1 91.1,75.4 136.7,113 l 74.2,50.7 c 24.5,17.1 49.4,33.7 76.4,48 102.9,63.2 218.6,109.2 337.2,143.6 239.9,65.9 500.6,53.8 730.8,-20.2 231.4,-73.5 436.6,-195.9 618.2,-338.4 91,-71.5 176.3,-148.7 256.9,-230.2 40.5,-40.5 79.2,-82.8 117.4,-125.7 38.5,-44.2 73.3,-85.5 112.2,-137.5 l -170.5,61.1 595.5,139.5 c 200,40.8 401.9,73.4 602.7,110.4 202.3,29.9 406.3,50.6 609.4,76.1 l 307.4,18.4 153.7,8.9 76.8,4.4 77.2,-0.4 308.8,-2.5 c 18.1,-0.5 36.3,-0.5 54.5,-0.4 33.3,0.1 66.6,0.2 99.9,-3.4 l 154.3,-12.1 c 102.9,-9 206,-13.9 308.6,-26.6 l 306.9,-47.1 c 102.9,-12.4 203.3,-40.6 304.5,-63.3 100.9,-24.7 203,-43.9 301.3,-79.1 98.9,-32.5 198.7,-62.3 296.8,-97 l 289.2,-119.7 c 379.8,-173.3 737.2,-399.2 1052.9,-673.9 316.1,-274.2 589.8,-595.4 816.1,-945 226.8,-349.6 407.8,-726.7 542.9,-1118.3 69.7,-195.2 125.9,-394.8 172.9,-596.7 12,-50.4 23.3,-101 32.9,-152 10.5,-50.8 20.3,-101.8 28.6,-153.2 17.8,-103.8 32.2,-203.1 41.6,-315.4 l 0.1,-0.3 -56.9,112.2 c 192,-164.9 377.2,-340.1 537.6,-539.5 158.9,-200 299.9,-415.8 413,-647.5 218.9,-465.1 330.9,-992.1 275,-1510.9 -53.6,-517.3 -252.7,-1017.3 -564.4,-1428.7 -155.5,-206 -335.5,-391.8 -532.1,-556.4 -198.3,-163 -414.7,-300.6 -639.3,-420.5 l -171.8,-83 c -56.7,-29.1 -117.1,-49.1 -175.4,-74 -116.6,-50.8 -238.2,-86.3 -358,-126.9 -242.8,-69.4 -488.9,-128 -738.2,-159.4 -495.1,-64.4 -985.1,-90.8 -1479.1,-91 -492.9,0.3 -985.2,29.5 -1474.3,85.3 -244.7,25.7 -487.8,67.7 -728.3,120 -240.2,55.7 -477.8,121.7 -707.4,221 -20,8.7 -29.3,32 -20.6,52.1 6.9,16 23.1,25.1 39.5,23.8 l 1.4,-0.1"
         style="fill:#000072;fill-opacity:1;fill-rule:nonzero;stroke:none"
         id="path180" />
      <path
         d="m 18901.7,26221.4 h -2068.5 c -183.3,0 -333,147.8 -333.6,331.1 -1.1,317.1 28.9,817 190.2,1298.7 45.5,136.1 173.3,227.8 316.8,227.8 h 1895.1 v -1857.6"
         style="fill:#555584;fill-opacity:1;fill-rule:nonzero;stroke:none"
         id="path182" />
      <path
         d="m 18324.2,26561.5 h -1490.8 c -63.3,0 -122.5,17.7 -173.1,48.3 1.5,180 13.7,402.3 50.5,639.5 38,-15 79.3,-23.2 122.6,-23.2 h 1474.8 c 2.9,-214.8 7.5,-437.6 15,-641.8 0.3,-7.6 0.6,-15.2 1,-22.8"
         style="fill:#40407f;fill-opacity:1;fill-rule:nonzero;stroke:none"
         id="path184" />
      <path
         d="m 16826.3,27751.7 c 5.1,16.2 10.3,32.4 15.8,48.5 23.6,70.8 89.7,118.3 164.4,118.3 H 18304 c 0,-36 0,-74.1 0.1,-114 h -1297.5 c -65.5,0 -127.7,-19.1 -180.3,-52.8"
         style="fill:#bbbbce;fill-opacity:1;fill-rule:nonzero;stroke:none"
         id="path186" />
      <path
         d="m 17006.5,27918.5 c -74.7,0 -140.8,-47.5 -164.4,-118.3 -152.4,-455.1 -183.1,-929.4 -181.9,-1247.1 0.3,-94.4 77.9,-171.2 173,-171.2 h 1908 v 1536.6 h -1734.7 m 1895.2,-1857.6 h -2068.5 c -271.5,0 -493.2,220.3 -494.1,491.1 -1.2,341.8 32.2,853.6 198.5,1350.1 67.5,201.8 256,337.4 468.9,337.4 h 1895.2 c 88.7,0 160.6,-71.8 160.6,-160.5 v -1857.6 c 0,-88.6 -71.9,-160.5 -160.6,-160.5"
         style="fill:#000072;fill-opacity:1;fill-rule:nonzero;stroke:none"
         id="path188" />
      <path
         d="m 19803.3,29100.8 -850.2,-99.4 c -113.8,-13.3 -214.4,-79.1 -272.9,-177.6 -1.3,-2.3 -2.6,-4.4 -3.9,-6.7 -137.8,-233.4 -210.8,-499.1 -211.5,-770.2 -1,-357.4 0.7,-961.4 18.8,-1456.7 16.3,-448.3 184.4,-879.5 485.1,-1212.4 10.9,-12.1 22.1,-24.4 33.6,-36.7 144.8,-155.8 347.5,-245 560.2,-245 h 1356.8 l -1116,4004.7"
         style="fill:#b9bedb;fill-opacity:1;fill-rule:nonzero;stroke:none"
         id="path190" />
      <path
         d="m 20157.4,25256.6 h -594.8 c -167,0 -328.3,70.6 -442.9,194 -10.8,11.6 -21.4,23.1 -31.9,34.8 -271,300.1 -428.6,694.5 -443.8,1110.7 -18.4,504.1 -19.6,1125 -18.6,1450.4 0.6,242.2 66,480.5 189.1,689 l -138.2,81.6 v 0 l 142,-75.2 c 33.3,56.1 89.2,92.6 153.5,100 l 509.6,59.6 c -2.7,-3.1 -5.4,-6.3 -8,-9.5 -351.3,-427.3 -344.4,-743.4 -344.4,-743.4 -12,-546.1 20.2,-1301.4 42.8,-1740 13.1,-256.3 121.9,-499.9 309.3,-675.3 232.9,-218.1 481.3,-373.8 676.3,-476.7"
         style="fill:#8b8ec1;fill-opacity:1;fill-rule:nonzero;stroke:none"
         id="path192" />
      <path
         d="m 18676.3,28817.1 138.2,-81.6 c -123.1,-208.5 -188.5,-446.8 -189.1,-689 -1,-325.4 0.2,-946.3 18.6,-1450.4 15.2,-416.2 172.8,-810.6 443.8,-1110.7 10.5,-11.7 21.1,-23.2 31.9,-34.8 114.6,-123.4 275.9,-194 442.9,-194 h 1145.3 l -1022.4,3668.8 -713.7,-83.5 c -64.3,-7.4 -120.2,-43.9 -153.5,-100 l -142,75.2 m 2243,-3881.5 h -1356.7 c -255.9,0 -503,108 -677.9,296.2 -11.9,12.8 -23.8,25.8 -35.3,38.7 -321.3,355.7 -508.3,822.4 -526.2,1313.8 -18.7,509.6 -19.9,1135.4 -18.9,1463.1 0.8,299.2 81.6,593.6 233.7,851.3 l 4.2,7 c 83.5,140.8 230.2,236.2 392.3,255.1 l 850.1,99.4 c 79,9.4 152.1,-40.2 173.3,-116.3 l 1116,-4004.7 c 13.5,-48.4 3.6,-100.2 -26.8,-140.2 -30.3,-40 -77.6,-63.4 -127.8,-63.4"
         style="fill:#000072;fill-opacity:1;fill-rule:nonzero;stroke:none"
         id="path194" />
      <path
         d="m 19861,29113.1 c 892.6,148.8 4304.8,621.9 6999.2,-314 0,0 334.3,-167.1 584.9,-659.4 218,-428.3 266.8,-1722.7 275.7,-2052.1 1.6,-60.9 -8.8,-121 -30.9,-177.8 -53.7,-138 -185.8,-395.8 -481.5,-634.3 -146,-117.9 -329.8,-179.4 -517.6,-179.4 h -845.9 c -241.9,0 -450.2,169.8 -498.8,406.7 -88.9,434.5 -260.2,1034.5 -828.2,1061.4 -508.1,24 -991.5,-581.2 -1274.5,-1021.9 -178.7,-278.3 -486.7,-446.2 -817.5,-446.2 h -1709.7 c -147.9,0 -294,32.1 -427.8,95.1 -205.3,96.8 -518.2,271.3 -807.3,542.1 -187.4,175.4 -296.2,419 -309.3,675.3 -22.6,438.6 -54.8,1193.9 -42.8,1740 0,0 -6.9,316.1 344.4,743.4 97.5,118.5 236.2,195.8 387.6,221.1"
         style="fill:#b9bedb;fill-opacity:1;fill-rule:nonzero;stroke:none"
         id="path196" />
      <path
         d="m 27269,26075.3 c -36.2,-93.4 -128.6,-273.7 -344.6,-448 -63.3,-51.3 -146.2,-79.4 -233.6,-79.4 H 25845 c -27.6,0 -50.7,19.1 -55.8,45.7 -39.7,193.9 -126,613.8 -372.2,947.9 -185.3,251.6 -462.1,454.5 -878,474.1 -16.5,1 -33.6,1.5 -50.7,1.5 -21.6,0 -43.2,-0.5 -64.3,-2 -531.9,-30.6 -1056.8,-443.5 -1561.1,-1228.6 -95.9,-149.2 -259.2,-238.6 -437,-238.6 h -1709.8 c -82.9,0 -161.7,17.6 -235.1,52.3 -180.3,84.8 -446.5,234.5 -691.1,463.1 -100,93.9 -159.2,224.5 -166.8,368.7 -20.6,405.8 -54.2,1167.3 -42.2,1706.7 v 2.5 c 2.5,23.6 27.7,203.5 241.6,463.7 26.7,32.6 66.8,54.7 113.1,62.2 403.3,67.3 1418.4,215.5 2652.5,241.6 121.6,2.6 245.7,4.1 371.2,4.1 410.4,0 805.2,-14.6 1183.9,-43.2 410.9,-31.2 802.7,-79.4 1174.4,-144.2 390.8,-67.8 759.4,-154.2 1104.5,-259.7 83.9,-25.1 166.8,-51.7 247.6,-79.3 58.3,-38.7 229.1,-169.3 372.7,-451.6 109.5,-215.5 202.5,-980 226.6,-1859.5"
         style="fill:#a6ecff;fill-opacity:1;fill-rule:nonzero;stroke:none"
         id="path198" />
      <path
         d="m 22408.3,25547.9 h -1575.7 1575.7 v 0 m 179.8,3360.8 v 0.1 c 39.1,0.8 78.5,1.5 118.1,2 -39.6,-0.5 -79,-1.3 -118.1,-2.1 -0.1,0 0.1,0 0,0"
         style="fill:#dcdfed;fill-opacity:1;fill-rule:nonzero;stroke:none"
         id="path200" />
      <path
         d="m 22408.3,25547.9 h -1575.7 l 1533.6,2936 c 80.6,2.8 162.3,5.1 244.9,6.8 121.6,2.5 245.6,4.1 371.2,4.1 326.9,0 643.9,-9.3 950.8,-27.5 l -1524.8,-2919.4 m 179.8,3360.8 v 0 c 0.1,0 -0.1,0 0,0 39.1,0.8 78.5,1.6 118.1,2.1 21.9,0.4 43.9,0.6 66,0.9 -61.9,-0.7 -123.3,-1.7 -184.1,-3 v 0"
         style="fill:#d3f6ff;fill-opacity:1;fill-rule:nonzero;stroke:none"
         id="path202" />
      <path
         d="m 25417,26541.5 c -129.9,176.4 -304.8,328.9 -541.1,411 236.3,-82.1 411.2,-234.6 541.1,-411 v 0 m -916.7,475.5 c -0.8,0 -1.6,0.1 -2.4,0.1 0.8,0 1.6,-0.1 2.4,-0.1 m -3.1,0.1 c -1.9,0 -3.8,0 -5.7,0 1.9,0 3.8,0 5.7,0 m -6.2,0 c -0.9,0 -1.8,0 -2.7,0 v 0 c 0.9,0 1.8,0 2.7,0 m 1888.8,1461.4 c -254.8,76.3 -522.2,142.4 -801.8,198.3 -81.1,16.2 -163.2,31.6 -246.2,46.2 369.6,-64.7 719.4,-146 1048,-244.5"
         style="fill:#dcdfed;fill-opacity:1;fill-rule:nonzero;stroke:none"
         id="path204" />
      <path
         d="m 25417,26541.5 c -129.9,176.4 -304.8,328.9 -541.1,411 -100.7,35 -212.6,57.3 -336.9,63.1 -12.6,0.8 -25.6,1.3 -38.7,1.4 -0.8,0 -1.6,0.1 -2.4,0.1 -0.2,0 -0.4,0 -0.7,0 -1.9,0 -3.8,0 -5.7,0 -0.1,0 -0.3,0 -0.5,0 -0.9,0 -1.8,0 -2.7,0 v 0 0 c -21.6,0 -43.2,-0.5 -64.3,-2 l 694.2,1328.7 c 74.9,-11.5 149,-23.6 222.4,-36.4 312.7,-54.3 611.3,-120.5 895,-198.8 L 25417,26541.5 m 988.4,1929.3 c -262.4,79.6 -538.4,148.2 -827.4,206 279.6,-55.9 547,-122 801.8,-198.3 8.6,-2.5 17.1,-5.1 25.6,-7.7"
         style="fill:#d3f6ff;fill-opacity:1;fill-rule:nonzero;stroke:none"
         id="path206" />
      <path
         d="m 19623.2,26430.4 c 0,0.5 0,1 -0.1,1.5 -15.2,300.5 -37.6,795.8 -43.3,1251.6 5.7,-455.8 28.1,-951.1 43.3,-1251.5 0.1,-0.5 0.1,-1.1 0.1,-1.6 m -44.8,1462.3 c 0,85.5 0.8,168.1 2.5,246 v 0 c -1.7,-77.9 -2.5,-160.5 -2.5,-246 m 2.9,251.6 c 1.4,11.6 6.1,40.5 20.3,83.9 -14.2,-43.4 -18.9,-72.3 -20.3,-83.9 m 7306,34.1 c -94.5,119 -179.7,182.8 -217.6,208 -80.8,27.6 -163.7,54.2 -247.6,79.3 83.9,-25.1 166.8,-51.7 247.6,-79.3 37.9,-25.1 123.1,-89 217.6,-208 m -7019,465.1 c 19.9,11.6 42.8,19.7 67.3,23.6 -24.5,-4 -47.4,-12 -67.3,-23.6 m 67.3,23.6 c 402.9,67.3 1416.5,215.2 2648.9,241.6 -1232.4,-26.4 -2246,-174.3 -2648.9,-241.6 m 5396.2,55.9 c -4.8,0.8 -9.5,1.6 -14.2,2.4 v 0 c -371.7,64.8 -763.5,113 -1174.4,144.2 -28.4,2.1 -57,4.2 -85.6,6.2 -184,12.8 -371.8,22.3 -563.3,28.5 -175.2,5.6 -353.6,8.5 -535,8.5 -38.3,0 -76.4,-0.2 -114.4,-0.4 38,0.2 76.1,0.4 114.4,0.4 410.4,0 805.2,-14.6 1183.9,-43.2 410.9,-31.2 802.7,-79.4 1174.4,-144.2 4.7,-0.8 9.4,-1.6 14.2,-2.4"
         style="fill:#8b8ec1;fill-opacity:1;fill-rule:nonzero;stroke:none"
         id="path208" />
      <path
         d="m 27261.5,26293 c -41.5,594.1 -114.1,1062.6 -196.1,1223.8 -19.7,38.8 -39.9,74.6 -60.3,107.8 -123.8,201.6 -318.7,350.3 -545.1,418.6 -5,1.5 -9.9,3 -14.9,4.5 -68.9,21.1 -138.7,41.4 -209.5,60.9 l 186.5,357.1 c -5.5,1.7 -11.1,3.4 -16.7,5.1 5.6,-1.7 11.2,-3.4 16.7,-5.1 v 0 c 83.9,-25.1 166.8,-51.7 247.6,-79.3 37.9,-25.2 123.1,-89 217.6,-208 51,-64.2 104.7,-144.6 155.1,-243.6 100.4,-197.5 186.8,-856.2 219.1,-1641.8 m -7632.3,81 c -2.8,18.6 -4.9,37.4 -6,56.4 0,0.5 0,1.1 -0.1,1.6 -15.2,300.4 -37.6,795.7 -43.3,1251.5 -0.9,71 -1.4,141 -1.4,209.2 0,85.5 0.8,168.1 2.5,246 v 0 0 2.5 c 0.1,0.9 0.2,1.9 0.4,3.1 1.4,11.6 6.1,40.5 20.3,83.9 26.5,81.2 86.4,213 220.9,376.6 12.5,15.4 28,28.4 45.8,38.7 19.9,11.6 42.8,19.6 67.3,23.6 v 0 0 c 402.9,67.3 1416.5,215.2 2648.9,241.6 1.2,0 2.4,0 3.6,0 l -221.9,-424.8 c -1122.5,-38.8 -2031.3,-172 -2407.7,-234.8 -46.2,-7.5 -86.4,-29.6 -113,-62.3 -214,-260.1 -239.1,-440 -241.6,-463.6 v -2.5 c -9,-405.2 7.7,-935.7 25.3,-1346.7 m 5489,1969.8 c -304.7,46.8 -622.2,82.8 -952,107.8 -77,5.8 -154.7,11 -233.1,15.7 l 210.1,402.3 c -28.4,2.1 -57,4.2 -85.6,6.2 28.6,-2 57.2,-4.1 85.6,-6.2 410.9,-31.2 802.7,-79.4 1174.4,-144.2 l -199.4,-381.6 m -1623.9,560.5 c -175.2,5.6 -353.6,8.5 -535,8.5 -62.8,0 -125.2,-0.4 -187.1,-1.1 24.1,0.3 48.4,0.5 72.7,0.7 38,0.2 76.1,0.4 114.4,0.4 181.4,0 359.8,-2.9 535,-8.5"
         style="fill:#7cb1dc;fill-opacity:1;fill-rule:nonzero;stroke:none"
         id="path210" />
      <path
         d="m 24057.6,28875.8 c -184,12.8 -371.8,22.3 -563.3,28.5 191.5,-6.2 379.3,-15.7 563.3,-28.5"
         style="fill:#a5a7ce;fill-opacity:1;fill-rule:nonzero;stroke:none"
         id="path212" />
      <path
         d="m 23933.1,28467.3 c -306.9,18.2 -623.9,27.5 -950.8,27.5 -125.6,0 -249.6,-1.6 -371.2,-4.1 -82.6,-1.7 -164.3,-4 -244.9,-6.8 l 221.9,424.8 v 0 c 60.8,1.3 122.2,2.3 184.1,3 61.9,0.7 124.3,1.1 187.1,1.1 181.4,0 359.8,-2.9 535,-8.5 191.5,-6.2 379.3,-15.7 563.3,-28.5 28.6,-2 57.2,-4.1 85.6,-6.2 l -210.1,-402.3"
         style="fill:#9eb8dc;fill-opacity:1;fill-rule:nonzero;stroke:none"
         id="path214" />
      <path
         d="m 25578,28676.8 c -85.7,17.2 -172.5,33.4 -260.4,48.6 v 0 0 c 4.7,-0.8 9.4,-1.6 14.2,-2.4 83,-14.6 165.1,-30 246.2,-46.2"
         style="fill:#a5a7ce;fill-opacity:1;fill-rule:nonzero;stroke:none"
         id="path216" />
      <path
         d="m 26235.6,28108.6 c -283.7,78.3 -582.3,144.5 -895,198.8 -73.4,12.8 -147.5,24.9 -222.4,36.4 l 199.4,381.6 v 0 c 87.9,-15.2 174.7,-31.4 260.4,-48.6 289,-57.8 565,-126.4 827.4,-206 5.6,-1.7 11.2,-3.4 16.7,-5.1 l -186.5,-357.1"
         style="fill:#9eb8dc;fill-opacity:1;fill-rule:nonzero;stroke:none"
         id="path218" />
      <path
         d="m 25880.3,25648.6 h 810.6 c 64.6,0 125.1,20.2 170.5,56.8 185,149.2 269.9,301 306.5,388 -27.1,954.7 -128.4,1625.2 -215.2,1795.6 -125.8,247.3 -272.7,367.6 -328.4,406.9 -1012.5,342.8 -2245.4,516.6 -3664.9,516.6 -1391.8,0 -2566.9,-171 -3007.6,-244.4 -22,-3.7 -40.3,-13.3 -51.6,-27 -186.9,-227.3 -215.4,-382.5 -218.9,-407.3 -11.5,-538.8 21.6,-1293.8 42.3,-1696.8 6,-117.8 54,-224.4 135.1,-300.4 234.7,-219.7 491.3,-363.6 665.3,-445.6 59.7,-28.1 124.4,-42.4 192.3,-42.4 h 1709.6 c 143.5,0 275.3,71.9 352.6,192.3 561,873.5 1154.2,1304.4 1765.5,1275.2 1013.9,-47.9 1255.4,-1077.2 1336.3,-1467.5 z m 7.2,-34.8 v -0.1 z m 803.4,-166.1 h -846.1 c -74.5,0 -139.4,52.9 -154.2,125.8 -65.8,321.4 -266.3,1299.8 -1156.1,1341.9 -15.4,0.7 -30.8,1.1 -46.1,1.1 -517.8,0 -1036.2,-398.4 -1540.8,-1184.2 -114.5,-178.2 -309.6,-284.6 -521.7,-284.6 h -1709.6 c -97.7,0 -191.2,20.7 -278,61.6 -187,88.1 -463.1,243.1 -716.9,480.6 -119.2,111.8 -189.7,266.9 -198.4,436.8 -21,407 -54.3,1171 -42.5,1714.2 0,2.7 0.3,7.8 0.6,10.5 3.9,37.5 34.9,238.8 263.9,517.2 42.1,51.3 103.9,86 173.8,97.6 445.6,74.3 1633.8,247.1 3040.6,247.1 1447.6,0 2706.9,-178.8 3742.7,-531.6 8.2,-2.8 16,-6.7 23.2,-11.5 71.4,-47.5 254,-190.4 406.4,-490 135.7,-266.5 217.1,-1147.4 237.5,-1902.2 0.4,-13.2 -1.9,-26.5 -6.6,-38.8 -39.2,-101.7 -140.1,-300.6 -375,-490.1 -81,-65.4 -186.4,-101.4 -296.7,-101.4"
         style="fill:#000072;fill-opacity:1;fill-rule:nonzero;stroke:none"
         id="path220" />
      <path
         d="m 24488.5,26725.4 c 12.3,0 24.6,-0.3 37,-0.9 741.4,-35 913.2,-873.7 977.9,-1189.4 33,-161.4 176.6,-278.5 341.4,-278.5 h 846.1 c 153.9,0 301.9,51.1 416.7,143.8 268.5,216.6 386.4,448.6 432.7,567.6 14.4,36.9 21.1,75.7 20.1,115.3 -19.6,719.3 -98.9,1670.4 -258.3,1983.6 -200.7,394.2 -460.1,557.7 -507.2,585 -2635,910.1 -5952.2,462.1 -6907.5,302.8 -115.6,-19.2 -218.5,-77.7 -290,-164.7 -302.4,-367.7 -307.9,-637.5 -307.9,-640.2 -12.1,-552.6 21.5,-1322.7 42.6,-1733 11.3,-219.6 103.2,-420.7 258.7,-566.3 271.8,-254.5 566.6,-420 766,-514.1 112.4,-52.9 233.4,-79.8 359.5,-79.8 h 1709.6 c 277.6,0 532.7,139.3 682.4,372.4 323.4,503.6 822.7,1096.4 1380.2,1096.4 z m 1356.3,-1789.8 c -316.6,0 -592.4,225 -655.9,535.1 -92.2,449.9 -244.9,912.6 -678.5,933.1 -443.3,21 -898.8,-585.2 -1132,-948.3 -209,-325.5 -565.1,-519.9 -952.5,-519.9 h -1709.6 c -171.3,0 -342.9,38.2 -496.3,110.4 -220.4,103.9 -546.4,287.1 -848.6,570.1 -216.5,202.7 -344.3,481.2 -359.9,784.2 -21.3,414.1 -55.2,1191.3 -43.1,1749.3 -0.2,55.9 14.6,398.7 381,844.3 120.8,146.9 293,245.5 485.1,277.5 975.7,162.7 4369.3,620.3 7078.4,-320.6 6.6,-2.3 12.9,-5 19.1,-8.1 15.6,-7.8 384.6,-196.8 656.2,-730.2 224.6,-441.2 279.8,-1629.9 293.1,-2120.5 2.2,-82.5 -11.8,-163.4 -41.8,-240.4 -58,-148.9 -204,-437.8 -530.3,-701.1 -171.7,-138.6 -391.3,-214.9 -618.3,-214.9 h -846.1"
         style="fill:#000072;fill-opacity:1;fill-rule:nonzero;stroke:none"
         id="path222" />
      <path
         d="m 24818.6,24736.3 c -401.2,103.3 -1074.6,342 -1256.3,809.1 -60.5,155.4 37,328.3 200.3,362 434.5,89.6 1370,219.3 2166.4,-101.4 136.7,-55 205.4,-214.1 151.7,-351.3 -66.1,-168.7 -189.6,-391.1 -414.3,-559.5 -241.2,-180.7 -555.9,-234 -847.8,-158.9"
         style="fill:#000072;fill-opacity:1;fill-rule:nonzero;stroke:none"
         id="path224" />
      <path
         d="m 25214.1,25404.7 c 10.7,-29.4 15,-45.6 21.2,-66.6 6.1,-20.3 10,-39.2 15,-58.9 9.1,-38.5 16.1,-77.2 22.1,-115.1 12.1,-76.4 19.7,-152 22.9,-227.6 7.9,-150.9 -0.2,-300.5 -16.9,-447.7 -18.1,-147.1 -46.8,-291.9 -87.7,-432.8 -19,-70.7 -45.2,-139.7 -69.8,-208.3 -27.4,-68.2 -57,-135.3 -90.5,-200.7 -6.7,-12.9 -22.5,-17.9 -35.4,-11.4 -7.7,4 -12.6,11.3 -13.9,19.3 l -0.2,1.4 c -11,73 -15.5,144 -22.3,214.7 l -10.4,105.4 c -2.4,34.8 -5.1,69.5 -9.6,104.2 -4.4,34.7 -6.5,69 -9.8,103.3 -2.7,34.2 -9,68.5 -11.6,102.4 -5.3,67.9 -17.4,135.2 -24,202 -18.5,133.4 -40.5,264.5 -65.7,392.4 -13.6,63.6 -25.9,127.1 -41.5,188.3 -6.5,31.1 -15.6,60.8 -22.6,90.5 l -20.9,77.1 -4.7,17 c -36.1,133.3 42.6,270.7 175.8,306.8 126.1,34.3 256.2,-35.3 300.5,-155.7"
         style="fill:#000072;fill-opacity:1;fill-rule:nonzero;stroke:none"
         id="path226" />
      <path
         d="m 25675,25689.8 c -3.5,-62.4 -296.1,-96.9 -653.7,-77 -357.5,19.9 -644.6,86.7 -641.1,149.2 3.5,62.4 296.2,96.9 653.7,77 357.6,-19.9 644.6,-86.7 641.1,-149.2"
         style="fill:#ffffff;fill-opacity:1;fill-rule:nonzero;stroke:none"
         id="path228" />
      <path
         d="m 16583.5,23871.5 c 0,0 2626,-4012.1 9917.3,-2528.1 0,0 144.6,-982.7 -893.8,-1448.2 0,0 -131.3,-1050.4 -1110,-1098.1 0,0 -5741,-310.3 -8020.7,2673.6 0,0 -149.2,420.7 92.5,751.9 0,0 -176.4,630.2 14.7,1648.9"
         style="fill:#ff8d06;fill-opacity:1;fill-rule:nonzero;stroke:none"
         id="path230" />
      <path
         d="m 26340.6,20548.2 c 61.2,174.3 77.6,303.3 77.6,303.3 1.1,0.5 2.2,1 3.4,1.5 0.9,-35.5 0.4,-80.3 -3.2,-131.9 17.9,48.4 32.3,95.8 43.9,141.4 -25.1,-99 -63.5,-206 -121.7,-314.3"
         style="fill:#bf6a21;fill-opacity:1;fill-rule:nonzero;stroke:none"
         id="path232" />
      <path
         d="m 17791.6,20281.1 c -0.9,0.7 -1.8,1.2 -2.7,1.8 0.9,-0.6 1.8,-1.1 2.7,-1.8 m -3.7,2.4 c -205.3,132.4 -402.1,276.2 -587.8,432.7 v 0 c 185.7,-156.5 382.5,-300.3 587.8,-432.7"
         style="fill:#8f8fc1;fill-opacity:1;fill-rule:nonzero;stroke:none"
         id="path234" />
      <path
         d="m 16567.7,21355 v 0 c -31.1,38 -61.5,76.5 -91.4,115.7 0,0 -0.9,2.5 -2.5,7.3 1.6,-4.8 2.5,-7.3 2.5,-7.3 29.9,-39.2 60.3,-77.7 91.4,-115.7"
         style="fill:#bf6a21;fill-opacity:1;fill-rule:nonzero;stroke:none"
         id="path236" />
      <path
         d="m 17200.1,20716.2 c -229.3,193.1 -441.7,405.5 -632.4,638.8 v 0 c 190.7,-233.3 403.2,-445.7 632.4,-638.8 v 0"
         style="fill:#000072;fill-opacity:1;fill-rule:nonzero;stroke:none"
         id="path238" />
      <path
         d="m 24033.3,18787.9 c -1139.6,0 -4136.7,138.7 -6241.7,1493.2 -0.9,0.7 -1.8,1.2 -2.7,1.8 -0.2,0.2 -0.8,0.5 -1,0.6 -205.3,132.4 -402.1,276.2 -587.8,432.7 -229.2,193.1 -441.7,405.5 -632.4,638.8 -31.1,38 -61.5,76.5 -91.4,115.7 0,0 -0.9,2.5 -2.5,7.3 -8.7,27.5 -38.2,129.3 -42.1,261.4 15,28.4 31.5,56.7 51.6,84.2 0,0 -13.9,49.7 -29.7,143.6 16.5,69.7 43.4,140.9 85.4,209.4 2267.7,-2356.9 6614.8,-2569.6 8110.6,-2569.6 329.6,0 521,10.4 521,10.4 146.4,7.1 275.4,34.7 389.9,76.3 -93.2,-307.6 -358.4,-862.2 -1063.5,-896.6 0,0 -170.1,-9.2 -463.7,-9.2"
         style="fill:#bf6a21;fill-opacity:1;fill-rule:nonzero;stroke:none"
         id="path240" />
      <path
         d="m 23420,21014 c -294.1,0 -577.7,10.1 -850.4,28.9 272.7,-18.8 556.3,-28.9 850.4,-28.9 715.1,0 1495.1,59.4 2342.3,195 -0.1,-0.1 -0.1,-0.1 -0.2,-0.1 -847.6,-135.6 -1626.7,-194.9 -2342.1,-194.9"
         style="fill:#e5e5f1;fill-opacity:1;fill-rule:nonzero;stroke:none"
         id="path242" />
      <path
         d="m 25762.1,21208.9 c 0.1,0 0.1,0 0.2,0.1 240.8,38.5 486.6,83.1 738.5,134.4 v 0 c -251.5,-51.2 -498.3,-96 -738.7,-134.5 m -9125.7,2588.6 c -35,46.9 -52.3,73.1 -52.9,74 0,0 0,0 0.1,0 0,0 17.2,-26.3 52.8,-74"
         style="fill:#9999c7;fill-opacity:1;fill-rule:nonzero;stroke:none"
         id="path244" />
      <path
         d="m 23334.1,20615 c -4655.8,0.2 -6590.4,2511.7 -6813.5,2825 14,134.6 34.3,278.6 62.9,431.5 0.6,-0.9 17.9,-27.1 52.9,-74 313,-419.1 2044.3,-2485.6 5933.2,-2754.6 272.7,-18.8 556.3,-28.9 850.4,-28.9 715.4,0 1494.5,59.3 2342.1,194.9 240.4,38.5 487.2,83.3 738.7,134.5 0.3,-2.1 30.2,-210.9 -38.5,-480.9 1,3.9 1.9,7.7 2.9,11.6 -14.6,-7 -28.7,-14.2 -43.6,-21.1 -1.5,57.7 -6.3,91.4 -6.3,91.4 -1138.4,-231.7 -2162.5,-329.4 -3081.2,-329.4"
         style="fill:#ffd19b;fill-opacity:1;fill-rule:nonzero;stroke:none"
         id="path246" />
      <path
         d="m 26418.4,20721.1 c 3.6,51.6 4.1,96.4 3.2,131.9 14.9,6.9 29,14.1 43.6,21.1 -1,-3.9 -1.9,-7.7 -2.9,-11.6 -11.6,-45.6 -26,-93 -43.9,-141.4"
         style="fill:#e5c3a6;fill-opacity:1;fill-rule:nonzero;stroke:none"
         id="path248" />
      <path
         d="m 16431.6,21739.1 c -2.3,70.3 2.5,148.8 21.7,229.7 0.1,-0.5 0.2,-1 0.3,-1.6 -18.9,-80.1 -24,-158.2 -21.9,-227.8 0,-0.1 -0.1,-0.2 -0.1,-0.3"
         style="fill:#ffd19b;fill-opacity:1;fill-rule:nonzero;stroke:none"
         id="path250" />
      <path
         d="m 16431.7,21739.4 c -2.1,69.6 3,147.7 21.9,227.8 15.8,-93.9 29.7,-143.6 29.7,-143.6 -20.1,-27.5 -36.6,-55.8 -51.6,-84.2"
         style="fill:#e5c3a6;fill-opacity:1;fill-rule:nonzero;stroke:none"
         id="path252" />
      <path
         d="m 25662.8,19744.7 c -59.8,-19.1 -105.3,-28.8 -156.7,-41 -49.7,-9.8 -99.4,-20.8 -148.8,-28.9 -98.7,-17.4 -197.2,-30.2 -295.6,-42.3 -196.7,-21.3 -392.9,-35.6 -588.8,-41.9 -391.7,-13.6 -781.8,-4.3 -1169.9,22.9 -194.2,10 -387.4,31.2 -580.7,48.7 -193.1,19.2 -385.4,45.7 -577.8,68.3 l -574.6,86.4 -571.7,100.9 c -5.8,1 -9.7,6.6 -8.7,12.5 1,5.6 6.2,9.4 11.7,8.8 l 0.4,-0.1 575.9,-63.7 576.9,-49 c 192.6,-10 384.8,-24 577.3,-30.7 192.5,-4.8 384.8,-13.5 577,-10.9 384.3,-2.2 768.1,13.6 1147.6,51.5 189.8,18.4 378.2,44.5 564.2,76.9 92.6,17.5 184.8,35.6 275.3,57.7 45.4,10.4 89.4,23.4 133.9,35.1 41.9,12.6 90,27.3 121.5,39.8 l 3.5,1.4 c 82.5,32.7 175.9,-7.6 208.6,-90 32.8,-82.5 -7.5,-175.9 -90,-208.7 -3.3,-1.3 -7.1,-2.6 -10.5,-3.7"
         style="fill:#000072;fill-opacity:1;fill-rule:nonzero;stroke:none"
         id="path254" />
      <path
         d="m 16684.4,22333.9 c 75.3,-85.6 162.5,-174.7 247.8,-259.6 86.7,-85 175,-169.2 265.8,-250.7 181.4,-163.4 368.5,-322 563.3,-471.3 194.6,-149.3 393.5,-294.5 600.1,-428.7 204.8,-137.2 417.8,-262 633.3,-383.9 -227.1,97.8 -453.7,199.4 -673.8,314.6 -221.8,112.2 -437.7,236.3 -650.8,365.9 -213.3,129.6 -420.4,269.7 -623.7,416.3 -101.8,73.2 -201.5,149.5 -300.4,227.5 -99.1,79.5 -194.4,157.2 -292.9,247.3 -65.5,59.9 -70,161.7 -10.1,227.2 60,65.5 161.7,70.1 227.2,10.1 4.3,-3.9 8.4,-8 12.2,-12.3 l 2,-2.4"
         style="fill:#000072;fill-opacity:1;fill-rule:nonzero;stroke:none"
         id="path256" />
      <path
         d="m 16621.3,21545.4 c 2213.5,-2857.4 7810.6,-2591.1 7867.1,-2588 830.1,40.5 954.5,920.7 959.4,958.1 7.2,55.3 42.7,103.3 93.6,126.2 670.7,300.6 790.2,833.7 804.7,1107.4 -3708.7,-714.7 -6182.7,14.1 -7612.4,759.5 -1074.1,560.1 -1728.2,1201.7 -2047.3,1571 -86.1,-751 35.6,-1208.9 37,-1214.1 13,-47.1 3.9,-98 -25,-137.5 -160,-219.3 -98.9,-502.9 -77.1,-582.6 z m 7422.1,-2917.5 c -565.7,0 -1590.3,33.2 -2729,228.8 -2291.4,393.5 -4008.5,1263.7 -4965.7,2516.5 -10.1,13.3 -18.1,28.1 -23.7,43.8 -6.9,19.4 -156.9,454.8 71.8,836.4 -41.8,200.4 -131.6,792.1 29,1647.8 12,64.3 62.1,114.9 126.3,127.8 64.2,12.8 129.7,-14.6 165.6,-69.3 6.5,-9.8 662.7,-988.5 2183.2,-1776.1 1405.6,-728.2 3859.6,-1437.6 7567.9,-682.9 43.2,8.8 88.1,-0.5 124.2,-25.9 36.1,-25.4 60.2,-64.4 66.6,-108 1.6,-10.8 142.1,-1057.1 -907.8,-1580.7 -84.5,-424.7 -426.6,-1109.3 -1247,-1149.3 -4.5,-0.3 -173.6,-8.9 -461.4,-8.9"
         style="fill:#000072;fill-opacity:1;fill-rule:nonzero;stroke:none"
         id="path258" />
      <path
         d="m 34142,8187.3 c -58.3,-148.7 -141.7,-285.8 -245.6,-405.3 -237.6,-275.3 -579.7,-455.1 -954.9,-455.1 H 12434 c -118,0 -213.4,95.4 -213.4,213.4 v 122.1 c 0,118.1 95.4,213.5 213.4,213.5 h 20125.3 c 283.3,0 559,115 743.4,329.5 53.2,61.8 101.4,134.1 140.5,219 50.8,110.5 160.8,182.8 282.9,182.8 h 124.5 c 217,0 370.2,-218 291.4,-419.9"
         style="fill:#57bbff;fill-opacity:1;fill-rule:nonzero;stroke:none"
         id="path260" />
      <path
         d="m 26821.6,7875.9 -507.3,-549 h -7030.1 l 507.3,549 h 7030.1"
         style="fill:#ffd93b;fill-opacity:1;fill-rule:nonzero;stroke:none"
         id="path262" />
      <path
         d="m 32941.4,7487.4 h -273.9 c 366.6,89.1 810.5,293.6 1007.8,761.4 17.8,42.2 59.6,69.1 105.2,69.1 h 84.3 c 51.6,0 98.2,-34 110.8,-84.1 1.5,-5.9 2.9,-12.1 4.2,-18.7 -184.4,-436.6 -597.7,-727.7 -1038.4,-727.7"
         style="fill:#418cdc;fill-opacity:1;fill-rule:nonzero;stroke:none"
         id="path264" />
      <path
         d="m 33443.2,8424.1 h 0.5 -0.5 M 12434,7715.4 c -29.2,0 -52.9,-23.8 -52.9,-53 v -122.1 c 0,-29.1 23.7,-52.9 52.9,-52.9 h 20507.4 c 450.9,0 873.2,304.8 1050.9,758.4 17.6,44.8 11.8,93.7 -15.8,134.2 -28.9,42.4 -74.7,66.7 -125.7,66.7 h -124.7 c -58.3,0 -112.1,-35.2 -137.1,-89.6 v -0.1 c -42.6,-92.5 -97.9,-178.7 -164.4,-256.1 -210.7,-245 -526,-385.5 -865.3,-385.5 H 12434 m 20507.4,-549 H 12434 c -206.2,0 -374,167.7 -374,373.9 v 122.1 c 0,206.2 167.8,374 374,374 h 20125.3 c 245.6,0 472.3,99.8 621.8,273.8 47,54.7 86.1,115.6 116.2,181 77.3,168 245.6,276.5 428.8,276.5 h 124.7 c 156.4,0 302.5,-77.3 390.9,-206.8 87.1,-127.6 105.6,-289.2 49.6,-432.2 -225.5,-575.6 -768,-962.3 -1349.9,-962.3"
         style="fill:#000072;fill-opacity:1;fill-rule:nonzero;stroke:none"
         id="path266" />
      <path
         d="m 29699.6,8187.3 c -58.3,-148.7 -141.7,-285.8 -245.7,-405.3 -237.5,-275.3 -579.6,-455.1 -954.8,-455.1 H 7991.61 c -118.05,0 -213.46,95.4 -213.46,213.4 v 122.1 c 0,118.1 95.41,213.5 213.46,213.5 H 28116.9 c 283.2,0 559,115 743.3,329.5 53.3,61.8 101.5,134.1 140.7,219 50.7,110.5 160.7,182.8 282.7,182.8 h 124.6 c 217,0 370.2,-218 291.4,-419.9"
         style="fill:#57bbff;fill-opacity:1;fill-rule:nonzero;stroke:none"
         id="path268" />
      <path
         d="m 22379.2,7875.9 -507.3,-549 h -7030.1 l 507.3,549 h 7030.1"
         style="fill:#ffd93b;fill-opacity:1;fill-rule:nonzero;stroke:none"
         id="path270" />
      <path
         d="m 28499.1,7326.9 h -799.7 c -23.1,49.2 -42.7,92.4 -42.7,92.4 0,0 7.4,-0.2 21.3,-0.2 162.9,0 1218.2,31.2 1554.9,829.7 17.8,42.2 59.6,69.1 105.2,69.1 h 84.3 c 51.6,0 98.2,-34 110.8,-84.1 21.5,-85.2 27.2,-235.3 -79.3,-451.8 -237.6,-275.3 -579.6,-455.1 -954.8,-455.1"
         style="fill:#418cdc;fill-opacity:1;fill-rule:nonzero;stroke:none"
         id="path272" />
      <path
         d="m 29000.8,8424.1 h 0.5 z M 7991.61,7715.4 c -29.2,0 -52.93,-23.8 -52.93,-53 v -122.1 c 0,-29.1 23.73,-52.9 52.93,-52.9 H 28499 c 450.9,0 873.2,304.8 1051,758.4 17.5,44.8 11.7,93.7 -15.9,134.2 -28.9,42.3 -74.8,66.7 -125.7,66.7 h -124.8 c -58.2,0 -112,-35.2 -137,-89.6 v -0.1 c -42.6,-92.5 -97.9,-178.7 -164.5,-256.1 -210.5,-245 -525.9,-385.5 -865.2,-385.5 z M 28499,7166.4 H 7991.61 c -206.25,0 -374.03,167.7 -374.03,373.9 v 122.1 c 0,206.2 167.78,374 374.03,374 H 28116.9 c 245.6,0 472.2,99.8 621.8,273.8 47,54.7 86.2,115.6 116.2,180.9 77.2,168.1 245.5,276.6 428.7,276.6 h 124.8 c 156.4,0 302.5,-77.3 390.9,-206.8 87.1,-127.6 105.6,-289.2 49.6,-432.2 -225.5,-575.6 -768,-962.3 -1349.9,-962.3"
         style="fill:#000072;fill-opacity:1;fill-rule:nonzero;stroke:none"
         id="path274" />
    </g>
  </g>
</svg>
